<svg width="100" height="100" viewBox="0 0 100 100" fill="none" xmlns="http://www.w3.org/2000/svg">
<path d="M50.0916 60.1552C48.0176 60.1552 46.332 58.4695 46.332 56.3955C46.332 54.3214 48.0176 52.6357 50.0916 52.6357C52.1655 52.6357 53.8511 54.3214 53.8511 56.3955C53.8511 58.4695 52.1655 60.1552 50.0916 60.1552ZM50.0916 54.1231C48.8398 54.1231 47.8193 55.1436 47.8193 56.3955C47.8193 57.6473 48.8398 58.6678 50.0916 58.6678C51.3434 58.6678 52.3638 57.6473 52.3638 56.3955C52.3638 55.1436 51.3434 54.1231 50.0916 54.1231Z" fill="#FFBC5E"/>
<path d="M50.0933 54.1233C49.6843 54.1233 49.3496 53.7886 49.3496 53.3796V38.9605C49.3496 38.5515 49.6843 38.2168 50.0933 38.2168C50.5023 38.2168 50.8369 38.5515 50.8369 38.9605V53.3796C50.8369 53.7886 50.5023 54.1233 50.0933 54.1233Z" fill="#FFBC5E"/>
<path d="M42.1771 65.0517C41.9871 65.0517 41.797 64.9773 41.6524 64.8327C41.3632 64.5435 41.3632 64.0725 41.6524 63.7792L47.4322 57.9991C47.7214 57.7099 48.1924 57.7099 48.4857 57.9991C48.7749 58.2883 48.7749 58.7593 48.4857 59.0527L42.7059 64.8327C42.5613 64.9773 42.3713 65.0517 42.1813 65.0517H42.1771Z" fill="#FFBC5E"/>
<path d="M50.0008 88.6303C32.1656 88.6303 17.6562 74.1203 17.6562 56.2844C17.6562 38.4485 32.1656 23.9385 50.0008 23.9385C58.9948 23.9385 67.3485 27.5412 73.5249 34.0856C73.8058 34.383 73.7934 34.854 73.4959 35.135C73.1985 35.4159 72.7275 35.4035 72.4466 35.1061C66.5552 28.8633 58.5858 25.4258 50.0049 25.4258C32.9878 25.4258 19.1477 39.2706 19.1477 56.2844C19.1477 73.2981 32.9919 87.1429 50.0049 87.1429C67.0179 87.1429 80.8622 73.2981 80.8622 56.2844C80.8622 50.3391 79.1683 44.5673 75.9624 39.5929C75.7393 39.2459 75.8384 38.7873 76.1855 38.5642C76.5325 38.3411 76.9911 38.4402 77.2142 38.7873C80.573 44.0013 82.3495 50.054 82.3495 56.2844C82.3495 74.1203 67.8401 88.6303 50.0049 88.6303H50.0008Z" fill="#FFBC5E"/>
<path d="M50.152 20.2075H44.5086C42.3355 20.2075 40.5135 18.5755 40.278 16.4147L40.0219 14.0722C39.9475 13.3822 40.1706 12.6922 40.6292 12.1799C41.0878 11.6676 41.7529 11.3701 42.447 11.3701H57.5554C58.2454 11.3701 58.9105 11.6635 59.3691 12.1799C59.8318 12.6963 60.0549 13.3863 59.9764 14.0722L59.7203 16.4147C59.6748 16.8238 59.303 17.1171 58.9023 17.0717C58.4933 17.0262 58.1999 16.6585 58.2454 16.2495L58.5015 13.9069C58.5305 13.6342 58.4478 13.3739 58.266 13.1673C58.0843 12.9649 57.8323 12.8492 57.5596 12.8492H42.4511C42.1785 12.8492 41.9264 12.9608 41.7405 13.1673C41.5588 13.3698 41.472 13.6342 41.505 13.9069L41.7612 16.2495C41.914 17.6542 43.0956 18.716 44.5127 18.716H50.1561C50.5652 18.716 50.8998 19.0507 50.8998 19.4597C50.8998 19.8687 50.5652 20.2034 50.1561 20.2034L50.152 20.2075Z" fill="#FFBC5E"/>
<path d="M21.792 29.5071C21.5731 29.5071 21.3541 29.4079 21.2054 29.222C20.9534 28.8997 21.0071 28.4329 21.3293 28.1767L27.5636 23.2767C27.8858 23.0247 28.3527 23.0784 28.6088 23.4006C28.8608 23.7229 28.8071 24.1898 28.4849 24.4459L22.2506 29.3459C22.1143 29.4533 21.9532 29.5029 21.792 29.5029V29.5071Z" fill="#FFBC5E"/>
<path d="M78.2055 29.5076C78.0444 29.5076 77.8833 29.4539 77.747 29.3506L71.5127 24.4506C71.1905 24.1986 71.1326 23.7276 71.3888 23.4053C71.6449 23.083 72.1118 23.0252 72.434 23.2814L78.6683 28.1814C78.9905 28.4334 79.0483 28.9044 78.7922 29.2267C78.6435 29.4126 78.4286 29.5117 78.2055 29.5117V29.5076Z" fill="#FFBC5E"/>
<path d="M50.0034 33.0108C49.5944 33.0108 49.2598 32.6761 49.2598 32.2671V30.4409C49.2598 30.0319 49.5944 29.6973 50.0034 29.6973C50.4124 29.6973 50.7471 30.0319 50.7471 30.4409V32.2671C50.7471 32.6761 50.4124 33.0108 50.0034 33.0108Z" fill="#FFBC5E"/>
<path d="M27.1609 49.6076C27.0866 49.6076 27.0081 49.5952 26.9296 49.5704L25.1944 49.0043C24.8019 48.8763 24.5912 48.459 24.7152 48.0665C24.8432 47.674 25.2605 47.4633 25.653 47.5872L27.3882 48.1532C27.7806 48.2813 27.9913 48.6986 27.8674 49.0911C27.7641 49.4051 27.4749 49.6034 27.1609 49.6034V49.6076Z" fill="#FFBC5E"/>
<path d="M34.8121 77.9372C34.6592 77.9372 34.5064 77.8918 34.3742 77.7967C34.0436 77.5571 33.9693 77.0902 34.2089 76.7597L35.2831 75.2806C35.5227 74.946 35.9895 74.8757 36.32 75.1154C36.6506 75.355 36.7249 75.8219 36.4853 76.1524L35.4111 77.6315C35.2665 77.8339 35.0393 77.9372 34.808 77.9372H34.8121Z" fill="#FFBC5E"/>
<path d="M50.0034 82.8701C49.5944 82.8701 49.2598 82.5355 49.2598 82.1265V80.3003C49.2598 79.8913 49.5944 79.5566 50.0034 79.5566C50.4124 79.5566 50.7471 79.8913 50.7471 80.3003V82.1265C50.7471 82.5355 50.4124 82.8701 50.0034 82.8701Z" fill="#FFBC5E"/>
<path d="M74.5809 65.0138C74.5065 65.0138 74.428 65.0014 74.3495 64.9766L72.6143 64.4106C72.2218 64.2825 72.0111 63.8652 72.1351 63.4727C72.2631 63.0802 72.6804 62.8695 73.0729 62.9935L74.8081 63.5595C75.2006 63.6876 75.4113 64.1049 75.2873 64.4974C75.184 64.8114 74.8948 65.0097 74.5809 65.0097V65.0138Z" fill="#FFBC5E"/>
</svg>
