<svg width="100" height="100" viewBox="0 0 100 100" fill="none" xmlns="http://www.w3.org/2000/svg">
<path d="M50.0379 83.9782C50.0048 83.9782 49.9718 83.9782 49.9429 83.9699C43.3946 83.1188 37.9453 77.219 36.6935 69.6211C36.4622 68.2246 36.4043 66.7166 36.5159 65.1425L37.0075 58.28C37.0323 57.9123 37.3215 57.6231 37.6892 57.59C42.3742 57.2099 46.2907 56.0902 49.6702 54.1732C49.8974 54.0451 50.1784 54.0451 50.4056 54.1732C53.785 56.0944 57.7016 57.2099 62.3866 57.59C62.7543 57.6189 63.0435 57.9123 63.0682 58.28L63.2955 61.4654C63.3244 61.8744 63.0145 62.2297 62.6055 62.2586C62.1965 62.2876 61.8412 61.9777 61.8123 61.5687L61.6305 59.0154C57.1686 58.5857 53.3678 57.4867 50.0379 55.6688C46.708 57.4867 42.9071 58.5857 38.4452 59.0154L37.9991 65.2458C37.8958 66.7042 37.9495 68.0924 38.1602 69.3773C39.3004 76.2935 44.1755 81.6687 50.0379 82.4826C55.9003 81.6687 60.7753 76.2976 61.9156 69.3773C61.9776 69.0096 62.023 68.6336 62.0602 68.2535C62.0974 67.8445 62.4609 67.547 62.8699 67.5801C63.2789 67.6173 63.5805 67.9808 63.5434 68.3899C63.5062 68.803 63.4525 69.2203 63.3864 69.6211C62.1346 77.219 56.6894 83.1188 50.137 83.9699C50.104 83.9741 50.0751 83.9782 50.042 83.9782H50.0379Z" fill="#FFBC5E"/>
<path d="M39.9219 76.9744H24.0243C22.3759 76.9744 21.0332 75.6317 21.0332 73.9832V19.0047C21.0332 17.3603 22.3759 16.0176 24.0243 16.0176H62.6816C63.0906 16.0176 63.4253 16.3522 63.4253 16.7613C63.4253 17.1703 63.0906 17.5049 62.6816 17.5049H24.0285C23.198 17.5049 22.5246 18.1784 22.5246 19.0047V73.9832C22.5246 74.8136 23.198 75.4871 24.0285 75.4871H39.926C40.335 75.4871 40.6696 75.8217 40.6696 76.2308C40.6696 76.6398 40.335 76.9744 39.926 76.9744H39.9219Z" fill="#FFBC5E"/>
<path d="M75.9811 76.9748H66.0327C65.6237 76.9748 65.2891 76.6401 65.2891 76.2311C65.2891 75.8221 65.6237 75.4874 66.0327 75.4874H75.9811C76.8073 75.4874 77.4808 74.814 77.4808 73.9835V32.3003C77.4808 31.8913 77.8154 31.5566 78.2244 31.5566C78.6334 31.5566 78.9681 31.8913 78.9681 32.3003V73.9835C78.9681 75.632 77.6295 76.9748 75.9811 76.9748Z" fill="#FFBC5E"/>
<path d="M78.2229 33.0435H64.9323C63.2839 33.0435 61.9453 31.7048 61.9453 30.0564V16.7652C61.9453 16.3561 62.28 16.0215 62.689 16.0215C63.098 16.0215 63.4326 16.3561 63.4326 16.7652V30.0564C63.4326 30.8827 64.106 31.5561 64.9323 31.5561H76.4299L67.1632 22.289C66.874 21.9998 66.874 21.5288 67.1632 21.2355C67.4524 20.9463 67.9234 20.9463 68.2167 21.2355L78.7559 31.7751C78.9707 31.9858 79.0327 32.3081 78.917 32.5849C78.8013 32.8617 78.5328 33.0435 78.2312 33.0435H78.2229Z" fill="#FFBC5E"/>
<path d="M54.1665 28.5909H45.8335C45.4245 28.5909 45.0898 28.2562 45.0898 27.8472C45.0898 27.4382 45.4245 27.1035 45.8335 27.1035H54.1665C54.5755 27.1035 54.9101 27.4382 54.9101 27.8472C54.9101 28.2562 54.5755 28.5909 54.1665 28.5909Z" fill="#FFBC5E"/>
<path d="M66.2999 40.878H34.0132C33.6042 40.878 33.2695 40.5433 33.2695 40.1343C33.2695 39.7253 33.6042 39.3906 34.0132 39.3906H66.2999C66.7089 39.3906 67.0435 39.7253 67.0435 40.1343C67.0435 40.5433 66.7089 40.878 66.2999 40.878Z" fill="#FFBC5E"/>
<path d="M61.0861 46.7198H34.0132C33.6042 46.7198 33.2695 46.3851 33.2695 45.9761C33.2695 45.5671 33.6042 45.2324 34.0132 45.2324H61.0861C61.4951 45.2324 61.8297 45.5671 61.8297 45.9761C61.8297 46.3851 61.4951 46.7198 61.0861 46.7198Z" fill="#FFBC5E"/>
</svg>
