<svg width="394" height="877" viewBox="0 0 394 877" fill="none" xmlns="http://www.w3.org/2000/svg">
<g opacity="0.2">
<mask id="mask0_213_4938" style="mask-type:luminance" maskUnits="userSpaceOnUse" x="-765" y="0" width="1918" height="960">
<path d="M-764.999 0H1152.01V959.367H-764.999V0Z" fill="white"/>
</mask>
<g mask="url(#mask0_213_4938)">
<path d="M-799.066 -2.4003C-799.175 -2.51441 -774.655 105.531 -737.956 193.454C-728.288 214.239 -689.842 323.015 -594.69 442.328C-547.207 501.369 -484.684 560.947 -409.263 607.533C-334.038 654.306 -246.555 687.642 -155.865 703.567C25.0223 734.347 219.666 709.454 355.719 620.182C424.898 580.075 484.854 539.896 535.969 512.045C586.831 483.568 628.264 466.802 653.746 458.392C704.326 440.291 776.46 428.03 853.9 438.173C931.171 447.158 1012.49 480.601 1075.48 532.986C1139.19 584.631 1182.56 652.357 1206.77 704.721C1231.21 757.41 1239.58 793.824 1240.02 793.549C1239.57 793.824 1231.32 757.372 1207.02 704.565C1182.96 652.07 1139.73 584.082 1076.02 532.111C1013.03 479.375 931.549 445.561 854.064 436.36C776.431 425.98 703.967 438.156 653.224 456.304C627.661 464.752 586.1 481.569 535.168 510.1C483.976 537.99 423.987 578.173 354.898 618.247C219.134 707.337 25.0385 732.116 -155.596 701.429C-246.093 685.534 -333.362 652.29 -408.401 605.627C-483.616 559.172 -545.98 499.755 -593.341 440.853C-688.255 321.853 -726.637 213.301 -736.276 192.554C-772.882 104.863 -799.159 -2.47637 -799.066 -2.4003Z" fill="url(#paint0_linear_213_4938)"/>
<path d="M-847.069 -0.942233C-847.104 -1.09015 -822.379 108.333 -784.834 197.051C-774.97 218.009 -735.636 327.838 -638.619 447.644C-590.235 506.927 -526.468 566.576 -449.396 611.945C-372.594 657.564 -283.367 689.041 -191.161 700.959C-98.9236 713.41 -4.59595 707.367 84.3943 692.308C174.096 680.318 256.87 647.569 328.47 611.548C400.277 575.633 463.189 540.078 516.301 515.721C569.217 490.833 611.911 476.802 637.992 469.672C689.938 454.567 762.848 444.973 841.199 453.417C919.357 461.283 1002.66 490.228 1068.45 539.727C1134.97 588.329 1180.73 655.472 1205.79 708.06C1231.13 760.956 1239.65 797.822 1240.13 797.518C1239.65 797.822 1231.25 760.918 1206.05 707.895C1181.13 655.168 1135.5 587.742 1068.96 538.797C1003.14 488.961 919.68 459.664 841.336 451.571C762.816 442.902 689.656 452.378 637.55 467.529C611.398 474.676 568.599 488.749 515.599 513.68C462.413 538.057 399.463 573.643 327.732 609.528C256.156 645.519 173.711 678.15 84.1249 690.136C-4.77551 705.177 -98.9172 711.191 -190.959 698.775C-282.947 686.894 -371.947 655.48 -448.547 609.972C-525.41 564.734 -589.007 505.253 -637.263 446.127C-734.036 326.633 -773.297 217.029 -783.135 196.108C-820.584 107.656 -847.095 -1.05212 -847.069 -0.942233Z" fill="url(#paint1_linear_213_4938)"/>
<path d="M-894.819 0.503095C-894.864 0.346722 -869.949 111.219 -831.609 200.88C-821.588 222.041 -781.363 333.129 -682.284 453.519C-632.901 513.054 -567.789 572.865 -488.987 616.987C-410.563 661.503 -319.499 691.29 -225.777 699.066C-132.004 707.544 -36.9452 695.698 52.715 677.757C143.074 662.969 227.445 633.795 301.596 601.899C375.891 570.249 441.621 539.596 496.656 519.068C551.554 498.038 595.392 486.733 622.076 481.011C675.338 469.118 749.066 461.743 828.449 468.611C907.601 475.356 992.789 499.873 1061.36 546.362C1130.65 591.845 1178.88 658.401 1204.79 711.288C1231.05 764.455 1239.72 801.816 1240.23 801.482C1239.72 801.816 1231.16 764.43 1205.05 711.115C1179.27 658.096 1131.16 591.228 1061.83 545.411C993.222 498.571 907.88 473.704 828.564 466.739C749.031 459.66 675.14 466.908 621.723 478.839C594.975 484.565 551.034 495.883 496.063 516.964C440.954 537.512 375.186 568.195 300.945 599.807C226.807 631.691 142.705 660.789 52.3944 675.564C-37.2177 693.504 -132.09 705.312 -225.645 696.86C-319.13 689.096 -409.947 659.394 -488.166 614.992C-566.751 571.005 -631.666 511.356 -680.931 451.997C-779.75 331.903 -819.895 221.052 -829.916 199.929C-868.131 110.534 -894.854 0.393211 -894.819 0.503095Z" fill="url(#paint2_linear_213_4938)"/>
<path d="M-942.671 2.13493C-942.729 1.97856 -917.474 114.246 -878.233 204.908C-868.014 226.318 -826.67 338.611 -725.629 459.935C-675.12 519.787 -608.365 579.323 -527.924 622.562C-447.82 666.131 -354.775 693.86 -259.614 697.752C-164.312 702.156 -68.6697 684.291 21.6925 663.375C112.696 645.088 198.759 619.384 275.286 591.579C351.94 564.218 420.356 539.072 477.164 522.446C533.889 505.422 578.814 496.978 606.078 492.756C713.229 476.722 909.203 464.88 1054.22 552.938C1126.23 595.172 1177 661.153 1203.79 714.4C1230.96 767.926 1239.79 805.823 1240.33 805.468C1239.79 805.823 1231.08 767.892 1204.05 714.226C1177.4 660.836 1126.73 594.529 1054.66 551.95C983.315 508.216 896.168 487.702 815.785 481.895C735.114 476.105 660.444 482.03 605.812 490.529C578.493 494.755 533.482 503.225 476.69 520.269C419.808 536.917 351.344 562.093 274.718 589.428C198.189 617.237 112.334 642.882 21.3302 661.165C-69.0352 682.098 -164.482 699.899 -259.55 695.521C-354.451 691.633 -447.237 663.976 -527.116 620.534C-607.336 577.409 -673.896 518.05 -724.251 458.371C-825.044 337.36 -866.308 225.312 -876.505 203.944C-915.634 113.553 -942.719 2.03772 -942.671 2.13493Z" fill="url(#paint3_linear_213_4938)"/>
<path d="M-990.613 3.41522C-990.689 3.25039 -964.986 117.398 -924.819 209.185C-914.375 230.836 -872.031 344.65 -768.624 466.73C-717.125 527.166 -648.561 586.402 -566.374 628.707C-484.449 671.097 -389.387 696.941 -292.78 696.763C-195.971 697.177 -99.8901 673.062 -8.78101 649.074C82.9596 627.477 170.68 604.169 249.467 580.73C406.873 532.699 533.905 508.195 589.78 504.429C645.402 499.032 721.022 494.979 802.754 499.112C884.198 503.605 972.909 519.508 1046.91 559.578C1121.64 598.388 1175.09 663.718 1202.75 717.404C1230.87 771.332 1239.86 809.825 1240.44 809.44C1239.86 809.825 1230.99 771.302 1203.02 717.214C1175.49 663.384 1122.13 597.712 1047.31 558.551C973.246 518.126 884.381 501.91 802.834 497.177C720.977 492.845 645.335 496.746 589.594 502.159C533.642 505.925 406.395 530.488 248.992 578.52C170.167 601.972 82.6069 625.229 -9.20422 646.855C-100.345 670.852 -196.241 694.908 -292.777 694.489C-389.105 694.671 -483.907 668.891 -565.582 626.624C-647.536 584.441 -715.894 525.383 -767.249 465.12C-870.383 343.357 -912.65 229.792 -923.059 208.179C-963.117 116.697 -990.677 3.30533 -990.613 3.41522Z" fill="url(#paint4_linear_213_4938)"/>
<path d="M-1038.47 5.01677C-1038.55 4.85617 -1012.48 120.707 -971.308 213.702C-960.624 235.599 -917.225 351.074 -811.283 473.983C-758.623 534.943 -688.29 594.119 -604.189 635.346C-520.308 676.312 -423.217 700.605 -325.142 696.087C-226.843 692.359 -130.489 661.934 -38.5818 634.822C53.9347 609.701 143.441 588.494 224.346 569.383C386.282 530.923 516.696 518.143 573.386 516.19C630.069 513.908 706.839 511.732 789.87 514.242C872.602 517.534 962.997 529.262 1039.61 566.04C1116.98 601.409 1173.16 666.076 1201.7 720.303C1230.79 774.691 1239.92 813.839 1240.53 813.413C1239.91 813.839 1230.91 774.666 1201.96 720.105C1173.56 665.721 1117.45 600.695 1039.98 564.975C963.285 527.838 872.731 515.802 789.921 512.285C706.778 509.572 630.072 511.592 573.286 513.883C516.536 515.84 385.955 528.637 223.955 567.109C142.983 586.245 53.566 607.428 -39.0754 632.574C-131.034 659.698 -227.215 690.06 -325.229 693.771C-422.99 698.272 -519.799 674.051 -603.438 633.221C-687.283 592.103 -757.389 533.117 -809.905 472.338C-915.561 349.751 -958.877 234.538 -969.539 212.675C-1010.58 119.976 -1038.54 4.90688 -1038.47 5.01677Z" fill="url(#paint5_linear_213_4938)"/>
<path d="M-1086.38 6.3225C-1086.47 6.13231 -1059.94 124.134 -1017.7 218.419C-1006.77 240.602 -962.235 357.835 -853.626 481.67C-799.699 543.124 -727.549 602.297 -641.425 642.391C-555.512 681.89 -456.28 704.552 -356.772 695.613C-257.03 687.528 -160.535 650.814 -67.8038 620.529C25.4948 591.718 117.021 572.793 199.897 557.908C366.071 529.22 499.252 528.248 556.823 528.041C614.503 528.818 692.527 528.476 776.929 529.334C861.044 531.367 953.082 539.033 1032.24 572.438C1112.17 604.296 1171.21 668.214 1200.58 723.118C1230.73 777.983 1239.97 817.854 1240.64 817.385C1239.96 817.854 1230.86 777.95 1200.84 722.906C1171.62 667.855 1112.63 603.556 1032.58 571.343C953.316 537.567 861.13 529.613 776.955 527.356C692.45 526.278 614.57 526.477 556.807 525.687C499.201 525.906 365.908 526.878 199.596 555.588C116.623 570.498 25.1261 589.406 -68.3391 618.268C-161.173 648.596 -257.482 685.22 -356.935 693.272C-456.091 702.189 -555.031 679.599 -640.687 640.206C-726.549 600.242 -798.459 541.26 -852.222 479.992C-960.558 356.487 -1005 239.521 -1015.91 217.379C-1058.01 123.391 -1086.46 6.19571 -1086.38 6.3225Z" fill="url(#paint6_linear_213_4938)"/>
<path d="M-1134.32 7.81076C-1134.42 7.62481 -1107.38 127.685 -1064.01 223.356C-1052.83 245.835 -1007.07 364.94 -895.644 489.755C-840.372 551.747 -766.294 610.906 -678.045 649.767C-590.045 687.782 -488.556 708.715 -387.663 695.246C-286.533 682.58 -189.987 639.827 -96.5055 605.932C-2.26123 573.871 91.2938 556.396 176.072 545.982C346.201 527.255 481.552 538.408 540.072 539.888C598.692 543.793 678.068 545.23 763.926 544.389C849.502 545.132 943.15 548.784 1024.8 578.795C1107.22 607.085 1169.21 670.176 1199.43 725.836C1230.66 781.23 1240 821.874 1240.74 821.35C1240.01 821.874 1230.79 781.192 1199.7 725.629C1169.63 669.808 1107.66 606.304 1025.1 577.658C943.343 547.284 849.55 543.341 763.932 542.377C677.988 542.994 598.826 541.405 540.152 537.5C481.623 536.025 346.211 524.855 175.863 543.594C90.9508 554.037 -2.64587 571.509 -97.092 603.645C-190.711 637.591 -287.088 680.255 -387.894 692.879C-488.405 706.298 -589.596 685.437 -677.333 647.531C-765.297 608.784 -839.131 549.832 -894.23 488.018C-1005.35 363.537 -1051.02 244.715 -1062.18 222.269C-1105.43 126.933 -1134.41 7.67975 -1134.32 7.81076Z" fill="url(#paint7_linear_213_4938)"/>
<path d="M-1182.17 9.23073C-1182.27 9.02364 -1154.82 131.362 -1110.23 228.482C-1098.78 251.287 -1051.71 372.345 -937.34 498.221C-880.653 560.774 -804.521 619.891 -714.076 657.45C-623.928 693.94 -520.083 712.996 -417.84 694.899C-315.38 677.58 -218.997 628.525 -124.625 591.334C-29.4766 555.745 66.3353 539.845 152.892 533.928C326.683 525.349 463.617 548.573 523.16 551.755C552.954 554.38 587.944 558.065 626.553 559.502C665.153 560.727 707.173 559.802 750.877 559.434C837.985 558.821 933.223 558.542 1017.29 585.13C1102.14 609.786 1167.17 671.989 1198.26 728.46C1230.58 784.437 1240.04 825.91 1240.84 825.327C1240.04 825.893 1230.71 784.404 1198.53 728.24C1167.58 671.604 1102.56 608.975 1017.56 583.947C933.358 557.012 837.988 556.991 750.854 557.376C707.154 557.634 665.118 558.462 626.601 557.165C588.107 555.673 553.101 551.945 523.32 549.321C463.794 546.151 326.859 522.915 152.786 531.503C66.05 537.428 -29.8708 553.348 -125.276 589.027C-219.815 626.281 -316.04 675.234 -418.161 692.478C-519.974 710.528 -623.528 691.527 -713.386 655.147C-803.534 617.715 -879.406 558.796 -935.919 496.45C-1049.99 370.908 -1096.94 250.133 -1108.38 227.371C-1152.82 130.593 -1182.26 9.09549 -1182.17 9.23073Z" fill="url(#paint8_linear_213_4938)"/>
<path d="M-1230.06 10.6888C-1230.16 10.469 -1202.21 135.157 -1156.37 233.794C-1144.63 256.95 -1096.19 380.045 -978.748 507.024C-920.558 570.148 -842.256 629.197 -749.544 665.358C-657.175 700.279 -550.887 717.332 -447.375 694.46C-343.641 672.365 -247.563 616.996 -152.242 576.576C-56.1449 537.512 42.0618 522.682 130.334 521.841C218.843 521.076 297.739 532.521 361.891 541.912C426.066 551.679 475.818 559.603 506.058 563.66C536.291 567.701 571.832 572.827 611.147 574.83C650.455 576.669 693.264 575.549 737.756 574.467C826.47 572.468 923.276 568.326 1009.7 591.444C1096.92 612.449 1165.04 673.65 1197.05 731.009C1230.49 787.611 1240.08 829.933 1240.94 829.304C1240.07 829.933 1230.63 787.578 1197.32 730.789C1165.47 673.265 1097.32 611.582 1009.93 590.24C923.359 566.758 826.422 570.6 737.708 572.367C693.225 573.339 650.417 574.349 611.221 572.455C572.053 570.405 536.515 565.233 506.298 561.209C476.078 557.139 426.348 549.228 362.151 539.452C297.976 530.066 219 518.596 130.298 519.365C41.8373 520.214 -56.5745 535.065 -152.951 574.23C-248.48 614.748 -344.395 670.023 -447.769 692.017C-550.835 714.809 -656.819 697.824 -748.886 663.008C-841.291 626.966 -919.314 568.136 -977.318 505.211C-1094.44 378.579 -1142.79 255.767 -1154.49 232.662C-1200.19 134.363 -1230.16 10.5282 -1230.06 10.6888Z" fill="url(#paint9_linear_213_4938)"/>
<path d="M-1277.95 12.138C-1278.06 11.9014 -1249.61 139.045 -1202.42 239.284C-1190.4 262.799 -1140.51 388.02 -1019.85 516.157C-960.089 579.855 -879.527 638.791 -784.458 673.442C-689.829 706.758 -581.006 721.655 -476.295 693.859C-371.366 666.87 -275.743 605.2 -179.409 561.615C-82.2954 519.132 18.511 505.777 108.348 509.855C198.492 513.79 278.15 531.502 342.96 545.162C407.782 559.383 458.137 570.025 488.809 575.51C519.462 580.971 555.546 587.522 595.594 590.138C635.633 592.589 679.273 591.266 724.582 589.457C814.963 586.021 913.33 578.08 1002.04 597.741C1091.56 615.052 1162.85 675.171 1195.81 733.472C1230.4 790.73 1240.11 833.969 1241.04 833.276C1240.11 833.956 1230.54 790.696 1196.08 733.235C1163.28 674.744 1091.94 614.156 1002.25 596.507C913.369 576.487 814.87 584.145 724.508 587.323C679.221 589.013 635.598 590.235 595.697 587.724C555.818 585.058 519.744 578.469 489.133 573.017C458.496 567.54 408.18 556.911 343.348 542.685C278.516 529.017 198.771 511.271 108.418 507.324C18.354 503.258 -82.7408 516.63 -180.172 559.252C-276.756 602.956 -372.231 664.52 -476.785 691.399C-581.012 719.086 -689.515 704.243 -783.824 671.029C-878.562 636.492 -958.839 577.771 -1018.41 514.288C-1138.74 386.507 -1188.52 261.578 -1200.52 238.118C-1247.54 138.246 -1278.05 11.9647 -1277.95 12.138Z" fill="url(#paint10_linear_213_4938)"/>
<path d="M-1325.95 13.5794C-1326.1 13.347 -1296.91 143.026 -1248.41 244.935C-1236.09 268.83 -1184.67 396.257 -1060.66 525.586C-999.263 589.859 -916.316 648.63 -818.828 681.675C-721.894 713.33 -610.457 725.903 -504.637 693.04C-398.612 661.034 -303.556 593.096 -206.119 546.434C-107.922 500.587 -4.33643 488.872 86.9393 498.026C178.6 506.791 258.778 530.619 324.135 548.488C389.468 567.054 440.38 580.422 471.453 587.311C502.5 594.199 539.135 602.208 579.944 605.433C620.739 608.67 665.257 606.946 711.406 604.444C803.515 599.512 903.431 587.818 994.386 604.042C1039.62 612.094 1082.05 628.272 1116.38 652.45C1150.89 676.337 1176.66 707.24 1194.61 735.826C1230.24 793.853 1240.33 837.913 1241.14 837.253C1240.33 837.917 1230.39 793.815 1194.89 735.59C1177 706.906 1151.28 675.839 1116.74 651.761C1082.4 627.376 1039.87 610.99 994.556 602.77C903.427 586.182 803.378 597.597 711.31 602.276C665.193 604.659 620.711 606.27 580.078 602.977C539.472 599.702 502.866 591.659 471.873 584.792C440.839 577.903 389.987 564.569 324.645 545.986C259.281 528.121 179.013 504.251 87.1028 495.461C-4.42627 486.281 -108.384 498.026 -206.943 544.042C-304.659 590.852 -399.57 658.676 -505.211 690.55C-610.508 723.27 -721.615 710.76 -818.221 679.199C-915.364 646.28 -998.004 587.716 -1059.21 523.667C-1182.86 394.681 -1234.17 267.583 -1246.46 243.743C-1294.82 142.198 -1326.08 13.423 -1325.95 13.5794Z" fill="url(#paint11_linear_213_4938)"/>
<path d="M-1373.71 15.1976C-1373.89 14.9483 -1344.2 147.083 -1294.3 250.741C-1281.69 275.034 -1228.65 404.722 -1101.21 535.28C-1038.1 600.12 -952.67 658.671 -852.723 689.992C-753.43 719.948 -639.333 730.04 -532.493 691.961C-425.481 654.816 -331.099 580.687 -232.472 531.037C-133.127 481.813 -26.5861 472.169 65.9849 486.416C159.037 500.109 239.538 529.883 305.335 551.843C371.062 574.657 422.481 590.721 453.942 599.03C485.37 607.343 522.534 616.852 564.128 620.715C605.706 624.641 651.13 622.659 698.145 619.404C792.034 612.98 893.491 597.559 986.629 610.339C1032.95 616.704 1076.71 631.399 1112.27 654.931C1148.04 678.146 1174.78 709.217 1193.32 738.129C1230.12 796.917 1240.39 841.931 1241.25 841.221C1240.38 841.927 1230.27 796.879 1193.6 737.884C1175.12 708.866 1148.42 677.626 1112.62 654.212C1077.03 630.469 1033.17 615.584 986.761 609.037C893.44 595.906 791.845 611.028 698.023 617.198C651.047 620.326 605.67 622.185 564.288 618.208C522.928 614.286 485.806 604.769 454.442 596.473C423.023 588.181 371.687 572.129 305.957 549.324C240.157 527.369 159.575 497.539 66.238 483.812C-26.6021 469.506 -133.611 479.181 -233.35 528.615C-332.297 578.439 -426.538 652.458 -533.154 689.447C-639.435 727.352 -753.199 717.323 -852.146 687.456C-951.738 656.241 -1036.84 597.918 -1099.73 533.285C-1226.83 403.103 -1279.74 273.732 -1292.32 249.494C-1342.05 146.234 -1373.87 15.0328 -1373.71 15.1976Z" fill="url(#paint12_linear_213_4938)"/>
<path d="M-1421.76 16.5628C-1421.98 16.3219 -1391.45 151.233 -1340.13 256.688C-1327.2 281.395 -1272.5 413.415 -1141.48 545.216C-1076.59 610.631 -988.58 668.907 -886.116 698.381C-835.015 713.258 -780.7 721.169 -725.338 721.051C-670.033 722.036 -613.373 712.29 -559.866 690.567C-451.966 648.173 -358.356 567.945 -258.457 515.379C-157.856 462.863 -48.269 455.289 45.4656 474.861C139.793 493.571 220.42 529.161 286.563 555.161C352.581 582.15 404.449 600.931 436.288 610.656C468.076 620.402 505.759 631.437 548.16 635.976C590.537 640.621 636.913 638.385 684.816 634.378C780.532 626.42 883.534 607.33 978.807 616.683C1026.19 621.353 1071.26 634.509 1108.08 657.378C1145.1 679.87 1172.84 711.111 1191.99 740.391C1230 799.96 1240.43 845.963 1241.35 845.19C1240.43 845.959 1230.16 799.922 1192.27 740.15C1173.19 710.76 1145.48 679.338 1108.42 656.63C1071.56 633.558 1026.38 620.199 978.904 615.352C883.441 605.631 780.298 624.434 684.669 632.126C636.817 636.005 590.505 638.127 548.346 633.423C506.217 628.85 468.582 617.803 436.875 608.082C405.1 598.37 353.318 579.614 287.31 552.638C221.167 526.646 140.466 491.002 45.8374 472.216C-48.1953 452.58 -158.356 460.183 -259.383 512.932C-359.635 565.71 -453.123 645.823 -560.61 688.044C-667.767 731.287 -784.252 723.912 -885.569 695.795C-987.667 666.418 -1075.33 608.374 -1140 543.192C-1270.64 411.763 -1325.22 280.089 -1338.12 255.428C-1389.26 150.359 -1421.97 16.398 -1421.76 16.5628Z" fill="url(#paint13_linear_213_4938)"/>
<path d="M-1469.46 18.1566C-1469.71 17.8988 -1438.68 155.456 -1385.89 262.757C-1372.66 287.904 -1316.21 422.308 -1181.52 555.373C-1114.68 621.18 -1024.16 679.359 -919.094 706.805C-866.733 720.895 -811.162 727.289 -754.719 725.772C-698.286 725.227 -640.773 713.178 -586.866 688.856C-478.26 640.993 -385.404 554.958 -284.164 499.522C-182.226 443.655 -69.3987 439.01 25.3232 463.869C120.776 487.684 201.418 528.789 267.853 558.661C334.099 589.631 386.384 611.088 418.576 622.22C450.729 633.217 488.854 646.191 532.099 651.424C575.315 656.406 622.66 654.196 671.476 649.336C769.055 639.788 873.592 617.06 970.956 623.023C1019.37 626.011 1065.73 637.62 1103.81 659.779C1142.1 681.54 1170.87 712.95 1190.63 742.597C1229.86 802.953 1240.48 849.983 1241.45 849.167C1240.47 849.983 1230.02 802.919 1190.92 742.335C1171.22 712.578 1142.48 680.982 1104.13 659.014C1066 636.648 1019.53 624.828 971.01 621.658C873.454 615.356 768.769 637.777 671.297 647.028C622.545 651.77 575.283 653.858 532.311 648.824C489.37 643.575 451.309 630.575 419.239 619.621C387.118 608.501 334.939 587.099 268.703 556.129C202.268 526.266 121.574 485.111 25.7815 461.194C-69.2385 436.246 -182.739 440.895 -285.145 497.037C-386.776 552.723 -479.526 638.66 -587.712 686.307C-641.433 710.511 -698.498 722.488 -754.796 723.038C-811.053 724.547 -866.431 718.173 -918.594 704.129C-1023.28 676.79 -1113.43 618.839 -1180.03 553.281C-1314.34 420.588 -1370.65 286.543 -1383.85 261.456C-1436.45 154.568 -1469.7 17.9791 -1469.46 18.1566Z" fill="url(#paint14_linear_213_4938)"/>
<path d="M-1517.39 19.4417C-1517.67 19.1924 -1485.89 159.75 -1431.59 268.953C-1418.03 294.539 -1359.79 431.391 -1221.32 565.723C-1152.43 631.814 -1059.4 689.993 -951.667 715.22C-845.094 739.297 -722.668 741.714 -613.524 686.794C-504.357 633.365 -412.267 541.671 -309.605 483.442C-258.166 454.618 -202.929 438.753 -149.044 434.535C-95.0056 430.748 -42.6215 439.074 5.49927 453.224C101.959 482.212 182.495 528.587 249.171 562.228C315.586 597.07 368.243 621.159 400.778 633.716C433.264 646.095 471.861 660.692 515.959 666.651C560.011 672.407 608.372 669.931 658.112 664.284C757.588 653.144 863.671 626.818 963.073 629.396C1012.51 630.724 1060.13 640.765 1099.47 662.188C1139.03 683.168 1168.86 714.738 1189.25 744.761C1229.75 805.95 1240.54 854.032 1241.56 853.149C1240.53 854.024 1229.91 805.907 1189.54 744.487C1169.21 714.357 1139.4 682.58 1099.78 661.389C1060.38 639.755 1012.64 629.51 963.099 628.019C863.485 625.086 757.261 651.098 657.904 661.939C608.235 667.463 559.979 669.812 516.199 664.005C472.451 658.038 433.918 643.424 401.522 631.074C369.073 618.556 316.523 594.525 250.126 559.688C183.457 526.068 102.859 479.629 6.06348 450.515C-42.2239 436.335 -94.871 427.95 -149.211 431.758C-203.403 436.001 -258.951 451.964 -310.63 480.914C-413.735 539.444 -505.707 631.045 -614.46 684.237C-723.015 738.887 -845.001 736.495 -951.199 712.506C-1058.54 687.36 -1151.2 629.418 -1219.83 563.576C-1357.89 429.633 -1415.99 293.145 -1429.52 267.622C-1483.62 158.837 -1517.66 19.2811 -1517.39 19.4417Z" fill="url(#paint15_linear_213_4938)"/>
<path d="M-1565.26 20.9496C-1565.59 20.6918 -1533.08 164.124 -1477.23 275.258C-1463.32 301.262 -1403.31 440.717 -1260.85 576.157C-1189.97 642.645 -1094.27 700.693 -983.858 723.616C-874.819 745.356 -749.512 745.42 -639.916 684.291C-530.271 625.368 -439.002 528.024 -334.81 467.102C-282.602 437.154 -226.127 420.756 -171.05 418.068C-115.832 415.127 -62.6592 426.572 -14.0576 442.915C83.2417 477.19 163.644 528.539 230.508 565.862C297.049 604.448 350.052 631.132 382.907 645.092C415.711 658.857 454.763 675.111 499.719 681.844C544.618 688.378 594.031 685.664 644.71 679.206C746.122 666.439 853.741 636.529 955.15 635.79C1005.59 635.435 1054.43 643.909 1095.04 664.554C1135.88 684.73 1166.8 716.448 1187.83 746.852C1229.61 808.886 1240.58 858.054 1241.65 857.112C1240.57 858.042 1229.77 808.852 1188.12 746.569C1167.15 716.047 1136.26 684.134 1095.34 663.73C1054.66 642.869 1005.69 634.188 955.143 634.366C853.519 634.771 745.75 664.351 644.482 676.831C593.88 683.145 544.599 685.728 499.998 679.143C455.429 672.406 416.448 656.16 383.747 642.429C350.978 628.512 298.094 601.878 231.573 563.313C164.721 525.999 84.2739 474.595 -13.3781 440.189C-62.1559 423.787 -115.608 412.262 -171.162 415.224C-226.57 417.929 -283.397 434.441 -335.871 464.541C-440.556 525.788 -531.71 623.043 -640.951 681.696C-749.922 742.52 -874.742 742.478 -983.412 720.823C-1093.42 697.98 -1188.71 640.172 -1259.33 573.934C-1401.38 438.895 -1461.24 299.817 -1475.11 273.872C-1530.77 163.181 -1565.56 20.7805 -1565.26 20.9496Z" fill="url(#paint16_linear_213_4938)"/>
<path d="M-1613.15 22.4545C-1613.5 22.1924 -1580.27 168.566 -1522.89 281.729C-1508.62 308.13 -1446.92 450.451 -1300.17 586.731C-1227.39 653.98 -1128.78 711.28 -1015.73 732.061C-959.5 743.311 -900.153 744.887 -840.482 738.928C-780.596 734.077 -720.73 713.985 -666.121 681.404C-555.992 617.173 -465.685 514.056 -359.897 450.442C-306.839 419.396 -249.012 402.803 -192.761 401.73C-136.347 400.052 -82.4147 414.18 -33.4445 433.08C64.6083 472.571 144.85 528.611 211.862 569.577C278.505 611.772 331.819 641.056 364.992 656.397C398.103 671.515 437.594 689.468 483.413 697.004C529.191 704.404 579.681 701.268 631.312 693.978C734.679 679.456 843.852 646.018 947.243 642.049C998.672 640.059 1048.71 646.981 1090.59 666.857C1132.69 686.248 1164.71 718.114 1186.39 748.924C1229.46 811.815 1240.63 862.095 1241.75 861.102C1240.62 862.091 1229.63 811.781 1186.68 748.624C1165.07 717.708 1133.06 685.618 1090.88 666.012C1048.92 645.916 998.739 638.782 947.194 640.595C843.586 644.222 734.259 677.347 631.049 691.556C579.511 698.698 529.162 701.682 483.734 694.252C438.325 686.734 398.908 668.789 365.912 653.705C332.835 638.41 279.646 609.207 213.029 567.016C146.036 526.076 65.7367 469.984 -32.6559 430.329C-81.8217 411.357 -136.04 397.153 -192.816 398.826C-249.441 399.908 -307.666 416.628 -361.012 447.843C-467.329 511.829 -557.537 614.866 -667.252 678.814C-776.496 745.885 -904.198 748.252 -1015.35 729.212C-1127.96 708.512 -1226.15 651.436 -1298.65 584.453C-1444.97 448.587 -1506.49 306.655 -1520.73 280.321C-1577.9 167.602 -1613.48 22.2854 -1613.15 22.4545Z" fill="url(#paint17_linear_213_4938)"/>
<path d="M-1661.01 23.9632C-1661.42 23.697 -1627.43 173.058 -1568.4 288.212C-1553.75 315.049 -1490.18 460.07 -1339.27 597.432C-1264.44 665.277 -1162.86 721.609 -1047.23 740.34C-933.182 757.089 -802.162 751.502 -692.075 678.095C-581.639 608.433 -492.251 499.738 -384.7 433.706C-330.825 401.514 -271.539 384.757 -214.122 385.509C-156.557 385.535 -101.88 402.026 -52.6475 423.787C46.0048 468.493 126.038 529.119 193.182 573.558C259.902 619.257 313.52 651.051 347.007 667.741C380.43 684.185 420.36 703.686 467.044 712.138C513.693 720.379 565.292 717.057 617.885 708.934C723.24 692.744 833.952 655.764 939.282 648.516C991.679 644.877 1042.9 650.198 1086.05 669.229C1129.42 687.744 1162.58 719.737 1184.93 750.931C1229.33 814.714 1240.68 866.123 1241.86 865.066C1240.68 866.11 1229.51 814.68 1185.23 750.631C1162.95 719.306 1129.79 687.097 1086.33 668.354C1043.09 649.094 991.721 643.575 939.208 647.045C833.648 653.951 722.776 690.584 617.593 706.458C565.1 714.429 513.674 717.598 467.397 709.344C421.18 700.913 381.301 681.417 348.007 665.032C314.629 648.385 261.139 616.687 194.441 571.005C127.327 526.587 47.2518 465.898 -51.7562 421.027C-101.178 399.186 -156.15 382.585 -214.112 382.555C-271.94 381.803 -331.665 398.691 -385.844 431.069C-493.963 497.498 -583.245 606.139 -693.293 675.505C-802.733 748.522 -933.188 754.092 -1046.87 737.411C-1162.06 718.752 -1263.19 662.665 -1337.72 595.095C-1488.18 458.147 -1551.59 313.519 -1566.19 286.762C-1625.02 172.069 -1661.4 23.79 -1661.01 23.9632Z" fill="url(#paint18_linear_213_4938)"/>
<path d="M-1708.9 25.4681C-1709.36 25.2019 -1674.57 177.606 -1613.86 294.805C-1598.83 322.069 -1533.34 469.845 -1378.18 608.273C-1301.24 676.705 -1196.65 731.939 -1078.4 748.565C-961.829 762.867 -827.982 753.915 -717.882 674.33C-607.379 598.996 -518.715 485.106 -409.321 416.725C-354.52 383.54 -293.768 366.796 -235.187 369.222C-176.469 371.166 -121.193 390.387 -71.6648 414.595C27.4971 464.469 107.319 529.478 174.578 577.316C241.372 626.425 295.218 660.768 328.961 678.937C362.678 696.746 403.029 717.84 450.582 727.243C498.106 736.376 550.846 732.864 604.42 723.904C711.788 706.015 824.036 665.539 931.279 655.045C984.629 649.796 1037.01 653.448 1081.43 671.629C1126.07 689.232 1160.39 721.343 1183.42 752.926C1229.18 817.597 1240.72 870.168 1241.95 869.048C1240.71 870.147 1229.36 817.559 1183.72 752.618C1160.76 720.904 1126.44 688.573 1081.69 670.729C1037.17 652.311 984.641 648.457 931.17 653.554C823.69 663.676 711.276 703.825 604.103 721.381C550.635 730.189 498.097 733.536 450.97 724.395C403.932 715.021 363.627 693.948 330.051 676.219C296.417 658.105 242.699 623.843 175.943 574.763C108.697 526.947 28.8531 461.887 -70.6646 411.814C-120.385 387.505 -175.965 368.165 -235.126 366.217C-294.134 363.753 -355.388 380.658 -410.507 414.037C-520.523 482.867 -609.087 596.714 -719.19 671.718C-828.652 750.889 -961.877 759.802 -1078.1 745.568C-1195.88 729.001 -1300.01 674.017 -1376.62 605.864C-1531.31 467.872 -1596.64 320.497 -1611.62 293.305C-1672.1 176.592 -1709.33 25.2991 -1708.9 25.4681Z" fill="url(#paint19_linear_213_4938)"/>
<path d="M-1756.78 26.9769C-1757.28 26.7064 -1721.69 182.204 -1659.27 301.457C-1643.85 329.157 -1576.4 479.756 -1416.89 619.194C-1337.8 688.167 -1230.17 742.339 -1109.28 756.603C-990.197 768.581 -853.515 755.99 -743.547 670.243C-632.883 589.601 -545.133 470.23 -433.8 399.626C-378.017 365.541 -315.74 348.855 -256.021 353.31C-196.181 357.202 -140.344 379.086 -90.5881 405.847C9.00647 460.767 88.6295 529.985 156.013 581.128C222.858 633.559 276.945 670.37 310.941 689.942C344.928 709.108 385.653 731.947 434.079 742.314C482.488 752.368 536.392 748.683 590.956 738.861C700.357 719.243 814.143 675.289 923.281 661.592C977.573 654.745 1031.07 656.723 1076.76 674.026C1122.68 690.724 1158.18 722.911 1181.9 754.896C1229.04 820.462 1240.77 874.212 1242.06 873.012C1240.76 874.195 1229.22 820.42 1182.21 754.583C1158.56 722.451 1123.04 690.022 1077.02 673.104C1031.22 655.561 977.553 653.389 923.14 660.066C813.761 673.404 699.802 717.028 590.61 736.296C536.17 745.945 482.491 749.469 434.508 739.411C386.631 729.09 345.951 706.289 312.124 687.199C278.234 667.695 224.279 630.973 157.469 578.562C90.1169 527.45 10.4778 458.198 -89.4855 403.053C-139.424 376.195 -195.578 354.159 -255.883 350.246C-316.067 345.753 -378.88 362.582 -435.018 396.891C-547.025 468.007 -634.665 587.34 -744.951 667.64C-854.291 752.947 -990.27 765.449 -1109.01 753.556C-1229.42 739.335 -1336.57 685.407 -1415.34 616.722C-1574.33 477.719 -1641.63 327.546 -1656.98 299.928C-1719.18 181.165 -1757.26 26.8163 -1756.78 26.9769Z" fill="url(#paint20_linear_213_4938)"/>
<path d="M-1804.65 28.4808C-1805.21 28.2145 -1768.79 186.848 -1704.64 308.198C-1688.82 336.328 -1619.38 489.789 -1455.45 630.198C-1374.13 699.586 -1263.42 752.837 -1139.89 764.379C-1018.27 774.412 -878.84 757.562 -769.121 665.775C-658.345 579.923 -571.525 455.053 -458.092 382.449C-401.373 347.249 -337.429 331.155 -276.624 337.579C-215.677 343.555 -159.417 368.283 -109.44 397.448C-9.48962 457.394 69.986 530.589 137.456 584.99C204.366 640.633 258.661 679.921 292.939 700.841C327.176 721.364 368.218 745.978 417.525 757.422C466.839 768.28 521.922 764.505 577.486 753.838C688.936 732.424 804.273 685.051 915.274 668.163C970.492 659.673 1025.1 660.15 1072.04 676.506C1119.16 692.291 1156 724.335 1180.43 756.767C1228.83 823.34 1240.79 878.243 1242.16 876.98C1240.78 878.231 1229.02 823.306 1180.73 756.438C1156.36 723.87 1119.52 691.568 1072.27 675.555C1025.22 658.963 970.441 658.286 915.094 666.604C803.847 683.141 688.327 730.159 577.111 751.214C521.666 761.721 466.858 765.317 417.997 754.468C369.283 743.095 328.276 718.519 294.199 698.073C260.039 677.22 205.882 638.038 139.008 582.424C71.5601 528.057 -7.92529 454.807 -108.238 394.646C-158.391 365.371 -214.968 340.478 -276.409 334.439C-337.718 327.968 -402.252 344.218 -459.345 379.664C-573.523 452.817 -660.217 577.653 -770.625 663.159C-879.715 754.481 -1018.39 771.2 -1139.67 761.243C-1262.72 749.739 -1372.91 696.741 -1453.88 627.658C-1617.28 487.692 -1686.55 334.654 -1702.31 306.604C-1766.23 185.783 -1805.19 28.3202 -1804.65 28.4808Z" fill="url(#paint21_linear_213_4938)"/>
</g>
</g>
<g opacity="0.2">
<mask id="mask1_213_4938" style="mask-type:luminance" maskUnits="userSpaceOnUse" x="-762" y="1" width="1918" height="960">
<path d="M1155.01 1.49805H-761.994V960.865H1155.01V1.49805Z" fill="white"/>
</mask>
<g mask="url(#mask1_213_4938)">
<path d="M1453.66 672.362C1453.91 672.573 1359.39 732.02 1270.56 757.86C1249.13 763.307 1143.5 803.077 992.819 781.316C918.085 770.323 833.262 741.813 750.375 688.608C666.656 636.971 588.856 556.431 516.622 467.877C443.908 379.839 373.376 285.826 295.077 211.24C217.274 137.221 130.179 82.6047 45.3914 73.7591C-40.3226 64.2964 -112.813 114.67 -158.001 167.19C-204.544 219.942 -231.789 271.782 -248.526 302.11C-317.542 422.047 -386.32 669.615 -511.935 818.976C-542.761 855.707 -576.831 884.737 -611.02 901.82C-645.148 919.253 -678.773 924.126 -706.521 922.262C-762.46 917.698 -794.325 895.366 -794.383 896.723C-794.315 895.362 -762.537 917.854 -706.537 922.672C-678.757 924.663 -645.052 919.929 -610.786 902.589C-576.466 885.616 -542.235 856.632 -511.256 819.94C-385.012 670.697 -315.67 423.066 -246.863 303.597C-230.177 273.354 -202.983 221.645 -156.68 169.172C-111.685 116.918 -39.8354 66.9928 45.2438 76.3752C129.429 85.1363 216.284 139.516 293.881 213.345C371.994 287.757 442.484 381.691 515.244 469.788C587.507 558.392 665.543 639.181 749.481 690.958C832.595 744.302 917.646 772.897 992.589 783.911C1143.68 805.735 1249.56 765.86 1271.04 760.4C1360.18 734.438 1453.96 672.531 1453.66 672.362Z" fill="url(#paint22_linear_213_4938)"/>
<path d="M1453.66 636.878C1453.9 637.077 1361.2 697.398 1273.89 725.186C1252.77 731.107 1149.17 772.981 999.966 756.774C925.953 748.511 841.573 723.635 758.51 674.264C674.742 626.317 595.91 550.129 522.551 465.481C448.673 381.424 376.929 291.299 298.226 220.115C220.02 149.49 134.027 96.3359 50.3455 87.0381C-34.176 76.8232 -106.416 124.039 -152.114 174.552C-199.007 225.255 -227.082 275.336 -244.226 304.73C-314.732 420.991 -390.448 660.448 -515.034 806.394C-545.76 842.25 -579.318 871.006 -613.074 887.983C-646.753 905.171 -679.839 910.834 -707.28 909.262C-762.571 905.826 -794.292 884.458 -794.385 885.946C-794.289 884.454 -762.639 905.983 -707.292 909.659C-679.82 911.358 -646.65 905.831 -612.846 888.735C-578.965 871.868 -545.248 843.172 -514.367 807.354C-389.185 661.555 -312.921 422.094 -242.62 306.256C-225.527 276.934 -197.506 226.979 -150.851 176.542C-105.349 126.288 -33.7496 79.49 50.182 89.6162C133.286 98.8295 219.074 151.772 297.075 222.237C375.599 293.251 447.301 383.305 521.221 467.425C594.631 552.12 673.687 628.548 757.679 676.618C840.954 726.12 925.572 751.064 999.793 759.347C1149.38 775.602 1253.22 733.618 1274.4 727.697C1362.01 699.782 1453.95 637.043 1453.66 636.878Z" fill="url(#paint23_linear_213_4938)"/>
<path d="M1453.66 601.39C1453.89 601.589 1362.96 662.802 1277.13 692.471C1256.32 698.853 1154.69 742.683 1007.01 731.894C933.71 726.311 849.804 705.057 766.565 659.7C682.624 615.84 603.116 543.384 528.452 463.03C453.4 383.077 380.281 297.144 301.226 229.299C222.5 162.385 137.908 109.831 55.1757 100.284C-28.1757 89.3248 -100.166 133.456 -146.405 181.8C-193.711 230.331 -222.627 278.654 -240.213 307.059C-312.473 419.398 -394.545 650.893 -518.074 793.737C-548.483 829.166 -581.873 857.034 -615.049 874.282C-648.302 891.394 -680.885 897.514 -708.03 896.436C-762.697 894.09 -794.318 873.724 -794.389 875.182C-794.312 873.724 -762.764 894.247 -708.037 896.833C-680.856 898.033 -648.196 892.041 -614.822 875.034C-581.521 857.888 -547.973 830.079 -517.42 794.696C-393.317 652.017 -310.716 420.577 -238.659 308.627C-221.117 280.29 -192.263 232.101 -145.196 183.812C-99.1466 135.7 -27.7942 91.962 55.009 102.832C137.184 112.29 221.6 164.65 300.133 231.429C379.022 299.126 452.096 384.992 527.195 465.008C601.904 545.4 681.636 618.088 765.799 662.054C849.275 707.542 933.392 728.847 1006.87 734.446C1154.96 745.261 1256.81 701.329 1277.67 694.931C1363.79 665.144 1453.94 601.555 1453.66 601.39Z" fill="url(#paint24_linear_213_4938)"/>
<path d="M1453.66 565.91C1453.88 566.101 1364.66 628.24 1280.28 659.793C1259.77 666.644 1160.1 712.461 1013.92 707.128C941.358 704.233 857.95 686.613 774.547 645.259C690.519 605.363 610.079 537.214 534.222 461.006C458.023 385.152 383.657 303.302 304.335 238.58C225.228 174.975 141.717 123.524 59.9841 113.372C-22.2067 101.758 -94.0624 142.407 -140.885 188.579C-188.637 234.933 -218.386 281.46 -236.443 308.842C-310.681 417.027 -398.594 640.745 -520.972 780.935C-551.15 815.853 -584.246 843.138 -616.921 860.58C-649.767 877.641 -681.869 884.213 -708.736 883.634C-762.809 882.362 -794.334 862.985 -794.389 864.4C-794.331 862.985 -762.873 882.51 -708.742 884.027C-681.843 884.729 -649.658 878.288 -616.694 861.319C-583.903 843.979 -550.653 816.749 -520.334 781.886C-397.402 641.878 -308.995 418.29 -234.946 310.457C-216.934 283.138 -187.249 236.729 -139.734 190.612C-93.1103 144.672 -21.8733 104.362 59.7983 115.887C140.992 125.95 224.356 177.231 303.284 240.714C382.458 305.309 456.779 387.096 533.03 463.005C608.915 539.264 689.593 607.62 773.845 647.621C857.465 689.081 941.099 706.743 1013.85 709.655C1160.4 714.988 1260.29 669.074 1280.85 662.202C1365.5 630.53 1453.92 566.067 1453.66 565.91Z" fill="url(#paint25_linear_213_4938)"/>
<path d="M1453.66 530.426C1453.87 530.612 1366.31 593.702 1283.37 627.132C1263.16 634.465 1165.37 682.213 1020.72 682.34C948.901 682.129 866.005 668.148 782.461 630.864C698.376 594.983 616.98 531.288 539.957 459.31C462.609 387.641 387.038 309.894 307.492 248.157C228.094 187.547 145.534 137.449 64.7858 126.427C-16.3344 114.188 -88.001 151.159 -135.4 195.256C-183.79 239.074 -214.283 283.966 -232.863 310.224C-269.979 363.412 -314.208 441.412 -361.716 526.01C-409.51 610.125 -462.952 700.082 -523.751 768.019C-583.204 838.104 -655.897 873.064 -709.409 870.866C-762.909 870.655 -794.348 852.249 -794.383 853.631C-794.344 852.249 -762.973 870.811 -709.409 871.264C-655.842 873.702 -582.852 838.962 -523.126 768.97C-462.061 701.151 -408.362 611.262 -360.408 527.269C-312.743 442.773 -268.459 364.954 -231.43 311.898C-212.889 285.69 -182.463 240.913 -134.307 197.319C-87.1162 153.437 -16.046 116.77 64.587 128.912C144.826 139.837 227.254 189.792 306.492 250.295C385.904 311.919 461.423 389.623 538.838 461.339C615.9 533.376 697.523 597.248 781.833 633.226C865.594 670.612 948.702 684.622 1020.72 684.834C1165.72 684.715 1263.7 636.852 1283.96 629.507C1367.18 595.951 1453.91 530.578 1453.66 530.426Z" fill="url(#paint26_linear_213_4938)"/>
<path d="M1453.66 494.943C1453.86 495.125 1367.93 559.195 1286.37 594.506C1266.44 602.316 1170.5 651.996 1027.4 657.549C956.301 660.013 873.975 649.676 790.313 616.516C706.186 584.701 623.835 525.6 545.638 457.916C467.143 390.528 390.421 316.864 310.68 257.983C231.031 200.193 149.366 151.388 69.579 139.233C-10.5762 126.005 -81.9863 159.946 -130.046 201.579C-178.959 243.005 -210.419 285.906 -229.516 311.061C-267.548 362.115 -314.015 436.675 -362.789 518.771C-411.936 600.308 -466.051 687.966 -526.399 754.957C-585.496 823.972 -657.079 859.046 -710.037 858.12C-763.002 858.961 -794.363 841.511 -794.379 842.851C-794.356 841.515 -763.059 859.122 -710.034 858.513C-657.018 859.676 -585.146 824.817 -525.773 755.895C-465.176 689.039 -410.814 601.471 -361.514 520.064C-312.591 438.091 -266.086 363.721 -228.128 312.764C-209.079 287.669 -177.686 244.878 -129.007 203.659C-81.1528 162.224 -10.3326 128.558 69.3707 141.689C148.676 153.746 230.223 202.42 309.731 260.13C389.347 318.918 466.041 392.536 544.593 459.974C622.831 527.709 705.404 586.979 789.752 618.883C873.642 652.127 956.179 662.49 1027.44 660.017C1170.9 654.451 1267.03 604.661 1287 596.839C1368.8 561.405 1453.91 495.087 1453.66 494.943Z" fill="url(#paint27_linear_213_4938)"/>
<path d="M1453.66 459.463C1453.85 459.632 1369.48 524.734 1289.27 561.913C1269.63 570.213 1175.48 621.808 1033.92 632.754C963.578 637.893 881.816 631.19 798.068 602.21C713.934 574.498 630.64 520.161 551.29 456.851C471.689 393.795 393.797 324.29 313.866 268.182C234.047 213.041 153.248 165.022 74.3267 152.098C-4.85089 137.615 -76.075 168.543 -124.827 207.526C-174.323 246.441 -206.704 287.348 -226.326 311.357C-265.429 360.074 -313.941 431.282 -363.927 510.944C-414.257 590.093 -469.116 675.439 -528.902 741.758C-587.752 809.632 -658.13 845.188 -710.63 845.399C-763.085 847.288 -794.382 830.768 -794.379 832.082C-794.376 830.768 -763.133 847.441 -710.614 845.78C-658.063 845.813 -587.403 810.473 -528.29 742.684C-468.26 676.504 -413.161 591.26 -362.696 512.266C-312.575 432.74 -264.035 361.735 -225.009 313.111C-205.431 289.148 -173.118 248.352 -123.856 209.626C-75.3056 170.825 -4.65851 140.138 74.0959 154.52C152.565 167.347 233.259 215.247 312.962 270.324C392.784 326.356 470.631 395.815 550.305 458.939C629.698 522.287 713.225 576.793 797.583 604.573C881.544 633.624 963.517 640.348 1034.03 635.196C1175.91 624.217 1270.26 572.516 1289.94 564.199C1370.37 526.898 1453.9 459.598 1453.66 459.463Z" fill="url(#paint28_linear_213_4938)"/>
<path d="M1453.66 423.979C1453.84 424.143 1370.98 490.306 1292.09 529.365C1272.73 538.16 1180.32 591.657 1040.32 607.987C970.704 615.784 889.555 612.716 805.752 587.967C721.625 564.418 637.418 514.966 556.939 456.128C397.135 338.527 236.161 197.04 79.0653 164.772C0.843079 149.418 -70.2722 176.694 -119.666 213.201C-169.876 249.277 -203.068 288.378 -223.315 311.04C-263.48 357.377 -314.037 425.099 -365.087 502.528C-416.545 579.358 -471.978 662.701 -531.296 728.36C-589.823 795.343 -659.13 831.351 -711.174 832.707C-763.152 835.636 -794.404 820.028 -794.385 821.317C-794.398 820.028 -763.209 835.788 -711.158 833.079C-659.056 831.959 -589.483 796.167 -530.69 729.281C-471.141 663.766 -415.478 580.533 -363.892 503.872C-312.722 426.607 -262.156 359.109 -222.065 312.844C-201.866 290.234 -168.742 251.229 -118.765 215.331C-69.5701 178.994 0.980896 151.92 78.8152 167.177C235.167 199.246 396.166 340.552 556.025 458.245C636.549 517.13 720.993 566.726 805.338 590.342C889.341 615.146 970.701 618.231 1040.47 610.409C1180.81 594.04 1273.4 540.434 1292.79 531.622C1371.9 492.44 1453.88 424.11 1453.66 423.979Z" fill="url(#paint29_linear_213_4938)"/>
<path d="M1453.66 388.504C1453.84 388.652 1372.42 455.947 1294.82 496.879C1275.73 506.185 1185.01 561.596 1046.54 583.268C977.683 593.728 897.15 594.278 813.324 573.814C729.255 554.436 644.146 510.065 562.6 455.719C400.138 347.505 238.837 212.221 83.7778 177.253C6.3634 160.627 -64.4954 184.679 -114.604 218.468C-165.42 251.788 -199.699 288.539 -220.421 310.072C-261.736 353.831 -314.123 418.236 -366.2 493.514C-418.779 568.037 -474.6 649.739 -533.54 714.748C-591.704 781.063 -660.053 817.51 -711.658 820.016C-763.2 823.993 -794.41 809.286 -794.375 810.541C-794.401 809.286 -763.248 824.141 -711.639 820.392C-659.963 818.123 -591.355 781.883 -532.934 715.674C-473.77 650.804 -417.731 569.241 -365.039 494.884C-312.854 419.795 -260.476 355.623 -219.231 311.936C-198.561 290.45 -164.353 253.791 -113.77 220.619C-63.8607 186.995 6.4563 163.112 83.5052 179.641C160.529 194.255 239.478 241.53 319.675 291.413C399.847 342.387 479.906 403.647 561.76 457.866C643.377 512.258 728.703 556.757 812.991 576.185C897.018 596.703 977.744 596.15 1046.76 585.669C1185.53 563.933 1276.44 508.425 1295.56 499.106C1373.37 458.039 1453.87 388.622 1453.66 388.504Z" fill="url(#paint30_linear_213_4938)"/>
<path d="M1453.66 353.011C1453.82 353.168 1373.82 421.629 1297.45 464.454C1278.64 474.284 1189.52 531.597 1052.62 558.62C984.495 571.734 904.609 575.893 820.812 559.753C736.839 544.58 650.875 505.466 568.28 455.621C485.461 406.068 404.376 348.81 323.945 300.132C243.437 252.654 165.192 205.425 88.467 189.543C11.8188 171.594 -58.8091 192.391 -109.645 223.26C-161.116 253.66 -196.372 288.15 -217.597 308.466C-260.021 349.601 -314.233 410.599 -367.252 483.891C-420.886 556.245 -477.069 636.468 -535.621 700.991C-593.443 766.752 -660.89 803.69 -712.101 807.337C-763.235 812.358 -794.427 798.542 -794.379 799.768C-794.424 798.542 -763.28 812.506 -712.079 807.713C-660.804 804.294 -593.093 767.555 -535.025 701.908C-476.255 637.533 -419.867 557.454 -366.13 485.294C-313.015 412.2 -258.845 351.456 -216.484 310.376C-195.305 290.099 -160.132 255.701 -108.885 225.441C-58.2449 194.711 11.8701 174.045 88.1657 191.905C164.519 207.682 242.69 254.835 323.159 302.291C403.513 350.936 484.595 408.19 567.51 457.794C650.16 507.689 736.351 546.909 820.536 562.124C904.548 578.298 984.613 574.126 1052.89 560.987C1190.09 533.9 1279.35 476.474 1298.21 466.643C1374.78 423.687 1453.87 353.134 1453.66 353.011Z" fill="url(#paint31_linear_213_4938)"/>
<path d="M1453.66 317.532C1453.83 317.676 1375.16 387.384 1300.01 432.115C1281.44 442.452 1193.88 501.705 1058.52 534.057C991.15 549.817 911.934 557.572 828.204 545.798C744.356 534.898 657.607 501.113 574.018 455.867C490.183 411 408.101 357.707 327.506 311.231C246.662 266.267 169.209 218.865 93.1474 201.626C17.23 182.362 -53.1894 199.868 -104.756 227.588C-156.846 255.025 -193.064 287.179 -214.83 306.167C-258.409 344.525 -314.197 402.383 -368.191 473.689C-422.838 543.98 -479.361 622.881 -537.525 687.078C-595.026 752.391 -661.64 789.887 -712.489 794.684C-763.248 800.744 -794.443 787.804 -794.379 789C-794.437 787.795 -763.293 800.892 -712.46 795.047C-661.548 790.491 -594.677 753.186 -536.929 687.983C-478.557 623.942 -421.832 545.206 -367.098 475.117C-313.011 404.014 -257.296 346.435 -213.788 308.124C-192.067 289.178 -155.935 257.113 -104.07 229.794C-52.7021 202.213 17.2333 184.805 92.83 203.971C168.539 221.109 245.947 268.452 326.756 313.403C407.319 359.85 489.391 413.156 573.319 458.069C656.998 503.357 743.943 537.227 828.006 548.165C911.947 559.964 991.343 552.192 1058.85 536.399C1194.5 503.979 1282.21 444.621 1300.8 434.262C1376.14 389.404 1453.86 317.642 1453.66 317.532Z" fill="url(#paint32_linear_213_4938)"/>
<path d="M1453.66 282.053C1453.82 282.188 1376.45 353.194 1302.45 399.869C1284.16 410.73 1198.08 471.94 1064.28 509.609C997.642 528.04 919.099 539.324 835.494 531.987C751.79 525.423 664.393 496.934 579.821 456.442C495.017 416.33 411.993 366.946 331.177 322.549C250.131 279.517 173.232 232.373 97.8438 213.477C22.5997 192.832 -47.6339 206.96 -99.9028 231.418C-152.588 255.807 -189.752 285.544 -212.054 303.159C-256.77 338.647 -314.015 393.475 -368.983 462.896C-424.598 531.243 -481.455 608.99 -539.244 672.972C-596.456 737.963 -662.298 776.101 -712.819 782.027C-763.242 789.148 -794.459 777.052 -794.379 778.227C-794.452 777.052 -763.283 789.292 -712.784 782.394C-662.195 776.697 -596.103 738.749 -538.654 673.88C-480.66 610.051 -423.614 532.481 -367.922 464.349C-312.877 395.14 -255.735 340.608 -211.092 305.17C-188.842 287.593 -151.768 257.946 -99.2969 233.657C-47.2235 209.31 22.542 195.257 97.4848 215.797C172.549 234.6 249.419 281.685 330.465 324.721C411.249 369.11 494.296 418.498 579.199 458.665C663.864 499.199 751.47 527.769 835.369 534.341C919.179 541.695 997.885 530.385 1064.66 511.916C1198.75 474.167 1284.93 412.852 1303.28 401.974C1377.45 355.18 1453.84 282.163 1453.66 282.053Z" fill="url(#paint33_linear_213_4938)"/>
<path d="M1453.66 246.572C1453.81 246.695 1377.69 319.074 1304.82 367.706C1286.77 379.104 1202.14 442.304 1069.88 485.294C1003.97 506.417 926.138 521.129 842.688 518.301C759.195 516.116 671.225 493.024 585.729 457.345C500.024 422.022 416.041 376.526 335.001 334.073C253.714 292.85 177.271 245.832 102.489 225.343C27.9372 202.961 -42.1521 213.599 -95.0654 234.747C-148.331 255.997 -186.412 283.239 -209.23 299.451C-255.01 332.053 -313.665 383.926 -369.576 451.564C-426.172 518.018 -483.33 594.805 -540.786 658.686C-597.735 723.458 -662.859 762.314 -713.092 769.355C-763.219 777.546 -794.472 766.291 -794.379 767.449C-794.468 766.296 -763.258 777.694 -713.057 769.727C-662.75 762.898 -597.379 724.24 -540.196 659.586C-482.535 595.875 -425.204 519.273 -368.543 453.043C-312.562 385.634 -254.036 334.065 -208.335 301.514C-185.572 285.327 -147.588 258.165 -94.5396 236.999C-41.8219 215.953 27.8282 205.366 102.104 227.651C176.585 248.039 253 295.014 334.306 336.254C415.349 378.703 499.361 424.22 585.171 459.59C670.773 495.31 758.939 518.466 842.643 520.655C926.286 523.495 1004.27 508.746 1070.31 487.572C1202.84 444.506 1287.59 381.2 1305.68 369.785C1378.71 321.027 1453.84 246.665 1453.66 246.572Z" fill="url(#paint34_linear_213_4938)"/>
<path d="M1453.66 211.084C1453.8 211.207 1378.88 285.031 1307.1 335.666C1289.29 347.61 1206.06 412.851 1075.32 461.145C1010.15 484.977 933.027 503.099 849.804 504.807C766.549 506.996 678.101 489.381 591.736 458.563C505.192 428.087 420.263 386.437 338.954 345.814C257.375 306.378 181.394 259.048 107.166 236.919C33.2203 213.138 -36.6927 219.515 -90.167 237.722C-144.029 255.477 -182.972 280.315 -206.268 295.119C-253.061 324.78 -313.056 373.83 -369.941 439.696C-427.519 504.359 -484.997 580.326 -542.135 644.228C-598.854 708.894 -663.317 748.532 -713.303 756.706C-763.171 765.97 -794.481 755.561 -794.379 756.681C-794.478 755.548 -763.206 766.114 -713.258 757.069C-663.202 749.107 -598.494 709.655 -541.542 645.124C-484.202 581.391 -426.563 505.622 -368.931 441.201C-311.988 375.563 -252.157 326.838 -205.45 297.224C-182.209 282.462 -143.369 257.696 -89.7214 240.009C-36.4395 221.878 33.0665 215.526 106.756 239.206C180.698 261.237 256.67 308.534 338.294 348.007C419.625 388.635 504.602 430.314 591.262 460.832C677.739 491.697 766.389 509.35 849.833 507.156C933.246 505.445 1010.53 487.284 1075.8 463.397C1206.79 415.023 1290.15 349.681 1307.99 337.72C1379.92 286.946 1453.83 211.181 1453.66 211.084Z" fill="url(#paint35_linear_213_4938)"/>
<path d="M1453.66 175.604C1453.79 175.719 1380.01 251.061 1309.31 303.733C1291.73 316.234 1209.83 383.551 1080.61 437.157C1016.2 463.702 939.788 485.214 856.847 491.465C773.899 498.007 685.076 485.949 597.897 460.055C510.577 434.452 424.699 396.635 343.06 357.745C261.158 319.924 185.526 272.361 111.855 248.288C38.4642 222.622 -31.1956 225.449 -85.2245 240.246C-139.583 254.585 -179.389 276.735 -203.111 290.234C-250.837 316.965 -312.226 363.049 -370.06 427.314C-428.635 490.235 -486.43 565.556 -543.303 629.563C-599.825 694.221 -663.689 734.721 -713.458 744.036C-763.111 754.395 -794.504 744.801 -794.382 745.904C-794.498 744.797 -763.137 754.538 -713.413 744.399C-663.561 735.3 -599.463 694.986 -542.713 630.454C-485.645 566.616 -427.689 491.498 -369.076 428.835C-311.197 364.82 -250.001 319.066 -202.37 292.381C-178.709 278.916 -139.013 256.834 -84.8687 242.545C-31.0322 227.82 38.2558 224.993 111.403 250.562C184.814 274.538 260.449 322.088 342.438 359.955C424.097 398.854 510.048 436.717 597.487 462.35C684.791 488.282 773.806 500.365 856.94 493.81C940.067 487.543 1016.61 465.993 1081.16 439.397C1210.61 385.697 1292.62 318.271 1310.22 305.757C1381.1 252.958 1453.82 175.689 1453.66 175.604Z" fill="url(#paint36_linear_213_4938)"/>
<path d="M1453.66 140.121C1453.79 140.231 1381.12 217.183 1311.44 271.935C1294.11 285.003 1213.49 354.47 1085.78 413.389C1022.08 442.537 946.441 467.629 863.814 478.283C781.232 489.284 692.123 482.746 604.223 461.809C516.201 441.13 429.362 407.129 347.344 369.879C265.041 333.639 189.733 285.527 116.601 259.391C43.7198 231.76 -25.6772 230.969 -80.1901 242.292C-134.985 253.14 -175.579 272.619 -199.721 284.774C-248.306 308.594 -311.084 351.706 -369.889 414.42C-429.483 475.659 -487.621 550.506 -544.272 614.704C-600.638 679.455 -663.941 720.902 -713.54 731.362C-763.013 742.828 -794.509 734.05 -794.375 735.136C-794.506 734.041 -763.039 742.984 -713.495 731.717C-663.816 721.472 -600.27 680.211 -543.683 615.587C-486.833 551.567 -428.553 476.944 -368.937 415.967C-310.087 353.519 -247.54 310.741 -199.057 286.964C-174.979 274.834 -134.507 255.419 -79.9144 244.612C-25.5906 233.34 43.4634 234.118 116.111 261.648C189.002 287.686 264.339 335.798 346.754 372.085C428.811 409.361 515.743 443.404 603.903 464.121C691.934 485.083 781.232 491.634 864 480.612C946.787 469.936 1022.58 444.79 1086.39 415.603C1214.32 356.579 1295.04 287.006 1312.4 273.925C1382.22 219.047 1453.82 140.206 1453.66 140.121Z" fill="url(#paint37_linear_213_4938)"/>
<path d="M1453.66 104.637C1453.78 104.738 1382.18 183.385 1313.5 240.275C1296.4 253.918 1217.02 325.6 1090.83 389.843C1027.86 421.591 952.974 450.267 870.735 465.304C788.56 480.671 699.281 479.817 610.721 463.808C522.057 448.056 434.253 417.881 351.806 382.185C268.897 347.919 194.066 298.357 121.393 270.256C48.999 240.668 -20.1287 236.209 -75.0422 243.906C-130.203 251.23 -171.524 268.008 -196.07 278.815C-245.457 299.726 -309.6 339.863 -369.425 401.068C-430.054 460.714 -488.593 535.164 -545.068 599.645C-601.318 664.59 -664.118 707.056 -713.579 718.666C-762.902 731.26 -794.529 723.285 -794.378 724.367C-794.523 723.285 -762.927 731.416 -713.524 719.02C-663.98 707.626 -600.943 665.347 -544.475 600.532C-487.811 536.217 -429.131 462.007 -368.501 402.641C-308.648 341.706 -244.755 301.907 -195.487 281.029C-171.018 270.256 -129.824 253.537 -74.8627 246.238C-20.1319 238.585 48.6784 243.01 120.858 272.505C193.32 300.508 268.192 350.087 351.229 384.417C433.75 420.142 521.66 450.36 610.474 466.141C699.172 482.171 788.63 483.02 870.982 467.624C953.397 452.557 1028.4 423.831 1091.48 392.028C1217.88 327.683 1297.36 255.904 1314.49 242.245C1383.32 185.223 1453.81 104.713 1453.66 104.637Z" fill="url(#paint38_linear_213_4938)"/>
<path d="M1453.66 69.1572C1453.78 69.2544 1383.21 149.681 1315.5 208.751C1298.62 222.981 1220.46 296.946 1095.78 366.527C1033.51 400.883 959.416 433.112 877.61 452.532C795.887 472.197 706.564 477.091 617.426 466.006C528.189 455.195 439.398 428.865 356.45 394.666C273.006 361.895 198.381 311.374 126.233 280.949C54.3294 249.138 -14.5226 241.07 -69.7471 245.093C-125.196 248.943 -167.181 263.004 -192.115 272.387C-242.242 290.412 -307.738 327.565 -368.64 387.278C-430.35 445.339 -489.328 519.536 -545.675 584.38C-601.848 649.625 -664.189 693.177 -713.56 705.953C-762.764 719.71 -794.546 712.537 -794.382 713.603C-794.539 712.537 -762.796 719.862 -713.502 706.316C-664.048 693.747 -601.47 650.373 -545.082 585.271C-488.546 520.596 -429.439 446.658 -367.739 388.876C-306.831 329.45 -241.605 292.639 -191.609 274.644C-166.752 265.295 -124.904 251.285 -69.6574 247.443C-14.6156 243.445 53.9576 251.467 125.653 283.185C197.611 313.517 272.285 364.068 355.899 396.918C438.946 431.156 527.853 457.515 617.237 468.351C706.545 479.458 796.044 474.564 877.931 454.852C959.904 435.399 1034.12 403.11 1096.49 368.695C1221.36 299.008 1299.63 224.942 1316.54 210.687C1384.37 151.485 1453.8 69.2248 1453.66 69.1572Z" fill="url(#paint39_linear_213_4938)"/>
<path d="M1453.66 33.6729C1453.78 33.7701 1384.2 116.043 1317.46 177.375C1300.79 192.176 1223.81 268.553 1100.65 343.456C1039.09 380.436 965.81 416.211 884.475 439.975C803.243 463.955 714.003 474.538 624.33 468.355C534.612 462.51 444.83 440.03 361.312 407.272C277.217 376.049 202.809 324.222 131.149 291.443C59.7357 257.303 -8.81482 245.499 -64.2702 245.925C-119.927 246.297 -162.515 257.632 -187.818 265.586C-238.635 280.725 -305.457 314.89 -367.51 373.082C-430.364 429.574 -489.83 503.627 -546.099 568.907C-602.241 634.532 -664.168 679.251 -713.478 693.21C-762.606 708.138 -794.554 701.768 -794.374 702.821C-794.551 701.76 -762.631 708.294 -713.411 693.565C-664.018 679.813 -601.859 635.276 -545.503 569.79C-489.048 504.693 -429.454 430.91 -366.632 374.709C-304.592 316.813 -238.057 282.982 -187.385 267.873C-162.175 259.944 -119.732 248.647 -64.2638 248.271C-8.98792 247.853 59.3062 259.61 130.534 293.649C202.005 326.335 276.502 378.221 360.78 409.525C444.419 442.334 534.346 464.847 624.227 470.705C714.073 476.9 803.483 466.297 884.866 442.27C966.368 418.455 1039.76 382.629 1101.41 345.59C1224.77 270.573 1301.84 194.098 1318.53 179.277C1385.4 117.827 1453.8 33.7447 1453.66 33.6729Z" fill="url(#paint40_linear_213_4938)"/>
<path d="M1453.66 -1.80664C1453.78 -1.70521 1385.15 82.4867 1319.38 146.151C1302.91 161.506 1227.13 240.427 1105.44 320.621C984.82 401.03 812.754 475.062 631.472 470.823C541.341 469.948 450.565 451.365 366.396 420.006C281.57 390.342 207.326 336.981 136.176 301.738C65.1696 265.417 -2.96112 249.615 -58.596 246.534C-114.398 243.411 -157.527 251.969 -183.169 258.495C-234.621 270.751 -302.774 301.865 -366.038 358.518C-430.088 413.443 -490.109 487.458 -546.356 553.236C-602.51 619.335 -664.056 665.296 -713.34 680.451C-762.426 696.575 -794.57 691.013 -794.374 692.048C-794.566 691.009 -762.445 696.735 -713.27 680.806C-663.896 665.858 -602.116 620.07 -545.75 554.128C-489.317 488.523 -429.184 414.791 -365.182 360.175C-301.95 303.838 -234.098 273.041 -182.817 260.811C-157.264 254.306 -114.292 245.778 -58.6826 248.897C-3.23041 251.969 64.6823 267.708 135.506 303.931C206.493 339.094 280.846 392.527 365.883 422.284C450.19 453.69 541.145 472.311 631.459 473.186C813.091 477.433 985.474 403.253 1106.27 322.734C1228.14 242.426 1304 163.399 1320.49 148.024C1386.39 84.249 1453.8 -1.73057 1453.66 -1.80664Z" fill="url(#paint41_linear_213_4938)"/>
<path d="M1453.66 -37.2949C1453.79 -37.1808 1386.1 49.0397 1321.3 115.118C1305.01 131.03 1230.47 212.69 1110.25 298.179C991.081 383.656 820.884 467.138 638.868 473.503C548.39 477.547 456.595 462.869 371.714 432.88C286.042 404.842 211.981 349.579 141.334 311.746C70.7251 273.134 3.08813 253.152 -52.6686 246.728C-108.55 240.186 -152.148 246.048 -178.108 251.153C-230.13 260.591 -299.629 288.526 -364.176 343.62C-429.502 396.931 -490.144 471.005 -546.426 537.362C-602.638 604.01 -663.854 651.286 -713.151 667.658C-762.224 685.016 -794.586 680.248 -794.374 681.28C-794.582 680.248 -762.24 685.176 -713.077 668.013C-663.687 651.852 -602.237 604.737 -545.82 538.245C-489.355 472.083 -428.607 398.3 -363.349 345.315C-298.85 290.547 -229.674 262.919 -177.835 253.503C-151.968 248.419 -108.534 242.578 -52.8417 249.104C2.73871 255.502 70.1737 275.417 140.625 313.935C211.112 351.676 285.321 407.049 371.23 435.174C456.277 465.223 548.265 479.944 638.932 475.886C821.313 469.5 991.799 385.862 1111.12 300.271C1231.51 214.659 1306.13 132.906 1322.45 116.977C1387.36 50.764 1453.81 -37.2062 1453.66 -37.2949Z" fill="url(#paint42_linear_213_4938)"/>
<path d="M1453.66 -72.7744C1453.81 -72.6307 1387.05 15.7156 1323.14 84.1349C1307.09 100.736 1233.6 184.868 1114.89 275.687C997.092 366.045 829.091 459.577 646.427 476.068C555.683 484.973 462.856 474.403 377.177 445.859C290.553 419.617 216.719 361.95 146.575 321.517C76.3738 280.463 9.26245 256.449 -46.5552 246.712C-102.44 236.797 -146.451 239.975 -172.706 243.669C-225.257 250.262 -296.048 275.032 -361.97 328.457C-428.645 380.098 -489.974 454.311 -546.346 521.298C-602.66 588.568 -663.575 637.225 -712.917 654.832C-762.003 673.448 -794.601 669.484 -794.374 670.507C-794.592 669.484 -762.016 673.605 -712.837 655.195C-663.399 637.795 -602.25 589.303 -545.734 522.185C-489.185 455.393 -427.754 381.484 -361.165 330.181C-295.327 277.094 -224.859 252.616 -172.507 246.048C-146.358 242.367 -102.52 239.202 -46.8084 249.083C8.82324 258.782 75.7518 282.728 145.816 323.693C215.802 364.021 289.806 421.832 376.712 448.17C462.59 476.782 555.619 487.378 646.568 478.46C829.607 461.923 997.867 368.222 1115.81 277.754C1234.69 186.804 1308.26 102.587 1324.32 85.9606C1388.35 17.4272 1453.83 -72.6561 1453.66 -72.7744Z" fill="url(#paint43_linear_213_4938)"/>
</g>
</g>
<defs>
<linearGradient id="paint0_linear_213_4938" x1="1230.78" y1="358.261" x2="-790.491" y2="401.207" gradientUnits="userSpaceOnUse">
<stop stop-color="#600F25"/>
<stop offset="0.3333" stop-color="#DC1F26"/>
<stop offset="0.6848" stop-color="#F78C1E"/>
<stop offset="1" stop-color="#FDBA12"/>
</linearGradient>
<linearGradient id="paint1_linear_213_4938" x1="1230.84" y1="360.092" x2="-838.465" y2="404.059" gradientUnits="userSpaceOnUse">
<stop stop-color="#600F25"/>
<stop offset="0.3333" stop-color="#DC1F26"/>
<stop offset="0.6848" stop-color="#F78C1E"/>
<stop offset="1" stop-color="#FDBA12"/>
</linearGradient>
<linearGradient id="paint2_linear_213_4938" x1="1230.89" y1="361.918" x2="-886.184" y2="406.899" gradientUnits="userSpaceOnUse">
<stop stop-color="#600F25"/>
<stop offset="0.3333" stop-color="#DC1F26"/>
<stop offset="0.6848" stop-color="#F78C1E"/>
<stop offset="1" stop-color="#FDBA12"/>
</linearGradient>
<linearGradient id="paint3_linear_213_4938" x1="1230.95" y1="363.839" x2="-934.008" y2="409.838" gradientUnits="userSpaceOnUse">
<stop stop-color="#600F25"/>
<stop offset="0.3333" stop-color="#DC1F26"/>
<stop offset="0.6848" stop-color="#F78C1E"/>
<stop offset="1" stop-color="#FDBA12"/>
</linearGradient>
<linearGradient id="paint4_linear_213_4938" x1="1231.01" y1="365.583" x2="-981.918" y2="412.601" gradientUnits="userSpaceOnUse">
<stop stop-color="#600F25"/>
<stop offset="0.3333" stop-color="#DC1F26"/>
<stop offset="0.6848" stop-color="#F78C1E"/>
<stop offset="1" stop-color="#FDBA12"/>
</linearGradient>
<linearGradient id="paint5_linear_213_4938" x1="1231.06" y1="367.483" x2="-1029.75" y2="415.518" gradientUnits="userSpaceOnUse">
<stop stop-color="#600F25"/>
<stop offset="0.3333" stop-color="#DC1F26"/>
<stop offset="0.6848" stop-color="#F78C1E"/>
<stop offset="1" stop-color="#FDBA12"/>
</linearGradient>
<linearGradient id="paint6_linear_213_4938" x1="1231.12" y1="369.239" x2="-1077.63" y2="418.293" gradientUnits="userSpaceOnUse">
<stop stop-color="#600F25"/>
<stop offset="0.3333" stop-color="#DC1F26"/>
<stop offset="0.6848" stop-color="#F78C1E"/>
<stop offset="1" stop-color="#FDBA12"/>
</linearGradient>
<linearGradient id="paint7_linear_213_4938" x1="1231.17" y1="371.081" x2="-1125.54" y2="421.154" gradientUnits="userSpaceOnUse">
<stop stop-color="#600F25"/>
<stop offset="0.3333" stop-color="#DC1F26"/>
<stop offset="0.6848" stop-color="#F78C1E"/>
<stop offset="1" stop-color="#FDBA12"/>
</linearGradient>
<linearGradient id="paint8_linear_213_4938" x1="1231.23" y1="372.897" x2="-1173.35" y2="423.987" gradientUnits="userSpaceOnUse">
<stop stop-color="#600F25"/>
<stop offset="0.3333" stop-color="#DC1F26"/>
<stop offset="0.6848" stop-color="#F78C1E"/>
<stop offset="1" stop-color="#FDBA12"/>
</linearGradient>
<linearGradient id="paint9_linear_213_4938" x1="1231.29" y1="374.727" x2="-1221.22" y2="426.835" gradientUnits="userSpaceOnUse">
<stop stop-color="#600F25"/>
<stop offset="0.3333" stop-color="#DC1F26"/>
<stop offset="0.6848" stop-color="#F78C1E"/>
<stop offset="1" stop-color="#FDBA12"/>
</linearGradient>
<linearGradient id="paint10_linear_213_4938" x1="1231.34" y1="376.558" x2="-1269.08" y2="429.684" gradientUnits="userSpaceOnUse">
<stop stop-color="#600F25"/>
<stop offset="0.3333" stop-color="#DC1F26"/>
<stop offset="0.6848" stop-color="#F78C1E"/>
<stop offset="1" stop-color="#FDBA12"/>
</linearGradient>
<linearGradient id="paint11_linear_213_4938" x1="1231.39" y1="378.379" x2="-1317.05" y2="432.526" gradientUnits="userSpaceOnUse">
<stop stop-color="#600F25"/>
<stop offset="0.3333" stop-color="#DC1F26"/>
<stop offset="0.6848" stop-color="#F78C1E"/>
<stop offset="1" stop-color="#FDBA12"/>
</linearGradient>
<linearGradient id="paint12_linear_213_4938" x1="1231.45" y1="380.295" x2="-1364.78" y2="435.457" gradientUnits="userSpaceOnUse">
<stop stop-color="#600F25"/>
<stop offset="0.3333" stop-color="#DC1F26"/>
<stop offset="0.6848" stop-color="#F78C1E"/>
<stop offset="1" stop-color="#FDBA12"/>
</linearGradient>
<linearGradient id="paint13_linear_213_4938" x1="1231.51" y1="382.073" x2="-1412.8" y2="438.256" gradientUnits="userSpaceOnUse">
<stop stop-color="#600F25"/>
<stop offset="0.3333" stop-color="#DC1F26"/>
<stop offset="0.6848" stop-color="#F78C1E"/>
<stop offset="1" stop-color="#FDBA12"/>
</linearGradient>
<linearGradient id="paint14_linear_213_4938" x1="1231.57" y1="383.978" x2="-1460.48" y2="441.175" gradientUnits="userSpaceOnUse">
<stop stop-color="#600F25"/>
<stop offset="0.3333" stop-color="#DC1F26"/>
<stop offset="0.6848" stop-color="#F78C1E"/>
<stop offset="1" stop-color="#FDBA12"/>
</linearGradient>
<linearGradient id="paint15_linear_213_4938" x1="1231.62" y1="385.721" x2="-1508.37" y2="443.938" gradientUnits="userSpaceOnUse">
<stop stop-color="#600F25"/>
<stop offset="0.3333" stop-color="#DC1F26"/>
<stop offset="0.6848" stop-color="#F78C1E"/>
<stop offset="1" stop-color="#FDBA12"/>
</linearGradient>
<linearGradient id="paint16_linear_213_4938" x1="1231.68" y1="387.58" x2="-1556.21" y2="446.813" gradientUnits="userSpaceOnUse">
<stop stop-color="#600F25"/>
<stop offset="0.3333" stop-color="#DC1F26"/>
<stop offset="0.6848" stop-color="#F78C1E"/>
<stop offset="1" stop-color="#FDBA12"/>
</linearGradient>
<linearGradient id="paint17_linear_213_4938" x1="1231.73" y1="389.436" x2="-1604.07" y2="449.688" gradientUnits="userSpaceOnUse">
<stop stop-color="#600F25"/>
<stop offset="0.3333" stop-color="#DC1F26"/>
<stop offset="0.6848" stop-color="#F78C1E"/>
<stop offset="1" stop-color="#FDBA12"/>
</linearGradient>
<linearGradient id="paint18_linear_213_4938" x1="1231.79" y1="391.295" x2="-1651.91" y2="452.565" gradientUnits="userSpaceOnUse">
<stop stop-color="#600F25"/>
<stop offset="0.3333" stop-color="#DC1F26"/>
<stop offset="0.6848" stop-color="#F78C1E"/>
<stop offset="1" stop-color="#FDBA12"/>
</linearGradient>
<linearGradient id="paint19_linear_213_4938" x1="1231.84" y1="393.151" x2="-1699.77" y2="455.438" gradientUnits="userSpaceOnUse">
<stop stop-color="#600F25"/>
<stop offset="0.3333" stop-color="#DC1F26"/>
<stop offset="0.6848" stop-color="#F78C1E"/>
<stop offset="1" stop-color="#FDBA12"/>
</linearGradient>
<linearGradient id="paint20_linear_213_4938" x1="1231.9" y1="395.004" x2="-1747.62" y2="458.309" gradientUnits="userSpaceOnUse">
<stop stop-color="#600F25"/>
<stop offset="0.3333" stop-color="#DC1F26"/>
<stop offset="0.6848" stop-color="#F78C1E"/>
<stop offset="1" stop-color="#FDBA12"/>
</linearGradient>
<linearGradient id="paint21_linear_213_4938" x1="1231.96" y1="396.858" x2="-1795.46" y2="461.181" gradientUnits="userSpaceOnUse">
<stop stop-color="#600F25"/>
<stop offset="0.3333" stop-color="#DC1F26"/>
<stop offset="0.6848" stop-color="#F78C1E"/>
<stop offset="1" stop-color="#FDBA12"/>
</linearGradient>
<linearGradient id="paint22_linear_213_4938" x1="-794.385" y1="497.847" x2="1453.66" y2="497.847" gradientUnits="userSpaceOnUse">
<stop stop-color="#600F25"/>
<stop offset="0.3333" stop-color="#DC1F26"/>
<stop offset="0.6848" stop-color="#F78C1E"/>
<stop offset="1" stop-color="#FDBA12"/>
</linearGradient>
<linearGradient id="paint23_linear_213_4938" x1="-794.384" y1="497.793" x2="1453.66" y2="497.793" gradientUnits="userSpaceOnUse">
<stop stop-color="#600F25"/>
<stop offset="0.3333" stop-color="#DC1F26"/>
<stop offset="0.6848" stop-color="#F78C1E"/>
<stop offset="1" stop-color="#FDBA12"/>
</linearGradient>
<linearGradient id="paint24_linear_213_4938" x1="-794.385" y1="497.784" x2="1453.66" y2="497.784" gradientUnits="userSpaceOnUse">
<stop stop-color="#600F25"/>
<stop offset="0.3333" stop-color="#DC1F26"/>
<stop offset="0.6848" stop-color="#F78C1E"/>
<stop offset="1" stop-color="#FDBA12"/>
</linearGradient>
<linearGradient id="paint25_linear_213_4938" x1="-794.385" y1="497.726" x2="1453.66" y2="497.726" gradientUnits="userSpaceOnUse">
<stop stop-color="#600F25"/>
<stop offset="0.3333" stop-color="#DC1F26"/>
<stop offset="0.6848" stop-color="#F78C1E"/>
<stop offset="1" stop-color="#FDBA12"/>
</linearGradient>
<linearGradient id="paint26_linear_213_4938" x1="-794.383" y1="497.722" x2="1453.66" y2="497.722" gradientUnits="userSpaceOnUse">
<stop stop-color="#600F25"/>
<stop offset="0.3333" stop-color="#DC1F26"/>
<stop offset="0.6848" stop-color="#F78C1E"/>
<stop offset="1" stop-color="#FDBA12"/>
</linearGradient>
<linearGradient id="paint27_linear_213_4938" x1="-794.383" y1="497.438" x2="1453.66" y2="497.438" gradientUnits="userSpaceOnUse">
<stop stop-color="#600F25"/>
<stop offset="0.3333" stop-color="#DC1F26"/>
<stop offset="0.6848" stop-color="#F78C1E"/>
<stop offset="1" stop-color="#FDBA12"/>
</linearGradient>
<linearGradient id="paint28_linear_213_4938" x1="-794.383" y1="497.18" x2="1453.66" y2="497.18" gradientUnits="userSpaceOnUse">
<stop stop-color="#600F25"/>
<stop offset="0.3333" stop-color="#DC1F26"/>
<stop offset="0.6848" stop-color="#F78C1E"/>
<stop offset="1" stop-color="#FDBA12"/>
</linearGradient>
<linearGradient id="paint29_linear_213_4938" x1="-794.382" y1="496.899" x2="1453.66" y2="496.899" gradientUnits="userSpaceOnUse">
<stop stop-color="#600F25"/>
<stop offset="0.3333" stop-color="#DC1F26"/>
<stop offset="0.6848" stop-color="#F78C1E"/>
<stop offset="1" stop-color="#FDBA12"/>
</linearGradient>
<linearGradient id="paint30_linear_213_4938" x1="-794.382" y1="496.429" x2="1453.66" y2="496.429" gradientUnits="userSpaceOnUse">
<stop stop-color="#600F25"/>
<stop offset="0.3333" stop-color="#DC1F26"/>
<stop offset="0.6848" stop-color="#F78C1E"/>
<stop offset="1" stop-color="#FDBA12"/>
</linearGradient>
<linearGradient id="paint31_linear_213_4938" x1="-794.381" y1="495.809" x2="1453.66" y2="495.809" gradientUnits="userSpaceOnUse">
<stop stop-color="#600F25"/>
<stop offset="0.3333" stop-color="#DC1F26"/>
<stop offset="0.6848" stop-color="#F78C1E"/>
<stop offset="1" stop-color="#FDBA12"/>
</linearGradient>
<linearGradient id="paint32_linear_213_4938" x1="-794.381" y1="495.027" x2="1453.66" y2="495.027" gradientUnits="userSpaceOnUse">
<stop stop-color="#600F25"/>
<stop offset="0.3333" stop-color="#DC1F26"/>
<stop offset="0.6848" stop-color="#F78C1E"/>
<stop offset="1" stop-color="#FDBA12"/>
</linearGradient>
<linearGradient id="paint33_linear_213_4938" x1="-794.381" y1="494.016" x2="1453.66" y2="494.016" gradientUnits="userSpaceOnUse">
<stop stop-color="#600F25"/>
<stop offset="0.3333" stop-color="#DC1F26"/>
<stop offset="0.6848" stop-color="#F78C1E"/>
<stop offset="1" stop-color="#FDBA12"/>
</linearGradient>
<linearGradient id="paint34_linear_213_4938" x1="-794.381" y1="492.739" x2="1453.66" y2="492.739" gradientUnits="userSpaceOnUse">
<stop stop-color="#600F25"/>
<stop offset="0.3333" stop-color="#DC1F26"/>
<stop offset="0.6848" stop-color="#F78C1E"/>
<stop offset="1" stop-color="#FDBA12"/>
</linearGradient>
<linearGradient id="paint35_linear_213_4938" x1="-794.381" y1="485.923" x2="1453.66" y2="485.923" gradientUnits="userSpaceOnUse">
<stop stop-color="#600F25"/>
<stop offset="0.3333" stop-color="#DC1F26"/>
<stop offset="0.6848" stop-color="#F78C1E"/>
<stop offset="1" stop-color="#FDBA12"/>
</linearGradient>
<linearGradient id="paint36_linear_213_4938" x1="-794.381" y1="462.333" x2="1453.66" y2="462.333" gradientUnits="userSpaceOnUse">
<stop stop-color="#600F25"/>
<stop offset="0.3333" stop-color="#DC1F26"/>
<stop offset="0.6848" stop-color="#F78C1E"/>
<stop offset="1" stop-color="#FDBA12"/>
</linearGradient>
<linearGradient id="paint37_linear_213_4938" x1="-794.38" y1="438.797" x2="1453.66" y2="438.797" gradientUnits="userSpaceOnUse">
<stop stop-color="#600F25"/>
<stop offset="0.3333" stop-color="#DC1F26"/>
<stop offset="0.6848" stop-color="#F78C1E"/>
<stop offset="1" stop-color="#FDBA12"/>
</linearGradient>
<linearGradient id="paint38_linear_213_4938" x1="-794.381" y1="415.314" x2="1453.66" y2="415.314" gradientUnits="userSpaceOnUse">
<stop stop-color="#600F25"/>
<stop offset="0.3333" stop-color="#DC1F26"/>
<stop offset="0.6848" stop-color="#F78C1E"/>
<stop offset="1" stop-color="#FDBA12"/>
</linearGradient>
<linearGradient id="paint39_linear_213_4938" x1="-794.382" y1="391.893" x2="1453.66" y2="391.893" gradientUnits="userSpaceOnUse">
<stop stop-color="#600F25"/>
<stop offset="0.3333" stop-color="#DC1F26"/>
<stop offset="0.6848" stop-color="#F78C1E"/>
<stop offset="1" stop-color="#FDBA12"/>
</linearGradient>
<linearGradient id="paint40_linear_213_4938" x1="-794.374" y1="368.523" x2="1453.66" y2="368.523" gradientUnits="userSpaceOnUse">
<stop stop-color="#600F25"/>
<stop offset="0.3333" stop-color="#DC1F26"/>
<stop offset="0.6848" stop-color="#F78C1E"/>
<stop offset="1" stop-color="#FDBA12"/>
</linearGradient>
<linearGradient id="paint41_linear_213_4938" x1="-794.374" y1="345.214" x2="1453.66" y2="345.214" gradientUnits="userSpaceOnUse">
<stop stop-color="#600F25"/>
<stop offset="0.3333" stop-color="#DC1F26"/>
<stop offset="0.6848" stop-color="#F78C1E"/>
<stop offset="1" stop-color="#FDBA12"/>
</linearGradient>
<linearGradient id="paint42_linear_213_4938" x1="-794.374" y1="321.989" x2="1453.66" y2="321.989" gradientUnits="userSpaceOnUse">
<stop stop-color="#600F25"/>
<stop offset="0.3333" stop-color="#DC1F26"/>
<stop offset="0.6848" stop-color="#F78C1E"/>
<stop offset="1" stop-color="#FDBA12"/>
</linearGradient>
<linearGradient id="paint43_linear_213_4938" x1="-794.374" y1="298.864" x2="1453.66" y2="298.864" gradientUnits="userSpaceOnUse">
<stop stop-color="#600F25"/>
<stop offset="0.3333" stop-color="#DC1F26"/>
<stop offset="0.6848" stop-color="#F78C1E"/>
<stop offset="1" stop-color="#FDBA12"/>
</linearGradient>
</defs>
</svg>
