<svg width="1920" height="695" viewBox="0 0 1920 695" fill="none" xmlns="http://www.w3.org/2000/svg">
<g opacity="0.2">
<mask id="mask0_71_738" style="mask-type:luminance" maskUnits="userSpaceOnUse" x="0" y="-17" width="1918" height="960">
<path d="M0.000732422 -17H1917.01V942.367H0.000732422V-17Z" fill="white"/>
</mask>
<g mask="url(#mask0_71_738)">
<path d="M-34.0663 -19.4003C-34.1753 -19.5144 -9.65491 88.5307 27.0438 176.454C36.7123 197.239 75.1583 306.015 170.31 425.328C217.793 484.369 280.316 543.947 355.737 590.533C430.962 637.306 518.445 670.642 609.135 686.567C790.022 717.347 984.666 692.454 1120.72 603.182C1189.9 563.075 1249.85 522.896 1300.97 495.045C1351.83 466.568 1393.26 449.802 1418.75 441.392C1469.33 423.291 1541.46 411.03 1618.9 421.173C1696.17 430.158 1777.49 463.601 1840.48 515.986C1904.19 567.631 1947.56 635.357 1971.77 687.721C1996.21 740.41 2004.58 776.824 2005.02 776.549C2004.57 776.824 1996.32 740.372 1972.02 687.565C1947.96 635.07 1904.73 567.082 1841.02 515.111C1778.03 462.375 1696.55 428.561 1619.06 419.36C1541.43 408.98 1468.97 421.156 1418.22 439.304C1392.66 447.752 1351.1 464.569 1300.17 493.1C1248.98 520.99 1188.99 561.173 1119.9 601.247C984.134 690.337 790.038 715.116 609.404 684.429C518.907 668.534 431.638 635.29 356.599 588.627C281.384 542.172 219.02 482.755 171.659 423.853C76.745 304.853 38.3634 196.301 28.7239 175.554C-7.88208 87.8629 -34.1593 -19.4764 -34.0663 -19.4003Z" fill="url(#paint0_linear_71_738)"/>
<path d="M-82.0693 -17.9422C-82.1045 -18.0902 -57.3792 91.3326 -19.834 180.051C-9.96997 201.009 29.3638 310.838 126.381 430.644C174.765 489.927 238.532 549.576 315.604 594.945C392.406 640.564 481.633 672.041 573.839 683.959C666.076 696.41 760.404 690.367 849.394 675.308C939.096 663.318 1021.87 630.569 1093.47 594.548C1165.28 558.633 1228.19 523.078 1281.3 498.721C1334.22 473.833 1376.91 459.802 1402.99 452.672C1454.94 437.567 1527.85 427.973 1606.2 436.417C1684.36 444.283 1767.66 473.228 1833.45 522.727C1899.97 571.329 1945.73 638.472 1970.79 691.06C1996.13 743.956 2004.65 780.822 2005.13 780.518C2004.65 780.822 1996.25 743.918 1971.05 690.895C1946.13 638.168 1900.5 570.742 1833.96 521.797C1768.14 471.961 1684.68 442.664 1606.34 434.571C1527.82 425.902 1454.66 435.378 1402.55 450.529C1376.4 457.676 1333.6 471.749 1280.6 496.68C1227.41 521.057 1164.46 556.643 1092.73 592.528C1021.16 628.519 938.711 661.15 849.125 673.136C760.224 688.177 666.083 694.191 574.041 681.775C482.053 669.894 393.053 638.48 316.453 592.972C239.59 547.734 175.993 488.253 127.737 429.127C30.9635 309.633 -8.29675 200.029 -18.135 179.108C-55.584 90.6564 -82.095 -18.0521 -82.0693 -17.9422Z" fill="url(#paint1_linear_71_738)"/>
<path d="M-129.819 -16.4969C-129.864 -16.6533 -104.949 94.2191 -66.6089 183.88C-56.5879 205.041 -16.3628 316.129 82.7157 436.519C132.099 496.054 197.211 555.865 276.013 599.987C354.437 644.503 445.501 674.29 539.223 682.066C632.996 690.544 728.055 678.698 817.715 660.757C908.074 645.969 992.445 616.795 1066.6 584.899C1140.89 553.249 1206.62 522.596 1261.66 502.068C1316.55 481.038 1360.39 469.733 1387.08 464.011C1440.34 452.118 1514.07 444.743 1593.45 451.611C1672.6 458.356 1757.79 482.873 1826.36 529.362C1895.65 574.845 1943.88 641.401 1969.79 694.288C1996.05 747.455 2004.72 784.816 2005.23 784.482C2004.72 784.816 1996.16 747.43 1970.05 694.115C1944.27 641.096 1896.16 574.228 1826.83 528.411C1758.22 481.571 1672.88 456.704 1593.56 449.739C1514.03 442.66 1440.14 449.908 1386.72 461.839C1359.97 467.565 1316.03 478.883 1261.06 499.964C1205.95 520.512 1140.19 551.195 1065.95 582.807C991.807 614.691 907.705 643.789 817.394 658.564C727.782 676.504 632.91 688.312 539.355 679.86C445.87 672.096 355.053 642.394 276.834 597.992C198.249 554.005 133.334 494.356 84.0686 434.997C-14.7502 314.903 -54.8953 204.052 -64.9163 182.929C-103.131 93.5345 -129.854 -16.6068 -129.819 -16.4969Z" fill="url(#paint2_linear_71_738)"/>
<path d="M-177.671 -14.8651C-177.729 -15.0214 -152.474 97.2457 -113.233 187.908C-103.014 209.318 -61.6697 321.611 39.3707 442.935C89.8796 502.787 156.635 562.323 237.076 605.562C317.18 649.131 410.225 676.86 505.386 680.752C600.688 685.156 696.33 667.291 786.693 646.375C877.696 628.088 963.759 602.384 1040.29 574.579C1116.94 547.218 1185.36 522.072 1242.16 505.446C1298.89 488.422 1343.81 479.978 1371.08 475.756C1478.23 459.722 1674.2 447.88 1819.22 535.938C1891.23 578.172 1942 644.153 1968.79 697.4C1995.96 750.926 2004.79 788.823 2005.33 788.468C2004.79 788.823 1996.08 750.892 1969.05 697.226C1942.4 643.836 1891.73 577.529 1819.66 534.95C1748.32 491.216 1661.17 470.702 1580.79 464.895C1500.11 459.105 1425.44 465.03 1370.81 473.529C1343.49 477.755 1298.48 486.225 1241.69 503.269C1184.81 519.917 1116.34 545.093 1039.72 572.428C963.189 600.237 877.334 625.882 786.33 644.165C695.965 665.098 600.518 682.899 505.45 678.521C410.549 674.633 317.763 646.976 237.884 603.534C157.664 560.409 91.1042 501.05 40.7491 441.371C-60.0444 320.36 -101.308 208.312 -111.505 186.944C-150.634 96.5526 -177.719 -14.9623 -177.671 -14.8651Z" fill="url(#paint3_linear_71_738)"/>
<path d="M-225.613 -13.5848C-225.689 -13.7496 -199.986 100.398 -159.819 192.185C-149.375 213.836 -107.031 327.65 -3.62427 449.73C47.8752 510.166 116.439 569.402 198.626 611.707C280.551 654.097 375.613 679.941 472.22 679.763C569.029 680.177 665.11 656.062 756.219 632.074C847.96 610.477 935.68 587.169 1014.47 563.73C1171.87 515.699 1298.91 491.195 1354.78 487.429C1410.4 482.032 1486.02 477.979 1567.75 482.112C1649.2 486.605 1737.91 502.508 1811.91 542.578C1886.64 581.388 1940.09 646.718 1967.75 700.404C1995.87 754.332 2004.86 792.825 2005.44 792.44C2004.86 792.825 1995.99 754.302 1968.02 700.214C1940.49 646.384 1887.13 580.712 1812.31 541.551C1738.25 501.126 1649.38 484.91 1567.83 480.177C1485.98 475.845 1410.34 479.746 1354.59 485.159C1298.64 488.925 1171.4 513.488 1013.99 561.52C935.167 584.972 847.607 608.229 755.796 629.855C664.655 653.852 568.759 677.908 472.223 677.489C375.895 677.671 281.093 651.891 199.418 609.624C117.464 567.441 49.1061 508.383 -2.24915 448.12C-105.383 326.357 -147.65 212.792 -158.059 191.179C-198.117 99.6966 -225.677 -13.6947 -225.613 -13.5848Z" fill="url(#paint4_linear_71_738)"/>
<path d="M-273.471 -11.9832C-273.554 -12.1438 -247.476 103.707 -206.308 196.702C-195.624 218.599 -152.225 334.074 -46.283 456.983C6.37695 517.943 76.71 577.119 160.811 618.346C244.692 659.312 341.783 683.605 439.858 679.087C538.157 675.359 634.511 644.934 726.418 617.822C818.935 592.701 908.441 571.494 989.346 552.383C1151.28 513.923 1281.7 501.143 1338.39 499.19C1395.07 496.908 1471.84 494.732 1554.87 497.242C1637.6 500.534 1728 512.262 1804.61 549.04C1881.98 584.409 1938.16 649.076 1966.7 703.303C1995.79 757.691 2004.92 796.839 2005.53 796.413C2004.91 796.839 1995.91 757.666 1966.96 703.105C1938.56 648.721 1882.45 583.695 1804.98 547.975C1728.29 510.838 1637.73 498.802 1554.92 495.285C1471.78 492.572 1395.07 494.592 1338.29 496.883C1281.54 498.84 1150.96 511.637 988.955 550.109C907.983 569.245 818.566 590.428 725.925 615.574C633.966 642.698 537.785 673.06 439.771 676.771C342.01 681.272 245.201 657.051 161.562 616.221C77.7166 575.103 7.61108 516.117 -44.9045 455.338C-150.561 332.751 -193.877 217.538 -204.539 195.675C-245.581 102.976 -273.544 -12.0931 -273.471 -11.9832Z" fill="url(#paint5_linear_71_738)"/>
<path d="M-321.382 -10.6775C-321.475 -10.8677 -294.935 107.134 -252.703 201.419C-241.772 223.602 -197.235 340.835 -88.6257 464.67C-34.6995 526.124 37.4509 585.297 123.575 625.391C209.488 664.89 308.72 687.552 408.228 678.613C507.97 670.528 604.465 633.814 697.196 603.529C790.495 574.718 882.021 555.793 964.897 540.908C1131.07 512.22 1264.25 511.248 1321.82 511.041C1379.5 511.818 1457.53 511.476 1541.93 512.334C1626.04 514.367 1718.08 522.033 1797.24 555.438C1877.17 587.296 1936.21 651.214 1965.58 706.118C1995.73 760.983 2004.97 800.854 2005.64 800.385C2004.96 800.854 1995.86 760.95 1965.84 705.906C1936.62 650.855 1877.63 586.556 1797.58 554.343C1718.32 520.567 1626.13 512.613 1541.96 510.356C1457.45 509.278 1379.57 509.477 1321.81 508.687C1264.2 508.906 1130.91 509.878 964.596 538.588C881.623 553.498 790.126 572.406 696.661 601.268C603.827 631.596 507.518 668.22 408.065 676.272C308.909 685.189 209.969 662.599 124.313 623.206C38.4513 583.242 -33.459 524.26 -87.2217 462.992C-195.558 339.487 -240.002 222.521 -250.908 200.379C-293.011 106.391 -321.462 -10.8043 -321.382 -10.6775Z" fill="url(#paint6_linear_71_738)"/>
<path d="M-369.321 -9.18924C-369.424 -9.37519 -342.381 110.685 -299.014 206.356C-287.826 228.835 -242.068 347.94 -130.644 472.755C-75.3716 534.747 -1.29431 593.906 86.9553 632.767C174.955 670.782 276.444 691.715 377.337 678.246C478.467 665.58 575.013 622.827 668.495 588.932C762.739 556.871 856.294 539.396 941.072 528.982C1111.2 510.255 1246.55 521.408 1305.07 522.888C1363.69 526.793 1443.07 528.23 1528.93 527.389C1614.5 528.132 1708.15 531.784 1789.8 561.795C1872.22 590.085 1934.21 653.176 1964.43 708.836C1995.66 764.23 2005 804.874 2005.74 804.35C2005.01 804.874 1995.79 764.192 1964.7 708.629C1934.63 652.808 1872.66 589.304 1790.1 560.658C1708.34 530.284 1614.55 526.341 1528.93 525.377C1442.99 525.994 1363.83 524.405 1305.15 520.5C1246.62 519.025 1111.21 507.855 940.863 526.594C855.951 537.037 762.354 554.509 667.908 586.645C574.289 620.591 477.912 663.255 377.106 675.879C276.595 689.298 175.404 668.437 87.6669 630.531C-0.297485 591.784 -74.1309 532.832 -129.23 471.018C-240.353 346.537 -286.018 227.715 -297.184 205.269C-340.435 109.933 -369.408 -9.32025 -369.321 -9.18924Z" fill="url(#paint7_linear_71_738)"/>
<path d="M-417.165 -7.76927C-417.271 -7.97636 -389.817 114.362 -345.232 211.482C-333.778 234.287 -286.712 355.345 -172.34 481.221C-115.653 543.774 -39.5211 602.891 50.9244 640.45C141.072 676.94 244.917 695.996 347.16 677.899C449.62 660.58 546.003 611.525 640.375 574.334C735.523 538.745 831.335 522.845 917.892 516.928C1091.68 508.349 1228.62 531.573 1288.16 534.755C1317.95 537.38 1352.94 541.065 1391.55 542.502C1430.15 543.727 1472.17 542.802 1515.88 542.434C1602.99 541.821 1698.22 541.542 1782.29 568.13C1867.14 592.786 1932.17 654.989 1963.26 711.46C1995.58 767.437 2005.04 808.91 2005.84 808.327C2005.04 808.893 1995.71 767.404 1963.53 711.24C1932.58 654.604 1867.56 591.975 1782.56 566.947C1698.36 540.012 1602.99 539.991 1515.85 540.376C1472.15 540.634 1430.12 541.462 1391.6 540.165C1353.11 538.673 1318.1 534.945 1288.32 532.321C1228.79 529.151 1091.86 505.915 917.786 514.503C831.05 520.428 735.129 536.348 639.724 572.027C545.185 609.281 448.96 658.234 346.839 675.478C245.026 693.528 141.472 674.527 51.6135 638.147C-38.5339 600.715 -114.406 541.796 -170.919 479.45C-284.988 353.908 -331.945 233.133 -343.383 210.371C-387.82 113.593 -417.264 -7.90451 -417.165 -7.76927Z" fill="url(#paint8_linear_71_738)"/>
<path d="M-465.062 -6.31123C-465.164 -6.531 -437.208 118.157 -391.369 216.794C-379.63 239.95 -331.192 363.045 -213.748 490.024C-155.558 553.148 -77.2556 612.197 15.4563 648.358C107.825 683.279 214.113 700.332 317.625 677.46C421.359 655.365 517.437 599.996 612.758 559.576C708.855 520.512 807.062 505.682 895.334 504.841C983.843 504.076 1062.74 515.521 1126.89 524.912C1191.07 534.679 1240.82 542.603 1271.06 546.66C1301.29 550.701 1336.83 555.827 1376.15 557.83C1415.46 559.669 1458.26 558.549 1502.76 557.467C1591.47 555.468 1688.28 551.326 1774.7 574.444C1861.92 595.449 1930.04 656.65 1962.05 714.009C1995.49 770.611 2005.08 812.933 2005.94 812.304C2005.07 812.933 1995.63 770.578 1962.32 713.789C1930.47 656.265 1862.32 594.582 1774.93 573.24C1688.36 549.758 1591.42 553.6 1502.71 555.367C1458.23 556.339 1415.42 557.349 1376.22 555.455C1337.05 553.405 1301.51 548.233 1271.3 544.209C1241.08 540.139 1191.35 532.228 1127.15 522.452C1062.98 513.066 984 501.596 895.298 502.365C806.837 503.214 708.426 518.065 612.049 557.23C516.52 597.748 420.605 653.023 317.231 675.017C214.165 697.809 108.181 680.824 16.1135 646.008C-76.2908 609.966 -154.314 551.136 -212.318 488.211C-329.441 361.579 -377.787 238.767 -389.494 215.662C-435.191 117.363 -465.158 -6.47183 -465.062 -6.31123Z" fill="url(#paint9_linear_71_738)"/>
<path d="M-512.953 -4.86197C-513.062 -5.09865 -484.605 122.045 -437.424 222.284C-425.399 245.799 -375.512 371.02 -254.846 499.157C-195.089 562.855 -114.527 621.791 -19.4584 656.442C75.1707 689.758 183.994 704.655 288.705 676.859C393.634 649.87 489.257 588.2 585.591 544.615C682.705 502.132 783.511 488.777 873.348 492.855C963.492 496.79 1043.15 514.502 1107.96 528.162C1172.78 542.383 1223.14 553.025 1253.81 558.51C1284.46 563.971 1320.55 570.522 1360.59 573.138C1400.63 575.589 1444.27 574.266 1489.58 572.457C1579.96 569.021 1678.33 561.08 1767.04 580.741C1856.56 598.052 1927.85 658.171 1960.81 716.472C1995.4 773.73 2005.11 816.969 2006.04 816.276C2005.11 816.956 1995.54 773.696 1961.08 716.235C1928.28 657.744 1856.94 597.156 1767.25 579.507C1678.37 559.487 1579.87 567.145 1489.51 570.323C1444.22 572.013 1400.6 573.235 1360.7 570.724C1320.82 568.058 1284.74 561.469 1254.13 556.017C1223.5 550.54 1173.18 539.911 1108.35 525.685C1043.52 512.017 963.771 494.271 873.418 490.324C783.354 486.258 682.259 499.63 584.828 542.252C488.244 585.956 392.769 647.52 288.215 674.399C183.988 702.086 75.4847 687.243 -18.8236 654.029C-113.562 619.492 -193.839 560.771 -253.407 497.288C-373.736 369.507 -423.521 244.578 -435.516 221.118C-482.537 121.246 -513.049 -5.03525 -512.953 -4.86197Z" fill="url(#paint10_linear_71_738)"/>
<path d="M-560.95 -3.42059C-561.1 -3.65303 -531.913 126.026 -483.407 227.935C-471.094 251.83 -419.665 379.257 -295.656 508.586C-234.263 572.859 -151.316 631.63 -53.8276 664.675C43.1063 696.33 154.543 708.903 260.363 676.04C366.388 644.034 461.444 576.096 558.881 529.434C657.078 483.587 760.664 471.872 851.939 481.026C943.6 489.791 1023.78 513.619 1089.14 531.488C1154.47 550.054 1205.38 563.422 1236.45 570.311C1267.5 577.199 1304.14 585.208 1344.94 588.433C1385.74 591.67 1430.26 589.946 1476.41 587.444C1568.52 582.512 1668.43 570.818 1759.39 587.042C1804.62 595.094 1847.05 611.272 1881.38 635.45C1915.89 659.337 1941.66 690.24 1959.61 718.826C1995.24 776.853 2005.33 820.913 2006.14 820.253C2005.33 820.917 1995.39 776.815 1959.89 718.59C1942 689.906 1916.28 658.839 1881.74 634.761C1847.4 610.376 1804.87 593.99 1759.56 585.77C1668.43 569.182 1568.38 580.597 1476.31 585.276C1430.19 587.659 1385.71 589.27 1345.08 585.977C1304.47 582.702 1267.87 574.659 1236.87 567.792C1205.84 560.903 1154.99 547.569 1089.65 528.986C1024.28 511.121 944.013 487.251 852.103 478.461C760.574 469.281 656.616 481.026 558.057 527.042C460.341 573.852 365.43 641.676 259.789 673.55C154.492 706.27 43.3855 693.76 -53.2214 662.199C-150.364 629.28 -233.004 570.716 -294.207 506.667C-417.857 377.681 -469.17 250.583 -481.461 226.743C-529.816 125.198 -561.081 -3.57696 -560.95 -3.42059Z" fill="url(#paint11_linear_71_738)"/>
<path d="M-608.707 -1.80238C-608.889 -2.05173 -579.195 130.083 -529.305 233.741C-516.69 258.034 -463.652 387.722 -336.213 518.28C-273.102 583.12 -187.67 641.671 -87.7231 672.992C11.5702 702.948 125.667 713.04 232.507 674.961C339.519 637.816 433.901 563.687 532.528 514.037C631.873 464.813 738.414 455.169 830.985 469.416C924.037 483.109 1004.54 512.883 1070.34 534.843C1136.06 557.657 1187.48 573.721 1218.94 582.03C1250.37 590.343 1287.53 599.852 1329.13 603.715C1370.71 607.641 1416.13 605.659 1463.15 602.404C1557.03 595.98 1658.49 580.559 1751.63 593.339C1797.95 599.704 1841.71 614.399 1877.27 637.931C1913.04 661.146 1939.78 692.217 1958.32 721.129C1995.12 779.917 2005.39 824.931 2006.25 824.221C2005.38 824.927 1995.27 779.879 1958.6 720.884C1940.12 691.866 1913.42 660.626 1877.62 637.212C1842.03 613.469 1798.17 598.584 1751.76 592.037C1658.44 578.906 1556.84 594.028 1463.02 600.198C1416.05 603.326 1370.67 605.185 1329.29 601.208C1287.93 597.286 1250.81 587.769 1219.44 579.473C1188.02 571.181 1136.69 555.129 1070.96 532.324C1005.16 510.369 924.575 480.539 831.238 466.812C738.398 452.506 631.389 462.181 531.65 511.615C432.703 561.439 338.462 635.458 231.846 672.447C125.565 710.352 11.801 700.323 -87.146 670.456C-186.738 639.241 -271.839 580.918 -334.732 516.285C-461.828 386.103 -514.738 256.732 -527.317 232.494C-577.05 129.234 -608.87 -1.96721 -608.707 -1.80238Z" fill="url(#paint12_linear_71_738)"/>
<path d="M-656.763 -0.437178C-656.984 -0.678076 -626.447 134.233 -575.127 239.688C-562.205 264.395 -507.499 396.415 -376.482 528.216C-311.586 593.631 -223.58 651.907 -121.116 681.381C-70.0146 696.258 -15.7004 704.169 39.662 704.051C94.9667 705.036 151.627 695.29 205.134 673.567C313.034 631.173 406.644 550.945 506.543 498.379C607.144 445.863 716.731 438.289 810.466 457.861C904.793 476.571 985.42 512.161 1051.56 538.161C1117.58 565.15 1169.45 583.931 1201.29 593.656C1233.08 603.402 1270.76 614.437 1313.16 618.976C1355.54 623.621 1401.91 621.385 1449.82 617.378C1545.53 609.42 1648.53 590.33 1743.81 599.683C1791.19 604.353 1836.26 617.509 1873.08 640.378C1910.1 662.87 1937.84 694.111 1956.99 723.391C1995 782.96 2005.43 828.963 2006.35 828.19C2005.43 828.959 1995.16 782.922 1957.27 723.15C1938.19 693.76 1910.48 662.338 1873.42 639.63C1836.56 616.558 1791.38 603.199 1743.9 598.352C1648.44 588.631 1545.3 607.434 1449.67 615.126C1401.82 619.005 1355.5 621.127 1313.35 616.423C1271.22 611.85 1233.58 600.803 1201.87 591.082C1170.1 581.37 1118.32 562.614 1052.31 535.638C986.167 509.646 905.466 474.002 810.837 455.216C716.805 435.58 606.644 443.183 505.617 495.932C405.365 548.71 311.877 628.823 204.39 671.044C97.233 714.287 -19.2524 706.912 -120.569 678.795C-222.667 649.418 -310.326 591.374 -375.001 526.192C-505.643 394.763 -560.223 263.089 -573.117 238.428C-624.264 133.359 -656.968 -0.602003 -656.763 -0.437178Z" fill="url(#paint13_linear_71_738)"/>
<path d="M-704.465 1.15661C-704.715 0.898808 -673.677 138.456 -620.885 245.757C-607.656 270.904 -551.21 405.308 -416.519 538.373C-349.677 604.18 -259.165 662.359 -154.094 689.805C-101.733 703.895 -46.1619 710.289 10.2808 708.772C66.7139 708.227 124.227 696.178 178.134 671.856C286.74 623.993 379.596 537.958 480.836 482.522C582.774 426.655 695.601 422.01 790.323 446.869C885.776 470.684 966.418 511.789 1032.85 541.661C1099.1 572.631 1151.38 594.088 1183.58 605.22C1215.73 616.217 1253.85 629.191 1297.1 634.424C1340.32 639.406 1387.66 637.196 1436.48 632.336C1534.05 622.788 1638.59 600.06 1735.96 606.023C1784.37 609.011 1830.73 620.62 1868.81 642.779C1907.1 664.54 1935.87 695.95 1955.63 725.597C1994.86 785.953 2005.48 832.983 2006.45 832.167C2005.47 832.983 1995.02 785.919 1955.92 725.335C1936.22 695.578 1907.48 663.982 1869.13 642.014C1831 619.648 1784.53 607.828 1736.01 604.658C1638.45 598.356 1533.77 620.777 1436.3 630.028C1387.54 634.77 1340.28 636.858 1297.31 631.824C1254.37 626.575 1216.31 613.575 1184.24 602.621C1152.12 591.501 1099.94 570.099 1033.7 539.129C967.268 509.266 886.574 468.111 790.781 444.194C695.761 419.246 582.261 423.895 479.855 480.037C378.224 535.723 285.474 621.66 177.288 669.307C123.567 693.511 66.5023 705.488 10.2039 706.038C-46.053 707.547 -101.431 701.173 -153.594 687.129C-258.28 659.79 -348.434 601.839 -415.032 536.281C-549.338 403.588 -605.652 269.543 -618.85 244.456C-671.446 137.568 -704.699 0.979108 -704.465 1.15661Z" fill="url(#paint14_linear_71_738)"/>
<path d="M-752.386 2.44174C-752.672 2.19239 -720.894 142.75 -666.589 251.953C-653.029 277.539 -594.788 414.391 -456.324 548.723C-387.434 614.814 -294.405 672.993 -186.667 698.22C-80.094 722.297 42.3315 724.714 151.476 669.794C260.643 616.365 352.733 524.671 455.395 466.442C506.834 437.618 562.071 421.753 615.956 417.535C669.994 413.748 722.379 422.074 770.499 436.224C866.959 465.212 947.495 511.587 1014.17 545.228C1080.59 580.07 1133.24 604.159 1165.78 616.716C1198.26 629.095 1236.86 643.692 1280.96 649.651C1325.01 655.407 1373.37 652.931 1423.11 647.284C1522.59 636.144 1628.67 609.818 1728.07 612.396C1777.51 613.724 1825.13 623.765 1864.47 645.188C1904.03 666.168 1933.86 697.738 1954.25 727.761C1994.75 788.95 2005.54 837.032 2006.56 836.149C2005.53 837.024 1994.91 788.907 1954.54 727.487C1934.21 697.357 1904.4 665.58 1864.78 644.389C1825.38 622.755 1777.64 612.51 1728.1 611.019C1628.49 608.086 1522.26 634.098 1422.9 644.939C1373.23 650.463 1324.98 652.812 1281.2 647.005C1237.45 641.038 1198.92 626.424 1166.52 614.074C1134.07 601.556 1081.52 577.525 1015.13 542.688C948.457 509.068 867.859 462.629 771.063 433.515C722.776 419.335 670.129 410.95 615.789 414.758C561.597 419.001 506.049 434.964 454.37 463.914C351.265 522.444 259.293 614.045 150.54 667.237C41.9854 721.887 -80.001 719.495 -186.199 695.506C-293.536 670.36 -386.197 612.418 -454.827 546.576C-592.89 412.633 -650.99 276.145 -664.519 250.622C-718.618 141.837 -752.656 2.28114 -752.386 2.44174Z" fill="url(#paint15_linear_71_738)"/>
<path d="M-800.256 3.94957C-800.586 3.69176 -768.077 147.124 -712.228 258.258C-698.321 284.262 -638.311 423.717 -495.849 559.157C-424.968 625.645 -329.265 683.693 -218.858 706.616C-109.819 728.356 15.488 728.42 125.084 667.291C234.729 608.368 325.998 511.024 430.19 450.102C482.398 420.154 538.873 403.756 593.95 401.068C649.168 398.127 702.341 409.572 750.942 425.915C848.242 460.19 928.644 511.539 995.508 548.862C1062.05 587.448 1115.05 614.132 1147.91 628.092C1180.71 641.857 1219.76 658.111 1264.72 664.844C1309.62 671.378 1359.03 668.664 1409.71 662.206C1511.12 649.439 1618.74 619.529 1720.15 618.79C1770.59 618.435 1819.43 626.909 1860.04 647.554C1900.88 667.73 1931.8 699.448 1952.83 729.852C1994.61 791.886 2005.58 841.054 2006.65 840.112C2005.57 841.042 1994.77 791.852 1953.12 729.569C1932.15 699.047 1901.26 667.134 1860.34 646.73C1819.66 625.869 1770.69 617.188 1720.14 617.366C1618.52 617.771 1510.75 647.351 1409.48 659.831C1358.88 666.145 1309.6 668.728 1265 662.143C1220.43 655.406 1181.45 639.16 1148.75 625.429C1115.98 611.512 1063.09 584.878 996.573 546.313C929.721 508.999 849.274 457.595 751.622 423.189C702.844 406.787 649.392 395.262 593.838 398.224C538.43 400.929 481.603 417.441 429.129 447.541C324.444 508.788 233.29 606.043 124.049 664.696C15.0778 725.52 -109.742 725.478 -218.412 703.823C-328.416 680.98 -423.708 623.172 -494.333 556.934C-636.378 421.895 -696.238 282.817 -710.105 256.872C-765.772 146.181 -800.564 3.78051 -800.256 3.94957Z" fill="url(#paint16_linear_71_738)"/>
<path d="M-848.148 5.45445C-848.501 5.19242 -815.274 151.566 -757.895 264.729C-743.623 291.13 -681.92 433.451 -535.173 569.731C-462.39 636.98 -363.78 694.28 -250.734 715.061C-194.5 726.311 -135.153 727.887 -75.4819 721.928C-15.5964 717.077 44.27 696.985 98.879 664.404C209.008 600.173 299.315 497.056 405.103 433.442C458.161 402.396 515.988 385.803 572.239 384.73C628.653 383.052 682.585 397.18 731.556 416.08C829.608 455.571 909.85 511.611 976.862 552.577C1043.51 594.772 1096.82 624.056 1129.99 639.397C1163.1 654.515 1202.59 672.468 1248.41 680.004C1294.19 687.404 1344.68 684.268 1396.31 676.978C1499.68 662.456 1608.85 629.018 1712.24 625.049C1763.67 623.059 1813.71 629.981 1855.59 649.857C1897.69 669.248 1929.71 701.114 1951.39 731.924C1994.46 794.815 2005.63 845.095 2006.75 844.102C2005.62 845.091 1994.63 794.781 1951.68 731.624C1930.07 700.708 1898.06 668.618 1855.88 649.012C1813.92 628.916 1763.74 621.782 1712.19 623.595C1608.59 627.222 1499.26 660.347 1396.05 674.556C1344.51 681.698 1294.16 684.682 1248.73 677.252C1203.33 669.734 1163.91 651.789 1130.91 636.705C1097.84 621.41 1044.65 592.207 978.029 550.016C911.036 509.076 830.737 452.984 732.344 413.329C683.178 394.357 628.96 380.153 572.184 381.826C515.559 382.908 457.334 399.628 403.988 430.843C297.671 494.829 207.463 597.866 97.7476 661.814C-11.4962 728.885 -139.198 731.252 -250.353 712.212C-362.963 691.512 -461.153 634.436 -533.653 567.453C-679.968 431.587 -741.494 289.655 -755.728 263.321C-812.905 150.602 -848.481 5.2854 -848.148 5.45445Z" fill="url(#paint17_linear_71_738)"/>
<path d="M-896.013 6.96325C-896.424 6.69699 -862.427 156.058 -803.401 271.212C-788.747 298.049 -725.178 443.07 -574.273 580.432C-499.437 648.277 -397.864 704.609 -282.228 723.34C-168.182 740.089 -37.162 734.502 72.9249 661.095C183.361 591.433 272.749 482.738 380.3 416.706C434.175 384.514 493.461 367.757 550.878 368.509C608.443 368.535 663.12 385.026 712.353 406.787C811.005 451.493 891.038 512.119 958.182 556.558C1024.9 602.257 1078.52 634.051 1112.01 650.741C1145.43 667.185 1185.36 686.686 1232.04 695.138C1278.69 703.379 1330.29 700.057 1382.89 691.934C1488.24 675.744 1598.95 638.764 1704.28 631.516C1756.68 627.877 1807.9 633.198 1851.05 652.229C1894.42 670.744 1927.58 702.737 1949.93 733.931C1994.33 797.714 2005.68 849.123 2006.86 848.066C2005.68 849.11 1994.51 797.68 1950.23 733.631C1927.95 702.306 1894.79 670.097 1851.33 651.354C1808.09 632.094 1756.72 626.575 1704.21 630.045C1598.65 636.951 1487.78 673.584 1382.59 689.458C1330.1 697.429 1278.67 700.598 1232.4 692.344C1186.18 683.913 1146.3 664.417 1113.01 648.032C1079.63 631.385 1026.14 599.687 959.441 554.005C892.327 509.587 812.252 448.898 713.244 404.027C663.822 382.186 608.85 365.585 550.888 365.555C493.06 364.803 433.335 381.691 379.156 414.069C271.037 480.498 181.755 589.139 71.7067 658.505C-37.7325 731.522 -168.188 737.092 -281.872 720.411C-397.059 701.752 -498.193 645.665 -572.722 578.095C-723.181 441.147 -786.59 296.519 -801.192 269.762C-860.02 155.069 -896.401 6.78997 -896.013 6.96325Z" fill="url(#paint18_linear_71_738)"/>
<path d="M-943.904 8.46812C-944.36 8.20187 -909.568 160.606 -848.862 277.805C-833.833 305.069 -768.341 452.845 -613.176 591.273C-536.239 659.705 -431.647 714.939 -313.401 731.565C-196.829 745.867 -62.9819 736.915 47.1177 657.33C157.621 581.996 246.285 468.106 355.679 399.725C410.48 366.54 471.232 349.796 529.813 352.222C588.531 354.166 643.807 373.387 693.335 397.595C792.497 447.469 872.319 512.478 939.578 560.316C1006.37 609.425 1060.22 643.768 1093.96 661.937C1127.68 679.746 1168.03 700.84 1215.58 710.243C1263.11 719.376 1315.85 715.864 1369.42 706.904C1476.79 689.015 1589.04 648.539 1696.28 638.045C1749.63 632.796 1802.01 636.448 1846.43 654.629C1891.07 672.232 1925.39 704.343 1948.42 735.926C1994.18 800.597 2005.72 853.168 2006.95 852.048C2005.71 853.147 1994.36 800.559 1948.72 735.618C1925.76 703.904 1891.44 671.573 1846.69 653.729C1802.17 635.311 1749.64 631.457 1696.17 636.554C1588.69 646.676 1476.28 686.825 1369.1 704.381C1315.63 713.189 1263.1 716.536 1215.97 707.395C1168.93 698.021 1128.63 676.948 1095.05 659.219C1061.42 641.105 1007.7 606.843 940.943 557.763C873.697 509.947 793.853 444.887 694.335 394.814C644.615 370.505 589.035 351.165 529.874 349.217C470.866 346.753 409.612 363.658 354.493 397.037C244.477 465.867 155.913 579.714 45.8099 654.718C-63.6519 733.889 -196.877 742.802 -313.097 728.568C-430.877 712.001 -535.011 657.017 -611.624 588.864C-766.312 450.872 -831.641 303.497 -846.621 276.305C-907.103 159.592 -944.334 8.29907 -943.904 8.46812Z" fill="url(#paint19_linear_71_738)"/>
<path d="M-991.778 9.97691C-992.281 9.70643 -956.685 165.204 -894.271 284.457C-878.851 312.157 -811.4 462.756 -651.894 602.194C-572.797 671.167 -465.166 725.339 -344.285 739.603C-225.197 751.581 -88.5151 738.99 21.4531 653.243C132.117 572.601 219.867 453.23 331.2 382.626C386.983 348.541 449.26 331.855 508.979 336.31C568.819 340.202 624.656 362.086 674.412 388.847C774.006 443.767 853.63 512.985 921.013 564.128C987.858 616.559 1041.95 653.37 1075.94 672.942C1109.93 692.108 1150.65 714.947 1199.08 725.314C1247.49 735.368 1301.39 731.683 1355.96 721.861C1465.36 702.243 1579.14 658.289 1688.28 644.592C1742.57 637.745 1796.07 639.723 1841.76 657.026C1887.68 673.724 1923.18 705.911 1946.9 737.896C1994.04 803.462 2005.77 857.212 2007.06 856.012C2005.76 857.195 1994.22 803.42 1947.21 737.583C1923.56 705.451 1888.04 673.022 1842.02 656.104C1796.22 638.561 1742.55 636.389 1688.14 643.066C1578.76 656.404 1464.8 700.028 1355.61 719.296C1301.17 728.945 1247.49 732.469 1199.51 722.411C1151.63 712.09 1110.95 689.289 1077.12 670.199C1043.23 650.695 989.279 613.973 922.469 561.562C855.117 510.45 775.478 441.198 675.515 386.053C625.576 359.195 569.422 337.159 509.117 333.246C448.933 328.753 386.12 345.582 329.982 379.891C217.975 451.007 130.335 570.34 20.0491 650.64C-89.291 735.947 -225.27 748.449 -344.012 736.556C-464.418 722.335 -571.572 668.407 -650.342 599.722C-809.329 460.719 -876.626 310.546 -891.985 282.928C-954.178 164.165 -992.256 9.81632 -991.778 9.97691Z" fill="url(#paint20_linear_71_738)"/>
<path d="M-1039.65 11.4808C-1040.21 11.2145 -1003.79 169.848 -939.637 291.198C-923.82 319.328 -854.385 472.789 -690.448 613.198C-609.129 682.586 -498.417 735.837 -374.892 747.379C-253.271 757.412 -113.84 740.562 -4.12134 648.775C106.655 562.923 193.475 438.053 306.908 365.449C363.627 330.249 427.571 314.155 488.376 320.579C549.323 326.555 605.583 351.283 655.56 380.448C755.51 440.394 834.986 513.589 902.456 567.99C969.366 623.633 1023.66 662.921 1057.94 683.841C1092.18 704.364 1133.22 728.978 1182.53 740.422C1231.84 751.28 1286.92 747.505 1342.49 736.838C1453.94 715.424 1569.27 668.051 1680.27 651.163C1735.49 642.673 1790.1 643.15 1837.04 659.506C1884.16 675.291 1921 707.335 1945.43 739.767C1993.83 806.34 2005.79 861.243 2007.16 859.98C2005.78 861.231 1994.02 806.306 1945.73 739.438C1921.36 706.87 1884.52 674.568 1837.27 658.555C1790.22 641.963 1735.44 641.286 1680.09 649.604C1568.85 666.141 1453.33 713.159 1342.11 734.214C1286.67 744.721 1231.86 748.317 1183 737.468C1134.28 726.095 1093.28 701.519 1059.2 681.073C1025.04 660.22 970.882 621.038 904.008 565.424C836.56 511.057 757.075 437.807 656.762 377.646C606.609 348.371 550.032 323.478 488.591 317.439C427.282 310.968 362.748 327.218 305.655 362.664C191.477 435.817 104.783 560.653 -5.62488 646.159C-114.715 737.481 -253.393 754.2 -374.674 744.243C-497.715 732.739 -607.908 679.741 -688.881 610.658C-852.281 470.692 -921.547 317.654 -937.306 289.604C-1001.23 168.783 -1040.19 11.3202 -1039.65 11.4808Z" fill="url(#paint21_linear_71_738)"/>
</g>
</g>
<g opacity="0.2">
<mask id="mask1_71_738" style="mask-type:luminance" maskUnits="userSpaceOnUse" x="3" y="-16" width="1918" height="960">
<path d="M1920.01 -15.502H3.00586V943.865H1920.01V-15.502Z" fill="white"/>
</mask>
<g mask="url(#mask1_71_738)">
<path d="M2218.66 655.362C2218.91 655.573 2124.39 715.02 2035.56 740.86C2014.13 746.307 1908.5 786.077 1757.82 764.316C1683.08 753.323 1598.26 724.813 1515.38 671.608C1431.66 619.971 1353.86 539.431 1281.62 450.877C1208.91 362.839 1138.38 268.826 1060.08 194.24C982.274 120.221 895.179 65.6047 810.391 56.7591C724.677 47.2964 652.187 97.6695 606.999 150.19C560.456 202.942 533.211 254.782 516.474 285.11C447.458 405.047 378.68 652.615 253.065 801.976C222.239 838.707 188.169 867.737 153.98 884.82C119.852 902.253 86.2275 907.126 58.479 905.262C2.53952 900.698 -29.3251 878.366 -29.3828 879.723C-29.3155 878.362 2.46259 900.854 58.4629 905.672C86.2435 907.663 119.948 902.929 154.214 885.589C188.534 868.616 222.765 839.632 253.744 802.94C379.988 653.697 449.33 406.066 518.137 286.597C534.823 256.354 562.017 204.645 608.32 152.172C653.315 99.9179 725.165 49.9928 810.244 59.3752C894.429 68.1363 981.284 122.516 1058.88 196.345C1136.99 270.757 1207.48 364.691 1280.24 452.788C1352.51 541.392 1430.54 622.181 1514.48 673.958C1597.6 727.302 1682.65 755.897 1757.59 766.911C1908.68 788.735 2014.56 748.86 2036.04 743.4C2125.18 717.438 2218.96 655.531 2218.66 655.362Z" fill="url(#paint22_linear_71_738)"/>
<path d="M2218.66 619.878C2218.9 620.077 2126.2 680.398 2038.89 708.186C2017.77 714.107 1914.17 755.981 1764.97 739.774C1690.95 731.511 1606.57 706.635 1523.51 657.264C1439.74 609.317 1360.91 533.129 1287.55 448.481C1213.67 364.424 1141.93 274.299 1063.23 203.115C985.02 132.49 899.027 79.3359 815.345 70.0381C730.824 59.8232 658.584 107.039 612.886 157.552C565.993 208.255 537.918 258.336 520.774 287.73C450.268 403.991 374.552 643.448 249.966 789.394C219.24 825.25 185.682 854.006 151.926 870.983C118.247 888.171 85.1612 893.834 57.7205 892.262C2.42859 888.826 -29.2918 867.458 -29.3848 868.946C-29.2886 867.454 2.36126 888.983 57.7076 892.659C85.1805 894.358 118.35 888.831 152.154 871.735C186.035 854.868 219.752 826.172 250.633 790.354C375.815 644.555 452.079 405.094 522.38 289.256C539.473 259.934 567.494 209.979 614.149 159.542C659.651 109.288 731.25 62.49 815.182 72.6162C898.286 81.8295 984.074 134.772 1062.08 205.237C1140.6 276.251 1212.3 366.305 1286.22 450.425C1359.63 535.12 1438.69 611.548 1522.68 659.618C1605.95 709.12 1690.57 734.064 1764.79 742.347C1914.38 758.602 2018.22 716.618 2039.4 710.697C2127.01 682.782 2218.95 620.043 2218.66 619.878Z" fill="url(#paint23_linear_71_738)"/>
<path d="M2218.66 584.39C2218.89 584.589 2127.96 645.802 2042.13 675.471C2021.32 681.853 1919.69 725.683 1772.01 714.894C1698.71 709.311 1614.8 688.057 1531.56 642.7C1447.62 598.84 1368.12 526.384 1293.45 446.03C1218.4 366.077 1145.28 280.144 1066.23 212.299C987.5 145.385 902.908 92.8308 820.176 83.2836C736.824 72.3248 664.834 116.456 618.595 164.8C571.289 213.331 542.373 261.654 524.787 290.059C452.527 402.398 370.455 633.893 246.926 776.737C216.517 812.166 183.127 840.034 149.951 857.282C116.698 874.394 84.1155 880.514 56.9696 879.436C2.30285 877.09 -29.3181 856.724 -29.3887 858.182C-29.3117 856.724 2.23553 877.247 56.9632 879.833C84.1443 881.033 116.804 875.041 150.178 858.034C183.479 840.888 217.027 813.079 247.58 777.696C371.683 635.017 454.284 403.577 526.341 291.627C543.883 263.29 572.737 215.101 619.804 166.812C665.853 118.7 737.206 74.962 820.009 85.832C902.184 95.2904 986.6 147.65 1065.13 214.429C1144.02 282.126 1217.1 367.992 1292.2 448.008C1366.9 528.4 1446.64 601.088 1530.8 645.054C1614.28 690.542 1698.39 711.847 1771.87 717.446C1919.96 728.261 2021.81 684.329 2042.67 677.931C2128.79 648.144 2218.94 584.555 2218.66 584.39Z" fill="url(#paint24_linear_71_738)"/>
<path d="M2218.66 548.91C2218.88 549.101 2129.66 611.24 2045.28 642.793C2024.77 649.644 1925.1 695.461 1778.92 690.128C1706.36 687.233 1622.95 669.613 1539.55 628.259C1455.52 588.363 1375.08 520.214 1299.22 444.006C1223.02 368.152 1148.66 286.302 1069.34 221.58C990.228 157.975 906.717 106.524 824.984 96.3723C742.793 84.7584 670.938 125.407 624.115 171.579C576.363 217.933 546.614 264.46 528.557 291.842C454.319 400.027 366.406 623.745 244.028 763.935C213.85 798.853 180.754 826.138 148.079 843.58C115.233 860.641 83.1313 867.213 56.2644 866.634C2.19065 865.362 -29.3342 845.985 -29.3887 847.4C-29.331 845.985 2.12654 865.51 56.2579 867.027C83.1569 867.729 115.342 861.288 148.306 844.319C181.097 826.979 214.347 799.749 244.666 764.886C367.598 624.878 456.005 401.29 530.054 293.457C548.066 266.138 577.751 219.729 625.266 173.612C671.89 127.672 743.127 87.3618 824.798 98.8869C905.992 108.95 989.356 160.231 1068.28 223.714C1147.46 288.309 1221.78 370.096 1298.03 446.005C1373.92 522.264 1454.59 590.62 1538.84 630.621C1622.47 672.081 1706.1 689.743 1778.85 692.655C1925.4 697.988 2025.29 652.074 2045.85 645.202C2130.5 613.53 2218.92 549.067 2218.66 548.91Z" fill="url(#paint25_linear_71_738)"/>
<path d="M2218.66 513.426C2218.87 513.612 2131.31 576.702 2048.37 610.132C2028.16 617.465 1930.37 665.213 1785.72 665.34C1713.9 665.129 1631 651.148 1547.46 613.864C1463.38 577.983 1381.98 514.288 1304.96 442.31C1227.61 370.641 1152.04 292.894 1072.49 231.157C993.094 170.547 910.534 120.449 829.786 109.427C748.666 97.1876 676.999 134.159 629.6 178.256C581.21 222.074 550.717 266.966 532.137 293.224C495.021 346.412 450.792 424.412 403.284 509.01C355.49 593.125 302.048 683.082 241.249 751.019C181.796 821.104 109.103 856.064 55.5906 853.866C2.09073 853.655 -29.3475 835.249 -29.3828 836.631C-29.3443 835.249 2.02661 853.811 55.5906 854.264C109.158 856.702 182.148 821.962 241.874 751.97C302.939 684.151 356.638 594.262 404.592 510.269C452.257 425.773 496.541 347.954 533.57 294.898C552.111 268.69 582.537 223.913 630.693 180.319C677.884 136.437 748.954 99.7699 829.587 111.912C909.826 122.837 992.254 172.792 1071.49 233.295C1150.9 294.919 1226.42 372.623 1303.84 444.339C1380.9 516.376 1462.52 580.248 1546.83 616.226C1630.59 653.612 1713.7 667.622 1785.72 667.834C1930.72 667.715 2028.7 619.852 2048.96 612.507C2132.18 578.951 2218.91 513.578 2218.66 513.426Z" fill="url(#paint26_linear_71_738)"/>
<path d="M2218.66 477.943C2218.86 478.125 2132.93 542.195 2051.37 577.506C2031.44 585.316 1935.5 634.996 1792.4 640.549C1721.3 643.013 1638.98 632.676 1555.31 599.516C1471.19 567.701 1388.83 508.6 1310.64 440.916C1232.14 373.528 1155.42 299.864 1075.68 240.983C996.031 183.193 914.366 134.388 834.579 122.233C754.424 109.005 683.014 142.946 634.954 184.579C586.041 226.005 554.581 268.906 535.484 294.061C497.452 345.115 450.985 419.675 402.211 501.771C353.064 583.308 298.949 670.966 238.601 737.957C179.504 806.972 107.921 842.046 54.963 841.12C1.99847 841.961 -29.3629 824.511 -29.3789 825.851C-29.3565 824.515 1.94076 842.122 54.9662 841.513C107.982 842.676 179.854 807.817 239.227 738.895C299.824 672.039 354.186 584.471 403.486 503.064C452.409 421.091 498.914 346.721 536.872 295.764C555.921 270.669 587.314 227.878 635.993 186.659C683.847 145.224 754.667 111.558 834.371 124.689C913.676 136.746 995.223 185.42 1074.73 243.13C1154.35 301.918 1231.04 375.536 1309.59 442.974C1387.83 510.709 1470.4 569.979 1554.75 601.883C1638.64 635.127 1721.18 645.49 1792.44 643.017C1935.9 637.451 2032.03 587.661 2052 579.839C2133.8 544.405 2218.91 478.087 2218.66 477.943Z" fill="url(#paint27_linear_71_738)"/>
<path d="M2218.66 442.463C2218.85 442.632 2134.48 507.734 2054.27 544.913C2034.63 553.213 1940.48 604.808 1798.92 615.754C1728.58 620.893 1646.82 614.19 1563.07 585.21C1478.93 557.498 1395.64 503.161 1316.29 439.851C1236.69 376.795 1158.8 307.29 1078.87 251.182C999.047 196.041 918.248 148.022 839.327 135.098C760.149 120.615 688.925 151.543 640.173 190.526C590.677 229.441 558.296 270.348 538.674 294.357C499.571 343.074 451.059 414.282 401.073 493.944C350.743 573.093 295.884 658.439 236.098 724.758C177.248 792.632 106.87 828.188 54.37 828.399C1.91512 830.288 -29.3821 813.768 -29.3789 815.082C-29.3757 813.768 1.86703 830.441 54.386 828.78C106.937 828.813 177.597 793.473 236.71 725.684C296.74 659.504 351.839 574.26 402.304 495.266C452.425 415.74 500.965 344.735 539.991 296.111C559.569 272.148 591.882 231.352 641.144 192.626C689.694 153.825 760.341 123.138 839.096 137.52C917.565 150.347 998.259 198.247 1077.96 253.324C1157.78 309.356 1235.63 378.815 1315.31 441.939C1394.7 505.287 1478.23 559.793 1562.58 587.573C1646.54 616.624 1728.52 623.348 1799.03 618.196C1940.91 607.217 2035.26 555.516 2054.94 547.199C2135.37 509.898 2218.9 442.598 2218.66 442.463Z" fill="url(#paint28_linear_71_738)"/>
<path d="M2218.66 406.979C2218.84 407.143 2135.98 473.306 2057.09 512.365C2037.73 521.16 1945.32 574.657 1805.32 590.987C1735.7 598.784 1654.56 595.716 1570.75 570.967C1486.62 547.418 1402.42 497.966 1321.94 439.128C1162.13 321.527 1001.16 180.04 844.065 147.772C765.843 132.418 694.728 159.694 645.334 196.201C595.124 232.277 561.932 271.378 541.685 294.04C501.52 340.377 450.963 408.099 399.913 485.528C348.455 562.358 293.022 645.701 233.704 711.36C175.177 778.343 105.87 814.351 53.8255 815.707C1.84835 818.636 -29.404 803.028 -29.3848 804.317C-29.3976 803.028 1.79065 818.788 53.8416 816.079C105.944 814.959 175.517 779.167 234.31 712.281C293.859 646.766 349.522 563.533 401.108 486.872C452.278 409.607 502.844 342.109 542.935 295.844C563.134 273.234 596.258 234.229 646.235 198.331C695.43 161.994 765.981 134.92 843.815 150.177C1000.17 182.246 1161.17 323.552 1321.02 441.245C1401.55 500.13 1485.99 549.726 1570.34 573.342C1654.34 598.146 1735.7 601.231 1805.47 593.409C1945.81 577.04 2038.4 523.434 2057.79 514.622C2136.9 475.44 2218.88 407.11 2218.66 406.979Z" fill="url(#paint29_linear_71_738)"/>
<path d="M2218.66 371.504C2218.84 371.652 2137.42 438.947 2059.82 479.879C2040.73 489.185 1950.01 544.596 1811.54 566.268C1742.68 576.728 1662.15 577.278 1578.32 556.814C1494.25 537.436 1409.15 493.065 1327.6 438.719C1165.14 330.505 1003.84 195.221 848.778 160.253C771.363 143.627 700.505 167.679 650.396 201.468C599.58 234.788 565.301 271.539 544.579 293.072C503.264 336.831 450.877 401.236 398.8 476.514C346.221 551.037 290.4 632.739 231.46 697.748C173.296 764.063 104.947 800.51 53.3416 803.016C1.80044 806.993 -29.4102 792.286 -29.375 793.541C-29.4006 792.286 1.75235 807.141 53.3609 803.392C105.037 801.123 173.645 764.883 232.066 698.674C291.23 633.804 347.269 552.241 399.961 477.884C452.146 402.795 504.524 338.623 545.769 294.936C566.439 273.45 600.647 236.791 651.23 203.619C701.139 169.995 771.456 146.112 848.505 162.641C925.529 177.255 1004.48 224.53 1084.68 274.413C1164.85 325.387 1244.91 386.647 1326.76 440.866C1408.38 495.258 1493.7 539.757 1577.99 559.185C1662.02 579.703 1742.74 579.15 1811.76 568.669C1950.53 546.933 2041.44 491.425 2060.56 482.106C2138.37 441.039 2218.87 371.622 2218.66 371.504Z" fill="url(#paint30_linear_71_738)"/>
<path d="M2218.66 336.011C2218.82 336.168 2138.82 404.629 2062.45 447.454C2043.64 457.284 1954.52 514.597 1817.62 541.62C1749.49 554.734 1669.61 558.893 1585.81 542.753C1501.84 527.58 1415.87 488.466 1333.28 438.621C1250.46 389.068 1169.38 331.81 1088.94 283.132C1008.44 235.654 930.192 188.425 853.467 172.543C776.819 154.594 706.191 175.391 655.355 206.26C603.884 236.66 568.628 271.15 547.403 291.466C504.979 332.601 450.767 393.599 397.748 466.891C344.114 539.245 287.931 619.468 229.379 683.991C171.557 749.752 104.11 786.69 52.8986 790.337C1.7645 795.358 -29.4269 781.542 -29.3789 782.768C-29.4237 781.542 1.71962 795.506 52.921 790.713C104.196 787.294 171.907 750.555 229.975 684.908C288.745 620.533 345.133 540.454 398.87 468.294C451.985 395.2 506.155 334.456 548.516 293.376C569.695 273.099 604.868 238.701 656.115 208.441C706.755 177.711 776.87 157.045 853.166 174.905C929.519 190.682 1007.69 237.835 1088.16 285.291C1168.51 333.936 1249.6 391.19 1332.51 440.794C1415.16 490.689 1501.35 529.909 1585.54 545.124C1669.55 561.298 1749.61 557.126 1817.89 543.987C1955.09 516.9 2044.35 459.474 2063.21 449.643C2139.78 406.687 2218.87 336.134 2218.66 336.011Z" fill="url(#paint31_linear_71_738)"/>
<path d="M2218.66 300.532C2218.83 300.676 2140.16 370.384 2065.01 415.115C2046.44 425.452 1958.88 484.705 1823.52 517.057C1756.15 532.817 1676.93 540.572 1593.2 528.798C1509.36 517.898 1422.61 484.113 1339.02 438.867C1255.18 394 1173.1 340.707 1092.51 294.231C1011.66 249.267 934.209 201.865 858.147 184.626C782.23 165.362 711.811 182.868 660.244 210.588C608.154 238.025 571.936 270.179 550.17 289.167C506.591 327.525 450.803 385.383 396.809 456.689C342.162 526.98 285.639 605.881 227.475 670.078C169.974 735.391 103.36 772.887 52.5107 777.684C1.75172 783.744 -29.4429 770.804 -29.3788 772C-29.4365 770.795 1.70684 783.892 52.5396 778.047C103.452 773.491 170.323 736.186 228.071 670.983C286.443 606.942 343.168 528.206 397.902 458.117C451.989 387.014 507.704 329.435 551.212 291.124C572.933 272.178 609.065 240.113 660.93 212.794C712.298 185.213 782.233 167.805 857.83 186.971C933.539 204.109 1010.95 251.452 1091.76 296.403C1172.32 342.85 1254.39 396.156 1338.32 441.069C1422 486.357 1508.94 520.227 1593.01 531.165C1676.95 542.964 1756.34 535.192 1823.85 519.399C1959.5 486.979 2047.21 427.621 2065.8 417.262C2141.14 372.404 2218.86 300.642 2218.66 300.532Z" fill="url(#paint32_linear_71_738)"/>
<path d="M2218.66 265.053C2218.82 265.188 2141.45 336.194 2067.45 382.869C2049.16 393.73 1963.08 454.94 1829.28 492.609C1762.64 511.04 1684.1 522.324 1600.49 514.987C1516.79 508.423 1429.39 479.934 1344.82 439.442C1260.02 399.33 1176.99 349.946 1096.18 305.549C1015.13 262.517 938.232 215.373 862.844 196.477C787.6 175.832 717.366 189.96 665.097 214.418C612.412 238.807 575.248 268.544 552.946 286.159C508.23 321.647 450.985 376.475 396.017 445.896C340.402 514.243 283.545 591.99 225.756 655.972C168.544 720.963 102.702 759.101 52.1806 765.027C1.75819 772.148 -29.4589 760.052 -29.3788 761.227C-29.4525 760.052 1.71652 772.292 52.2159 765.394C102.805 759.697 168.897 721.749 226.346 656.88C284.34 593.051 341.386 515.481 397.078 447.349C452.123 378.14 509.265 323.608 553.908 288.17C576.158 270.593 613.232 240.946 665.703 216.657C717.776 192.31 787.542 178.257 862.485 198.797C937.549 217.6 1014.42 264.685 1095.47 307.721C1176.25 352.11 1259.3 401.498 1344.2 441.665C1428.86 482.199 1516.47 510.769 1600.37 517.341C1684.18 524.695 1762.89 513.385 1829.66 494.916C1963.75 457.167 2049.93 395.852 2068.28 384.974C2142.45 338.18 2218.84 265.163 2218.66 265.053Z" fill="url(#paint33_linear_71_738)"/>
<path d="M2218.66 229.572C2218.81 229.695 2142.69 302.074 2069.82 350.706C2051.77 362.104 1967.14 425.304 1834.88 468.294C1768.97 489.417 1691.14 504.129 1607.69 501.301C1524.2 499.116 1436.22 476.024 1350.73 440.345C1265.02 405.022 1181.04 359.526 1100 317.073C1018.71 275.85 942.271 228.832 867.489 208.343C792.937 185.961 722.848 196.599 669.935 217.747C616.669 238.997 578.588 266.239 555.77 282.451C509.99 315.053 451.335 366.926 395.424 434.564C338.828 501.018 281.67 577.805 224.214 641.686C167.265 706.458 102.141 745.314 51.9082 752.355C1.78069 760.546 -29.4717 749.291 -29.3787 750.449C-29.4685 749.296 1.74222 760.694 51.9434 752.727C102.25 745.898 167.621 707.24 224.804 642.586C282.465 578.875 339.796 502.273 396.457 436.043C452.438 368.634 510.964 317.065 556.665 284.514C579.428 268.327 617.412 241.165 670.46 219.999C723.178 198.953 792.828 188.366 867.104 210.651C941.585 231.039 1018 278.014 1099.31 319.254C1180.35 361.703 1264.36 407.22 1350.17 442.59C1435.77 478.31 1523.94 501.466 1607.64 503.655C1691.29 506.495 1769.27 491.746 1835.31 470.572C1967.84 427.506 2052.59 364.2 2070.68 352.785C2143.71 304.027 2218.84 229.665 2218.66 229.572Z" fill="url(#paint34_linear_71_738)"/>
<path d="M2218.66 194.084C2218.8 194.207 2143.88 268.031 2072.1 318.666C2054.29 330.61 1971.06 395.851 1840.32 444.145C1775.15 467.977 1698.03 486.099 1614.8 487.807C1531.55 489.996 1443.1 472.381 1356.74 441.563C1270.19 411.087 1185.26 369.437 1103.95 328.814C1022.38 289.378 946.394 242.048 872.166 219.919C798.22 196.138 728.307 202.515 674.833 220.722C620.971 238.477 582.028 263.315 558.732 278.119C511.939 307.78 451.944 356.83 395.059 422.696C337.481 487.359 280.003 563.326 222.865 627.228C166.146 691.894 101.683 731.532 51.6966 739.706C1.82881 748.97 -29.4812 738.561 -29.3787 739.681C-29.478 738.548 1.79355 749.114 51.7415 740.069C101.798 732.107 166.506 692.655 223.458 628.124C280.798 564.391 338.437 488.622 396.069 424.201C453.012 358.563 512.843 309.838 559.55 280.224C582.791 265.462 621.631 240.696 675.279 223.009C728.561 204.878 798.066 198.526 871.756 222.206C945.698 244.237 1021.67 291.534 1103.29 331.007C1184.63 371.635 1269.6 413.314 1356.26 443.832C1442.74 474.697 1531.39 492.35 1614.83 490.156C1698.25 488.445 1775.53 470.284 1840.8 446.397C1971.79 398.023 2055.15 332.681 2072.99 320.72C2144.92 269.946 2218.83 194.181 2218.66 194.084Z" fill="url(#paint35_linear_71_738)"/>
<path d="M2218.66 158.604C2218.79 158.719 2145.01 234.061 2074.31 286.733C2056.73 299.234 1974.83 366.551 1845.61 420.157C1781.2 446.702 1704.79 468.214 1621.85 474.465C1538.9 481.007 1450.08 468.949 1362.9 443.055C1275.58 417.452 1189.7 379.635 1108.06 340.745C1026.16 302.924 950.526 255.361 876.855 231.288C803.464 205.622 733.804 208.449 679.776 223.246C625.417 237.585 585.611 259.735 561.889 273.234C514.163 299.965 452.774 346.049 394.94 410.314C336.365 473.235 278.57 548.556 221.697 612.563C165.175 677.221 101.311 717.721 51.5422 727.036C1.88912 737.395 -29.5043 727.801 -29.3825 728.904C-29.4979 727.797 1.86348 737.538 51.5871 727.399C101.439 718.3 165.537 677.986 222.287 613.454C279.355 549.616 337.311 474.498 395.924 411.835C453.803 347.82 514.999 302.066 562.63 275.381C586.291 261.916 625.987 239.834 680.131 225.545C733.968 210.82 803.256 207.993 876.403 233.562C949.814 257.538 1025.45 305.088 1107.44 342.955C1189.1 381.854 1275.05 419.717 1362.49 445.35C1449.79 471.282 1538.81 483.365 1621.94 476.81C1705.07 470.543 1781.61 448.993 1846.16 422.397C1975.61 368.697 2057.62 301.271 2075.22 288.757C2146.1 235.958 2218.82 158.689 2218.66 158.604Z" fill="url(#paint36_linear_71_738)"/>
<path d="M2218.66 123.121C2218.79 123.231 2146.12 200.183 2076.44 254.935C2059.11 268.003 1978.49 337.47 1850.78 396.389C1787.08 425.537 1711.44 450.629 1628.81 461.283C1546.23 472.284 1457.12 465.746 1369.22 444.809C1281.2 424.13 1194.36 390.129 1112.34 352.879C1030.04 316.639 954.733 268.527 881.601 242.391C808.72 214.76 739.323 213.969 684.81 225.292C630.015 236.14 589.421 255.619 565.279 267.774C516.694 291.594 453.916 334.706 395.111 397.42C335.517 458.659 277.379 533.506 220.728 597.704C164.362 662.455 101.059 703.902 51.4603 714.362C1.98677 725.828 -29.5092 717.05 -29.3746 718.136C-29.506 717.041 1.96112 725.984 51.5052 714.717C101.184 704.472 164.73 663.211 221.317 598.587C278.167 534.567 336.447 459.944 396.063 398.967C454.913 336.519 517.46 293.741 565.943 269.964C590.021 257.834 630.493 238.419 685.086 227.612C739.409 216.34 808.463 217.118 881.111 244.648C954.002 270.686 1029.34 318.798 1111.75 355.085C1193.81 392.361 1280.74 426.404 1368.9 447.121C1456.93 468.083 1546.23 474.634 1629 463.612C1711.79 452.936 1787.58 427.79 1851.39 398.603C1979.32 339.579 2060.04 270.006 2077.4 256.925C2147.22 202.047 2218.82 123.206 2218.66 123.121Z" fill="url(#paint37_linear_71_738)"/>
<path d="M2218.66 87.6367C2218.78 87.7381 2147.18 166.385 2078.5 223.275C2061.4 236.918 1982.02 308.6 1855.83 372.843C1792.86 404.591 1717.97 433.267 1635.73 448.304C1553.56 463.671 1464.28 462.817 1375.72 446.808C1287.06 431.056 1199.25 400.881 1116.81 365.185C1033.9 330.919 959.066 281.357 886.393 253.256C813.999 223.668 744.871 219.209 689.958 226.906C634.797 234.23 593.476 251.008 568.93 261.815C519.543 282.726 455.4 322.863 395.575 384.068C334.946 443.714 276.407 518.164 219.932 582.645C163.682 647.59 100.882 690.056 51.4212 701.666C2.09838 714.26 -29.529 706.285 -29.3784 707.367C-29.5226 706.285 2.07273 714.416 51.4757 702.02C101.02 690.626 164.057 648.347 220.525 583.532C277.189 519.217 335.869 445.007 396.499 385.641C456.352 324.706 520.245 284.907 569.513 264.029C593.982 253.256 635.176 236.537 690.137 229.238C744.868 221.585 813.678 226.01 885.858 255.505C958.32 283.508 1033.19 333.087 1116.23 367.417C1198.75 403.142 1286.66 433.36 1375.47 449.141C1464.17 465.171 1553.63 466.02 1635.98 450.624C1718.4 435.557 1793.4 406.831 1856.48 375.028C1982.88 310.683 2062.36 238.904 2079.49 225.245C2148.32 168.223 2218.81 87.7128 2218.66 87.6367Z" fill="url(#paint38_linear_71_738)"/>
<path d="M2218.66 52.1572C2218.78 52.2544 2148.21 132.681 2080.5 191.751C2063.62 205.981 1985.46 279.946 1860.78 349.527C1798.51 383.883 1724.42 416.112 1642.61 435.532C1560.89 455.197 1471.56 460.091 1382.43 449.006C1293.19 438.195 1204.4 411.865 1121.45 377.666C1038.01 344.895 963.381 294.374 891.233 263.949C819.329 232.138 750.477 224.07 695.253 228.093C639.804 231.943 597.819 246.004 572.885 255.387C522.758 273.412 457.262 310.565 396.36 370.278C334.65 428.339 275.672 502.536 219.325 567.38C163.152 632.625 100.811 676.177 51.4399 688.953C2.23561 702.71 -29.5457 695.537 -29.3822 696.603C-29.5393 695.537 2.20355 702.862 51.4976 689.316C100.952 676.747 163.53 633.373 219.918 568.271C276.454 503.596 335.561 429.658 397.261 371.876C458.169 312.45 523.395 275.639 573.391 257.644C598.248 248.295 640.096 234.285 695.343 230.443C750.384 226.445 818.958 234.467 890.653 266.185C962.611 296.517 1037.28 347.068 1120.9 379.918C1203.95 414.156 1292.85 440.515 1382.24 451.351C1471.54 462.458 1561.04 457.564 1642.93 437.852C1724.9 418.399 1799.12 386.11 1861.49 351.695C1986.36 282.008 2064.63 207.942 2081.54 193.687C2149.37 134.485 2218.8 52.2248 2218.66 52.1572Z" fill="url(#paint39_linear_71_738)"/>
<path d="M2218.66 16.6729C2218.78 16.7701 2149.2 99.0432 2082.46 160.375C2065.79 175.176 1988.81 251.553 1865.65 326.456C1804.09 363.436 1730.81 399.211 1649.48 422.975C1568.24 446.955 1479 457.538 1389.33 451.355C1299.61 445.51 1209.83 423.03 1126.31 390.272C1042.22 359.049 967.809 307.222 896.149 274.443C824.736 240.303 756.185 228.499 700.73 228.925C645.073 229.297 602.485 240.632 577.182 248.586C526.365 263.725 459.543 297.89 397.49 356.082C334.636 412.574 275.17 486.627 218.901 551.907C162.759 617.532 100.832 662.251 51.5215 676.21C2.39422 691.138 -29.5538 684.768 -29.3742 685.821C-29.5506 684.76 2.36857 691.294 51.5889 676.565C100.982 662.813 163.141 618.276 219.497 552.79C275.952 487.693 335.546 413.91 398.368 357.709C460.408 299.813 526.943 265.982 577.615 250.873C602.825 242.944 645.268 231.647 700.736 231.271C756.012 230.853 824.306 242.61 895.534 276.649C967.005 309.335 1041.5 361.221 1125.78 392.525C1209.42 425.334 1299.35 447.847 1389.23 453.705C1479.07 459.9 1568.48 449.297 1649.87 425.27C1731.37 401.455 1804.76 365.629 1866.41 328.59C1989.77 253.573 2066.84 177.098 2083.53 162.277C2150.4 100.827 2218.8 16.7447 2218.66 16.6729Z" fill="url(#paint40_linear_71_738)"/>
<path d="M2218.66 -18.8066C2218.78 -18.7052 2150.15 65.4867 2084.38 129.151C2067.91 144.506 1992.13 223.427 1870.44 303.621C1749.82 384.03 1577.75 458.062 1396.47 453.823C1306.34 452.948 1215.56 434.365 1131.4 403.006C1046.57 373.342 972.326 319.981 901.176 284.738C830.17 248.417 762.039 232.615 706.404 229.534C650.602 226.411 607.473 234.969 581.831 241.495C530.379 253.751 462.226 284.865 398.962 341.518C334.912 396.443 274.891 470.458 218.644 536.236C162.49 602.335 100.944 648.296 51.6595 663.451C2.57387 679.575 -29.5697 674.013 -29.3741 675.048C-29.5665 674.009 2.55464 679.735 51.73 663.806C101.104 648.858 162.884 603.07 219.25 537.128C275.683 471.523 335.816 397.791 399.818 343.175C463.05 286.838 530.902 256.041 582.183 243.811C607.736 237.306 650.708 228.778 706.317 231.897C761.77 234.969 829.682 250.708 900.506 286.931C971.493 322.094 1045.85 375.527 1130.88 405.284C1215.19 436.69 1306.15 455.311 1396.46 456.186C1578.09 460.433 1750.47 386.253 1871.27 305.734C1993.14 225.426 2069 146.399 2085.49 131.024C2151.39 67.249 2218.8 -18.7306 2218.66 -18.8066Z" fill="url(#paint41_linear_71_738)"/>
<path d="M2218.66 -54.2949C2218.79 -54.1808 2151.1 32.0397 2086.3 98.1177C2070.01 114.03 1995.47 195.69 1875.25 281.179C1756.08 366.656 1585.88 450.138 1403.87 456.503C1313.39 460.547 1221.59 445.869 1136.71 415.88C1051.04 387.842 976.981 332.579 906.334 294.746C835.725 256.134 768.088 236.152 712.331 229.728C656.45 223.186 612.852 229.048 586.892 234.153C534.87 243.591 465.371 271.526 400.824 326.62C335.498 379.931 274.856 454.005 218.574 520.362C162.362 587.01 101.146 634.286 51.8488 650.658C2.77597 668.016 -29.5855 663.248 -29.374 664.28C-29.5823 663.248 2.75994 668.176 51.9225 651.013C101.313 634.852 162.763 587.737 219.18 521.245C275.645 455.083 336.393 381.3 401.651 328.315C466.15 273.547 535.326 245.919 587.165 236.503C613.032 231.419 656.466 225.578 712.158 232.104C767.739 238.502 835.174 258.417 905.625 296.935C976.112 334.676 1050.32 390.049 1136.23 418.174C1221.28 448.223 1313.27 462.944 1403.93 458.886C1586.31 452.5 1756.8 368.862 1876.12 283.271C1996.51 197.659 2071.13 115.906 2087.45 99.9773C2152.36 33.764 2218.81 -54.2062 2218.66 -54.2949Z" fill="url(#paint42_linear_71_738)"/>
<path d="M2218.66 -89.7744C2218.81 -89.6307 2152.05 -1.28443 2088.14 67.1349C2072.09 83.7358 1998.6 167.868 1879.89 258.687C1762.09 349.045 1594.09 442.577 1411.43 459.068C1320.68 467.973 1227.86 457.403 1142.18 428.859C1055.55 402.617 981.719 344.95 911.575 304.517C841.374 263.463 774.262 239.449 718.445 229.712C662.56 219.797 618.549 222.975 592.294 226.669C539.743 233.262 468.952 258.032 403.03 311.457C336.355 363.098 275.026 437.311 218.654 504.298C162.34 571.568 101.425 620.225 52.083 637.832C2.99731 656.448 -29.6014 652.484 -29.3738 653.507C-29.5918 652.484 2.98449 656.605 52.1631 638.195C101.601 620.795 162.75 572.303 219.266 505.185C275.815 438.393 337.246 364.484 403.835 313.181C469.673 260.094 540.141 235.616 592.493 229.048C618.642 225.367 662.48 222.202 718.192 232.083C773.823 241.782 840.752 265.728 910.816 306.693C980.802 347.021 1054.81 404.832 1141.71 431.17C1227.59 459.782 1320.62 470.378 1411.57 461.46C1594.61 444.923 1762.87 351.222 1880.81 260.754C1999.69 169.804 2073.26 85.5869 2089.32 68.9606C2153.35 0.427177 2218.83 -89.6561 2218.66 -89.7744Z" fill="url(#paint43_linear_71_738)"/>
</g>
</g>
<defs>
<linearGradient id="paint0_linear_71_738" x1="1995.78" y1="341.261" x2="-25.4908" y2="384.207" gradientUnits="userSpaceOnUse">
<stop stop-color="#600F25"/>
<stop offset="0.3333" stop-color="#DC1F26"/>
<stop offset="0.6848" stop-color="#F78C1E"/>
<stop offset="1" stop-color="#FDBA12"/>
</linearGradient>
<linearGradient id="paint1_linear_71_738" x1="1995.84" y1="343.092" x2="-73.4649" y2="387.059" gradientUnits="userSpaceOnUse">
<stop stop-color="#600F25"/>
<stop offset="0.3333" stop-color="#DC1F26"/>
<stop offset="0.6848" stop-color="#F78C1E"/>
<stop offset="1" stop-color="#FDBA12"/>
</linearGradient>
<linearGradient id="paint2_linear_71_738" x1="1995.89" y1="344.918" x2="-121.184" y2="389.899" gradientUnits="userSpaceOnUse">
<stop stop-color="#600F25"/>
<stop offset="0.3333" stop-color="#DC1F26"/>
<stop offset="0.6848" stop-color="#F78C1E"/>
<stop offset="1" stop-color="#FDBA12"/>
</linearGradient>
<linearGradient id="paint3_linear_71_738" x1="1995.95" y1="346.839" x2="-169.008" y2="392.838" gradientUnits="userSpaceOnUse">
<stop stop-color="#600F25"/>
<stop offset="0.3333" stop-color="#DC1F26"/>
<stop offset="0.6848" stop-color="#F78C1E"/>
<stop offset="1" stop-color="#FDBA12"/>
</linearGradient>
<linearGradient id="paint4_linear_71_738" x1="1996.01" y1="348.583" x2="-216.918" y2="395.601" gradientUnits="userSpaceOnUse">
<stop stop-color="#600F25"/>
<stop offset="0.3333" stop-color="#DC1F26"/>
<stop offset="0.6848" stop-color="#F78C1E"/>
<stop offset="1" stop-color="#FDBA12"/>
</linearGradient>
<linearGradient id="paint5_linear_71_738" x1="1996.06" y1="350.483" x2="-264.749" y2="398.518" gradientUnits="userSpaceOnUse">
<stop stop-color="#600F25"/>
<stop offset="0.3333" stop-color="#DC1F26"/>
<stop offset="0.6848" stop-color="#F78C1E"/>
<stop offset="1" stop-color="#FDBA12"/>
</linearGradient>
<linearGradient id="paint6_linear_71_738" x1="1996.12" y1="352.239" x2="-312.628" y2="401.293" gradientUnits="userSpaceOnUse">
<stop stop-color="#600F25"/>
<stop offset="0.3333" stop-color="#DC1F26"/>
<stop offset="0.6848" stop-color="#F78C1E"/>
<stop offset="1" stop-color="#FDBA12"/>
</linearGradient>
<linearGradient id="paint7_linear_71_738" x1="1996.17" y1="354.081" x2="-360.539" y2="404.154" gradientUnits="userSpaceOnUse">
<stop stop-color="#600F25"/>
<stop offset="0.3333" stop-color="#DC1F26"/>
<stop offset="0.6848" stop-color="#F78C1E"/>
<stop offset="1" stop-color="#FDBA12"/>
</linearGradient>
<linearGradient id="paint8_linear_71_738" x1="1996.23" y1="355.897" x2="-408.354" y2="406.987" gradientUnits="userSpaceOnUse">
<stop stop-color="#600F25"/>
<stop offset="0.3333" stop-color="#DC1F26"/>
<stop offset="0.6848" stop-color="#F78C1E"/>
<stop offset="1" stop-color="#FDBA12"/>
</linearGradient>
<linearGradient id="paint9_linear_71_738" x1="1996.29" y1="357.727" x2="-456.221" y2="409.835" gradientUnits="userSpaceOnUse">
<stop stop-color="#600F25"/>
<stop offset="0.3333" stop-color="#DC1F26"/>
<stop offset="0.6848" stop-color="#F78C1E"/>
<stop offset="1" stop-color="#FDBA12"/>
</linearGradient>
<linearGradient id="paint10_linear_71_738" x1="1996.34" y1="359.558" x2="-504.082" y2="412.684" gradientUnits="userSpaceOnUse">
<stop stop-color="#600F25"/>
<stop offset="0.3333" stop-color="#DC1F26"/>
<stop offset="0.6848" stop-color="#F78C1E"/>
<stop offset="1" stop-color="#FDBA12"/>
</linearGradient>
<linearGradient id="paint11_linear_71_738" x1="1996.39" y1="361.379" x2="-552.048" y2="415.526" gradientUnits="userSpaceOnUse">
<stop stop-color="#600F25"/>
<stop offset="0.3333" stop-color="#DC1F26"/>
<stop offset="0.6848" stop-color="#F78C1E"/>
<stop offset="1" stop-color="#FDBA12"/>
</linearGradient>
<linearGradient id="paint12_linear_71_738" x1="1996.45" y1="363.295" x2="-599.778" y2="418.457" gradientUnits="userSpaceOnUse">
<stop stop-color="#600F25"/>
<stop offset="0.3333" stop-color="#DC1F26"/>
<stop offset="0.6848" stop-color="#F78C1E"/>
<stop offset="1" stop-color="#FDBA12"/>
</linearGradient>
<linearGradient id="paint13_linear_71_738" x1="1996.51" y1="365.073" x2="-647.803" y2="421.256" gradientUnits="userSpaceOnUse">
<stop stop-color="#600F25"/>
<stop offset="0.3333" stop-color="#DC1F26"/>
<stop offset="0.6848" stop-color="#F78C1E"/>
<stop offset="1" stop-color="#FDBA12"/>
</linearGradient>
<linearGradient id="paint14_linear_71_738" x1="1996.57" y1="366.978" x2="-695.48" y2="424.175" gradientUnits="userSpaceOnUse">
<stop stop-color="#600F25"/>
<stop offset="0.3333" stop-color="#DC1F26"/>
<stop offset="0.6848" stop-color="#F78C1E"/>
<stop offset="1" stop-color="#FDBA12"/>
</linearGradient>
<linearGradient id="paint15_linear_71_738" x1="1996.62" y1="368.721" x2="-743.371" y2="426.938" gradientUnits="userSpaceOnUse">
<stop stop-color="#600F25"/>
<stop offset="0.3333" stop-color="#DC1F26"/>
<stop offset="0.6848" stop-color="#F78C1E"/>
<stop offset="1" stop-color="#FDBA12"/>
</linearGradient>
<linearGradient id="paint16_linear_71_738" x1="1996.68" y1="370.58" x2="-791.211" y2="429.813" gradientUnits="userSpaceOnUse">
<stop stop-color="#600F25"/>
<stop offset="0.3333" stop-color="#DC1F26"/>
<stop offset="0.6848" stop-color="#F78C1E"/>
<stop offset="1" stop-color="#FDBA12"/>
</linearGradient>
<linearGradient id="paint17_linear_71_738" x1="1996.73" y1="372.436" x2="-839.073" y2="432.688" gradientUnits="userSpaceOnUse">
<stop stop-color="#600F25"/>
<stop offset="0.3333" stop-color="#DC1F26"/>
<stop offset="0.6848" stop-color="#F78C1E"/>
<stop offset="1" stop-color="#FDBA12"/>
</linearGradient>
<linearGradient id="paint18_linear_71_738" x1="1996.79" y1="374.295" x2="-886.912" y2="435.565" gradientUnits="userSpaceOnUse">
<stop stop-color="#600F25"/>
<stop offset="0.3333" stop-color="#DC1F26"/>
<stop offset="0.6848" stop-color="#F78C1E"/>
<stop offset="1" stop-color="#FDBA12"/>
</linearGradient>
<linearGradient id="paint19_linear_71_738" x1="1996.84" y1="376.151" x2="-934.773" y2="438.438" gradientUnits="userSpaceOnUse">
<stop stop-color="#600F25"/>
<stop offset="0.3333" stop-color="#DC1F26"/>
<stop offset="0.6848" stop-color="#F78C1E"/>
<stop offset="1" stop-color="#FDBA12"/>
</linearGradient>
<linearGradient id="paint20_linear_71_738" x1="1996.9" y1="378.004" x2="-982.619" y2="441.309" gradientUnits="userSpaceOnUse">
<stop stop-color="#600F25"/>
<stop offset="0.3333" stop-color="#DC1F26"/>
<stop offset="0.6848" stop-color="#F78C1E"/>
<stop offset="1" stop-color="#FDBA12"/>
</linearGradient>
<linearGradient id="paint21_linear_71_738" x1="1996.96" y1="379.858" x2="-1030.46" y2="444.181" gradientUnits="userSpaceOnUse">
<stop stop-color="#600F25"/>
<stop offset="0.3333" stop-color="#DC1F26"/>
<stop offset="0.6848" stop-color="#F78C1E"/>
<stop offset="1" stop-color="#FDBA12"/>
</linearGradient>
<linearGradient id="paint22_linear_71_738" x1="-29.3854" y1="480.847" x2="2218.66" y2="480.847" gradientUnits="userSpaceOnUse">
<stop stop-color="#600F25"/>
<stop offset="0.3333" stop-color="#DC1F26"/>
<stop offset="0.6848" stop-color="#F78C1E"/>
<stop offset="1" stop-color="#FDBA12"/>
</linearGradient>
<linearGradient id="paint23_linear_71_738" x1="-29.3841" y1="480.793" x2="2218.66" y2="480.793" gradientUnits="userSpaceOnUse">
<stop stop-color="#600F25"/>
<stop offset="0.3333" stop-color="#DC1F26"/>
<stop offset="0.6848" stop-color="#F78C1E"/>
<stop offset="1" stop-color="#FDBA12"/>
</linearGradient>
<linearGradient id="paint24_linear_71_738" x1="-29.3848" y1="480.784" x2="2218.66" y2="480.784" gradientUnits="userSpaceOnUse">
<stop stop-color="#600F25"/>
<stop offset="0.3333" stop-color="#DC1F26"/>
<stop offset="0.6848" stop-color="#F78C1E"/>
<stop offset="1" stop-color="#FDBA12"/>
</linearGradient>
<linearGradient id="paint25_linear_71_738" x1="-29.3848" y1="480.726" x2="2218.66" y2="480.726" gradientUnits="userSpaceOnUse">
<stop stop-color="#600F25"/>
<stop offset="0.3333" stop-color="#DC1F26"/>
<stop offset="0.6848" stop-color="#F78C1E"/>
<stop offset="1" stop-color="#FDBA12"/>
</linearGradient>
<linearGradient id="paint26_linear_71_738" x1="-29.3835" y1="480.722" x2="2218.66" y2="480.722" gradientUnits="userSpaceOnUse">
<stop stop-color="#600F25"/>
<stop offset="0.3333" stop-color="#DC1F26"/>
<stop offset="0.6848" stop-color="#F78C1E"/>
<stop offset="1" stop-color="#FDBA12"/>
</linearGradient>
<linearGradient id="paint27_linear_71_738" x1="-29.3828" y1="480.438" x2="2218.66" y2="480.438" gradientUnits="userSpaceOnUse">
<stop stop-color="#600F25"/>
<stop offset="0.3333" stop-color="#DC1F26"/>
<stop offset="0.6848" stop-color="#F78C1E"/>
<stop offset="1" stop-color="#FDBA12"/>
</linearGradient>
<linearGradient id="paint28_linear_71_738" x1="-29.3828" y1="480.18" x2="2218.66" y2="480.18" gradientUnits="userSpaceOnUse">
<stop stop-color="#600F25"/>
<stop offset="0.3333" stop-color="#DC1F26"/>
<stop offset="0.6848" stop-color="#F78C1E"/>
<stop offset="1" stop-color="#FDBA12"/>
</linearGradient>
<linearGradient id="paint29_linear_71_738" x1="-29.3822" y1="479.899" x2="2218.66" y2="479.899" gradientUnits="userSpaceOnUse">
<stop stop-color="#600F25"/>
<stop offset="0.3333" stop-color="#DC1F26"/>
<stop offset="0.6848" stop-color="#F78C1E"/>
<stop offset="1" stop-color="#FDBA12"/>
</linearGradient>
<linearGradient id="paint30_linear_71_738" x1="-29.382" y1="479.429" x2="2218.66" y2="479.429" gradientUnits="userSpaceOnUse">
<stop stop-color="#600F25"/>
<stop offset="0.3333" stop-color="#DC1F26"/>
<stop offset="0.6848" stop-color="#F78C1E"/>
<stop offset="1" stop-color="#FDBA12"/>
</linearGradient>
<linearGradient id="paint31_linear_71_738" x1="-29.3808" y1="478.809" x2="2218.66" y2="478.809" gradientUnits="userSpaceOnUse">
<stop stop-color="#600F25"/>
<stop offset="0.3333" stop-color="#DC1F26"/>
<stop offset="0.6848" stop-color="#F78C1E"/>
<stop offset="1" stop-color="#FDBA12"/>
</linearGradient>
<linearGradient id="paint32_linear_71_738" x1="-29.3807" y1="478.027" x2="2218.66" y2="478.027" gradientUnits="userSpaceOnUse">
<stop stop-color="#600F25"/>
<stop offset="0.3333" stop-color="#DC1F26"/>
<stop offset="0.6848" stop-color="#F78C1E"/>
<stop offset="1" stop-color="#FDBA12"/>
</linearGradient>
<linearGradient id="paint33_linear_71_738" x1="-29.3807" y1="477.016" x2="2218.66" y2="477.016" gradientUnits="userSpaceOnUse">
<stop stop-color="#600F25"/>
<stop offset="0.3333" stop-color="#DC1F26"/>
<stop offset="0.6848" stop-color="#F78C1E"/>
<stop offset="1" stop-color="#FDBA12"/>
</linearGradient>
<linearGradient id="paint34_linear_71_738" x1="-29.3809" y1="475.739" x2="2218.66" y2="475.739" gradientUnits="userSpaceOnUse">
<stop stop-color="#600F25"/>
<stop offset="0.3333" stop-color="#DC1F26"/>
<stop offset="0.6848" stop-color="#F78C1E"/>
<stop offset="1" stop-color="#FDBA12"/>
</linearGradient>
<linearGradient id="paint35_linear_71_738" x1="-29.3809" y1="468.923" x2="2218.66" y2="468.923" gradientUnits="userSpaceOnUse">
<stop stop-color="#600F25"/>
<stop offset="0.3333" stop-color="#DC1F26"/>
<stop offset="0.6848" stop-color="#F78C1E"/>
<stop offset="1" stop-color="#FDBA12"/>
</linearGradient>
<linearGradient id="paint36_linear_71_738" x1="-29.3815" y1="445.333" x2="2218.66" y2="445.333" gradientUnits="userSpaceOnUse">
<stop stop-color="#600F25"/>
<stop offset="0.3333" stop-color="#DC1F26"/>
<stop offset="0.6848" stop-color="#F78C1E"/>
<stop offset="1" stop-color="#FDBA12"/>
</linearGradient>
<linearGradient id="paint37_linear_71_738" x1="-29.38" y1="421.797" x2="2218.66" y2="421.797" gradientUnits="userSpaceOnUse">
<stop stop-color="#600F25"/>
<stop offset="0.3333" stop-color="#DC1F26"/>
<stop offset="0.6848" stop-color="#F78C1E"/>
<stop offset="1" stop-color="#FDBA12"/>
</linearGradient>
<linearGradient id="paint38_linear_71_738" x1="-29.3809" y1="398.314" x2="2218.66" y2="398.314" gradientUnits="userSpaceOnUse">
<stop stop-color="#600F25"/>
<stop offset="0.3333" stop-color="#DC1F26"/>
<stop offset="0.6848" stop-color="#F78C1E"/>
<stop offset="1" stop-color="#FDBA12"/>
</linearGradient>
<linearGradient id="paint39_linear_71_738" x1="-29.3815" y1="374.893" x2="2218.66" y2="374.893" gradientUnits="userSpaceOnUse">
<stop stop-color="#600F25"/>
<stop offset="0.3333" stop-color="#DC1F26"/>
<stop offset="0.6848" stop-color="#F78C1E"/>
<stop offset="1" stop-color="#FDBA12"/>
</linearGradient>
<linearGradient id="paint40_linear_71_738" x1="-29.3742" y1="351.523" x2="2218.66" y2="351.523" gradientUnits="userSpaceOnUse">
<stop stop-color="#600F25"/>
<stop offset="0.3333" stop-color="#DC1F26"/>
<stop offset="0.6848" stop-color="#F78C1E"/>
<stop offset="1" stop-color="#FDBA12"/>
</linearGradient>
<linearGradient id="paint41_linear_71_738" x1="-29.3744" y1="328.214" x2="2218.66" y2="328.214" gradientUnits="userSpaceOnUse">
<stop stop-color="#600F25"/>
<stop offset="0.3333" stop-color="#DC1F26"/>
<stop offset="0.6848" stop-color="#F78C1E"/>
<stop offset="1" stop-color="#FDBA12"/>
</linearGradient>
<linearGradient id="paint42_linear_71_738" x1="-29.3743" y1="304.989" x2="2218.66" y2="304.989" gradientUnits="userSpaceOnUse">
<stop stop-color="#600F25"/>
<stop offset="0.3333" stop-color="#DC1F26"/>
<stop offset="0.6848" stop-color="#F78C1E"/>
<stop offset="1" stop-color="#FDBA12"/>
</linearGradient>
<linearGradient id="paint43_linear_71_738" x1="-29.3745" y1="281.864" x2="2218.66" y2="281.864" gradientUnits="userSpaceOnUse">
<stop stop-color="#600F25"/>
<stop offset="0.3333" stop-color="#DC1F26"/>
<stop offset="0.6848" stop-color="#F78C1E"/>
<stop offset="1" stop-color="#FDBA12"/>
</linearGradient>
</defs>
</svg>
