<svg width="100" height="100" viewBox="0 0 100 100" fill="none" xmlns="http://www.w3.org/2000/svg">
<path d="M58.3388 74.3801C58.1074 74.3801 57.8761 74.2727 57.7315 74.0661C57.4918 73.7314 57.5703 73.2687 57.905 73.0291C68.5391 65.4642 85.7381 50.2023 81.4166 32.9448C80.1814 27.1689 75.6616 20.765 68.3243 19.4305C67.8699 19.3272 58.0124 17.1499 50.5676 26.231C50.4272 26.4046 50.2165 26.5037 49.9934 26.5037C49.7703 26.5037 49.5596 26.4046 49.4191 26.231C41.9785 17.1499 32.1169 19.3231 31.6996 19.4222C24.3293 20.765 19.8095 27.1689 18.5825 32.92C17.2687 38.1671 17.8471 43.6083 20.2929 49.1198C20.4582 49.4958 20.2929 49.9337 19.9128 50.099C19.5369 50.2643 19.0989 50.099 18.9296 49.7189C16.3474 43.8975 15.7401 38.1299 17.1324 32.5812C18.4586 26.3715 23.3873 19.4222 31.3939 17.9638C31.4642 17.9473 42.0074 15.584 49.9934 24.6115C57.9835 15.584 68.5226 17.9473 68.63 17.9721C76.6036 19.4222 81.5365 26.3715 82.8668 32.606C87.3947 50.6939 69.7124 66.4558 58.7684 74.2396C58.6362 74.3305 58.4875 74.376 58.3388 74.376V74.3801Z" fill="#FFBC5E"/>
<path d="M75.4305 45.4753C75.352 45.4753 75.2735 45.4629 75.1909 45.4339C74.8026 45.3017 74.5919 44.8803 74.7241 44.4919C75.8891 41.0297 76.0792 37.6625 75.2818 34.4812L75.2281 34.254C74.6827 31.7007 73.1996 29.2176 71.2578 27.598C70.9438 27.3336 70.8984 26.8668 71.1628 26.5528C71.4272 26.2388 71.8941 26.1933 72.208 26.4577C74.3977 28.2798 76.0668 31.0768 76.6782 33.9317L76.7236 34.1342C77.5871 37.584 77.3888 41.2322 76.1287 44.9712C76.0254 45.2811 75.7321 45.4794 75.4223 45.4794L75.4305 45.4753Z" fill="#FFBC5E"/>
<path d="M23.1715 61.9074C22.9815 61.9074 22.7914 61.833 22.6468 61.6884L20.8332 59.8747C19.1806 58.222 19.1806 55.5324 20.8332 53.8798L26.0387 48.674C26.8361 47.8725 27.9019 47.4346 29.0339 47.4346C30.1659 47.4346 31.2318 47.8766 32.0292 48.674L33.8429 50.4878C34.1321 50.777 34.1321 51.248 33.8429 51.5413C33.5537 51.8305 33.0827 51.8305 32.7894 51.5413L30.9757 49.7276C30.4551 49.207 29.7652 48.9219 29.0298 48.9219C28.2944 48.9219 27.6045 49.207 27.0839 49.7276L21.8784 54.9333C20.8042 56.0075 20.8042 57.7511 21.8784 58.8253L23.6921 60.639C23.9813 60.9282 23.9813 61.3992 23.6921 61.6925C23.5475 61.8372 23.3574 61.9115 23.1674 61.9115L23.1715 61.9074Z" fill="#FFBC5E"/>
<path d="M44.9204 82.2098C43.7884 82.2098 42.7225 81.7678 41.9251 80.9704L40.1114 79.1566C39.8222 78.8674 39.8222 78.3964 40.1114 78.1031C40.4006 77.8139 40.8716 77.8139 41.1649 78.1031L42.9786 79.9168C43.4992 80.4374 44.1891 80.7225 44.9245 80.7225C45.6599 80.7225 46.3498 80.4374 46.8662 79.9168L52.0718 74.7111C53.1459 73.6369 53.1459 71.8934 52.0718 70.8192L50.2581 69.0054C49.9689 68.7162 49.9689 68.2452 50.2581 67.9519C50.5473 67.6585 51.0183 67.6626 51.3116 67.9519L53.1253 69.7656C54.7778 71.4182 54.7778 74.1079 53.1253 75.7605L47.9197 80.9662C47.1224 81.7678 46.0565 82.2057 44.9245 82.2057L44.9204 82.2098Z" fill="#FFBC5E"/>
<path d="M29.0344 82.3211C27.9768 82.3211 26.9852 81.908 26.2374 81.1602L20.6394 75.5619C19.8917 74.8141 19.4785 73.8225 19.4785 72.7649C19.4785 71.7072 19.8917 70.7156 20.6394 69.9678L42.1267 48.4796C43.6719 46.9385 46.1796 46.9344 47.7247 48.4796L53.3228 54.0779C54.0705 54.8257 54.4837 55.8172 54.4837 56.8749C54.4837 57.9326 54.0705 58.9242 53.3228 59.672L31.8355 81.1602C31.0877 81.908 30.0962 82.3211 29.0385 82.3211H29.0344ZM44.9195 48.8101C44.2874 48.8101 43.6553 49.0498 43.172 49.5332L21.6847 71.0213C21.2178 71.4882 20.9617 72.1079 20.9617 72.769C20.9617 73.43 21.2178 74.0498 21.6847 74.5166L27.2827 80.1149C27.7495 80.5818 28.3692 80.8379 29.0303 80.8379C29.6913 80.8379 30.311 80.5818 30.7778 80.1149L52.2651 58.6267C52.732 58.1598 52.9881 57.5401 52.9881 56.8791C52.9881 56.218 52.732 55.5983 52.2651 55.1314L46.6671 49.5332C46.1837 49.0498 45.5516 48.8101 44.9195 48.8101Z" fill="#FFBC5E"/>
<path d="M33.2181 66.1996C33.0281 66.1996 32.8381 66.1252 32.6935 65.9806C32.4043 65.6914 32.4043 65.2204 32.6935 64.9271L37.0851 60.5353C37.3743 60.2461 37.8453 60.2461 38.1386 60.5353C38.4278 60.8245 38.4278 61.2955 38.1386 61.5888L33.747 65.9806C33.6024 66.1252 33.4123 66.1996 33.2223 66.1996H33.2181Z" fill="#FFBC5E"/>
<path d="M36.3431 69.3236C36.1531 69.3236 35.9631 69.2493 35.8185 69.1047C35.5293 68.8155 35.5293 68.3445 35.8185 68.0511L40.2101 63.6593C40.4993 63.3701 40.9703 63.3701 41.2636 63.6593C41.5569 63.9485 41.5528 64.4195 41.2636 64.7128L36.872 69.1047C36.7274 69.2493 36.5373 69.3236 36.3473 69.3236H36.3431Z" fill="#FFBC5E"/>
</svg>
