<svg width="41" height="35" viewBox="0 0 41 35" fill="none" xmlns="http://www.w3.org/2000/svg">
<path d="M0.974609 2.85844C0.974609 2.21119 1.23173 1.59045 1.68941 1.13277C2.14709 0.67509 2.76783 0.417969 3.41509 0.417969H37.5818C38.229 0.417969 38.8498 0.67509 39.3074 1.13277C39.7651 1.59045 40.0222 2.21119 40.0222 2.85844C40.0222 3.5057 39.7651 4.12644 39.3074 4.58412C38.8498 5.0418 38.229 5.29892 37.5818 5.29892H3.41509C2.76783 5.29892 2.14709 5.0418 1.68941 4.58412C1.23173 4.12644 0.974609 3.5057 0.974609 2.85844ZM0.974609 17.5013C0.974609 16.854 1.23173 16.2333 1.68941 15.7756C2.14709 15.3179 2.76783 15.0608 3.41509 15.0608H37.5818C38.229 15.0608 38.8498 15.3179 39.3074 15.7756C39.7651 16.2333 40.0222 16.854 40.0222 17.5013C40.0222 18.1486 39.7651 18.7693 39.3074 19.227C38.8498 19.6847 38.229 19.9418 37.5818 19.9418H3.41509C2.76783 19.9418 2.14709 19.6847 1.68941 19.227C1.23173 18.7693 0.974609 18.1486 0.974609 17.5013ZM3.41509 29.7037C2.76783 29.7037 2.14709 29.9608 1.68941 30.4185C1.23173 30.8762 0.974609 31.4969 0.974609 32.1442C0.974609 32.7914 1.23173 33.4122 1.68941 33.8698C2.14709 34.3275 2.76783 34.5846 3.41509 34.5846H37.5818C38.229 34.5846 38.8498 34.3275 39.3074 33.8698C39.7651 33.4122 40.0222 32.7914 40.0222 32.1442C40.0222 31.4969 39.7651 30.8762 39.3074 30.4185C38.8498 29.9608 38.229 29.7037 37.5818 29.7037H3.41509Z" fill="white"/>
</svg>
