<svg width="54" height="54" viewBox="0 0 54 54" fill="none" xmlns="http://www.w3.org/2000/svg">
<path d="M39.1901 31.3073L32.4401 27.9323C32.3072 27.8661 32.1593 27.8362 32.0111 27.8454C31.863 27.8547 31.7199 27.9028 31.5963 27.9851L28.0863 30.3265C26.1569 29.4012 24.6009 27.8452 23.6756 25.9158L26.017 22.4058C26.0993 22.2822 26.1475 22.1391 26.1567 21.991C26.166 21.8428 26.136 21.6949 26.0698 21.562L22.6948 14.812C22.6248 14.6711 22.5168 14.5526 22.3829 14.4699C22.2491 14.3871 22.0948 14.3434 21.9375 14.3438C19.9235 14.3438 17.992 15.1438 16.5679 16.5679C15.1438 17.992 14.3438 19.9235 14.3438 21.9375C14.3488 26.6353 16.2172 31.1392 19.539 34.461C22.8608 37.7828 27.3648 39.6512 32.0625 39.6562C34.0765 39.6562 36.008 38.8562 37.4321 37.4321C38.8562 36.008 39.6563 34.0765 39.6563 32.0625C39.6564 31.9057 39.6128 31.7521 39.5305 31.6187C39.4481 31.4853 39.3303 31.3775 39.1901 31.3073ZM32.0625 37.9688C27.8121 37.9643 23.7371 36.2738 20.7316 33.2684C17.7262 30.2629 16.0357 26.1879 16.0313 21.9375C16.031 20.4593 16.5851 19.0347 17.5841 17.9451C18.5831 16.8555 19.9543 16.1801 21.427 16.0523L24.338 21.8763L22.0177 25.3652C21.9403 25.4803 21.8926 25.6127 21.8786 25.7507C21.8646 25.8887 21.8848 26.028 21.9375 26.1562C23.0585 28.8213 25.1787 30.9415 27.8438 32.0625C27.9722 32.1158 28.1118 32.1366 28.2501 32.123C28.3885 32.1094 28.5214 32.0618 28.6369 31.9845L32.1258 29.6641L37.9498 32.5751C37.8215 34.0478 37.1456 35.4188 36.0556 36.4174C34.9656 37.416 33.5408 37.9696 32.0625 37.9688ZM27 5.90625C23.3278 5.90557 19.719 6.86359 16.5306 8.68554C13.3422 10.5075 10.6847 13.1303 8.82093 16.2944C6.95718 19.4585 5.95176 23.0544 5.90412 26.7264C5.85648 30.3983 6.76827 34.019 8.54931 37.2305L6.03915 44.7588C5.89042 45.2048 5.86883 45.6834 5.97682 46.141C6.0848 46.5986 6.31809 47.017 6.65053 47.3495C6.98298 47.6819 7.40143 47.9152 7.85901 48.0232C8.31658 48.1312 8.79519 48.1096 9.24119 47.9609L16.7695 45.4507C19.5857 47.0111 22.7216 47.9062 25.9371 48.0673C29.1526 48.2285 32.3623 47.6514 35.3204 46.3804C38.2784 45.1094 40.9062 43.1782 43.0025 40.7346C45.0988 38.2911 46.608 35.4001 47.4144 32.2832C48.2207 29.1663 48.3029 25.9061 47.6546 22.7525C47.0063 19.599 45.6448 16.6356 43.6743 14.0895C41.7037 11.5435 39.1766 9.48226 36.2863 8.06382C33.3961 6.64537 30.2195 5.90733 27 5.90625ZM27 46.4062C23.588 46.4073 20.2361 45.5087 17.2821 43.8012C17.1538 43.7273 17.0084 43.688 16.8602 43.6873C16.7691 43.6875 16.6787 43.7024 16.5924 43.7316L8.70751 46.3598C8.55885 46.4094 8.39931 46.4166 8.24679 46.3806C8.09426 46.3446 7.95478 46.2669 7.84396 46.1561C7.73315 46.0452 7.65539 45.9058 7.61939 45.7532C7.5834 45.6007 7.59059 45.4412 7.64017 45.2925L10.2685 37.4077C10.3064 37.2943 10.3198 37.1742 10.3078 37.0553C10.2958 36.9364 10.2586 36.8214 10.1988 36.7179C8.05931 33.0196 7.20006 28.7186 7.75439 24.4822C8.30872 20.2457 10.2456 16.3106 13.2647 13.2874C16.2837 10.2641 20.2161 8.32162 24.4518 7.76134C28.6874 7.20105 32.9896 8.05425 36.6909 10.1886C40.3922 12.3229 43.2856 15.6191 44.9224 19.5657C46.5592 23.5123 46.8477 27.8888 45.7434 32.0161C44.639 36.1435 42.2034 39.791 38.8144 42.3929C35.4255 44.9948 31.2726 46.4055 27 46.4062Z" fill="white"/>
</svg>
