<svg width="36" height="36" viewBox="0 0 36 36" fill="none" xmlns="http://www.w3.org/2000/svg">
<path d="M32.9183 4.14742C32.595 3.87904 32.205 3.70329 31.7898 3.63884C31.3746 3.57439 30.9497 3.62367 30.5603 3.78142L3.68477 14.6309C3.25047 14.8094 2.88073 15.1157 2.62462 15.5093C2.36851 15.9028 2.23815 16.3649 2.25085 16.8343C2.26354 17.3037 2.41869 17.7581 2.69569 18.1372C2.9727 18.5163 3.35846 18.8022 3.80177 18.9569L9.60077 20.9699L12.7433 31.3589C12.7493 31.3799 12.7688 31.3934 12.7778 31.4129C12.8106 31.4956 12.8578 31.5718 12.9173 31.6379C13.0087 31.7389 13.1259 31.813 13.2563 31.8524C13.2713 31.8584 13.2818 31.8719 13.2968 31.8749H13.3058L13.3103 31.8764C13.4263 31.9013 13.5469 31.895 13.6598 31.8584L13.6973 31.8509C13.8055 31.8127 13.9035 31.75 13.9838 31.6679C13.9928 31.6574 14.0078 31.6559 14.0168 31.6469L18.5363 26.6579L25.1318 31.7654C25.5323 32.0789 26.0258 32.2484 26.5343 32.2484C27.6353 32.2484 28.5848 31.4774 28.8113 30.4019L33.7043 6.37492C33.7878 5.96703 33.7587 5.54411 33.6203 5.15146C33.4818 4.75881 33.2391 4.41122 32.9183 4.14592M14.3828 22.9424L13.3223 28.0979L11.1098 20.7809L22.0823 15.0659L14.5868 22.5629C14.4831 22.6667 14.4122 22.7987 14.3828 22.9424ZM27.3413 30.1004C27.3131 30.2364 27.2504 30.3629 27.1593 30.4677C27.0681 30.5726 26.9516 30.6522 26.8208 30.6989C26.693 30.7473 26.555 30.7619 26.4199 30.7415C26.2849 30.721 26.1574 30.666 26.0498 30.5819L18.9053 25.0484C18.7559 24.9331 18.5686 24.8784 18.3807 24.895C18.1927 24.9117 18.018 24.9986 17.8913 25.1384L14.7458 28.6049L15.8048 23.4644L26.5883 12.6794C26.7146 12.5527 26.7914 12.3851 26.8049 12.2067C26.8184 12.0283 26.7678 11.851 26.662 11.7067C26.5563 11.5624 26.4025 11.4606 26.2283 11.4198C26.0542 11.3789 25.8711 11.4017 25.7123 11.4839L10.1678 19.5809L4.29227 17.5379C4.13696 17.4857 4.00158 17.3868 3.90465 17.2547C3.80772 17.1226 3.75397 16.9637 3.75077 16.7999C3.74284 16.6343 3.78688 16.4704 3.87671 16.3311C3.96654 16.1918 4.09767 16.084 4.25177 16.0229L31.1228 5.17342C31.2606 5.11561 31.4117 5.09705 31.5595 5.11982C31.7072 5.14259 31.8457 5.20579 31.9598 5.30242C32.0732 5.39357 32.1589 5.51464 32.2072 5.65196C32.2554 5.78927 32.2643 5.93734 32.2328 6.07942L27.3413 30.1004Z" fill="white"/>
</svg>
