<svg width="354" height="565" viewBox="0 0 354 565" fill="none" xmlns="http://www.w3.org/2000/svg">
<g opacity="0.2">
<mask id="mask0_216_5087" style="mask-type:luminance" maskUnits="userSpaceOnUse" x="-390" y="0" width="1154" height="564">
<path d="M-389.003 0.303711H763.18V563.46H-389.003V0.303711Z" fill="white"/>
</mask>
<g mask="url(#mask0_216_5087)">
<path d="M-409.477 -1.10542C-409.542 -1.1724 -394.805 62.2509 -372.748 113.863C-366.937 126.064 -343.829 189.916 -286.64 259.954C-258.101 294.611 -220.523 329.584 -175.193 356.931C-129.98 384.386 -77.3995 403.955 -22.8924 413.303C85.8271 431.371 202.814 416.759 284.586 364.356C326.165 340.812 362.201 317.227 392.923 300.878C423.492 284.162 448.395 274.32 463.711 269.383C494.11 258.758 537.466 251.561 584.01 257.515C630.451 262.789 679.329 282.42 717.189 313.171C755.477 343.487 781.545 383.243 796.094 413.98C810.784 444.909 815.814 466.285 816.082 466.123C815.812 466.285 810.853 444.887 796.248 413.889C781.782 383.074 755.802 343.164 717.509 312.657C679.654 281.701 630.679 261.851 584.108 256.451C537.448 250.358 493.895 257.505 463.396 268.158C448.033 273.117 423.053 282.988 392.441 299.737C361.673 316.108 325.618 339.696 284.093 363.22C202.494 415.516 85.8368 430.061 -22.7305 412.048C-77.122 402.717 -129.573 383.203 -174.674 355.812C-219.881 328.542 -257.364 293.664 -285.829 259.088C-342.876 189.234 -365.944 125.513 -371.738 113.334C-393.739 61.8589 -409.533 -1.15007 -409.477 -1.10542Z" fill="url(#paint0_linear_216_5087)"/>
<path d="M-438.329 -0.249912C-438.35 -0.336742 -423.489 63.8953 -400.923 115.974C-394.995 128.276 -371.354 192.747 -313.043 263.074C-283.963 297.873 -245.637 332.888 -199.314 359.52C-153.154 386.299 -99.5251 404.776 -44.1066 411.772C11.3311 419.081 68.0251 415.533 121.511 406.694C175.425 399.656 225.175 380.431 268.208 359.287C311.367 338.205 349.179 317.333 381.101 303.036C412.905 288.426 438.566 280.19 454.241 276.004C485.462 267.138 529.284 261.506 576.375 266.463C623.35 271.08 673.416 288.071 712.963 317.127C752.94 345.657 780.446 385.071 795.505 415.94C810.734 446.991 815.859 468.631 816.148 468.452C815.858 468.631 810.808 446.968 795.66 415.843C780.685 384.892 753.258 345.312 713.265 316.581C673.709 287.327 623.545 270.13 576.458 265.379C529.264 260.29 485.293 265.853 453.976 274.746C438.257 278.942 412.534 287.203 380.679 301.838C348.713 316.147 310.878 337.036 267.765 358.101C224.745 379.228 175.194 398.383 121.349 405.419C67.9172 414.248 11.335 417.778 -43.9853 410.49C-99.2727 403.516 -152.765 385.076 -198.804 358.362C-245.001 331.806 -283.225 296.891 -312.228 262.183C-370.392 192.039 -393.989 127.701 -399.902 115.42C-422.41 63.4984 -438.344 -0.314415 -438.329 -0.249912Z" fill="url(#paint1_linear_216_5087)"/>
<path d="M-467.03 0.59873C-467.057 0.506938 -452.083 65.59 -429.039 118.221C-423.016 130.643 -398.84 195.853 -339.29 266.523C-309.609 301.471 -270.475 336.58 -223.112 362.48C-175.977 388.611 -121.244 406.096 -64.9145 410.661C-8.55389 415.637 48.5793 408.684 102.468 398.152C156.777 389.472 207.486 372.346 252.053 353.623C296.707 335.044 336.213 317.05 369.291 305.001C402.286 292.656 428.634 286.02 444.672 282.661C476.685 275.679 520.998 271.35 568.709 275.382C616.282 279.341 667.483 293.733 708.696 321.022C750.342 347.721 779.329 386.79 794.905 417.836C810.683 449.045 815.899 470.976 816.203 470.78C815.897 470.976 810.754 449.03 795.059 417.734C779.564 386.611 750.65 347.359 708.981 320.464C667.743 292.969 616.45 278.371 568.779 274.283C520.976 270.127 476.565 274.382 444.46 281.386C428.384 284.747 401.974 291.391 368.934 303.765C335.812 315.827 296.283 333.838 251.662 352.395C207.103 371.111 156.555 388.192 102.275 396.865C48.4156 407.396 -8.6059 414.328 -64.8356 409.366C-121.023 404.809 -175.607 387.373 -222.619 361.309C-269.851 335.488 -308.867 300.473 -338.477 265.63C-397.87 195.133 -421.999 130.063 -428.022 117.663C-450.99 65.188 -467.052 0.534227 -467.03 0.59873Z" fill="url(#paint2_linear_216_5087)"/>
<path d="M-495.79 1.55674C-495.824 1.46494 -480.646 67.3667 -457.061 120.586C-450.918 133.154 -426.069 199.071 -365.341 270.289C-334.983 305.423 -294.861 340.371 -246.514 365.753C-198.369 391.328 -142.445 407.605 -85.2503 409.89C-27.9706 412.475 29.5133 401.988 83.8239 389.71C138.52 378.976 190.247 363.887 236.242 347.565C282.313 331.504 323.434 316.743 357.577 306.983C391.671 296.991 418.672 292.034 435.059 289.555C499.46 280.143 617.246 273.192 704.408 324.883C747.69 349.674 778.203 388.406 794.301 419.662C810.63 451.082 815.942 473.328 816.266 473.12C815.94 473.328 810.705 451.062 794.459 419.56C778.44 388.219 747.99 349.297 704.67 324.302C661.79 298.63 609.412 286.588 561.099 283.18C512.613 279.781 467.734 283.259 434.899 288.248C418.479 290.729 391.426 295.7 357.292 305.706C323.104 315.478 281.955 330.257 235.901 346.303C189.904 362.627 138.302 377.681 83.6061 388.413C29.2936 400.701 -28.0728 411.15 -85.2118 408.58C-142.251 406.297 -198.018 390.063 -246.028 364.562C-294.242 339.247 -334.247 304.403 -364.512 269.371C-425.092 198.336 -449.893 132.564 -456.022 120.021C-479.54 66.9598 -495.819 1.49968 -495.79 1.55674Z" fill="url(#paint3_linear_216_5087)"/>
<path d="M-524.603 2.30772C-524.649 2.21097 -509.201 69.2167 -485.059 123.096C-478.782 135.806 -453.332 202.615 -391.181 274.277C-360.228 309.754 -319.019 344.526 -269.622 369.359C-220.382 394.242 -163.247 409.413 -105.183 409.309C-46.9981 409.552 10.7498 395.396 65.5093 381.314C120.648 368.637 173.371 354.955 220.725 341.196C315.331 313.001 391.681 298.617 425.264 296.407C458.695 293.239 504.144 290.86 553.268 293.286C602.219 295.923 655.537 305.259 700.012 328.78C744.931 351.561 777.052 389.911 793.681 421.425C810.581 453.081 815.983 475.677 816.33 475.451C815.983 475.677 810.654 453.064 793.839 421.313C777.293 389.715 745.224 351.164 700.256 328.177C655.739 304.447 602.328 294.928 553.316 292.15C504.117 289.607 458.654 291.897 425.152 295.075C391.523 297.285 315.044 311.704 220.439 339.899C173.063 353.665 120.436 367.317 65.255 380.012C10.4762 394.098 -47.1599 408.219 -105.181 407.974C-163.078 408.08 -220.057 392.947 -269.146 368.136C-318.403 343.375 -359.488 308.707 -390.355 273.332C-452.341 201.856 -477.745 135.193 -484.001 122.506C-508.078 68.8048 -524.642 2.24322 -524.603 2.30772Z" fill="url(#paint4_linear_216_5087)"/>
<path d="M-553.37 3.24814C-553.42 3.15387 -537.747 71.1594 -513.004 125.748C-506.582 138.602 -480.498 206.386 -416.823 278.535C-385.173 314.319 -342.9 349.056 -292.353 373.257C-241.938 397.304 -183.583 411.564 -124.637 408.912C-65.5557 406.724 -7.64398 388.864 47.5953 372.949C103.201 358.203 156.997 345.754 205.624 334.535C302.952 311.96 381.335 304.457 415.408 303.311C449.476 301.972 495.617 300.694 545.522 302.168C595.247 304.1 649.576 310.985 695.621 332.573C742.125 353.336 775.891 391.295 793.042 423.127C810.528 455.053 816.015 478.034 816.385 477.783C816.013 478.034 810.599 455.039 793.199 423.011C776.132 391.087 742.406 352.916 695.847 331.948C649.75 310.149 595.324 303.083 545.552 301.019C495.581 299.426 449.478 300.612 415.348 301.957C381.239 303.105 302.756 310.617 205.389 333.201C156.721 344.434 102.979 356.868 47.2986 371.629C-7.97156 387.552 -65.7792 405.374 -124.689 407.552C-183.446 410.194 -241.632 395.977 -291.902 372.009C-342.295 347.873 -384.431 313.247 -415.995 277.57C-479.498 205.61 -505.532 137.979 -511.94 125.145C-536.608 70.7301 -553.415 3.18364 -553.37 3.24814Z" fill="url(#paint5_linear_216_5087)"/>
<path d="M-582.164 4.01381C-582.22 3.90217 -566.269 73.1704 -540.886 128.516C-534.316 141.538 -507.548 210.355 -442.27 283.047C-409.859 319.121 -366.494 353.855 -314.73 377.391C-263.094 400.578 -203.452 413.88 -143.645 408.633C-83.6966 403.887 -25.7002 382.336 30.0342 364.558C86.1097 347.646 141.12 336.536 190.931 327.799C290.807 310.959 370.853 310.388 405.455 310.267C440.123 310.723 487.017 310.522 537.746 311.026C588.302 312.219 643.62 316.719 691.197 336.328C739.236 355.029 774.724 392.549 792.373 424.778C810.494 456.985 816.047 480.389 816.449 480.114C816.045 480.389 810.571 456.965 792.533 424.654C774.969 392.339 739.511 354.595 691.401 335.686C643.76 315.858 588.354 311.189 537.762 309.865C486.971 309.232 440.163 309.349 405.446 308.885C370.822 309.014 290.709 309.584 190.75 326.437C140.881 335.189 85.8882 346.289 29.7125 363.231C-26.0836 381.033 -83.9683 402.532 -143.743 407.258C-203.339 412.493 -262.805 399.233 -314.287 376.109C-365.893 352.65 -409.113 318.027 -441.426 282.062C-506.54 209.563 -533.252 140.903 -539.807 127.906C-565.113 72.7337 -582.212 3.93938 -582.164 4.01381Z" fill="url(#paint6_linear_216_5087)"/>
<path d="M-610.976 4.88782C-611.037 4.77866 -594.784 75.2551 -568.719 131.414C-561.995 144.61 -534.492 214.526 -467.523 287.793C-434.303 324.183 -389.78 358.91 -336.739 381.721C-283.848 404.037 -222.85 416.324 -162.21 408.418C-101.428 400.983 -43.4003 375.886 12.785 355.99C69.4288 337.17 125.658 326.912 176.613 320.799C278.866 309.806 360.216 316.353 395.389 317.221C430.621 319.514 478.329 320.357 529.932 319.863C581.366 320.3 637.652 322.443 686.723 340.06C736.264 356.667 773.523 393.701 791.686 426.374C810.452 458.891 816.07 482.75 816.512 482.442C816.072 482.75 810.533 458.869 791.846 426.253C773.773 393.486 736.527 356.208 686.908 339.393C637.767 321.563 581.395 319.248 529.936 318.683C478.28 319.045 430.702 318.112 395.437 315.82C360.259 314.954 278.872 308.397 176.487 319.397C125.452 325.527 69.1977 335.783 12.4324 354.648C-43.8357 374.574 -101.761 399.618 -162.349 407.029C-222.759 414.905 -283.578 402.66 -336.311 380.409C-389.181 357.664 -433.557 323.059 -466.673 286.774C-533.462 213.702 -560.908 143.953 -567.619 130.777C-593.614 74.8135 -611.028 4.81092 -610.976 4.88782Z" fill="url(#paint7_linear_216_5087)"/>
<path d="M-639.735 5.72086C-639.799 5.59929 -623.298 77.4129 -596.501 134.423C-589.617 147.81 -561.329 218.872 -492.587 292.762C-458.517 329.481 -412.759 364.184 -358.398 386.231C-304.217 407.651 -241.802 418.837 -180.351 408.214C-118.769 398.047 -60.8402 369.252 -4.11932 347.42C53.0679 326.529 110.654 317.196 162.677 313.723C267.131 308.686 349.433 322.319 385.22 324.187C403.127 325.728 424.158 327.891 447.363 328.734C470.563 329.454 495.818 328.911 522.085 328.695C574.44 328.335 631.682 328.171 682.208 343.778C733.209 358.252 772.29 394.765 790.976 427.914C810.403 460.773 816.091 485.118 816.57 484.776C816.089 485.108 810.484 460.754 791.139 427.785C772.539 394.539 733.459 357.775 682.368 343.084C631.762 327.273 574.442 327.261 522.072 327.487C495.807 327.638 470.542 328.124 447.392 327.362C424.256 326.487 403.216 324.299 385.317 322.758C349.539 320.897 267.237 307.258 162.614 312.299C110.482 315.777 52.8309 325.122 -4.51038 346.066C-61.3315 367.935 -119.166 396.67 -180.544 406.792C-241.737 417.388 -303.976 406.234 -357.984 384.879C-412.166 362.906 -457.767 328.32 -491.734 291.722C-560.292 218.028 -588.515 147.133 -595.39 133.771C-622.098 76.9614 -639.795 5.64147 -639.735 5.72086Z" fill="url(#paint8_linear_216_5087)"/>
<path d="M-668.52 6.57732C-668.582 6.44831 -651.779 79.6413 -624.228 137.542C-617.173 151.135 -588.06 223.392 -517.472 297.93C-482.498 334.984 -435.436 369.647 -379.713 390.873C-324.196 411.373 -260.314 421.383 -198.1 407.956C-135.753 394.986 -78.0068 362.485 -20.7155 338.758C37.0421 315.827 96.0674 307.122 149.122 306.628C202.319 306.179 249.737 312.897 288.295 318.41C326.866 324.143 356.769 328.794 374.944 331.176C393.115 333.548 414.477 336.557 438.106 337.733C461.731 338.812 487.461 338.155 514.202 337.52C567.522 336.346 625.706 333.915 677.648 347.485C730.069 359.815 771.014 395.741 790.252 429.411C810.352 462.637 816.113 487.481 816.633 487.111C816.111 487.481 810.435 462.617 790.416 429.282C771.27 395.515 730.313 359.307 677.789 346.778C625.756 332.995 567.493 335.25 514.173 336.287C487.438 336.857 461.708 337.45 438.15 336.339C414.609 335.136 393.25 332.099 375.088 329.737C356.925 327.348 327.036 322.704 288.451 316.966C249.88 311.456 202.413 304.723 149.101 305.174C95.9325 305.673 36.7838 314.391 -21.1413 337.381C-78.5578 361.165 -136.205 393.612 -198.337 406.522C-260.283 419.902 -323.982 409.931 -379.318 389.494C-434.856 368.337 -481.751 333.803 -516.613 296.866C-587.008 222.532 -616.065 150.44 -623.101 136.877C-650.567 79.1748 -668.578 6.48305 -668.52 6.57732Z" fill="url(#paint9_linear_216_5087)"/>
<path d="M-697.304 7.4289C-697.37 7.28998 -680.266 81.9243 -651.909 140.765C-644.682 154.569 -614.698 228.075 -542.174 303.292C-506.258 340.683 -457.837 375.279 -400.698 395.62C-343.823 415.176 -278.416 423.921 -215.482 407.605C-152.416 391.762 -94.9438 355.561 -37.0437 329.976C21.3246 305.038 81.9125 297.199 135.907 299.593C190.087 301.903 237.964 312.3 276.917 320.318C315.877 328.666 346.142 334.913 364.577 338.133C383 341.338 404.688 345.184 428.758 346.719C452.823 348.158 479.052 347.382 506.284 346.32C560.606 344.303 619.728 339.641 673.048 351.182C726.852 361.344 769.699 396.634 789.505 430.858C810.297 464.469 816.133 489.85 816.691 489.444C816.131 489.843 810.381 464.449 789.671 430.719C769.957 396.384 727.079 360.818 673.169 350.458C619.751 338.706 560.55 343.202 506.24 345.067C479.021 346.059 452.802 346.776 428.82 345.303C404.851 343.737 383.17 339.87 364.772 336.669C346.358 333.454 316.116 327.215 277.15 318.864C238.184 310.841 190.254 300.424 135.95 298.107C81.8181 295.72 21.0568 303.57 -37.5022 328.589C-95.5526 354.244 -152.936 390.383 -215.776 406.161C-278.42 422.413 -343.634 413.7 -400.317 394.203C-457.257 373.93 -505.506 339.46 -541.309 302.195C-613.63 227.186 -643.552 153.852 -650.762 140.081C-679.023 81.4554 -697.362 7.32719 -697.304 7.4289Z" fill="url(#paint10_linear_216_5087)"/>
<path d="M-726.152 8.2746C-726.243 8.13815 -708.7 84.261 -679.547 144.082C-672.146 158.109 -641.236 232.909 -566.702 308.826C-529.804 346.555 -479.949 381.054 -421.356 400.452C-363.095 419.034 -296.118 426.414 -232.517 407.123C-168.793 388.336 -111.661 348.456 -53.0982 321.065C5.92126 294.152 68.1796 287.275 123.039 292.649C178.13 297.794 226.32 311.781 265.602 322.27C304.869 333.169 335.469 341.016 354.145 345.059C372.805 349.103 394.824 353.804 419.351 355.697C443.87 357.598 470.627 356.585 498.364 355.117C553.725 352.222 613.777 345.357 668.444 354.881C695.634 359.607 721.134 369.104 741.764 383.297C762.511 397.319 777.996 415.459 788.787 432.239C810.201 466.302 816.266 492.165 816.754 491.778C816.263 492.167 810.29 466.279 788.953 432.101C778.2 415.263 762.742 397.026 741.981 382.893C721.34 368.578 695.784 358.96 668.546 354.134C613.775 344.397 553.642 351.098 498.306 353.844C470.588 355.243 443.853 356.189 419.432 354.256C395.026 352.333 373.025 347.612 354.397 343.581C335.744 339.537 305.181 331.71 265.908 320.801C226.622 310.315 178.379 296.303 123.138 291.143C68.1257 285.754 5.64386 292.649 -53.5934 319.66C-112.324 347.138 -169.369 386.951 -232.862 405.662C-296.149 424.869 -362.928 417.525 -420.991 398.998C-479.377 379.675 -529.046 345.298 -565.831 307.7C-640.149 231.984 -670.99 157.377 -678.377 143.382C-707.44 83.7748 -726.231 8.18281 -726.152 8.2746Z" fill="url(#paint11_linear_216_5087)"/>
<path d="M-754.856 9.22482C-754.966 9.07845 -737.118 86.6427 -707.133 147.491C-699.551 161.751 -667.673 237.879 -591.078 314.518C-553.147 352.579 -501.799 386.949 -441.728 405.335C-382.049 422.919 -313.473 428.843 -249.259 406.491C-184.941 384.686 -128.215 341.172 -68.9369 312.027C-9.2276 283.132 54.8072 277.471 110.445 285.834C166.372 293.872 214.756 311.35 254.302 324.24C293.806 337.632 324.711 347.062 343.62 351.939C362.509 356.819 384.846 362.401 409.845 364.668C434.835 366.973 462.137 365.809 490.394 363.899C546.824 360.128 607.803 351.076 663.782 358.578C691.623 362.314 717.923 370.94 739.298 384.753C760.797 398.381 776.866 416.62 788.008 433.592C810.131 468.1 816.298 494.524 816.816 494.107C816.292 494.522 810.219 468.078 788.178 433.448C777.07 416.414 761.022 398.076 739.508 384.332C718.114 370.394 691.754 361.656 663.861 357.814C607.772 350.106 546.71 358.982 490.321 362.604C462.087 364.44 434.814 365.532 409.942 363.197C385.083 360.895 362.771 355.308 343.92 350.438C325.037 345.571 294.182 336.148 254.676 322.761C215.128 309.873 166.696 292.363 110.597 284.306C54.7975 275.908 -9.51849 281.587 -69.4648 310.605C-128.935 339.852 -185.577 383.302 -249.656 405.015C-313.535 427.265 -381.911 421.378 -441.381 403.846C-501.239 385.522 -552.388 351.286 -590.188 313.347C-666.577 236.929 -698.378 160.987 -705.938 146.759C-735.829 86.144 -754.954 9.12806 -754.856 9.22482Z" fill="url(#paint12_linear_216_5087)"/>
<path d="M-783.739 10.0266C-783.871 9.88515 -765.517 89.0793 -734.672 150.982C-726.906 165.485 -694.026 242.982 -615.281 320.351C-576.276 358.749 -523.382 392.958 -461.798 410.26C-431.084 418.992 -398.439 423.636 -365.165 423.567C-331.925 424.145 -297.87 418.424 -265.711 405.672C-200.859 380.787 -144.597 333.693 -84.5541 302.836C-24.0895 272.008 41.7757 267.563 98.1132 279.052C154.807 290.034 203.266 310.926 243.02 326.188C282.699 342.031 313.874 353.056 333.01 358.764C352.116 364.485 374.764 370.963 400.249 373.627C425.719 376.354 453.592 375.041 482.384 372.689C539.912 368.018 601.819 356.812 659.082 362.302C687.561 365.043 714.649 372.766 736.777 386.19C759.031 399.393 775.703 417.732 787.211 434.919C810.054 469.887 816.328 496.891 816.877 496.437C816.324 496.889 810.151 469.865 787.383 434.778C775.913 417.526 759.26 399.081 736.981 385.751C714.828 372.208 687.676 364.366 659.14 361.52C601.764 355.815 539.771 366.852 482.295 371.367C453.535 373.644 425.699 374.89 400.361 372.129C375.04 369.444 352.42 362.959 333.363 357.253C314.265 351.552 283.143 340.542 243.469 324.707C203.715 309.45 155.212 288.526 98.3367 277.499C41.82 265.972 -24.3901 270.436 -85.1109 301.399C-145.365 332.38 -201.555 379.407 -266.158 404.191C-330.562 429.576 -400.574 425.246 -461.468 408.741C-522.833 391.497 -575.519 357.425 -614.391 319.162C-692.911 242.012 -725.715 164.718 -733.464 150.243C-764.205 88.5657 -783.862 9.9298 -783.739 10.0266Z" fill="url(#paint13_linear_216_5087)"/>
<path d="M-812.411 10.9611C-812.562 10.8098 -793.907 91.557 -762.178 154.544C-754.226 169.305 -720.3 248.201 -639.347 326.311C-599.173 364.941 -544.771 399.092 -481.621 415.203C-450.15 423.474 -416.75 427.228 -382.826 426.337C-348.908 426.017 -314.341 418.944 -281.941 404.667C-216.665 376.571 -160.856 326.068 -100.008 293.527C-38.7395 260.732 29.0735 258.006 86.0045 272.598C143.375 286.578 191.843 310.707 231.773 328.241C271.589 346.421 303.014 359.017 322.362 365.551C341.687 372.006 364.602 379.623 390.593 382.694C416.567 385.619 445.023 384.321 474.363 381.468C533.011 375.864 595.842 362.522 654.36 366.023C683.462 367.777 711.322 374.591 734.208 387.599C757.22 400.373 774.513 418.81 786.389 436.214C809.972 471.643 816.354 499.25 816.936 498.771C816.35 499.25 810.069 471.623 786.565 436.06C774.723 418.592 757.45 400.045 734.402 387.15C711.488 374.021 683.558 367.082 654.393 365.221C595.759 361.522 532.84 374.683 474.256 380.114C444.954 382.897 416.548 384.123 390.72 381.168C364.912 378.087 342.036 370.456 322.761 364.025C303.455 357.498 272.094 344.935 232.284 326.755C192.354 309.226 143.854 285.067 86.28 271.028C29.1699 256.383 -39.0478 259.112 -100.597 292.068C-161.68 324.756 -217.426 375.202 -282.449 403.171C-314.738 417.379 -349.035 424.41 -382.872 424.732C-416.685 425.618 -449.969 421.877 -481.32 413.633C-544.24 397.584 -598.425 363.566 -638.453 325.083C-719.175 247.192 -753.022 168.506 -760.954 153.78C-792.566 91.036 -812.552 10.857 -812.411 10.9611Z" fill="url(#paint14_linear_216_5087)"/>
<path d="M-841.213 11.715C-841.385 11.5687 -822.285 94.0773 -789.646 158.18C-781.496 173.199 -746.491 253.532 -663.27 332.387C-621.865 371.182 -565.951 405.334 -501.198 420.142C-437.144 434.276 -363.562 435.695 -297.963 403.456C-232.35 372.093 -177.001 318.268 -115.297 284.087C-84.381 267.167 -51.1816 257.854 -18.7952 255.378C13.6837 253.155 45.1683 258.043 74.0904 266.349C132.066 283.365 180.471 310.587 220.545 330.335C260.463 350.787 292.111 364.928 311.666 372.299C331.191 379.565 354.389 388.134 380.893 391.632C407.37 395.011 436.437 393.557 466.332 390.243C526.12 383.703 589.879 368.25 649.623 369.763C679.339 370.542 707.955 376.437 731.6 389.012C755.377 401.327 773.308 419.859 785.565 437.484C809.904 473.401 816.389 501.626 817.002 501.108C816.385 501.621 809.998 473.377 785.737 437.322C773.52 419.636 755.603 400.983 731.789 388.543C708.105 375.844 679.416 369.83 649.639 368.955C589.768 367.233 525.923 382.503 466.206 388.866C436.354 392.108 407.351 393.488 381.037 390.079C354.743 386.576 331.584 377.997 312.113 370.748C292.61 363.4 261.025 349.294 221.119 328.844C181.049 309.109 132.607 281.849 74.4295 264.758C45.4072 256.435 13.7646 251.513 -18.8954 253.748C-51.4667 256.239 -84.853 265.609 -115.914 282.603C-177.883 316.961 -233.161 370.731 -298.525 401.955C-363.77 434.035 -437.088 432.631 -500.916 418.55C-565.429 403.788 -621.121 369.776 -662.37 331.126C-745.351 252.5 -780.271 172.381 -788.402 157.399C-820.917 93.5414 -841.375 11.6208 -841.213 11.715Z" fill="url(#paint15_linear_216_5087)"/>
<path d="M-869.984 12.6008C-870.182 12.4495 -850.644 96.6451 -817.076 161.882C-808.718 177.147 -772.65 259.008 -687.026 338.512C-644.424 377.541 -586.903 411.616 -520.545 425.072C-455.009 437.833 -379.695 437.871 -313.824 401.987C-247.925 367.399 -193.069 310.257 -130.446 274.496C-99.0676 256.916 -65.1245 247.291 -32.0213 245.713C1.16656 243.986 33.1252 250.704 62.3364 260.298C120.816 280.418 169.141 310.56 209.328 332.469C249.321 355.119 281.178 370.783 300.925 378.977C320.641 387.058 344.112 396.599 371.133 400.551C398.119 404.386 427.817 402.794 458.277 399.003C519.229 391.508 583.911 373.951 644.861 373.517C675.178 373.309 704.532 378.283 728.942 390.402C753.484 402.245 772.068 420.864 784.711 438.712C809.818 475.126 816.415 503.988 817.059 503.435C816.409 503.981 809.916 475.106 784.886 438.546C772.28 420.629 753.712 401.896 729.121 389.918C704.673 377.672 675.238 372.577 644.857 372.681C583.778 372.919 519.005 390.283 458.14 397.609C427.727 401.315 398.107 402.831 371.301 398.966C344.513 395.011 321.084 385.475 301.43 377.414C281.735 369.245 249.949 353.611 209.968 330.973C169.788 309.069 121.437 278.894 62.7448 258.698C33.4277 249.069 1.30139 242.304 -32.0887 244.043C-65.3903 245.631 -99.5453 255.324 -131.084 272.992C-194.003 308.945 -248.79 366.035 -314.447 400.464C-379.942 436.169 -454.963 436.144 -520.277 423.432C-586.393 410.023 -643.667 376.09 -686.115 337.207C-771.488 257.938 -807.465 176.298 -815.801 161.068C-849.258 96.0918 -870.169 12.5016 -869.984 12.6008Z" fill="url(#paint16_linear_216_5087)"/>
<path d="M-898.767 13.4836C-898.979 13.3298 -879.008 99.2521 -844.522 165.68C-835.944 181.178 -798.858 264.721 -710.658 344.719C-666.914 384.194 -607.646 417.83 -539.702 430.028C-505.903 436.632 -470.234 437.558 -434.37 434.06C-398.376 431.212 -362.395 419.418 -329.573 400.293C-263.382 362.588 -209.104 302.058 -145.522 264.716C-113.633 246.491 -78.8767 236.751 -45.0684 236.121C-11.1619 235.136 21.2534 243.43 50.6861 254.524C109.619 277.706 157.847 310.602 198.123 334.649C238.178 359.418 270.221 376.608 290.159 385.613C310.06 394.487 333.796 405.026 361.334 409.449C388.848 413.793 419.194 411.953 450.226 407.673C512.353 399.149 577.97 379.52 640.111 377.191C671.021 376.022 701.097 380.086 726.266 391.753C751.57 403.136 770.814 421.841 783.845 439.927C809.734 476.845 816.445 506.359 817.119 505.776C816.437 506.357 809.834 476.825 784.022 439.751C771.03 421.603 751.793 402.766 726.44 391.257C701.223 379.461 671.062 375.273 640.082 376.337C577.81 378.466 512.101 397.911 450.068 406.252C419.092 410.444 388.831 412.196 361.527 407.834C334.235 403.421 310.544 392.887 290.712 384.033C270.832 375.055 238.864 357.912 198.825 333.145C158.56 309.113 110.297 276.187 51.16 252.909C21.6099 241.773 -10.9769 233.435 -45.1012 234.417C-79.1349 235.052 -114.13 244.866 -146.193 263.19C-210.093 300.75 -264.311 361.234 -330.253 398.772C-395.912 438.143 -472.665 439.532 -539.473 428.356C-607.155 416.205 -666.17 382.701 -709.745 343.382C-797.685 263.627 -834.665 180.312 -843.219 164.854C-877.584 98.6864 -898.967 13.3844 -898.767 13.4836Z" fill="url(#paint17_linear_216_5087)"/>
<path d="M-927.536 14.3703C-927.782 14.214 -907.349 101.89 -871.873 169.486C-863.066 185.24 -824.859 270.368 -734.16 351.001C-689.18 390.827 -628.132 423.894 -558.631 434.889C-490.086 444.721 -411.339 441.441 -345.173 398.351C-278.797 357.459 -225.072 293.654 -160.43 254.893C-128.05 235.996 -92.4169 226.159 -57.9072 226.601C-23.309 226.616 9.55328 236.296 39.144 249.07C98.4371 275.313 146.54 310.901 186.895 336.987C226.996 363.813 259.223 382.476 279.349 392.273C299.437 401.926 323.436 413.373 351.495 418.335C379.533 423.172 410.546 421.222 442.156 416.454C505.478 406.95 572.019 385.242 635.326 380.988C666.818 378.852 697.603 381.975 723.535 393.146C749.606 404.015 769.534 422.795 782.967 441.106C809.654 478.548 816.477 508.725 817.186 508.105C816.473 508.717 809.76 478.528 783.148 440.93C769.755 422.542 749.829 403.635 723.705 392.633C697.717 381.327 666.843 378.087 635.281 380.124C571.836 384.178 505.198 405.682 441.98 415C410.43 419.679 379.522 421.54 351.707 416.695C323.93 411.745 299.961 400.301 279.95 390.683C259.889 380.911 227.74 362.304 187.652 335.489C147.314 309.415 99.1866 273.789 39.6796 247.45C9.97528 234.629 -23.0643 224.884 -57.9014 224.867C-92.6577 224.425 -128.555 234.339 -161.118 253.345C-226.101 292.339 -279.762 356.112 -345.905 396.83C-411.681 439.692 -490.09 442.962 -558.417 433.17C-627.648 422.217 -688.433 389.294 -733.227 349.629C-823.658 269.24 -861.769 184.342 -870.545 168.635C-905.902 101.31 -927.769 14.2686 -927.536 14.3703Z" fill="url(#paint18_linear_216_5087)"/>
<path d="M-956.321 15.2531C-956.594 15.0968 -935.683 104.559 -899.197 173.356C-890.164 189.36 -850.801 276.106 -757.542 357.364C-711.301 397.535 -648.437 429.957 -577.368 439.717C-507.304 448.112 -426.858 442.858 -360.684 396.14C-294.268 351.919 -240.979 285.065 -175.229 244.924C-142.292 225.444 -105.778 215.615 -70.569 217.039C-35.2771 218.18 -2.05457 229.463 27.7134 243.674C87.3129 272.951 135.288 311.111 175.713 339.192C215.858 368.02 248.222 388.179 268.502 398.844C288.768 409.299 313.019 421.681 341.6 427.201C370.164 432.562 401.863 430.5 434.062 425.241C498.594 414.739 566.059 390.98 630.515 384.82C662.58 381.739 694.061 383.882 720.759 394.555C747.591 404.888 768.22 423.738 782.062 442.277C809.564 480.239 816.5 511.099 817.24 510.441C816.491 511.086 809.672 480.217 782.243 442.096C768.44 423.48 747.814 404.501 720.919 394.027C694.161 383.215 662.588 380.953 630.45 383.944C565.85 389.886 498.286 413.454 433.871 423.76C401.736 428.93 370.158 430.895 341.834 425.529C313.563 420.026 289.338 407.657 269.157 397.249C248.942 386.616 216.656 366.504 176.534 337.694C136.117 309.625 88.1279 271.435 28.3146 242.041C-1.56903 227.772 -34.9746 216.419 -70.5324 215.275C-105.998 213.829 -142.814 223.753 -175.942 243.346C-242.065 283.75 -295.295 350.579 -361.47 394.607C-427.26 441.081 -507.333 446.313 -577.185 437.958C-647.975 428.233 -710.562 395.957 -756.609 355.95C-849.582 274.948 -888.847 188.437 -897.85 172.475C-934.202 103.964 -956.579 15.1539 -956.321 15.2531Z" fill="url(#paint19_linear_216_5087)"/>
<path d="M-985.095 16.1379C-985.397 15.9791 -964.003 107.258 -926.49 177.26C-917.222 193.52 -876.682 281.923 -780.814 363.774C-733.274 404.262 -668.584 436.062 -595.931 444.434C-524.355 451.465 -442.205 444.075 -376.11 393.74C-309.598 346.403 -256.857 276.331 -189.942 234.886C-156.415 214.878 -118.985 205.083 -83.0917 207.698C-47.1255 209.983 -13.5658 222.829 16.339 238.538C76.1985 270.776 124.055 311.408 164.554 341.429C204.731 372.207 237.238 393.815 257.671 405.304C278.098 416.554 302.576 429.961 331.681 436.047C360.776 441.949 393.174 439.785 425.969 434.02C491.722 422.504 560.112 396.703 625.707 388.662C658.338 384.643 690.491 385.804 717.953 395.961C745.551 405.763 766.892 424.657 781.148 443.432C809.478 481.92 816.526 513.472 817.303 512.767C816.52 513.462 809.586 481.896 781.333 443.249C767.115 424.387 745.771 405.351 718.107 395.42C690.582 385.122 658.327 383.847 625.622 387.767C559.882 395.596 491.389 421.204 425.761 432.514C393.041 438.178 360.778 440.247 331.939 434.342C303.163 428.284 278.713 414.9 258.382 403.694C238.013 392.245 205.584 370.688 165.429 339.923C124.949 309.919 77.0829 269.268 17.0018 236.898C-13.0128 221.132 -46.7632 208.197 -83.0089 205.899C-119.181 203.262 -156.933 213.141 -190.674 233.281C-257.994 275.026 -310.669 345.076 -376.954 392.212C-442.671 442.288 -524.399 449.627 -595.767 442.646C-668.135 434.298 -732.538 402.642 -779.881 362.323C-875.437 280.727 -915.885 192.575 -925.116 176.362C-962.496 106.647 -985.382 16.0436 -985.095 16.1379Z" fill="url(#paint20_linear_216_5087)"/>
<path d="M-1013.87 17.0217C-1014.2 16.8654 -992.314 109.985 -953.754 181.218C-944.248 197.73 -902.515 287.813 -803.984 370.235C-755.109 410.966 -688.567 442.225 -614.324 449C-541.226 454.889 -457.423 444.998 -391.479 391.119C-324.899 340.722 -272.718 267.423 -204.54 224.804C-170.451 204.141 -132.018 194.694 -95.472 198.465C-58.8411 201.973 -25.0271 216.488 5.01062 233.609C65.084 268.797 112.852 311.763 153.403 343.697C193.618 376.36 226.251 399.422 246.854 411.702C267.431 423.75 292.099 438.198 321.734 444.916C351.373 451.29 384.48 449.074 417.876 442.812C484.86 430.242 554.182 402.434 620.897 392.52C654.085 387.536 686.907 387.817 715.116 397.418C743.441 406.684 765.579 425.494 780.262 444.532C809.354 483.61 816.544 515.839 817.367 515.097C816.539 515.832 809.466 483.59 780.447 444.338C765.8 425.221 743.654 406.259 715.258 396.859C686.98 387.12 654.054 386.723 620.789 391.605C553.926 401.313 484.494 428.912 417.65 441.272C384.326 447.439 351.384 449.551 322.017 443.182C292.738 436.506 268.092 422.08 247.611 410.077C227.08 397.837 194.529 374.837 154.336 342.191C113.798 310.277 66.0243 267.279 5.73309 231.964C-24.4105 214.779 -58.4153 200.167 -95.343 196.621C-132.192 192.823 -170.979 202.362 -205.294 223.169C-273.918 266.11 -326.024 339.39 -392.383 389.583C-457.949 443.19 -541.3 453.004 -614.193 447.159C-688.145 440.406 -754.375 409.296 -803.042 368.744C-901.251 286.582 -942.882 196.748 -952.353 180.282C-990.776 109.359 -1014.19 16.9274 -1013.87 17.0217Z" fill="url(#paint21_linear_216_5087)"/>
</g>
</g>
<g opacity="0.2">
<mask id="mask1_216_5087" style="mask-type:luminance" maskUnits="userSpaceOnUse" x="-388" y="1" width="1153" height="564">
<path d="M765 1.18262H-387.184V564.339H765V1.18262Z" fill="white"/>
</mask>
<g mask="url(#mask1_216_5087)">
<path d="M944.496 394.985C944.649 395.109 887.839 430.005 834.448 445.173C821.569 448.371 758.08 471.716 667.516 458.942C622.598 452.489 571.617 435.753 521.799 404.522C471.481 374.21 424.721 326.932 381.306 274.951C337.602 223.272 295.21 168.085 248.15 124.303C201.388 80.8531 149.041 48.7929 98.0811 43.6004C46.5642 38.0458 2.99506 67.6152 -24.1641 98.4449C-52.1382 129.411 -68.5135 159.841 -78.573 177.644C-120.053 248.048 -161.391 393.373 -236.89 481.049C-255.418 502.61 -275.895 519.651 -296.443 529.679C-316.955 539.912 -337.165 542.773 -353.843 541.679C-387.464 538.999 -406.616 525.89 -406.65 526.687C-406.61 525.888 -387.51 539.091 -353.852 541.919C-337.155 543.088 -316.898 540.309 -296.303 530.13C-275.675 520.167 -255.102 503.153 -236.482 481.614C-160.605 394.008 -118.928 248.646 -77.573 178.517C-67.5444 160.764 -51.1999 130.411 -23.3703 99.6084C3.67328 68.935 46.857 39.6286 97.9924 45.1361C148.59 50.2789 200.793 82.2002 247.431 125.538C294.38 169.219 336.747 224.359 380.478 276.072C423.91 328.084 470.812 375.508 521.262 405.901C571.216 437.214 622.334 454 667.377 460.465C758.186 473.276 821.828 449.869 834.735 446.664C888.311 431.424 944.674 395.084 944.496 394.985Z" fill="url(#paint22_linear_216_5087)"/>
<path d="M944.496 374.157C944.639 374.273 888.922 409.683 836.449 425.994C823.754 429.47 761.484 454.05 671.81 444.536C627.326 439.686 576.611 425.084 526.687 396.102C476.34 367.957 428.96 323.234 384.869 273.545C340.465 224.203 297.345 171.299 250.042 129.513C203.038 88.0558 151.353 56.8539 101.058 51.396C50.2577 45.3998 6.83884 73.116 -20.6266 102.767C-48.8108 132.53 -65.6851 161.928 -75.9893 179.183C-118.366 247.429 -163.873 387.992 -238.753 473.664C-257.221 494.712 -277.39 511.592 -297.679 521.557C-317.921 531.647 -337.807 534.971 -354.299 534.048C-387.531 532.031 -406.596 519.488 -406.652 520.361C-406.595 519.486 -387.572 532.123 -354.307 534.281C-337.795 535.279 -317.859 532.034 -297.542 521.999C-277.178 512.098 -256.913 495.253 -238.353 474.227C-163.114 388.642 -117.277 248.077 -75.0239 180.079C-64.7506 162.866 -47.9091 133.542 -19.8675 103.936C7.48047 74.4358 50.5139 46.9652 100.96 52.9094C150.908 58.3177 202.469 89.3955 249.35 130.759C296.546 172.445 339.641 225.307 384.069 274.686C428.191 324.403 475.706 369.267 526.188 397.484C576.239 426.543 627.097 441.185 671.706 446.047C761.615 455.588 824.026 430.944 836.752 427.468C889.411 411.082 944.67 374.253 944.496 374.157Z" fill="url(#paint23_linear_216_5087)"/>
<path d="M944.496 353.324C944.635 353.44 889.982 389.373 838.393 406.789C825.889 410.535 764.806 436.264 676.042 429.93C631.989 426.653 581.559 414.177 531.529 387.552C481.078 361.806 433.291 319.274 388.416 272.105C343.307 225.172 299.36 174.729 251.845 134.903C204.529 95.6239 153.686 64.7744 103.961 59.1701C53.8645 52.7372 10.5959 78.6424 -17.1952 107.021C-45.6279 135.509 -63.007 163.875 -73.577 180.549C-117.007 246.493 -166.335 382.382 -240.58 466.233C-258.857 487.03 -278.926 503.389 -298.865 513.513C-318.851 523.558 -338.435 527.151 -354.75 526.518C-387.607 525.141 -406.612 513.186 -406.654 514.042C-406.608 513.186 -387.647 525.233 -354.754 526.751C-338.417 527.456 -318.788 523.938 -298.729 513.955C-278.714 503.89 -258.551 487.566 -240.187 466.796C-165.598 383.042 -115.952 247.185 -72.6425 181.469C-62.0995 164.835 -44.757 136.548 -16.4688 108.202C11.2086 79.9597 54.0938 54.2852 103.861 60.666C153.251 66.2182 203.987 96.9536 251.188 136.154C298.603 175.892 342.523 226.296 387.661 273.266C432.563 320.457 480.484 363.126 531.069 388.934C581.241 415.636 631.798 428.142 675.963 431.429C764.966 437.777 826.184 411.989 838.719 408.233C890.479 390.748 944.662 353.421 944.496 353.324Z" fill="url(#paint24_linear_216_5087)"/>
<path d="M944.496 332.497C944.627 332.609 891.003 369.085 840.291 387.607C827.964 391.629 768.054 418.524 680.197 415.393C636.586 413.694 586.454 403.351 536.327 379.076C485.823 355.656 437.476 315.652 391.884 270.917C346.086 226.391 301.389 178.344 253.714 140.352C206.168 103.015 155.975 72.8128 106.851 66.8538C57.452 60.0363 14.2644 83.8972 -13.8773 111.001C-42.5779 138.211 -60.4579 165.523 -71.3112 181.596C-115.93 245.101 -168.769 376.426 -242.322 458.719C-260.46 479.216 -280.352 495.232 -299.991 505.471C-319.732 515.486 -339.026 519.344 -355.174 519.004C-387.674 518.257 -406.622 506.882 -406.654 507.713C-406.62 506.882 -387.713 518.344 -355.178 519.234C-339.011 519.646 -319.666 515.865 -299.854 505.905C-280.145 495.726 -260.161 479.742 -241.938 459.277C-168.052 377.091 -114.917 245.843 -70.4114 182.544C-59.5851 166.508 -41.7437 139.265 -13.1857 112.194C14.8366 85.227 57.6524 61.5646 106.74 68.3299C155.54 74.2368 205.644 104.34 253.082 141.605C300.669 179.522 345.338 227.532 391.167 272.091C436.777 316.855 485.267 356.981 535.905 380.462C586.163 404.8 636.43 415.167 680.157 416.876C768.235 420.007 828.276 393.055 840.632 389.021C891.509 370.43 944.654 332.589 944.496 332.497Z" fill="url(#paint25_linear_216_5087)"/>
<path d="M944.496 311.668C944.623 311.777 891.997 348.811 842.145 368.435C829.997 372.739 771.224 400.768 684.288 400.842C641.12 400.718 591.296 392.512 541.084 370.626C490.546 349.563 441.624 312.174 395.331 269.922C348.843 227.852 303.422 182.214 255.612 145.973C207.891 110.395 158.27 80.987 109.738 74.5169C60.9818 67.3323 17.9079 89.035 -10.5807 114.92C-39.6647 140.642 -57.9917 166.994 -69.159 182.407C-91.4667 213.629 -118.05 259.416 -146.604 309.075C-175.329 358.452 -207.45 411.257 -243.992 451.137C-279.725 492.277 -323.416 512.799 -355.579 511.509C-387.734 511.385 -406.629 500.581 -406.65 501.392C-406.627 500.581 -387.772 511.477 -355.579 511.742C-323.383 513.174 -279.513 492.781 -243.616 451.695C-206.914 411.885 -174.64 359.119 -145.818 309.815C-117.169 260.215 -90.5534 214.534 -68.2978 183.39C-57.1536 168.006 -38.867 141.721 -9.92371 116.131C18.4396 90.3722 61.1552 68.8482 109.618 75.9757C157.844 82.3887 207.386 111.713 255.011 147.229C302.74 183.402 348.13 229.015 394.658 271.113C440.975 313.399 490.033 350.893 540.706 372.012C591.05 393.958 641 402.182 684.284 402.306C771.434 402.237 830.326 374.141 842.503 369.829C892.521 350.131 944.648 311.757 944.496 311.668Z" fill="url(#paint26_linear_216_5087)"/>
<path d="M944.494 290.838C944.614 290.945 892.964 328.555 843.948 349.282C831.97 353.867 774.307 383.03 688.295 386.289C645.564 387.736 596.084 381.668 545.8 362.203C495.237 343.527 445.742 308.834 398.743 269.103C351.565 229.546 305.453 186.304 257.525 151.741C209.654 117.818 160.571 89.1686 112.616 82.0336C64.4403 74.2685 21.5205 94.1924 -7.36496 118.631C-36.763 142.949 -55.6719 168.132 -67.1494 182.898C-90.0081 212.867 -117.936 256.634 -147.251 304.825C-176.79 352.689 -209.315 404.144 -245.586 443.468C-281.105 483.981 -324.129 504.57 -355.958 504.026C-387.792 504.52 -406.641 494.276 -406.65 495.063C-406.637 494.279 -387.826 504.614 -355.956 504.257C-324.092 504.939 -280.895 484.477 -245.21 444.019C-208.789 404.774 -176.115 353.371 -146.484 305.584C-117.081 257.466 -89.1295 213.81 -66.3151 183.898C-54.8665 169.167 -35.998 144.048 -6.74069 119.852C22.0215 95.5295 64.5867 75.767 112.491 83.475C160.156 90.5529 209.168 119.125 256.955 153.001C304.807 187.51 350.902 230.724 398.115 270.311C445.139 310.072 494.767 344.864 545.463 363.592C595.884 383.106 645.491 389.19 688.321 387.738C774.543 384.471 832.322 355.244 844.328 350.652C893.49 329.852 944.643 290.922 944.494 290.838Z" fill="url(#paint27_linear_216_5087)"/>
<path d="M944.494 270.012C944.61 270.111 893.897 308.326 845.692 330.15C833.887 335.023 777.297 365.309 692.216 371.735C649.938 374.751 600.797 370.817 550.461 353.805C499.894 337.538 449.832 305.642 402.14 268.479C354.297 231.464 307.482 190.664 259.441 157.728C211.467 125.36 162.904 97.1723 115.47 89.5859C67.8814 81.0839 25.0735 99.2389 -4.22824 122.122C-33.9769 144.966 -53.4388 168.979 -65.2323 183.072C-88.7345 211.669 -117.892 253.469 -147.935 300.231C-178.185 346.693 -211.157 396.791 -247.09 435.721C-282.461 475.564 -324.761 496.435 -356.315 496.559C-387.842 497.668 -406.652 487.971 -406.65 488.742C-406.648 487.971 -387.871 497.758 -356.305 496.783C-324.72 496.802 -282.251 476.057 -246.722 436.264C-210.642 397.417 -177.526 347.377 -147.195 301.008C-117.071 254.325 -87.8964 212.644 -64.4404 184.102C-52.6739 170.035 -33.2525 146.088 -3.64444 123.355C25.5359 100.579 67.997 82.565 115.331 91.0074C162.493 98.5368 210.993 126.655 258.897 158.986C306.873 191.877 353.661 232.65 401.548 269.704C449.266 306.89 499.469 338.885 550.17 355.192C600.633 372.246 649.902 376.193 692.284 373.169C777.559 366.723 834.262 336.375 846.091 331.492C894.434 309.596 944.635 270.091 944.494 270.012Z" fill="url(#paint28_linear_216_5087)"/>
<path d="M944.496 249.182C944.604 249.278 894.802 288.116 847.389 311.045C835.752 316.207 780.21 347.61 696.062 357.196C654.223 361.773 605.45 359.972 555.082 345.444C504.518 331.621 453.907 302.592 405.537 268.054C309.489 199.021 212.739 115.967 118.319 97.0252C71.3053 88.0122 28.5627 104.024 -1.1243 125.453C-31.3026 146.63 -51.252 169.583 -63.4212 182.886C-87.5612 210.086 -117.948 249.839 -148.631 295.291C-179.559 340.391 -212.876 389.313 -248.528 427.856C-283.704 467.175 -325.36 488.312 -356.64 489.109C-387.88 490.828 -406.664 481.666 -406.652 482.423C-406.66 481.666 -387.915 490.917 -356.631 489.327C-325.316 488.67 -283.5 467.659 -248.164 428.397C-212.373 389.939 -178.917 341.08 -147.912 296.08C-117.158 250.725 -86.7654 211.103 -62.6698 183.945C-50.5295 170.672 -30.6206 147.776 -0.582916 126.704C28.9846 105.373 71.3881 89.4809 118.169 98.4368C212.141 117.262 308.907 200.209 404.987 269.296C453.385 303.862 504.139 332.975 554.833 346.838C605.321 361.399 654.221 363.21 696.157 358.618C780.501 349.009 836.151 317.542 847.806 312.369C895.355 289.369 944.625 249.259 944.496 249.182Z" fill="url(#paint29_linear_216_5087)"/>
<path d="M944.496 228.359C944.602 228.446 895.669 267.949 849.029 291.976C837.555 297.439 783.025 329.965 699.806 342.687C658.418 348.827 610.014 349.15 559.633 337.137C509.104 325.763 457.951 299.716 408.939 267.815C311.295 204.292 214.348 124.88 121.152 104.353C74.6232 94.5932 32.0347 108.712 1.91806 128.546C-28.6244 148.105 -49.2269 169.679 -61.6813 182.319C-86.513 208.006 -118 245.812 -149.299 290.001C-180.901 333.746 -214.452 381.706 -249.876 419.867C-284.835 458.794 -325.915 480.189 -356.931 481.66C-387.909 483.995 -406.668 475.361 -406.646 476.098C-406.662 475.361 -387.938 484.082 -356.92 481.881C-325.861 480.549 -284.625 459.275 -249.512 420.41C-213.953 382.331 -180.271 334.453 -148.602 290.805C-117.237 246.727 -85.7558 209.058 -60.9665 183.413C-48.5429 170.8 -27.9828 149.281 2.41904 129.809C32.4163 110.071 74.679 96.0519 120.988 105.755C167.281 114.333 214.733 142.084 262.934 171.366C311.119 201.288 359.237 237.248 408.434 269.075C457.489 301.004 508.773 327.125 559.432 338.529C609.936 350.574 658.454 350.249 699.937 344.096C783.343 331.337 837.977 298.753 849.472 293.283C896.238 269.177 944.624 228.428 944.496 228.359Z" fill="url(#paint30_linear_216_5087)"/>
<path d="M944.494 207.525C944.593 207.617 896.505 247.804 850.609 272.943C839.299 278.713 785.74 312.356 703.457 328.219C662.51 335.917 614.496 338.358 564.131 328.884C513.661 319.978 461.994 297.017 412.351 267.758C362.574 238.67 313.84 205.059 265.498 176.484C217.11 148.614 170.083 120.891 123.969 111.567C77.9005 101.031 35.4508 113.24 4.89673 131.36C-26.0388 149.205 -47.2289 169.451 -59.9858 181.377C-85.4841 205.523 -118.067 241.329 -149.933 284.352C-182.169 326.825 -215.937 373.916 -251.129 411.792C-285.881 450.394 -326.419 472.077 -357.199 474.218C-387.932 477.165 -406.679 469.055 -406.65 469.775C-406.677 469.055 -387.959 477.252 -357.185 474.439C-326.367 472.432 -285.671 450.865 -250.77 412.33C-215.448 374.542 -181.557 327.534 -149.259 285.176C-117.335 242.269 -84.777 206.612 -59.3172 182.498C-46.5873 170.595 -25.4473 150.403 5.35336 132.64C35.7899 114.602 77.9313 102.47 123.787 112.954C169.678 122.215 216.661 149.894 265.026 177.752C313.322 206.307 362.054 239.915 411.889 269.033C461.564 298.322 513.368 321.344 563.966 330.276C614.459 339.77 662.581 337.321 703.615 329.608C786.077 313.708 839.73 279.998 851.065 274.228C897.081 249.012 944.618 207.597 944.494 207.525Z" fill="url(#paint31_linear_216_5087)"/>
<path d="M944.495 186.697C944.593 186.782 897.315 227.701 852.143 253.959C840.983 260.027 788.356 294.808 707.004 313.799C666.51 323.051 618.899 327.603 568.574 320.691C518.179 314.293 466.04 294.461 415.8 267.901C365.413 241.564 316.079 210.28 267.639 182.998C219.049 156.604 172.497 128.779 126.782 118.66C81.1528 107.352 38.8284 117.628 7.83508 133.9C-23.4723 150.005 -45.2405 168.88 -58.323 180.026C-84.5149 202.543 -118.046 236.506 -150.498 278.363C-183.343 319.624 -217.315 365.94 -252.273 403.624C-286.833 441.963 -326.87 463.974 -357.432 466.789C-387.94 470.347 -406.689 462.751 -406.65 463.453C-406.685 462.746 -387.967 470.434 -357.415 467.003C-326.814 464.328 -286.623 442.43 -251.915 404.155C-216.831 366.563 -182.738 320.344 -149.841 279.201C-117.333 237.463 -83.8464 203.664 -57.6968 181.175C-44.6413 170.053 -22.9252 151.231 8.24738 135.195C39.1212 119.004 81.1547 108.786 126.591 120.036C172.094 130.096 218.619 157.887 267.188 184.273C315.609 211.538 364.937 242.829 415.38 269.194C465.674 295.778 517.93 315.66 568.455 322.081C618.906 329.007 666.626 324.445 707.203 315.174C788.732 296.143 841.447 261.299 852.619 255.219C897.904 228.887 944.612 186.762 944.495 186.697Z" fill="url(#paint32_linear_216_5087)"/>
<path d="M944.495 165.871C944.589 165.95 898.085 207.631 853.613 235.03C842.617 241.406 790.884 277.336 710.461 299.448C670.412 310.267 623.205 316.891 572.956 312.584C522.647 308.731 470.119 292.008 419.288 268.239C368.318 244.693 318.418 215.704 269.845 189.642C221.133 164.382 174.915 136.708 129.604 125.616C84.3801 113.497 42.1674 121.791 10.7521 136.148C-20.9136 150.465 -43.2502 167.92 -56.6544 178.26C-83.5303 199.092 -117.936 231.276 -150.974 272.027C-184.4 312.148 -218.573 357.786 -253.306 395.343C-287.692 433.494 -327.265 455.881 -357.63 459.36C-387.936 463.54 -406.698 456.44 -406.65 457.129C-406.695 456.44 -387.961 463.624 -357.609 459.575C-327.204 456.231 -287.48 433.956 -252.951 395.877C-218.095 358.408 -183.809 312.874 -150.336 272.88C-117.252 232.254 -82.908 200.243 -56.0764 179.441C-42.703 169.123 -20.4203 151.72 11.1163 137.462C42.4141 123.17 84.3454 114.921 129.388 126.978C174.505 138.016 220.706 165.655 269.417 190.918C317.971 216.974 367.885 245.966 418.914 269.544C469.801 293.338 522.454 310.108 572.881 313.966C623.253 318.283 670.558 311.644 710.69 300.803C791.283 278.644 843.083 242.651 854.11 236.265C898.688 208.797 944.6 165.935 944.495 165.871Z" fill="url(#paint33_linear_216_5087)"/>
<path d="M944.495 145.044C944.583 145.115 898.833 187.603 855.038 216.15C844.185 222.841 793.323 259.94 713.827 285.175C674.217 297.574 627.436 306.21 577.279 304.551C527.098 303.268 474.225 289.713 422.839 268.769C371.328 248.034 320.851 221.328 272.144 196.407C223.288 172.209 177.343 144.609 132.396 132.582C87.5881 119.443 45.4622 125.688 13.6596 138.102C-18.3549 150.576 -41.2425 166.567 -54.9569 176.084C-82.4725 195.221 -117.726 225.672 -151.33 265.375C-185.346 304.384 -219.7 349.459 -254.233 386.958C-288.461 424.979 -327.602 447.788 -357.794 451.922C-387.922 456.729 -406.706 450.123 -406.65 450.803C-406.704 450.125 -387.946 456.816 -357.773 452.14C-327.537 448.131 -288.247 425.438 -253.878 387.486C-219.222 350.087 -184.764 305.121 -150.71 266.244C-117.063 226.674 -81.8868 196.402 -54.4194 177.295C-40.7377 167.793 -17.9079 151.848 13.9756 139.424C45.6606 127.07 87.5226 120.855 132.165 133.937C176.93 145.904 222.858 173.479 271.725 197.687C320.435 222.605 370.929 249.324 422.504 270.087C473.953 291.055 526.944 304.647 577.253 305.933C627.525 307.6 674.398 298.941 714.091 286.512C793.745 261.232 844.678 224.071 855.551 217.371C899.444 188.749 944.6 145.098 944.495 145.044Z" fill="url(#paint34_linear_216_5087)"/>
<path d="M944.495 124.212C944.577 124.284 899.546 167.62 856.408 197.343C845.702 204.354 795.676 242.651 717.096 271C677.932 284.989 631.577 295.627 581.557 296.63C531.518 297.915 478.357 287.574 426.45 269.484C374.434 251.594 323.389 227.145 274.519 203.299C225.488 180.15 179.821 152.367 135.207 139.377C90.7635 125.418 48.7434 129.161 16.6037 139.849C-15.7692 150.271 -39.1751 164.851 -53.1766 173.541C-81.3011 190.952 -117.36 219.745 -151.55 258.409C-186.156 296.367 -220.702 340.96 -255.044 378.471C-289.133 416.431 -327.878 439.699 -357.921 444.497C-387.894 449.935 -406.712 443.824 -406.65 444.482C-406.71 443.817 -387.915 450.019 -357.894 444.71C-327.809 440.036 -288.918 416.877 -254.687 378.997C-220.224 341.585 -185.581 297.108 -150.943 259.293C-116.718 220.762 -80.7577 192.16 -52.6853 174.777C-38.7165 166.111 -15.3723 151.573 16.8715 141.191C48.8957 130.548 90.671 126.819 134.961 140.72C179.403 153.652 225.064 181.416 274.122 204.587C323.005 228.436 374.079 252.902 426.164 270.816C478.14 288.934 531.422 299.296 581.574 298.009C631.708 297.004 678.157 286.344 717.389 272.322C796.115 243.926 846.22 205.569 856.942 198.549C900.174 168.743 944.599 124.269 944.495 124.212Z" fill="url(#paint35_linear_216_5087)"/>
<path d="M944.497 103.385C944.574 103.452 900.232 147.678 857.734 178.597C847.174 185.936 797.944 225.451 720.279 256.918C681.568 272.5 635.642 285.128 585.792 288.797C535.938 292.638 482.552 285.56 430.155 270.359C377.673 255.33 326.057 233.132 276.99 210.303C227.764 188.101 182.306 160.182 138.028 146.051C93.9176 130.984 52.0498 132.644 19.5767 141.33C-13.0948 149.747 -37.019 162.749 -51.2768 170.673C-79.9619 186.365 -116.859 213.416 -151.619 251.14C-186.824 288.075 -221.561 332.289 -255.743 369.862C-289.715 407.817 -328.099 431.591 -358.012 437.059C-387.855 443.139 -406.723 437.508 -406.65 438.155C-406.72 437.505 -387.87 443.224 -357.985 437.272C-328.022 431.931 -289.497 408.266 -255.389 370.385C-221.089 332.912 -186.256 288.817 -151.027 252.033C-116.24 214.456 -79.459 187.598 -50.8317 171.934C-36.6105 164.029 -12.7519 151.067 19.7906 142.679C52.148 134.036 93.7924 132.376 137.756 147.385C181.878 161.459 227.338 189.372 276.616 211.6C325.695 234.434 377.355 256.66 429.908 271.706C482.381 286.929 535.882 294.022 585.848 290.174C635.81 286.495 681.816 273.845 720.609 258.233C798.416 226.711 847.705 187.131 858.285 179.785C900.885 148.792 944.595 103.434 944.497 103.385Z" fill="url(#paint36_linear_216_5087)"/>
<path d="M944.497 82.5557C944.572 82.6202 900.895 127.792 859.017 159.931C848.598 167.602 800.142 208.38 723.389 242.966C685.103 260.077 639.64 274.805 589.979 281.06C540.344 287.517 486.787 283.679 433.956 271.389C381.052 259.25 328.859 239.292 279.564 217.425C230.097 196.152 184.834 167.91 140.88 152.568C97.0756 136.348 55.3658 135.884 22.6018 142.531C-10.3318 148.899 -34.7299 160.333 -49.2401 167.468C-78.4416 181.45 -116.173 206.758 -151.517 243.571C-187.334 279.519 -222.278 323.455 -256.327 361.14C-290.204 399.149 -328.252 423.479 -358.062 429.619C-387.797 436.349 -406.727 431.197 -406.646 431.834C-406.725 431.192 -387.812 436.441 -358.035 429.827C-328.176 423.814 -289.983 399.593 -255.972 361.658C-221.804 324.078 -186.776 280.273 -150.944 244.479C-115.574 207.822 -77.9811 182.711 -48.8413 168.753C-34.3697 161.633 -10.0447 150.236 22.7675 143.893C55.4178 137.276 96.9215 137.733 140.585 153.893C184.395 169.178 229.675 197.42 279.209 218.72C328.528 240.602 380.777 260.585 433.764 272.746C486.673 285.051 540.344 288.897 590.091 282.427C639.848 276.16 685.404 261.399 723.755 244.266C800.641 209.618 849.162 168.778 859.594 161.1C901.56 128.886 944.589 82.6053 944.497 82.5557Z" fill="url(#paint37_linear_216_5087)"/>
<path d="M944.495 61.7266C944.564 61.7861 901.534 107.953 860.25 141.347C849.975 149.356 802.268 191.434 726.42 229.145C688.573 247.781 643.565 264.614 594.137 273.441C544.747 282.462 491.088 281.96 437.86 272.563C384.57 263.317 331.797 245.603 282.244 224.65C232.413 204.535 187.437 175.442 143.758 158.947C100.247 141.578 58.699 138.961 25.6942 143.478C-7.45908 147.778 -32.2946 157.627 -47.0475 163.97C-76.7307 176.246 -115.283 199.807 -151.239 235.734C-187.679 270.747 -222.863 314.45 -256.807 352.3C-290.615 390.424 -328.359 415.352 -358.087 422.167C-387.732 429.559 -406.741 424.878 -406.65 425.513C-406.737 424.878 -387.747 429.651 -358.054 422.375C-328.277 415.686 -290.389 390.868 -256.45 352.821C-222.393 315.067 -187.124 271.506 -150.684 236.657C-114.71 200.888 -76.3087 177.526 -46.6969 165.27C-31.9902 158.947 -7.23172 149.132 25.802 144.848C58.6971 140.355 100.054 142.953 143.436 160.266C186.988 176.705 231.989 205.808 281.897 225.96C331.495 246.931 384.331 264.669 437.711 273.932C491.022 283.342 544.789 283.841 594.285 274.803C643.819 265.959 688.897 249.096 726.813 230.428C802.784 192.657 850.553 150.522 860.848 142.503C902.216 109.032 944.583 61.7712 944.495 61.7266Z" fill="url(#paint38_linear_216_5087)"/>
<path d="M944.497 40.8984C944.566 40.9555 902.153 88.1664 861.459 122.841C851.314 131.194 804.333 174.612 729.399 215.457C691.97 235.624 647.44 254.543 598.271 265.943C549.153 277.486 495.467 280.359 441.893 273.852C388.258 267.506 334.892 252.05 285.038 231.975C234.885 212.738 190.033 183.082 146.67 165.222C103.453 146.549 62.0708 141.813 28.8791 144.174C-4.44754 146.434 -29.6819 154.688 -44.668 160.196C-74.7962 170.777 -114.161 192.586 -150.765 227.638C-187.855 261.72 -223.303 305.274 -257.169 343.338C-290.931 381.638 -328.4 407.203 -358.073 414.703C-387.647 422.778 -406.748 418.568 -406.65 419.193C-406.744 418.568 -387.666 422.867 -358.039 414.916C-328.315 407.538 -290.703 382.077 -256.812 343.862C-222.832 305.897 -187.307 262.494 -150.224 228.576C-113.616 193.692 -74.4128 172.084 -44.3635 161.521C-29.4237 156.033 -4.27219 147.809 28.933 145.554C62.015 143.207 103.23 147.916 146.321 166.534C189.57 184.34 234.451 214.013 284.706 233.297C334.62 253.394 388.056 268.868 441.779 275.229C495.456 281.748 549.248 278.875 598.464 267.305C647.732 255.885 692.338 236.931 729.823 216.73C804.876 175.823 851.921 132.346 862.081 123.978C902.849 89.2257 944.578 40.9381 944.497 40.8984Z" fill="url(#paint39_linear_216_5087)"/>
<path d="M944.497 20.0703C944.566 20.1274 902.745 68.4224 862.636 104.425C852.615 113.113 806.351 157.947 732.324 201.915C695.323 223.623 651.282 244.623 602.397 258.573C553.574 272.65 499.937 278.862 446.041 275.232C392.117 271.801 338.156 258.605 287.959 239.376C237.415 221.048 192.693 190.625 149.623 171.383C106.702 151.343 65.5006 144.414 32.1701 144.664C-1.28174 144.883 -26.8783 151.536 -42.086 156.205C-72.6285 165.092 -112.791 185.147 -150.087 219.306C-187.864 252.468 -223.605 295.938 -257.425 334.257C-291.168 372.78 -328.388 399.03 -358.025 407.224C-387.552 415.987 -406.754 412.248 -406.646 412.866C-406.752 412.243 -387.568 416.078 -357.985 407.433C-328.298 399.36 -290.938 373.216 -257.066 334.775C-223.135 296.563 -187.317 253.252 -149.559 220.261C-112.271 186.276 -72.2816 166.417 -41.8259 157.547C-26.6741 152.893 -1.16422 146.262 32.174 146.041C65.3965 145.796 106.444 152.697 149.253 172.678C192.21 191.865 236.985 222.323 287.639 240.699C337.909 259.958 391.958 273.173 445.979 276.612C499.98 280.249 553.718 274.024 602.632 259.92C651.617 245.941 695.726 224.91 732.782 203.168C806.927 159.133 853.249 114.241 863.28 105.541C903.469 69.4693 944.578 20.1125 944.497 20.0703Z" fill="url(#paint40_linear_216_5087)"/>
<path d="M944.497 -0.757812C944.566 -0.698272 903.321 48.723 863.79 86.0948C853.887 95.1078 808.345 141.435 735.204 188.51C662.707 235.711 559.29 279.168 450.334 276.68C396.162 276.166 341.603 265.258 291.015 246.85C240.031 229.437 195.408 198.113 152.645 177.425C109.968 156.105 69.0189 146.829 35.5805 145.02C2.04193 143.187 -23.8802 148.211 -39.2921 152.041C-70.2161 159.236 -111.178 177.5 -149.202 210.756C-187.698 242.997 -223.772 286.444 -257.579 325.057C-291.329 363.857 -328.321 390.837 -357.942 399.733C-387.444 409.198 -406.763 405.933 -406.646 406.541C-406.762 405.93 -387.456 409.292 -357.9 399.942C-328.224 391.167 -291.092 364.289 -257.215 325.58C-223.297 287.07 -187.155 243.788 -148.688 211.728C-110.683 178.658 -69.9021 160.58 -39.0802 153.401C-23.7223 149.583 2.1055 144.576 35.5284 146.407C68.857 148.211 109.675 157.449 152.242 178.713C194.907 199.354 239.596 230.719 290.706 248.187C341.377 266.622 396.044 277.553 450.326 278.067C559.492 280.56 663.1 237.016 735.701 189.75C808.948 142.609 854.542 96.2192 864.457 87.1938C904.061 49.7575 944.578 -0.713157 944.497 -0.757812Z" fill="url(#paint41_linear_216_5087)"/>
<path d="M944.497 -21.5898C944.572 -21.5229 903.889 29.0893 864.944 67.8776C855.153 77.2181 810.349 125.153 738.092 175.336C666.47 225.512 564.176 274.516 454.779 278.253C400.399 280.627 345.227 272.011 294.211 254.406C242.719 237.948 198.206 205.509 155.745 183.3C113.307 160.635 72.6546 148.905 39.143 145.134C5.55634 141.294 -20.6472 144.735 -36.2498 147.732C-67.5168 153.271 -109.288 169.67 -148.083 202.01C-187.346 233.304 -223.794 276.786 -257.621 315.738C-291.406 354.862 -328.199 382.613 -357.828 392.223C-387.323 402.412 -406.773 399.614 -406.646 400.219C-406.771 399.614 -387.332 402.507 -357.784 392.432C-328.099 382.945 -291.166 355.288 -257.257 316.257C-223.32 277.419 -186.808 234.108 -147.586 203.005C-108.82 170.856 -67.2431 154.638 -36.086 149.111C-20.5393 146.127 5.56595 142.698 39.039 146.528C72.4446 150.285 112.975 161.974 155.319 184.585C197.684 206.739 242.286 239.243 293.92 255.754C345.036 273.392 400.323 282.033 454.817 279.652C564.434 275.903 666.902 226.807 738.62 176.564C810.979 126.309 855.825 78.3196 865.634 68.9692C904.646 30.1015 944.586 -21.5377 944.497 -21.5898Z" fill="url(#paint42_linear_216_5087)"/>
<path d="M944.497 -42.416C944.586 -42.3317 904.46 9.52834 866.048 49.6911C856.401 59.4359 812.231 108.822 740.884 162.134C670.083 215.175 569.109 270.079 459.322 279.759C404.782 284.986 348.99 278.782 297.494 262.026C245.43 246.622 201.054 212.771 158.895 189.036C116.702 164.937 76.3656 150.841 42.8174 145.125C9.22876 139.305 -17.2233 141.17 -33.0032 143.339C-64.588 147.209 -107.136 161.749 -146.757 193.11C-186.831 223.424 -223.691 266.988 -257.573 306.309C-291.42 345.797 -328.031 374.359 -357.688 384.695C-387.19 395.623 -406.783 393.296 -406.646 393.896C-406.777 393.296 -387.197 395.715 -357.639 384.908C-327.925 374.694 -291.173 346.229 -257.205 306.83C-223.217 267.623 -186.296 224.237 -146.274 194.122C-106.702 162.96 -64.3492 148.591 -32.8838 144.735C-17.1674 142.575 9.1806 140.716 42.6652 146.517C76.1016 152.21 116.328 166.267 158.438 190.314C200.503 213.986 244.981 247.922 297.215 263.383C348.83 280.178 404.744 286.398 459.407 281.163C569.419 271.456 670.549 216.452 741.439 163.347C812.886 109.959 857.105 60.5225 866.757 50.7628C905.242 10.5331 944.595 -42.3466 944.497 -42.416Z" fill="url(#paint43_linear_216_5087)"/>
</g>
</g>
<defs>
<linearGradient id="paint0_linear_216_5087" x1="810.525" y1="210.606" x2="-404.296" y2="237.034" gradientUnits="userSpaceOnUse">
<stop stop-color="#600F25"/>
<stop offset="0.3333" stop-color="#DC1F26"/>
<stop offset="0.6848" stop-color="#F78C1E"/>
<stop offset="1" stop-color="#FDBA12"/>
</linearGradient>
<linearGradient id="paint1_linear_216_5087" x1="810.562" y1="211.68" x2="-433.13" y2="238.736" gradientUnits="userSpaceOnUse">
<stop stop-color="#600F25"/>
<stop offset="0.3333" stop-color="#DC1F26"/>
<stop offset="0.6848" stop-color="#F78C1E"/>
<stop offset="1" stop-color="#FDBA12"/>
</linearGradient>
<linearGradient id="paint2_linear_216_5087" x1="810.591" y1="212.752" x2="-461.813" y2="240.433" gradientUnits="userSpaceOnUse">
<stop stop-color="#600F25"/>
<stop offset="0.3333" stop-color="#DC1F26"/>
<stop offset="0.6848" stop-color="#F78C1E"/>
<stop offset="1" stop-color="#FDBA12"/>
</linearGradient>
<linearGradient id="paint3_linear_216_5087" x1="810.627" y1="213.88" x2="-490.554" y2="242.187" gradientUnits="userSpaceOnUse">
<stop stop-color="#600F25"/>
<stop offset="0.3333" stop-color="#DC1F26"/>
<stop offset="0.6848" stop-color="#F78C1E"/>
<stop offset="1" stop-color="#FDBA12"/>
</linearGradient>
<linearGradient id="paint4_linear_216_5087" x1="810.661" y1="214.903" x2="-519.349" y2="243.837" gradientUnits="userSpaceOnUse">
<stop stop-color="#600F25"/>
<stop offset="0.3333" stop-color="#DC1F26"/>
<stop offset="0.6848" stop-color="#F78C1E"/>
<stop offset="1" stop-color="#FDBA12"/>
</linearGradient>
<linearGradient id="paint5_linear_216_5087" x1="810.692" y1="216.019" x2="-548.099" y2="245.578" gradientUnits="userSpaceOnUse">
<stop stop-color="#600F25"/>
<stop offset="0.3333" stop-color="#DC1F26"/>
<stop offset="0.6848" stop-color="#F78C1E"/>
<stop offset="1" stop-color="#FDBA12"/>
</linearGradient>
<linearGradient id="paint6_linear_216_5087" x1="810.728" y1="217.049" x2="-576.873" y2="247.235" gradientUnits="userSpaceOnUse">
<stop stop-color="#600F25"/>
<stop offset="0.3333" stop-color="#DC1F26"/>
<stop offset="0.6848" stop-color="#F78C1E"/>
<stop offset="1" stop-color="#FDBA12"/>
</linearGradient>
<linearGradient id="paint7_linear_216_5087" x1="810.763" y1="218.131" x2="-605.666" y2="248.944" gradientUnits="userSpaceOnUse">
<stop stop-color="#600F25"/>
<stop offset="0.3333" stop-color="#DC1F26"/>
<stop offset="0.6848" stop-color="#F78C1E"/>
<stop offset="1" stop-color="#FDBA12"/>
</linearGradient>
<linearGradient id="paint8_linear_216_5087" x1="810.793" y1="219.196" x2="-634.408" y2="250.636" gradientUnits="userSpaceOnUse">
<stop stop-color="#600F25"/>
<stop offset="0.3333" stop-color="#DC1F26"/>
<stop offset="0.6848" stop-color="#F78C1E"/>
<stop offset="1" stop-color="#FDBA12"/>
</linearGradient>
<linearGradient id="paint9_linear_216_5087" x1="810.83" y1="220.27" x2="-663.174" y2="252.337" gradientUnits="userSpaceOnUse">
<stop stop-color="#600F25"/>
<stop offset="0.3333" stop-color="#DC1F26"/>
<stop offset="0.6848" stop-color="#F78C1E"/>
<stop offset="1" stop-color="#FDBA12"/>
</linearGradient>
<linearGradient id="paint10_linear_216_5087" x1="810.863" y1="221.346" x2="-691.94" y2="254.039" gradientUnits="userSpaceOnUse">
<stop stop-color="#600F25"/>
<stop offset="0.3333" stop-color="#DC1F26"/>
<stop offset="0.6848" stop-color="#F78C1E"/>
<stop offset="1" stop-color="#FDBA12"/>
</linearGradient>
<linearGradient id="paint11_linear_216_5087" x1="810.894" y1="222.415" x2="-720.769" y2="255.736" gradientUnits="userSpaceOnUse">
<stop stop-color="#600F25"/>
<stop offset="0.3333" stop-color="#DC1F26"/>
<stop offset="0.6848" stop-color="#F78C1E"/>
<stop offset="1" stop-color="#FDBA12"/>
</linearGradient>
<linearGradient id="paint12_linear_216_5087" x1="810.93" y1="223.54" x2="-749.455" y2="257.485" gradientUnits="userSpaceOnUse">
<stop stop-color="#600F25"/>
<stop offset="0.3333" stop-color="#DC1F26"/>
<stop offset="0.6848" stop-color="#F78C1E"/>
<stop offset="1" stop-color="#FDBA12"/>
</linearGradient>
<linearGradient id="paint13_linear_216_5087" x1="810.964" y1="224.584" x2="-778.319" y2="259.158" gradientUnits="userSpaceOnUse">
<stop stop-color="#600F25"/>
<stop offset="0.3333" stop-color="#DC1F26"/>
<stop offset="0.6848" stop-color="#F78C1E"/>
<stop offset="1" stop-color="#FDBA12"/>
</linearGradient>
<linearGradient id="paint14_linear_216_5087" x1="810.999" y1="225.701" x2="-806.976" y2="260.899" gradientUnits="userSpaceOnUse">
<stop stop-color="#600F25"/>
<stop offset="0.3333" stop-color="#DC1F26"/>
<stop offset="0.6848" stop-color="#F78C1E"/>
<stop offset="1" stop-color="#FDBA12"/>
</linearGradient>
<linearGradient id="paint15_linear_216_5087" x1="811.031" y1="226.724" x2="-835.759" y2="262.549" gradientUnits="userSpaceOnUse">
<stop stop-color="#600F25"/>
<stop offset="0.3333" stop-color="#DC1F26"/>
<stop offset="0.6848" stop-color="#F78C1E"/>
<stop offset="1" stop-color="#FDBA12"/>
</linearGradient>
<linearGradient id="paint16_linear_216_5087" x1="811.064" y1="227.816" x2="-864.511" y2="264.267" gradientUnits="userSpaceOnUse">
<stop stop-color="#600F25"/>
<stop offset="0.3333" stop-color="#DC1F26"/>
<stop offset="0.6848" stop-color="#F78C1E"/>
<stop offset="1" stop-color="#FDBA12"/>
</linearGradient>
<linearGradient id="paint17_linear_216_5087" x1="811.098" y1="228.905" x2="-893.275" y2="265.983" gradientUnits="userSpaceOnUse">
<stop stop-color="#600F25"/>
<stop offset="0.3333" stop-color="#DC1F26"/>
<stop offset="0.6848" stop-color="#F78C1E"/>
<stop offset="1" stop-color="#FDBA12"/>
</linearGradient>
<linearGradient id="paint18_linear_216_5087" x1="811.133" y1="229.997" x2="-922.028" y2="267.701" gradientUnits="userSpaceOnUse">
<stop stop-color="#600F25"/>
<stop offset="0.3333" stop-color="#DC1F26"/>
<stop offset="0.6848" stop-color="#F78C1E"/>
<stop offset="1" stop-color="#FDBA12"/>
</linearGradient>
<linearGradient id="paint19_linear_216_5087" x1="811.163" y1="231.086" x2="-950.794" y2="269.416" gradientUnits="userSpaceOnUse">
<stop stop-color="#600F25"/>
<stop offset="0.3333" stop-color="#DC1F26"/>
<stop offset="0.6848" stop-color="#F78C1E"/>
<stop offset="1" stop-color="#FDBA12"/>
</linearGradient>
<linearGradient id="paint20_linear_216_5087" x1="811.199" y1="232.173" x2="-979.551" y2="271.13" gradientUnits="userSpaceOnUse">
<stop stop-color="#600F25"/>
<stop offset="0.3333" stop-color="#DC1F26"/>
<stop offset="0.6848" stop-color="#F78C1E"/>
<stop offset="1" stop-color="#FDBA12"/>
</linearGradient>
<linearGradient id="paint21_linear_216_5087" x1="811.234" y1="233.262" x2="-1008.3" y2="272.845" gradientUnits="userSpaceOnUse">
<stop stop-color="#600F25"/>
<stop offset="0.3333" stop-color="#DC1F26"/>
<stop offset="0.6848" stop-color="#F78C1E"/>
<stop offset="1" stop-color="#FDBA12"/>
</linearGradient>
<linearGradient id="paint22_linear_216_5087" x1="-406.652" y1="292.544" x2="944.496" y2="292.544" gradientUnits="userSpaceOnUse">
<stop stop-color="#600F25"/>
<stop offset="0.3333" stop-color="#DC1F26"/>
<stop offset="0.6848" stop-color="#F78C1E"/>
<stop offset="1" stop-color="#FDBA12"/>
</linearGradient>
<linearGradient id="paint23_linear_216_5087" x1="-406.652" y1="292.512" x2="944.496" y2="292.512" gradientUnits="userSpaceOnUse">
<stop stop-color="#600F25"/>
<stop offset="0.3333" stop-color="#DC1F26"/>
<stop offset="0.6848" stop-color="#F78C1E"/>
<stop offset="1" stop-color="#FDBA12"/>
</linearGradient>
<linearGradient id="paint24_linear_216_5087" x1="-406.652" y1="292.506" x2="944.496" y2="292.506" gradientUnits="userSpaceOnUse">
<stop stop-color="#600F25"/>
<stop offset="0.3333" stop-color="#DC1F26"/>
<stop offset="0.6848" stop-color="#F78C1E"/>
<stop offset="1" stop-color="#FDBA12"/>
</linearGradient>
<linearGradient id="paint25_linear_216_5087" x1="-406.652" y1="292.473" x2="944.496" y2="292.473" gradientUnits="userSpaceOnUse">
<stop stop-color="#600F25"/>
<stop offset="0.3333" stop-color="#DC1F26"/>
<stop offset="0.6848" stop-color="#F78C1E"/>
<stop offset="1" stop-color="#FDBA12"/>
</linearGradient>
<linearGradient id="paint26_linear_216_5087" x1="-406.651" y1="292.47" x2="944.496" y2="292.47" gradientUnits="userSpaceOnUse">
<stop stop-color="#600F25"/>
<stop offset="0.3333" stop-color="#DC1F26"/>
<stop offset="0.6848" stop-color="#F78C1E"/>
<stop offset="1" stop-color="#FDBA12"/>
</linearGradient>
<linearGradient id="paint27_linear_216_5087" x1="-406.653" y1="292.303" x2="944.494" y2="292.303" gradientUnits="userSpaceOnUse">
<stop stop-color="#600F25"/>
<stop offset="0.3333" stop-color="#DC1F26"/>
<stop offset="0.6848" stop-color="#F78C1E"/>
<stop offset="1" stop-color="#FDBA12"/>
</linearGradient>
<linearGradient id="paint28_linear_216_5087" x1="-406.653" y1="292.152" x2="944.494" y2="292.152" gradientUnits="userSpaceOnUse">
<stop stop-color="#600F25"/>
<stop offset="0.3333" stop-color="#DC1F26"/>
<stop offset="0.6848" stop-color="#F78C1E"/>
<stop offset="1" stop-color="#FDBA12"/>
</linearGradient>
<linearGradient id="paint29_linear_216_5087" x1="-406.651" y1="291.987" x2="944.496" y2="291.987" gradientUnits="userSpaceOnUse">
<stop stop-color="#600F25"/>
<stop offset="0.3333" stop-color="#DC1F26"/>
<stop offset="0.6848" stop-color="#F78C1E"/>
<stop offset="1" stop-color="#FDBA12"/>
</linearGradient>
<linearGradient id="paint30_linear_216_5087" x1="-406.651" y1="291.712" x2="944.496" y2="291.712" gradientUnits="userSpaceOnUse">
<stop stop-color="#600F25"/>
<stop offset="0.3333" stop-color="#DC1F26"/>
<stop offset="0.6848" stop-color="#F78C1E"/>
<stop offset="1" stop-color="#FDBA12"/>
</linearGradient>
<linearGradient id="paint31_linear_216_5087" x1="-406.652" y1="291.348" x2="944.494" y2="291.348" gradientUnits="userSpaceOnUse">
<stop stop-color="#600F25"/>
<stop offset="0.3333" stop-color="#DC1F26"/>
<stop offset="0.6848" stop-color="#F78C1E"/>
<stop offset="1" stop-color="#FDBA12"/>
</linearGradient>
<linearGradient id="paint32_linear_216_5087" x1="-406.651" y1="290.889" x2="944.494" y2="290.889" gradientUnits="userSpaceOnUse">
<stop stop-color="#600F25"/>
<stop offset="0.3333" stop-color="#DC1F26"/>
<stop offset="0.6848" stop-color="#F78C1E"/>
<stop offset="1" stop-color="#FDBA12"/>
</linearGradient>
<linearGradient id="paint33_linear_216_5087" x1="-406.651" y1="290.295" x2="944.494" y2="290.295" gradientUnits="userSpaceOnUse">
<stop stop-color="#600F25"/>
<stop offset="0.3333" stop-color="#DC1F26"/>
<stop offset="0.6848" stop-color="#F78C1E"/>
<stop offset="1" stop-color="#FDBA12"/>
</linearGradient>
<linearGradient id="paint34_linear_216_5087" x1="-406.652" y1="289.545" x2="944.494" y2="289.545" gradientUnits="userSpaceOnUse">
<stop stop-color="#600F25"/>
<stop offset="0.3333" stop-color="#DC1F26"/>
<stop offset="0.6848" stop-color="#F78C1E"/>
<stop offset="1" stop-color="#FDBA12"/>
</linearGradient>
<linearGradient id="paint35_linear_216_5087" x1="-406.652" y1="285.545" x2="944.494" y2="285.545" gradientUnits="userSpaceOnUse">
<stop stop-color="#600F25"/>
<stop offset="0.3333" stop-color="#DC1F26"/>
<stop offset="0.6848" stop-color="#F78C1E"/>
<stop offset="1" stop-color="#FDBA12"/>
</linearGradient>
<linearGradient id="paint36_linear_216_5087" x1="-406.65" y1="271.697" x2="944.496" y2="271.697" gradientUnits="userSpaceOnUse">
<stop stop-color="#600F25"/>
<stop offset="0.3333" stop-color="#DC1F26"/>
<stop offset="0.6848" stop-color="#F78C1E"/>
<stop offset="1" stop-color="#FDBA12"/>
</linearGradient>
<linearGradient id="paint37_linear_216_5087" x1="-406.65" y1="257.881" x2="944.496" y2="257.881" gradientUnits="userSpaceOnUse">
<stop stop-color="#600F25"/>
<stop offset="0.3333" stop-color="#DC1F26"/>
<stop offset="0.6848" stop-color="#F78C1E"/>
<stop offset="1" stop-color="#FDBA12"/>
</linearGradient>
<linearGradient id="paint38_linear_216_5087" x1="-406.652" y1="244.096" x2="944.494" y2="244.096" gradientUnits="userSpaceOnUse">
<stop stop-color="#600F25"/>
<stop offset="0.3333" stop-color="#DC1F26"/>
<stop offset="0.6848" stop-color="#F78C1E"/>
<stop offset="1" stop-color="#FDBA12"/>
</linearGradient>
<linearGradient id="paint39_linear_216_5087" x1="-406.65" y1="230.347" x2="944.496" y2="230.347" gradientUnits="userSpaceOnUse">
<stop stop-color="#600F25"/>
<stop offset="0.3333" stop-color="#DC1F26"/>
<stop offset="0.6848" stop-color="#F78C1E"/>
<stop offset="1" stop-color="#FDBA12"/>
</linearGradient>
<linearGradient id="paint40_linear_216_5087" x1="-406.646" y1="216.63" x2="944.496" y2="216.63" gradientUnits="userSpaceOnUse">
<stop stop-color="#600F25"/>
<stop offset="0.3333" stop-color="#DC1F26"/>
<stop offset="0.6848" stop-color="#F78C1E"/>
<stop offset="1" stop-color="#FDBA12"/>
</linearGradient>
<linearGradient id="paint41_linear_216_5087" x1="-406.646" y1="202.946" x2="944.496" y2="202.946" gradientUnits="userSpaceOnUse">
<stop stop-color="#600F25"/>
<stop offset="0.3333" stop-color="#DC1F26"/>
<stop offset="0.6848" stop-color="#F78C1E"/>
<stop offset="1" stop-color="#FDBA12"/>
</linearGradient>
<linearGradient id="paint42_linear_216_5087" x1="-406.646" y1="189.313" x2="944.496" y2="189.313" gradientUnits="userSpaceOnUse">
<stop stop-color="#600F25"/>
<stop offset="0.3333" stop-color="#DC1F26"/>
<stop offset="0.6848" stop-color="#F78C1E"/>
<stop offset="1" stop-color="#FDBA12"/>
</linearGradient>
<linearGradient id="paint43_linear_216_5087" x1="-406.646" y1="175.739" x2="944.497" y2="175.739" gradientUnits="userSpaceOnUse">
<stop stop-color="#600F25"/>
<stop offset="0.3333" stop-color="#DC1F26"/>
<stop offset="0.6848" stop-color="#F78C1E"/>
<stop offset="1" stop-color="#FDBA12"/>
</linearGradient>
</defs>
</svg>
