<svg width="36" height="36" viewBox="0 0 36 36" fill="none" xmlns="http://www.w3.org/2000/svg">
<path d="M26.1274 20.8716L21.6274 18.6216C21.5388 18.5774 21.4402 18.5574 21.3414 18.5636C21.2426 18.5698 21.1473 18.6019 21.0649 18.6567L18.7249 20.2177C17.4386 19.6008 16.4013 18.5635 15.7844 17.2772L17.3453 14.9372C17.4002 14.8548 17.4323 14.7594 17.4385 14.6607C17.4446 14.5619 17.4246 14.4633 17.3805 14.3747L15.1305 9.87469C15.0838 9.78076 15.0118 9.70175 14.9226 9.64658C14.8334 9.59142 14.7305 9.56229 14.6257 9.5625C13.283 9.5625 11.9953 10.0959 11.0459 11.0453C10.0965 11.9947 9.56316 13.2823 9.56316 14.625C9.56651 17.7568 10.8121 20.7595 13.0267 22.974C15.2412 25.1885 18.2438 26.4342 21.3757 26.4375C22.7183 26.4375 24.006 25.9041 24.9554 24.9547C25.9048 24.0053 26.4382 22.7177 26.4382 21.375C26.4382 21.2705 26.4092 21.168 26.3543 21.0791C26.2994 20.9902 26.2208 20.9183 26.1274 20.8716ZM21.3757 25.3125C18.5421 25.3095 15.8254 24.1826 13.8217 22.1789C11.8181 20.1753 10.6911 17.4586 10.6882 14.625C10.688 13.6395 11.0574 12.6898 11.7234 11.9634C12.3894 11.237 13.3035 10.7867 14.2853 10.7016L16.226 14.5842L14.6791 16.9102C14.6275 16.9869 14.5957 17.0752 14.5864 17.1671C14.5771 17.2591 14.5905 17.352 14.6257 17.4375C15.373 19.2142 16.7864 20.6276 18.5632 21.375C18.6488 21.4106 18.7418 21.4244 18.8341 21.4153C18.9263 21.4063 19.0149 21.3745 19.0919 21.323L21.4178 19.7761L25.3005 21.7167C25.215 22.6985 24.7644 23.6125 24.0377 24.2783C23.3111 24.944 22.3612 25.3131 21.3757 25.3125ZM18.0007 3.9375C15.5525 3.93705 13.1466 4.57572 11.021 5.79036C8.89545 7.005 7.12378 8.75351 5.88127 10.8629C4.63877 12.9724 3.96849 15.3696 3.93673 17.8176C3.90497 20.2655 4.51283 22.6794 5.70019 24.8203L4.02675 29.8392C3.9276 30.1366 3.91321 30.4556 3.9852 30.7607C4.05719 31.0657 4.21271 31.3447 4.43434 31.5663C4.65597 31.7879 4.93494 31.9435 5.23999 32.0155C5.54504 32.0875 5.86411 32.0731 6.16144 31.9739L11.1803 30.3005C13.0578 31.3407 15.1484 31.9374 17.2921 32.0449C19.4357 32.1523 21.5755 31.7676 23.5476 30.9203C25.5196 30.0729 27.2715 28.7854 28.669 27.1564C30.0665 25.5274 31.0726 23.6001 31.6102 21.5221C32.1478 19.4442 32.2026 17.2708 31.7704 15.1684C31.3382 13.066 30.4305 11.0904 29.1168 9.39303C27.8031 7.69565 26.1184 6.32151 24.1915 5.37588C22.2647 4.43024 20.147 3.93822 18.0007 3.9375ZM18.0007 30.9375C15.726 30.9382 13.4914 30.3391 11.5221 29.2008C11.4365 29.1515 11.3396 29.1253 11.2408 29.1248C11.1801 29.125 11.1198 29.135 11.0622 29.1544L5.80566 30.9066C5.70655 30.9396 5.60019 30.9444 5.49851 30.9204C5.39683 30.8964 5.30384 30.8446 5.22996 30.7707C5.15608 30.6968 5.10424 30.6038 5.08025 30.5022C5.05625 30.4005 5.06105 30.2941 5.0941 30.195L6.84629 24.9384C6.87156 24.8629 6.88049 24.7828 6.87249 24.7035C6.86449 24.6243 6.83974 24.5476 6.79988 24.4786C5.37352 22.0131 4.80069 19.1458 5.17024 16.3215C5.5398 13.4972 6.83108 10.8738 8.84377 8.85824C10.8565 6.84272 13.478 5.54775 16.3018 5.17422C19.1256 4.8007 21.9937 5.3695 24.4612 6.79239C26.9288 8.21528 28.8577 10.4127 29.9489 13.0438C31.0401 15.6749 31.2325 18.5925 30.4962 21.3441C29.76 24.0957 28.1363 26.5274 25.8769 28.2619C23.6176 29.9965 20.849 30.937 18.0007 30.9375Z" fill="white"/>
</svg>
