<svg width="600" height="562" viewBox="0 0 600 562" fill="none" xmlns="http://www.w3.org/2000/svg">
<g opacity="0.2">
<mask id="mask0_71_862" style="mask-type:luminance" maskUnits="userSpaceOnUse" x="-298" y="0" width="1290" height="631">
<path d="M-297.953 0H991.021V630.016H-297.953V0Z" fill="white"/>
</mask>
<g mask="url(#mask0_71_862)">
<path d="M-320.857 -1.57611C-320.93 -1.65105 -304.443 69.3022 -279.767 127.042C-273.266 140.691 -247.415 212.124 -183.437 290.477C-151.51 329.249 -109.469 368.374 -58.7573 398.967C-8.177 429.683 50.6461 451.575 111.624 462.033C233.252 482.246 364.128 465.899 455.608 407.274C502.123 380.935 542.437 354.55 576.806 336.26C611.005 317.559 638.865 306.549 655.999 301.026C690.008 289.139 738.51 281.088 790.58 287.749C842.536 293.649 897.216 315.611 939.571 350.012C982.405 383.927 1011.57 428.403 1027.84 462.79C1044.28 497.391 1049.91 521.304 1050.21 521.124C1049.9 521.304 1044.36 497.366 1028.02 462.688C1011.83 428.214 982.769 383.567 939.929 349.437C897.58 314.806 842.79 292.6 790.69 286.558C738.491 279.741 689.766 287.737 655.647 299.655C638.46 305.203 610.514 316.246 576.268 334.983C541.847 353.298 501.511 379.687 455.056 406.003C363.77 464.508 233.262 480.781 111.806 460.628C50.9565 450.19 -7.72205 428.359 -58.1775 397.716C-108.751 367.208 -150.684 328.189 -182.529 289.508C-246.349 211.361 -272.156 140.075 -278.637 126.45C-303.251 68.8636 -320.919 -1.62607 -320.857 -1.57611Z" fill="url(#paint0_linear_71_862)"/>
<path d="M-353.136 -0.619042C-353.16 -0.716181 -336.535 71.1417 -311.29 129.403C-304.657 143.166 -278.21 215.291 -212.976 293.968C-180.444 332.898 -137.567 372.07 -85.7449 401.864C-34.104 431.822 25.8916 452.493 87.8895 460.32C149.909 468.496 213.334 464.527 273.17 454.639C333.484 446.765 389.141 425.258 437.284 401.603C485.566 378.018 527.867 354.669 563.579 338.674C599.16 322.33 627.866 313.115 645.403 308.433C680.331 298.514 729.355 292.214 782.037 297.759C834.59 302.924 890.6 321.933 934.841 354.438C979.565 386.355 1010.34 430.448 1027.18 464.983C1044.22 499.719 1049.95 523.929 1050.28 523.729C1049.95 523.929 1044.3 499.694 1027.36 464.874C1010.6 430.248 979.92 385.97 935.179 353.828C890.927 321.1 834.807 301.861 782.13 296.546C729.333 290.854 680.141 297.076 645.106 307.026C627.522 311.719 598.744 320.961 563.107 337.333C527.346 353.342 485.019 376.711 436.788 400.277C388.66 423.912 333.226 445.341 272.989 453.212C213.213 463.09 149.913 467.039 88.0253 458.885C26.174 451.083 -33.6687 430.454 -85.1737 400.568C-136.856 370.86 -179.618 331.799 -212.064 292.971C-277.134 214.5 -303.532 142.522 -310.147 128.784C-335.328 70.6977 -353.153 -0.691203 -353.136 -0.619042Z" fill="url(#paint1_linear_71_862)"/>
<path d="M-385.242 0.330187C-385.272 0.227497 -368.52 73.0374 -342.74 131.918C-336.002 145.814 -308.955 218.765 -242.336 297.826C-209.131 336.923 -165.351 376.2 -112.365 405.175C-59.6337 434.409 1.59692 453.97 64.6145 459.077C127.666 464.644 191.583 456.865 251.869 445.083C312.626 435.372 369.356 416.213 419.214 395.267C469.169 374.482 513.365 354.352 550.37 340.872C587.283 327.062 616.759 319.637 634.701 315.88C670.515 308.07 720.088 303.227 773.464 307.737C826.685 312.166 883.965 328.266 930.071 358.796C976.661 388.665 1009.09 432.372 1026.52 467.103C1044.17 502.018 1050 526.552 1050.34 526.333C1050 526.552 1044.25 502.001 1026.69 466.989C1009.35 432.172 977.006 388.259 930.39 358.171C884.256 327.411 826.873 311.081 773.542 306.507C720.065 301.858 670.381 306.618 634.464 314.453C616.479 318.214 586.934 325.646 549.972 339.49C512.917 352.984 468.695 373.133 418.776 393.893C368.927 414.831 312.378 433.94 251.654 443.642C191.4 455.424 127.608 463.179 64.7028 457.628C1.84485 452.529 -59.2198 433.024 -111.813 403.865C-164.653 374.979 -208.301 335.807 -241.427 296.826C-307.871 217.961 -334.864 145.165 -341.602 131.293C-367.298 72.5878 -385.266 0.258026 -385.242 0.330187Z" fill="url(#paint2_linear_71_862)"/>
<path d="M-417.417 1.40147C-417.456 1.29878 -400.475 75.0246 -374.09 134.563C-367.219 148.623 -339.419 222.365 -271.481 302.039C-237.519 341.344 -192.634 380.441 -138.546 408.836C-84.6853 437.448 -22.1226 455.657 41.8628 458.213C105.943 461.105 170.252 449.374 231.01 435.638C292.2 423.629 350.068 406.749 401.523 388.49C453.065 370.522 499.067 354.008 537.265 343.09C575.406 331.91 605.613 326.365 623.945 323.592C695.992 313.063 827.762 305.286 925.272 363.114C973.692 390.849 1007.83 434.178 1025.84 469.146C1044.11 504.296 1050.05 529.183 1050.41 528.95C1050.05 529.183 1044.19 504.274 1026.01 469.032C1008.09 433.97 974.029 390.427 925.565 362.465C877.595 333.745 818.998 320.273 764.95 316.46C710.707 312.657 660.5 316.548 623.766 322.13C605.397 324.905 575.132 330.467 536.945 341.66C498.699 352.593 452.664 369.126 401.142 387.077C349.684 405.339 291.956 422.18 230.767 434.187C170.006 447.933 105.829 459.623 41.9059 456.748C-21.9048 454.195 -84.293 436.032 -138.003 407.504C-191.942 379.184 -236.696 340.203 -270.554 301.012C-338.327 221.544 -366.072 147.962 -372.928 133.93C-399.238 74.5694 -417.45 1.33764 -417.417 1.40147Z" fill="url(#paint3_linear_71_862)"/>
<path d="M-449.652 2.2423C-449.703 2.13406 -432.421 77.0949 -405.412 137.371C-398.39 151.59 -369.918 226.331 -300.389 306.501C-265.761 346.19 -219.66 385.09 -164.398 412.872C-109.313 440.709 -45.394 457.68 19.5634 457.564C84.6566 457.836 149.261 441.999 210.521 426.246C272.207 412.064 331.189 396.757 384.164 381.365C490.003 349.823 575.418 333.731 612.988 331.258C650.387 327.714 701.233 325.052 756.189 327.767C810.951 330.717 870.599 341.161 920.354 367.474C970.607 392.961 1006.54 435.863 1025.14 471.119C1044.05 506.533 1050.09 531.811 1050.48 531.559C1050.09 531.811 1044.13 506.514 1025.32 470.994C1006.81 435.644 970.935 392.517 920.628 366.8C870.826 340.253 811.074 329.604 756.243 326.495C701.203 323.651 650.342 326.212 612.863 329.768C575.241 332.24 489.681 348.371 383.845 379.914C330.844 395.314 271.97 410.587 210.237 424.789C148.954 440.548 84.4756 456.345 19.5656 456.071C-45.2043 456.19 -108.948 439.26 -163.866 411.503C-218.97 383.802 -264.934 345.018 -299.464 305.444C-368.81 225.482 -397.23 150.904 -404.229 136.711C-431.164 76.6342 -449.695 2.17014 -449.652 2.2423Z" fill="url(#paint4_linear_71_862)"/>
<path d="M-481.835 3.29405C-481.891 3.18859 -464.356 79.268 -436.675 140.338C-429.491 154.717 -400.31 230.55 -329.076 311.264C-293.668 351.296 -246.377 390.158 -189.828 417.232C-133.428 444.134 -68.1449 460.087 -2.20032 457.12C63.8953 454.672 128.682 434.692 190.48 416.887C252.687 400.39 312.87 386.463 367.27 373.913C476.154 348.657 563.843 340.264 601.96 338.982C640.073 337.483 691.693 336.054 747.522 337.702C803.15 339.864 863.93 347.566 915.442 371.718C967.467 394.945 1005.24 437.411 1024.43 473.023C1043.99 508.739 1050.13 534.448 1050.54 534.168C1050.13 534.448 1044.07 508.723 1024.6 472.892C1005.51 437.178 967.781 394.476 915.694 371.018C864.124 346.631 803.237 338.726 747.556 336.417C691.652 334.636 640.076 335.962 601.893 337.466C563.735 338.751 475.934 347.155 367.007 372.42C312.562 384.987 252.439 398.897 190.148 415.411C128.316 433.223 63.6452 453.162 -2.25854 455.599C-67.9919 458.555 -133.085 442.649 -189.324 415.836C-245.7 388.834 -292.838 350.097 -328.149 310.184C-399.192 229.681 -428.316 154.021 -435.485 139.663C-463.082 78.7878 -481.884 3.22189 -481.835 3.29405Z" fill="url(#paint5_linear_71_862)"/>
<path d="M-514.047 4.15152C-514.109 4.02662 -496.264 81.5186 -467.868 143.435C-460.518 158.003 -430.572 234.99 -357.544 316.312C-321.285 356.669 -272.771 395.528 -214.862 421.858C-157.096 447.797 -90.373 462.679 -23.4648 456.809C43.6006 451.499 108.483 427.389 170.834 407.501C233.567 388.581 295.108 376.153 350.833 366.378C462.567 347.538 552.116 346.9 590.826 346.764C629.61 347.275 682.072 347.05 738.823 347.613C795.381 348.948 857.267 353.983 910.492 375.919C964.235 396.84 1003.94 438.816 1023.68 474.871C1043.95 510.901 1050.16 537.084 1050.62 536.776C1050.16 537.084 1044.04 510.879 1023.86 474.732C1004.21 438.58 964.543 396.355 910.721 375.201C857.424 353.02 795.439 347.796 738.841 346.314C682.02 345.606 629.655 345.737 590.816 345.218C552.082 345.362 462.457 346.001 350.631 364.854C294.841 374.646 233.319 387.063 170.474 406.016C108.054 425.932 43.2967 449.984 -23.5748 455.271C-90.2458 461.127 -156.772 446.293 -214.367 420.423C-272.099 394.179 -320.451 355.445 -356.6 315.21C-429.444 234.105 -459.328 157.293 -466.661 142.752C-494.971 81.0301 -514.101 4.06826 -514.047 4.15152Z" fill="url(#paint6_linear_71_862)"/>
<path d="M-546.281 5.12905C-546.35 5.00693 -528.166 83.8505 -499.007 146.677C-491.484 161.44 -460.717 239.656 -385.797 321.622C-348.632 362.332 -298.823 401.182 -239.485 426.702C-180.315 451.666 -112.075 465.413 -44.2357 456.568C23.7631 448.25 88.6796 420.174 151.535 397.915C214.904 376.861 277.81 365.385 334.813 358.546C449.207 346.248 540.215 353.573 579.563 354.544C618.978 357.108 672.35 358.052 730.08 357.5C787.621 357.988 850.589 360.386 905.486 380.094C960.908 398.673 1002.59 440.104 1022.91 476.656C1043.9 513.033 1050.19 539.724 1050.68 539.38C1050.19 539.724 1044 513.008 1023.09 476.52C1002.87 439.863 961.203 398.159 905.693 379.348C850.718 359.401 787.653 356.811 730.085 356.179C672.296 356.584 619.069 355.54 579.617 352.976C540.263 352.007 449.213 344.672 334.673 356.978C277.579 363.836 214.646 375.309 151.141 396.414C88.1924 418.706 23.3901 446.723 -44.391 455.013C-111.974 463.825 -180.014 450.126 -239.007 425.233C-298.153 399.789 -347.798 361.074 -384.846 320.481C-459.564 238.735 -490.268 160.704 -497.776 145.964C-526.858 83.3566 -546.339 5.04301 -546.281 5.12905Z" fill="url(#paint7_linear_71_862)"/>
<path d="M-578.452 6.0617C-578.523 5.9257 -560.063 86.2653 -530.085 150.044C-522.383 165.02 -490.737 244.519 -413.834 327.181C-375.718 368.26 -324.528 407.082 -263.713 431.747C-203.099 455.71 -133.275 468.225 -64.528 456.34C4.36536 444.967 69.1718 412.753 132.627 388.329C196.604 364.957 261.026 354.516 319.226 350.631C436.081 344.997 528.155 360.247 568.19 362.337C588.223 364.061 611.75 366.481 637.711 367.425C663.665 368.23 691.919 367.622 721.305 367.38C779.875 366.978 843.912 366.795 900.438 384.255C957.493 400.446 1001.21 441.295 1022.12 478.38C1043.85 515.14 1050.22 542.375 1050.75 541.992C1050.21 542.364 1043.94 515.118 1022.3 478.235C1001.49 441.042 957.773 399.914 900.617 383.478C844.003 365.79 779.878 365.776 721.29 366.029C691.906 366.198 663.641 366.742 637.743 365.89C611.86 364.91 588.323 362.462 568.298 360.739C528.273 358.657 436.2 343.398 319.155 349.038C260.835 352.929 196.339 363.384 132.189 386.814C68.6223 411.279 3.92126 443.426 -64.7437 454.75C-133.202 466.604 -202.83 454.125 -263.25 430.235C-323.864 405.653 -374.88 366.961 -412.879 326.018C-489.577 243.575 -521.151 164.262 -528.841 149.314C-558.72 85.7602 -578.519 5.97288 -578.452 6.0617Z" fill="url(#paint8_linear_71_862)"/>
<path d="M-610.656 7.01875C-610.724 6.87442 -591.927 88.7571 -561.105 153.532C-553.212 168.739 -520.643 249.575 -441.675 332.962C-402.549 374.415 -349.899 413.193 -287.56 436.94C-225.453 459.873 -153.985 471.072 -84.3851 456.051C-14.6361 441.541 49.9657 405.181 114.059 378.637C178.674 352.984 244.707 343.245 304.06 342.693C363.573 342.19 416.621 349.706 459.756 355.873C502.907 362.287 536.36 367.491 556.692 370.155C577.021 372.808 600.918 376.175 627.353 377.491C653.784 378.698 682.568 377.962 712.484 377.252C772.134 375.939 837.226 373.219 895.335 388.401C953.979 402.194 999.785 442.385 1021.31 480.053C1043.79 517.224 1050.24 545.017 1050.82 544.603C1050.24 545.017 1043.89 517.202 1021.49 479.909C1000.07 442.133 954.253 401.625 895.492 387.61C837.282 372.19 772.102 374.712 712.451 375.872C682.542 376.511 653.758 377.174 627.403 375.931C601.067 374.585 577.172 371.188 556.854 368.545C536.534 365.873 503.096 360.677 459.931 354.258C416.78 348.094 363.678 340.561 304.036 341.066C244.556 341.624 178.385 351.377 113.582 377.096C49.3492 403.704 -15.1426 440.004 -84.6503 454.447C-153.951 469.415 -225.213 458.26 -287.119 435.397C-349.25 411.728 -401.712 373.094 -440.713 331.771C-519.466 248.612 -551.973 167.962 -559.844 152.788C-590.571 88.2353 -610.72 6.91328 -610.656 7.01875Z" fill="url(#paint9_linear_71_862)"/>
<path d="M-642.858 7.97092C-642.932 7.8155 -623.797 91.3107 -592.073 157.138C-583.988 172.58 -550.444 254.812 -469.31 338.96C-429.13 380.791 -374.961 419.494 -311.038 442.249C-247.41 464.128 -174.238 473.911 -103.832 455.657C-33.2789 437.934 31.0168 397.435 95.791 368.812C161.089 340.914 228.87 332.143 289.275 334.822C349.887 337.406 403.449 349.037 447.026 358.008C490.612 367.347 524.47 374.335 545.094 377.938C565.704 381.523 589.966 385.825 616.895 387.543C643.817 389.153 673.159 388.284 703.625 387.096C764.396 384.84 830.537 379.625 890.188 392.536C950.379 403.904 998.313 443.384 1020.47 481.671C1043.73 519.272 1050.26 547.667 1050.88 547.212C1050.26 547.659 1043.83 519.25 1020.66 481.516C998.602 443.104 950.634 403.316 890.323 391.726C830.563 378.579 764.334 383.608 703.575 385.695C673.125 386.805 643.793 387.607 616.964 385.959C590.15 384.207 565.894 379.88 545.311 376.3C524.711 372.703 490.879 365.723 447.287 356.381C403.694 347.405 350.075 335.752 289.323 333.159C228.765 330.489 160.789 339.271 95.2781 367.261C30.3357 395.961 -33.8607 436.39 -104.162 454.042C-174.243 472.224 -247.199 462.476 -310.611 440.664C-374.312 417.984 -428.289 379.422 -468.342 337.733C-549.25 253.819 -582.725 171.778 -590.791 156.372C-622.407 90.7862 -642.923 7.85713 -642.858 7.97092Z" fill="url(#paint10_linear_71_862)"/>
<path d="M-675.129 8.9172C-675.23 8.76455 -655.605 93.925 -622.99 160.848C-614.711 176.54 -580.131 260.222 -496.748 345.152C-455.469 387.36 -399.696 425.955 -334.146 447.656C-268.968 468.443 -194.04 476.7 -122.887 455.119C-51.5972 434.101 12.317 389.486 77.8328 358.843C143.859 328.735 213.509 321.042 274.882 327.053C336.514 332.809 390.424 348.457 434.37 360.192C478.299 372.384 512.532 381.163 533.425 385.686C554.301 390.21 578.934 395.47 606.373 397.587C633.803 399.713 663.737 398.581 694.767 396.938C756.7 393.699 823.882 386.02 885.039 396.674C915.457 401.961 943.985 412.586 967.064 428.464C990.274 444.15 1007.6 464.444 1019.67 483.217C1043.63 521.323 1050.41 550.257 1050.96 549.824C1050.41 550.26 1043.73 521.298 1019.86 483.061C1007.83 464.225 990.533 443.823 967.307 428.011C944.216 411.997 915.625 401.237 885.153 395.839C823.88 384.945 756.607 392.442 694.702 395.514C663.693 397.079 633.784 398.137 606.463 395.975C579.16 393.824 554.547 388.542 533.707 384.032C512.84 379.508 478.648 370.752 434.713 358.549C390.763 346.817 336.792 331.141 274.992 325.369C213.449 319.34 143.549 327.053 77.2788 357.272C11.5756 388.012 -52.2416 432.552 -123.273 453.484C-194.074 474.971 -268.781 466.756 -333.738 446.029C-399.056 424.412 -454.622 385.953 -495.774 343.892C-578.915 259.186 -613.418 175.722 -621.682 160.066C-654.195 93.381 -675.217 8.81451 -675.129 8.9172Z" fill="url(#paint11_linear_71_862)"/>
<path d="M-707.242 9.9807C-707.365 9.81695 -687.398 96.5899 -653.853 164.662C-645.371 180.615 -609.709 265.781 -524.02 351.519C-481.585 394.099 -424.141 432.55 -356.938 453.118C-290.174 472.79 -213.457 479.418 -141.619 454.411C-69.6649 430.018 -6.20337 381.338 60.112 348.732C126.91 316.407 198.548 310.074 260.791 319.43C323.358 328.422 377.487 347.975 421.728 362.396C465.921 377.377 500.495 387.927 521.649 393.383C542.781 398.842 567.77 405.087 595.737 407.624C623.694 410.202 654.237 408.9 685.849 406.763C748.979 402.545 817.197 392.417 879.822 400.81C910.969 404.99 940.391 414.64 964.304 430.093C988.355 445.339 1006.33 465.743 1018.8 484.73C1043.55 523.336 1050.45 552.897 1051.03 552.43C1050.44 552.894 1043.65 523.311 1018.99 484.569C1006.56 465.513 988.607 444.997 964.539 429.622C940.605 414.029 911.116 404.254 879.911 399.955C817.163 391.332 748.851 401.262 685.767 405.315C654.181 407.368 623.67 408.59 595.845 405.978C568.035 403.402 543.075 397.152 521.985 391.704C500.859 386.259 466.342 375.718 422.146 360.742C377.903 346.323 323.72 326.735 260.961 317.72C198.537 308.325 126.585 314.678 59.5214 347.142C-7.00952 379.861 -70.3762 428.47 -142.063 452.76C-213.526 477.653 -290.019 471.067 -356.55 451.453C-423.514 430.954 -480.736 392.653 -523.024 350.209C-608.482 264.718 -644.058 179.76 -652.516 163.843C-685.956 96.032 -707.352 9.87246 -707.242 9.9807Z" fill="url(#paint12_linear_71_862)"/>
<path d="M-739.553 10.8772C-739.702 10.719 -719.169 99.3153 -684.662 168.567C-675.973 184.792 -639.19 271.49 -551.095 358.044C-507.46 401.002 -448.286 439.272 -379.39 458.627C-345.03 468.397 -308.509 473.592 -271.284 473.515C-234.098 474.161 -196 467.761 -160.023 453.496C-87.4719 425.656 -24.5298 372.97 42.6414 338.45C110.284 303.962 183.969 298.989 246.996 311.842C310.42 324.129 364.633 347.5 409.107 364.574C453.497 382.298 488.372 394.632 509.78 401.018C531.154 407.418 556.492 414.665 585.002 417.646C613.495 420.696 644.679 419.228 676.888 416.597C741.246 411.371 810.504 398.834 874.565 404.976C906.425 408.043 936.729 416.683 961.484 431.7C986.38 446.471 1005.03 466.987 1017.91 486.215C1043.46 525.334 1050.48 555.544 1051.09 555.036C1050.48 555.542 1043.57 525.309 1018.1 486.057C1005.27 466.757 986.636 446.121 961.713 431.209C936.929 416.058 906.554 407.285 874.629 404.102C810.441 397.718 741.089 410.066 676.789 415.117C644.614 417.665 613.474 419.058 585.127 415.969C556.8 412.966 531.495 405.712 510.175 399.328C488.81 392.95 453.992 380.633 409.609 362.918C365.135 345.849 310.873 322.441 247.246 310.104C184.019 297.21 109.948 302.203 42.0184 336.843C-25.3898 371.502 -88.25 424.112 -160.523 451.839C-232.574 480.237 -310.898 475.394 -379.022 456.929C-447.671 437.637 -506.613 399.52 -550.099 356.715C-637.942 270.405 -674.641 183.935 -683.31 167.74C-717.701 98.7408 -739.691 10.7689 -739.553 10.8772Z" fill="url(#paint13_linear_71_862)"/>
<path d="M-771.629 11.9231C-771.797 11.7538 -750.928 102.088 -715.431 172.552C-706.536 189.066 -668.582 277.329 -578.018 364.713C-533.074 407.929 -472.214 446.135 -401.566 464.158C-366.359 473.411 -328.993 477.611 -291.042 476.614C-253.097 476.256 -214.426 468.344 -178.179 452.371C-105.154 420.94 -42.718 364.441 25.354 328.036C93.896 291.348 169.76 288.298 233.45 304.623C297.632 320.262 351.855 347.256 396.525 366.872C441.068 387.21 476.224 401.301 497.869 408.611C519.488 415.833 545.123 424.354 574.201 427.789C603.259 431.062 635.093 429.61 667.917 426.418C733.527 420.149 803.817 405.223 869.283 409.139C901.84 411.101 933.008 418.725 958.61 433.276C984.355 447.567 1003.7 468.194 1016.99 487.663C1043.37 527.299 1050.51 558.183 1051.16 557.648C1050.5 558.183 1043.48 527.277 1017.18 487.491C1003.94 467.95 984.612 447.201 958.828 432.774C933.193 418.087 901.947 410.324 869.32 408.242C803.724 404.104 733.335 418.828 667.796 424.903C635.015 428.017 603.237 429.388 574.343 426.083C545.47 422.635 519.878 414.098 498.315 406.905C476.717 399.602 441.633 385.548 397.096 365.21C352.426 345.599 298.168 318.572 233.758 302.866C169.868 286.483 93.5511 289.536 24.6945 326.404C-43.6406 362.973 -106.005 419.408 -178.748 450.698C-214.87 466.592 -253.239 474.458 -291.094 474.819C-328.92 475.809 -366.156 471.624 -401.23 462.401C-471.619 444.447 -532.238 406.391 -577.018 363.339C-667.323 276.2 -705.189 188.172 -714.063 171.697C-749.428 101.505 -771.786 11.8065 -771.629 11.9231Z" fill="url(#paint14_linear_71_862)"/>
<path d="M-803.85 12.7668C-804.042 12.6031 -782.675 104.907 -746.161 176.621C-737.044 193.423 -697.883 283.294 -604.781 371.51C-558.46 414.912 -495.908 453.118 -423.467 469.684C-351.808 485.496 -269.491 487.083 -196.103 451.017C-122.701 415.93 -60.7802 355.715 8.24902 317.476C42.8358 298.547 79.9767 288.128 116.208 285.359C152.543 282.872 187.766 288.339 220.122 297.631C284.98 316.668 339.132 347.122 383.964 369.215C428.621 392.095 464.027 407.915 485.902 416.161C507.746 424.29 533.698 433.876 563.349 437.789C592.969 441.569 625.487 439.943 658.931 436.235C725.818 428.919 797.147 411.631 863.984 413.324C897.228 414.196 929.241 420.79 955.693 434.858C982.294 448.636 1002.35 469.368 1016.07 489.084C1043.29 529.266 1050.55 560.842 1051.23 560.262C1050.54 560.837 1043.4 529.239 1016.26 488.904C1002.59 469.118 982.546 448.25 955.904 434.334C929.409 420.126 897.314 413.399 864.001 412.419C797.022 410.493 725.598 427.576 658.791 434.695C625.394 438.322 592.948 439.865 563.51 436.052C534.095 432.133 508.186 422.536 486.403 414.426C464.585 406.205 429.25 390.424 384.606 367.547C339.778 345.468 285.585 314.972 220.501 295.852C188.033 286.541 152.634 281.034 116.096 283.535C79.6578 286.322 42.3077 296.804 7.5592 315.816C-61.7673 354.252 -123.608 414.406 -196.732 449.338C-269.723 485.226 -351.746 483.655 -423.152 467.902C-495.324 451.389 -557.628 413.338 -603.775 370.1C-696.607 282.139 -735.673 192.507 -744.769 175.747C-781.145 104.308 -804.031 12.6614 -803.85 12.7668Z" fill="url(#paint15_linear_71_862)"/>
<path d="M-836.036 13.758C-836.258 13.5887 -814.399 107.78 -776.847 180.762C-767.496 197.839 -727.146 289.419 -631.356 378.363C-583.697 422.025 -519.347 460.145 -445.11 475.199C-371.794 489.476 -287.539 489.518 -213.847 449.374C-140.123 410.679 -78.7548 346.754 -8.69751 306.746C26.4066 287.08 64.3796 276.311 101.413 274.546C138.541 272.614 174.294 280.13 206.973 290.863C272.396 313.371 326.458 347.092 371.416 371.602C416.158 396.941 451.796 414.465 473.888 423.632C495.945 432.672 522.203 443.346 552.431 447.767C582.621 452.058 615.845 450.276 649.921 446.035C718.11 437.651 790.471 418.009 858.657 417.524C892.574 417.29 925.413 422.855 952.72 436.413C980.177 449.663 1000.97 470.492 1015.11 490.458C1043.2 531.196 1050.58 563.485 1051.3 562.866C1050.57 563.476 1043.31 531.174 1015.31 490.272C1001.2 470.229 980.431 449.271 952.921 435.872C925.57 422.172 892.641 416.472 858.653 416.588C790.322 416.855 717.86 436.28 649.768 444.476C615.744 448.622 582.608 450.318 552.619 445.994C522.651 441.57 496.44 430.901 474.453 421.884C452.419 412.744 416.86 395.254 372.132 369.928C327.182 345.424 273.09 311.667 207.43 289.072C174.632 278.301 138.692 270.733 101.337 272.678C64.0822 274.454 25.8721 285.298 -9.41089 305.064C-79.8002 345.285 -141.091 409.153 -214.543 447.67C-287.814 487.614 -371.742 487.586 -444.811 473.365C-518.776 458.364 -582.849 420.402 -630.337 376.903C-725.846 288.223 -766.095 196.89 -775.42 179.852C-812.849 107.161 -836.243 13.647 -836.036 13.758Z" fill="url(#paint16_linear_71_862)"/>
<path d="M-868.237 14.7453C-868.474 14.5733 -846.133 110.697 -807.552 185.011C-797.956 202.349 -756.467 295.81 -657.796 385.306C-608.858 429.468 -542.553 467.097 -466.543 480.744C-428.731 488.132 -388.827 489.167 -348.705 485.254C-308.439 482.068 -268.185 468.873 -231.467 447.478C-157.417 405.297 -96.6953 337.58 -25.5646 295.805C10.1107 275.417 48.9933 264.52 86.8154 263.815C124.747 262.714 161.011 271.992 193.938 284.403C259.868 310.337 313.822 347.139 358.88 374.041C403.69 401.75 439.538 420.981 461.842 431.056C484.106 440.983 510.66 452.773 541.468 457.722C572.248 462.581 606.197 460.522 640.913 455.735C710.416 446.198 783.823 424.239 853.342 421.633C887.922 420.326 921.569 424.872 949.726 437.925C978.034 450.658 999.563 471.585 1014.14 491.818C1043.1 533.118 1050.61 566.137 1051.37 565.485C1050.6 566.135 1043.22 533.096 1014.34 491.621C999.804 471.318 978.284 450.245 949.92 437.37C921.709 424.173 887.967 419.488 853.309 420.678C783.644 423.06 710.134 444.813 640.736 454.144C606.083 458.835 572.229 460.794 541.683 455.915C511.151 450.978 484.647 439.193 462.461 429.288C440.221 419.244 404.457 400.066 359.664 372.359C314.619 345.473 260.627 308.638 194.469 282.597C161.41 270.138 124.954 260.81 86.7788 261.909C48.7045 262.619 9.55457 273.599 -26.3147 294.098C-97.8011 336.118 -158.456 403.782 -232.227 445.776C-305.682 489.822 -391.547 491.376 -466.286 478.873C-542.004 465.279 -608.026 427.797 -656.774 383.81C-755.155 294.586 -796.525 201.38 -806.095 184.087C-844.54 110.064 -868.462 14.6343 -868.237 14.7453Z" fill="url(#paint17_linear_71_862)"/>
<path d="M-900.422 15.7366C-900.698 15.5617 -877.839 113.647 -838.15 189.269C-828.298 206.892 -785.555 302.128 -684.088 392.334C-633.768 436.887 -565.472 473.881 -487.719 486.181C-411.036 497.18 -322.94 493.511 -248.918 445.305C-174.662 399.558 -114.559 328.178 -42.2428 284.815C-6.01782 263.674 33.8455 252.67 72.4523 253.164C111.158 253.181 147.922 264.01 181.026 278.301C247.358 307.659 301.172 347.472 346.318 376.655C391.18 406.666 427.233 427.545 449.749 438.505C472.222 449.304 499.071 462.11 530.461 467.661C561.827 473.073 596.522 470.891 631.885 465.557C702.724 454.925 777.166 430.64 847.988 425.88C883.22 423.49 917.66 426.985 946.67 439.482C975.836 451.641 998.13 472.651 1013.16 493.136C1043.01 535.023 1050.65 568.783 1051.44 568.089C1050.64 568.774 1043.13 535.001 1013.36 492.939C998.378 472.368 976.086 451.217 946.86 438.908C917.787 426.26 883.248 422.636 847.939 424.914C776.961 429.449 702.412 453.506 631.688 463.931C596.393 469.165 561.814 471.247 530.698 465.826C499.622 460.289 472.808 447.487 450.422 436.726C427.979 425.794 392.012 404.978 347.166 374.979C302.039 345.81 248.197 305.955 181.625 276.488C148.394 262.145 111.432 251.243 72.4588 251.224C33.5762 250.73 -6.58252 261.82 -43.0123 283.083C-115.71 326.707 -175.742 398.051 -249.738 443.604C-323.323 491.554 -411.041 495.212 -487.48 484.258C-564.931 472.004 -632.932 435.172 -683.044 390.799C-784.212 300.865 -826.847 205.888 -836.665 188.317C-876.22 112.998 -900.683 15.6228 -900.422 15.7366Z" fill="url(#paint18_linear_71_862)"/>
<path d="M-932.623 16.7248C-932.929 16.55 -909.535 116.634 -868.717 193.599C-858.612 211.503 -814.576 308.547 -710.244 399.453C-658.513 444.392 -588.186 480.664 -508.679 491.582C-430.297 500.974 -340.3 495.096 -266.27 442.832C-191.969 393.361 -132.353 318.569 -58.7969 273.663C-21.949 251.871 18.8995 240.875 58.2887 242.468C97.7705 243.744 134.937 256.367 168.24 272.265C234.915 305.017 288.586 347.708 333.81 379.123C378.722 411.373 414.927 433.926 437.616 445.858C460.287 457.553 487.418 471.405 519.392 477.58C551.347 483.578 586.809 481.272 622.832 475.388C695.025 463.64 770.499 437.06 842.608 430.168C878.48 426.721 913.698 429.119 943.566 441.059C973.584 452.618 996.662 473.706 1012.15 494.447C1042.91 536.916 1050.67 571.439 1051.5 570.704C1050.66 571.425 1043.04 536.891 1012.35 494.244C996.908 473.417 973.834 452.186 943.745 440.468C913.81 428.373 878.488 425.841 842.535 429.189C770.266 435.836 694.68 462.202 622.618 473.731C586.667 479.515 551.341 481.713 519.653 475.71C488.026 469.554 460.925 455.716 438.349 444.073C415.733 432.178 379.614 409.678 334.729 377.447C289.513 346.046 235.827 303.321 168.912 270.438C135.481 254.474 98.1089 241.774 58.3296 240.495C18.6537 238.876 -22.5331 249.978 -59.5944 271.898C-133.568 317.098 -193.118 391.862 -267.15 441.117C-340.75 493.109 -430.33 498.962 -508.475 489.615C-587.669 478.735 -657.687 442.627 -709.201 397.871C-813.211 307.251 -857.138 210.47 -867.21 192.613C-907.878 115.968 -932.911 16.6138 -932.623 16.7248Z" fill="url(#paint19_linear_71_862)"/>
<path d="M-964.815 17.7151C-965.153 17.5374 -941.219 119.653 -899.252 197.966C-888.884 216.156 -843.531 315.055 -736.281 406.624C-683.096 451.919 -610.726 487.494 -529.448 496.861C-449.374 504.726 -357.471 496.458 -283.529 440.148C-209.12 387.191 -150.118 308.799 -75.2585 262.433C-37.7511 240.05 4.12329 229.093 44.2776 232.018C84.5139 234.574 122.058 248.945 155.513 266.519C222.479 302.585 276.017 348.041 321.325 381.626C366.271 416.058 402.638 440.231 425.497 453.084C448.35 465.671 475.733 480.669 508.293 487.477C540.843 494.08 577.088 491.66 613.776 485.21C687.336 472.326 763.844 443.462 837.228 434.467C873.733 429.971 909.703 431.27 940.425 442.632C971.3 453.598 995.174 474.735 1011.12 495.739C1042.82 538.797 1050.7 574.095 1051.57 573.306C1050.7 574.083 1042.94 538.769 1011.33 495.534C995.424 474.433 971.546 453.137 940.598 442.027C909.805 430.506 873.72 429.08 837.133 433.465C763.588 442.224 686.963 470.872 613.543 483.525C576.939 489.861 540.845 492.176 508.582 485.57C476.39 478.793 449.037 463.82 426.293 451.283C403.505 438.475 367.226 414.359 322.304 379.941C277.017 346.376 223.469 300.898 156.255 264.684C122.677 247.047 84.9191 232.576 44.3704 230.006C3.90344 227.055 -38.3309 238.107 -76.0776 260.638C-151.39 307.34 -210.318 385.706 -284.473 438.438C-357.992 494.46 -449.423 502.67 -529.264 494.86C-610.224 485.52 -682.273 450.106 -735.237 405C-842.138 313.717 -887.388 215.099 -897.715 196.962C-939.533 118.97 -965.136 17.6096 -964.815 17.7151Z" fill="url(#paint20_linear_71_862)"/>
<path d="M-997.004 18.7033C-997.377 18.5285 -972.893 122.703 -929.755 202.393C-919.12 220.866 -872.432 321.644 -762.203 413.851C-707.526 459.418 -633.084 494.388 -550.027 501.967C-468.25 508.556 -374.498 497.491 -300.725 437.215C-226.24 380.835 -167.863 298.833 -91.5917 251.154C-53.4548 228.038 -10.4595 217.469 30.4255 221.688C71.4055 225.612 109.234 241.851 142.838 261.004C210.044 300.371 263.482 348.438 308.848 384.163C353.838 420.704 390.345 446.504 413.393 460.242C436.414 473.719 464.01 489.883 497.164 497.399C530.321 504.529 567.359 502.051 604.72 495.046C679.657 480.983 757.209 449.873 831.845 438.783C868.973 433.207 905.691 433.521 937.249 444.261C968.937 454.628 993.704 475.671 1010.13 496.969C1042.68 540.687 1050.72 576.742 1051.64 575.913C1050.71 576.734 1042.8 540.665 1010.34 496.753C993.951 475.365 969.176 454.153 937.409 443.637C905.773 432.741 868.938 432.297 831.724 437.759C756.922 448.619 679.248 479.495 604.468 493.322C567.187 500.222 530.334 502.584 497.481 495.459C464.726 487.991 437.153 471.852 414.24 458.424C391.272 444.73 354.857 419 309.892 382.478C264.54 346.775 211.095 298.672 143.646 259.164C109.924 239.939 71.8818 223.592 30.5699 219.626C-10.6536 215.377 -54.0454 226.048 -92.4344 249.325C-169.206 297.365 -227.499 379.345 -301.735 435.497C-375.086 495.467 -468.332 506.447 -549.88 499.908C-632.612 492.354 -706.704 457.55 -761.149 412.183C-871.018 320.267 -917.592 219.767 -928.188 201.347C-971.173 122.004 -997.364 18.5979 -997.004 18.7033Z" fill="url(#paint21_linear_71_862)"/>
</g>
</g>
<g opacity="0.2">
<mask id="mask1_71_862" style="mask-type:luminance" maskUnits="userSpaceOnUse" x="-296" y="0" width="1290" height="631">
<path d="M993.055 0.983398H-295.92V631H993.055V0.983398Z" fill="white"/>
</mask>
<g mask="url(#mask1_71_862)">
<path d="M1193.86 441.54C1194.03 441.679 1130.48 480.718 1070.75 497.686C1056.34 501.264 985.314 527.38 883.998 513.09C833.748 505.871 776.714 487.148 720.982 452.209C664.689 418.299 612.378 365.408 563.809 307.255C514.916 249.441 467.491 187.702 414.844 138.721C362.53 90.113 303.968 54.2465 246.958 48.4376C189.325 42.2235 140.583 75.3035 110.199 109.793C78.9039 144.436 60.5845 178.479 49.3308 198.395C2.92554 277.159 -43.3202 439.736 -127.783 537.822C-148.51 561.943 -171.418 581.007 -194.406 592.225C-217.353 603.674 -239.962 606.874 -258.62 605.65C-296.233 602.652 -317.658 587.987 -317.697 588.878C-317.652 587.984 -296.285 602.755 -258.631 605.919C-239.951 607.226 -217.289 604.118 -194.249 592.73C-171.172 581.584 -148.156 562.55 -127.326 538.454C-42.4408 440.447 4.18433 277.827 50.4495 199.372C61.6687 179.512 79.9537 145.554 111.087 111.095C141.342 76.78 189.652 43.9942 246.859 50.1556C303.464 55.909 361.864 91.6201 414.04 140.104C466.562 188.97 513.959 250.656 562.882 308.51C611.471 366.696 663.941 419.75 720.38 453.752C776.265 488.783 833.452 507.561 883.843 514.794C985.433 529.126 1056.63 502.94 1071.07 499.355C1131.01 482.305 1194.06 441.651 1193.86 441.54Z" fill="url(#paint22_linear_71_862)"/>
<path d="M1193.86 418.238C1194.02 418.368 1131.69 457.982 1072.99 476.23C1058.79 480.118 989.123 507.617 888.803 496.973C839.037 491.547 782.301 475.211 726.45 442.789C670.125 411.302 617.12 361.27 567.794 305.681C518.119 250.481 469.88 191.296 416.96 144.55C364.375 98.17 306.555 63.2638 250.288 57.1579C193.457 50.4498 144.883 81.4566 114.157 114.628C82.6266 147.925 63.749 180.813 52.2215 200.116C4.81393 276.465 -46.0963 433.716 -129.867 529.559C-150.527 553.106 -173.09 571.99 -195.788 583.138C-218.433 594.426 -240.68 598.145 -259.131 597.113C-296.308 594.856 -317.637 580.824 -317.699 581.801C-317.635 580.821 -296.354 594.959 -259.139 597.373C-240.667 598.489 -218.364 594.859 -195.635 583.632C-172.853 572.556 -150.182 553.711 -129.418 530.189C-45.247 434.443 6.0318 277.189 53.3014 201.118C64.7944 181.862 83.6354 149.057 115.006 115.935C145.601 82.9331 193.744 52.201 250.178 58.8509C306.057 64.9013 363.74 99.6688 416.187 145.943C468.985 192.578 517.197 251.716 566.9 306.958C616.26 362.577 669.416 412.768 725.892 444.335C781.885 476.843 838.781 493.224 888.686 498.663C989.27 509.338 1059.09 481.767 1073.33 477.878C1132.24 459.547 1194.06 418.346 1193.86 418.238Z" fill="url(#paint23_linear_71_862)"/>
<path d="M1193.86 394.933C1194.02 395.063 1132.87 435.262 1075.16 454.746C1061.17 458.936 992.837 487.72 893.534 480.635C844.252 476.968 787.834 463.011 731.865 433.225C675.424 404.422 621.964 356.841 571.761 304.072C521.297 251.567 472.132 195.134 418.976 150.581C366.042 106.638 309.163 72.1258 253.535 65.8561C197.49 58.6595 149.085 87.6403 117.994 119.388C86.1857 151.258 66.7433 182.992 54.9184 201.646C6.33179 275.419 -48.8527 427.441 -131.912 521.247C-152.359 544.513 -174.81 562.814 -197.117 574.141C-219.476 585.378 -241.384 589.397 -259.637 588.689C-296.394 587.149 -317.656 573.774 -317.703 574.732C-317.651 573.774 -296.439 587.252 -259.641 588.95C-241.365 589.738 -219.405 585.803 -196.964 574.635C-174.573 563.375 -152.016 545.113 -131.472 521.877C-48.0272 428.18 7.51297 276.193 55.9638 202.675C67.7585 184.066 87.16 152.421 118.807 120.709C149.77 89.114 197.747 60.3914 253.423 67.5297C308.676 73.7411 365.436 108.126 418.241 151.98C471.285 196.436 520.419 252.824 570.916 305.371C621.149 358.164 674.76 405.899 731.35 434.771C787.479 464.643 844.038 478.634 893.446 482.311C993.016 489.413 1061.5 460.563 1075.53 456.361C1133.43 436.8 1194.05 395.041 1193.86 394.933Z" fill="url(#paint24_linear_71_862)"/>
<path d="M1193.86 371.633C1194.01 371.758 1134.02 412.565 1077.28 433.286C1063.49 437.785 996.471 467.873 898.184 464.371C849.395 462.469 793.311 450.899 737.232 423.741C680.733 397.542 626.646 352.788 575.641 302.742C524.405 252.929 474.402 199.178 421.067 156.676C367.876 114.906 311.724 81.118 256.768 74.4515C201.504 66.8247 153.189 93.5185 121.706 123.84C89.5978 154.28 69.595 184.835 57.4532 202.817C7.53668 273.861 -51.5751 420.777 -133.86 512.84C-154.152 535.771 -176.405 553.689 -198.376 565.143C-220.461 576.347 -242.046 580.663 -260.111 580.283C-296.47 579.447 -317.666 566.722 -317.703 567.652C-317.664 566.722 -296.513 579.544 -260.115 580.541C-242.029 581.001 -220.388 576.772 -198.223 565.628C-176.175 554.241 -153.818 536.359 -133.431 513.465C-50.7732 421.521 8.67047 274.691 58.4598 203.877C70.5714 185.937 90.5311 155.46 122.48 125.175C153.829 95.0061 201.728 68.5343 256.643 76.1029C311.237 82.7111 367.29 116.388 420.36 158.077C473.596 200.496 523.569 254.206 574.839 304.055C625.863 354.134 680.11 399.024 736.76 425.293C792.986 452.52 849.22 464.118 898.139 466.03C996.674 469.533 1063.84 439.381 1077.67 434.868C1134.58 414.069 1194.04 371.736 1193.86 371.633Z" fill="url(#paint25_linear_71_862)"/>
<path d="M1193.86 348.331C1194.01 348.453 1135.13 389.885 1079.36 411.838C1065.77 416.653 1000.02 448.01 902.761 448.093C854.468 447.954 798.729 438.773 742.556 414.289C686.017 390.726 631.288 348.897 579.498 301.63C527.491 254.564 476.678 203.508 423.192 162.965C369.805 123.163 314.293 90.2632 259.998 83.025C205.454 74.9874 157.266 99.2666 125.395 128.225C92.8584 157.001 72.3555 186.481 59.8624 203.724C34.9063 238.653 5.16721 289.876 -26.777 345.431C-58.913 400.67 -94.8469 459.744 -135.728 504.359C-175.703 550.383 -224.581 573.342 -260.562 571.898C-296.535 571.76 -317.674 559.673 -317.697 560.58C-317.671 559.673 -296.578 571.862 -260.562 572.159C-224.544 573.761 -175.466 550.947 -135.307 504.983C-94.2477 460.446 -58.1413 401.416 -25.8975 346.258C6.15225 290.769 35.928 239.666 60.8259 204.824C73.2932 187.613 93.7508 158.208 126.13 129.58C157.861 100.763 205.648 76.6832 259.865 84.6569C313.816 91.8313 369.24 124.637 422.519 164.369C475.914 204.837 526.693 255.866 578.746 302.962C630.561 350.268 685.444 392.213 742.133 415.84C798.453 440.391 854.334 449.592 902.757 449.731C1000.25 449.653 1066.14 418.221 1079.76 413.398C1135.72 391.361 1194.03 348.431 1193.86 348.331Z" fill="url(#paint26_linear_71_862)"/>
<path d="M1193.86 325.029C1193.99 325.148 1136.21 367.223 1081.38 390.412C1067.98 395.54 1003.47 428.165 907.245 431.812C859.441 433.43 804.086 426.642 747.832 404.866C691.266 383.973 635.894 345.161 583.316 300.713C530.536 256.46 478.95 208.084 425.332 169.417C371.777 131.466 316.866 99.4161 263.219 91.4341C209.323 82.7471 161.308 105.036 128.993 132.377C96.1046 159.581 74.9508 187.754 62.1106 204.274C36.5381 237.801 5.2944 286.764 -27.5012 340.676C-60.5468 394.222 -96.9334 451.787 -137.51 495.78C-177.246 541.102 -225.378 564.135 -260.987 563.527C-296.599 564.08 -317.686 552.62 -317.697 553.5C-317.682 552.623 -296.638 564.185 -260.985 563.785C-225.337 564.549 -177.011 541.657 -137.09 496.396C-96.3449 452.492 -59.7924 394.985 -26.6433 341.526C6.25143 287.694 37.5209 238.855 63.0439 205.392C75.8518 188.912 96.9604 160.811 129.691 133.742C161.868 106.532 209.487 84.4234 263.079 93.0466C316.403 100.965 371.234 132.929 424.694 170.827C478.227 209.433 529.795 257.778 582.613 302.065C635.219 346.546 690.74 385.469 747.455 406.42C803.862 428.251 859.359 435.057 907.273 433.433C1003.73 429.778 1068.37 397.081 1081.8 391.944C1136.8 368.675 1194.03 325.123 1193.86 325.029Z" fill="url(#paint27_linear_71_862)"/>
<path d="M1193.86 301.73C1193.99 301.841 1137.26 344.593 1083.33 369.008C1070.12 374.459 1006.81 408.341 911.631 415.53C864.334 418.904 809.358 414.503 753.046 395.472C696.476 377.273 640.47 341.59 587.116 300.015C533.593 258.606 481.219 212.961 427.475 176.115C373.805 139.904 319.477 108.37 266.411 99.883C213.173 90.3717 165.283 110.682 132.502 136.282C99.2214 161.838 77.449 188.701 64.2553 204.469C37.9628 236.461 5.34399 283.223 -28.2664 335.537C-62.1073 387.515 -98.994 443.561 -139.194 487.113C-178.764 531.686 -226.085 555.035 -261.385 555.174C-296.656 556.415 -317.699 545.565 -317.697 546.429C-317.695 545.565 -296.688 556.514 -261.375 555.424C-226.04 555.446 -178.529 532.238 -138.782 487.721C-98.4185 444.26 -61.3702 388.281 -27.4387 336.406C6.26221 284.181 38.9004 237.551 65.1412 205.62C78.3047 189.884 100.032 163.093 133.155 137.662C165.8 112.181 213.302 92.0286 266.256 101.473C319.017 109.897 373.275 141.353 426.867 177.522C480.538 214.318 532.882 259.932 586.454 301.386C639.836 342.986 696 378.78 752.721 397.023C809.175 416.101 864.293 420.517 911.707 417.134C1007.11 409.923 1070.54 375.972 1083.77 370.51C1137.86 346.014 1194.02 301.818 1193.86 301.73Z" fill="url(#paint28_linear_71_862)"/>
<path d="M1193.86 278.427C1193.98 278.535 1138.27 321.984 1085.23 347.634C1072.21 353.41 1010.07 388.541 915.934 399.265C869.128 404.385 814.564 402.37 758.215 386.118C701.649 370.653 645.029 338.178 590.916 299.539C483.465 222.311 375.228 129.396 269.599 108.206C217.003 98.1225 169.186 116.035 135.975 140.009C102.213 163.7 79.8956 189.378 66.2816 204.259C39.2757 234.689 5.28168 279.162 -29.0443 330.01C-63.644 380.464 -100.917 435.195 -140.801 478.314C-180.154 522.301 -226.755 545.948 -261.75 546.839C-296.698 548.762 -317.712 538.512 -317.699 539.359C-317.708 538.512 -296.737 548.862 -261.739 547.083C-226.706 546.347 -179.925 522.842 -140.394 478.919C-100.354 435.895 -62.9262 381.236 -28.2403 330.893C6.16541 280.153 40.1659 235.827 67.1223 205.445C80.7039 190.596 102.976 164.982 136.58 141.408C169.658 117.545 217.096 99.7655 269.431 109.785C374.56 130.844 482.815 223.64 590.302 300.93C644.445 339.599 701.225 372.169 757.937 387.678C814.419 403.966 869.125 405.992 916.039 400.855C1010.4 390.106 1072.65 354.903 1085.69 349.116C1138.89 323.385 1194.01 278.513 1193.86 278.427Z" fill="url(#paint29_linear_71_862)"/>
<path d="M1193.86 255.13C1193.98 255.228 1139.24 299.42 1087.06 326.3C1074.22 332.411 1013.22 368.8 920.121 383.032C873.819 389.901 819.669 390.262 763.306 376.824C706.779 364.098 649.553 334.959 594.722 299.27C485.484 228.206 377.027 139.366 272.767 116.402C220.714 105.483 173.07 121.278 139.378 143.468C105.209 165.349 82.1604 189.484 68.2274 203.624C40.4476 232.361 5.22287 274.655 -29.7928 324.091C-65.147 373.03 -102.68 426.684 -142.311 469.375C-181.42 512.924 -227.377 536.859 -262.076 538.505C-296.731 541.116 -317.717 531.458 -317.693 532.282C-317.711 531.458 -296.764 541.213 -262.063 538.752C-227.316 537.261 -181.185 513.462 -141.903 469.983C-102.122 427.383 -64.4421 373.821 -29.0126 324.99C6.07642 275.68 41.2947 233.538 69.0271 204.848C82.9256 190.738 105.927 166.665 139.938 144.88C173.497 122.799 220.777 107.115 272.584 117.97C324.373 127.567 377.458 158.613 431.382 191.371C485.288 224.845 539.119 265.075 594.157 300.68C649.036 336.4 706.408 365.622 763.082 378.381C819.581 391.855 873.86 391.491 920.268 384.608C1013.58 370.335 1074.7 333.882 1087.56 327.763C1139.87 300.794 1194 255.208 1193.86 255.13Z" fill="url(#paint30_linear_71_862)"/>
<path d="M1193.86 231.823C1193.97 231.926 1140.17 276.884 1088.83 305.008C1076.18 311.463 1016.26 349.1 924.206 366.846C878.398 375.458 824.684 378.189 768.339 367.59C711.877 357.626 654.076 331.94 598.54 299.207C542.853 266.665 488.332 229.064 434.251 197.097C380.119 165.918 327.508 134.903 275.919 124.473C224.381 112.686 176.892 126.344 142.71 146.615C108.102 166.579 84.3961 189.229 70.1247 202.57C41.5992 229.583 5.14786 269.641 -30.5016 317.772C-66.5648 365.287 -104.342 417.969 -143.711 460.341C-182.59 503.527 -227.941 527.784 -262.375 530.179C-296.757 533.476 -317.73 524.403 -317.697 525.208C-317.727 524.403 -296.787 533.573 -262.36 530.426C-227.883 528.181 -182.355 504.054 -143.311 460.944C-103.794 418.669 -65.8794 366.08 -29.7472 318.693C5.96692 270.693 42.3902 230.802 70.8727 203.825C85.1139 190.508 108.764 167.919 143.221 148.048C177.271 127.868 224.416 114.296 275.716 126.025C327.055 136.385 379.617 167.35 433.723 198.515C487.753 230.46 542.271 268.059 598.022 300.634C653.595 333.4 711.549 359.156 768.154 369.147C824.643 379.769 878.478 377.029 924.383 368.401C1016.64 350.613 1076.66 312.901 1089.34 306.445C1140.82 278.236 1194 231.904 1193.86 231.823Z" fill="url(#paint31_linear_71_862)"/>
<path d="M1193.86 208.523C1193.97 208.618 1141.08 254.395 1090.54 283.77C1078.06 290.559 1019.19 329.47 928.175 350.716C882.873 361.065 829.609 366.158 773.31 358.426C716.931 351.268 658.602 329.081 602.398 299.368C546.028 269.904 490.837 234.906 436.646 204.385C382.287 174.858 330.209 143.729 279.066 132.408C228.02 119.758 180.671 131.253 145.997 149.457C110.973 167.475 86.6206 188.59 71.9849 201.06C42.6833 226.25 5.1716 264.245 -31.1331 311.072C-67.8775 357.232 -105.883 409.046 -144.992 451.205C-183.655 494.096 -228.445 518.719 -262.636 521.869C-296.765 525.849 -317.74 517.351 -317.697 518.136C-317.736 517.345 -296.796 525.946 -262.616 522.108C-228.383 519.116 -183.42 494.617 -144.591 451.798C-105.342 409.743 -67.2007 358.037 -30.3981 312.01C5.96912 265.316 43.4313 227.504 72.6854 202.345C87.2909 189.903 111.585 168.846 146.459 150.906C180.998 132.794 228.022 121.362 278.852 133.948C329.758 145.202 381.807 176.293 436.142 205.812C490.311 236.313 545.496 271.32 601.928 300.814C658.193 330.555 716.653 352.797 773.176 359.98C829.618 367.729 883.002 362.625 928.397 352.253C1019.61 330.963 1078.58 291.982 1091.08 285.18C1141.74 255.722 1193.99 208.595 1193.86 208.523Z" fill="url(#paint32_linear_71_862)"/>
<path d="M1193.86 185.224C1193.97 185.313 1141.94 231.942 1092.19 262.594C1079.89 269.727 1022.01 309.923 932.042 334.66C887.238 346.764 834.427 354.174 778.212 349.356C721.93 345.046 663.165 326.337 606.299 299.745C549.279 273.404 493.454 240.974 439.114 211.818C384.62 183.559 332.914 152.599 282.224 140.19C231.63 126.633 184.406 135.911 149.261 151.972C113.836 167.989 88.8472 187.517 73.8516 199.084C43.7848 222.39 5.29449 258.395 -31.6655 303.984C-69.0608 348.867 -107.29 399.924 -146.147 441.94C-184.616 484.621 -228.887 509.666 -262.858 513.557C-296.761 518.233 -317.751 510.29 -317.697 511.062C-317.747 510.29 -296.789 518.328 -262.834 513.798C-228.818 510.057 -184.379 485.137 -145.751 442.537C-106.756 400.62 -68.3991 349.681 -30.952 304.938C6.05969 259.488 44.481 223.677 74.4982 200.405C89.4594 188.863 114.387 169.393 149.668 153.443C184.682 137.454 231.591 128.226 281.982 141.714C332.455 154.062 384.141 184.983 438.636 213.245C492.954 242.395 548.794 274.828 605.881 301.205C662.81 327.824 721.714 346.586 778.128 350.902C834.48 355.731 887.402 348.304 932.298 336.175C1022.46 311.386 1080.41 271.12 1092.75 263.976C1142.62 233.247 1193.98 185.296 1193.86 185.224Z" fill="url(#paint33_linear_71_862)"/>
<path d="M1193.86 161.924C1193.96 162.005 1142.78 209.536 1093.78 241.473C1081.64 248.958 1024.74 290.461 935.807 318.693C891.495 332.564 839.16 342.225 783.049 340.369C726.909 338.934 667.759 323.769 610.272 300.339C552.645 277.142 496.176 247.265 441.686 219.386C387.029 192.315 335.63 161.439 285.347 147.983C235.219 133.285 188.092 140.271 152.514 154.159C116.698 168.113 91.0933 186.004 75.7506 196.65C44.9683 218.06 5.52948 252.125 -32.0642 296.542C-70.1191 340.183 -108.551 390.609 -147.184 432.559C-185.476 475.095 -229.264 500.612 -263.041 505.236C-296.746 510.615 -317.76 503.224 -317.697 503.984C-317.757 503.227 -296.772 510.712 -263.017 505.48C-229.191 500.995 -185.237 475.609 -146.787 433.15C-108.017 391.311 -69.4682 341.007 -31.3701 297.514C6.27097 253.246 45.6235 219.381 76.352 198.004C91.658 187.375 117.198 169.537 152.867 155.638C188.314 141.816 235.146 134.864 285.088 149.499C335.169 162.887 386.549 193.736 441.218 220.818C495.711 248.694 552.199 278.585 609.897 301.813C667.455 325.271 726.737 340.477 783.018 341.915C839.259 343.78 891.698 334.094 936.102 320.189C1025.21 291.907 1082.19 250.335 1094.36 242.838C1143.46 210.818 1193.98 161.985 1193.86 161.924Z" fill="url(#paint34_linear_71_862)"/>
<path d="M1193.86 138.619C1193.95 138.7 1143.58 187.18 1095.32 220.432C1083.34 228.276 1027.37 271.12 939.465 302.834C895.651 318.485 843.792 330.386 787.834 331.507C731.854 332.945 672.382 321.377 614.311 301.138C556.12 281.125 499.015 253.773 444.344 227.096C389.491 201.199 338.402 170.117 288.492 155.585C238.771 139.968 191.763 144.156 155.807 156.113C119.591 167.772 93.4061 184.083 77.7423 193.805C46.2788 213.283 5.93906 245.494 -32.3099 288.749C-71.0244 331.213 -109.672 381.101 -148.091 423.065C-186.228 465.531 -229.573 491.562 -263.183 496.929C-296.714 503.013 -317.766 496.177 -317.697 496.913C-317.764 496.169 -296.737 503.107 -263.153 497.168C-229.495 491.939 -185.987 466.031 -147.693 423.653C-109.138 381.8 -70.382 332.043 -31.6309 289.737C6.65683 246.632 46.8866 214.635 78.2919 195.187C93.9191 185.493 120.035 169.229 156.107 157.614C191.933 145.708 238.668 141.536 288.216 157.087C337.934 171.555 389.017 202.614 443.9 228.537C498.586 255.217 555.723 282.588 613.992 302.629C672.139 322.898 731.746 334.49 787.853 333.05C843.939 331.926 895.903 320 939.793 304.313C1027.87 272.546 1083.92 229.636 1095.91 221.781C1144.28 188.438 1193.98 138.683 1193.86 138.619Z" fill="url(#paint35_linear_71_862)"/>
<path d="M1193.86 115.319C1193.95 115.394 1144.34 164.871 1096.8 199.461C1084.99 207.671 1029.91 251.877 943.026 287.081C899.718 304.513 848.34 318.64 792.572 322.745C736.799 327.041 677.075 319.123 618.457 302.118C559.744 285.304 502.001 260.47 447.107 234.931C392.037 210.094 341.183 178.859 291.648 163.051C242.3 146.196 195.462 148.052 159.133 157.769C122.583 167.186 95.8182 181.732 79.8677 190.597C47.7769 208.151 6.49957 238.414 -32.3874 280.617C-71.7722 321.937 -110.633 371.4 -148.874 413.434C-186.879 455.895 -229.82 482.491 -263.284 488.608C-296.67 495.411 -317.779 489.111 -317.697 489.835C-317.775 489.108 -296.688 495.505 -263.254 488.847C-229.734 482.871 -186.635 456.397 -148.477 414.019C-110.105 372.097 -71.1364 322.767 -31.7256 281.616C7.19147 239.577 48.3395 209.53 80.3656 192.006C96.2752 183.164 122.966 168.663 159.372 159.279C195.571 149.609 242.16 147.753 291.344 164.544C340.704 180.289 391.56 211.515 446.689 236.382C501.595 261.927 559.388 286.792 618.181 303.625C676.883 320.655 736.736 328.59 792.634 324.285C848.528 320.169 899.996 306.017 943.395 288.552C1030.44 253.287 1085.58 209.009 1097.42 200.791C1145.07 166.118 1193.97 115.375 1193.86 115.319Z" fill="url(#paint36_linear_71_862)"/>
<path d="M1193.86 92.0176C1193.95 92.0897 1145.08 142.624 1098.23 178.58C1086.58 187.161 1032.37 232.781 946.505 271.472C903.673 290.614 852.812 307.092 797.255 314.089C741.728 321.313 681.812 317.02 622.709 303.27C563.524 289.69 505.134 267.362 449.986 242.9C394.647 219.101 344.01 187.505 294.837 170.342C245.833 152.197 199.171 151.678 162.517 159.113C125.673 166.237 98.3785 179.029 82.1456 187.011C49.4772 202.654 7.26654 230.965 -32.2735 272.15C-72.3438 312.365 -111.436 361.518 -149.527 403.676C-187.427 446.198 -229.991 473.416 -263.341 480.285C-296.606 487.815 -317.784 482.051 -317.693 482.764C-317.781 482.045 -296.623 487.918 -263.31 480.519C-229.907 473.791 -187.179 446.695 -149.131 404.256C-110.905 362.214 -71.7187 313.209 -31.6333 273.165C7.93689 232.156 49.9924 204.063 82.5918 188.449C98.7816 180.484 125.994 167.733 162.702 160.637C199.229 153.235 245.66 153.745 294.508 171.824C343.519 188.924 394.175 220.519 449.59 244.348C504.763 268.827 563.216 291.183 622.493 304.788C681.685 318.554 741.728 322.856 797.38 315.618C853.045 308.607 904.009 292.094 946.914 272.927C1032.93 234.165 1087.21 188.477 1098.88 179.887C1145.83 143.848 1193.97 92.0731 1193.86 92.0176Z" fill="url(#paint37_linear_71_862)"/>
<path d="M1193.86 68.7158C1193.94 68.7824 1145.8 120.43 1099.61 157.79C1088.12 166.749 1034.75 213.822 949.896 256.011C907.556 276.86 857.204 295.691 801.907 305.566C746.654 315.657 686.624 315.097 627.076 304.583C567.46 294.24 508.422 274.423 452.985 250.982C397.238 228.479 346.923 195.932 298.058 177.478C249.381 158.048 202.9 155.12 165.977 160.174C128.888 164.983 101.104 176.002 84.5991 183.098C51.3918 196.831 8.26285 223.189 -31.9626 263.383C-72.7292 302.552 -112.09 351.443 -150.063 393.788C-187.886 436.437 -230.111 464.325 -263.368 471.949C-296.532 480.219 -317.798 474.982 -317.697 475.693C-317.794 474.982 -296.55 480.322 -263.331 472.182C-230.019 464.699 -187.633 436.934 -149.665 394.37C-111.564 352.134 -72.1084 303.401 -31.3419 264.415C8.90305 224.399 51.8638 198.263 84.9913 184.553C101.444 177.478 129.142 166.499 166.098 161.706C202.898 156.679 249.165 159.585 297.698 178.955C346.42 197.345 396.764 229.903 452.597 252.447C508.083 275.908 567.193 295.752 626.91 306.115C686.55 316.643 746.701 317.2 802.073 307.09C857.488 297.195 907.918 278.331 950.335 257.446C1035.33 215.19 1088.77 168.053 1100.28 159.083C1146.56 121.637 1193.96 68.7658 1193.86 68.7158Z" fill="url(#paint38_linear_71_862)"/>
<path d="M1193.86 45.415C1193.94 45.4789 1146.49 98.2948 1100.97 137.087C1089.62 146.431 1037.06 195.004 953.228 240.698C911.356 263.259 861.538 284.424 806.533 297.177C751.583 310.091 691.523 313.305 631.588 306.025C571.586 298.926 511.884 281.635 456.111 259.177C400.004 237.656 349.826 204.479 301.315 184.499C252.968 163.608 206.672 158.31 169.54 160.952C132.257 163.481 104.026 172.714 87.2611 178.876C53.5559 190.713 9.5174 215.111 -31.4323 254.325C-72.9253 292.454 -112.582 341.179 -150.469 383.762C-188.239 426.608 -230.156 455.209 -263.353 463.599C-296.437 472.633 -317.807 467.923 -317.697 468.622C-317.802 467.923 -296.459 472.733 -263.314 463.837C-230.062 455.583 -187.985 427.1 -150.07 384.347C-112.056 341.875 -72.3131 293.32 -30.8266 255.374C10.1274 216.349 53.9849 192.176 87.6017 180.358C104.315 174.219 132.453 165.018 169.6 162.495C206.61 159.87 252.718 165.138 300.925 185.967C349.309 205.886 399.519 239.083 455.74 260.656C511.58 283.139 571.36 300.45 631.461 307.566C691.51 314.859 751.689 311.646 806.748 298.701C861.866 285.926 911.767 264.722 953.702 242.122C1037.67 196.358 1090.3 147.719 1101.66 138.358C1147.27 99.4799 1193.95 45.4594 1193.86 45.415Z" fill="url(#paint39_linear_71_862)"/>
<path d="M1193.86 22.1133C1193.94 22.1771 1147.15 76.2059 1102.28 116.483C1091.07 126.202 1039.32 176.359 956.5 225.548C915.106 249.832 865.836 273.326 811.147 288.932C756.528 304.68 696.523 311.629 636.228 307.569C575.903 303.731 515.535 288.968 459.378 267.456C402.833 246.951 352.802 212.917 304.619 191.391C256.601 168.971 210.509 161.219 173.221 161.5C135.798 161.744 107.162 169.187 90.1491 174.411C55.9805 184.352 11.0496 206.789 -30.674 245.003C-72.9364 282.102 -112.92 330.732 -150.756 373.601C-188.504 416.698 -230.144 446.064 -263.299 455.232C-296.332 465.034 -317.814 460.852 -317.693 461.543C-317.811 460.846 -296.349 465.137 -263.254 455.465C-230.043 446.434 -188.248 417.186 -150.355 374.181C-112.395 331.432 -72.3242 282.979 -30.0833 246.072C11.6316 208.051 56.3685 185.834 90.4402 175.912C107.391 170.706 135.929 163.287 173.226 163.04C210.392 162.765 256.313 170.486 304.205 192.839C352.262 214.304 402.353 248.378 459.02 268.935C515.259 290.481 575.724 305.265 636.159 309.112C696.571 313.181 756.689 306.217 811.41 290.439C866.211 274.8 915.557 251.273 957.013 226.949C1039.96 177.686 1091.78 127.465 1103 117.731C1147.96 77.3771 1193.95 22.1605 1193.86 22.1133Z" fill="url(#paint40_linear_71_862)"/>
<path d="M1193.86 -1.18652C1193.94 -1.11991 1147.8 54.1689 1103.57 95.9776C1092.5 106.061 1041.55 157.888 959.722 210.552C878.618 263.357 762.923 311.973 641.031 309.19C580.427 308.615 519.391 296.412 462.797 275.818C405.761 256.337 355.84 221.295 307.999 198.151C260.255 174.299 214.445 163.922 177.036 161.899C139.516 159.848 110.516 165.468 93.2747 169.753C58.6793 177.802 12.8539 198.235 -29.6845 235.439C-72.7509 271.508 -113.108 320.114 -150.928 363.31C-188.685 406.717 -230.068 436.9 -263.207 446.852C-296.211 457.44 -317.824 453.788 -317.693 454.468C-317.822 453.785 -296.224 457.546 -263.159 447.085C-229.961 437.269 -188.42 407.2 -150.52 363.896C-112.575 320.813 -72.1431 272.393 -29.109 236.527C13.4078 199.531 59.0306 179.306 93.5118 171.274C110.693 167.003 139.587 161.402 176.978 163.45C214.264 165.468 259.927 175.804 307.548 199.592C355.279 222.683 405.273 257.772 462.452 277.314C519.139 297.938 580.296 310.166 641.022 310.741C763.149 313.53 879.058 264.816 960.278 211.939C1042.22 159.201 1093.23 107.304 1104.32 97.207C1148.63 55.3262 1193.95 -1.13657 1193.86 -1.18652Z" fill="url(#paint41_linear_71_862)"/>
<path d="M1193.86 -24.4922C1193.95 -24.4173 1148.43 32.2038 1104.87 75.5972C1093.91 86.0466 1043.79 139.673 962.953 195.814C882.828 251.946 768.389 306.769 646.004 310.949C585.167 313.605 523.445 303.966 466.373 284.271C408.768 265.859 358.97 229.568 311.467 204.723C263.991 179.367 218.512 166.245 181.022 162.026C143.448 157.73 114.133 161.579 96.6783 164.932C61.6992 171.129 14.9684 189.475 -28.4321 225.655C-72.3564 260.664 -113.132 309.308 -150.975 352.885C-188.771 396.653 -229.932 427.699 -263.079 438.451C-296.075 449.849 -317.835 446.719 -317.693 447.396C-317.833 446.719 -296.086 449.955 -263.03 438.684C-229.82 428.071 -188.502 397.13 -150.568 353.465C-112.601 310.016 -71.755 261.563 -27.8759 226.768C15.4922 190.801 62.0053 172.659 96.8615 166.475C114.254 163.136 143.459 159.301 180.906 163.586C218.277 167.788 263.62 180.865 310.991 206.16C358.385 230.945 408.283 267.308 466.047 285.778C523.232 305.512 585.083 315.178 646.047 312.514C768.678 308.32 883.311 253.395 963.544 197.188C1044.49 140.966 1094.66 87.2789 1105.64 76.8184C1149.28 33.3361 1193.96 -24.4339 1193.86 -24.4922Z" fill="url(#paint42_linear_71_862)"/>
<path d="M1193.86 -47.791C1193.96 -47.6967 1149.07 10.3204 1106.1 55.2514C1095.31 66.1531 1045.89 121.403 966.077 181.044C886.87 240.382 773.907 301.804 651.086 312.634C590.071 318.482 527.655 311.54 470.046 292.795C411.8 275.563 362.155 237.692 314.992 211.14C267.789 184.18 222.664 168.41 185.133 162.016C147.556 155.504 117.964 157.592 100.31 160.017C64.9756 164.347 17.3762 180.614 -26.949 215.697C-71.7807 249.61 -113.017 298.346 -150.921 342.336C-188.786 386.512 -229.745 418.466 -262.922 430.028C-295.927 442.254 -317.846 439.65 -317.693 440.322C-317.839 439.65 -295.935 442.356 -262.868 430.267C-229.626 418.84 -188.511 386.995 -150.51 342.919C-112.487 299.057 -71.1815 250.52 -26.408 216.83C17.8612 181.968 65.2429 165.893 100.444 161.58C118.026 159.162 147.502 157.084 184.962 163.573C222.369 169.942 267.371 185.667 314.481 212.569C361.539 239.052 411.298 277.017 469.733 294.313C527.476 313.103 590.028 320.061 651.181 314.205C774.255 303.345 887.391 241.811 966.698 182.401C1046.63 122.674 1096.1 67.3687 1106.89 56.4503C1149.95 11.4444 1193.97 -47.7133 1193.86 -47.791Z" fill="url(#paint43_linear_71_862)"/>
</g>
</g>
<defs>
<linearGradient id="paint0_linear_71_862" x1="1043.99" y1="235.27" x2="-315.061" y2="264.836" gradientUnits="userSpaceOnUse">
<stop stop-color="#600F25"/>
<stop offset="0.3333" stop-color="#DC1F26"/>
<stop offset="0.6848" stop-color="#F78C1E"/>
<stop offset="1" stop-color="#FDBA12"/>
</linearGradient>
<linearGradient id="paint1_linear_71_862" x1="1044.03" y1="236.472" x2="-347.32" y2="266.74" gradientUnits="userSpaceOnUse">
<stop stop-color="#600F25"/>
<stop offset="0.3333" stop-color="#DC1F26"/>
<stop offset="0.6848" stop-color="#F78C1E"/>
<stop offset="1" stop-color="#FDBA12"/>
</linearGradient>
<linearGradient id="paint2_linear_71_862" x1="1044.06" y1="237.671" x2="-379.405" y2="268.638" gradientUnits="userSpaceOnUse">
<stop stop-color="#600F25"/>
<stop offset="0.3333" stop-color="#DC1F26"/>
<stop offset="0.6848" stop-color="#F78C1E"/>
<stop offset="1" stop-color="#FDBA12"/>
</linearGradient>
<linearGradient id="paint3_linear_71_862" x1="1044.1" y1="238.933" x2="-411.56" y2="270.6" gradientUnits="userSpaceOnUse">
<stop stop-color="#600F25"/>
<stop offset="0.3333" stop-color="#DC1F26"/>
<stop offset="0.6848" stop-color="#F78C1E"/>
<stop offset="1" stop-color="#FDBA12"/>
</linearGradient>
<linearGradient id="paint4_linear_71_862" x1="1044.14" y1="240.078" x2="-443.773" y2="272.447" gradientUnits="userSpaceOnUse">
<stop stop-color="#600F25"/>
<stop offset="0.3333" stop-color="#DC1F26"/>
<stop offset="0.6848" stop-color="#F78C1E"/>
<stop offset="1" stop-color="#FDBA12"/>
</linearGradient>
<linearGradient id="paint5_linear_71_862" x1="1044.17" y1="241.325" x2="-475.937" y2="274.395" gradientUnits="userSpaceOnUse">
<stop stop-color="#600F25"/>
<stop offset="0.3333" stop-color="#DC1F26"/>
<stop offset="0.6848" stop-color="#F78C1E"/>
<stop offset="1" stop-color="#FDBA12"/>
</linearGradient>
<linearGradient id="paint6_linear_71_862" x1="1044.22" y1="242.479" x2="-508.127" y2="276.249" gradientUnits="userSpaceOnUse">
<stop stop-color="#600F25"/>
<stop offset="0.3333" stop-color="#DC1F26"/>
<stop offset="0.6848" stop-color="#F78C1E"/>
<stop offset="1" stop-color="#FDBA12"/>
</linearGradient>
<linearGradient id="paint7_linear_71_862" x1="1044.25" y1="243.689" x2="-540.341" y2="278.161" gradientUnits="userSpaceOnUse">
<stop stop-color="#600F25"/>
<stop offset="0.3333" stop-color="#DC1F26"/>
<stop offset="0.6848" stop-color="#F78C1E"/>
<stop offset="1" stop-color="#FDBA12"/>
</linearGradient>
<linearGradient id="paint8_linear_71_862" x1="1044.29" y1="244.881" x2="-572.492" y2="280.054" gradientUnits="userSpaceOnUse">
<stop stop-color="#600F25"/>
<stop offset="0.3333" stop-color="#DC1F26"/>
<stop offset="0.6848" stop-color="#F78C1E"/>
<stop offset="1" stop-color="#FDBA12"/>
</linearGradient>
<linearGradient id="paint9_linear_71_862" x1="1044.33" y1="246.082" x2="-604.675" y2="281.956" gradientUnits="userSpaceOnUse">
<stop stop-color="#600F25"/>
<stop offset="0.3333" stop-color="#DC1F26"/>
<stop offset="0.6848" stop-color="#F78C1E"/>
<stop offset="1" stop-color="#FDBA12"/>
</linearGradient>
<linearGradient id="paint10_linear_71_862" x1="1044.36" y1="247.285" x2="-636.857" y2="283.86" gradientUnits="userSpaceOnUse">
<stop stop-color="#600F25"/>
<stop offset="0.3333" stop-color="#DC1F26"/>
<stop offset="0.6848" stop-color="#F78C1E"/>
<stop offset="1" stop-color="#FDBA12"/>
</linearGradient>
<linearGradient id="paint11_linear_71_862" x1="1044.4" y1="248.481" x2="-669.106" y2="285.758" gradientUnits="userSpaceOnUse">
<stop stop-color="#600F25"/>
<stop offset="0.3333" stop-color="#DC1F26"/>
<stop offset="0.6848" stop-color="#F78C1E"/>
<stop offset="1" stop-color="#FDBA12"/>
</linearGradient>
<linearGradient id="paint12_linear_71_862" x1="1044.44" y1="249.74" x2="-701.2" y2="287.716" gradientUnits="userSpaceOnUse">
<stop stop-color="#600F25"/>
<stop offset="0.3333" stop-color="#DC1F26"/>
<stop offset="0.6848" stop-color="#F78C1E"/>
<stop offset="1" stop-color="#FDBA12"/>
</linearGradient>
<linearGradient id="paint13_linear_71_862" x1="1044.48" y1="250.908" x2="-733.49" y2="289.586" gradientUnits="userSpaceOnUse">
<stop stop-color="#600F25"/>
<stop offset="0.3333" stop-color="#DC1F26"/>
<stop offset="0.6848" stop-color="#F78C1E"/>
<stop offset="1" stop-color="#FDBA12"/>
</linearGradient>
<linearGradient id="paint14_linear_71_862" x1="1044.52" y1="252.158" x2="-765.548" y2="291.535" gradientUnits="userSpaceOnUse">
<stop stop-color="#600F25"/>
<stop offset="0.3333" stop-color="#DC1F26"/>
<stop offset="0.6848" stop-color="#F78C1E"/>
<stop offset="1" stop-color="#FDBA12"/>
</linearGradient>
<linearGradient id="paint15_linear_71_862" x1="1044.55" y1="253.303" x2="-797.748" y2="293.381" gradientUnits="userSpaceOnUse">
<stop stop-color="#600F25"/>
<stop offset="0.3333" stop-color="#DC1F26"/>
<stop offset="0.6848" stop-color="#F78C1E"/>
<stop offset="1" stop-color="#FDBA12"/>
</linearGradient>
<linearGradient id="paint16_linear_71_862" x1="1044.59" y1="254.524" x2="-829.913" y2="295.303" gradientUnits="userSpaceOnUse">
<stop stop-color="#600F25"/>
<stop offset="0.3333" stop-color="#DC1F26"/>
<stop offset="0.6848" stop-color="#F78C1E"/>
<stop offset="1" stop-color="#FDBA12"/>
</linearGradient>
<linearGradient id="paint17_linear_71_862" x1="1044.63" y1="255.742" x2="-862.094" y2="297.222" gradientUnits="userSpaceOnUse">
<stop stop-color="#600F25"/>
<stop offset="0.3333" stop-color="#DC1F26"/>
<stop offset="0.6848" stop-color="#F78C1E"/>
<stop offset="1" stop-color="#FDBA12"/>
</linearGradient>
<linearGradient id="paint18_linear_71_862" x1="1044.67" y1="256.964" x2="-894.26" y2="299.144" gradientUnits="userSpaceOnUse">
<stop stop-color="#600F25"/>
<stop offset="0.3333" stop-color="#DC1F26"/>
<stop offset="0.6848" stop-color="#F78C1E"/>
<stop offset="1" stop-color="#FDBA12"/>
</linearGradient>
<linearGradient id="paint19_linear_71_862" x1="1044.7" y1="258.182" x2="-926.44" y2="301.063" gradientUnits="userSpaceOnUse">
<stop stop-color="#600F25"/>
<stop offset="0.3333" stop-color="#DC1F26"/>
<stop offset="0.6848" stop-color="#F78C1E"/>
<stop offset="1" stop-color="#FDBA12"/>
</linearGradient>
<linearGradient id="paint20_linear_71_862" x1="1044.74" y1="259.398" x2="-958.613" y2="302.98" gradientUnits="userSpaceOnUse">
<stop stop-color="#600F25"/>
<stop offset="0.3333" stop-color="#DC1F26"/>
<stop offset="0.6848" stop-color="#F78C1E"/>
<stop offset="1" stop-color="#FDBA12"/>
</linearGradient>
<linearGradient id="paint21_linear_71_862" x1="1044.78" y1="260.617" x2="-990.782" y2="304.899" gradientUnits="userSpaceOnUse">
<stop stop-color="#600F25"/>
<stop offset="0.3333" stop-color="#DC1F26"/>
<stop offset="0.6848" stop-color="#F78C1E"/>
<stop offset="1" stop-color="#FDBA12"/>
</linearGradient>
<linearGradient id="paint22_linear_71_862" x1="-317.699" y1="326.936" x2="1193.86" y2="326.936" gradientUnits="userSpaceOnUse">
<stop stop-color="#600F25"/>
<stop offset="0.3333" stop-color="#DC1F26"/>
<stop offset="0.6848" stop-color="#F78C1E"/>
<stop offset="1" stop-color="#FDBA12"/>
</linearGradient>
<linearGradient id="paint23_linear_71_862" x1="-317.699" y1="326.9" x2="1193.86" y2="326.9" gradientUnits="userSpaceOnUse">
<stop stop-color="#600F25"/>
<stop offset="0.3333" stop-color="#DC1F26"/>
<stop offset="0.6848" stop-color="#F78C1E"/>
<stop offset="1" stop-color="#FDBA12"/>
</linearGradient>
<linearGradient id="paint24_linear_71_862" x1="-317.701" y1="326.895" x2="1193.86" y2="326.895" gradientUnits="userSpaceOnUse">
<stop stop-color="#600F25"/>
<stop offset="0.3333" stop-color="#DC1F26"/>
<stop offset="0.6848" stop-color="#F78C1E"/>
<stop offset="1" stop-color="#FDBA12"/>
</linearGradient>
<linearGradient id="paint25_linear_71_862" x1="-317.701" y1="326.857" x2="1193.86" y2="326.857" gradientUnits="userSpaceOnUse">
<stop stop-color="#600F25"/>
<stop offset="0.3333" stop-color="#DC1F26"/>
<stop offset="0.6848" stop-color="#F78C1E"/>
<stop offset="1" stop-color="#FDBA12"/>
</linearGradient>
<linearGradient id="paint26_linear_71_862" x1="-317.698" y1="326.854" x2="1193.86" y2="326.854" gradientUnits="userSpaceOnUse">
<stop stop-color="#600F25"/>
<stop offset="0.3333" stop-color="#DC1F26"/>
<stop offset="0.6848" stop-color="#F78C1E"/>
<stop offset="1" stop-color="#FDBA12"/>
</linearGradient>
<linearGradient id="paint27_linear_71_862" x1="-317.7" y1="326.667" x2="1193.86" y2="326.667" gradientUnits="userSpaceOnUse">
<stop stop-color="#600F25"/>
<stop offset="0.3333" stop-color="#DC1F26"/>
<stop offset="0.6848" stop-color="#F78C1E"/>
<stop offset="1" stop-color="#FDBA12"/>
</linearGradient>
<linearGradient id="paint28_linear_71_862" x1="-317.7" y1="326.499" x2="1193.86" y2="326.499" gradientUnits="userSpaceOnUse">
<stop stop-color="#600F25"/>
<stop offset="0.3333" stop-color="#DC1F26"/>
<stop offset="0.6848" stop-color="#F78C1E"/>
<stop offset="1" stop-color="#FDBA12"/>
</linearGradient>
<linearGradient id="paint29_linear_71_862" x1="-317.697" y1="326.313" x2="1193.86" y2="326.313" gradientUnits="userSpaceOnUse">
<stop stop-color="#600F25"/>
<stop offset="0.3333" stop-color="#DC1F26"/>
<stop offset="0.6848" stop-color="#F78C1E"/>
<stop offset="1" stop-color="#FDBA12"/>
</linearGradient>
<linearGradient id="paint30_linear_71_862" x1="-317.698" y1="326.005" x2="1193.86" y2="326.005" gradientUnits="userSpaceOnUse">
<stop stop-color="#600F25"/>
<stop offset="0.3333" stop-color="#DC1F26"/>
<stop offset="0.6848" stop-color="#F78C1E"/>
<stop offset="1" stop-color="#FDBA12"/>
</linearGradient>
<linearGradient id="paint31_linear_71_862" x1="-317.699" y1="325.598" x2="1193.86" y2="325.598" gradientUnits="userSpaceOnUse">
<stop stop-color="#600F25"/>
<stop offset="0.3333" stop-color="#DC1F26"/>
<stop offset="0.6848" stop-color="#F78C1E"/>
<stop offset="1" stop-color="#FDBA12"/>
</linearGradient>
<linearGradient id="paint32_linear_71_862" x1="-317.698" y1="325.085" x2="1193.86" y2="325.085" gradientUnits="userSpaceOnUse">
<stop stop-color="#600F25"/>
<stop offset="0.3333" stop-color="#DC1F26"/>
<stop offset="0.6848" stop-color="#F78C1E"/>
<stop offset="1" stop-color="#FDBA12"/>
</linearGradient>
<linearGradient id="paint33_linear_71_862" x1="-317.698" y1="324.42" x2="1193.86" y2="324.42" gradientUnits="userSpaceOnUse">
<stop stop-color="#600F25"/>
<stop offset="0.3333" stop-color="#DC1F26"/>
<stop offset="0.6848" stop-color="#F78C1E"/>
<stop offset="1" stop-color="#FDBA12"/>
</linearGradient>
<linearGradient id="paint34_linear_71_862" x1="-317.699" y1="323.582" x2="1193.86" y2="323.582" gradientUnits="userSpaceOnUse">
<stop stop-color="#600F25"/>
<stop offset="0.3333" stop-color="#DC1F26"/>
<stop offset="0.6848" stop-color="#F78C1E"/>
<stop offset="1" stop-color="#FDBA12"/>
</linearGradient>
<linearGradient id="paint35_linear_71_862" x1="-317.699" y1="319.106" x2="1193.86" y2="319.106" gradientUnits="userSpaceOnUse">
<stop stop-color="#600F25"/>
<stop offset="0.3333" stop-color="#DC1F26"/>
<stop offset="0.6848" stop-color="#F78C1E"/>
<stop offset="1" stop-color="#FDBA12"/>
</linearGradient>
<linearGradient id="paint36_linear_71_862" x1="-317.696" y1="303.614" x2="1193.86" y2="303.614" gradientUnits="userSpaceOnUse">
<stop stop-color="#600F25"/>
<stop offset="0.3333" stop-color="#DC1F26"/>
<stop offset="0.6848" stop-color="#F78C1E"/>
<stop offset="1" stop-color="#FDBA12"/>
</linearGradient>
<linearGradient id="paint37_linear_71_862" x1="-317.697" y1="288.158" x2="1193.86" y2="288.158" gradientUnits="userSpaceOnUse">
<stop stop-color="#600F25"/>
<stop offset="0.3333" stop-color="#DC1F26"/>
<stop offset="0.6848" stop-color="#F78C1E"/>
<stop offset="1" stop-color="#FDBA12"/>
</linearGradient>
<linearGradient id="paint38_linear_71_862" x1="-317.699" y1="272.737" x2="1193.86" y2="272.737" gradientUnits="userSpaceOnUse">
<stop stop-color="#600F25"/>
<stop offset="0.3333" stop-color="#DC1F26"/>
<stop offset="0.6848" stop-color="#F78C1E"/>
<stop offset="1" stop-color="#FDBA12"/>
</linearGradient>
<linearGradient id="paint39_linear_71_862" x1="-317.696" y1="257.356" x2="1193.86" y2="257.356" gradientUnits="userSpaceOnUse">
<stop stop-color="#600F25"/>
<stop offset="0.3333" stop-color="#DC1F26"/>
<stop offset="0.6848" stop-color="#F78C1E"/>
<stop offset="1" stop-color="#FDBA12"/>
</linearGradient>
<linearGradient id="paint40_linear_71_862" x1="-317.693" y1="242.009" x2="1193.86" y2="242.009" gradientUnits="userSpaceOnUse">
<stop stop-color="#600F25"/>
<stop offset="0.3333" stop-color="#DC1F26"/>
<stop offset="0.6848" stop-color="#F78C1E"/>
<stop offset="1" stop-color="#FDBA12"/>
</linearGradient>
<linearGradient id="paint41_linear_71_862" x1="-317.693" y1="226.702" x2="1193.86" y2="226.702" gradientUnits="userSpaceOnUse">
<stop stop-color="#600F25"/>
<stop offset="0.3333" stop-color="#DC1F26"/>
<stop offset="0.6848" stop-color="#F78C1E"/>
<stop offset="1" stop-color="#FDBA12"/>
</linearGradient>
<linearGradient id="paint42_linear_71_862" x1="-317.693" y1="211.45" x2="1193.86" y2="211.45" gradientUnits="userSpaceOnUse">
<stop stop-color="#600F25"/>
<stop offset="0.3333" stop-color="#DC1F26"/>
<stop offset="0.6848" stop-color="#F78C1E"/>
<stop offset="1" stop-color="#FDBA12"/>
</linearGradient>
<linearGradient id="paint43_linear_71_862" x1="-317.693" y1="196.264" x2="1193.86" y2="196.264" gradientUnits="userSpaceOnUse">
<stop stop-color="#600F25"/>
<stop offset="0.3333" stop-color="#DC1F26"/>
<stop offset="0.6848" stop-color="#F78C1E"/>
<stop offset="1" stop-color="#FDBA12"/>
</linearGradient>
</defs>
</svg>
