<svg width="54" height="54" viewBox="0 0 54 54" fill="none" xmlns="http://www.w3.org/2000/svg">
<path d="M49.3774 6.22113C48.8925 5.81856 48.3075 5.55493 47.6847 5.45826C47.0619 5.36159 46.4245 5.4355 45.8404 5.67213L5.52715 21.9464C4.87571 22.2141 4.32109 22.6736 3.93693 23.2639C3.55277 23.8542 3.35723 24.5474 3.37627 25.2514C3.39531 25.9555 3.62803 26.6371 4.04354 27.2058C4.45905 27.7744 5.03769 28.2033 5.70265 28.4354L14.4011 31.4549L19.1149 47.0384C19.1239 47.0699 19.1531 47.0901 19.1666 47.1194C19.2158 47.2434 19.2867 47.3577 19.3759 47.4569C19.513 47.6083 19.6888 47.7195 19.8844 47.7786C19.9069 47.7876 19.9226 47.8079 19.9452 47.8124H19.9586L19.9654 47.8146C20.1395 47.8519 20.3203 47.8426 20.4896 47.7876L20.5459 47.7764C20.7083 47.719 20.8553 47.6251 20.9756 47.5019C20.9891 47.4861 21.0116 47.4839 21.0251 47.4704L27.8044 39.9869L37.6977 47.6481C38.2984 48.1184 39.0386 48.3726 39.8014 48.3726C41.4529 48.3726 42.8772 47.2161 43.2169 45.6029L50.5564 9.56238C50.6816 8.95055 50.6381 8.31617 50.4304 7.72719C50.2227 7.13821 49.8587 6.61683 49.3774 6.21888M21.5742 34.4136L19.9834 42.1469L16.6646 31.1714L33.1234 22.5989L21.8801 33.8444C21.7247 34.0001 21.6183 34.198 21.5742 34.4136ZM41.0119 45.1506C40.9697 45.3547 40.8757 45.5444 40.7389 45.7016C40.6022 45.8588 40.4273 45.9782 40.2311 46.0484C40.0395 46.1209 39.8325 46.1429 39.6299 46.1122C39.4273 46.0814 39.2361 45.999 39.0746 45.8729L28.3579 37.5726C28.1339 37.3997 27.8529 37.3175 27.571 37.3426C27.2891 37.3676 27.027 37.4979 26.8369 37.7076L22.1187 42.9074L23.7072 35.1966L39.8824 19.0191C40.0718 18.8291 40.1871 18.5776 40.2074 18.31C40.2277 18.0425 40.1517 17.7765 39.9931 17.56C39.8345 17.3436 39.6037 17.1909 39.3425 17.1297C39.0812 17.0684 38.8067 17.1025 38.5684 17.2259L15.2516 29.3714L6.4384 26.3069C6.20544 26.2286 6.00236 26.0802 5.85697 25.882C5.71157 25.6839 5.63096 25.4456 5.62615 25.1999C5.61426 24.9515 5.68032 24.7056 5.81506 24.4967C5.94981 24.2877 6.14651 24.1261 6.37765 24.0344L46.6841 7.76013C46.8909 7.67341 47.1176 7.64558 47.3392 7.67973C47.5608 7.71388 47.7686 7.80868 47.9397 7.95363C48.1098 8.09036 48.2384 8.27197 48.3108 8.47793C48.3831 8.6839 48.3964 8.906 48.3492 9.11913L41.0119 45.1506Z" fill="white"/>
</svg>
