<svg width="54" height="54" viewBox="0 0 54 54" fill="none" xmlns="http://www.w3.org/2000/svg">
<path d="M10.386 42.75C9.3495 42.75 8.48475 42.4035 7.79175 41.7105C7.09875 41.0175 6.7515 40.152 6.75 39.114V14.886C6.75 13.8495 7.09725 12.9847 7.79175 12.2917C8.48625 11.5987 9.35025 11.2515 10.3837 11.25H43.6162C44.6512 11.25 45.5153 11.5972 46.2083 12.2917C46.9013 12.9862 47.2485 13.851 47.25 14.886V39.1163C47.25 40.1513 46.9028 41.016 46.2083 41.7105C45.5138 42.405 44.6497 42.7515 43.6162 42.75H10.386ZM27 27.261L9 15.4913V39.1163C9 39.5198 9.12975 39.8512 9.38925 40.1107C9.64875 40.3702 9.981 40.5 10.386 40.5H43.6162C44.0197 40.5 44.3512 40.3702 44.6107 40.1107C44.8703 39.8512 45 39.519 45 39.114V15.489L27 27.261ZM27 24.75L44.307 13.5H9.693L27 24.75ZM9 15.4913V13.5V39.1163C9 39.5198 9.12975 39.8512 9.38925 40.1107C9.64875 40.3702 9.981 40.5 10.386 40.5H9V15.4913Z" fill="white"/>
</svg>
