<svg width="35" height="35" viewBox="0 0 35 35" fill="none" xmlns="http://www.w3.org/2000/svg">
<g clip-path="url(#clip0_433_1935)">
<path d="M17.5002 0.910156C8.34016 0.910156 0.910156 8.34016 0.910156 17.5002C0.910156 26.6602 8.34016 34.0902 17.5002 34.0902C26.6602 34.0902 34.0902 26.6602 34.0902 17.5002C34.0902 8.34016 26.6602 0.910156 17.5002 0.910156ZM24.0302 9.29016H22.0902C20.1802 9.29016 19.5802 10.4802 19.5802 11.7002V14.5902H23.8502L23.1702 19.0402H19.5802V29.8102H14.7602V19.0402H10.8502V14.5902H14.7602V11.2002C14.7602 7.34016 17.0602 5.21016 20.5802 5.21016C22.2702 5.21016 24.0302 5.51016 24.0302 5.51016V9.30016V9.29016Z" fill="url(#paint0_linear_433_1935)"/>
</g>
<defs>
<linearGradient id="paint0_linear_433_1935" x1="29.2302" y1="29.2302" x2="5.77015" y2="5.77015" gradientUnits="userSpaceOnUse">
<stop stop-color="#1677F1"/>
<stop offset="0.18" stop-color="#176EE9"/>
<stop offset="0.46" stop-color="#1D55D3"/>
<stop offset="0.82" stop-color="#252EB0"/>
<stop offset="1" stop-color="#2B189C"/>
</linearGradient>
<clipPath id="clip0_433_1935">
<rect width="35" height="35" fill="white"/>
</clipPath>
</defs>
</svg>
