<svg width="394" height="792" viewBox="0 0 394 792" fill="none" xmlns="http://www.w3.org/2000/svg">
<g opacity="0.5">
<g opacity="0.2">
<mask id="mask0_433_3867" style="mask-type:luminance" maskUnits="userSpaceOnUse" x="-595" y="0" width="1582" height="791">
<path d="M-595 0H986.51V790.765H-595V0Z" fill="white"/>
</mask>
<g mask="url(#mask0_433_3867)">
<path d="M-623.105 -1.97844C-623.195 -2.0725 -602.966 86.9844 -572.69 159.456C-564.714 176.588 -532.996 266.248 -454.497 364.592C-415.324 413.257 -363.743 462.364 -301.522 500.763C-239.462 539.316 -167.289 566.794 -92.4717 579.92C56.7587 605.291 217.338 584.772 329.58 511.19C386.652 478.131 436.115 445.013 478.284 422.056C520.244 398.584 554.427 384.765 575.449 377.833C617.176 362.913 676.687 352.807 740.574 361.167C804.321 368.573 871.411 396.139 923.378 439.317C975.933 481.886 1011.72 537.71 1031.69 580.871C1051.85 624.3 1058.75 654.315 1059.12 654.088C1058.75 654.315 1051.94 624.269 1031.9 580.742C1012.04 537.473 976.38 481.433 923.817 438.596C871.858 395.128 804.633 367.256 740.709 359.673C676.663 351.117 616.88 361.153 575.018 376.112C553.929 383.075 519.641 396.936 477.623 420.454C435.39 443.442 385.9 476.563 328.903 509.594C216.898 583.027 56.772 603.451 -92.2495 578.157C-166.908 565.056 -238.904 537.654 -300.81 499.192C-362.862 460.901 -414.312 411.926 -453.384 363.376C-531.687 265.29 -563.352 175.815 -571.304 158.714C-601.504 86.4339 -623.182 -2.04115 -623.105 -1.97844Z" fill="url(#paint0_linear_433_3867)"/>
<path d="M-662.707 -0.77722C-662.736 -0.899144 -642.338 89.2933 -611.364 162.42C-603.226 179.695 -570.776 270.222 -490.738 368.973C-450.822 417.837 -398.214 467.004 -334.631 504.4C-271.27 542.001 -197.659 567.946 -121.59 577.77C-45.4954 588.032 32.3239 583.051 105.74 570.639C179.743 560.756 248.031 533.762 307.099 504.072C366.34 474.469 418.241 445.162 462.058 425.086C505.714 404.572 540.935 393.006 562.452 387.129C605.306 374.679 665.457 366.772 730.095 373.732C794.574 380.215 863.296 404.073 917.578 444.873C972.452 484.933 1010.21 540.277 1030.88 583.622C1051.78 627.222 1058.82 657.609 1059.21 657.358C1058.81 657.609 1051.88 627.191 1031.09 583.486C1010.54 540.026 972.888 484.449 917.993 444.106C863.698 403.028 794.842 378.88 730.209 372.209C665.43 365.065 605.074 372.875 562.087 385.363C540.512 391.254 505.203 402.854 461.479 423.404C417.601 443.497 365.668 472.828 306.491 502.407C247.441 532.073 179.425 558.969 105.518 568.849C32.1758 581.246 -45.4901 586.204 -121.424 575.969C-197.312 566.177 -270.736 540.284 -333.931 502.773C-397.342 465.485 -449.809 416.457 -489.619 367.723C-569.456 269.229 -601.846 178.887 -609.962 161.643C-640.857 88.7359 -662.728 -0.867792 -662.707 -0.77722Z" fill="url(#paint1_linear_433_3867)"/>
<path d="M-702.099 0.414199C-702.136 0.285308 -681.582 91.6726 -649.951 165.576C-641.684 183.018 -608.499 274.583 -526.76 373.815C-486.019 422.888 -432.303 472.187 -367.292 508.555C-302.593 545.248 -227.466 569.8 -150.147 576.209C-72.7849 583.197 5.63733 573.433 79.6059 558.645C154.151 546.456 223.756 522.409 284.93 496.119C346.223 470.031 400.449 444.765 445.852 427.845C491.142 410.511 527.308 401.193 549.322 396.476C593.263 386.673 654.088 380.594 719.578 386.255C784.877 391.815 855.157 412.023 911.726 450.342C968.89 487.832 1008.68 542.691 1030.06 586.284C1051.72 630.107 1058.88 660.901 1059.29 660.626C1058.87 660.901 1051.81 630.086 1030.27 586.141C1009 542.44 969.314 487.323 912.117 449.558C855.514 410.95 785.107 390.453 719.673 384.712C654.059 378.877 593.099 384.851 549.031 394.685C526.964 399.406 490.714 408.734 445.363 426.11C399.899 443.047 345.641 468.338 284.393 494.395C223.23 520.675 153.847 544.659 79.3414 556.837C5.41248 571.625 -72.8564 581.358 -150.038 574.391C-227.162 567.992 -302.085 543.509 -366.615 506.911C-431.447 470.654 -485.001 421.488 -525.644 372.561C-607.169 273.573 -640.288 182.203 -648.555 164.792C-680.082 91.1083 -702.128 0.323627 -702.099 0.414199Z" fill="url(#paint2_linear_433_3867)"/>
<path d="M-741.576 1.75795C-741.624 1.62906 -720.789 94.166 -688.416 168.895C-679.985 186.543 -645.877 279.1 -562.519 379.102C-520.85 428.436 -465.778 477.509 -399.415 513.149C-333.33 549.061 -256.569 571.917 -178.062 575.125C-99.4386 578.755 -20.535 564.03 54.0128 546.79C129.09 531.717 200.091 510.53 263.224 487.612C326.464 465.059 382.906 444.332 429.772 430.628C476.569 416.596 513.632 409.636 536.125 406.156C624.523 392.939 786.199 383.178 905.838 455.761C965.248 490.573 1007.13 544.958 1029.23 588.847C1051.64 632.966 1058.93 664.203 1059.38 663.91C1058.93 664.203 1051.74 632.938 1029.44 588.704C1007.46 544.696 965.661 490.043 906.198 454.946C847.341 418.899 775.446 401.989 709.131 397.203C642.578 392.431 580.976 397.315 535.905 404.32C513.367 407.803 476.234 414.784 429.381 428.834C382.454 442.555 325.972 463.307 262.756 485.838C199.62 508.76 128.791 529.898 53.7139 544.968C-20.8365 562.222 -99.5787 576.895 -178.009 573.286C-256.302 570.081 -332.849 547.285 -398.749 511.477C-464.929 475.931 -519.84 427.005 -561.382 377.814C-644.536 278.069 -678.578 185.714 -686.991 168.101C-719.271 93.5947 -741.616 1.67783 -741.576 1.75795Z" fill="url(#paint3_linear_433_3867)"/>
<path d="M-781.129 2.8146C-781.192 2.67874 -759.987 96.7658 -726.849 172.421C-718.233 190.268 -683.3 284.08 -597.991 384.705C-555.504 434.52 -498.94 483.345 -431.136 518.216C-363.549 553.156 -285.124 574.457 -205.425 574.311C-125.558 574.653 -46.2925 554.775 28.8716 535.003C104.557 517.202 176.925 497.99 241.923 478.67C371.781 439.08 476.581 418.882 522.678 415.779C568.566 411.33 630.951 407.989 698.379 411.396C765.569 415.099 838.755 428.208 899.802 461.235C961.46 493.225 1005.55 547.073 1028.37 591.325C1051.57 635.775 1058.99 667.503 1059.46 667.186C1058.99 667.503 1051.67 635.75 1028.59 591.168C1005.88 546.798 961.862 492.667 900.138 460.389C839.033 427.069 765.72 413.702 698.445 409.801C630.914 406.23 568.51 409.445 522.525 413.908C476.365 417.012 371.387 437.258 241.532 476.849C176.502 496.179 104.266 515.349 28.5225 533.174C-46.6681 552.953 -125.781 572.782 -205.422 572.437C-284.891 572.587 -363.102 551.337 -430.483 516.498C-498.094 481.729 -554.489 433.05 -596.856 383.378C-681.94 283.014 -716.81 189.407 -725.398 171.592C-758.445 96.1875 -781.181 2.72403 -781.129 2.8146Z" fill="url(#paint4_linear_433_3867)"/>
<path d="M-820.612 4.1349C-820.681 4.00253 -799.166 99.4935 -765.204 176.145C-756.389 194.194 -720.585 289.375 -633.185 390.683C-589.741 440.93 -531.717 489.706 -462.334 523.688C-393.134 557.454 -313.035 577.478 -232.124 573.754C-151.028 570.681 -71.5371 545.603 4.2854 523.256C80.6104 502.55 154.452 485.07 221.198 469.317C354.793 437.617 462.384 427.083 509.152 425.473C555.915 423.592 619.249 421.798 687.749 423.867C756.002 426.581 830.577 436.248 893.779 466.562C957.61 495.715 1003.96 549.017 1027.5 593.714C1051.5 638.544 1059.03 670.812 1059.54 670.461C1059.03 670.812 1051.6 638.523 1027.72 593.551C1004.29 548.725 957.996 495.127 894.088 465.684C830.815 435.074 756.108 425.153 687.791 422.254C619.199 420.018 555.917 421.683 509.07 423.571C462.251 425.184 354.524 435.732 220.875 467.443C154.074 483.216 80.3063 500.676 3.87817 521.403C-71.9867 543.76 -151.335 568.786 -232.195 571.845C-312.847 575.555 -392.713 555.591 -461.715 521.936C-530.886 488.045 -588.722 439.425 -632.047 389.328C-719.213 288.284 -754.948 193.319 -763.744 175.299C-797.603 98.8908 -820.673 4.04433 -820.612 4.1349Z" fill="url(#paint5_linear_433_3867)"/>
<path d="M-860.138 5.21113C-860.214 5.05437 -838.319 102.318 -803.478 180.033C-794.46 198.318 -757.718 294.948 -668.116 397.019C-623.628 447.674 -564.104 496.447 -493.053 529.495C-422.176 562.052 -340.31 580.731 -258.217 573.363C-175.931 566.699 -96.3242 536.438 -19.822 511.475C57.1483 487.727 132.656 472.128 201.029 459.859C338.12 436.213 447.993 435.411 495.488 435.241C543.074 435.882 607.442 435.6 677.074 436.307C746.467 437.982 822.398 444.301 887.703 471.835C953.642 498.094 1002.35 550.78 1026.58 596.034C1051.45 641.258 1059.07 674.121 1059.63 673.735C1059.07 674.121 1051.56 641.23 1026.8 595.86C1002.69 550.483 954.02 497.485 887.983 470.933C822.591 443.093 746.538 436.537 677.095 434.676C607.379 433.788 543.129 433.952 495.475 433.3C447.95 433.482 337.985 434.283 200.78 457.947C132.328 470.236 56.8442 485.822 -20.2637 509.611C-96.8505 534.609 -176.304 564.797 -258.352 571.433C-340.154 578.784 -421.779 560.164 -492.445 527.694C-563.279 494.754 -622.604 446.137 -666.958 395.636C-756.334 293.837 -793 197.426 -801.997 179.176C-836.732 101.705 -860.204 5.10662 -860.138 5.21113Z" fill="url(#paint6_linear_433_3867)"/>
<path d="M-899.687 6.43768C-899.771 6.2844 -877.461 105.245 -841.684 184.102C-832.454 202.631 -794.704 300.804 -702.781 403.684C-657.182 454.78 -596.069 503.543 -523.264 535.574C-450.665 566.909 -366.938 584.163 -283.702 573.061C-200.271 562.62 -120.621 527.381 -43.5004 499.443C34.2501 473.017 111.432 458.612 181.373 450.029C321.728 434.593 433.391 443.786 481.669 445.005C530.03 448.224 595.514 449.409 666.346 448.715C736.945 449.329 814.204 452.338 881.561 477.075C949.561 500.394 1000.7 552.396 1025.63 598.274C1051.39 643.933 1059.11 677.435 1059.71 677.003C1059.11 677.435 1051.5 643.902 1025.85 598.104C1001.05 552.093 949.923 499.749 881.815 476.138C814.363 451.102 736.985 447.852 666.351 447.057C595.448 447.566 530.141 446.256 481.735 443.037C433.449 441.822 321.736 432.615 181.201 448.061C111.149 456.668 33.9329 471.069 -43.9843 497.558C-121.219 525.538 -200.728 560.704 -283.893 571.11C-366.813 582.17 -450.295 564.975 -522.677 533.731C-595.246 501.794 -656.158 453.202 -701.615 402.252C-793.289 299.648 -830.963 201.708 -840.174 183.207C-875.856 104.625 -899.758 6.32969 -899.687 6.43768Z" fill="url(#paint7_linear_433_3867)"/>
<path d="M-939.157 7.60959C-939.244 7.4389 -916.595 108.277 -879.813 188.329C-870.364 207.126 -831.535 306.909 -737.179 410.663C-690.413 462.223 -627.605 510.951 -552.988 541.909C-478.618 571.986 -392.946 587.693 -308.598 572.776C-224.069 558.501 -144.554 518.067 -66.698 487.412C11.7982 458.077 90.842 444.972 162.251 440.095C305.626 433.024 418.595 452.166 467.717 454.789C492.297 456.952 521.163 459.99 553.016 461.174C584.86 462.184 619.526 461.421 655.581 461.118C727.445 460.613 806.015 460.383 875.369 482.298C945.373 502.621 999.017 553.892 1024.67 600.439C1051.33 646.579 1059.14 680.763 1059.8 680.282C1059.14 680.749 1051.44 646.551 1024.89 600.258C999.358 553.575 945.717 501.953 875.588 481.323C806.126 459.122 727.447 459.105 655.563 459.422C619.51 459.634 584.831 460.317 553.055 459.248C521.298 458.018 492.419 454.945 467.85 452.782C418.741 450.17 305.771 431.017 162.163 438.096C90.6067 442.98 11.473 456.102 -67.2349 485.51C-145.229 516.218 -224.614 556.568 -308.862 570.78C-392.857 585.659 -478.287 569.997 -552.42 540.01C-626.79 509.156 -689.384 460.592 -736.007 409.203C-830.112 305.724 -868.851 206.175 -878.287 187.413C-914.948 107.643 -939.239 7.49812 -939.157 7.60959Z" fill="url(#paint8_linear_433_3867)"/>
<path d="M-978.671 8.81079C-978.756 8.62964 -955.692 111.405 -917.876 192.707C-908.191 211.793 -868.23 313.255 -771.34 417.918C-723.334 469.949 -658.736 518.621 -582.249 548.426C-506.046 577.21 -418.359 591.266 -332.963 572.414C-247.384 554.202 -168.121 508.564 -89.4819 475.247C-10.2029 443.049 70.8165 430.825 143.64 430.132C216.659 429.501 281.747 438.935 334.672 446.675C387.616 454.725 428.661 461.257 453.608 464.601C478.55 467.932 507.871 472.157 540.305 473.808C572.734 475.324 608.051 474.4 644.756 473.509C717.945 471.861 797.808 468.447 869.106 487.502C941.059 504.815 997.261 555.261 1023.67 602.539C1051.26 649.194 1059.16 684.079 1059.88 683.56C1059.16 684.079 1051.37 649.166 1023.89 602.358C997.613 554.944 941.395 504.101 869.299 486.509C797.877 467.155 717.905 470.321 644.717 471.777C608.019 472.579 572.703 473.411 540.366 471.85C508.054 470.161 478.735 465.897 453.806 462.581C428.875 459.226 387.848 452.705 334.886 444.648C281.943 436.911 216.789 427.456 143.611 428.09C70.6313 428.79 -10.5573 441.032 -90.0664 473.314C-168.877 506.71 -248.006 552.272 -333.288 570.4C-418.317 589.187 -505.752 575.186 -581.707 546.489C-657.939 516.781 -722.308 468.29 -770.161 416.424C-866.786 312.046 -906.67 210.818 -916.328 191.773C-954.028 110.75 -978.75 8.67841 -978.671 8.81079Z" fill="url(#paint9_linear_433_3867)"/>
<path d="M-1018.18 10.0042C-1018.27 9.8091 -994.794 114.608 -955.87 197.231C-945.95 216.613 -904.794 319.827 -805.246 425.445C-755.947 477.949 -689.484 526.527 -611.054 555.088C-532.986 582.549 -443.208 594.829 -356.822 571.917C-270.257 549.671 -191.369 498.84 -111.895 462.914C-31.7771 427.897 51.3871 416.889 125.501 420.251C199.869 423.494 265.586 438.094 319.054 449.352C372.531 461.074 414.074 469.846 439.378 474.368C464.666 478.868 494.435 484.268 527.474 486.424C560.506 488.445 596.508 487.354 633.888 485.863C708.451 483.031 789.603 476.486 862.791 492.691C936.644 506.96 995.456 556.513 1022.64 604.569C1051.18 651.764 1059.19 687.404 1059.96 686.833C1059.19 687.393 1051.3 651.736 1022.87 604.373C995.81 556.161 936.956 506.221 862.958 491.674C789.635 475.172 708.375 481.484 633.827 484.104C596.466 485.498 560.477 486.504 527.559 484.435C494.659 482.237 464.899 476.806 439.645 472.312C414.37 467.798 372.859 459.037 319.374 447.311C265.888 436.045 200.099 421.418 125.559 418.164C51.2575 414.813 -32.1447 425.835 -112.524 460.966C-192.205 496.99 -270.971 547.735 -357.227 569.89C-443.213 592.711 -532.727 580.476 -610.53 553.099C-688.688 524.632 -754.916 476.231 -804.059 423.905C-903.329 318.58 -944.4 215.606 -954.297 196.269C-993.089 113.95 -1018.26 9.86135 -1018.18 10.0042Z" fill="url(#paint10_linear_433_3867)"/>
<path d="M-1057.78 11.1917C-1057.9 11.0001 -1033.82 117.889 -993.806 201.888C-983.647 221.584 -941.219 326.616 -838.913 433.216C-788.265 486.194 -719.834 534.636 -639.407 561.874C-559.438 587.966 -467.504 598.329 -380.203 571.241C-292.734 544.86 -214.314 488.862 -133.93 450.4C-52.9182 412.611 32.5389 402.955 107.84 410.5C183.459 417.725 249.605 437.365 303.525 452.093C357.423 467.397 399.425 478.415 425.06 484.093C450.674 489.771 480.897 496.373 514.564 499.031C548.22 501.699 584.946 500.278 623.019 498.216C699.008 494.15 781.437 484.511 856.474 497.885C893.795 504.521 928.797 517.856 957.114 537.785C985.592 557.474 1006.85 582.946 1021.66 606.509C1051.05 654.338 1059.38 690.654 1060.05 690.11C1059.37 690.657 1051.17 654.306 1021.89 606.313C1007.13 582.671 985.909 557.063 957.413 537.217C929.08 517.117 894.002 503.612 856.614 496.836C781.434 483.163 698.894 492.572 622.939 496.428C584.893 498.393 548.196 499.721 514.675 497.007C481.175 494.307 450.975 487.678 425.407 482.017C399.804 476.339 357.851 465.348 303.945 450.031C250.02 435.306 183.8 415.631 107.975 408.385C32.4648 400.819 -53.299 410.5 -134.609 448.429C-215.224 487.013 -293.525 542.917 -380.677 569.189C-467.546 596.159 -559.208 585.848 -638.907 559.833C-719.048 532.699 -787.225 484.428 -837.717 431.635C-939.727 325.317 -982.06 220.556 -992.2 200.906C-1032.09 117.206 -1057.89 11.0628 -1057.78 11.1917Z" fill="url(#paint11_linear_433_3867)"/>
<path d="M-1097.18 12.5276C-1097.33 12.3221 -1072.83 121.235 -1031.67 206.676C-1021.27 226.699 -977.509 333.595 -872.373 441.209C-820.308 494.654 -749.827 542.915 -667.372 568.731C-585.456 593.423 -491.327 601.741 -403.186 570.355C-314.902 539.738 -237.037 478.636 -155.672 437.712C-73.7136 397.139 14.1819 389.189 90.5519 400.932C167.319 412.219 233.731 436.761 288.013 454.861C342.237 473.665 384.657 486.906 410.612 493.755C436.54 500.607 467.2 508.445 501.514 511.629C535.816 514.865 573.29 513.231 612.077 510.549C689.534 505.254 773.235 492.543 850.073 503.077C888.288 508.323 924.388 520.435 953.728 539.832C983.237 558.967 1005.29 584.578 1020.59 608.409C1050.95 656.865 1059.42 693.968 1060.13 693.383C1059.41 693.965 1051.08 656.834 1020.82 608.207C1005.57 584.289 983.547 558.538 954.016 539.24C924.65 519.669 888.468 507.4 850.182 502.004C773.193 491.181 689.378 503.645 611.977 508.731C573.222 511.309 535.786 512.841 501.646 509.563C467.525 506.331 436.9 498.486 411.024 491.647C385.104 484.813 342.752 471.582 288.526 452.785C234.242 434.688 167.763 410.101 90.7607 398.787C14.1686 386.995 -74.1129 394.969 -156.396 435.716C-238.027 476.783 -315.774 537.794 -403.731 568.282C-491.412 599.526 -585.266 591.259 -666.896 566.641C-749.058 540.912 -819.266 492.839 -871.151 439.565C-976.004 332.261 -1019.65 225.626 -1030.03 205.648C-1071.06 120.535 -1097.31 12.3918 -1097.18 12.5276Z" fill="url(#paint12_linear_433_3867)"/>
<path d="M-1136.82 13.6526C-1137 13.454 -1111.81 124.656 -1069.47 211.577C-1058.81 231.942 -1013.68 340.761 -905.594 449.399C-852.055 503.317 -779.451 551.352 -694.919 575.646C-652.761 587.908 -607.952 594.429 -562.279 594.332C-516.653 595.143 -469.909 587.11 -425.767 569.205C-336.75 534.261 -259.523 468.133 -177.107 424.805C-94.1124 381.518 -3.70459 375.276 73.6254 391.408C151.445 406.83 217.961 436.165 272.528 457.596C326.992 479.841 369.783 495.322 396.05 503.338C422.274 511.371 453.362 520.467 488.343 524.208C523.303 528.036 561.563 526.193 601.083 522.891C680.047 516.332 765.023 500.596 843.622 508.306C882.713 512.155 919.894 522.999 950.268 541.849C980.814 560.388 1003.7 586.138 1019.49 610.272C1050.85 659.373 1059.46 697.291 1060.21 696.654C1059.46 697.288 1050.98 659.342 1019.73 610.074C1003.99 585.849 981.129 559.949 950.549 541.232C920.14 522.215 882.872 511.204 843.701 507.208C764.946 499.196 679.854 514.694 600.961 521.034C561.484 524.232 523.276 525.981 488.497 522.104C453.74 518.335 422.692 509.229 396.534 501.217C370.32 493.211 327.6 477.751 273.144 455.516C218.577 434.092 152 404.712 73.9322 389.228C-3.64368 373.043 -94.525 379.31 -177.872 422.788C-260.578 466.29 -337.705 532.325 -426.38 567.125C-514.783 602.769 -610.883 596.69 -694.467 573.514C-778.697 549.3 -851.016 501.457 -904.372 447.73C-1012.15 339.399 -1057.18 230.865 -1067.81 210.539C-1110.01 123.935 -1136.99 13.5168 -1136.82 13.6526Z" fill="url(#paint13_linear_433_3867)"/>
<path d="M-1176.18 14.9651C-1176.38 14.7526 -1150.78 128.135 -1107.23 216.579C-1096.31 237.306 -1049.74 348.09 -938.625 457.769C-883.481 512.011 -808.809 559.966 -722.128 582.588C-678.93 594.202 -633.084 599.473 -586.52 598.222C-539.963 597.773 -492.515 587.841 -448.042 567.793C-358.444 528.342 -281.839 457.428 -198.317 411.734C-114.22 365.685 -21.1381 361.857 57.0065 382.347C135.754 401.976 202.283 435.857 257.091 460.479C311.743 486.007 354.878 503.693 381.435 512.868C407.961 521.932 439.414 532.627 475.091 536.94C510.744 541.047 549.803 539.225 590.076 535.219C670.577 527.349 756.819 508.615 837.143 513.53C877.088 515.993 915.33 525.562 946.743 543.826C978.331 561.763 1002.07 587.653 1018.37 612.09C1050.74 661.839 1059.5 700.603 1060.3 699.931C1059.49 700.603 1050.87 661.811 1018.61 611.874C1002.35 587.346 978.646 561.303 947.01 543.196C915.557 524.761 877.22 515.018 837.188 512.405C756.705 507.211 670.341 525.691 589.927 533.317C549.707 537.225 510.717 538.946 475.265 534.797C439.84 530.471 408.44 519.755 381.983 510.726C355.483 501.561 312.436 483.92 257.792 458.393C202.984 433.778 136.412 399.855 57.3846 380.142C-21.0059 359.578 -114.643 363.41 -199.127 409.686C-282.97 455.585 -359.489 526.419 -448.741 565.693C-493.06 585.643 -540.138 595.515 -586.583 595.968C-632.994 597.212 -678.681 591.959 -721.715 580.383C-808.079 557.848 -882.455 510.081 -937.398 456.045C-1048.2 346.672 -1094.66 236.184 -1105.55 215.506C-1148.94 127.404 -1176.37 14.8188 -1176.18 14.9651Z" fill="url(#paint14_linear_433_3867)"/>
<path d="M-1215.71 16.0237C-1215.95 15.8182 -1189.73 131.674 -1144.93 221.685C-1133.74 242.775 -1085.69 355.575 -971.462 466.3C-914.629 520.775 -837.88 568.73 -748.998 589.523C-661.076 609.369 -560.077 611.362 -470.034 566.093C-379.972 522.054 -303.999 446.475 -219.304 398.479C-176.867 374.721 -131.297 361.644 -86.843 358.167C-42.262 355.046 0.954468 361.908 40.6536 373.571C120.232 397.465 186.673 435.69 241.68 463.419C296.472 492.137 339.913 511.993 366.754 522.343C393.555 532.546 425.397 544.579 461.777 549.49C498.12 554.235 538.017 552.194 579.052 547.54C661.118 538.357 748.636 516.658 830.641 518.783C871.43 519.877 910.709 528.154 943.164 545.812C975.802 563.104 1000.41 589.126 1017.24 613.873C1050.65 664.308 1059.55 703.94 1060.39 703.212C1059.54 703.933 1050.78 664.273 1017.47 613.647C1000.7 588.813 976.111 562.62 943.423 545.153C910.915 527.321 871.536 518.877 830.663 517.647C748.482 515.23 660.849 536.671 578.88 545.606C537.903 550.159 498.093 552.096 461.975 547.31C425.883 542.391 394.094 530.345 367.367 520.166C340.598 509.848 297.244 490.04 242.468 461.325C187.467 433.614 120.975 395.336 41.119 371.338C1.28235 359.651 -42.1509 352.74 -86.9806 355.878C-131.689 359.376 -177.515 372.533 -220.15 396.396C-305.21 444.639 -381.086 520.141 -470.806 563.985C-560.362 609.031 -661 607.059 -748.612 587.287C-837.164 566.56 -913.608 518.8 -970.227 464.53C-1084.13 354.126 -1132.06 241.625 -1143.22 220.588C-1187.85 130.921 -1215.93 15.8913 -1215.71 16.0237Z" fill="url(#paint15_linear_433_3867)"/>
<path d="M-1255.2 17.2679C-1255.48 17.0554 -1228.66 135.28 -1182.58 226.883C-1171.11 248.317 -1121.6 363.264 -1004.07 474.901C-945.595 529.704 -866.641 577.551 -775.556 596.446C-685.601 614.365 -582.223 614.417 -491.808 564.031C-401.352 515.464 -326.056 435.227 -240.099 385.012C-197.028 360.327 -150.437 346.811 -104.999 344.596C-59.4447 342.171 -15.5776 351.605 24.5182 365.076C104.789 393.327 171.12 435.652 226.282 466.415C281.177 498.22 324.904 520.215 352.01 531.721C379.072 543.067 411.29 556.465 448.378 562.014C485.42 567.4 526.185 565.163 567.994 559.84C651.658 549.317 740.442 524.664 824.103 524.054C865.717 523.761 906.009 530.746 939.514 547.763C973.201 564.393 998.709 590.537 1016.06 615.598C1050.53 666.729 1059.58 707.257 1060.46 706.48C1059.57 707.247 1050.66 666.702 1016.3 615.365C999 590.207 973.514 563.902 939.76 547.084C906.202 529.889 865.799 522.734 824.098 522.88C740.259 523.214 651.351 547.596 567.806 557.883C526.06 563.087 485.404 565.216 448.609 559.788C411.84 554.235 379.681 540.845 352.702 529.527C325.669 518.055 282.04 496.102 227.16 464.315C172.008 433.558 105.641 391.188 25.0787 362.829C-15.1625 349.309 -59.2595 339.809 -105.092 342.251C-150.802 344.481 -197.684 358.091 -240.974 382.901C-327.339 433.384 -402.54 513.548 -492.662 561.892C-582.562 612.027 -685.537 611.993 -775.189 594.143C-865.94 575.314 -944.556 527.666 -1002.82 473.069C-1120.01 361.763 -1169.39 247.126 -1180.83 225.741C-1226.75 134.503 -1255.46 17.1285 -1255.2 17.2679Z" fill="url(#paint16_linear_433_3867)"/>
<path d="M-1294.71 18.5081C-1295.01 18.2921 -1267.59 138.941 -1220.26 232.217C-1208.48 253.978 -1157.58 371.287 -1036.51 483.617C-976.468 539.047 -895.116 586.277 -801.854 603.406C-755.462 612.679 -706.501 613.978 -657.273 609.066C-607.868 605.067 -558.479 588.507 -513.427 561.652C-422.573 508.709 -348.07 423.714 -260.796 371.28C-217.024 345.69 -169.317 332.013 -122.911 331.128C-76.37 329.745 -31.8762 341.391 8.52368 356.969C89.4161 389.52 155.615 435.711 210.899 469.477C265.879 504.257 309.862 528.394 337.229 541.04C364.546 553.5 397.125 568.299 434.926 574.51C472.692 580.609 514.345 578.025 556.94 572.016C642.217 560.046 732.284 532.484 817.58 529.213C860.008 527.572 901.291 533.278 935.838 549.662C970.571 565.644 996.986 591.91 1014.87 617.305C1050.41 669.144 1059.62 710.587 1060.54 709.769C1059.61 710.584 1050.55 669.116 1015.11 617.058C997.282 591.576 970.878 565.125 936.076 548.965C901.463 532.401 860.063 526.52 817.54 528.015C732.064 531.004 641.871 558.308 556.723 570.019C514.205 575.907 472.668 578.366 435.19 572.242C397.728 566.045 365.21 551.254 337.988 538.821C310.7 526.214 266.82 502.143 211.861 467.366C156.593 433.621 90.347 387.388 9.17432 354.701C-31.387 339.064 -76.1161 327.356 -122.956 328.735C-169.671 329.627 -217.706 343.408 -261.716 369.137C-349.426 421.878 -423.847 506.807 -514.361 559.517C-604.486 614.8 -709.839 616.751 -801.54 601.058C-894.442 583.995 -975.448 536.95 -1035.26 481.739C-1155.97 369.75 -1206.73 252.763 -1218.47 231.057C-1265.64 138.147 -1294.99 18.3688 -1294.71 18.5081Z" fill="url(#paint17_linear_433_3867)"/>
<path d="M-1334.2 19.7522C-1334.54 19.5328 -1306.49 142.645 -1257.8 237.561C-1245.71 259.681 -1193.27 379.216 -1068.77 492.438C-1007.03 548.359 -923.235 594.792 -827.836 610.231C-733.75 624.036 -625.66 619.431 -534.839 558.925C-443.731 501.506 -369.987 411.912 -281.258 357.485C-236.812 330.951 -187.902 317.139 -140.533 317.759C-93.0427 317.78 -47.9353 331.373 -7.3186 349.31C74.0683 386.159 140.095 436.13 195.488 472.759C250.531 510.427 294.766 536.634 322.392 550.39C349.965 563.945 382.907 580.018 421.421 586.985C459.906 593.778 502.475 591.04 545.863 584.344C632.78 570.999 724.116 540.518 811.012 534.544C854.239 531.544 896.496 535.93 932.09 551.616C967.875 566.878 995.229 593.248 1013.67 618.96C1050.3 671.534 1059.66 713.908 1060.64 713.037C1059.66 713.897 1050.44 671.506 1013.92 618.713C995.533 592.893 968.182 566.345 932.323 550.895C896.652 535.021 854.274 530.471 810.951 533.331C723.865 539.023 632.397 569.219 545.623 582.303C502.316 588.873 459.891 591.486 421.712 584.682C383.584 577.733 350.684 561.663 323.217 548.157C295.681 534.436 251.552 508.309 196.527 470.655C141.158 434.043 75.0972 384.02 -6.58337 347.035C-47.3561 329.032 -92.7068 315.348 -140.525 315.324C-188.232 314.704 -237.505 328.624 -282.202 355.312C-371.399 410.066 -445.056 499.614 -535.844 556.79C-626.13 616.975 -733.755 621.566 -827.543 607.816C-922.571 592.437 -1006 546.207 -1067.49 490.512C-1191.62 377.631 -1243.93 258.42 -1255.98 236.366C-1304.51 141.83 -1334.52 19.6094 -1334.2 19.7522Z" fill="url(#paint18_linear_433_3867)"/>
<path d="M-1373.71 20.9925C-1374.09 20.773 -1345.38 146.393 -1295.3 242.995C-1282.9 265.468 -1228.87 387.273 -1100.86 501.373C-1037.39 557.779 -951.105 603.305 -853.554 617.01C-757.383 628.798 -646.96 621.42 -556.13 555.821C-464.965 493.727 -391.819 399.852 -301.57 343.489C-256.359 316.136 -206.24 302.334 -157.911 304.334C-109.469 305.936 -63.8673 321.779 -23.0072 341.733C58.8002 382.842 124.652 436.426 180.14 475.856C235.244 516.335 279.667 544.642 307.505 559.618C335.321 574.298 368.609 591.684 407.84 599.435C447.048 606.963 490.558 604.068 534.755 596.683C623.333 581.937 715.936 548.575 804.411 539.926C848.423 535.599 891.634 538.609 928.281 553.595C965.111 568.104 993.427 594.572 1012.43 620.605C1050.18 673.91 1059.7 717.242 1060.71 716.318C1059.68 717.224 1050.32 673.879 1012.68 620.35C993.729 594.21 965.418 567.561 928.501 552.853C891.772 537.672 848.434 534.495 804.321 538.696C715.65 547.039 622.91 580.133 534.493 594.603C490.383 601.863 447.04 604.622 408.16 597.087C369.355 589.361 336.104 571.992 308.404 557.378C280.656 542.448 236.339 514.207 181.267 473.752C125.79 434.339 59.9189 380.714 -22.1821 339.441C-63.2008 319.403 -109.054 303.463 -157.861 301.857C-206.542 299.826 -257.076 313.76 -302.548 341.273C-393.311 398.006 -466.375 491.846 -557.208 553.668C-647.513 618.925 -757.423 626.272 -853.302 614.54C-950.47 600.884 -1036.38 555.563 -1099.58 499.388C-1227.2 385.647 -1281.1 264.172 -1293.45 241.759C-1343.35 145.557 -1374.07 20.8531 -1373.71 20.9925Z" fill="url(#paint19_linear_433_3867)"/>
<path d="M-1413.21 22.2347C-1413.62 22.0117 -1384.25 150.182 -1332.76 248.477C-1320.04 271.308 -1264.4 395.441 -1132.81 510.373C-1067.55 567.225 -978.756 611.877 -879.031 623.634C-780.785 633.506 -668.024 623.129 -577.302 552.451C-486.005 485.982 -413.613 387.589 -321.764 329.393C-275.744 301.298 -224.366 287.545 -175.098 291.217C-125.73 294.425 -79.6658 312.463 -38.6179 334.521C43.5465 379.789 109.235 436.843 164.826 478.997C219.972 522.214 264.593 552.556 292.64 568.688C320.678 584.486 354.276 603.311 394.226 611.856C434.163 620.143 478.633 617.106 523.648 609.01C613.903 592.839 707.775 556.61 797.813 545.32C842.603 539.677 886.737 541.307 924.431 555.569C962.313 569.332 991.606 595.863 1011.17 622.227C1050.06 676.27 1059.73 720.574 1060.8 719.585C1059.73 720.56 1050.21 676.235 1011.43 621.969C991.913 595.483 962.615 568.754 924.643 554.809C886.861 540.349 842.587 538.559 797.696 544.063C707.46 555.057 613.445 591.014 523.363 606.896C478.451 614.848 434.166 617.754 394.581 609.463C355.083 600.956 321.522 582.162 293.615 566.427C265.656 550.351 221.144 520.082 166.026 476.883C110.462 434.753 44.7604 377.671 -37.7081 332.218C-78.9067 310.08 -125.233 291.917 -174.985 288.691C-224.636 284.988 -276.455 298.86 -322.768 327.139C-415.173 385.757 -487.476 484.118 -578.46 550.305C-668.664 620.621 -780.846 630.925 -878.807 621.122C-978.14 609.4 -1066.54 564.95 -1131.53 508.336C-1262.69 393.762 -1318.21 269.981 -1330.88 247.216C-1382.19 149.325 -1413.6 22.1023 -1413.21 22.2347Z" fill="url(#paint20_linear_433_3867)"/>
<path d="M-1452.7 23.4768C-1453.16 23.2574 -1423.12 154.012 -1370.19 254.035C-1357.14 277.222 -1299.86 403.713 -1164.61 519.447C-1097.52 576.639 -1006.19 620.532 -904.282 630.046C-803.946 638.316 -688.916 624.427 -598.4 548.771C-507.011 478.006 -435.385 375.082 -341.804 315.238C-295.012 286.223 -242.259 272.958 -192.095 278.253C-141.814 283.179 -95.4004 303.561 -54.17 327.601C28.288 377.011 93.8545 437.343 149.517 482.183C204.716 528.047 249.509 560.43 277.788 577.674C306.033 594.59 339.893 614.878 380.57 624.312C421.253 633.261 466.697 630.15 512.537 621.358C604.481 603.706 699.633 564.659 791.208 550.739C836.762 543.741 881.814 544.134 920.534 557.616C959.414 570.627 989.801 597.039 1009.96 623.772C1049.89 678.645 1059.76 723.899 1060.89 722.858C1059.75 723.889 1050.04 678.617 1010.21 623.5C990.105 596.656 959.707 570.031 920.73 556.832C881.914 543.156 836.72 542.598 791.06 549.454C699.282 563.085 603.979 601.839 512.227 619.194C466.485 627.854 421.269 630.819 380.959 621.877C340.771 612.503 306.94 592.246 278.828 575.392C250.646 558.204 205.967 525.909 150.797 480.069C95.153 435.256 29.5785 374.879 -53.1783 325.291C-94.5541 301.161 -141.23 280.643 -191.917 275.665C-242.497 270.331 -295.736 283.726 -342.838 312.942C-437.033 373.239 -508.555 476.136 -599.64 546.615C-689.638 621.887 -804.046 635.668 -904.102 627.461C-1005.61 617.979 -1096.52 574.295 -1163.32 517.353C-1298.12 401.985 -1355.27 275.842 -1368.27 252.722C-1421.01 153.134 -1453.14 23.3445 -1452.7 23.4768Z" fill="url(#paint21_linear_433_3867)"/>
</g>
</g>
<g opacity="0.2">
<mask id="mask1_433_3867" style="mask-type:luminance" maskUnits="userSpaceOnUse" x="-593" y="1" width="1582" height="791">
<path d="M989 1.23438H-592.51V791.999H989V1.23438Z" fill="white"/>
</mask>
<g mask="url(#mask1_433_3867)">
<path d="M1235.38 554.2C1235.59 554.374 1157.61 603.374 1084.33 624.672C1066.65 629.162 979.501 661.943 855.192 644.006C793.536 634.945 723.558 611.445 655.178 567.591C586.11 525.029 521.927 458.643 462.334 385.652C402.345 313.086 344.157 235.595 279.562 174.117C215.375 113.107 143.523 68.0888 73.5739 60.7977C2.8609 52.9981 -56.943 94.5184 -94.2222 137.808C-132.62 181.29 -155.097 224.019 -168.905 249.017C-225.842 347.877 -282.583 551.936 -386.214 675.048C-411.645 705.323 -439.753 729.252 -467.958 743.332C-496.113 757.702 -523.853 761.718 -546.745 760.182C-592.895 756.42 -619.183 738.013 -619.23 739.131C-619.175 738.009 -592.958 756.549 -546.759 760.52C-523.84 762.161 -496.034 758.259 -467.765 743.966C-439.451 729.976 -411.212 706.086 -385.654 675.842C-281.504 552.827 -224.297 348.716 -167.532 250.243C-153.767 225.315 -131.332 182.694 -93.1326 139.442C-56.012 96.3716 3.26282 55.2206 73.4522 62.954C142.904 70.1754 214.558 114.998 278.575 175.852C343.018 237.187 401.171 314.612 461.197 387.227C520.813 460.259 585.192 526.851 654.44 569.528C723.008 613.497 793.174 637.067 855.001 646.145C979.647 664.134 1067 631.267 1084.72 626.766C1158.26 605.366 1235.62 554.339 1235.38 554.2Z" fill="url(#paint22_linear_433_3867)"/>
<path d="M1235.38 524.95C1235.58 525.114 1159.1 574.834 1087.08 597.739C1069.65 602.619 984.177 637.134 861.089 623.775C800.029 616.964 730.416 596.46 661.89 555.765C592.782 516.244 527.748 453.447 467.227 383.675C406.278 314.391 347.091 240.104 282.161 181.431C217.642 123.217 146.699 79.4045 77.6626 71.7407C7.93335 63.321 -51.6642 102.239 -89.3639 143.874C-128.05 185.667 -151.212 226.947 -165.356 251.175C-223.522 347.003 -285.987 544.378 -388.769 664.675C-414.118 694.229 -441.803 717.931 -469.651 731.925C-497.436 746.092 -524.731 750.76 -547.37 749.464C-592.985 746.632 -619.154 729.019 -619.23 730.246C-619.151 729.016 -593.04 746.761 -547.38 749.792C-524.715 751.192 -497.351 746.636 -469.463 732.545C-441.512 718.642 -413.695 694.989 -388.219 665.466C-284.945 545.29 -222.028 347.913 -164.031 252.432C-149.929 228.263 -126.812 187.088 -88.3219 145.515C-50.7835 104.092 8.2851 65.5191 77.5277 73.8657C146.088 81.4598 216.862 125.098 281.212 183.179C345.993 241.713 405.146 315.941 466.13 385.277C526.692 455.087 591.912 518.084 661.205 557.706C729.906 598.508 799.714 619.068 860.946 625.896C984.357 639.294 1070.02 604.688 1087.49 599.808C1159.77 576.799 1235.62 525.086 1235.38 524.95Z" fill="url(#paint23_linear_433_3867)"/>
<path d="M1235.38 495.7C1235.57 495.864 1160.55 546.319 1089.74 570.774C1072.58 576.034 988.735 612.162 866.895 603.268C806.428 598.667 737.206 581.148 668.535 543.763C599.284 507.61 533.691 447.888 472.094 381.656C410.178 315.754 349.855 244.923 284.635 189.002C219.688 133.847 149.9 90.529 81.6467 82.6596C12.8828 73.6268 -46.5084 110.002 -84.6551 149.85C-123.682 189.852 -147.537 229.683 -162.046 253.096C-221.659 345.692 -289.368 536.503 -391.278 654.243C-416.365 683.446 -443.912 706.416 -471.281 720.633C-498.714 734.737 -525.595 739.782 -547.99 738.893C-593.089 736.96 -619.176 720.173 -619.234 721.375C-619.171 720.173 -593.145 737.089 -547.995 739.221C-525.571 740.21 -498.627 735.27 -471.093 721.253C-443.621 707.12 -415.944 684.198 -390.738 655.034C-288.355 537.429 -220.21 346.664 -160.763 254.388C-146.292 231.031 -122.487 191.311 -83.658 151.508C-45.6674 111.852 13.1975 75.8005 81.5092 84.7602C149.303 92.5564 218.945 135.714 283.734 190.757C348.816 246.557 409.101 317.332 471.058 383.286C532.692 449.55 598.47 509.464 667.903 545.703C736.77 583.196 806.166 600.757 866.787 605.372C988.954 614.287 1072.98 578.075 1090.19 572.801C1161.24 548.249 1235.61 495.836 1235.38 495.7Z" fill="url(#paint24_linear_433_3867)"/>
<path d="M1235.38 466.455C1235.56 466.612 1161.96 517.83 1092.35 543.839C1075.43 549.485 993.194 587.251 872.6 582.854C812.738 580.468 743.926 565.945 675.12 531.859C605.798 498.974 539.436 442.802 476.855 379.987C413.991 317.464 352.64 249.998 287.201 196.651C221.938 144.224 153.042 101.815 85.6138 93.4476C17.8072 83.8748 -41.473 117.38 -80.101 155.437C-119.496 193.645 -144.038 231.995 -158.936 254.565C-220.181 343.737 -292.708 528.138 -393.668 643.691C-418.565 672.472 -445.869 694.962 -472.826 709.338C-499.923 723.401 -526.407 728.818 -548.572 728.341C-593.182 727.293 -619.189 711.32 -619.234 712.487C-619.187 711.32 -593.235 727.414 -548.577 728.665C-526.385 729.243 -499.833 723.934 -472.638 709.948C-445.586 695.655 -418.155 673.21 -393.142 644.475C-291.724 529.072 -218.79 344.778 -157.701 255.896C-142.84 233.378 -118.351 195.125 -79.1516 157.113C-40.6876 119.247 18.0823 86.0207 85.4604 95.5203C152.444 103.815 221.219 146.084 286.333 198.41C351.651 251.653 412.965 319.066 475.871 381.634C538.476 444.491 605.034 500.834 674.541 533.806C743.527 567.979 812.524 582.537 872.544 584.937C993.443 589.334 1075.86 551.488 1092.82 545.824C1162.65 519.719 1235.6 466.584 1235.38 466.455Z" fill="url(#paint25_linear_433_3867)"/>
<path d="M1235.38 437.207C1235.55 437.361 1163.32 489.363 1094.89 516.918C1078.22 522.962 997.543 562.319 878.213 562.423C818.959 562.249 750.571 550.726 681.648 519.994C612.279 490.419 545.128 437.918 481.585 378.59C417.774 319.516 355.429 255.433 289.804 204.545C224.301 154.587 156.19 113.293 89.574 104.208C22.6508 94.1201 -36.4734 124.594 -75.5774 160.941C-115.499 197.059 -140.655 234.061 -155.983 255.704C-186.603 299.545 -223.091 363.837 -262.285 433.567C-301.715 502.9 -345.804 577.047 -395.963 633.045C-445.011 690.813 -504.981 719.629 -549.128 717.818C-593.265 717.643 -619.201 702.472 -619.23 703.612C-619.199 702.472 -593.318 717.772 -549.128 718.145C-504.936 720.155 -444.72 691.52 -395.447 633.829C-345.069 577.929 -300.768 503.837 -261.206 434.605C-221.883 364.959 -185.349 300.816 -154.801 257.084C-139.504 235.482 -114.404 198.574 -74.6755 162.641C-35.7434 126.472 22.8887 96.2485 89.41 106.257C155.606 115.262 223.608 156.437 288.979 206.308C354.493 257.101 416.796 321.15 480.662 380.262C544.237 439.639 611.575 492.286 681.13 521.941C750.232 552.757 818.795 564.305 878.208 564.479C997.831 564.381 1078.67 524.93 1095.38 518.876C1164.04 491.216 1235.59 437.333 1235.38 437.207Z" fill="url(#paint26_linear_433_3867)"/>
<path d="M1235.38 407.959C1235.55 408.109 1164.65 460.919 1097.37 490.025C1080.93 496.462 1001.78 537.411 883.718 541.989C825.065 544.02 757.147 535.499 688.127 508.167C618.723 481.943 550.784 433.229 486.273 377.44C421.515 321.895 358.221 261.176 292.434 212.644C226.725 165.01 159.352 124.782 93.5292 114.763C27.402 103.86 -31.5106 131.836 -71.1594 166.152C-111.512 200.298 -137.466 235.66 -153.221 256.394C-184.597 298.475 -222.931 359.932 -263.17 427.599C-303.715 494.807 -348.36 567.06 -398.146 622.277C-446.9 679.164 -505.956 708.074 -549.645 707.311C-593.341 708.004 -619.213 693.62 -619.227 694.725C-619.208 693.624 -593.388 708.136 -549.643 707.635C-505.905 708.593 -446.612 679.86 -397.63 623.051C-347.638 567.944 -302.79 495.765 -262.117 428.665C-221.757 361.099 -183.391 299.799 -152.076 257.797C-136.361 237.112 -110.462 201.841 -70.3025 167.866C-30.8229 133.714 27.603 105.964 93.3573 116.787C158.784 126.726 226.059 166.846 291.652 214.413C357.335 262.87 420.606 323.549 485.41 379.136C549.956 434.967 618.077 483.82 687.664 510.118C756.872 537.519 824.964 546.061 883.752 544.023C1002.1 539.435 1081.41 498.395 1097.89 491.947C1165.37 462.741 1235.59 408.078 1235.38 407.959Z" fill="url(#paint27_linear_433_3867)"/>
<path d="M1235.38 378.715C1235.54 378.855 1165.93 432.515 1099.76 463.16C1083.56 470.002 1005.88 512.529 889.1 521.551C831.068 525.787 763.616 520.262 694.524 496.376C625.115 473.534 556.399 428.746 490.935 376.563C425.265 324.588 361.005 267.298 295.063 221.05C229.214 175.601 162.555 136.02 97.4459 125.368C32.1253 113.43 -26.6338 138.922 -66.8538 171.054C-107.687 203.131 -134.401 236.848 -150.589 256.638C-182.849 296.793 -222.871 355.487 -264.109 421.149C-305.63 486.388 -350.888 556.735 -400.211 611.399C-448.762 667.345 -506.823 696.652 -550.135 696.826C-593.409 698.383 -619.229 684.766 -619.227 685.849C-619.224 684.766 -593.449 698.508 -550.121 697.139C-506.767 697.167 -448.474 668.038 -399.706 612.162C-350.182 557.613 -304.726 487.35 -263.093 422.239C-221.744 356.689 -181.698 298.162 -149.502 258.084C-133.351 238.332 -106.693 204.705 -66.0525 172.786C-25.9991 140.803 32.2841 115.509 97.2556 127.364C161.992 137.936 228.563 177.419 294.317 222.816C360.17 269.001 424.393 326.253 490.123 378.284C555.621 430.498 624.53 475.426 694.125 498.323C763.391 522.269 831.018 527.811 889.193 523.565C1006.24 514.515 1084.08 471.9 1100.31 465.045C1166.67 434.299 1235.57 378.827 1235.38 378.715Z" fill="url(#paint28_linear_433_3867)"/>
<path d="M1235.38 349.467C1235.53 349.603 1167.17 404.138 1102.09 436.333C1086.12 443.582 1009.88 487.677 894.377 501.137C836.949 507.564 770.001 505.035 700.865 484.635C631.461 465.225 561.991 424.464 495.596 375.966C363.76 279.033 230.958 162.411 101.356 135.814C36.8237 123.158 -21.8456 145.641 -62.5946 175.732C-104.018 205.468 -131.401 237.697 -148.105 256.376C-181.24 294.57 -222.949 350.39 -265.065 414.212C-307.517 477.539 -353.249 546.235 -402.185 600.355C-450.469 655.566 -507.647 685.246 -550.583 686.364C-593.463 688.778 -619.246 675.914 -619.23 676.976C-619.241 675.914 -593.511 688.904 -550.57 686.671C-507.586 685.747 -450.189 656.245 -401.686 601.115C-352.558 547.113 -306.636 478.508 -264.078 415.32C-221.864 351.634 -180.147 295.998 -147.073 257.864C-130.409 239.227 -103.082 207.077 -61.8514 177.488C-21.2664 147.536 36.9374 125.221 101.15 137.796C230.138 164.229 362.961 280.702 494.843 377.712C561.274 426.248 630.94 467.127 700.523 486.593C769.824 507.038 836.946 509.581 894.507 503.133C1010.28 489.641 1086.67 445.456 1102.66 438.193C1167.93 405.897 1235.56 349.575 1235.38 349.467Z" fill="url(#paint29_linear_433_3867)"/>
<path d="M1235.38 320.228C1235.53 320.35 1168.36 375.819 1104.34 409.557C1088.59 417.227 1013.74 462.9 899.516 480.764C842.706 489.386 776.266 489.839 707.111 472.971C637.755 456.999 567.542 420.425 500.267 375.631C366.238 286.434 233.166 174.926 105.244 146.103C41.3776 132.399 -17.0801 152.224 -58.4188 180.075C-100.342 207.539 -128.621 237.832 -145.717 255.581C-179.801 291.649 -223.02 344.735 -265.983 406.784C-309.36 468.209 -355.412 535.553 -404.037 589.137C-452.022 643.797 -508.409 673.839 -550.982 675.905C-593.503 679.183 -619.252 667.06 -619.223 668.095C-619.244 667.06 -593.543 679.305 -550.966 676.215C-508.334 674.345 -451.733 644.473 -403.537 589.9C-354.727 536.431 -308.496 469.202 -265.025 407.913C-221.973 346.02 -178.762 293.126 -144.735 257.117C-127.683 239.406 -99.4614 209.19 -57.7312 181.848C-16.5564 154.133 41.4543 134.447 105.019 148.071C168.562 160.117 233.695 199.084 299.857 240.201C365.997 282.216 432.045 332.71 499.574 377.4C566.907 422.233 637.3 458.912 706.836 474.925C776.158 491.838 842.756 491.382 899.696 482.743C1014.18 464.827 1089.17 419.074 1104.95 411.393C1169.14 377.543 1235.56 320.326 1235.38 320.228Z" fill="url(#paint30_linear_433_3867)"/>
<path d="M1235.38 290.972C1235.52 291.101 1169.51 347.531 1106.51 382.829C1090.99 390.932 1017.47 438.172 904.529 460.446C848.324 471.256 782.419 474.683 713.288 461.38C644.011 448.874 573.091 416.634 504.952 375.549C436.627 334.704 369.733 287.509 303.378 247.386C236.96 208.252 172.409 169.323 109.112 156.232C45.8776 141.437 -12.3897 158.58 -54.3288 184.023C-96.7915 209.081 -125.878 237.51 -143.388 254.255C-178.387 288.16 -223.111 338.438 -266.851 398.85C-311.099 458.488 -357.45 524.613 -405.754 577.796C-453.456 632 -509.1 662.447 -551.349 665.453C-593.534 669.591 -619.266 658.204 -619.227 659.214C-619.264 658.204 -593.571 669.713 -551.33 665.763C-509.029 662.945 -453.168 632.662 -405.263 578.552C-356.778 525.491 -310.258 459.485 -265.926 400.007C-222.106 339.759 -177.417 289.69 -142.47 255.83C-124.997 239.116 -95.9796 210.763 -53.702 185.821C-11.9242 160.492 45.9199 143.458 108.863 158.179C171.854 171.183 236.344 210.049 302.73 249.166C369.021 289.261 435.913 336.453 504.317 377.339C572.502 418.466 643.609 450.793 713.06 463.334C782.369 476.666 848.422 473.227 904.746 462.397C1017.93 440.071 1091.58 392.736 1107.14 384.634C1170.3 349.227 1235.55 291.073 1235.38 290.972Z" fill="url(#paint31_linear_433_3867)"/>
<path d="M1235.38 261.726C1235.52 261.845 1170.62 319.302 1108.62 356.172C1093.3 364.693 1021.06 413.532 909.398 440.199C853.815 453.189 788.463 459.581 719.387 449.876C650.213 440.892 578.646 413.045 509.686 375.75C440.523 338.768 372.806 294.841 306.316 256.532C239.621 219.471 175.723 180.4 112.973 166.19C50.3419 150.312 -7.75342 164.741 -50.2955 187.59C-93.2687 210.205 -123.148 236.708 -141.105 252.359C-177.057 283.976 -223.082 331.665 -267.626 390.44C-312.71 448.378 -359.341 513.413 -407.325 566.328C-454.763 620.162 -509.719 651.068 -551.669 655.022C-593.544 660.018 -619.279 649.351 -619.226 650.337C-619.274 649.344 -593.581 660.139 -551.645 655.322C-509.642 651.566 -454.474 620.817 -406.833 567.073C-358.677 514.287 -311.879 449.388 -266.724 391.617C-222.104 333.01 -176.139 285.55 -140.246 253.972C-122.326 238.355 -92.5176 211.926 -49.7296 189.408C-7.35144 166.674 50.3445 152.326 112.711 168.123C175.17 182.249 239.031 221.272 305.698 258.323C372.161 296.607 439.869 340.545 509.109 377.565C578.143 414.894 649.872 442.812 719.223 451.827C788.473 461.553 853.974 455.147 909.671 442.129C1021.58 415.406 1093.94 366.48 1109.27 357.942C1171.43 320.968 1235.54 261.817 1235.38 261.726Z" fill="url(#paint32_linear_433_3867)"/>
<path d="M1235.38 232.484C1235.51 232.595 1171.68 291.122 1110.64 329.595C1095.54 338.547 1024.53 389 914.143 420.048C859.171 435.24 794.374 444.541 725.401 438.494C656.346 433.084 584.244 409.601 514.473 376.225C444.511 343.163 376.017 302.458 309.345 265.863C242.482 230.394 179.042 191.535 116.847 175.96C54.7717 158.943 -3.17017 170.588 -46.2914 190.748C-89.7565 210.851 -120.416 235.361 -138.815 249.881C-175.706 279.132 -222.931 324.324 -268.279 381.545C-314.162 437.881 -361.067 501.964 -408.743 554.701C-455.942 608.271 -510.261 639.707 -551.941 644.591C-593.539 650.46 -619.293 640.491 -619.226 641.459C-619.287 640.491 -593.573 650.579 -551.912 644.894C-510.176 640.198 -455.651 608.919 -408.256 555.45C-360.412 502.838 -313.35 438.901 -267.404 382.743C-221.992 325.697 -174.851 280.748 -138.022 251.539C-119.665 237.051 -89.0795 212.614 -45.7916 192.594C-2.83167 172.525 54.7242 160.942 116.551 177.872C178.479 193.371 241.895 232.181 308.758 267.654C375.403 304.241 443.916 344.95 513.96 378.058C583.808 411.468 656.081 435.017 725.298 440.434C794.44 446.495 859.372 437.173 914.457 421.95C1025.08 390.835 1096.18 340.296 1111.32 331.329C1172.51 292.76 1235.53 232.574 1235.38 232.484Z" fill="url(#paint33_linear_433_3867)"/>
<path d="M1235.38 203.237C1235.5 203.338 1172.71 262.997 1112.59 303.083C1097.7 312.478 1027.88 364.571 918.763 400.005C864.394 417.416 800.181 429.542 731.335 427.212C662.455 425.411 589.88 406.377 519.347 376.969C448.642 347.853 379.357 310.353 312.5 275.361C245.439 241.382 182.374 202.628 120.679 185.739C59.1751 167.29 1.35223 176.059 -42.3006 193.49C-86.2444 211.006 -117.66 233.46 -136.485 246.823C-174.254 273.695 -222.643 316.452 -268.769 372.203C-315.46 426.978 -362.615 490.271 -410.015 542.925C-456.997 596.313 -510.724 628.341 -552.166 634.145C-593.52 640.896 -619.303 631.619 -619.226 632.574C-619.3 631.623 -593.552 641.018 -552.137 634.451C-510.634 628.822 -456.704 596.958 -409.528 543.667C-361.959 491.152 -314.661 428.013 -267.917 373.422C-221.733 317.86 -173.45 275.354 -135.747 248.523C-116.967 235.181 -85.6308 212.793 -41.8669 195.347C1.62463 177.999 59.0852 169.273 120.362 187.641C181.808 204.446 244.849 243.166 311.926 277.158C378.786 312.147 448.094 349.664 518.887 378.818C589.507 408.261 662.244 427.348 731.298 429.152C800.303 431.493 864.642 419.335 919.125 401.883C1028.46 366.386 1098.37 314.206 1113.3 304.796C1173.54 264.607 1235.53 203.314 1235.38 203.237Z" fill="url(#paint34_linear_433_3867)"/>
<path d="M1235.38 173.988C1235.5 174.089 1173.68 234.94 1114.47 276.676C1099.78 286.521 1031.11 340.296 923.251 380.103C869.493 399.746 805.865 414.684 737.207 416.091C668.522 417.896 595.553 403.376 524.303 377.974C452.905 352.854 382.84 318.524 315.761 285.04C248.459 252.535 185.775 213.523 124.538 195.283C63.5337 175.681 5.85614 180.938 -38.2595 195.945C-82.6952 210.579 -114.823 231.052 -134.041 243.255C-172.646 267.703 -222.14 308.133 -269.07 362.424C-316.571 415.722 -363.99 478.339 -411.128 531.01C-457.92 584.312 -511.102 616.984 -552.34 623.721C-593.481 631.357 -619.311 622.777 -619.226 623.7C-619.308 622.766 -593.51 631.475 -552.303 624.02C-511.007 617.457 -457.624 584.939 -410.639 531.748C-363.334 479.216 -315.783 416.763 -268.237 363.664C-221.26 309.561 -171.9 269.399 -133.367 244.99C-114.193 232.822 -82.1504 212.408 -37.8919 197.83C6.06512 182.885 63.4067 177.649 124.2 197.168C185.202 215.327 247.877 254.312 315.216 286.848C382.314 320.336 452.418 354.69 523.912 379.845C595.254 405.285 668.39 419.836 737.23 418.028C806.045 416.617 869.802 401.648 923.653 381.959C1031.71 342.087 1100.49 288.228 1115.21 278.369C1174.55 236.518 1235.52 174.068 1235.38 173.988Z" fill="url(#paint35_linear_433_3867)"/>
<path d="M1235.38 144.742C1235.49 144.836 1174.62 206.937 1116.29 250.353C1101.79 260.657 1034.22 316.143 927.616 360.328C874.479 382.208 811.441 399.94 743.016 405.092C674.585 410.484 601.307 400.546 529.385 379.202C457.347 358.099 386.499 326.928 319.147 294.873C251.579 263.698 189.183 224.495 128.406 204.652C67.8591 183.497 10.3905 185.827 -34.1827 198.023C-79.0283 209.843 -111.867 228.1 -131.438 239.226C-170.811 261.26 -221.457 299.244 -269.169 352.215C-317.492 404.078 -365.173 466.162 -412.092 518.92C-458.723 572.215 -511.41 605.598 -552.468 613.275C-593.431 621.814 -619.331 613.906 -619.23 614.815C-619.325 613.902 -593.453 621.932 -552.431 613.575C-511.304 606.075 -458.424 572.845 -411.605 519.655C-364.525 467.036 -316.712 405.12 -268.357 353.469C-220.608 300.704 -170.121 262.991 -130.827 240.996C-111.306 229.897 -78.5576 211.696 -33.8892 199.918C10.5254 187.781 67.6872 185.451 128.033 206.526C188.596 226.289 250.994 265.482 318.634 296.694C386.002 328.757 456.911 359.966 529.046 381.094C601.071 402.469 674.508 412.428 743.092 407.025C811.671 401.859 874.82 384.097 928.068 362.175C1034.87 317.913 1102.52 262.336 1117.05 252.021C1175.52 208.502 1235.52 144.812 1235.38 144.742Z" fill="url(#paint36_linear_433_3867)"/>
<path d="M1235.38 115.496C1235.49 115.587 1175.53 179.015 1118.05 224.144C1103.75 234.916 1037.24 292.175 931.887 340.739C879.335 364.765 816.931 385.446 748.765 394.228C680.636 403.296 607.122 397.907 534.605 380.65C461.988 363.605 390.347 335.58 322.683 304.876C254.784 275.004 192.655 235.347 132.323 213.805C72.1962 191.03 14.9445 190.378 -30.028 199.711C-75.2333 208.653 -108.723 224.709 -128.64 234.727C-168.722 254.361 -220.513 289.896 -269.026 341.589C-318.191 392.065 -366.154 453.759 -412.891 506.674C-459.392 560.045 -511.616 594.208 -552.534 602.83C-593.35 612.281 -619.333 605.046 -619.222 605.941C-619.331 605.039 -593.371 612.41 -552.497 603.123C-511.513 594.679 -459.088 560.669 -412.404 507.402C-365.504 454.633 -317.424 393.124 -268.241 342.864C-219.69 291.391 -168.09 256.13 -128.092 236.532C-108.228 226.534 -74.8392 210.531 -29.8006 201.623C15.0159 192.333 71.9847 192.974 131.918 215.665C192.052 237.128 254.205 276.784 322.196 306.694C389.892 337.419 461.61 365.479 534.341 382.555C606.966 399.834 680.636 405.233 748.918 396.148C817.217 387.348 879.747 366.621 932.389 342.564C1037.92 293.913 1104.53 236.567 1118.84 225.785C1176.45 180.551 1235.51 115.566 1235.38 115.496Z" fill="url(#paint37_linear_433_3867)"/>
<path d="M1235.38 86.248C1235.48 86.3317 1176.41 151.157 1119.75 198.049C1105.64 209.294 1040.16 268.378 936.049 321.332C884.099 347.5 822.32 371.136 754.474 383.53C686.68 396.196 613.026 395.493 539.965 382.297C466.819 369.314 394.381 344.441 326.363 315.019C257.964 286.775 196.23 245.923 136.275 222.761C76.5508 198.373 19.5213 194.698 -25.7818 201.041C-71.2885 207.078 -105.378 220.908 -125.628 229.815C-166.372 247.052 -219.289 280.135 -268.644 330.584C-318.663 379.747 -366.957 441.113 -413.548 494.262C-459.954 547.793 -511.763 582.796 -552.567 592.365C-593.258 602.746 -619.35 596.173 -619.226 597.065C-619.345 596.173 -593.279 602.875 -552.522 592.658C-511.649 583.266 -459.644 548.417 -413.059 494.993C-366.312 441.981 -317.901 380.813 -267.882 331.88C-218.504 281.654 -165.793 248.849 -125.147 231.641C-104.96 222.761 -70.9765 208.98 -25.6337 202.964C19.5187 196.655 76.2864 200.303 135.834 224.614C195.614 247.696 257.383 288.562 325.887 316.859C393.966 346.305 466.491 371.212 539.761 384.22C612.937 397.433 686.739 398.133 754.677 385.443C822.669 373.024 884.544 349.346 936.588 323.133C1040.87 270.096 1106.44 210.931 1120.57 199.672C1177.35 152.672 1235.5 86.3108 1235.38 86.248Z" fill="url(#paint38_linear_433_3867)"/>
<path d="M1235.38 57.0039C1235.48 57.084 1177.26 123.376 1121.4 172.065C1107.48 183.794 1042.99 244.76 940.133 302.113C888.758 330.431 827.634 356.996 760.145 373.003C692.725 389.212 619.034 393.246 545.496 384.109C471.877 375.198 398.625 353.495 330.194 325.307C261.354 298.295 199.788 256.653 140.268 231.575C80.9478 205.354 24.1456 198.704 -21.4141 202.02C-67.1589 205.194 -101.796 216.784 -122.366 224.517C-163.721 239.374 -217.754 269.998 -267.997 319.217C-318.907 367.074 -367.564 428.231 -414.049 481.679C-460.391 535.458 -511.822 571.356 -552.553 581.887C-593.146 593.226 -619.365 587.314 -619.23 588.192C-619.36 587.314 -593.172 593.351 -552.505 582.187C-511.706 571.827 -460.079 536.075 -413.56 482.414C-366.918 429.106 -318.156 368.161 -267.254 320.534C-217.006 271.552 -163.195 241.21 -121.948 226.377C-101.442 218.672 -66.9182 207.124 -21.34 203.957C24.0688 200.662 80.6409 207.274 139.789 233.418C199.154 258.419 260.758 300.086 329.739 327.163C398.252 355.384 471.599 377.11 545.34 386.042C619.018 395.197 692.854 391.163 760.41 374.916C828.036 358.881 889.263 332.267 940.715 303.9C1043.74 246.46 1108.31 185.411 1122.26 173.661C1178.21 124.863 1235.49 57.0596 1235.38 57.0039Z" fill="url(#paint39_linear_433_3867)"/>
<path d="M1235.38 27.7539C1235.48 27.834 1178.07 95.6482 1123.02 146.201C1109.26 158.401 1045.76 221.355 944.151 283.094C893.362 313.575 832.911 343.063 765.81 362.651C698.794 382.417 625.172 391.14 551.193 386.043C477.177 381.226 403.108 362.697 334.206 335.696C264.829 309.959 203.443 267.241 144.324 240.222C85.4092 212.082 28.8558 202.353 -16.8943 202.704C-62.8109 203.011 -97.9453 212.354 -118.82 218.91C-160.743 231.388 -215.871 259.549 -267.064 307.514C-318.918 354.078 -367.976 415.117 -414.398 468.924C-460.714 523.016 -511.804 559.876 -552.484 571.382C-593.013 583.686 -619.37 578.436 -619.222 579.304C-619.367 578.429 -593.035 583.815 -552.428 571.675C-511.679 560.339 -460.399 523.63 -413.906 469.652C-367.331 415.995 -318.167 355.179 -266.339 308.855C-215.157 261.134 -160.267 233.248 -118.463 220.795C-97.665 214.259 -62.6496 204.948 -16.889 204.638C28.713 204.293 85.0549 213.984 143.817 242.041C202.78 268.982 264.239 311.75 333.767 337.553C402.769 364.595 476.957 383.152 551.108 387.98C625.23 393.087 698.993 384.347 766.133 364.543C833.371 344.913 893.915 315.383 944.78 284.853C1046.55 223.02 1110.14 159.986 1123.9 147.769C1179.07 97.1182 1235.49 27.8131 1235.38 27.7539Z" fill="url(#paint40_linear_433_3867)"/>
<path d="M1235.38 -1.48828C1235.48 -1.40468 1178.86 67.991 1124.6 120.467C1111.01 133.123 1048.5 198.175 948.104 264.275C848.594 330.553 706.641 391.574 557.085 388.08C482.728 387.359 407.839 372.042 338.401 346.194C268.42 321.743 207.17 277.76 148.471 248.71C89.8921 218.773 33.6851 205.748 -12.2131 203.208C-58.2488 200.634 -93.8301 207.688 -114.985 213.067C-157.432 223.169 -213.657 248.815 -265.85 295.512C-318.69 340.784 -368.206 401.791 -414.609 456.009C-460.936 510.492 -511.711 548.375 -552.37 560.867C-592.865 574.157 -619.383 569.573 -619.222 570.426C-619.381 569.569 -592.881 574.289 -552.312 561.16C-511.579 548.839 -460.611 511.098 -414.11 456.744C-367.553 402.669 -317.944 341.895 -265.144 296.877C-212.978 250.442 -157.001 225.057 -114.694 214.976C-93.6133 209.614 -58.1616 202.585 -12.2845 205.156C33.4629 207.688 89.4902 220.661 147.919 250.518C206.482 279.501 267.823 323.544 337.978 348.071C407.53 373.958 482.567 389.306 557.075 390.027C706.919 393.528 849.133 332.385 948.787 266.017C1049.33 199.822 1111.91 134.683 1125.52 122.01C1179.88 69.4436 1235.49 -1.42558 1235.38 -1.48828Z" fill="url(#paint41_linear_433_3867)"/>
<path d="M1235.38 -30.7402C1235.49 -30.6462 1179.64 40.4216 1126.19 94.8869C1112.75 108.002 1051.25 175.311 952.069 245.777C853.759 316.231 713.348 385.042 563.187 390.288C488.544 393.622 412.814 381.523 342.788 356.804C272.11 333.694 211.01 288.143 152.727 256.959C94.4753 225.133 38.6756 208.663 -7.32306 203.368C-53.4249 197.975 -89.3923 202.807 -110.809 207.015C-153.726 214.794 -211.063 237.82 -264.313 283.232C-318.206 327.173 -368.235 388.229 -414.668 442.924C-461.042 497.86 -511.544 536.827 -552.214 550.322C-592.698 564.629 -619.396 560.7 -619.222 561.55C-619.394 560.7 -592.712 564.761 -552.153 550.615C-511.407 537.294 -460.711 498.459 -414.168 443.652C-367.585 389.118 -317.468 328.302 -263.631 284.629C-210.42 239.485 -153.351 216.713 -110.584 208.952C-89.2442 204.761 -53.4116 199.947 -7.46588 205.326C38.3873 210.6 94.0204 227.014 152.142 258.763C210.293 289.871 271.514 335.513 342.389 358.696C412.552 383.464 488.44 395.597 563.24 392.253C713.702 386.989 854.351 318.05 952.793 247.501C1052.11 176.935 1113.67 109.549 1127.14 96.4196C1180.68 41.8429 1235.51 -30.6671 1235.38 -30.7402Z" fill="url(#paint42_linear_433_3867)"/>
<path d="M1235.38 -59.9844C1235.51 -59.8659 1180.43 12.9541 1127.7 69.3492C1114.46 83.0325 1053.83 152.379 955.901 227.237C858.717 301.716 720.118 378.81 569.423 392.403C494.56 399.742 417.979 391.03 347.295 367.502C275.831 345.873 214.919 298.34 157.051 265.013C99.1354 231.174 43.7693 211.38 -2.27966 203.354C-48.3841 195.182 -84.6927 197.801 -106.352 200.846C-149.706 206.28 -208.109 226.697 -262.493 270.733C-317.5 313.298 -368.095 374.469 -414.601 429.684C-461.06 485.131 -511.314 525.237 -552.021 539.75C-592.516 555.095 -619.409 551.827 -619.222 552.67C-619.402 551.827 -592.526 555.224 -551.955 540.049C-511.169 525.707 -460.722 485.737 -414.096 430.415C-367.444 375.361 -316.765 314.441 -261.83 272.154C-207.514 228.397 -149.379 208.221 -106.189 202.807C-84.616 199.773 -48.4502 197.164 -2.48853 205.308C43.407 213.303 98.6223 233.041 156.424 266.807C214.162 300.047 275.214 347.698 346.911 369.408C417.759 392.991 494.507 401.725 569.539 394.374C720.544 380.743 859.357 303.51 956.662 228.941C1054.73 153.975 1115.43 84.5583 1128.68 70.854C1181.5 14.3649 1235.52 -59.8868 1235.38 -59.9844Z" fill="url(#paint43_linear_433_3867)"/>
</g>
</g>
</g>
<defs>
<linearGradient id="paint0_linear_433_3867" x1="1051.49" y1="295.299" x2="-616.029" y2="330.76" gradientUnits="userSpaceOnUse">
<stop stop-color="#600F25"/>
<stop offset="0.3333" stop-color="#DC1F26"/>
<stop offset="0.6848" stop-color="#F78C1E"/>
<stop offset="1" stop-color="#FDBA12"/>
</linearGradient>
<linearGradient id="paint1_linear_433_3867" x1="1051.54" y1="296.808" x2="-655.607" y2="333.112" gradientUnits="userSpaceOnUse">
<stop stop-color="#600F25"/>
<stop offset="0.3333" stop-color="#DC1F26"/>
<stop offset="0.6848" stop-color="#F78C1E"/>
<stop offset="1" stop-color="#FDBA12"/>
</linearGradient>
<linearGradient id="paint2_linear_433_3867" x1="1051.59" y1="298.313" x2="-694.974" y2="335.455" gradientUnits="userSpaceOnUse">
<stop stop-color="#600F25"/>
<stop offset="0.3333" stop-color="#DC1F26"/>
<stop offset="0.6848" stop-color="#F78C1E"/>
<stop offset="1" stop-color="#FDBA12"/>
</linearGradient>
<linearGradient id="paint3_linear_433_3867" x1="1051.64" y1="299.895" x2="-734.428" y2="337.877" gradientUnits="userSpaceOnUse">
<stop stop-color="#600F25"/>
<stop offset="0.3333" stop-color="#DC1F26"/>
<stop offset="0.6848" stop-color="#F78C1E"/>
<stop offset="1" stop-color="#FDBA12"/>
</linearGradient>
<linearGradient id="paint4_linear_433_3867" x1="1051.68" y1="301.334" x2="-773.954" y2="340.157" gradientUnits="userSpaceOnUse">
<stop stop-color="#600F25"/>
<stop offset="0.3333" stop-color="#DC1F26"/>
<stop offset="0.6848" stop-color="#F78C1E"/>
<stop offset="1" stop-color="#FDBA12"/>
</linearGradient>
<linearGradient id="paint5_linear_433_3867" x1="1051.73" y1="302.9" x2="-813.415" y2="342.564" gradientUnits="userSpaceOnUse">
<stop stop-color="#600F25"/>
<stop offset="0.3333" stop-color="#DC1F26"/>
<stop offset="0.6848" stop-color="#F78C1E"/>
<stop offset="1" stop-color="#FDBA12"/>
</linearGradient>
<linearGradient id="paint6_linear_433_3867" x1="1051.77" y1="304.348" x2="-852.915" y2="344.852" gradientUnits="userSpaceOnUse">
<stop stop-color="#600F25"/>
<stop offset="0.3333" stop-color="#DC1F26"/>
<stop offset="0.6848" stop-color="#F78C1E"/>
<stop offset="1" stop-color="#FDBA12"/>
</linearGradient>
<linearGradient id="paint7_linear_433_3867" x1="1051.82" y1="305.866" x2="-892.44" y2="347.212" gradientUnits="userSpaceOnUse">
<stop stop-color="#600F25"/>
<stop offset="0.3333" stop-color="#DC1F26"/>
<stop offset="0.6848" stop-color="#F78C1E"/>
<stop offset="1" stop-color="#FDBA12"/>
</linearGradient>
<linearGradient id="paint8_linear_433_3867" x1="1051.87" y1="307.364" x2="-931.887" y2="349.55" gradientUnits="userSpaceOnUse">
<stop stop-color="#600F25"/>
<stop offset="0.3333" stop-color="#DC1F26"/>
<stop offset="0.6848" stop-color="#F78C1E"/>
<stop offset="1" stop-color="#FDBA12"/>
</linearGradient>
<linearGradient id="paint9_linear_433_3867" x1="1051.91" y1="308.871" x2="-971.376" y2="351.898" gradientUnits="userSpaceOnUse">
<stop stop-color="#600F25"/>
<stop offset="0.3333" stop-color="#DC1F26"/>
<stop offset="0.6848" stop-color="#F78C1E"/>
<stop offset="1" stop-color="#FDBA12"/>
</linearGradient>
<linearGradient id="paint10_linear_433_3867" x1="1051.96" y1="310.38" x2="-1010.86" y2="354.247" gradientUnits="userSpaceOnUse">
<stop stop-color="#600F25"/>
<stop offset="0.3333" stop-color="#DC1F26"/>
<stop offset="0.6848" stop-color="#F78C1E"/>
<stop offset="1" stop-color="#FDBA12"/>
</linearGradient>
<linearGradient id="paint11_linear_433_3867" x1="1052" y1="311.88" x2="-1050.43" y2="356.59" gradientUnits="userSpaceOnUse">
<stop stop-color="#600F25"/>
<stop offset="0.3333" stop-color="#DC1F26"/>
<stop offset="0.6848" stop-color="#F78C1E"/>
<stop offset="1" stop-color="#FDBA12"/>
</linearGradient>
<linearGradient id="paint12_linear_433_3867" x1="1052.05" y1="313.462" x2="-1089.81" y2="359.01" gradientUnits="userSpaceOnUse">
<stop stop-color="#600F25"/>
<stop offset="0.3333" stop-color="#DC1F26"/>
<stop offset="0.6848" stop-color="#F78C1E"/>
<stop offset="1" stop-color="#FDBA12"/>
</linearGradient>
<linearGradient id="paint13_linear_433_3867" x1="1052.1" y1="314.927" x2="-1129.43" y2="361.318" gradientUnits="userSpaceOnUse">
<stop stop-color="#600F25"/>
<stop offset="0.3333" stop-color="#DC1F26"/>
<stop offset="0.6848" stop-color="#F78C1E"/>
<stop offset="1" stop-color="#FDBA12"/>
</linearGradient>
<linearGradient id="paint14_linear_433_3867" x1="1052.15" y1="316.496" x2="-1168.76" y2="363.725" gradientUnits="userSpaceOnUse">
<stop stop-color="#600F25"/>
<stop offset="0.3333" stop-color="#DC1F26"/>
<stop offset="0.6848" stop-color="#F78C1E"/>
<stop offset="1" stop-color="#FDBA12"/>
</linearGradient>
<linearGradient id="paint15_linear_433_3867" x1="1052.19" y1="317.932" x2="-1208.27" y2="366.003" gradientUnits="userSpaceOnUse">
<stop stop-color="#600F25"/>
<stop offset="0.3333" stop-color="#DC1F26"/>
<stop offset="0.6848" stop-color="#F78C1E"/>
<stop offset="1" stop-color="#FDBA12"/>
</linearGradient>
<linearGradient id="paint16_linear_433_3867" x1="1052.24" y1="319.465" x2="-1247.74" y2="368.376" gradientUnits="userSpaceOnUse">
<stop stop-color="#600F25"/>
<stop offset="0.3333" stop-color="#DC1F26"/>
<stop offset="0.6848" stop-color="#F78C1E"/>
<stop offset="1" stop-color="#FDBA12"/>
</linearGradient>
<linearGradient id="paint17_linear_433_3867" x1="1052.28" y1="320.995" x2="-1287.23" y2="370.747" gradientUnits="userSpaceOnUse">
<stop stop-color="#600F25"/>
<stop offset="0.3333" stop-color="#DC1F26"/>
<stop offset="0.6848" stop-color="#F78C1E"/>
<stop offset="1" stop-color="#FDBA12"/>
</linearGradient>
<linearGradient id="paint18_linear_433_3867" x1="1052.33" y1="322.528" x2="-1326.69" y2="373.12" gradientUnits="userSpaceOnUse">
<stop stop-color="#600F25"/>
<stop offset="0.3333" stop-color="#DC1F26"/>
<stop offset="0.6848" stop-color="#F78C1E"/>
<stop offset="1" stop-color="#FDBA12"/>
</linearGradient>
<linearGradient id="paint19_linear_433_3867" x1="1052.37" y1="324.057" x2="-1366.18" y2="375.489" gradientUnits="userSpaceOnUse">
<stop stop-color="#600F25"/>
<stop offset="0.3333" stop-color="#DC1F26"/>
<stop offset="0.6848" stop-color="#F78C1E"/>
<stop offset="1" stop-color="#FDBA12"/>
</linearGradient>
<linearGradient id="paint20_linear_433_3867" x1="1052.42" y1="325.583" x2="-1405.65" y2="377.856" gradientUnits="userSpaceOnUse">
<stop stop-color="#600F25"/>
<stop offset="0.3333" stop-color="#DC1F26"/>
<stop offset="0.6848" stop-color="#F78C1E"/>
<stop offset="1" stop-color="#FDBA12"/>
</linearGradient>
<linearGradient id="paint21_linear_433_3867" x1="1052.47" y1="327.114" x2="-1445.12" y2="380.227" gradientUnits="userSpaceOnUse">
<stop stop-color="#600F25"/>
<stop offset="0.3333" stop-color="#DC1F26"/>
<stop offset="0.6848" stop-color="#F78C1E"/>
<stop offset="1" stop-color="#FDBA12"/>
</linearGradient>
<linearGradient id="paint22_linear_433_3867" x1="-619.233" y1="410.355" x2="1235.38" y2="410.355" gradientUnits="userSpaceOnUse">
<stop stop-color="#600F25"/>
<stop offset="0.3333" stop-color="#DC1F26"/>
<stop offset="0.6848" stop-color="#F78C1E"/>
<stop offset="1" stop-color="#FDBA12"/>
</linearGradient>
<linearGradient id="paint23_linear_433_3867" x1="-619.23" y1="410.308" x2="1235.38" y2="410.308" gradientUnits="userSpaceOnUse">
<stop stop-color="#600F25"/>
<stop offset="0.3333" stop-color="#DC1F26"/>
<stop offset="0.6848" stop-color="#F78C1E"/>
<stop offset="1" stop-color="#FDBA12"/>
</linearGradient>
<linearGradient id="paint24_linear_433_3867" x1="-619.231" y1="410.302" x2="1235.38" y2="410.302" gradientUnits="userSpaceOnUse">
<stop stop-color="#600F25"/>
<stop offset="0.3333" stop-color="#DC1F26"/>
<stop offset="0.6848" stop-color="#F78C1E"/>
<stop offset="1" stop-color="#FDBA12"/>
</linearGradient>
<linearGradient id="paint25_linear_433_3867" x1="-619.231" y1="410.254" x2="1235.38" y2="410.254" gradientUnits="userSpaceOnUse">
<stop stop-color="#600F25"/>
<stop offset="0.3333" stop-color="#DC1F26"/>
<stop offset="0.6848" stop-color="#F78C1E"/>
<stop offset="1" stop-color="#FDBA12"/>
</linearGradient>
<linearGradient id="paint26_linear_433_3867" x1="-619.231" y1="410.251" x2="1235.38" y2="410.251" gradientUnits="userSpaceOnUse">
<stop stop-color="#600F25"/>
<stop offset="0.3333" stop-color="#DC1F26"/>
<stop offset="0.6848" stop-color="#F78C1E"/>
<stop offset="1" stop-color="#FDBA12"/>
</linearGradient>
<linearGradient id="paint27_linear_433_3867" x1="-619.23" y1="410.016" x2="1235.38" y2="410.016" gradientUnits="userSpaceOnUse">
<stop stop-color="#600F25"/>
<stop offset="0.3333" stop-color="#DC1F26"/>
<stop offset="0.6848" stop-color="#F78C1E"/>
<stop offset="1" stop-color="#FDBA12"/>
</linearGradient>
<linearGradient id="paint28_linear_433_3867" x1="-619.23" y1="409.804" x2="1235.38" y2="409.804" gradientUnits="userSpaceOnUse">
<stop stop-color="#600F25"/>
<stop offset="0.3333" stop-color="#DC1F26"/>
<stop offset="0.6848" stop-color="#F78C1E"/>
<stop offset="1" stop-color="#FDBA12"/>
</linearGradient>
<linearGradient id="paint29_linear_433_3867" x1="-619.228" y1="409.572" x2="1235.38" y2="409.572" gradientUnits="userSpaceOnUse">
<stop stop-color="#600F25"/>
<stop offset="0.3333" stop-color="#DC1F26"/>
<stop offset="0.6848" stop-color="#F78C1E"/>
<stop offset="1" stop-color="#FDBA12"/>
</linearGradient>
<linearGradient id="paint30_linear_433_3867" x1="-619.228" y1="409.186" x2="1235.38" y2="409.186" gradientUnits="userSpaceOnUse">
<stop stop-color="#600F25"/>
<stop offset="0.3333" stop-color="#DC1F26"/>
<stop offset="0.6848" stop-color="#F78C1E"/>
<stop offset="1" stop-color="#FDBA12"/>
</linearGradient>
<linearGradient id="paint31_linear_433_3867" x1="-619.228" y1="408.674" x2="1235.38" y2="408.674" gradientUnits="userSpaceOnUse">
<stop stop-color="#600F25"/>
<stop offset="0.3333" stop-color="#DC1F26"/>
<stop offset="0.6848" stop-color="#F78C1E"/>
<stop offset="1" stop-color="#FDBA12"/>
</linearGradient>
<linearGradient id="paint32_linear_433_3867" x1="-619.228" y1="408.028" x2="1235.38" y2="408.028" gradientUnits="userSpaceOnUse">
<stop stop-color="#600F25"/>
<stop offset="0.3333" stop-color="#DC1F26"/>
<stop offset="0.6848" stop-color="#F78C1E"/>
<stop offset="1" stop-color="#FDBA12"/>
</linearGradient>
<linearGradient id="paint33_linear_433_3867" x1="-619.228" y1="407.196" x2="1235.38" y2="407.196" gradientUnits="userSpaceOnUse">
<stop stop-color="#600F25"/>
<stop offset="0.3333" stop-color="#DC1F26"/>
<stop offset="0.6848" stop-color="#F78C1E"/>
<stop offset="1" stop-color="#FDBA12"/>
</linearGradient>
<linearGradient id="paint34_linear_433_3867" x1="-619.228" y1="406.142" x2="1235.38" y2="406.142" gradientUnits="userSpaceOnUse">
<stop stop-color="#600F25"/>
<stop offset="0.3333" stop-color="#DC1F26"/>
<stop offset="0.6848" stop-color="#F78C1E"/>
<stop offset="1" stop-color="#FDBA12"/>
</linearGradient>
<linearGradient id="paint35_linear_433_3867" x1="-619.228" y1="400.526" x2="1235.38" y2="400.526" gradientUnits="userSpaceOnUse">
<stop stop-color="#600F25"/>
<stop offset="0.3333" stop-color="#DC1F26"/>
<stop offset="0.6848" stop-color="#F78C1E"/>
<stop offset="1" stop-color="#FDBA12"/>
</linearGradient>
<linearGradient id="paint36_linear_433_3867" x1="-619.229" y1="381.08" x2="1235.38" y2="381.08" gradientUnits="userSpaceOnUse">
<stop stop-color="#600F25"/>
<stop offset="0.3333" stop-color="#DC1F26"/>
<stop offset="0.6848" stop-color="#F78C1E"/>
<stop offset="1" stop-color="#FDBA12"/>
</linearGradient>
<linearGradient id="paint37_linear_433_3867" x1="-619.227" y1="361.682" x2="1235.38" y2="361.682" gradientUnits="userSpaceOnUse">
<stop stop-color="#600F25"/>
<stop offset="0.3333" stop-color="#DC1F26"/>
<stop offset="0.6848" stop-color="#F78C1E"/>
<stop offset="1" stop-color="#FDBA12"/>
</linearGradient>
<linearGradient id="paint38_linear_433_3867" x1="-619.228" y1="342.326" x2="1235.38" y2="342.326" gradientUnits="userSpaceOnUse">
<stop stop-color="#600F25"/>
<stop offset="0.3333" stop-color="#DC1F26"/>
<stop offset="0.6848" stop-color="#F78C1E"/>
<stop offset="1" stop-color="#FDBA12"/>
</linearGradient>
<linearGradient id="paint39_linear_433_3867" x1="-619.229" y1="323.021" x2="1235.38" y2="323.021" gradientUnits="userSpaceOnUse">
<stop stop-color="#600F25"/>
<stop offset="0.3333" stop-color="#DC1F26"/>
<stop offset="0.6848" stop-color="#F78C1E"/>
<stop offset="1" stop-color="#FDBA12"/>
</linearGradient>
<linearGradient id="paint40_linear_433_3867" x1="-619.222" y1="303.756" x2="1235.38" y2="303.756" gradientUnits="userSpaceOnUse">
<stop stop-color="#600F25"/>
<stop offset="0.3333" stop-color="#DC1F26"/>
<stop offset="0.6848" stop-color="#F78C1E"/>
<stop offset="1" stop-color="#FDBA12"/>
</linearGradient>
<linearGradient id="paint41_linear_433_3867" x1="-619.222" y1="284.546" x2="1235.38" y2="284.546" gradientUnits="userSpaceOnUse">
<stop stop-color="#600F25"/>
<stop offset="0.3333" stop-color="#DC1F26"/>
<stop offset="0.6848" stop-color="#F78C1E"/>
<stop offset="1" stop-color="#FDBA12"/>
</linearGradient>
<linearGradient id="paint42_linear_433_3867" x1="-619.222" y1="265.402" x2="1235.38" y2="265.402" gradientUnits="userSpaceOnUse">
<stop stop-color="#600F25"/>
<stop offset="0.3333" stop-color="#DC1F26"/>
<stop offset="0.6848" stop-color="#F78C1E"/>
<stop offset="1" stop-color="#FDBA12"/>
</linearGradient>
<linearGradient id="paint43_linear_433_3867" x1="-619.222" y1="246.341" x2="1235.38" y2="246.341" gradientUnits="userSpaceOnUse">
<stop stop-color="#600F25"/>
<stop offset="0.3333" stop-color="#DC1F26"/>
<stop offset="0.6848" stop-color="#F78C1E"/>
<stop offset="1" stop-color="#FDBA12"/>
</linearGradient>
</defs>
</svg>
