<svg width="1920" height="354" viewBox="0 0 1920 354" fill="none" xmlns="http://www.w3.org/2000/svg">
<g opacity="0.5">
<g opacity="0.2">
<mask id="mask0_433_1870" style="mask-type:luminance" maskUnits="userSpaceOnUse" x="0" y="-303" width="1918" height="960">
<path d="M0.000732422 -303H1917.01V656.367H0.000732422V-303Z" fill="white"/>
</mask>
<g mask="url(#mask0_433_1870)">
<path d="M-34.0663 -305.4C-34.1753 -305.514 -9.65491 -197.469 27.0438 -109.546C36.7123 -88.7608 75.1583 20.0154 170.31 139.328C217.793 198.369 280.316 257.947 355.737 304.533C430.962 351.306 518.445 384.642 609.135 400.567C790.022 431.347 984.666 406.454 1120.72 317.182C1189.9 277.075 1249.85 236.896 1300.97 209.045C1351.83 180.568 1393.26 163.802 1418.75 155.392C1469.33 137.291 1541.46 125.03 1618.9 135.173C1696.17 144.158 1777.49 177.601 1840.48 229.986C1904.19 281.631 1947.56 349.357 1971.77 401.721C1996.21 454.41 2004.58 490.824 2005.02 490.549C2004.57 490.824 1996.32 454.372 1972.02 401.565C1947.96 349.07 1904.73 281.082 1841.02 229.111C1778.03 176.375 1696.55 142.561 1619.06 133.36C1541.43 122.98 1468.97 135.156 1418.22 153.304C1392.66 161.752 1351.1 178.569 1300.17 207.1C1248.98 234.99 1188.99 275.173 1119.9 315.247C984.134 404.337 790.038 429.116 609.404 398.429C518.907 382.534 431.638 349.29 356.599 302.627C281.384 256.172 219.02 196.755 171.659 137.853C76.745 18.8532 38.3634 -89.6991 28.7239 -110.446C-7.88208 -198.137 -34.1593 -305.476 -34.0663 -305.4Z" fill="url(#paint0_linear_433_1870)"/>
<path d="M-82.0693 -303.943C-82.1045 -304.091 -57.3792 -194.668 -19.834 -105.95C-9.96997 -84.992 29.3638 24.8366 126.381 144.643C174.765 203.926 238.532 263.575 315.604 308.945C392.406 354.563 481.633 386.04 573.839 397.958C666.076 410.409 760.404 404.366 849.394 389.307C939.096 377.317 1021.87 344.568 1093.47 308.547C1165.28 272.632 1228.19 237.077 1281.3 212.72C1334.22 187.832 1376.91 173.801 1402.99 166.671C1454.94 151.566 1527.85 141.972 1606.2 150.416C1684.36 158.282 1767.66 187.227 1833.45 236.726C1899.97 285.328 1945.73 352.471 1970.79 405.059C1996.13 457.955 2004.65 494.821 2005.13 494.517C2004.65 494.821 1996.25 457.917 1971.05 404.894C1946.13 352.167 1900.5 284.741 1833.96 235.796C1768.14 185.96 1684.68 156.663 1606.34 148.57C1527.82 139.901 1454.66 149.377 1402.55 164.528C1376.4 171.675 1333.6 185.748 1280.6 210.679C1227.41 235.056 1164.46 270.642 1092.73 306.527C1021.16 342.518 938.711 375.149 849.125 387.135C760.224 402.176 666.083 408.19 574.041 395.774C482.053 383.893 393.053 352.479 316.453 306.971C239.59 261.733 175.993 202.252 127.737 143.126C30.9635 23.632 -8.29675 -85.9724 -18.135 -106.893C-55.584 -195.345 -82.095 -304.053 -82.0693 -303.943Z" fill="url(#paint1_linear_433_1870)"/>
<path d="M-129.819 -302.496C-129.864 -302.652 -104.949 -191.78 -66.6089 -102.119C-56.5879 -80.9582 -16.3628 30.1297 82.7157 150.52C132.099 210.055 197.211 269.866 276.013 313.988C354.437 358.504 445.501 388.291 539.223 396.067C632.996 404.545 728.055 392.699 817.715 374.758C908.074 359.97 992.445 330.796 1066.6 298.9C1140.89 267.25 1206.62 236.597 1261.66 216.069C1316.55 195.039 1360.39 183.734 1387.08 178.012C1440.34 166.119 1514.07 158.744 1593.45 165.612C1672.6 172.357 1757.79 196.874 1826.36 243.363C1895.65 288.846 1943.88 355.402 1969.79 408.289C1996.05 461.456 2004.72 498.817 2005.23 498.483C2004.72 498.817 1996.16 461.431 1970.05 408.116C1944.27 355.097 1896.16 288.229 1826.83 242.412C1758.22 195.572 1672.88 170.705 1593.56 163.74C1514.03 156.661 1440.14 163.909 1386.72 175.84C1359.97 181.566 1316.03 192.884 1261.06 213.965C1205.95 234.513 1140.19 265.196 1065.95 296.808C991.807 328.692 907.705 357.79 817.394 372.565C727.782 390.505 632.91 402.313 539.355 393.861C445.87 386.097 355.053 356.395 276.834 311.993C198.249 268.006 133.334 208.357 84.0686 148.998C-14.7502 28.9041 -54.8953 -81.9472 -64.9163 -103.07C-103.131 -192.465 -129.854 -302.606 -129.819 -302.496Z" fill="url(#paint2_linear_433_1870)"/>
<path d="M-177.671 -300.865C-177.729 -301.021 -152.474 -188.754 -113.233 -98.092C-103.014 -76.6817 -61.6697 35.6107 39.3707 156.935C89.8796 216.787 156.635 276.323 237.076 319.562C317.18 363.131 410.225 390.86 505.386 394.752C600.688 399.156 696.33 381.291 786.693 360.375C877.696 342.088 963.759 316.384 1040.29 288.579C1116.94 261.218 1185.36 236.072 1242.16 219.446C1298.89 202.422 1343.81 193.978 1371.08 189.756C1478.23 173.722 1674.2 161.88 1819.22 249.938C1891.23 292.172 1942 358.153 1968.79 411.4C1995.96 464.926 2004.79 502.823 2005.33 502.468C2004.79 502.823 1996.08 464.892 1969.05 411.226C1942.4 357.836 1891.73 291.529 1819.66 248.95C1748.32 205.216 1661.17 184.702 1580.79 178.895C1500.11 173.105 1425.44 179.03 1370.81 187.529C1343.49 191.755 1298.48 200.225 1241.69 217.269C1184.81 233.917 1116.34 259.093 1039.72 286.428C963.189 314.237 877.334 339.882 786.33 358.165C695.965 379.098 600.518 396.899 505.45 392.521C410.549 388.633 317.763 360.976 237.884 317.534C157.664 274.409 91.1042 215.05 40.7491 155.371C-60.0444 34.3598 -101.308 -77.6875 -111.505 -99.0556C-150.634 -189.447 -177.719 -300.962 -177.671 -300.865Z" fill="url(#paint3_linear_433_1870)"/>
<path d="M-225.613 -299.586C-225.689 -299.751 -199.986 -185.603 -159.819 -93.8163C-149.375 -72.165 -107.031 41.6489 -3.62427 163.729C47.8752 224.165 116.439 283.401 198.626 325.706C280.551 368.096 375.613 393.94 472.22 393.762C569.029 394.176 665.11 370.061 756.219 346.073C847.96 324.476 935.68 301.168 1014.47 277.729C1171.87 229.698 1298.91 205.194 1354.78 201.428C1410.4 196.031 1486.02 191.978 1567.75 196.111C1649.2 200.604 1737.91 216.507 1811.91 256.577C1886.64 295.387 1940.09 360.717 1967.75 414.403C1995.87 468.331 2004.86 506.824 2005.44 506.439C2004.86 506.824 1995.99 468.301 1968.02 414.213C1940.49 360.383 1887.13 294.711 1812.31 255.55C1738.25 215.125 1649.38 198.909 1567.83 194.176C1485.98 189.844 1410.34 193.745 1354.59 199.158C1298.64 202.924 1171.4 227.487 1013.99 275.519C935.167 298.971 847.607 322.228 755.796 343.854C664.655 367.851 568.759 391.907 472.223 391.488C375.895 391.67 281.093 365.89 199.418 323.623C117.464 281.44 49.1061 222.382 -2.24915 162.119C-105.383 40.3557 -147.65 -73.2089 -158.059 -94.8221C-198.117 -186.304 -225.677 -299.696 -225.613 -299.586Z" fill="url(#paint4_linear_433_1870)"/>
<path d="M-273.471 -297.984C-273.554 -298.145 -247.476 -182.294 -206.308 -89.2986C-195.624 -67.4022 -152.225 48.0727 -46.283 170.982C6.37695 231.942 76.71 291.118 160.811 332.345C244.692 373.311 341.783 397.604 439.858 393.086C538.157 389.358 634.511 358.933 726.418 331.821C818.935 306.7 908.441 285.493 989.346 266.382C1151.28 227.922 1281.7 215.142 1338.39 213.189C1395.07 210.907 1471.84 208.731 1554.87 211.241C1637.6 214.533 1728 226.261 1804.61 263.039C1881.98 298.408 1938.16 363.075 1966.7 417.302C1995.79 471.69 2004.92 510.838 2005.53 510.412C2004.91 510.838 1995.91 471.665 1966.96 417.104C1938.56 362.72 1882.45 297.694 1804.98 261.974C1728.29 224.837 1637.73 212.801 1554.92 209.284C1471.78 206.571 1395.07 208.591 1338.29 210.882C1281.54 212.839 1150.96 225.636 988.955 264.108C907.983 283.244 818.566 304.427 725.925 329.573C633.966 356.697 537.785 387.059 439.771 390.77C342.01 395.271 245.201 371.05 161.562 330.22C77.7166 289.102 7.61108 230.116 -44.9045 169.337C-150.561 46.7498 -193.877 -68.463 -204.539 -90.3256C-245.581 -183.025 -273.544 -298.094 -273.471 -297.984Z" fill="url(#paint5_linear_433_1870)"/>
<path d="M-321.382 -296.678C-321.475 -296.868 -294.935 -178.866 -252.703 -84.5813C-241.772 -62.3976 -197.235 54.8354 -88.6257 178.67C-34.6995 240.124 37.4509 299.297 123.575 339.391C209.488 378.89 308.72 401.552 408.228 392.613C507.97 384.528 604.465 347.814 697.196 317.529C790.495 288.718 882.021 269.793 964.897 254.908C1131.07 226.22 1264.25 225.248 1321.82 225.041C1379.5 225.818 1457.53 225.476 1541.93 226.334C1626.04 228.367 1718.08 236.033 1797.24 269.438C1877.17 301.296 1936.21 365.214 1965.58 420.118C1995.73 474.983 2004.97 514.854 2005.64 514.385C2004.96 514.854 1995.86 474.95 1965.84 419.906C1936.62 364.855 1877.63 300.556 1797.58 268.343C1718.32 234.567 1626.13 226.613 1541.96 224.356C1457.45 223.278 1379.57 223.477 1321.81 222.687C1264.2 222.906 1130.91 223.878 964.596 252.588C881.623 267.498 790.126 286.406 696.661 315.268C603.827 345.596 507.518 382.22 408.065 390.272C308.909 399.189 209.969 376.599 124.313 337.206C38.4513 297.242 -33.459 238.26 -87.2217 176.992C-195.558 53.4872 -240.002 -63.4795 -250.908 -85.621C-293.011 -179.609 -321.462 -296.804 -321.382 -296.678Z" fill="url(#paint6_linear_433_1870)"/>
<path d="M-369.321 -295.189C-369.424 -295.375 -342.381 -175.315 -299.014 -79.6444C-287.826 -57.1648 -242.068 61.9404 -130.644 186.755C-75.3716 248.747 -1.29431 307.906 86.9553 346.767C174.955 384.782 276.444 405.715 377.337 392.246C478.467 379.58 575.013 336.827 668.495 302.932C762.739 270.871 856.294 253.396 941.072 242.982C1111.2 224.255 1246.55 235.408 1305.07 236.888C1363.69 240.793 1443.07 242.23 1528.93 241.389C1614.5 242.132 1708.15 245.784 1789.8 275.795C1872.22 304.085 1934.21 367.176 1964.43 422.836C1995.66 478.23 2005 518.874 2005.74 518.35C2005.01 518.874 1995.79 478.192 1964.7 422.629C1934.63 366.808 1872.66 303.304 1790.1 274.658C1708.34 244.284 1614.55 240.341 1528.93 239.377C1442.99 239.994 1363.83 238.405 1305.15 234.5C1246.62 233.025 1111.21 221.855 940.863 240.594C855.951 251.037 762.354 268.509 667.908 300.645C574.289 334.591 477.912 377.255 377.106 389.879C276.595 403.298 175.404 382.437 87.6669 344.531C-0.297485 305.784 -74.1309 246.832 -129.23 185.018C-240.353 60.5374 -286.018 -58.2847 -297.184 -80.7305C-340.435 -176.067 -369.408 -295.32 -369.321 -295.189Z" fill="url(#paint7_linear_433_1870)"/>
<path d="M-417.165 -293.769C-417.271 -293.976 -389.817 -171.638 -345.232 -74.5179C-333.778 -51.7129 -286.712 69.3449 -172.34 195.221C-115.653 257.774 -39.5211 316.891 50.9244 354.45C141.072 390.94 244.917 409.996 347.16 391.899C449.62 374.58 546.003 325.525 640.375 288.334C735.523 252.745 831.335 236.845 917.892 230.928C1091.68 222.349 1228.62 245.573 1288.16 248.755C1317.95 251.38 1352.94 255.065 1391.55 256.502C1430.15 257.727 1472.17 256.802 1515.88 256.434C1602.99 255.821 1698.22 255.542 1782.29 282.13C1867.14 306.786 1932.17 368.989 1963.26 425.46C1995.58 481.437 2005.04 522.91 2005.84 522.327C2005.04 522.893 1995.71 481.404 1963.53 425.24C1932.58 368.604 1867.56 305.975 1782.56 280.947C1698.36 254.012 1602.99 253.991 1515.85 254.376C1472.15 254.634 1430.12 255.462 1391.6 254.165C1353.11 252.673 1318.1 248.945 1288.32 246.321C1228.79 243.151 1091.86 219.915 917.786 228.503C831.05 234.428 735.129 250.348 639.724 286.027C545.185 323.281 448.96 372.234 346.839 389.478C245.026 407.528 141.472 388.527 51.6135 352.147C-38.5339 314.715 -114.406 255.796 -170.919 193.45C-284.988 67.9079 -331.945 -52.8667 -343.383 -75.6295C-387.82 -172.407 -417.264 -293.905 -417.165 -293.769Z" fill="url(#paint8_linear_433_1870)"/>
<path d="M-465.062 -292.312C-465.164 -292.532 -437.208 -167.844 -391.369 -69.2065C-379.63 -46.0507 -331.192 77.0441 -213.748 204.023C-155.558 267.147 -77.2556 326.196 15.4563 362.357C107.825 397.278 214.113 414.331 317.625 391.459C421.359 369.364 517.437 313.995 612.758 273.575C708.855 234.511 807.062 219.681 895.334 218.84C983.843 218.075 1062.74 229.52 1126.89 238.911C1191.07 248.678 1240.82 256.602 1271.06 260.659C1301.29 264.7 1336.83 269.826 1376.15 271.829C1415.46 273.668 1458.26 272.548 1502.76 271.466C1591.47 269.467 1688.28 265.325 1774.7 288.443C1861.92 309.448 1930.04 370.649 1962.05 428.008C1995.49 484.61 2005.08 526.932 2005.94 526.303C2005.07 526.932 1995.63 484.577 1962.32 427.788C1930.47 370.264 1862.32 308.581 1774.93 287.239C1688.36 263.757 1591.42 267.599 1502.71 269.366C1458.23 270.338 1415.42 271.348 1376.22 269.454C1337.05 267.404 1301.51 262.232 1271.3 258.208C1241.08 254.138 1191.35 246.227 1127.15 236.451C1062.98 227.065 984 215.595 895.298 216.364C806.837 217.213 708.426 232.064 612.049 271.229C516.52 311.747 420.605 367.022 317.231 389.016C214.165 411.808 108.181 394.823 16.1135 360.007C-76.2908 323.965 -154.314 265.135 -212.318 202.21C-329.441 75.5777 -377.787 -47.2341 -389.494 -70.3392C-435.191 -168.638 -465.158 -292.473 -465.062 -292.312Z" fill="url(#paint9_linear_433_1870)"/>
<path d="M-512.953 -290.861C-513.062 -291.098 -484.605 -163.954 -437.424 -63.715C-425.399 -40.1999 -375.512 85.0207 -254.846 213.158C-195.089 276.856 -114.527 335.792 -19.4584 370.443C75.1707 403.759 183.994 418.656 288.705 390.86C393.634 363.871 489.257 302.201 585.591 258.615C682.705 216.133 783.511 202.778 873.348 206.856C963.492 210.791 1043.15 228.503 1107.96 242.163C1172.78 256.384 1223.14 267.026 1253.81 272.511C1284.46 277.972 1320.55 284.523 1360.59 287.139C1400.63 289.59 1444.27 288.267 1489.58 286.458C1579.96 283.022 1678.33 275.081 1767.04 294.742C1856.56 312.053 1927.85 372.172 1960.81 430.473C1995.4 487.731 2005.11 530.97 2006.04 530.277C2005.11 530.957 1995.54 487.697 1961.08 430.236C1928.28 371.745 1856.94 311.157 1767.25 293.508C1678.37 273.488 1579.87 281.146 1489.51 284.324C1444.22 286.014 1400.6 287.236 1360.7 284.725C1320.82 282.059 1284.74 275.47 1254.13 270.018C1223.5 264.541 1173.18 253.912 1108.35 239.686C1043.52 226.018 963.771 208.272 873.418 204.325C783.354 200.259 682.259 213.631 584.828 256.253C488.244 299.957 392.769 361.521 288.215 388.4C183.988 416.087 75.4847 401.244 -18.8236 368.03C-113.562 333.492 -193.839 274.772 -253.407 211.289C-373.736 83.5076 -423.521 -41.4213 -435.516 -64.8814C-482.537 -164.753 -513.049 -291.034 -512.953 -290.861Z" fill="url(#paint10_linear_433_1870)"/>
<path d="M-560.95 -289.422C-561.1 -289.654 -531.913 -159.975 -483.407 -58.0661C-471.094 -34.1707 -419.665 93.256 -295.656 222.585C-234.263 286.858 -151.316 345.629 -53.8276 378.674C43.1063 410.329 154.543 422.902 260.363 390.039C366.388 358.033 461.444 290.095 558.881 243.433C657.078 197.586 760.664 185.871 851.939 195.025C943.6 203.79 1023.78 227.618 1089.14 245.487C1154.47 264.053 1205.38 277.421 1236.45 284.31C1267.5 291.198 1304.14 299.207 1344.94 302.432C1385.74 305.669 1430.26 303.945 1476.41 301.443C1568.52 296.511 1668.43 284.817 1759.39 301.042C1804.62 309.093 1847.05 325.271 1881.38 349.449C1915.89 373.336 1941.66 404.239 1959.61 432.826C1995.24 490.852 2005.33 534.912 2006.14 534.252C2005.33 534.916 1995.39 490.814 1959.89 432.589C1942 403.905 1916.28 372.838 1881.74 348.76C1847.4 324.375 1804.87 307.989 1759.56 299.769C1668.43 283.181 1568.38 294.596 1476.31 299.275C1430.19 301.658 1385.71 303.269 1345.08 299.976C1304.47 296.701 1267.87 288.658 1236.87 281.791C1205.84 274.902 1154.99 261.568 1089.65 242.985C1024.28 225.12 944.013 201.25 852.103 192.46C760.574 183.28 656.616 195.025 558.057 241.041C460.341 287.851 365.43 355.675 259.789 387.549C154.492 420.269 43.3855 407.759 -53.2214 376.198C-150.364 343.279 -233.004 284.715 -294.207 220.666C-417.857 91.6797 -469.17 -35.4175 -481.461 -59.2579C-529.816 -160.803 -561.081 -289.578 -560.95 -289.422Z" fill="url(#paint11_linear_433_1870)"/>
<path d="M-608.707 -287.802C-608.889 -288.052 -579.195 -155.917 -529.305 -52.2587C-516.69 -27.966 -463.652 101.722 -336.213 232.28C-273.102 297.12 -187.67 355.671 -87.7231 386.992C11.5702 416.948 125.667 427.04 232.507 388.961C339.519 351.816 433.901 277.687 532.528 228.037C631.873 178.813 738.414 169.169 830.985 183.416C924.037 197.109 1004.54 226.883 1070.34 248.843C1136.06 271.657 1187.48 287.721 1218.94 296.03C1250.37 304.343 1287.53 313.852 1329.13 317.715C1370.71 321.641 1416.13 319.659 1463.15 316.404C1557.03 309.98 1658.49 294.559 1751.63 307.339C1797.95 313.704 1841.71 328.399 1877.27 351.931C1913.04 375.146 1939.78 406.217 1958.32 435.129C1995.12 493.917 2005.39 538.931 2006.25 538.221C2005.38 538.927 1995.27 493.879 1958.6 434.884C1940.12 405.866 1913.42 374.626 1877.62 351.212C1842.03 327.469 1798.17 312.584 1751.76 306.037C1658.44 292.906 1556.84 308.028 1463.02 314.198C1416.05 317.326 1370.67 319.185 1329.29 315.208C1287.93 311.286 1250.81 301.769 1219.44 293.473C1188.02 285.181 1136.69 269.129 1070.96 246.324C1005.16 224.369 924.575 194.539 831.238 180.812C738.398 166.506 631.389 176.181 531.65 225.615C432.703 275.439 338.462 349.458 231.846 386.447C125.565 424.352 11.801 414.323 -87.146 384.456C-186.738 353.241 -271.839 294.918 -334.732 230.285C-461.828 100.103 -514.738 -29.2678 -527.317 -53.5055C-577.05 -156.766 -608.87 -287.967 -608.707 -287.802Z" fill="url(#paint12_linear_433_1870)"/>
<path d="M-656.763 -286.437C-656.984 -286.678 -626.447 -151.767 -575.127 -46.3123C-562.205 -21.6054 -507.499 110.415 -376.482 242.216C-311.586 307.631 -223.58 365.907 -121.116 395.381C-70.0146 410.258 -15.7004 418.169 39.662 418.051C94.9667 419.036 151.627 409.29 205.134 387.567C313.034 345.173 406.644 264.945 506.543 212.379C607.144 159.863 716.731 152.289 810.466 171.861C904.793 190.571 985.42 226.161 1051.56 252.161C1117.58 279.15 1169.45 297.931 1201.29 307.656C1233.08 317.402 1270.76 328.437 1313.16 332.976C1355.54 337.621 1401.91 335.385 1449.82 331.378C1545.53 323.42 1648.53 304.33 1743.81 313.683C1791.19 318.353 1836.26 331.509 1873.08 354.378C1910.1 376.87 1937.84 408.111 1956.99 437.391C1995 496.96 2005.43 542.963 2006.35 542.19C2005.43 542.959 1995.16 496.922 1957.27 437.15C1938.19 407.76 1910.48 376.338 1873.42 353.63C1836.56 330.558 1791.38 317.199 1743.9 312.352C1648.44 302.631 1545.3 321.434 1449.67 329.126C1401.82 333.005 1355.5 335.127 1313.35 330.423C1271.22 325.85 1233.58 314.803 1201.87 305.082C1170.1 295.37 1118.32 276.614 1052.31 249.638C986.167 223.646 905.466 188.002 810.837 169.216C716.805 149.58 606.644 157.183 505.617 209.932C405.365 262.71 311.877 342.823 204.39 385.044C97.233 428.287 -19.2524 420.912 -120.569 392.795C-222.667 363.418 -310.326 305.374 -375.001 240.192C-505.643 108.763 -560.223 -22.9113 -573.117 -47.5717C-624.264 -152.641 -656.968 -286.602 -656.763 -286.437Z" fill="url(#paint13_linear_433_1870)"/>
<path d="M-704.465 -284.843C-704.715 -285.101 -673.677 -147.544 -620.885 -40.2428C-607.656 -15.0964 -551.21 119.308 -416.519 252.373C-349.677 318.18 -259.165 376.359 -154.094 403.805C-101.733 417.895 -46.1619 424.289 10.2808 422.772C66.7139 422.227 124.227 410.178 178.134 385.856C286.74 337.993 379.596 251.958 480.836 196.522C582.774 140.655 695.601 136.01 790.323 160.869C885.776 184.684 966.418 225.789 1032.85 255.661C1099.1 286.631 1151.38 308.088 1183.58 319.22C1215.73 330.217 1253.85 343.191 1297.1 348.424C1340.32 353.406 1387.66 351.196 1436.48 346.336C1534.05 336.788 1638.59 314.06 1735.96 320.023C1784.37 323.011 1830.73 334.62 1868.81 356.779C1907.1 378.54 1935.87 409.95 1955.63 439.597C1994.86 499.953 2005.48 546.983 2006.45 546.167C2005.47 546.983 1995.02 499.919 1955.92 439.335C1936.22 409.578 1907.48 377.982 1869.13 356.014C1831 333.648 1784.53 321.828 1736.01 318.658C1638.45 312.356 1533.77 334.777 1436.3 344.028C1387.54 348.77 1340.28 350.858 1297.31 345.824C1254.37 340.575 1216.31 327.575 1184.24 316.621C1152.12 305.501 1099.94 284.099 1033.7 253.129C967.268 223.266 886.574 182.111 790.781 158.194C695.761 133.246 582.261 137.895 479.855 194.037C378.224 249.723 285.474 335.66 177.288 383.307C123.567 407.511 66.5023 419.488 10.2039 420.038C-46.053 421.547 -101.431 415.173 -153.594 401.129C-258.28 373.79 -348.434 315.839 -415.032 250.281C-549.338 117.588 -605.652 -16.4572 -618.85 -41.5445C-671.446 -148.432 -704.699 -285.021 -704.465 -284.843Z" fill="url(#paint14_linear_433_1870)"/>
<path d="M-752.386 -283.558C-752.672 -283.808 -720.894 -143.25 -666.589 -34.0467C-653.029 -8.46078 -594.788 128.391 -456.324 262.723C-387.434 328.814 -294.405 386.993 -186.667 412.22C-80.094 436.297 42.3315 438.714 151.476 383.794C260.643 330.365 352.733 238.671 455.395 180.442C506.834 151.618 562.071 135.753 615.956 131.535C669.994 127.748 722.379 136.074 770.499 150.224C866.959 179.212 947.495 225.587 1014.17 259.228C1080.59 294.07 1133.24 318.159 1165.78 330.716C1198.26 343.095 1236.86 357.692 1280.96 363.651C1325.01 369.407 1373.37 366.931 1423.11 361.284C1522.59 350.144 1628.67 323.818 1728.07 326.396C1777.51 327.724 1825.13 337.765 1864.47 359.188C1904.03 380.168 1933.86 411.738 1954.25 441.761C1994.75 502.95 2005.54 551.032 2006.56 550.149C2005.53 551.024 1994.91 502.907 1954.54 441.487C1934.21 411.357 1904.4 379.58 1864.78 358.389C1825.38 336.755 1777.64 326.51 1728.1 325.019C1628.49 322.086 1522.26 348.098 1422.9 358.939C1373.23 364.463 1324.98 366.812 1281.2 361.005C1237.45 355.038 1198.92 340.424 1166.52 328.074C1134.07 315.556 1081.52 291.525 1015.13 256.688C948.457 223.068 867.859 176.629 771.063 147.515C722.776 133.335 670.129 124.95 615.789 128.758C561.597 133.001 506.049 148.964 454.37 177.914C351.265 236.444 259.293 328.045 150.54 381.237C41.9854 435.887 -80.001 433.495 -186.199 409.506C-293.536 384.36 -386.197 326.418 -454.827 260.576C-592.89 126.633 -650.99 -9.85547 -664.519 -35.378C-718.618 -144.163 -752.656 -283.719 -752.386 -283.558Z" fill="url(#paint15_linear_433_1870)"/>
<path d="M-800.256 -282.05C-800.586 -282.308 -768.077 -138.876 -712.228 -27.7421C-698.321 -1.7377 -638.311 137.717 -495.849 273.157C-424.968 339.645 -329.265 397.693 -218.858 420.616C-109.819 442.356 15.488 442.42 125.084 381.291C234.729 322.368 325.998 225.024 430.19 164.102C482.398 134.154 538.873 117.756 593.95 115.068C649.168 112.127 702.341 123.572 750.942 139.915C848.242 174.19 928.644 225.539 995.508 262.862C1062.05 301.448 1115.05 328.132 1147.91 342.092C1180.71 355.857 1219.76 372.111 1264.72 378.844C1309.62 385.378 1359.03 382.664 1409.71 376.206C1511.12 363.439 1618.74 333.529 1720.15 332.79C1770.59 332.435 1819.43 340.909 1860.04 361.554C1900.88 381.73 1931.8 413.448 1952.83 443.852C1994.61 505.886 2005.58 555.054 2006.65 554.112C2005.57 555.042 1994.77 505.852 1953.12 443.569C1932.15 413.047 1901.26 381.134 1860.34 360.73C1819.66 339.869 1770.69 331.188 1720.14 331.366C1618.52 331.771 1510.75 361.351 1409.48 373.831C1358.88 380.145 1309.6 382.728 1265 376.143C1220.43 369.406 1181.45 353.16 1148.75 339.429C1115.98 325.512 1063.09 298.878 996.573 260.313C929.721 222.999 849.274 171.595 751.622 137.189C702.844 120.787 649.392 109.262 593.838 112.224C538.43 114.929 481.603 131.441 429.129 161.541C324.444 222.788 233.29 320.043 124.049 378.696C15.0778 439.52 -109.742 439.478 -218.412 417.823C-328.416 394.98 -423.708 337.172 -494.333 270.934C-636.378 135.895 -696.238 -3.18311 -710.105 -29.1283C-765.772 -139.819 -800.564 -282.219 -800.256 -282.05Z" fill="url(#paint16_linear_433_1870)"/>
<path d="M-848.148 -280.547C-848.501 -280.809 -815.274 -134.435 -757.895 -21.2722C-743.623 5.12936 -681.92 147.45 -535.173 283.73C-462.39 350.979 -363.78 408.279 -250.734 429.06C-194.5 440.31 -135.153 441.886 -75.4819 435.927C-15.5964 431.076 44.27 410.984 98.879 378.403C209.008 314.172 299.315 211.055 405.103 147.441C458.161 116.395 515.988 99.8023 572.239 98.7289C628.653 97.051 682.585 111.18 731.556 130.079C829.608 169.57 909.85 225.61 976.862 266.576C1043.51 308.771 1096.82 338.055 1129.99 353.396C1163.1 368.514 1202.59 386.467 1248.41 394.003C1294.19 401.403 1344.68 398.267 1396.31 390.977C1499.68 376.455 1608.85 343.017 1712.24 339.048C1763.67 337.058 1813.71 343.98 1855.59 363.857C1897.69 383.247 1929.71 415.113 1951.39 445.923C1994.46 508.814 2005.63 559.094 2006.75 558.101C2005.62 559.09 1994.63 508.78 1951.68 445.623C1930.07 414.707 1898.06 382.617 1855.88 363.011C1813.92 342.915 1763.74 335.781 1712.19 337.594C1608.59 341.221 1499.26 374.346 1396.05 388.555C1344.51 395.697 1294.16 398.681 1248.73 391.251C1203.33 383.733 1163.91 365.788 1130.91 350.704C1097.84 335.409 1044.65 306.206 978.029 264.015C911.036 223.075 830.737 166.983 732.344 127.328C683.178 108.356 628.96 94.1519 572.184 95.8255C515.559 96.9074 457.334 113.627 403.988 144.842C297.671 208.828 207.463 311.865 97.7476 375.813C-11.4962 442.884 -139.198 445.251 -250.353 426.211C-362.963 405.511 -461.153 348.435 -533.653 281.452C-679.968 145.586 -741.494 3.65436 -755.728 -22.6796C-812.905 -135.399 -848.481 -280.716 -848.148 -280.547Z" fill="url(#paint17_linear_433_1870)"/>
<path d="M-896.013 -279.037C-896.424 -279.303 -862.427 -129.942 -803.401 -14.7881C-788.747 12.0488 -725.178 157.07 -574.273 294.432C-499.437 362.277 -397.864 418.609 -282.228 437.34C-168.182 454.089 -37.162 448.502 72.9249 375.095C183.361 305.433 272.749 196.738 380.3 130.706C434.175 98.5144 493.461 81.7572 550.878 82.5095C608.443 82.5348 663.12 99.0258 712.353 120.787C811.005 165.493 891.038 226.119 958.182 270.558C1024.9 316.257 1078.52 348.051 1112.01 364.741C1145.43 381.185 1185.36 400.686 1232.04 409.138C1278.69 417.379 1330.29 414.057 1382.89 405.934C1488.24 389.744 1598.95 352.764 1704.28 345.516C1756.68 341.877 1807.9 347.198 1851.05 366.229C1894.42 384.744 1927.58 416.737 1949.93 447.931C1994.33 511.714 2005.68 563.123 2006.86 562.066C2005.68 563.11 1994.51 511.68 1950.23 447.631C1927.95 416.306 1894.79 384.097 1851.33 365.354C1808.09 346.094 1756.72 340.575 1704.21 344.045C1598.65 350.951 1487.78 387.584 1382.59 403.458C1330.1 411.429 1278.67 414.598 1232.4 406.344C1186.18 397.913 1146.3 378.417 1113.01 362.032C1079.63 345.385 1026.14 313.687 959.441 268.005C892.327 223.587 812.252 162.898 713.244 118.027C663.822 96.1857 608.85 79.5848 550.888 79.5553C493.06 78.803 433.335 95.6913 379.156 128.069C271.037 194.498 181.755 303.139 71.7067 372.505C-37.7325 445.522 -168.188 451.092 -281.872 434.411C-397.059 415.752 -498.193 359.665 -572.722 292.095C-723.181 155.147 -786.59 10.5188 -801.192 -16.2378C-860.02 -130.931 -896.401 -279.21 -896.013 -279.037Z" fill="url(#paint18_linear_433_1870)"/>
<path d="M-943.904 -277.531C-944.36 -277.797 -909.568 -125.393 -848.862 -8.19382C-833.833 19.07 -768.341 166.846 -613.176 305.274C-536.239 373.706 -431.647 428.94 -313.401 445.566C-196.829 459.867 -62.9819 450.916 47.1177 371.331C157.621 295.997 246.285 182.107 355.679 113.726C410.48 80.5413 471.232 63.7968 529.813 66.2227C588.531 68.1667 643.807 87.3879 693.335 111.596C792.497 161.47 872.319 226.479 939.578 274.317C1006.37 323.426 1060.22 357.769 1093.96 375.938C1127.68 393.747 1168.03 414.841 1215.58 424.244C1263.11 433.377 1315.85 429.865 1369.42 420.905C1476.79 403.016 1589.04 362.54 1696.28 352.046C1749.63 346.797 1802.01 350.449 1846.43 368.63C1891.07 386.233 1925.39 418.344 1948.42 449.927C1994.18 514.598 2005.72 567.169 2006.95 566.049C2005.71 567.148 1994.36 514.56 1948.72 449.619C1925.76 417.905 1891.44 385.574 1846.69 367.73C1802.17 349.312 1749.64 345.458 1696.17 350.555C1588.69 360.677 1476.28 400.826 1369.1 418.382C1315.63 427.19 1263.1 430.537 1215.97 421.396C1168.93 412.022 1128.63 390.949 1095.05 373.22C1061.42 355.106 1007.7 320.844 940.943 271.764C873.697 223.948 793.853 158.888 694.335 108.815C644.615 84.5056 589.035 65.1661 529.874 63.2178C470.866 60.7538 409.612 77.659 354.493 111.038C244.477 179.868 155.913 293.715 45.8099 368.719C-63.6519 447.89 -196.877 456.803 -313.097 442.569C-430.877 426.002 -535.011 371.018 -611.624 302.865C-766.312 164.873 -831.641 17.4977 -846.621 -9.69418C-907.103 -126.407 -944.334 -277.7 -943.904 -277.531Z" fill="url(#paint19_linear_433_1870)"/>
<path d="M-991.778 -276.023C-992.281 -276.294 -956.685 -120.796 -894.271 -1.54257C-878.851 26.1565 -811.4 176.756 -651.894 316.194C-572.797 385.167 -465.166 439.339 -344.285 453.603C-225.197 465.581 -88.5151 452.99 21.4531 367.243C132.117 286.601 219.867 167.23 331.2 96.6256C386.983 62.5406 449.26 45.8552 508.979 50.3097C568.819 54.2021 624.656 76.0858 674.412 102.847C774.006 157.767 853.63 226.985 921.013 278.128C987.858 330.559 1041.95 367.37 1075.94 386.942C1109.93 406.108 1150.65 428.947 1199.08 439.314C1247.49 449.368 1301.39 445.683 1355.96 435.861C1465.36 416.243 1579.14 372.289 1688.28 358.592C1742.57 351.745 1796.07 353.723 1841.76 371.026C1887.68 387.724 1923.18 419.911 1946.9 451.896C1994.04 517.462 2005.77 571.212 2007.06 570.012C2005.76 571.195 1994.22 517.42 1947.21 451.583C1923.56 419.451 1888.04 387.022 1842.02 370.104C1796.22 352.561 1742.55 350.389 1688.14 357.066C1578.76 370.404 1464.8 414.028 1355.61 433.296C1301.17 442.945 1247.49 446.469 1199.51 436.411C1151.63 426.09 1110.95 403.289 1077.12 384.199C1043.23 364.695 989.279 327.973 922.469 275.562C855.117 224.45 775.478 155.198 675.515 100.053C625.576 73.1951 569.422 51.1593 509.117 47.2457C448.933 42.7532 386.12 59.5822 329.982 93.8912C217.975 165.007 130.335 284.34 20.0491 364.64C-89.291 449.947 -225.27 462.449 -344.012 450.556C-464.418 436.335 -571.572 382.407 -650.342 313.722C-809.329 174.719 -876.626 24.5463 -891.985 -3.07248C-954.178 -121.835 -992.256 -276.184 -991.778 -276.023Z" fill="url(#paint20_linear_433_1870)"/>
<path d="M-1039.65 -274.519C-1040.21 -274.785 -1003.79 -116.152 -939.637 5.19763C-923.82 33.3278 -854.385 186.789 -690.448 327.198C-609.129 396.586 -498.417 449.837 -374.892 461.379C-253.271 471.412 -113.84 454.562 -4.12134 362.775C106.655 276.923 193.475 152.053 306.908 79.4493C363.627 44.2485 427.571 28.1548 488.376 34.5788C549.323 40.5547 605.583 65.2827 655.56 94.4483C755.51 154.394 834.986 227.589 902.456 281.99C969.366 337.633 1023.66 376.921 1057.94 397.841C1092.18 418.364 1133.22 442.978 1182.53 454.422C1231.84 465.28 1286.92 461.505 1342.49 450.838C1453.94 429.424 1569.27 382.051 1680.27 365.163C1735.49 356.673 1790.1 357.15 1837.04 373.506C1884.16 389.291 1921 421.335 1945.43 453.767C1993.83 520.34 2005.79 575.243 2007.16 573.98C2005.78 575.231 1994.02 520.306 1945.73 453.438C1921.36 420.87 1884.52 388.568 1837.27 372.555C1790.22 355.963 1735.44 355.286 1680.09 363.604C1568.85 380.141 1453.33 427.159 1342.11 448.214C1286.67 458.721 1231.86 462.317 1183 451.468C1134.28 440.095 1093.28 415.519 1059.2 395.073C1025.04 374.22 970.882 335.038 904.008 279.424C836.56 225.057 757.075 151.807 656.762 91.6463C606.609 62.3708 550.032 37.478 488.591 31.4386C427.282 24.9681 362.748 41.2183 305.655 76.6642C191.477 149.817 104.783 274.653 -5.62488 360.159C-114.715 451.481 -253.393 468.2 -374.674 458.243C-497.715 446.739 -607.908 393.741 -688.881 324.658C-852.281 184.692 -921.547 31.6541 -937.306 3.60428C-1001.23 -117.217 -1040.19 -274.68 -1039.65 -274.519Z" fill="url(#paint21_linear_433_1870)"/>
</g>
</g>
<g opacity="0.2">
<mask id="mask1_433_1870" style="mask-type:luminance" maskUnits="userSpaceOnUse" x="3" y="-302" width="1918" height="960">
<path d="M1920.03 -301.502H3.01953V657.865H1920.03V-301.502Z" fill="white"/>
</mask>
<g mask="url(#mask1_433_1870)">
<path d="M2218.67 369.361C2218.93 369.572 2124.41 429.019 2035.57 454.859C2014.15 460.306 1908.51 500.076 1757.83 478.315C1683.1 467.322 1598.28 438.812 1515.39 385.607C1431.67 333.97 1353.87 253.43 1281.64 164.876C1208.92 76.8384 1138.39 -17.1754 1060.09 -91.7609C982.288 -165.78 895.193 -220.396 810.405 -229.242C724.691 -238.705 652.201 -188.331 607.013 -135.811C560.47 -83.0589 533.224 -31.2193 516.487 -0.891434C447.472 119.046 378.694 366.614 253.078 515.975C222.252 552.706 188.182 581.736 153.994 598.819C119.866 616.252 86.2411 621.125 58.4926 619.261C2.5532 614.697 -29.3114 592.365 -29.3691 593.722C-29.3018 592.361 2.47626 614.853 58.4766 619.671C86.2572 621.662 119.962 616.928 154.228 599.588C188.548 582.615 222.778 553.631 253.758 516.939C380.002 367.696 449.344 120.065 518.151 0.596298C534.837 -29.647 562.031 -81.3557 608.334 -133.829C653.329 -186.083 725.178 -236.008 810.258 -226.626C894.442 -217.865 981.298 -163.485 1058.89 -89.6561C1137.01 -15.2439 1207.5 78.6896 1280.26 166.787C1352.52 255.391 1430.56 336.18 1514.49 387.957C1597.61 441.301 1682.66 469.896 1757.6 480.91C1908.69 502.734 2014.58 462.859 2036.05 457.399C2125.19 431.437 2218.97 369.53 2218.67 369.361Z" fill="url(#paint22_linear_433_1870)"/>
<path d="M2218.68 333.878C2218.91 334.077 2126.21 394.398 2038.91 422.186C2017.78 428.107 1914.18 469.981 1764.98 453.774C1690.97 445.511 1606.59 420.635 1523.52 371.264C1439.76 323.317 1360.92 247.129 1287.56 162.481C1213.69 78.4243 1141.94 -11.7012 1063.24 -82.8846C985.034 -153.51 899.041 -206.664 815.359 -215.962C730.838 -226.177 658.597 -178.961 612.9 -128.448C566.007 -77.7454 537.932 -27.664 520.788 1.72986C450.281 117.991 374.566 357.448 249.98 503.394C219.253 539.25 185.696 568.006 151.94 584.983C118.261 602.171 85.1749 607.834 57.7341 606.262C2.44226 602.826 -29.2781 581.458 -29.3711 582.946C-29.2749 581.454 2.37493 602.983 57.7213 606.659C85.1941 608.358 118.363 602.831 152.168 585.735C186.049 568.868 219.766 540.172 250.647 504.354C375.829 358.555 452.093 119.094 522.394 3.25565C539.486 -26.0663 567.507 -76.0211 614.163 -126.458C659.665 -176.712 731.264 -223.51 815.196 -213.384C898.3 -204.171 984.088 -151.228 1062.09 -80.763C1140.61 -9.74866 1212.31 80.305 1286.23 164.425C1359.64 249.12 1438.7 325.548 1522.69 373.618C1605.97 423.12 1690.59 448.064 1764.81 456.347C1914.4 472.602 2018.24 430.618 2039.41 424.697C2127.02 396.782 2218.96 334.043 2218.68 333.878Z" fill="url(#paint23_linear_433_1870)"/>
<path d="M2218.67 298.389C2218.91 298.588 2127.97 359.801 2042.14 389.47C2021.34 395.852 1919.71 439.682 1772.02 428.893C1698.72 423.31 1614.82 402.056 1531.58 356.699C1447.64 312.839 1368.13 240.384 1293.47 160.029C1218.41 80.0762 1145.3 -5.85696 1066.24 -73.7016C987.514 -140.616 902.922 -193.17 820.189 -202.717C736.838 -213.676 664.848 -169.545 618.609 -121.201C571.302 -72.6703 542.387 -24.3469 524.8 4.05797C452.541 116.397 370.468 347.892 246.94 490.736C216.531 526.165 183.14 554.033 149.965 571.281C116.712 588.393 84.1291 594.513 56.9833 593.435C2.31652 591.089 -29.3045 570.723 -29.375 572.181C-29.2981 570.723 2.2492 591.246 56.9769 593.832C84.158 595.032 116.818 589.04 150.192 572.033C183.493 554.887 217.041 527.078 247.594 491.695C371.696 349.016 454.297 117.576 526.355 5.62581C543.897 -22.7115 572.751 -70.8995 619.817 -119.189C665.867 -167.301 737.219 -211.039 820.023 -200.169C902.198 -190.711 986.613 -138.351 1065.15 -71.5715C1144.04 -3.87485 1217.11 81.9907 1292.21 162.007C1366.92 242.399 1446.65 315.087 1530.81 359.053C1614.29 404.541 1698.41 425.846 1771.89 431.445C1919.97 442.26 2021.83 398.328 2042.68 391.93C2128.8 362.143 2218.95 298.554 2218.67 298.389Z" fill="url(#paint24_linear_433_1870)"/>
<path d="M2218.67 262.91C2218.89 263.101 2129.67 325.24 2045.3 356.793C2024.79 363.644 1925.11 409.461 1778.93 404.128C1706.37 401.233 1622.96 383.613 1539.56 342.259C1455.53 302.363 1375.09 234.214 1299.24 158.006C1223.04 82.1521 1148.67 0.301636 1069.35 -64.4197C990.242 -128.025 906.73 -179.476 824.998 -189.628C742.807 -201.242 670.951 -160.593 624.129 -114.421C576.377 -68.0671 546.628 -21.5398 528.57 5.84232C454.333 114.027 366.42 337.745 244.042 477.935C213.864 512.853 180.768 540.138 148.092 557.58C115.247 574.641 83.145 581.213 56.278 580.634C2.20432 579.362 -29.3205 559.985 -29.375 561.4C-29.3173 559.985 2.14021 579.51 56.2716 581.027C83.1706 581.729 115.356 575.288 148.32 558.319C181.111 540.979 214.361 513.749 244.68 478.886C367.612 338.878 456.019 115.29 530.067 7.45671C548.08 -19.862 577.765 -66.2709 625.28 -112.388C671.903 -158.328 743.14 -198.638 824.812 -187.113C906.006 -177.05 989.37 -125.769 1068.3 -62.2856C1147.47 2.30902 1221.79 84.0962 1298.04 160.005C1373.93 236.264 1454.61 304.62 1538.86 344.621C1622.48 386.081 1706.11 403.743 1778.87 406.655C1925.41 411.988 2025.31 366.074 2045.87 359.202C2130.51 327.53 2218.94 263.067 2218.67 262.91Z" fill="url(#paint25_linear_433_1870)"/>
<path d="M2218.67 227.425C2218.89 227.611 2131.33 290.701 2048.38 324.131C2028.17 331.464 1930.38 379.212 1785.74 379.339C1713.91 379.128 1631.02 365.147 1547.47 327.863C1463.39 291.982 1381.99 228.287 1304.97 156.309C1227.62 84.6401 1152.05 6.8933 1072.51 -54.8443C993.107 -115.453 910.548 -165.552 829.799 -176.574C748.679 -188.813 677.013 -151.842 629.613 -107.745C581.223 -63.9266 550.731 -19.035 532.15 7.22296C495.035 60.4108 450.806 138.411 403.297 223.009C355.504 307.124 302.061 397.081 241.262 465.018C181.809 535.103 109.117 570.063 55.6043 567.865C2.1044 567.654 -29.3339 549.248 -29.3691 550.63C-29.3307 549.248 2.04028 567.81 55.6043 568.263C109.171 570.701 182.162 535.961 241.887 465.969C302.953 398.15 356.651 308.261 404.605 224.268C452.271 139.772 496.554 61.9534 533.583 8.89656C552.125 -17.3107 582.55 -62.0881 630.706 -105.682C677.897 -149.564 748.968 -186.231 829.601 -174.089C909.839 -163.164 992.267 -113.209 1071.51 -52.7059C1150.92 8.9176 1226.44 86.6221 1303.85 158.338C1380.91 230.375 1462.54 294.247 1546.85 330.225C1630.61 367.611 1713.72 381.621 1785.73 381.833C1930.73 381.714 2028.72 333.852 2048.98 326.506C2132.2 292.95 2218.93 227.577 2218.67 227.425Z" fill="url(#paint26_linear_433_1870)"/>
<path d="M2218.68 191.942C2218.87 192.124 2132.94 256.194 2051.39 291.505C2031.46 299.315 1935.52 348.995 1792.41 354.548C1721.31 357.012 1638.99 346.675 1555.33 313.515C1471.2 281.7 1388.85 222.599 1310.65 154.915C1232.16 87.5271 1155.43 13.8629 1075.69 -45.0177C996.044 -102.808 914.379 -151.613 834.593 -163.768C754.437 -176.996 683.027 -143.055 634.968 -101.422C586.055 -59.9956 554.594 -17.0946 535.498 8.0603C497.466 59.1138 450.999 133.674 402.224 215.77C353.078 297.307 298.962 384.965 238.615 451.956C179.518 520.971 107.935 556.045 54.9767 555.119C2.01214 555.96 -29.3492 538.51 -29.3652 539.85C-29.3428 538.514 1.95443 556.121 54.9799 555.512C107.996 556.675 179.867 521.816 239.24 452.894C299.837 386.038 354.2 298.47 403.5 217.063C452.422 135.09 498.927 60.7198 536.886 9.76343C555.934 -15.3323 587.328 -58.1233 636.006 -99.3423C683.861 -140.777 754.681 -174.443 834.384 -161.312C913.69 -149.255 995.237 -100.581 1074.74 -42.8707C1154.36 15.917 1231.05 89.5346 1309.61 156.973C1387.84 224.708 1470.42 283.978 1554.77 315.882C1638.66 349.126 1721.19 359.489 1792.45 357.016C1935.91 351.45 2032.04 301.66 2052.02 293.838C2133.81 258.404 2218.92 192.086 2218.68 191.942Z" fill="url(#paint27_linear_433_1870)"/>
<path d="M2218.68 156.461C2218.87 156.63 2134.49 221.732 2054.29 258.911C2034.65 267.211 1940.49 318.806 1798.93 329.752C1728.59 334.891 1646.83 328.188 1563.08 299.208C1478.95 271.496 1395.65 217.159 1316.3 153.849C1236.7 90.7932 1158.81 21.2878 1078.88 -34.8204C999.061 -89.9608 918.261 -137.98 839.34 -150.904C760.163 -165.387 688.939 -134.459 640.186 -95.4762C590.69 -56.5605 558.31 -15.6542 538.688 8.35532C499.585 57.0717 451.073 128.28 401.086 207.942C350.757 287.091 295.898 372.437 236.111 438.756C177.261 506.63 106.883 542.186 54.3836 542.397C1.92879 544.286 -29.3684 527.766 -29.3652 529.08C-29.362 527.766 1.88071 544.439 54.3997 542.778C106.951 542.812 177.611 507.471 236.724 439.682C296.754 373.502 351.853 288.258 402.317 209.264C452.438 129.738 500.979 58.7326 540.005 10.1091C559.582 -13.8539 591.896 -54.6502 641.158 -93.3757C689.708 -132.177 760.355 -162.864 839.11 -148.482C917.579 -135.655 998.272 -87.7547 1077.98 -32.6777C1157.8 23.3544 1235.64 92.8134 1315.32 155.937C1394.71 219.285 1478.24 273.791 1562.6 301.571C1646.56 330.622 1728.53 337.346 1799.05 332.195C1940.93 321.215 2035.27 269.514 2054.95 261.197C2135.38 223.896 2218.91 156.596 2218.68 156.461Z" fill="url(#paint28_linear_433_1870)"/>
<path d="M2218.68 120.978C2218.85 121.143 2135.99 187.305 2057.11 226.364C2037.75 235.159 1945.34 288.656 1805.33 304.986C1735.72 312.784 1654.57 309.715 1570.77 284.966C1486.64 261.417 1402.43 211.965 1321.95 153.127C1162.15 35.5263 1001.17 -105.961 844.079 -138.229C765.857 -153.583 694.742 -126.307 645.348 -89.7999C595.137 -53.7243 561.945 -14.6227 541.698 8.03864C501.534 54.3757 450.977 122.098 399.926 199.527C348.468 276.357 293.036 359.7 233.717 425.359C175.191 492.342 105.884 528.35 53.8392 529.706C1.86202 532.635 -29.3903 517.027 -29.3711 518.316C-29.3839 517.027 1.80432 532.787 53.8552 530.078C105.957 528.958 175.531 493.166 234.323 426.281C293.872 360.765 349.536 277.532 401.122 200.871C452.291 123.606 502.858 56.1084 542.948 9.84328C563.148 -12.7674 596.272 -51.7718 646.249 -87.6699C695.444 -124.007 765.995 -151.081 843.829 -135.824C1000.18 -103.755 1161.18 37.5508 1321.04 155.244C1401.56 214.129 1486.01 263.725 1570.35 287.341C1654.35 312.145 1735.71 315.23 1805.49 307.408C1945.82 291.039 2038.41 237.433 2057.8 228.621C2136.91 189.439 2218.89 121.109 2218.68 120.978Z" fill="url(#paint29_linear_433_1870)"/>
<path d="M2218.68 85.502C2218.85 85.6499 2137.44 152.945 2059.84 193.877C2040.75 203.183 1950.02 258.594 1811.56 280.266C1742.7 290.726 1662.16 291.276 1578.34 270.812C1494.27 251.434 1409.16 207.063 1327.61 152.717C1165.15 44.5027 1003.85 -90.7808 848.791 -125.749C771.377 -142.375 700.518 -118.323 650.41 -84.5342C599.593 -51.2142 565.315 -14.4625 544.593 7.07048C503.278 50.8295 450.891 115.234 398.814 190.512C346.234 265.035 290.413 346.737 231.473 411.746C173.309 478.061 104.961 514.508 53.3553 517.014C1.81411 520.991 -29.3966 506.284 -29.3613 507.539C-29.3869 506.284 1.76602 521.139 53.3745 517.39C105.05 515.121 173.659 478.881 232.079 412.672C291.244 347.802 347.283 266.239 399.975 191.882C452.16 116.793 504.538 52.6214 545.782 8.93431C566.453 -12.5521 600.661 -49.2109 651.244 -82.383C701.153 -116.007 771.47 -139.89 848.519 -123.361C925.542 -108.747 1004.49 -61.4715 1084.69 -11.5886C1164.86 39.3846 1244.92 100.645 1326.77 154.864C1408.39 209.256 1493.72 253.755 1578 273.183C1662.03 293.702 1742.76 293.148 1811.78 282.667C1950.55 260.931 2041.45 205.423 2060.57 196.104C2138.38 155.037 2218.89 85.6203 2218.68 85.502Z" fill="url(#paint30_linear_433_1870)"/>
<path d="M2218.68 50.0112C2218.84 50.1676 2138.83 118.629 2062.47 161.454C2043.65 171.284 1954.54 228.597 1817.64 255.62C1749.51 268.734 1669.62 272.893 1585.83 256.753C1501.85 241.58 1415.89 202.466 1333.29 152.621C1250.47 103.068 1169.39 45.8103 1088.96 -2.86808C1008.45 -50.3462 930.206 -97.575 853.481 -113.457C776.833 -131.406 706.205 -110.609 655.369 -79.74C603.898 -49.3403 568.642 -14.8497 547.417 5.46609C504.993 46.6005 450.781 107.599 397.762 180.891C344.127 253.245 287.944 333.468 229.392 397.991C171.571 463.752 104.123 500.69 52.9123 504.337C1.77817 509.358 -29.4133 495.542 -29.3652 496.768C-29.4101 495.542 1.73329 509.506 52.9347 504.713C104.21 501.294 171.921 464.555 229.989 398.908C288.759 334.533 345.147 254.454 398.884 182.294C451.999 109.2 506.169 48.4559 548.529 7.37636C569.709 -12.9014 604.882 -47.299 656.128 -77.5593C706.769 -108.289 776.884 -128.955 853.179 -111.095C929.533 -95.3181 1007.7 -48.1655 1088.17 -0.708504C1168.53 47.9361 1249.61 105.19 1332.52 154.794C1415.17 204.689 1501.36 243.909 1585.55 259.124C1669.56 275.298 1749.63 271.126 1817.9 257.987C1955.1 230.9 2044.37 173.474 2063.23 163.643C2139.79 120.687 2218.88 50.1338 2218.68 50.0112Z" fill="url(#paint31_linear_433_1870)"/>
<path d="M2218.68 14.5309C2218.84 14.6746 2140.18 84.383 2065.02 129.114C2046.45 139.452 1958.89 198.704 1823.54 231.056C1756.16 246.816 1676.95 254.571 1593.22 242.797C1509.37 231.897 1422.62 198.112 1339.03 152.866C1255.2 107.999 1173.11 54.706 1092.52 8.22955C1011.68 -36.7339 934.223 -84.136 858.161 -101.375C782.244 -120.638 711.824 -103.133 660.257 -75.413C608.168 -47.9759 571.95 -15.8224 550.183 3.16634C506.605 41.5241 450.816 99.382 396.823 170.688C342.175 240.98 285.652 319.88 227.488 384.077C169.988 449.391 103.373 486.886 52.5244 491.683C1.7654 497.743 -29.4292 484.803 -29.3651 485.999C-29.4228 484.794 1.72052 497.891 52.5533 492.046C103.466 487.49 170.337 450.185 228.084 384.982C286.457 320.941 343.182 242.205 397.916 172.116C452.002 101.013 507.717 43.4344 551.225 5.12316C572.947 -13.8233 609.078 -45.8881 660.943 -73.2068C712.312 -100.788 782.247 -118.196 857.844 -99.0295C933.553 -81.8919 1010.96 -34.549 1091.77 10.4018C1172.33 56.8486 1254.4 110.155 1338.33 155.068C1422.01 200.357 1508.96 234.226 1593.02 245.164C1676.96 256.963 1756.36 249.191 1823.87 233.398C1959.52 200.978 2047.23 141.62 2065.81 131.261C2141.16 86.4031 2218.87 14.6408 2218.68 14.5309Z" fill="url(#paint32_linear_433_1870)"/>
<path d="M2218.68 -20.9483C2218.83 -20.8131 2141.46 50.1928 2067.47 96.8679C2049.17 107.729 1963.1 168.939 1829.29 206.608C1762.66 225.039 1684.11 236.323 1600.51 228.986C1516.8 222.422 1429.41 193.933 1344.83 153.441C1260.03 113.329 1177.01 63.9451 1096.19 19.548C1015.14 -23.4841 938.246 -70.6283 862.857 -89.524C787.613 -110.169 717.38 -96.0409 665.111 -71.5834C612.425 -47.1935 575.262 -17.4573 552.96 0.157829C508.243 35.646 450.999 90.4735 396.031 159.895C340.415 228.242 283.559 305.989 225.77 369.971C168.558 434.962 102.716 473.1 52.1943 479.026C1.77187 486.147 -29.4452 474.051 -29.3651 475.226C-29.4388 474.051 1.73019 486.291 52.2295 479.393C102.819 473.696 168.911 435.748 226.36 370.879C284.354 307.05 341.4 229.48 397.092 161.348C452.137 92.1387 509.279 37.6069 553.921 2.16947C576.172 -15.4077 613.246 -45.055 665.717 -69.3435C717.79 -93.6911 787.556 -107.744 862.498 -87.2038C937.563 -68.4011 1014.43 -21.316 1095.48 21.7203C1176.26 66.109 1259.31 115.497 1344.21 155.664C1428.88 196.198 1516.48 224.768 1600.38 231.34C1684.19 238.694 1762.9 227.384 1829.67 208.915C1963.76 171.166 2049.95 109.851 2068.29 98.9726C2142.46 52.1791 2218.85 -20.8384 2218.68 -20.9483Z" fill="url(#paint33_linear_433_1870)"/>
<path d="M2218.68 -56.4289C2218.82 -56.3063 2142.7 16.073 2069.84 64.7049C2051.78 76.1032 1967.16 139.303 1834.89 182.293C1768.99 203.416 1691.15 218.128 1607.7 215.3C1524.21 213.115 1436.24 190.023 1350.74 154.345C1265.04 119.021 1181.06 73.5252 1100.02 31.0722C1018.73 -10.151 942.285 -57.1685 867.503 -77.6576C792.951 -100.04 722.862 -89.4024 669.948 -68.2541C616.682 -47.0043 578.602 -19.7617 555.784 -3.54962C510.003 29.052 451.349 80.9254 395.438 148.563C338.841 215.017 281.684 291.804 224.228 355.685C167.279 420.457 102.155 459.313 51.9219 466.354C1.79436 474.545 -29.458 463.29 -29.365 464.448C-29.4548 463.295 1.75589 474.693 51.9571 466.726C102.264 459.897 167.635 421.239 224.818 356.585C282.479 292.874 339.81 216.272 396.47 150.042C452.451 82.6329 510.978 31.0637 556.678 -1.48717C579.442 -17.6739 617.426 -44.8363 670.474 -66.0015C723.192 -87.0484 792.842 -97.6351 867.118 -75.3499C941.599 -54.9623 1018.01 -7.9872 1099.32 33.2529C1180.36 75.7017 1264.37 121.219 1350.18 156.589C1435.79 192.309 1523.95 215.465 1607.66 217.654C1691.3 220.494 1769.29 205.745 1835.33 184.571C1967.86 141.505 2052.6 78.1994 2070.69 66.7842C2143.72 18.0256 2218.85 -56.3359 2218.68 -56.4289Z" fill="url(#paint34_linear_433_1870)"/>
<path d="M2218.68 -91.916C2218.81 -91.7935 2143.89 -17.9687 2072.12 32.6665C2054.3 44.6099 1971.07 109.851 1840.33 158.145C1775.17 181.977 1698.04 200.099 1614.82 201.807C1531.56 203.996 1443.11 186.381 1356.75 155.563C1270.21 125.087 1185.28 83.4368 1103.97 42.8138C1022.39 3.37829 946.408 -43.9519 872.18 -66.0807C798.234 -89.862 728.321 -83.4845 674.847 -65.2777C620.985 -47.5231 582.042 -22.6852 558.746 -7.88052C511.952 21.7796 451.958 70.8298 395.073 136.696C337.495 201.359 280.017 277.326 222.879 341.228C166.16 405.894 101.697 445.532 51.7103 453.706C1.84249 462.97 -29.4676 452.561 -29.365 453.681C-29.4644 452.548 1.80722 463.114 51.7552 454.069C101.812 446.107 166.519 406.655 223.472 342.124C280.812 278.391 338.45 202.622 396.082 138.201C453.025 72.5626 512.856 23.8377 559.563 -5.77589C582.805 -20.5383 621.645 -45.3043 675.292 -62.9913C728.574 -81.1221 798.08 -87.4742 871.77 -63.7943C945.712 -41.7627 1021.68 5.53375 1103.31 45.0073C1184.64 85.6346 1269.62 127.314 1356.28 157.832C1442.75 188.697 1531.4 206.35 1614.85 204.156C1698.26 202.445 1775.54 184.284 1840.82 160.397C1971.8 112.023 2055.17 46.6808 2073.01 34.7204C2144.93 -16.0542 2218.85 -91.8188 2218.68 -91.916Z" fill="url(#paint35_linear_433_1870)"/>
<path d="M2218.67 -127.396C2218.8 -127.282 2145.03 -51.9404 2074.32 0.731857C2056.75 13.2332 1974.84 80.5495 1845.62 134.156C1781.21 160.701 1704.8 182.213 1621.86 188.464C1538.91 195.006 1450.09 182.948 1362.91 157.054C1275.59 131.451 1189.71 93.6341 1108.07 54.7438C1026.17 16.9228 950.539 -30.6398 876.869 -54.7127C803.478 -80.379 733.818 -77.5517 679.789 -62.7554C625.43 -48.4156 585.625 -26.2657 561.903 -12.7669C514.176 13.9644 452.787 60.0478 394.953 124.313C336.379 187.234 278.583 262.555 221.711 326.562C165.188 391.22 101.324 431.72 51.5558 441.035C1.90279 451.394 -29.4906 441.8 -29.3688 442.903C-29.4842 441.796 1.87715 451.537 51.6007 441.398C101.453 432.299 165.55 391.985 222.301 327.453C279.369 263.615 337.325 188.497 395.938 125.834C453.816 61.8187 515.013 16.0648 562.643 -10.62C586.305 -24.0849 626.001 -46.1672 680.145 -60.4563C733.982 -75.1807 803.269 -78.0081 876.417 -52.439C949.828 -28.4633 1025.46 19.0867 1107.45 56.9542C1189.11 95.8529 1275.06 133.716 1362.5 159.349C1449.8 185.281 1538.82 197.364 1621.95 190.809C1705.08 184.542 1781.63 162.992 1846.17 136.396C1975.62 82.6965 2057.63 15.2703 2075.24 2.75627C2146.11 -50.0427 2218.84 -127.312 2218.67 -127.396Z" fill="url(#paint36_linear_433_1870)"/>
<path d="M2218.68 -162.881C2218.8 -162.771 2146.13 -85.8187 2076.46 -31.0671C2059.12 -17.9994 1978.5 51.4681 1850.8 110.387C1787.1 139.535 1711.45 164.627 1628.83 175.281C1546.25 186.282 1457.14 179.744 1369.24 158.807C1281.21 138.128 1194.38 104.128 1112.36 66.877C1030.05 30.6366 954.747 -17.4754 881.615 -43.6108C808.733 -71.2423 739.336 -72.0326 684.824 -60.7103C630.029 -49.8615 589.435 -30.3825 565.293 -18.2277C516.707 5.59167 453.93 48.704 395.125 111.418C335.531 172.657 277.392 247.504 220.741 311.702C164.375 376.453 101.073 417.9 51.474 428.36C2.00044 439.826 -29.4955 431.048 -29.3609 432.134C-29.4923 431.039 1.97479 439.982 51.5188 428.715C101.198 418.47 164.744 377.209 221.331 312.585C278.181 248.565 336.46 173.942 396.077 112.965C454.927 50.5171 517.473 7.73865 565.956 -16.0384C590.034 -28.1679 630.506 -47.5834 685.099 -58.3901C739.423 -69.6616 808.477 -68.884 881.125 -41.354C954.016 -15.3158 1029.35 32.7963 1111.77 69.0832C1193.82 106.359 1280.76 140.402 1368.92 161.119C1456.95 182.081 1546.25 188.632 1629.01 177.61C1711.8 166.934 1787.6 141.788 1851.41 112.601C1979.33 53.5769 2060.06 -15.9963 2077.41 -29.0766C2147.24 -83.955 2218.83 -162.796 2218.68 -162.881Z" fill="url(#paint37_linear_433_1870)"/>
<path d="M2218.68 -198.363C2218.79 -198.262 2147.2 -119.615 2078.51 -62.7248C2061.41 -49.0823 1982.04 22.5997 1855.84 86.8434C1792.87 118.591 1717.99 147.267 1635.75 162.304C1553.57 177.671 1464.29 176.817 1375.73 160.808C1287.07 145.056 1199.27 114.881 1116.82 79.1854C1033.91 44.9186 959.08 -4.64296 886.407 -32.7435C814.013 -62.3318 744.885 -66.7906 689.971 -59.0945C634.811 -51.7703 593.49 -34.9919 568.943 -24.1853C519.557 -3.27367 455.414 36.8634 395.589 98.0685C334.96 157.714 276.42 232.164 219.946 296.645C163.695 361.59 100.896 404.056 51.4349 415.666C2.11205 428.26 -29.5154 420.285 -29.3647 421.367C-29.509 420.285 2.0864 428.416 51.4894 416.02C101.033 404.626 164.07 362.347 220.539 297.532C277.203 233.217 335.883 159.007 396.512 99.6407C456.366 38.7061 520.259 -1.09296 569.527 -21.9708C593.996 -32.7436 635.189 -49.4628 690.151 -56.7616C744.882 -64.4154 813.692 -59.9905 885.872 -30.4952C958.333 -2.49185 1033.21 47.0868 1116.24 81.4169C1198.76 117.142 1286.67 147.36 1375.49 163.141C1464.19 179.171 1553.64 180.02 1636 164.624C1718.41 149.557 1793.41 120.831 1856.5 89.0284C1982.9 24.6832 2062.38 -47.0961 2079.5 -60.7554C2148.33 -117.777 2218.82 -198.287 2218.68 -198.363Z" fill="url(#paint38_linear_433_1870)"/>
<path d="M2218.67 -233.844C2218.79 -233.747 2148.22 -153.32 2080.52 -94.2495C2063.64 -80.0196 1985.47 -6.05534 1860.79 63.5262C1798.52 97.8817 1724.43 130.111 1642.62 149.531C1560.9 169.196 1471.58 174.09 1382.44 163.005C1293.2 152.194 1204.41 125.864 1121.46 91.6648C1038.02 58.8942 963.394 8.37323 891.247 -22.0518C819.343 -53.8631 750.491 -61.9311 695.267 -57.9077C639.818 -54.0575 597.833 -39.9966 572.899 -30.6143C522.771 -12.5892 457.276 24.5641 396.374 84.2773C334.664 142.338 275.686 216.535 219.339 281.379C163.166 346.624 100.824 390.176 51.4535 402.952C2.24928 416.709 -29.532 409.536 -29.3685 410.602C-29.5256 409.536 2.21722 416.861 51.5112 403.315C100.966 390.746 163.544 347.372 219.932 282.27C276.468 217.596 335.574 143.657 397.275 85.8748C458.183 26.449 523.409 -10.3619 573.405 -28.3575C598.262 -37.706 640.109 -51.7162 695.356 -55.5578C750.398 -59.5559 818.971 -51.5344 890.667 -19.8161C962.625 10.5159 1037.3 61.0666 1120.91 93.9175C1203.96 128.155 1292.87 154.514 1382.25 165.35C1471.56 176.457 1561.06 171.563 1642.94 151.851C1724.92 132.398 1799.13 100.109 1861.5 65.6943C1986.37 -3.99292 2064.65 -78.0586 2081.55 -92.3138C2149.38 -151.516 2218.81 -233.776 2218.67 -233.844Z" fill="url(#paint39_linear_433_1870)"/>
<path d="M2218.68 -269.328C2218.79 -269.231 2149.21 -186.958 2082.48 -125.626C2065.8 -110.825 1988.83 -34.448 1865.66 40.4545C1804.1 77.4345 1730.82 113.21 1649.49 136.974C1568.26 160.954 1479.02 171.537 1389.34 165.354C1299.63 159.509 1209.84 137.029 1126.33 104.271C1042.23 73.0475 967.823 21.2207 896.163 -11.5584C824.749 -45.6984 756.199 -57.5025 700.743 -57.0756C645.086 -56.7037 602.498 -45.3688 577.196 -37.4149C526.379 -22.2763 459.556 11.889 397.504 70.0807C334.65 126.573 275.184 200.626 218.914 265.906C162.773 331.531 100.845 376.25 51.5352 390.209C2.40789 405.137 -29.5401 398.767 -29.3606 399.82C-29.5369 398.759 2.38224 405.293 51.6025 390.564C100.996 376.812 163.154 332.275 219.511 266.789C275.966 201.692 335.56 127.909 398.382 71.7079C460.422 13.812 526.956 -20.0194 577.629 -35.1284C602.838 -43.0569 645.282 -54.3538 700.75 -54.7299C756.026 -55.1483 824.32 -43.3908 895.547 -9.35229C967.018 23.3338 1041.52 75.2199 1125.79 106.524C1209.43 139.333 1299.36 161.846 1389.24 167.704C1479.09 173.899 1568.5 163.296 1649.88 139.269C1731.38 115.454 1804.77 79.6279 1866.42 42.5887C1989.79 -32.4279 2066.86 -108.903 2083.55 -123.724C2150.41 -185.174 2218.81 -269.256 2218.68 -269.328Z" fill="url(#paint40_linear_433_1870)"/>
<path d="M2218.68 -304.807C2218.79 -304.705 2150.17 -220.513 2084.4 -156.849C2067.92 -141.494 1992.15 -62.5728 1870.45 17.621C1749.83 98.0303 1577.77 172.062 1396.49 167.823C1306.35 166.948 1215.58 148.365 1131.41 117.006C1046.58 87.342 972.34 33.981 901.189 -1.26199C830.183 -37.5827 762.053 -53.3848 706.418 -56.4658C650.616 -59.589 607.487 -51.0308 581.844 -44.5055C530.393 -32.2492 462.24 -1.13519 398.975 55.5182C334.925 110.443 274.905 184.458 218.658 250.236C162.504 316.335 100.958 362.296 51.6732 377.451C2.58754 393.575 -29.556 388.013 -29.3604 389.048C-29.5528 388.009 2.56831 393.735 51.7437 377.806C101.118 362.858 162.898 317.07 219.264 251.128C275.697 185.523 335.829 111.791 399.831 57.1749C463.064 0.83847 530.915 -29.9586 582.197 -42.1894C607.75 -48.6937 650.722 -57.2223 706.331 -54.1033C761.783 -51.0308 829.696 -35.2921 900.519 0.931396C971.506 36.0941 1045.86 89.527 1130.9 119.284C1215.2 150.69 1306.16 169.311 1396.47 170.186C1578.1 174.433 1750.49 100.253 1871.28 19.7342C1993.15 -60.5737 2069.01 -139.601 2085.51 -154.976C2151.4 -218.751 2218.81 -304.731 2218.68 -304.807Z" fill="url(#paint41_linear_433_1870)"/>
<path d="M2218.68 -340.295C2218.8 -340.181 2151.11 -253.96 2086.32 -187.882C2070.03 -171.97 1995.48 -90.31 1875.26 -4.82065C1756.09 80.656 1585.9 164.138 1403.88 170.503C1313.4 174.547 1221.61 159.869 1136.73 129.88C1051.06 101.842 976.995 46.5794 906.347 8.7457C835.739 -29.8657 768.102 -49.8476 712.345 -56.2715C656.463 -62.8138 612.866 -56.952 586.906 -51.8466C534.884 -42.4093 465.385 -14.4736 400.838 40.6203C335.512 93.9307 274.87 168.005 218.588 234.362C162.376 301.01 101.16 348.286 51.8625 364.658C2.78965 382.016 -29.5719 377.248 -29.3603 378.28C-29.5687 377.248 2.77361 382.176 51.9362 365.013C101.326 348.852 162.776 301.737 219.193 235.245C275.659 169.083 336.407 95.3 401.665 42.3151C466.164 -12.4534 535.339 -40.0806 587.179 -49.4968C613.045 -54.581 656.479 -60.4217 712.172 -53.8963C767.752 -47.4977 835.187 -27.5835 905.639 10.9349C976.126 48.6757 1050.33 104.049 1136.24 132.174C1221.29 162.223 1313.28 176.944 1403.95 172.886C1586.33 166.5 1756.81 82.8621 1876.14 -2.72867C1996.53 -88.3406 2071.14 -170.094 2087.46 -186.023C2152.37 -252.236 2218.82 -340.206 2218.68 -340.295Z" fill="url(#paint42_linear_433_1870)"/>
<path d="M2218.68 -375.775C2218.82 -375.632 2152.06 -287.285 2088.15 -218.866C2072.1 -202.265 1998.61 -118.133 1879.91 -27.3138C1762.11 63.0442 1594.1 156.576 1411.44 173.067C1320.7 181.972 1227.87 171.402 1142.19 142.858C1055.57 116.617 981.733 58.9489 911.589 18.516C841.387 -22.5381 774.276 -46.552 718.458 -56.2893C662.574 -66.2042 618.563 -63.026 592.308 -59.3322C539.757 -52.7393 468.965 -27.9689 403.044 25.4555C336.368 77.0965 275.04 151.31 218.668 218.297C162.353 285.567 101.439 334.224 52.0966 351.831C3.01099 370.447 -29.5877 366.483 -29.3601 367.506C-29.5781 366.483 2.99817 370.604 52.1768 352.194C101.615 334.794 162.764 286.302 219.28 219.184C275.829 152.392 337.259 78.4827 403.848 27.1798C469.687 -25.9066 540.154 -50.3851 592.507 -56.9528C618.656 -60.6339 662.493 -63.7994 718.205 -53.9184C773.837 -44.219 840.766 -20.2729 910.829 20.6925C980.816 61.0197 1054.82 118.831 1141.73 145.169C1227.6 173.781 1320.63 184.377 1411.58 175.459C1594.62 158.922 1762.88 65.2206 1880.83 -25.2473C1999.7 -116.197 2073.27 -200.414 2089.33 -217.04C2153.36 -285.574 2218.84 -375.657 2218.68 -375.775Z" fill="url(#paint43_linear_433_1870)"/>
</g>
</g>
</g>
<defs>
<linearGradient id="paint0_linear_433_1870" x1="1995.78" y1="55.2613" x2="-25.4908" y2="98.207" gradientUnits="userSpaceOnUse">
<stop stop-color="#600F25"/>
<stop offset="0.3333" stop-color="#DC1F26"/>
<stop offset="0.6848" stop-color="#F78C1E"/>
<stop offset="1" stop-color="#FDBA12"/>
</linearGradient>
<linearGradient id="paint1_linear_433_1870" x1="1995.84" y1="57.0913" x2="-73.4649" y2="101.058" gradientUnits="userSpaceOnUse">
<stop stop-color="#600F25"/>
<stop offset="0.3333" stop-color="#DC1F26"/>
<stop offset="0.6848" stop-color="#F78C1E"/>
<stop offset="1" stop-color="#FDBA12"/>
</linearGradient>
<linearGradient id="paint2_linear_433_1870" x1="1995.89" y1="58.9189" x2="-121.184" y2="103.9" gradientUnits="userSpaceOnUse">
<stop stop-color="#600F25"/>
<stop offset="0.3333" stop-color="#DC1F26"/>
<stop offset="0.6848" stop-color="#F78C1E"/>
<stop offset="1" stop-color="#FDBA12"/>
</linearGradient>
<linearGradient id="paint3_linear_433_1870" x1="1995.95" y1="60.8391" x2="-169.008" y2="106.838" gradientUnits="userSpaceOnUse">
<stop stop-color="#600F25"/>
<stop offset="0.3333" stop-color="#DC1F26"/>
<stop offset="0.6848" stop-color="#F78C1E"/>
<stop offset="1" stop-color="#FDBA12"/>
</linearGradient>
<linearGradient id="paint4_linear_433_1870" x1="1996.01" y1="62.582" x2="-216.918" y2="109.6" gradientUnits="userSpaceOnUse">
<stop stop-color="#600F25"/>
<stop offset="0.3333" stop-color="#DC1F26"/>
<stop offset="0.6848" stop-color="#F78C1E"/>
<stop offset="1" stop-color="#FDBA12"/>
</linearGradient>
<linearGradient id="paint5_linear_433_1870" x1="1996.06" y1="64.4818" x2="-264.749" y2="112.517" gradientUnits="userSpaceOnUse">
<stop stop-color="#600F25"/>
<stop offset="0.3333" stop-color="#DC1F26"/>
<stop offset="0.6848" stop-color="#F78C1E"/>
<stop offset="1" stop-color="#FDBA12"/>
</linearGradient>
<linearGradient id="paint6_linear_433_1870" x1="1996.12" y1="66.2393" x2="-312.628" y2="115.293" gradientUnits="userSpaceOnUse">
<stop stop-color="#600F25"/>
<stop offset="0.3333" stop-color="#DC1F26"/>
<stop offset="0.6848" stop-color="#F78C1E"/>
<stop offset="1" stop-color="#FDBA12"/>
</linearGradient>
<linearGradient id="paint7_linear_433_1870" x1="1996.17" y1="68.0813" x2="-360.539" y2="118.154" gradientUnits="userSpaceOnUse">
<stop stop-color="#600F25"/>
<stop offset="0.3333" stop-color="#DC1F26"/>
<stop offset="0.6848" stop-color="#F78C1E"/>
<stop offset="1" stop-color="#FDBA12"/>
</linearGradient>
<linearGradient id="paint8_linear_433_1870" x1="1996.23" y1="69.8971" x2="-408.354" y2="120.987" gradientUnits="userSpaceOnUse">
<stop stop-color="#600F25"/>
<stop offset="0.3333" stop-color="#DC1F26"/>
<stop offset="0.6848" stop-color="#F78C1E"/>
<stop offset="1" stop-color="#FDBA12"/>
</linearGradient>
<linearGradient id="paint9_linear_433_1870" x1="1996.29" y1="71.7256" x2="-456.221" y2="123.834" gradientUnits="userSpaceOnUse">
<stop stop-color="#600F25"/>
<stop offset="0.3333" stop-color="#DC1F26"/>
<stop offset="0.6848" stop-color="#F78C1E"/>
<stop offset="1" stop-color="#FDBA12"/>
</linearGradient>
<linearGradient id="paint10_linear_433_1870" x1="1996.34" y1="73.5588" x2="-504.082" y2="126.685" gradientUnits="userSpaceOnUse">
<stop stop-color="#600F25"/>
<stop offset="0.3333" stop-color="#DC1F26"/>
<stop offset="0.6848" stop-color="#F78C1E"/>
<stop offset="1" stop-color="#FDBA12"/>
</linearGradient>
<linearGradient id="paint11_linear_433_1870" x1="1996.39" y1="75.3781" x2="-552.048" y2="129.525" gradientUnits="userSpaceOnUse">
<stop stop-color="#600F25"/>
<stop offset="0.3333" stop-color="#DC1F26"/>
<stop offset="0.6848" stop-color="#F78C1E"/>
<stop offset="1" stop-color="#FDBA12"/>
</linearGradient>
<linearGradient id="paint12_linear_433_1870" x1="1996.45" y1="77.2951" x2="-599.778" y2="132.457" gradientUnits="userSpaceOnUse">
<stop stop-color="#600F25"/>
<stop offset="0.3333" stop-color="#DC1F26"/>
<stop offset="0.6848" stop-color="#F78C1E"/>
<stop offset="1" stop-color="#FDBA12"/>
</linearGradient>
<linearGradient id="paint13_linear_433_1870" x1="1996.51" y1="79.0727" x2="-647.803" y2="135.256" gradientUnits="userSpaceOnUse">
<stop stop-color="#600F25"/>
<stop offset="0.3333" stop-color="#DC1F26"/>
<stop offset="0.6848" stop-color="#F78C1E"/>
<stop offset="1" stop-color="#FDBA12"/>
</linearGradient>
<linearGradient id="paint14_linear_433_1870" x1="1996.57" y1="80.9777" x2="-695.48" y2="138.175" gradientUnits="userSpaceOnUse">
<stop stop-color="#600F25"/>
<stop offset="0.3333" stop-color="#DC1F26"/>
<stop offset="0.6848" stop-color="#F78C1E"/>
<stop offset="1" stop-color="#FDBA12"/>
</linearGradient>
<linearGradient id="paint15_linear_433_1870" x1="1996.62" y1="82.7213" x2="-743.371" y2="140.938" gradientUnits="userSpaceOnUse">
<stop stop-color="#600F25"/>
<stop offset="0.3333" stop-color="#DC1F26"/>
<stop offset="0.6848" stop-color="#F78C1E"/>
<stop offset="1" stop-color="#FDBA12"/>
</linearGradient>
<linearGradient id="paint16_linear_433_1870" x1="1996.68" y1="84.5795" x2="-791.211" y2="143.813" gradientUnits="userSpaceOnUse">
<stop stop-color="#600F25"/>
<stop offset="0.3333" stop-color="#DC1F26"/>
<stop offset="0.6848" stop-color="#F78C1E"/>
<stop offset="1" stop-color="#FDBA12"/>
</linearGradient>
<linearGradient id="paint17_linear_433_1870" x1="1996.73" y1="86.4353" x2="-839.073" y2="146.687" gradientUnits="userSpaceOnUse">
<stop stop-color="#600F25"/>
<stop offset="0.3333" stop-color="#DC1F26"/>
<stop offset="0.6848" stop-color="#F78C1E"/>
<stop offset="1" stop-color="#FDBA12"/>
</linearGradient>
<linearGradient id="paint18_linear_433_1870" x1="1996.79" y1="88.2955" x2="-886.912" y2="149.565" gradientUnits="userSpaceOnUse">
<stop stop-color="#600F25"/>
<stop offset="0.3333" stop-color="#DC1F26"/>
<stop offset="0.6848" stop-color="#F78C1E"/>
<stop offset="1" stop-color="#FDBA12"/>
</linearGradient>
<linearGradient id="paint19_linear_433_1870" x1="1996.84" y1="90.1515" x2="-934.773" y2="152.439" gradientUnits="userSpaceOnUse">
<stop stop-color="#600F25"/>
<stop offset="0.3333" stop-color="#DC1F26"/>
<stop offset="0.6848" stop-color="#F78C1E"/>
<stop offset="1" stop-color="#FDBA12"/>
</linearGradient>
<linearGradient id="paint20_linear_433_1870" x1="1996.9" y1="92.0038" x2="-982.619" y2="155.309" gradientUnits="userSpaceOnUse">
<stop stop-color="#600F25"/>
<stop offset="0.3333" stop-color="#DC1F26"/>
<stop offset="0.6848" stop-color="#F78C1E"/>
<stop offset="1" stop-color="#FDBA12"/>
</linearGradient>
<linearGradient id="paint21_linear_433_1870" x1="1996.96" y1="93.8579" x2="-1030.46" y2="158.181" gradientUnits="userSpaceOnUse">
<stop stop-color="#600F25"/>
<stop offset="0.3333" stop-color="#DC1F26"/>
<stop offset="0.6848" stop-color="#F78C1E"/>
<stop offset="1" stop-color="#FDBA12"/>
</linearGradient>
<linearGradient id="paint22_linear_433_1870" x1="-29.3717" y1="194.846" x2="2218.67" y2="194.846" gradientUnits="userSpaceOnUse">
<stop stop-color="#600F25"/>
<stop offset="0.3333" stop-color="#DC1F26"/>
<stop offset="0.6848" stop-color="#F78C1E"/>
<stop offset="1" stop-color="#FDBA12"/>
</linearGradient>
<linearGradient id="paint23_linear_433_1870" x1="-29.3705" y1="194.793" x2="2218.68" y2="194.793" gradientUnits="userSpaceOnUse">
<stop stop-color="#600F25"/>
<stop offset="0.3333" stop-color="#DC1F26"/>
<stop offset="0.6848" stop-color="#F78C1E"/>
<stop offset="1" stop-color="#FDBA12"/>
</linearGradient>
<linearGradient id="paint24_linear_433_1870" x1="-29.3712" y1="194.783" x2="2218.67" y2="194.783" gradientUnits="userSpaceOnUse">
<stop stop-color="#600F25"/>
<stop offset="0.3333" stop-color="#DC1F26"/>
<stop offset="0.6848" stop-color="#F78C1E"/>
<stop offset="1" stop-color="#FDBA12"/>
</linearGradient>
<linearGradient id="paint25_linear_433_1870" x1="-29.3712" y1="194.726" x2="2218.67" y2="194.726" gradientUnits="userSpaceOnUse">
<stop stop-color="#600F25"/>
<stop offset="0.3333" stop-color="#DC1F26"/>
<stop offset="0.6848" stop-color="#F78C1E"/>
<stop offset="1" stop-color="#FDBA12"/>
</linearGradient>
<linearGradient id="paint26_linear_433_1870" x1="-29.3698" y1="194.721" x2="2218.67" y2="194.721" gradientUnits="userSpaceOnUse">
<stop stop-color="#600F25"/>
<stop offset="0.3333" stop-color="#DC1F26"/>
<stop offset="0.6848" stop-color="#F78C1E"/>
<stop offset="1" stop-color="#FDBA12"/>
</linearGradient>
<linearGradient id="paint27_linear_433_1870" x1="-29.3691" y1="194.437" x2="2218.67" y2="194.437" gradientUnits="userSpaceOnUse">
<stop stop-color="#600F25"/>
<stop offset="0.3333" stop-color="#DC1F26"/>
<stop offset="0.6848" stop-color="#F78C1E"/>
<stop offset="1" stop-color="#FDBA12"/>
</linearGradient>
<linearGradient id="paint28_linear_433_1870" x1="-29.3691" y1="194.178" x2="2218.68" y2="194.178" gradientUnits="userSpaceOnUse">
<stop stop-color="#600F25"/>
<stop offset="0.3333" stop-color="#DC1F26"/>
<stop offset="0.6848" stop-color="#F78C1E"/>
<stop offset="1" stop-color="#FDBA12"/>
</linearGradient>
<linearGradient id="paint29_linear_433_1870" x1="-29.3685" y1="193.898" x2="2218.67" y2="193.898" gradientUnits="userSpaceOnUse">
<stop stop-color="#600F25"/>
<stop offset="0.3333" stop-color="#DC1F26"/>
<stop offset="0.6848" stop-color="#F78C1E"/>
<stop offset="1" stop-color="#FDBA12"/>
</linearGradient>
<linearGradient id="paint30_linear_433_1870" x1="-29.3684" y1="193.427" x2="2218.68" y2="193.427" gradientUnits="userSpaceOnUse">
<stop stop-color="#600F25"/>
<stop offset="0.3333" stop-color="#DC1F26"/>
<stop offset="0.6848" stop-color="#F78C1E"/>
<stop offset="1" stop-color="#FDBA12"/>
</linearGradient>
<linearGradient id="paint31_linear_433_1870" x1="-29.3671" y1="192.809" x2="2218.67" y2="192.809" gradientUnits="userSpaceOnUse">
<stop stop-color="#600F25"/>
<stop offset="0.3333" stop-color="#DC1F26"/>
<stop offset="0.6848" stop-color="#F78C1E"/>
<stop offset="1" stop-color="#FDBA12"/>
</linearGradient>
<linearGradient id="paint32_linear_433_1870" x1="-29.3671" y1="192.026" x2="2218.67" y2="192.026" gradientUnits="userSpaceOnUse">
<stop stop-color="#600F25"/>
<stop offset="0.3333" stop-color="#DC1F26"/>
<stop offset="0.6848" stop-color="#F78C1E"/>
<stop offset="1" stop-color="#FDBA12"/>
</linearGradient>
<linearGradient id="paint33_linear_433_1870" x1="-29.367" y1="191.015" x2="2218.67" y2="191.015" gradientUnits="userSpaceOnUse">
<stop stop-color="#600F25"/>
<stop offset="0.3333" stop-color="#DC1F26"/>
<stop offset="0.6848" stop-color="#F78C1E"/>
<stop offset="1" stop-color="#FDBA12"/>
</linearGradient>
<linearGradient id="paint34_linear_433_1870" x1="-29.3673" y1="189.738" x2="2218.67" y2="189.738" gradientUnits="userSpaceOnUse">
<stop stop-color="#600F25"/>
<stop offset="0.3333" stop-color="#DC1F26"/>
<stop offset="0.6848" stop-color="#F78C1E"/>
<stop offset="1" stop-color="#FDBA12"/>
</linearGradient>
<linearGradient id="paint35_linear_433_1870" x1="-29.3672" y1="182.923" x2="2218.67" y2="182.923" gradientUnits="userSpaceOnUse">
<stop stop-color="#600F25"/>
<stop offset="0.3333" stop-color="#DC1F26"/>
<stop offset="0.6848" stop-color="#F78C1E"/>
<stop offset="1" stop-color="#FDBA12"/>
</linearGradient>
<linearGradient id="paint36_linear_433_1870" x1="-29.3678" y1="159.332" x2="2218.67" y2="159.332" gradientUnits="userSpaceOnUse">
<stop stop-color="#600F25"/>
<stop offset="0.3333" stop-color="#DC1F26"/>
<stop offset="0.6848" stop-color="#F78C1E"/>
<stop offset="1" stop-color="#FDBA12"/>
</linearGradient>
<linearGradient id="paint37_linear_433_1870" x1="-29.3663" y1="135.796" x2="2218.68" y2="135.796" gradientUnits="userSpaceOnUse">
<stop stop-color="#600F25"/>
<stop offset="0.3333" stop-color="#DC1F26"/>
<stop offset="0.6848" stop-color="#F78C1E"/>
<stop offset="1" stop-color="#FDBA12"/>
</linearGradient>
<linearGradient id="paint38_linear_433_1870" x1="-29.3673" y1="112.314" x2="2218.67" y2="112.314" gradientUnits="userSpaceOnUse">
<stop stop-color="#600F25"/>
<stop offset="0.3333" stop-color="#DC1F26"/>
<stop offset="0.6848" stop-color="#F78C1E"/>
<stop offset="1" stop-color="#FDBA12"/>
</linearGradient>
<linearGradient id="paint39_linear_433_1870" x1="-29.3679" y1="88.8924" x2="2218.67" y2="88.8924" gradientUnits="userSpaceOnUse">
<stop stop-color="#600F25"/>
<stop offset="0.3333" stop-color="#DC1F26"/>
<stop offset="0.6848" stop-color="#F78C1E"/>
<stop offset="1" stop-color="#FDBA12"/>
</linearGradient>
<linearGradient id="paint40_linear_433_1870" x1="-29.3606" y1="65.5222" x2="2218.68" y2="65.5222" gradientUnits="userSpaceOnUse">
<stop stop-color="#600F25"/>
<stop offset="0.3333" stop-color="#DC1F26"/>
<stop offset="0.6848" stop-color="#F78C1E"/>
<stop offset="1" stop-color="#FDBA12"/>
</linearGradient>
<linearGradient id="paint41_linear_433_1870" x1="-29.3608" y1="42.2139" x2="2218.68" y2="42.2139" gradientUnits="userSpaceOnUse">
<stop stop-color="#600F25"/>
<stop offset="0.3333" stop-color="#DC1F26"/>
<stop offset="0.6848" stop-color="#F78C1E"/>
<stop offset="1" stop-color="#FDBA12"/>
</linearGradient>
<linearGradient id="paint42_linear_433_1870" x1="-29.3606" y1="18.9894" x2="2218.68" y2="18.9894" gradientUnits="userSpaceOnUse">
<stop stop-color="#600F25"/>
<stop offset="0.3333" stop-color="#DC1F26"/>
<stop offset="0.6848" stop-color="#F78C1E"/>
<stop offset="1" stop-color="#FDBA12"/>
</linearGradient>
<linearGradient id="paint43_linear_433_1870" x1="-29.3608" y1="-4.13656" x2="2218.68" y2="-4.13656" gradientUnits="userSpaceOnUse">
<stop stop-color="#600F25"/>
<stop offset="0.3333" stop-color="#DC1F26"/>
<stop offset="0.6848" stop-color="#F78C1E"/>
<stop offset="1" stop-color="#FDBA12"/>
</linearGradient>
</defs>
</svg>
