<svg width="38" height="38" viewBox="0 0 38 38" fill="none" xmlns="http://www.w3.org/2000/svg">
<path d="M19.0003 0.988281C9.05514 0.988281 0.988281 9.05514 0.988281 19.0003C0.988281 28.9454 9.05514 37.0123 19.0003 37.0123C28.9454 37.0123 37.0123 28.9454 37.0123 19.0003C37.0123 9.05514 28.9454 0.988281 19.0003 0.988281ZM19.3694 29.0214C17.5997 29.0214 15.8517 28.5763 14.2883 27.7294L8.46885 29.2929L10.0214 23.4951C9.142 21.91 8.67514 20.1294 8.67514 18.3271C8.67514 12.4317 13.474 7.63285 19.3694 7.63285C25.2649 7.63285 30.0637 12.4317 30.0637 18.3271C30.0637 24.2226 25.2649 29.0214 19.3694 29.0214ZM19.3694 9.65228C14.5923 9.65228 10.6946 13.5391 10.6946 18.3271C10.6946 19.9014 11.1289 21.4649 11.9649 22.822L12.1929 23.1911L11.3243 26.4266L14.5814 25.558L14.9506 25.7751C16.2969 26.5786 17.8277 27.002 19.3803 27.002C24.1683 27.002 28.0551 23.1151 28.0551 18.3271C28.0551 13.5391 24.1683 9.65228 19.3803 9.65228H19.3694ZM24.4723 21.606C24.1466 22.3877 23.3431 22.898 22.5397 23.05C21.758 23.202 21.1174 22.9523 20.4009 22.7134C19.7603 22.4963 19.1414 22.1923 18.566 21.8449C17.4151 21.1391 16.4163 20.1946 15.6237 19.1089C15.3849 18.7723 15.1569 18.4357 14.9397 18.0774C14.6683 17.6106 14.4186 17.1111 14.2883 16.5791C14.234 16.362 14.2123 16.134 14.2014 15.906C14.2014 15.1026 14.4946 14.2883 15.1351 13.7671C15.5043 13.4631 16.0471 13.3329 16.4597 13.5717C16.9049 13.8214 17.1437 14.462 17.35 14.918C17.5129 15.2654 17.6974 15.7323 17.6323 16.1231C17.5671 16.514 17.2523 16.8506 17.0026 17.1437C16.8397 17.3391 16.8071 17.5129 16.9483 17.7191C17.7734 19.098 18.9134 20.086 20.4117 20.6831C20.618 20.77 20.77 20.7374 20.9003 20.5746C21.1609 20.2597 21.4106 19.63 21.8123 19.4671C22.3334 19.25 22.9089 19.554 23.3431 19.8146C23.7557 20.0643 24.4397 20.3574 24.5483 20.8677C24.6026 21.1174 24.5483 21.3671 24.4614 21.606H24.4723Z" fill="url(#paint0_linear_239_8248)"/>
<defs>
<linearGradient id="paint0_linear_239_8248" x1="31.7357" y1="31.7357" x2="6.26485" y2="6.26485" gradientUnits="userSpaceOnUse">
<stop stop-color="#00FB73"/>
<stop offset="1" stop-color="#00B25B"/>
</linearGradient>
</defs>
</svg>
