<svg width="38" height="38" viewBox="0 0 38 38" fill="none" xmlns="http://www.w3.org/2000/svg">
<g clip-path="url(#clip0_239_8252)">
<path d="M19.0003 0.988281C9.05514 0.988281 0.988281 9.05514 0.988281 19.0003C0.988281 28.9454 9.05514 37.0123 19.0003 37.0123C28.9454 37.0123 37.0123 28.9454 37.0123 19.0003C37.0123 9.05514 28.9454 0.988281 19.0003 0.988281ZM29.9226 23.354C29.9226 26.9694 26.9803 29.9117 23.3649 29.9117H14.6466C11.0311 29.9117 8.08885 26.9694 8.08885 23.354V14.6357C8.08885 11.0203 11.0311 8.078 14.6466 8.078H23.3649C26.9803 8.078 29.9226 11.0203 29.9226 14.6357V23.354ZM22.5397 19.0003C22.5397 20.9003 20.998 22.442 19.098 22.442C17.198 22.442 15.6563 20.9003 15.6563 19.0003C15.6563 17.1003 17.198 15.5586 19.098 15.5586C20.998 15.5586 22.5397 17.1003 22.5397 19.0003ZM23.3649 10.1409H14.6466C12.1603 10.1409 10.1409 12.1603 10.1409 14.6466V23.3649C10.1409 25.8511 12.1603 27.8706 14.6466 27.8706H23.3649C25.8511 27.8706 27.8706 25.8511 27.8706 23.3649V14.6466C27.8706 12.1603 25.8511 10.1409 23.3649 10.1409ZM19.0871 24.3746C16.1231 24.3746 13.7129 21.9643 13.7129 19.0003C13.7129 16.0363 16.1231 13.626 19.0871 13.626C22.0511 13.626 24.4614 16.0363 24.4614 19.0003C24.4614 21.9643 22.0511 24.3746 19.0871 24.3746ZM24.7871 14.538C24.0814 14.538 23.506 13.9626 23.506 13.2569C23.506 12.5511 24.0814 11.9757 24.7871 11.9757C25.4929 11.9757 26.0683 12.5511 26.0683 13.2569C26.0683 13.9626 25.4929 14.538 24.7871 14.538Z" fill="url(#paint0_linear_239_8252)"/>
</g>
<defs>
<linearGradient id="paint0_linear_239_8252" x1="6.26485" y1="6.26485" x2="31.7357" y2="31.7357" gradientUnits="userSpaceOnUse">
<stop stop-color="#FFE185"/>
<stop offset="0.21" stop-color="#FFBB36"/>
<stop offset="0.38" stop-color="#FF5176"/>
<stop offset="0.52" stop-color="#F63395"/>
<stop offset="0.74" stop-color="#A436D2"/>
<stop offset="1" stop-color="#5F4EED"/>
</linearGradient>
<clipPath id="clip0_239_8252">
<rect width="38" height="38" fill="white"/>
</clipPath>
</defs>
</svg>
