<svg width="38" height="39" viewBox="0 0 38 39" fill="none" xmlns="http://www.w3.org/2000/svg">
<path d="M23.3431 19.9563L17.4151 22.8877C17.1871 23.018 16.3946 22.8443 16.3946 22.5837V16.5689C16.3946 16.2974 17.1871 16.1346 17.426 16.2649L23.0934 19.3483C23.3323 19.4786 23.582 19.826 23.3431 19.9563ZM37.0123 19.5003C37.0123 29.4454 28.9454 37.5123 19.0003 37.5123C9.05514 37.5123 0.988281 29.4454 0.988281 19.5003C0.988281 9.55514 9.05514 1.48828 19.0003 1.48828C28.9454 1.48828 37.0123 9.55514 37.0123 19.5003ZM31.1169 16.4277C31.1169 13.5723 28.8043 11.2597 25.9489 11.2597H12.7357C9.88028 11.2597 7.56771 13.5723 7.56771 16.4277V22.5729C7.56771 25.4283 9.88028 27.7409 12.7357 27.7409H25.9489C28.8043 27.7409 31.1169 25.4283 31.1169 22.5729V16.4277Z" fill="url(#paint0_linear_239_8255)"/>
<defs>
<linearGradient id="paint0_linear_239_8255" x1="31.7357" y1="32.2357" x2="6.26485" y2="6.76485" gradientUnits="userSpaceOnUse">
<stop stop-color="#FF0000"/>
<stop offset="1" stop-color="#9B0000"/>
</linearGradient>
</defs>
</svg>
