<svg width="38" height="39" viewBox="0 0 38 39" fill="none" xmlns="http://www.w3.org/2000/svg">
<path d="M19.0003 1.48828C9.05514 1.48828 0.988281 9.55514 0.988281 19.5003C0.988281 29.4454 9.05514 37.5123 19.0003 37.5123C28.9454 37.5123 37.0123 29.4454 37.0123 19.5003C37.0123 9.55514 28.9454 1.48828 19.0003 1.48828ZM26.09 10.5866H23.9837C21.91 10.5866 21.2586 11.8786 21.2586 13.2031V16.3409H25.8946L25.1563 21.1723H21.2586V32.8654H16.0254V21.1723H11.7803V16.3409H16.0254V12.6603C16.0254 8.46943 18.5226 6.15685 22.3443 6.15685C24.1791 6.15685 26.09 6.48257 26.09 6.48257V10.5974V10.5866Z" fill="url(#paint0_linear_239_8260)"/>
<defs>
<linearGradient id="paint0_linear_239_8260" x1="31.7357" y1="32.2357" x2="6.26485" y2="6.76485" gradientUnits="userSpaceOnUse">
<stop stop-color="#1677F1"/>
<stop offset="0.18" stop-color="#176EE9"/>
<stop offset="0.46" stop-color="#1D55D3"/>
<stop offset="0.82" stop-color="#252EB0"/>
<stop offset="1" stop-color="#2B189C"/>
</linearGradient>
</defs>
</svg>
