<svg width="38" height="39" viewBox="0 0 38 39" fill="none" xmlns="http://www.w3.org/2000/svg">
<g clip-path="url(#clip0_239_8262)">
<path d="M25.8636 36.1538C35.062 32.3662 39.4484 21.8389 35.6609 12.6404C31.8733 3.44196 21.346 -0.944439 12.1475 2.84314C2.94903 6.63073 -1.43737 17.158 2.35021 26.3565C6.1378 35.555 16.6651 39.9414 25.8636 36.1538Z" fill="url(#paint0_linear_239_8262)"/>
<path d="M9.94376 15.2757H13.8306V27.7614H9.94376V15.2757ZM11.8872 9.06543C13.1358 9.06543 14.1346 10.0751 14.1346 11.3129C14.1346 12.5506 13.1249 13.5603 11.8872 13.5603C10.6495 13.5603 9.62891 12.5506 9.62891 11.3129C9.62891 10.0751 10.6386 9.06543 11.8872 9.06543Z" fill="white"/>
<path d="M16.2637 15.2768H19.9877V16.9813H20.042C20.5631 15.9933 21.8225 14.9619 23.7225 14.9619C27.6528 14.9619 28.3802 17.5459 28.3802 20.9116V27.7625H24.5042V21.6933C24.5042 20.2493 24.4717 18.3819 22.4848 18.3819C20.498 18.3819 20.1505 19.9562 20.1505 21.5848V27.7625H16.2745V15.2768H16.2637Z" fill="white"/>
</g>
<defs>
<linearGradient id="paint0_linear_239_8262" x1="31.7377" y1="32.2293" x2="6.26682" y2="6.75848" gradientUnits="userSpaceOnUse">
<stop stop-color="#007BB8"/>
<stop offset="1" stop-color="#0044E9"/>
</linearGradient>
<clipPath id="clip0_239_8262">
<rect width="38" height="38" fill="white" transform="translate(0 0.5)"/>
</clipPath>
</defs>
</svg>
