<svg width="38" height="38" viewBox="0 0 38 38" fill="none" xmlns="http://www.w3.org/2000/svg">
<g clip-path="url(#clip0_239_8249)">
<path d="M19.0003 37.0123C28.9454 37.0123 37.0123 28.9454 37.0123 19.0003C37.0123 9.05514 28.9454 0.988281 19.0003 0.988281C9.05514 0.988281 0.988281 9.05514 0.988281 19.0003C0.988281 28.9454 9.05514 37.0123 19.0003 37.0123Z" fill="#2CB5E5"/>
<path d="M8.48971 18.8481C8.48971 18.8481 17.4903 15.1567 20.6171 13.8538C21.8114 13.3327 25.872 11.6715 25.872 11.6715C25.872 11.6715 27.7503 10.9441 27.5874 12.7138C27.5331 13.4412 27.1206 15.9927 26.708 18.7504C26.0783 22.6589 25.4051 26.9258 25.4051 26.9258C25.4051 26.9258 25.2966 28.1201 24.4171 28.3264C23.5377 28.5327 22.072 27.5989 21.8114 27.3927C21.6051 27.2407 17.9029 24.8955 16.5566 23.7447C16.1874 23.4298 15.7749 22.8109 16.6109 22.0835C18.4891 20.3681 20.7257 18.2292 22.072 16.8829C22.7017 16.2532 23.3206 14.7984 20.7149 16.5681C17.0234 19.1195 13.3754 21.5081 13.3754 21.5081C13.3754 21.5081 12.5394 22.0292 10.976 21.5624C9.41257 21.0955 7.58857 20.4658 7.58857 20.4658C7.58857 20.4658 6.33999 19.6841 8.468 18.8481H8.48971Z" fill="white"/>
</g>
<defs>
<clipPath id="clip0_239_8249">
<rect width="38" height="38" fill="white"/>
</clipPath>
</defs>
</svg>
