<svg width="35" height="35" viewBox="0 0 35 35" fill="none" xmlns="http://www.w3.org/2000/svg">
<g clip-path="url(#clip0_433_1939)">
<path d="M23.8213 32.8389C32.2936 29.3503 36.3337 19.6541 32.8451 11.1818C29.3565 2.70955 19.6604 -1.33056 11.1881 2.15801C2.7158 5.64657 -1.3243 15.3428 2.16426 23.815C5.65282 32.2873 15.349 36.3274 23.8213 32.8389Z" fill="url(#paint0_linear_433_1939)"/>
<path d="M9.15914 13.6106H12.7391V25.1106H9.15914V13.6106ZM10.9491 7.89062C12.0991 7.89062 13.0191 8.82063 13.0191 9.96063C13.0191 11.1006 12.0891 12.0306 10.9491 12.0306C9.80914 12.0306 8.86914 11.1006 8.86914 9.96063C8.86914 8.82063 9.79914 7.89062 10.9491 7.89062Z" fill="white"/>
<path d="M14.9805 13.6103H18.4105V15.1803H18.4605C18.9405 14.2703 20.1005 13.3203 21.8505 13.3203C25.4705 13.3203 26.1405 15.7003 26.1405 18.8003V25.1103H22.5705V19.5203C22.5705 18.1903 22.5405 16.4703 20.7105 16.4703C18.8805 16.4703 18.5605 17.9203 18.5605 19.4203V25.1103H14.9905V13.6103H14.9805Z" fill="white"/>
</g>
<defs>
<linearGradient id="paint0_linear_433_1939" x1="29.2317" y1="29.2242" x2="5.77166" y2="5.76423" gradientUnits="userSpaceOnUse">
<stop stop-color="#007BB8"/>
<stop offset="1" stop-color="#0044E9"/>
</linearGradient>
<clipPath id="clip0_433_1939">
<rect width="35" height="35" fill="white"/>
</clipPath>
</defs>
</svg>
