<svg width="35" height="35" viewBox="0 0 35 35" fill="none" xmlns="http://www.w3.org/2000/svg">
<g clip-path="url(#clip0_433_1937)">
<path d="M17.5002 0.910156C8.34016 0.910156 0.910156 8.34016 0.910156 17.5002C0.910156 26.6602 8.34016 34.0902 17.5002 34.0902C26.6602 34.0902 34.0902 26.6602 34.0902 17.5002C34.0902 8.34016 26.6602 0.910156 17.5002 0.910156ZM27.5602 21.5102C27.5602 24.8402 24.8502 27.5502 21.5202 27.5502H13.4902C10.1602 27.5502 7.45016 24.8402 7.45016 21.5102V13.4802C7.45016 10.1502 10.1602 7.44016 13.4902 7.44016H21.5202C24.8502 7.44016 27.5602 10.1502 27.5602 13.4802V21.5102ZM20.7602 17.5002C20.7602 19.2502 19.3402 20.6702 17.5902 20.6702C15.8402 20.6702 14.4202 19.2502 14.4202 17.5002C14.4202 15.7502 15.8402 14.3302 17.5902 14.3302C19.3402 14.3302 20.7602 15.7502 20.7602 17.5002ZM21.5202 9.34016H13.4902C11.2002 9.34016 9.34016 11.2002 9.34016 13.4902V21.5202C9.34016 23.8102 11.2002 25.6702 13.4902 25.6702H21.5202C23.8102 25.6702 25.6702 23.8102 25.6702 21.5202V13.4902C25.6702 11.2002 23.8102 9.34016 21.5202 9.34016ZM17.5802 22.4502C14.8502 22.4502 12.6302 20.2302 12.6302 17.5002C12.6302 14.7702 14.8502 12.5502 17.5802 12.5502C20.3102 12.5502 22.5302 14.7702 22.5302 17.5002C22.5302 20.2302 20.3102 22.4502 17.5802 22.4502ZM22.8302 13.3902C22.1802 13.3902 21.6502 12.8602 21.6502 12.2102C21.6502 11.5602 22.1802 11.0302 22.8302 11.0302C23.4802 11.0302 24.0102 11.5602 24.0102 12.2102C24.0102 12.8602 23.4802 13.3902 22.8302 13.3902Z" fill="url(#paint0_linear_433_1937)"/>
</g>
<defs>
<linearGradient id="paint0_linear_433_1937" x1="5.77016" y1="5.77016" x2="29.2302" y2="29.2302" gradientUnits="userSpaceOnUse">
<stop stop-color="#FFE185"/>
<stop offset="0.21" stop-color="#FFBB36"/>
<stop offset="0.38" stop-color="#FF5176"/>
<stop offset="0.52" stop-color="#F63395"/>
<stop offset="0.74" stop-color="#A436D2"/>
<stop offset="1" stop-color="#5F4EED"/>
</linearGradient>
<clipPath id="clip0_433_1937">
<rect width="35" height="35" fill="white"/>
</clipPath>
</defs>
</svg>
