<svg width="187" height="32" viewBox="0 0 187 32" fill="none" xmlns="http://www.w3.org/2000/svg">
<path d="M62.5309 5.4834H61.5401C60.5769 5.4834 60.1586 5.76617 59.5035 6.80487L54.2193 15.2555L52.0286 6.89182C51.7644 5.89669 51.4782 5.4834 50.3828 5.4834H49.5461C48.4728 5.4834 47.7682 6.1142 47.5701 7.2399L45.1151 20.8511C44.9389 21.868 45.4014 22.4118 46.2985 22.4118H46.6674C47.6141 22.4118 48.0269 21.9551 48.203 20.9381L50.1736 9.92619L52.0837 17.2947C52.2377 18.0343 52.3919 18.5291 53.8175 18.5291C55.0229 18.5291 55.3092 18.1159 55.7275 17.4252L60.4007 9.83924L58.4301 20.8511C58.254 21.8898 58.7164 22.4118 59.5916 22.4118H59.9879C60.9347 22.4118 61.3475 21.9332 61.5237 20.9381L63.9841 7.28337C64.1823 6.20121 63.6538 5.4834 62.5364 5.4834H62.5309Z" fill="black"/>
<path d="M77.2752 15.2337C77.1595 11.9329 74.8808 9.49121 71.0662 9.49121C66.7012 9.49121 64.0261 13.0042 64.1527 16.8597C64.2848 20.3726 66.7453 22.6294 70.3616 22.6294C74.8422 22.6294 77.4072 19.0947 77.2752 15.2392V15.2337ZM70.3836 20.2149C68.3195 20.2149 67.0315 18.7412 66.96 16.7455C66.8719 14.1679 68.5837 11.8731 71.0387 11.8731C72.9212 11.8731 74.4129 13.3468 74.4789 15.3642C74.567 18.0941 72.8331 20.2149 70.3782 20.2149H70.3836Z" fill="black"/>
<path d="M87.0358 9.49121C85.2138 9.49121 83.7717 10.3775 82.825 11.8785C82.913 10.1873 81.9718 9.68694 81.003 9.68694C80.5462 9.68694 80.1939 9.79572 80.1664 9.85557L78.1958 20.9327C77.9976 22.0855 78.6527 22.4064 79.4893 22.4064H79.8416C80.7609 22.4064 81.1352 22.0366 81.3333 20.9327L82.5168 14.2821C83.3754 12.8084 84.3167 12.1177 85.7643 12.1177C87.2119 12.1177 88.0927 12.9823 88.1312 14.4126C88.1532 14.7823 88.0651 15.2554 87.977 15.7992L87.0523 20.9327C86.8542 22.0855 87.5147 22.4064 88.3459 22.4064H88.6982C89.6229 22.4064 89.9916 22.0366 90.1899 20.9327L91.1971 15.2772C91.3072 14.6464 91.3952 14.0809 91.3732 13.586C91.2852 11.1824 89.6834 9.49121 87.0304 9.49121H87.0358Z" fill="black"/>
<path d="M142.843 9.49121C141.351 9.49121 140.25 10.3341 139.485 11.8785C139.595 10.1873 138.653 9.68694 137.691 9.68694C137.206 9.68694 136.881 9.79572 136.854 9.85557L134.856 20.9327C134.658 22.0855 135.428 22.4064 136.259 22.4064H136.606C137.399 22.4064 137.796 22.0366 137.994 20.9327L138.649 17.2294C139.155 14.3473 140.228 12.3299 141.984 12.3299C142.843 12.3299 143.365 12.6778 143.74 13.0694C143.784 13.1129 145.1 12.6126 145.055 11.0736C145.012 10.122 144.043 9.49121 142.837 9.49121H142.843Z" fill="black"/>
<path d="M158.093 9.68694C156.871 9.68694 156.188 10.2742 155.792 11.8132C155.005 10.3613 153.398 9.49121 151.537 9.49121C147.568 9.49121 144.805 12.9823 144.805 16.9466C144.805 20.2149 146.841 22.6239 150.045 22.6239C151.999 22.6239 153.513 21.8191 154.477 20.2149C154.344 21.8844 154.675 22.4064 155.88 22.4064C156.975 22.4064 157.328 22.0149 157.438 20.8239C157.586 18.6324 158.335 15.0597 159.216 10.0513C159.238 9.96426 158.732 9.68694 158.093 9.68694ZM150.728 20.2203C148.796 20.2203 147.678 19.0076 147.678 16.8597C147.678 14.3473 149.17 11.835 151.933 11.835C154.173 11.835 155.12 13.4609 155.12 15.2554C155.12 17.5122 153.579 20.2203 150.734 20.2203H150.728Z" fill="black"/>
<path d="M176.913 9.49121C174.744 9.49121 173.291 10.5951 172.284 12.1993C171.777 10.5081 170.308 9.49121 168.425 9.49121C166.779 9.49121 165.331 10.2689 164.341 11.7207C164.385 10.1601 163.466 9.68694 162.519 9.68694C162.056 9.68694 161.726 9.79572 161.682 9.85557L159.711 20.9327C159.513 22.0855 160.169 22.4064 161.005 22.4064H161.358C162.15 22.4064 162.657 22.0801 162.849 20.9327L164.076 14.0645C164.98 12.6941 165.811 12.1177 167.148 12.1177C168.486 12.1177 169.257 13.0694 169.257 14.5214C169.257 14.7606 169.234 15.0216 169.19 15.2826L168.204 20.9381C168.006 22.091 168.684 22.4118 169.498 22.4118H169.828C170.638 22.4118 171.144 22.0638 171.342 20.9381L172.569 14.07C173.467 12.6996 174.326 12.1232 175.642 12.1232C176.957 12.1232 177.81 12.879 177.81 14.418C177.81 14.7878 177.744 15.2609 177.656 15.8047L176.736 20.9381C176.538 22.091 177.199 22.4118 178.03 22.4118H178.383C179.307 22.4118 179.676 22.0421 179.869 20.9381L180.876 15.2826C180.986 14.6518 181.052 14.0862 181.052 13.5915C181.052 11.0791 179.346 9.49667 176.908 9.49667L176.913 9.49121Z" fill="black"/>
<path d="M105.68 15.0654C105.68 13.3524 105.333 12.205 104.541 11.2045C103.688 10.1223 102.107 9.46973 100.264 9.46973C94.6933 9.46973 92.6953 13.521 92.6953 17.0557C92.6953 20.5904 95.1504 22.6405 98.9259 22.6405C102.702 22.6405 104.827 20.9765 104.827 19.6551C104.827 18.7632 104.194 18.4587 103.468 18.3989C102.482 19.6551 101.101 20.2586 99.2341 20.2586C97.5888 20.2586 95.6177 19.6333 95.4863 16.7294H104.062C104.981 16.7294 105.686 16.2074 105.686 15.0654H105.68ZM102.917 14.6521H95.7889C96.4654 12.8576 98.0515 11.7483 100.072 11.7483C101.078 11.7483 101.871 12.0311 102.372 12.5911C102.807 13.0915 102.983 13.7821 102.917 14.6521Z" fill="black"/>
<path d="M132.27 13.3462H127.178C126.572 13.3462 126.281 13.4767 126.088 13.6725C125.78 13.9987 125.626 14.7329 125.626 15.0591C125.648 15.5812 126.104 15.8803 126.919 15.8803H130.536C130.03 18.3763 128.433 20.1056 125.665 20.1056C122.896 20.1056 120.815 18.2839 120.705 15.1897C120.572 11.2852 123.182 8.08224 126.892 8.08224C129.061 8.08224 130.75 9.22961 131.455 10.7469C131.543 10.8556 133.557 10.8556 133.497 9.16439C133.475 8.56074 133.123 7.84294 132.462 7.23938C131.389 6.19526 129.391 5.28711 126.738 5.28711C123.012 5.28711 120.066 7.32633 118.531 10.252C118.531 10.2303 118.509 10.2303 118.509 10.2303C118.201 9.83872 117.699 9.6429 117.215 9.6429C116.384 9.6429 115.856 9.90393 115.046 11.2906L111.078 18.1588L109.581 11.307C109.299 10.029 108.832 9.63753 108.007 9.63753C107.043 9.63753 106.25 10.3281 106.295 10.5021L109.124 21.5793L106.162 26.3049C105.854 26.8269 105.832 27.4959 106.949 27.4959H107.566C108.728 27.4959 109.101 26.7997 109.674 25.8481L117.661 12.5196C117.419 13.4496 117.308 14.4501 117.353 15.467C117.507 19.9533 120.551 22.6342 125.032 22.6342C127.156 22.6342 128.846 21.8349 129.787 20.6167C129.721 21.9164 130.426 22.4385 131.367 22.4385C131.895 22.4385 132.264 22.2645 132.264 22.1775L133.557 15.0048C133.756 13.9009 133.337 13.3353 132.264 13.3353L132.27 13.3462Z" fill="black"/>
<path d="M184.401 21.0301C184.5 21.1932 184.555 21.2584 184.698 21.2639C184.709 21.2639 184.726 21.4597 184.495 21.4597C184.357 21.4597 184.269 21.3999 184.12 21.1388L183.85 20.6657H183.608L183.487 21.3075C183.465 21.4053 183.421 21.4543 183.328 21.4543H183.283C183.195 21.4543 183.151 21.3999 183.168 21.2966L183.492 19.6271C183.509 19.5129 183.586 19.4531 183.696 19.4531H184.181C184.637 19.4531 184.879 19.6326 184.885 19.9697C184.891 20.3776 184.626 20.6277 184.17 20.644L184.407 21.0355L184.401 21.0301ZM184.098 20.4101C184.395 20.4101 184.56 20.2525 184.555 19.9968C184.555 19.8066 184.411 19.7032 184.153 19.7032H183.778L183.641 20.4048H184.092L184.098 20.4101Z" fill="#000100"/>
<path d="M184.017 18.9203C184.937 18.9203 185.68 19.6545 185.68 20.5626C185.68 21.4707 184.937 22.2049 184.017 22.2049C183.098 22.2049 182.355 21.4653 182.355 20.5626C182.355 19.6599 183.098 18.9203 184.017 18.9203ZM184.017 18.6484C182.949 18.6484 182.086 19.5077 182.086 20.5626C182.086 21.6176 182.949 22.4767 184.017 22.4767C185.085 22.4767 185.955 21.6176 185.955 20.5626C185.955 19.5077 185.085 18.6484 184.017 18.6484Z" fill="#000100"/>
<path d="M17.5 32C26.3365 32 33.5 24.8366 33.5 16C33.5 7.16345 26.3365 0 17.5 0C8.66344 0 1.5 7.16345 1.5 16C1.5 24.8366 8.66344 32 17.5 32Z" fill="white"/>
<path d="M33.4953 16C33.4953 24.8371 26.3324 32 17.4953 32C8.65814 32 1.5 24.8325 1.5 16C1.5 13.5685 2.04556 11.2593 3.01911 9.19456C2.37007 10.836 2.07848 12.4586 2.07848 13.9824C2.07848 21.2252 7.92916 22.2786 10.4171 22.2505C14.1984 22.2128 18.624 20.3645 22.3489 16.9312C22.3489 16.9312 21.8692 19.6308 21.7234 20.4633C21.5823 21.2722 22.1091 21.9824 22.918 21.987H23.2519C24.0891 21.987 24.6817 21.3051 24.8321 20.4633L26.1726 12.9147C26.3324 12.0776 25.7822 11.3957 24.945 11.3957H17.3824C16.5405 11.3957 15.7739 11.8425 15.6234 12.6843C15.614 12.7314 15.5717 12.9712 15.5623 13.0276C15.4448 13.8318 15.9997 14.4386 16.8039 14.4386H20.7498C20.6887 14.4997 20.6276 14.5562 20.5617 14.622C17.8433 17.1993 14.49 18.6055 11.7104 18.6055C8.93092 18.6055 5.83157 16.856 5.83157 12.9147C5.82217 4.74074 13.4882 0 17.5 0C26.3184 0 33.5 7.16285 33.5 16H33.4953Z" fill="#E42313"/>
</svg>
