<svg width="80" height="80" viewBox="0 0 80 80" fill="none" xmlns="http://www.w3.org/2000/svg">
<path d="M44.6988 69.6053C44.2229 69.6053 43.7635 69.4466 43.3834 69.1459L35.818 63.1435C34.4233 63.1039 26.0613 62.8593 21.6061 62.499C17.7821 62.1883 14.7182 59.1872 14.3216 55.3597C13.4292 46.7925 13.4292 38.1063 14.3216 29.5425C14.7182 25.715 17.7821 22.7105 21.6061 22.3999C25.9556 22.0495 30.4142 21.8347 34.8529 21.7686H34.8628C35.1867 21.7686 35.4511 22.0297 35.4578 22.3536C35.4644 22.6808 35.2 22.9518 34.8728 22.9584C30.4604 23.0279 26.0283 23.2361 21.7019 23.5864C18.4497 23.8509 15.842 26.4058 15.5049 29.6648C14.6191 38.146 14.6191 46.7496 15.5049 55.2341C15.842 58.4898 18.4497 61.0447 21.7019 61.3091C26.5175 61.6958 35.9535 61.9537 36.0494 61.9537C36.1783 61.957 36.3039 62.0032 36.403 62.0826L44.1237 68.2072C44.3253 68.3658 44.5732 68.4352 44.8277 68.4022C45.0822 68.3691 45.3037 68.2369 45.4524 68.032L50.0696 61.8148C50.1721 61.676 50.334 61.5868 50.5092 61.5769C50.5092 61.5769 52.9847 61.4116 54.2473 61.3091C57.4995 61.0447 60.1072 58.4898 60.4443 55.2341C60.993 49.949 61.2045 44.6045 61.0723 39.3425C61.0227 37.5742 60.9434 35.8654 60.8376 34.2591C60.8145 33.9318 61.0624 33.6476 61.3929 33.6244C61.7135 33.598 62.0043 33.8492 62.0275 34.1797C62.1365 35.8026 62.2159 37.5279 62.2654 39.3128C62.4009 44.6243 62.1861 50.025 61.6309 55.3597C61.2309 59.1839 58.1671 62.1883 54.3464 62.499C53.3351 62.5816 51.547 62.7006 50.8661 62.7469L46.4142 68.7426C46.0704 69.2086 45.5648 69.5061 44.9897 69.5821C44.8938 69.5954 44.798 69.602 44.7021 69.602L44.6988 69.6053Z" fill="#FFBC5E"/>
<path d="M52.3667 38.3605C44.6559 38.3605 38.3828 32.0872 38.3828 24.3761C38.3828 16.6649 44.6559 10.3916 52.3667 10.3916C60.0775 10.3916 66.3506 16.6649 66.3506 24.3761C66.3506 32.0872 60.0775 38.3605 52.3667 38.3605ZM52.3667 11.5815C45.3136 11.5815 39.5727 17.3194 39.5727 24.3761C39.5727 31.4328 45.3103 37.1706 52.3667 37.1706C59.4231 37.1706 65.1607 31.4328 65.1607 24.3761C65.1607 17.3194 59.4231 11.5815 52.3667 11.5815Z" fill="#FFBC5E"/>
<path d="M52.3661 32.0147C52.2801 32.0147 52.1942 31.9949 52.1116 31.9585C51.7579 31.79 43.4324 27.8005 44.8998 21.9569C45.2105 20.4993 46.3871 18.85 48.3008 18.5029C48.3702 18.4864 50.5416 18.0005 52.3628 19.7292C54.1872 18.0005 56.3586 18.4864 56.4578 18.5095C57.0395 18.6153 57.6113 18.8665 58.1203 19.2532C58.3814 19.4515 58.4342 19.825 58.2359 20.0861C58.0376 20.3472 57.6641 20.4001 57.403 20.2018C57.0428 19.9308 56.6462 19.7523 56.2165 19.6763C56.1107 19.6531 54.2731 19.2631 52.8651 20.9323C52.7561 21.0975 52.571 21.2 52.3694 21.2C52.1678 21.2 51.9926 21.1041 51.8802 20.9488C50.4689 19.2598 48.6214 19.6531 48.5421 19.6697C47.144 19.9242 46.2913 21.1372 46.0599 22.2279C44.9527 26.6404 51.0341 30.0646 52.3661 30.7554C53.5691 30.1307 58.659 27.2684 58.8077 23.4905C58.8209 23.1633 59.0986 22.9088 59.4258 22.9187C59.753 22.9319 60.0108 23.2096 59.9975 23.5368C59.7992 28.5244 52.9147 31.8197 52.6206 31.9585C52.5412 31.9949 52.452 32.0147 52.3661 32.0147Z" fill="#FFBC5E"/>
<path d="M40.9234 38.3608H25.591C25.2638 38.3608 24.9961 38.0931 24.9961 37.7658C24.9961 37.4386 25.2638 37.1709 25.591 37.1709H40.9234C41.2506 37.1709 41.5183 37.4386 41.5183 37.7658C41.5183 38.0931 41.2506 38.3608 40.9234 38.3608Z" fill="#FFBC5E"/>
<path d="M52.367 46.8286H25.5891C25.2619 46.8286 24.9941 46.5608 24.9941 46.2336C24.9941 45.9064 25.2619 45.6387 25.5891 45.6387H52.367C52.6942 45.6387 52.9619 45.9064 52.9619 46.2336C52.9619 46.5608 52.6942 46.8286 52.367 46.8286Z" fill="#FFBC5E"/>
</svg>
