<svg width="80" height="80" viewBox="0 0 80 80" fill="none" xmlns="http://www.w3.org/2000/svg">
<path d="M61.006 65.6679H29.1613C28.8341 65.6679 28.5664 65.4001 28.5664 65.0729V24.4846C28.5664 24.1574 28.8341 23.8896 29.1613 23.8896H61.006C61.9975 23.8896 62.8073 24.6961 62.8073 25.691V63.8698C62.8073 64.8614 62.0008 65.6712 61.006 65.6712V65.6679ZM29.7562 64.478H61.006C61.3431 64.478 61.6174 64.2036 61.6174 63.8665V25.6877C61.6174 25.3506 61.3431 25.0762 61.006 25.0762H29.7562V64.4747V64.478Z" fill="white"/>
<path d="M29.1611 65.6681C29.0091 65.6681 28.8604 65.6119 28.7414 65.4962L17.7288 54.612C17.3884 54.2749 17.1934 53.8089 17.1934 53.3329V16.1324C17.1934 15.3921 17.6164 14.7575 18.3006 14.4732C18.9814 14.189 19.7317 14.3344 20.2605 14.8533L29.5776 24.0617C29.8122 24.2931 29.8122 24.6699 29.5809 24.9045C29.3495 25.1392 28.9727 25.1392 28.7381 24.9112L19.421 15.7028C19.1533 15.4383 18.8459 15.5375 18.7567 15.5739C18.6674 15.6102 18.3832 15.759 18.3832 16.1357V53.3362C18.3832 53.4982 18.4493 53.6568 18.565 53.7692L29.5776 64.6534C29.8122 64.8847 29.8122 65.2615 29.5809 65.4962C29.4652 65.6152 29.3099 65.6714 29.1578 65.6714L29.1611 65.6681Z" fill="white"/>
<path d="M46.7448 42.9973C46.4176 42.9973 46.1499 42.7296 46.1499 42.4023C46.1499 40.4489 43.3274 38.7963 39.9892 38.7963C36.6511 38.7963 33.8285 40.4489 33.8285 42.4023C33.8285 42.7296 33.5608 42.9973 33.2336 42.9973C32.9064 42.9973 32.6387 42.7296 32.6387 42.4023C32.6387 39.7119 35.8678 37.6064 39.9892 37.6064C44.1107 37.6064 47.3398 39.7119 47.3398 42.4023C47.3398 42.7296 47.0721 42.9973 46.7448 42.9973Z" fill="white"/>
<path d="M39.9887 35.4747C37.9759 35.4747 36.3398 33.8386 36.3398 31.8257C36.3398 29.8129 37.9759 28.1768 39.9887 28.1768C42.0015 28.1768 43.6375 29.8129 43.6375 31.8257C43.6375 33.8386 42.0015 35.4747 39.9887 35.4747ZM39.9887 29.3666C38.6336 29.3666 37.5297 30.4706 37.5297 31.8257C37.5297 33.1809 38.6336 34.2848 39.9887 34.2848C41.3438 34.2848 42.4477 33.1809 42.4477 31.8257C42.4477 30.4706 41.3438 29.3666 39.9887 29.3666Z" fill="white"/>
<path d="M56.7262 32.9633H51.3059C50.9787 32.9633 50.7109 32.6956 50.7109 32.3684C50.7109 32.0412 50.9787 31.7734 51.3059 31.7734H56.7262C57.0534 31.7734 57.3211 32.0412 57.3211 32.3684C57.3211 32.6956 57.0534 32.9633 56.7262 32.9633Z" fill="white"/>
<path d="M56.7262 39.4057H51.3059C50.9787 39.4057 50.7109 39.138 50.7109 38.8108C50.7109 38.4835 50.9787 38.2158 51.3059 38.2158H56.7262C57.0534 38.2158 57.3211 38.4835 57.3211 38.8108C57.3211 39.138 57.0534 39.4057 56.7262 39.4057Z" fill="white"/>
<path d="M55.2065 53.7065H36.1691C35.8419 53.7065 35.5742 53.4388 35.5742 53.1115C35.5742 52.7843 35.8419 52.5166 36.1691 52.5166H55.2065C55.5337 52.5166 55.8014 52.7843 55.8014 53.1115C55.8014 53.4388 55.5337 53.7065 55.2065 53.7065Z" fill="white"/>
<path d="M55.2065 59.6557H36.1691C35.8419 59.6557 35.5742 59.388 35.5742 59.0608C35.5742 58.7335 35.8419 58.4658 36.1691 58.4658H55.2065C55.5337 58.4658 55.8014 58.7335 55.8014 59.0608C55.8014 59.388 55.5337 59.6557 55.2065 59.6557Z" fill="white"/>
</svg>
