<svg width="80" height="80" viewBox="0 0 80 80" fill="none" xmlns="http://www.w3.org/2000/svg">
<path d="M23.6666 64.9074H18.3586C16.5573 64.9074 15.0898 63.4432 15.0898 61.6418V56.3303C15.0898 56.0031 15.3576 55.7354 15.6848 55.7354C16.012 55.7354 16.2797 56.0031 16.2797 56.3303V61.6418C16.2797 62.7854 17.2117 63.7175 18.3586 63.7175H23.6666C23.9938 63.7175 24.2615 63.9852 24.2615 64.3124C24.2615 64.6397 23.9938 64.9074 23.6666 64.9074Z" fill="white"/>
<path d="M64.3131 24.2599C63.9859 24.2599 63.7181 23.9922 63.7181 23.665V18.3568C63.7181 17.2099 62.7861 16.2778 61.6425 16.2778H56.3312C56.004 16.2778 55.7363 16.0101 55.7363 15.6828C55.7363 15.3556 56.004 15.0879 56.3312 15.0879H61.6425C63.4438 15.0879 64.908 16.5554 64.908 18.3568V23.665C64.908 23.9922 64.6403 24.2599 64.3131 24.2599Z" fill="white"/>
<path d="M61.6451 64.908H56.3371C56.0099 64.908 55.7422 64.6403 55.7422 64.313C55.7422 63.9858 56.0099 63.7181 56.3371 63.7181H61.6451C62.7887 63.7181 63.7207 62.786 63.7207 61.6424V56.3342C63.7207 56.007 63.9884 55.7393 64.3156 55.7393C64.6428 55.7393 64.9105 56.007 64.9105 56.3342V61.6424C64.9105 63.4438 63.4464 64.908 61.6451 64.908Z" fill="white"/>
<path d="M15.6848 24.2632C15.3576 24.2632 15.0898 23.9955 15.0898 23.6683V18.3568C15.0898 16.5554 16.5573 15.0879 18.3586 15.0879H23.6699C23.9971 15.0879 24.2648 15.3556 24.2648 15.6828C24.2648 16.0101 23.9971 16.2778 23.6699 16.2778H18.3586C17.2117 16.2778 16.2797 17.2099 16.2797 18.3568V23.6683C16.2797 23.9955 16.012 24.2632 15.6848 24.2632Z" fill="white"/>
<path d="M43.2397 42.3767C42.9621 42.3767 42.7142 42.1817 42.658 41.9008C42.5787 41.5141 42.5391 41.1241 42.5391 40.7407C42.5391 40.0102 42.6845 39.3161 42.9753 38.6815C43.0216 38.579 43.0943 38.4931 43.1869 38.4336C44.9683 37.2503 46.2011 35.1845 46.5746 32.7618C46.6242 32.4379 46.9282 32.2131 47.2521 32.2627C47.576 32.3123 47.8008 32.6164 47.7512 32.9403C47.3381 35.6241 45.9731 37.9411 43.9966 39.3194C43.8214 39.759 43.7322 40.235 43.7322 40.7373C43.7322 41.0414 43.7653 41.3521 43.8281 41.6628C43.8942 41.9834 43.6859 42.2974 43.362 42.3635C43.3224 42.3701 43.2827 42.3767 43.243 42.3767H43.2397Z" fill="white"/>
<path d="M21.4995 57.6603C21.4698 57.6603 21.4367 57.6603 21.407 57.6537C21.0831 57.6008 20.8617 57.2967 20.9112 56.9728L22.1771 48.984C22.1804 48.9576 22.187 48.9279 22.1969 48.9014C22.6001 47.5991 23.324 46.4357 24.299 45.5433C25.2806 44.6476 26.4671 44.0592 27.733 43.8411C29.4351 43.5502 31.2 43.5337 32.8757 43.7783C33.6326 43.8874 34.3861 44.0692 35.11 44.317C35.6917 44.5154 36.2568 44.7533 36.7922 45.0244L38.7092 45.9994C39.5322 46.4192 40.4807 46.4192 41.307 45.9994L43.224 45.0244C43.7594 44.75 44.3246 44.5121 44.9063 44.3137C45.6301 44.0659 46.3804 43.8841 47.1405 43.775C48.8129 43.5304 50.5811 43.5469 52.2833 43.8378C53.5491 44.0526 54.7357 44.641 55.714 45.54C56.689 46.4324 57.4128 47.5958 57.816 48.8981C57.8226 48.9246 57.8292 48.951 57.8358 48.9807L59.1017 56.9695C59.1546 57.2934 58.9331 57.5975 58.6059 57.6504C58.2853 57.7033 57.978 57.4818 57.9251 57.1546L56.6658 49.2088C56.3254 48.1247 55.7173 47.1595 54.9108 46.4159C54.1011 45.6755 53.1228 45.1896 52.0817 45.0111C50.5051 44.7434 48.8658 44.7269 47.3124 44.955C46.6249 45.0541 45.9474 45.2194 45.293 45.4441C44.7642 45.6226 44.2519 45.8408 43.766 46.0887L41.8491 47.0637C40.6824 47.6553 39.3405 47.6553 38.1738 47.0637L36.2568 46.0887C35.771 45.8408 35.2587 45.6259 34.7299 45.4441C34.0755 45.2194 33.3946 45.0574 32.7104 44.955C31.1537 44.7269 29.5177 44.7434 27.9379 45.0111C26.9001 45.1896 25.9218 45.6755 25.1087 46.4159C24.3023 47.1562 23.6941 48.1214 23.3537 49.2055L22.0945 57.1513C22.0482 57.4455 21.7937 57.6537 21.5062 57.6537L21.4995 57.6603Z" fill="white"/>
<path d="M34.9121 45.4773C34.7171 45.4773 34.5254 45.3815 34.4098 45.203C34.2313 44.9253 34.3106 44.5585 34.5882 44.38C35.6095 43.7255 36.8985 41.2499 35.9433 39.1709C35.8045 38.8735 35.9367 38.5198 36.2342 38.381C36.5316 38.2455 36.8853 38.3744 37.0241 38.6718C38.2304 41.2896 36.7663 44.3932 35.2327 45.3782C35.1336 45.441 35.0212 45.474 34.9121 45.474V45.4773Z" fill="white"/>
<path d="M39.5986 40.5981C39.5986 40.5981 39.5721 40.5981 39.5589 40.5981C35.649 40.3436 32.5323 36.7871 32.1522 32.1466C32.1522 32.14 32.1522 32.1334 32.1522 32.1268C32.1291 31.8392 32.1191 31.545 32.1191 31.2277C32.1191 30.1073 32.2844 29.0132 32.605 27.9754C32.7041 27.6614 33.038 27.4862 33.3486 27.5854C33.6626 27.6845 33.8378 28.015 33.7386 28.329C33.4511 29.2545 33.3057 30.2295 33.3057 31.2277C33.3057 31.5186 33.3156 31.7863 33.3387 32.0441C33.3387 32.0507 33.3387 32.0573 33.3387 32.064C33.6725 36.0402 36.3761 39.1967 39.6349 39.4082C39.9621 39.428 40.21 39.7123 40.1902 40.0395C40.1704 40.3535 39.9093 40.5948 39.5986 40.5948V40.5981Z" fill="white"/>
<path d="M46.1845 29.8862C45.8078 29.8862 45.4607 29.7705 45.1996 29.6846C45.0575 29.6383 44.9253 29.592 44.8162 29.5722C44.4956 29.5094 44.2841 29.1954 44.3469 28.8748C44.4097 28.5509 44.7237 28.346 45.0476 28.4055C45.2327 28.4418 45.4078 28.5013 45.5797 28.5575C46.2077 28.7657 46.4192 28.8384 46.7563 28.1443C47.3777 26.895 46.8753 25.748 46.1978 25.0936C45.6293 24.5416 44.9187 24.3235 44.4725 24.5648C44.2907 24.6639 44.0693 24.6606 43.8908 24.5549C43.7123 24.4491 43.6 24.2574 43.5966 24.0525C43.5867 23.4773 43.4149 23.0377 43.0744 22.7105C42.2052 21.8809 40.4138 21.9404 39.7363 21.9602C39.6272 21.9635 39.5314 21.9668 39.4719 21.9668H39.4487C36.2692 21.9668 33.7706 24.7168 32.9377 26.4554C32.6501 27.0569 32.5973 27.4569 32.6105 27.6486C33.764 27.3808 35.3537 27.5924 37.0261 27.8171C38.6423 28.0353 40.318 28.26 41.4847 28.0187C41.802 27.9526 42.1226 28.1609 42.1887 28.4815C42.2548 28.8021 42.0466 29.1194 41.726 29.1855C40.361 29.4664 38.5861 29.2285 36.8708 28.9971C35.2248 28.7756 33.5227 28.5476 32.6369 28.8814C32.4948 28.9343 32.3428 28.931 32.2007 28.8748C31.8999 28.7525 31.2256 28.3294 31.4768 27.0602C31.9197 24.8391 35.281 20.7737 39.452 20.7737C39.4653 20.7737 39.4752 20.7737 39.4884 20.7737C39.5413 20.7737 39.614 20.7737 39.6999 20.767C40.5857 20.7373 42.6646 20.6712 43.8974 21.8446C44.3039 22.2346 44.575 22.7138 44.7039 23.279C45.4673 23.2096 46.3201 23.5468 47.0306 24.2342C47.966 25.1399 48.7361 26.8421 47.8305 28.6666C47.3579 29.635 46.7464 29.8895 46.1911 29.8895L46.1845 29.8862Z" fill="white"/>
</svg>
