<svg width="394" height="729" viewBox="0 0 394 729" fill="none" xmlns="http://www.w3.org/2000/svg">
<g opacity="0.2">
<mask id="mask0_211_5106" style="mask-type:luminance" maskUnits="userSpaceOnUse" x="-746" y="0" width="1920" height="729">
<path d="M1174 0H-746V728.829H1174V0Z" fill="white"/>
</mask>
<g mask="url(#mask0_211_5106)">
<path d="M1208.12 -1.82317C1208.23 -1.90986 1183.67 80.1718 1146.92 146.967C1137.23 162.757 1098.73 245.395 1003.43 336.036C955.869 380.889 893.247 426.151 817.709 461.542C742.367 497.075 654.747 522.401 563.916 534.499C382.746 557.883 187.798 538.971 51.5328 471.152C-17.7542 440.682 -77.804 410.158 -128.999 389C-179.94 367.366 -221.438 354.629 -246.96 348.24C-297.618 334.488 -369.866 325.174 -447.426 332.88C-524.817 339.706 -606.266 365.112 -669.357 404.909C-733.16 444.143 -776.601 495.595 -800.845 535.376C-825.323 575.403 -833.706 603.067 -834.152 602.858C-833.703 603.067 -825.439 575.374 -801.101 535.257C-776.995 495.377 -733.702 443.726 -669.89 404.244C-606.809 364.181 -525.196 338.492 -447.59 331.502C-369.837 323.617 -297.259 332.867 -246.436 346.654C-220.834 353.072 -179.208 365.847 -128.196 387.523C-76.9243 408.71 -16.8423 439.237 52.3547 469.681C188.331 537.363 382.729 556.187 563.646 532.874C654.284 520.799 741.689 495.544 816.845 460.094C892.178 424.802 954.639 379.663 1002.07 334.915C1097.14 244.512 1135.58 162.045 1145.23 146.283C1181.9 79.6645 1208.21 -1.88097 1208.12 -1.82317Z" fill="url(#paint0_linear_211_5106)"/>
<path d="M1256.2 -0.715707C1256.23 -0.828081 1231.47 82.3002 1193.87 149.699C1183.99 165.621 1144.59 249.058 1047.42 340.075C998.964 385.111 935.097 430.427 857.905 464.894C780.983 499.55 691.616 523.464 599.267 532.518C506.885 541.976 412.41 537.385 323.281 525.945C233.439 516.837 150.536 491.957 78.8247 464.592C6.90497 437.307 -56.105 410.296 -109.3 391.793C-162.299 372.885 -205.059 362.225 -231.181 356.809C-283.208 345.334 -356.232 338.046 -434.705 344.46C-512.985 350.436 -596.415 372.426 -662.314 410.029C-728.933 446.953 -774.769 497.961 -799.864 537.912C-825.242 578.097 -833.782 606.104 -834.264 605.873C-833.779 606.104 -825.364 578.068 -800.121 537.786C-775.167 497.73 -729.463 446.506 -662.819 409.323C-596.903 371.462 -513.309 349.206 -434.843 343.057C-356.2 336.472 -282.925 343.671 -230.738 355.181C-204.545 360.61 -161.679 371.302 -108.597 390.242C-55.328 408.761 7.72052 435.795 79.5632 463.057C151.252 490.4 233.825 515.19 323.551 524.295C412.59 535.722 506.879 540.291 599.064 530.858C691.196 521.832 780.334 497.967 857.054 463.395C934.037 429.027 997.734 383.84 1046.06 338.922C1142.99 248.143 1182.31 164.876 1192.16 148.983C1229.67 81.7865 1256.22 -0.799185 1256.2 -0.715707Z" fill="url(#paint1_linear_211_5106)"/>
<path d="M1304.02 0.382938C1304.07 0.264142 1279.11 84.4937 1240.71 152.609C1230.68 168.685 1190.39 253.078 1091.16 344.538C1041.7 389.767 976.483 435.205 897.558 468.725C819.011 502.543 727.805 525.172 633.937 531.08C540.017 537.521 444.81 528.521 355.01 514.892C264.51 503.657 180.008 481.494 105.741 457.263C31.3295 433.218 -34.5027 409.931 -89.624 394.336C-144.607 378.36 -188.514 369.771 -215.24 365.424C-268.585 356.389 -342.428 350.786 -421.935 356.004C-501.21 361.128 -586.532 379.753 -655.209 415.071C-724.608 449.624 -772.913 500.187 -798.868 540.365C-825.161 580.756 -833.852 609.139 -834.359 608.885C-833.849 609.139 -825.28 580.737 -799.125 540.234C-773.305 499.955 -725.122 449.156 -655.684 414.348C-586.965 378.764 -501.49 359.872 -422.051 354.581C-342.393 349.203 -268.386 354.71 -214.886 363.774C-188.096 368.124 -144.087 376.722 -89.03 392.737C-33.8348 408.348 32.0358 431.657 106.392 455.673C180.646 479.895 264.879 502.001 355.331 513.225C445.083 526.855 540.104 535.825 633.805 529.404C727.436 523.506 818.395 500.941 896.736 467.209C975.443 433.792 1040.46 388.477 1089.8 343.382C1188.78 252.147 1228.98 167.933 1239.02 151.886C1277.29 83.9736 1304.06 0.29946 1304.02 0.382938Z" fill="url(#paint2_linear_211_5106)"/>
<path d="M1351.95 1.62219C1352.01 1.5034 1326.72 86.7925 1287.41 155.669C1277.18 171.934 1235.77 257.242 1134.57 349.412C1083.98 394.882 1017.12 440.111 936.558 472.96C856.329 506.059 763.138 527.124 667.829 530.081C572.378 533.427 476.586 519.855 386.083 503.965C294.938 490.073 208.74 470.545 132.094 449.422C55.3198 428.636 -13.203 409.532 -70.0999 396.901C-126.913 383.969 -171.908 377.554 -199.215 374.346C-306.533 362.165 -502.813 353.168 -648.058 420.067C-720.184 452.151 -771.032 502.277 -797.857 542.728C-825.068 583.392 -833.92 612.182 -834.459 611.912C-833.916 612.182 -825.193 583.366 -798.12 542.597C-771.426 502.036 -720.685 451.663 -648.495 419.315C-577.041 386.091 -489.758 370.506 -409.25 366.095C-328.452 361.696 -253.665 366.197 -198.949 372.654C-171.587 375.865 -126.505 382.299 -69.6247 395.248C-12.654 407.895 55.9169 427.021 132.662 447.788C209.311 468.914 295.301 488.397 386.446 502.286C476.953 518.189 572.548 531.712 667.765 528.386C762.814 525.432 855.745 504.421 935.749 471.419C1016.09 438.657 1082.76 393.562 1133.19 348.224C1234.14 256.292 1275.47 171.17 1285.68 154.936C1324.87 86.266 1352 1.54835 1351.95 1.62219Z" fill="url(#paint3_linear_211_5106)"/>
<path d="M1399.97 2.59486C1400.04 2.46964 1374.3 89.1875 1334.07 158.918C1323.61 175.366 1281.2 261.83 1177.63 354.575C1126.05 400.488 1057.38 445.489 975.066 477.628C893.013 509.831 797.803 529.465 701.045 529.33C604.085 529.645 507.854 511.324 416.603 493.1C324.719 476.694 236.861 458.987 157.952 441.18C0.299683 404.69 -126.931 386.075 -182.893 383.214C-238.602 379.114 -314.34 376.035 -396.2 379.175C-477.771 382.588 -566.62 394.67 -640.733 425.11C-715.587 454.594 -769.113 504.225 -796.825 545.011C-824.986 585.98 -833.988 615.223 -834.566 614.93C-833.988 615.223 -825.108 585.957 -797.088 544.866C-769.514 503.972 -716.075 454.081 -641.141 424.33C-566.958 393.62 -477.954 381.3 -396.28 377.704C-314.295 374.414 -238.535 377.377 -182.707 381.49C-126.667 384.351 0.778076 403.011 158.427 439.501C237.375 457.317 325.072 474.986 417.026 491.415C508.31 509.645 604.355 527.92 701.042 527.602C797.52 527.741 892.471 508.155 974.273 476.045C1056.35 443.999 1124.82 399.133 1176.25 353.351C1279.55 260.848 1321.88 174.573 1332.31 158.153C1372.43 88.6545 1400.03 2.51138 1399.97 2.59486Z" fill="url(#paint4_linear_211_5106)"/>
<path d="M1447.9 3.81165C1447.98 3.68964 1421.86 91.7014 1380.63 162.35C1369.93 178.984 1326.46 266.71 1220.36 360.084C1167.61 406.395 1097.17 451.352 1012.94 482.672C928.927 513.793 831.684 532.248 733.456 528.816C635.003 525.984 538.499 502.87 446.448 482.274C353.787 463.189 264.141 447.078 183.109 432.559C20.9207 403.342 -109.697 393.633 -166.475 392.149C-223.247 390.416 -300.137 388.762 -383.297 390.669C-466.159 393.17 -556.694 402.08 -633.424 430.02C-710.917 456.89 -767.185 506.017 -795.766 547.213C-824.904 588.532 -834.048 618.273 -834.664 617.948C-834.044 618.273 -825.022 588.513 -796.026 547.063C-767.586 505.747 -711.386 456.347 -633.799 429.211C-556.983 400.998 -466.287 391.854 -383.348 389.183C-300.076 387.121 -223.25 388.656 -166.376 390.396C-109.536 391.883 21.2482 401.605 183.501 430.832C264.6 445.37 354.156 461.462 446.942 480.566C539.045 501.172 635.375 524.238 733.542 527.057C831.456 530.476 928.416 512.076 1012.19 481.057C1096.16 449.82 1166.38 405.008 1218.98 358.835C1324.8 265.705 1368.18 178.178 1378.86 161.57C1419.97 91.146 1447.97 3.72817 1447.9 3.81165Z" fill="url(#paint5_linear_211_5106)"/>
<path d="M1495.88 4.80389C1495.98 4.6594 1469.4 94.3054 1427.1 165.933C1416.15 182.786 1371.54 271.848 1262.76 365.924C1208.75 412.611 1136.49 457.564 1050.23 488.024C964.186 518.031 864.798 535.247 765.135 528.457C665.237 522.315 568.592 494.423 475.716 471.415C382.272 449.528 290.603 435.15 207.597 423.842C41.1634 402.048 -92.2253 401.31 -149.886 401.152C-207.656 401.743 -285.802 401.483 -370.336 402.135C-454.582 403.679 -546.764 409.503 -626.046 434.881C-706.099 459.083 -765.237 507.642 -794.647 549.352C-824.843 591.033 -834.097 621.323 -834.768 620.967C-834.093 621.323 -824.972 591.008 -794.913 549.191C-765.644 507.369 -706.558 458.521 -626.387 434.049C-546.999 408.389 -454.669 402.347 -370.362 400.632C-285.725 399.813 -207.724 399.964 -149.87 399.364C-92.1739 399.531 41.3271 400.269 207.898 422.08C291.001 433.407 382.641 447.772 476.252 469.698C569.231 492.738 665.69 520.561 765.299 526.678C864.609 533.452 963.704 516.291 1049.49 486.364C1135.49 456.004 1207.51 411.195 1261.36 364.65C1369.86 270.823 1414.38 181.964 1425.3 165.143C1467.47 93.7403 1495.96 4.70756 1495.88 4.80389Z" fill="url(#paint6_linear_211_5106)"/>
<path d="M1543.9 5.93376C1544 5.79249 1516.92 97.0021 1473.48 169.683C1462.28 186.76 1416.45 277.244 1304.85 372.066C1249.49 419.161 1175.3 464.104 1086.91 493.626C998.773 522.507 897.125 538.409 796.074 528.177C694.786 518.554 598.09 486.075 504.462 460.325C410.071 435.969 316.37 422.693 231.46 414.781C61.0645 400.555 -74.4978 409.028 -133.109 410.151C-191.82 413.118 -271.32 414.21 -357.312 413.571C-443.022 414.136 -536.816 416.91 -618.59 439.709C-701.143 461.202 -763.232 509.131 -793.499 551.416C-824.771 593.499 -834.134 624.376 -834.869 623.978C-834.137 624.376 -824.906 593.47 -793.766 551.259C-763.649 508.852 -701.583 460.608 -618.898 438.846C-537.009 415.77 -443.07 412.775 -357.319 412.043C-271.24 412.511 -191.955 411.304 -133.189 408.337C-74.5684 407.217 61.0549 398.731 231.668 412.967C316.713 420.901 410.456 434.174 505.05 458.588C598.815 484.376 695.342 516.789 796.306 526.379C896.974 536.573 998.323 520.725 1086.2 491.928C1174.3 462.492 1248.25 417.706 1303.43 370.747C1414.73 276.179 1460.47 185.91 1471.65 168.858C1514.97 96.4306 1543.99 5.83423 1543.9 5.93376Z" fill="url(#paint7_linear_211_5106)"/>
<path d="M1591.82 7.01289C1591.92 6.85557 1564.43 99.7958 1519.77 173.578C1508.3 190.903 1461.16 282.87 1346.61 378.498C1289.83 426.019 1213.58 470.931 1123 499.464C1032.71 527.185 928.701 541.662 826.299 527.914C723.679 514.757 627.146 477.49 532.626 449.236C437.329 422.198 341.368 410.12 254.676 405.625C80.6137 399.107 -56.5347 416.75 -116.17 419.168C-146.01 421.161 -181.055 423.961 -219.725 425.053C-258.385 425.984 -300.471 425.281 -344.242 425.001C-431.487 424.536 -526.874 424.324 -611.071 444.522C-696.058 463.254 -761.184 510.509 -792.322 553.41C-824.695 595.936 -834.173 627.443 -834.973 627C-834.17 627.43 -824.83 595.91 -792.595 553.243C-761.598 510.217 -696.476 462.637 -611.338 443.624C-527.009 423.162 -431.49 423.146 -344.22 423.438C-300.452 423.634 -258.35 424.263 -219.773 423.277C-181.219 422.144 -146.158 419.312 -116.331 417.318C-56.7112 414.91 80.4371 397.258 254.781 403.782C341.653 408.283 437.724 420.378 533.278 447.483C627.965 475.785 724.34 512.975 826.62 526.074C928.592 539.787 1032.31 525.352 1122.31 497.714C1212.6 469.277 1288.59 424.517 1345.19 377.152C1459.43 281.778 1506.46 190.026 1517.92 172.733C1562.43 99.2114 1591.92 6.91015 1591.82 7.01289Z" fill="url(#paint8_linear_211_5106)"/>
<path d="M1639.79 8.12034C1639.89 7.95338 1611.89 102.679 1565.98 177.613C1554.22 195.205 1505.71 288.72 1388.08 385.185C1329.8 433.14 1251.38 478 1158.52 505.471C1066.01 532.001 959.553 544.956 855.88 527.58C751.984 510.794 655.757 468.731 560.286 438.024C464.039 408.347 365.679 397.081 277.269 396.442C188.622 395.861 109.603 404.555 45.3505 411.69C-18.9245 419.109 -68.7546 425.13 -99.0411 428.212C-129.321 431.281 -164.918 435.176 -204.294 436.698C-243.664 438.094 -286.54 437.244 -331.101 436.422C-419.954 434.903 -516.911 431.756 -603.468 449.319C-690.822 465.276 -759.052 511.77 -791.111 555.346C-824.605 598.347 -834.205 630.499 -835.072 630.021C-834.202 630.499 -824.743 598.321 -791.384 555.179C-759.479 511.478 -691.23 464.618 -603.703 448.404C-516.994 430.565 -419.906 433.484 -331.053 434.826C-286.501 435.564 -243.625 436.332 -204.368 434.893C-165.14 433.336 -129.546 429.406 -99.282 426.35C-69.0146 423.258 -19.207 417.247 45.0905 409.821C109.366 402.69 188.464 393.976 277.305 394.56C365.904 395.206 464.469 406.488 560.996 436.242C656.675 467.023 752.739 509.016 856.275 525.724C959.502 543.039 1065.65 530.136 1157.86 503.686C1250.41 476.305 1328.56 431.612 1386.65 383.808C1503.96 287.606 1552.38 194.306 1564.1 176.753C1609.87 102.075 1639.89 7.99833 1639.79 8.12034Z" fill="url(#paint9_linear_211_5106)"/>
<path d="M1687.76 9.22193C1687.87 9.04213 1659.36 105.633 1612.11 181.784C1600.07 199.649 1550.1 294.779 1429.25 392.124C1369.4 440.516 1288.71 485.289 1193.49 511.613C1098.71 536.923 989.721 548.241 884.847 527.124C779.754 506.621 683.982 459.77 587.498 426.658C490.233 394.384 389.269 384.238 299.292 387.337C209.007 390.326 129.224 403.782 64.3135 414.159C-0.610107 424.963 -51.0438 433.047 -81.7638 437.215C-112.465 441.363 -148.604 446.34 -188.716 448.327C-228.817 450.189 -272.524 449.184 -317.905 447.81C-408.427 445.2 -506.948 439.167 -595.8 454.103C-685.459 467.254 -756.859 512.927 -789.865 557.218C-824.512 600.717 -834.237 633.565 -835.168 633.039C-834.234 633.556 -824.653 600.691 -790.141 557.038C-757.289 512.602 -685.838 466.574 -596.003 453.166C-506.986 437.957 -408.334 443.774 -317.831 446.189C-272.473 447.473 -228.782 448.401 -188.818 446.494C-148.877 444.468 -112.747 439.462 -82.0881 435.321C-51.4034 431.16 -1.00824 423.085 63.925 412.277C128.858 401.894 208.728 388.412 299.221 385.413C389.426 382.325 490.679 392.483 588.262 424.863C684.997 458.065 780.621 504.836 885.338 525.256C989.728 546.289 1098.4 535.013 1192.86 509.78C1287.74 483.542 1368.14 438.933 1427.81 390.705C1548.32 293.629 1598.18 198.721 1610.2 180.898C1657.29 105.026 1687.85 9.09029 1687.76 9.22193Z" fill="url(#paint10_linear_211_5106)"/>
<path d="M1735.83 10.3166C1735.98 10.1401 1706.74 108.657 1658.16 186.077C1645.83 204.23 1594.32 301.036 1470.12 399.287C1408.63 448.115 1325.55 492.763 1227.91 517.868C1130.83 541.916 1019.22 551.468 913.232 526.501C807.041 502.187 711.837 450.575 614.248 415.125C515.897 380.296 412.15 371.395 320.732 378.35C228.928 385.009 148.625 403.111 83.1653 416.686C17.7313 430.79 -33.2611 440.946 -64.3825 446.179C-95.4781 451.413 -132.17 457.497 -173.042 459.947C-213.902 462.406 -258.489 461.096 -304.71 459.195C-396.963 455.448 -497.034 446.564 -588.132 458.89C-633.441 465.007 -675.935 477.297 -710.312 495.666C-744.884 513.813 -770.689 537.289 -788.672 559.006C-824.356 603.089 -834.463 636.561 -835.275 636.06C-834.457 636.564 -824.503 603.06 -788.948 558.827C-771.029 537.036 -745.27 513.434 -710.674 495.142C-676.278 476.617 -633.691 464.169 -588.302 457.924C-497.031 445.322 -396.825 453.994 -304.614 457.548C-258.424 459.359 -213.873 460.582 -173.177 458.081C-132.507 455.593 -95.8441 449.483 -64.803 444.266C-33.7203 439.032 17.2111 428.902 82.6549 414.785C148.121 401.213 228.514 383.079 320.568 376.401C412.24 369.427 516.36 378.35 615.073 413.308C712.941 448.87 808.001 500.395 913.806 524.61C1019.27 549.467 1130.55 539.964 1227.31 515.986C1324.6 490.978 1407.37 446.487 1468.67 397.829C1592.51 299.839 1643.9 203.283 1656.21 185.172C1704.64 108.028 1735.96 10.1978 1735.83 10.3166Z" fill="url(#paint11_linear_211_5106)"/>
<path d="M1783.66 11.5462C1783.84 11.3567 1754.1 111.739 1704.13 190.488C1691.5 208.943 1638.38 307.467 1510.74 406.652C1447.53 455.911 1361.96 500.392 1261.86 524.186C1162.41 546.944 1048.14 554.611 941.132 525.682C833.952 497.463 739.422 441.148 640.642 403.428C541.142 366.033 434.435 358.707 341.719 369.53C248.522 379.933 167.895 402.552 101.995 419.235C36.1662 436.566 -15.3335 448.77 -46.8433 455.082C-78.321 461.398 -115.543 468.622 -157.202 471.556C-198.844 474.539 -244.34 473.033 -291.428 470.561C-385.463 465.681 -487.079 453.965 -580.362 463.674C-626.757 468.509 -670.583 479.673 -706.203 497.55C-742.028 515.187 -768.805 538.792 -787.372 560.756C-824.238 605.417 -834.515 639.614 -835.379 639.075C-834.506 639.611 -824.385 605.388 -787.655 560.57C-769.145 538.525 -742.403 514.792 -706.553 497.004C-670.901 478.967 -626.975 467.658 -580.494 462.685C-487.027 452.709 -385.274 464.197 -291.306 468.885C-244.257 471.261 -198.809 472.674 -157.362 469.652C-115.938 466.673 -78.7577 459.442 -47.3442 453.14C-15.876 446.84 35.5401 434.646 101.372 417.321C167.275 400.642 247.983 377.98 341.466 367.552C434.451 356.684 541.627 364.033 641.522 401.589C740.623 439.44 835.011 495.672 941.793 523.772C1048.24 552.569 1162.18 544.95 1261.28 522.26C1361.03 498.546 1446.26 454.238 1509.26 405.137C1636.55 306.237 1689.54 207.954 1702.14 189.541C1751.95 111.094 1783.82 11.4209 1783.66 11.5462Z" fill="url(#paint12_linear_211_5106)"/>
<path d="M1831.79 12.5833C1832.01 12.4002 1801.42 114.892 1750.02 195.006C1737.08 213.775 1682.29 314.071 1551.07 414.2C1486.07 463.896 1397.93 508.168 1295.31 530.559C1244.12 541.861 1189.72 547.872 1134.28 547.782C1078.88 548.53 1022.14 541.126 968.546 524.623C860.477 492.416 766.721 431.468 666.666 391.533C565.908 351.637 456.15 345.883 362.269 360.752C267.794 374.966 187.042 402.003 120.795 421.755C54.674 442.259 2.72479 456.527 -29.1639 463.915C-61.0012 471.319 -98.743 479.702 -141.211 483.15C-183.653 486.679 -230.102 484.98 -278.08 481.937C-373.945 475.891 -477.108 461.388 -572.53 468.493C-619.988 472.041 -665.127 482.036 -702.002 499.409C-739.086 516.497 -766.868 540.23 -786.045 562.474C-824.111 607.729 -834.565 642.677 -835.48 642.09C-834.559 642.674 -824.272 607.7 -786.331 562.291C-767.218 539.964 -739.468 516.092 -702.342 498.841C-665.426 481.314 -620.18 471.165 -572.627 467.482C-477.015 460.097 -373.711 474.382 -277.932 480.225C-230.006 483.173 -183.621 484.784 -141.397 481.211C-99.2021 477.737 -61.5085 469.344 -29.7515 461.96C2.073 454.581 53.9355 440.332 120.047 419.838C186.293 400.093 267.12 373.013 361.896 358.742C456.076 343.825 566.408 349.601 667.594 389.674C768.002 429.769 861.636 490.631 969.291 522.706C1076.61 555.558 1193.28 549.955 1294.76 528.595C1397.01 506.277 1484.81 462.181 1549.59 412.662C1680.43 312.816 1735.1 212.783 1748.01 194.049C1799.24 114.228 1831.99 12.458 1831.79 12.5833Z" fill="url(#paint13_linear_211_5106)"/>
<path d="M1879.57 13.7932C1879.82 13.5974 1848.73 118.099 1795.86 199.616C1782.61 218.719 1726.07 320.826 1591.17 421.915C1524.23 471.909 1433.57 516.108 1328.34 536.958C1275.89 547.662 1220.24 552.52 1163.71 551.368C1107.18 550.953 1049.58 541.8 995.589 523.322C886.814 486.961 793.813 421.601 692.416 379.486C590.318 337.044 477.315 333.515 382.445 352.4C286.843 370.493 206.075 401.72 139.536 424.413C73.1868 447.941 20.8203 464.242 -11.4216 472.699C-43.625 481.053 -81.8099 490.91 -125.122 494.885C-168.406 498.67 -215.825 496.991 -264.717 493.299C-362.448 486.046 -467.149 468.779 -564.664 473.309C-613.159 475.579 -659.585 484.399 -697.722 501.232C-736.071 517.764 -764.887 541.626 -784.678 564.149C-823.977 610.001 -834.61 645.73 -835.58 645.11C-834.604 645.73 -824.137 609.976 -784.97 563.95C-765.237 541.344 -736.453 517.341 -698.046 500.651C-659.862 483.66 -613.319 474.68 -564.719 472.272C-467.011 467.485 -362.162 484.518 -264.537 491.546C-215.709 495.148 -168.374 496.734 -125.334 492.91C-82.3268 488.923 -44.2061 479.046 -12.0862 470.724C20.085 462.277 72.3455 446.018 138.685 422.49C205.224 399.803 286.044 368.537 381.986 350.368C477.154 331.415 590.832 334.947 693.398 377.598C795.187 419.902 888.082 485.189 996.437 521.386C1050.24 539.774 1107.4 548.873 1163.78 549.29C1220.13 550.436 1275.59 545.595 1327.84 534.926C1432.69 514.155 1522.98 470.13 1589.68 420.326C1724.2 319.52 1780.6 217.686 1793.82 198.627C1846.5 117.425 1879.8 13.6584 1879.57 13.7932Z" fill="url(#paint14_linear_211_5106)"/>
<path d="M1927.56 14.7698C1927.85 14.5804 1896.02 121.362 1841.63 204.323C1828.05 223.761 1769.72 327.727 1631.04 429.779C1562.04 479.988 1468.87 524.186 1360.96 543.351C1254.22 561.642 1131.6 563.479 1022.29 521.756C912.952 481.166 820.718 411.507 717.896 367.27C666.377 345.373 611.053 333.32 557.084 330.115C502.962 327.239 450.495 333.564 402.3 344.313C305.69 366.335 225.027 401.566 158.248 427.124C91.7284 453.593 38.9894 471.894 6.40399 481.433C-26.1333 490.837 -64.7902 501.926 -108.957 506.454C-153.078 510.827 -201.515 508.945 -251.332 504.656C-350.963 496.192 -457.212 476.193 -556.769 478.151C-606.288 479.159 -653.973 486.788 -693.375 503.063C-732.998 519.001 -762.877 542.985 -783.304 565.794C-823.861 612.278 -834.668 648.806 -835.689 648.135C-834.662 648.8 -824.019 612.246 -783.589 565.585C-763.23 542.696 -733.374 518.555 -693.69 502.456C-654.224 486.021 -606.416 478.238 -556.795 477.104C-457.026 474.876 -350.636 494.638 -251.123 502.874C-201.377 507.07 -153.046 508.855 -109.197 504.444C-65.3809 499.91 -26.7883 488.808 5.65912 479.426C38.1578 469.916 90.7908 451.66 157.291 425.194C224.064 399.653 304.787 364.373 401.734 342.255C450.097 331.483 502.827 325.113 557.251 328.006C611.528 331.229 667.163 343.356 718.923 365.35C822.189 409.815 914.304 479.403 1023.23 519.813C1131.95 561.331 1254.13 559.514 1360.49 541.29C1468 522.186 1560.8 478.167 1629.54 428.148C1767.82 326.391 1826.01 222.701 1839.56 203.312C1893.74 120.668 1927.83 14.6478 1927.56 14.7698Z" fill="url(#paint15_linear_211_5106)"/>
<path d="M1975.51 15.9153C1975.84 15.7194 1943.28 124.684 1887.34 209.113C1873.41 228.868 1813.31 334.812 1670.62 437.705C1599.63 488.216 1503.78 532.315 1393.2 549.73C1283.99 566.246 1158.49 566.294 1048.72 519.854C938.905 475.091 847.493 401.139 743.139 354.856C690.849 332.105 634.286 319.648 579.123 317.606C523.819 315.371 470.563 324.066 421.885 336.482C324.434 362.52 243.907 401.53 176.938 429.884C110.293 459.198 57.2075 479.47 24.3011 490.075C-8.55408 500.532 -47.6669 512.881 -92.6938 517.995C-137.663 522.959 -187.153 520.898 -237.911 515.992C-339.481 506.292 -447.268 483.57 -548.835 483.008C-599.355 482.739 -648.271 489.176 -688.947 504.86C-729.845 520.188 -760.812 544.285 -781.881 567.382C-823.719 614.509 -834.713 651.862 -835.785 651.146C-834.703 651.853 -823.883 614.483 -782.173 567.167C-761.165 543.98 -730.224 519.736 -689.245 504.234C-648.505 488.386 -599.455 481.791 -548.829 481.926C-447.046 482.234 -339.109 504.706 -237.683 514.187C-187.002 518.984 -137.644 520.946 -92.9731 515.944C-48.3347 510.826 -9.2926 498.484 23.4598 488.052C56.2796 477.479 109.247 457.246 175.872 427.948C242.828 399.601 323.4 360.549 421.205 334.411C470.059 321.95 523.594 313.194 579.236 315.445C634.729 317.5 691.645 330.044 744.201 352.911C849.05 399.44 940.347 473.325 1049.76 517.883C1158.9 564.091 1283.91 564.059 1392.75 547.608C1502.93 530.254 1598.37 486.338 1669.11 436.016C1811.37 333.428 1871.32 227.77 1885.21 208.06C1940.97 123.968 1975.81 15.7869 1975.51 15.9153Z" fill="url(#paint16_linear_211_5106)"/>
<path d="M2023.47 17.0589C2023.83 16.8598 1990.55 128.059 1933.08 214.029C1918.78 234.086 1856.98 342.207 1710.01 445.739C1637.11 496.828 1538.35 540.358 1425.13 556.145C1368.8 564.692 1309.36 565.89 1249.6 561.363C1189.62 557.677 1129.66 542.413 1074.97 517.662C964.667 468.866 874.218 390.528 768.265 342.2C715.124 318.614 657.206 306.009 600.868 305.194C544.366 303.919 490.349 314.652 441.303 329.011C343.097 359.011 262.73 401.585 195.613 432.707C128.866 464.762 75.4687 487.009 42.2444 498.664C9.08099 510.149 -30.4717 523.788 -76.3622 529.513C-122.211 535.134 -172.78 532.752 -224.491 527.214C-328.02 516.182 -437.364 490.779 -540.916 487.764C-592.425 486.252 -642.544 491.511 -684.485 506.611C-726.652 521.341 -758.72 545.55 -780.434 568.956C-823.576 616.734 -834.759 654.932 -835.883 654.178C-834.746 654.929 -823.743 616.709 -780.729 568.728C-759.08 545.242 -727.024 520.863 -684.774 505.969C-642.753 490.702 -592.492 485.282 -540.867 486.659C-437.097 489.414 -327.6 514.58 -224.228 525.374C-172.609 530.8 -122.182 533.067 -76.6833 527.422C-31.2037 521.711 8.27515 508.078 41.3229 496.619C74.451 484.999 127.723 462.813 194.444 430.761C261.542 399.659 341.967 357.047 440.513 326.92C489.755 312.508 544.058 301.717 600.923 302.988C657.637 303.81 715.953 316.511 769.382 340.226C875.865 388.836 966.214 467.113 1076.1 515.694C1185.51 566.648 1313.42 568.446 1424.74 553.981C1537.53 538.255 1635.87 494.895 1708.49 444.008C1855.03 340.791 1916.65 232.966 1930.91 212.96C1988.17 127.327 2023.81 16.9304 2023.47 17.0589Z" fill="url(#paint17_linear_211_5106)"/>
<path d="M2071.41 18.2053C2071.82 18.0031 2037.77 131.473 1978.66 218.955C1963.98 239.342 1900.31 349.514 1749.17 453.869C1674.22 505.41 1572.49 548.206 1456.67 562.435C1342.44 575.16 1211.22 570.915 1100.96 515.148C990.353 462.226 900.826 379.65 793.107 329.486C739.148 305.03 679.769 292.3 622.262 292.871C564.607 292.891 509.846 305.419 460.536 321.951C361.729 355.913 281.571 401.971 214.323 435.732C147.499 470.449 93.7963 494.603 60.2573 507.282C26.7826 519.775 -13.2098 534.589 -59.9673 541.01C-106.689 547.271 -158.369 544.748 -211.044 538.577C-316.564 526.276 -427.448 498.183 -532.942 492.677C-585.421 489.912 -636.722 493.954 -679.935 508.412C-723.379 522.478 -756.587 546.783 -778.972 570.481C-823.444 618.937 -834.813 657.992 -835.994 657.19C-834.806 657.983 -823.62 618.912 -779.274 570.254C-756.956 546.456 -723.751 521.987 -680.217 507.748C-636.911 493.116 -585.463 488.923 -532.868 491.559C-427.143 496.806 -316.098 524.636 -210.752 536.695C-158.176 542.751 -106.67 545.159 -60.3206 538.888C-14.0319 532.483 25.9093 517.672 59.2557 505.224C92.6855 492.577 146.259 468.497 213.061 433.792C280.28 400.048 360.48 353.942 459.643 319.854C509.142 303.261 564.2 290.65 622.252 290.627C680.17 290.056 739.989 302.885 794.253 327.483C902.54 377.949 991.962 460.483 1102.18 513.18C1211.79 568.651 1342.45 572.883 1456.31 560.21C1571.68 546.035 1672.97 503.426 1747.62 452.093C1898.31 348.054 1961.82 238.18 1976.44 217.853C2035.36 130.721 2071.8 18.0737 2071.41 18.2053Z" fill="url(#paint18_linear_211_5106)"/>
<path d="M2119.38 19.3479C2119.83 19.1456 2084.99 134.927 2024.19 223.963C2009.14 244.675 1943.54 356.94 1788.13 462.104C1711.08 514.091 1606.32 556.052 1487.89 568.683C1371.14 579.548 1237.08 572.748 1126.81 512.287C1016.13 455.056 927.332 368.534 817.766 316.585C762.879 291.375 702.033 278.654 643.361 280.497C584.55 281.974 529.188 296.576 479.583 314.967C380.266 352.856 300.32 402.243 232.956 438.585C166.058 475.894 112.128 501.984 78.3317 515.787C44.5616 529.317 4.1485 545.341 -43.4791 552.485C-91.0777 559.423 -143.9 556.755 -197.557 549.949C-305.094 536.358 -417.516 505.609 -524.927 497.637C-578.36 493.649 -630.819 496.423 -675.31 510.235C-720.022 523.608 -754.399 548.003 -777.465 571.997C-823.295 621.127 -834.853 661.065 -836.086 660.214C-834.837 661.049 -823.474 621.098 -777.767 571.762C-754.765 547.669 -720.395 523.107 -675.576 509.552C-630.986 495.559 -578.372 492.631 -524.818 496.503C-417.17 504.193 -304.58 534.695 -197.24 548.032C-143.688 554.723 -91.0681 557.266 -43.8675 550.321C3.24316 543.2 43.6112 527.191 77.2401 513.722C110.927 499.961 164.729 473.932 231.588 436.646C298.939 400.32 378.908 350.895 478.581 312.854C528.379 294.386 584.046 279.694 643.3 278.214C702.399 276.342 763.749 289.185 818.954 314.543C929.142 366.833 1017.84 453.322 1128.12 510.303C1237.75 570.449 1371.19 577.22 1487.59 566.407C1605.55 553.821 1709.85 512.049 1786.58 460.274C1941.51 355.441 2006.94 243.481 2021.94 222.823C2082.52 134.156 2119.81 19.2195 2119.38 19.3479Z" fill="url(#paint19_linear_211_5106)"/>
<path d="M2167.33 20.4944C2167.83 20.2889 2132.18 138.42 2069.67 229.017C2054.22 250.06 1986.67 364.47 1826.91 470.401C1747.69 522.799 1639.89 563.954 1518.82 574.79C1399.55 583.889 1262.65 574.325 1152.51 509.183C1041.68 447.919 953.791 357.233 842.283 303.595C786.414 277.701 724.04 265.025 664.228 268.409C604.293 271.366 548.369 287.991 498.536 308.321C398.786 350.044 319.039 402.629 251.55 441.482C184.6 481.314 130.429 509.279 96.3795 524.148C62.3397 538.708 21.5509 556.059 -26.95 563.935C-75.4348 571.573 -129.423 568.773 -184.072 561.312C-293.644 546.408 -407.608 513.016 -516.916 502.61C-571.292 497.409 -624.873 498.912 -670.635 512.056C-716.625 524.742 -752.187 549.194 -775.943 573.493C-823.153 623.304 -834.897 664.138 -836.191 663.226C-834.888 664.125 -823.333 623.272 -776.251 573.255C-752.559 548.844 -716.991 524.209 -670.892 511.356C-625.024 498.029 -571.273 496.378 -516.775 501.451C-407.226 511.584 -293.088 544.725 -183.725 559.363C-129.201 566.693 -75.438 569.37 -27.3802 561.729C20.5717 553.888 61.3155 536.567 95.1948 522.064C129.138 507.247 183.178 479.349 250.092 439.533C317.549 400.703 397.312 348.092 497.432 306.199C547.448 285.795 603.69 269.054 664.089 266.081C724.367 262.668 787.278 275.453 843.503 301.518C955.685 355.544 1043.46 446.201 1153.92 507.205C1263.43 572.013 1399.62 581.51 1518.55 572.475C1639.14 561.671 1746.47 520.703 1825.36 468.522C1984.59 362.922 2052 248.836 2067.38 227.854C2129.67 137.631 2167.81 20.3724 2167.33 20.4944Z" fill="url(#paint20_linear_211_5106)"/>
<path d="M2215.28 21.637C2215.83 21.4347 2179.36 141.948 2115.1 234.137C2099.26 255.508 2029.72 372.092 1865.53 478.761C1784.08 531.474 1673.2 571.929 1549.48 580.697C1427.67 588.319 1288.02 575.518 1178.13 505.788C1067.18 440.566 980.224 345.703 866.614 290.546C809.807 263.804 745.763 251.578 684.862 256.458C623.82 260.998 567.472 279.784 517.417 301.941C417.311 347.481 337.711 403.088 270.136 444.416C203.122 486.688 148.742 516.535 114.41 532.428C80.1198 548.019 39.0132 566.718 -10.3706 575.412C-59.7609 583.661 -114.93 580.794 -170.581 572.69C-282.205 556.421 -397.723 520.432 -508.896 507.602C-564.201 501.152 -618.895 501.515 -665.903 513.94C-713.103 525.932 -749.994 550.276 -774.463 574.915C-822.942 625.49 -834.924 667.2 -836.295 666.24C-834.914 667.19 -823.128 625.464 -774.771 574.664C-750.364 549.923 -713.46 525.383 -666.141 513.218C-619.017 500.613 -564.149 500.099 -508.717 506.418C-397.296 518.981 -281.595 554.7 -170.206 570.696C-114.674 578.678 -59.7802 581.41 -10.8426 573.168C37.9472 564.528 79.0185 545.858 113.148 530.325C147.361 514.483 201.603 484.716 268.582 442.467C336.135 401.164 415.744 345.517 516.214 299.812C566.445 277.572 623.111 258.661 684.647 254.073C746.052 249.157 810.686 261.502 867.869 288.43C982.224 344.004 1069.05 438.842 1179.63 503.801C1288.89 573.178 1427.79 585.879 1549.26 578.315C1672.49 569.575 1782.86 529.313 1863.96 476.831C2027.61 370.499 2096.99 254.236 2112.77 232.927C2176.8 141.139 2215.81 21.515 2215.28 21.637Z" fill="url(#paint21_linear_211_5106)"/>
</g>
</g>
<g opacity="0.2">
<mask id="mask1_211_5106" style="mask-type:luminance" maskUnits="userSpaceOnUse" x="-746" y="0" width="1920" height="729">
<path d="M-746 0H1174V728.829H-746V0Z" fill="white"/>
</mask>
<g mask="url(#mask1_211_5106)">
<path d="M-1045.11 509.655C-1045.37 509.815 -950.7 554.977 -861.728 574.607C-840.268 578.746 -734.469 608.958 -583.553 592.426C-508.702 584.075 -423.747 562.416 -340.731 521.997C-256.88 482.768 -178.959 421.582 -106.613 354.308C-33.7843 287.426 36.8575 216.004 115.279 159.341C193.203 103.109 280.434 61.6171 365.354 54.8971C451.202 47.7084 523.806 85.9767 569.064 125.876C615.68 165.952 642.968 205.335 659.731 228.375C728.854 319.491 797.74 507.568 923.551 621.037C954.425 648.941 988.548 670.996 1022.79 683.973C1056.97 697.217 1090.65 700.919 1118.44 699.503C1174.47 696.036 1206.38 679.07 1206.44 680.101C1206.37 679.067 1174.54 696.155 1118.46 699.815C1090.63 701.327 1056.88 697.731 1022.56 684.558C988.182 671.663 953.898 649.644 922.87 621.769C796.43 508.39 726.979 320.265 658.064 229.505C641.353 206.529 614.116 167.246 567.741 127.382C522.675 87.6848 450.714 49.7568 365.502 56.8846C281.186 63.5404 194.195 104.852 116.477 160.94C38.2413 217.471 -32.3588 288.832 -105.232 355.759C-177.608 423.072 -255.766 484.447 -339.835 523.782C-423.079 564.307 -508.262 586.031 -583.322 594.398C-734.646 610.978 -840.698 580.685 -862.207 576.537C-951.487 556.813 -1045.41 509.783 -1045.11 509.655Z" fill="url(#paint22_linear_211_5106)"/>
<path d="M-1045.12 482.697C-1045.35 482.848 -952.506 528.675 -865.065 549.785C-843.91 554.283 -740.143 586.095 -590.711 573.782C-516.582 567.505 -432.07 548.607 -348.878 511.099C-264.979 474.674 -186.024 416.795 -112.551 352.487C-38.5568 288.63 33.2987 220.161 112.125 166.084C190.453 112.43 276.58 72.0486 360.392 64.9851C445.046 57.2248 517.399 93.0948 563.167 131.469C610.134 169.988 638.253 208.035 655.424 230.365C726.04 318.688 801.874 500.604 926.654 611.479C957.429 638.718 991.039 660.564 1024.85 673.461C1058.58 686.519 1091.72 690.822 1119.2 689.627C1174.58 687.017 1206.35 670.784 1206.44 671.914C1206.35 670.78 1174.65 687.136 1119.21 689.929C1091.7 691.22 1058.48 687.02 1024.62 674.033C990.685 661.219 956.915 639.418 925.987 612.207C800.609 501.445 724.226 319.526 653.815 231.524C636.696 209.248 608.631 171.298 561.902 132.981C516.33 94.8028 444.619 59.2508 360.556 66.9436C277.322 73.9429 191.4 114.163 113.277 167.695C34.6312 221.645 -37.1825 290.058 -111.218 353.964C-184.743 418.307 -263.922 476.369 -348.046 512.888C-431.45 550.495 -516.2 569.444 -590.538 575.737C-740.362 588.085 -844.363 556.19 -865.57 551.692C-953.321 530.486 -1045.4 482.823 -1045.12 482.697Z" fill="url(#paint23_linear_211_5106)"/>
<path d="M-1045.11 455.736C-1045.35 455.887 -954.271 502.391 -868.304 524.93C-847.467 529.778 -745.678 563.077 -597.761 554.88C-524.351 550.638 -440.314 534.492 -356.945 500.035C-272.873 466.714 -193.241 411.67 -118.461 350.625C-43.2917 289.884 29.9412 224.601 109.12 173.06C187.969 122.225 272.693 82.2997 355.555 75.0467C439.036 66.7213 511.139 100.247 557.45 136.975C604.83 173.843 633.791 210.554 651.405 232.134C723.777 317.477 805.978 493.344 929.699 601.862C960.156 628.777 993.598 649.949 1026.83 663.052C1060.13 676.052 1092.76 680.701 1119.95 679.882C1174.7 678.1 1206.37 662.628 1206.45 663.735C1206.37 662.628 1174.77 678.219 1119.96 680.184C1092.74 681.096 1060.02 676.543 1026.6 663.623C993.245 650.597 959.645 629.471 929.044 602.591C804.748 494.198 722.018 318.373 649.848 233.325C632.279 211.797 603.379 175.188 556.24 138.503C510.118 101.952 438.654 68.7248 355.722 76.9827C273.418 84.1683 188.871 123.946 110.215 174.678C31.2029 226.107 -41.985 291.339 -117.202 352.127C-192.028 413.201 -271.884 468.422 -356.178 501.823C-439.785 536.38 -524.033 552.565 -597.629 556.819C-745.944 565.035 -847.958 531.66 -868.847 526.799C-955.099 504.17 -1045.39 455.862 -1045.11 455.736Z" fill="url(#paint24_linear_211_5106)"/>
<path d="M-1045.11 428.782C-1045.33 428.927 -955.972 476.134 -871.467 500.105C-850.925 505.309 -751.091 540.117 -604.686 536.065C-532.012 533.865 -448.473 520.48 -364.94 489.063C-280.781 458.754 -200.215 406.982 -124.24 349.086C-47.9215 291.461 26.5603 229.279 106.006 180.11C185.236 131.789 268.878 92.7022 350.739 84.99C433.058 76.167 505.026 107.048 551.921 142.124C599.748 177.339 629.543 212.686 647.629 233.488C721.982 315.676 810.033 485.634 932.601 592.137C962.827 618.663 995.974 639.392 1028.7 652.642C1061.6 665.604 1093.75 670.596 1120.66 670.157C1174.82 669.19 1206.39 654.469 1206.45 655.545C1206.39 654.469 1174.88 669.303 1120.66 670.455C1093.72 670.988 1061.49 666.095 1028.47 653.204C995.631 640.031 962.329 619.344 931.962 592.859C808.838 486.495 720.294 316.636 646.13 234.715C628.089 213.961 598.358 178.704 550.769 143.669C504.072 108.769 432.724 78.1448 350.925 86.9004C269.604 94.5451 186.11 133.504 107.059 181.732C27.7611 230.804 -46.6759 292.938 -123.046 350.605C-199.049 408.539 -279.853 460.469 -364.237 490.858C-447.988 522.355 -531.752 535.773 -604.619 537.985C-751.393 542.037 -851.445 507.156 -872.035 501.935C-956.817 477.874 -1045.38 428.901 -1045.11 428.782Z" fill="url(#paint25_linear_211_5106)"/>
<path d="M-1045.11 401.825C-1045.33 401.967 -957.628 449.896 -874.555 475.293C-854.311 480.863 -756.372 517.138 -611.502 517.234C-539.566 517.074 -456.541 506.452 -372.866 478.128C-288.65 450.869 -207.127 402.48 -129.983 347.799C-52.5154 293.352 23.1737 234.288 102.844 187.386C182.367 141.341 265.055 103.281 345.93 94.9079C427.176 85.6097 498.955 113.697 546.428 147.197C594.894 180.486 625.434 214.59 644.043 234.538C681.217 274.945 725.515 334.201 773.097 398.47C820.966 462.373 874.491 530.713 935.386 582.325C994.931 635.568 1067.74 662.127 1121.33 660.457C1174.92 660.297 1206.4 646.314 1206.44 647.364C1206.4 646.314 1174.98 660.415 1121.33 660.759C1067.68 662.611 994.578 636.219 934.759 583.047C873.599 531.525 819.816 463.236 771.787 399.427C724.047 335.235 679.695 276.117 642.608 235.81C624.037 215.9 593.565 181.883 545.333 148.764C498.069 115.428 426.887 87.5714 346.129 96.7958C265.765 105.095 183.208 143.046 103.846 189.01C24.3103 235.826 -51.3274 294.858 -128.863 349.34C-206.045 404.066 -287.796 452.59 -372.237 479.922C-456.13 508.324 -539.367 518.968 -611.495 519.128C-756.722 519.038 -854.86 482.677 -875.152 477.097C-958.502 451.604 -1045.37 401.941 -1045.11 401.825Z" fill="url(#paint26_linear_211_5106)"/>
<path d="M-1045.11 374.868C-1045.31 375.006 -959.244 423.681 -877.564 450.506C-857.603 456.439 -761.513 494.181 -618.184 498.4C-546.977 500.272 -464.523 492.419 -380.73 467.227C-296.472 443.057 -213.992 398.159 -135.673 346.739C-57.0562 295.545 19.7856 239.582 99.6519 194.851C179.425 150.947 261.218 113.87 341.129 104.636C421.409 94.5868 492.931 120.372 541.066 152.001C590.055 183.472 621.564 216.064 640.69 235.174C678.782 273.959 725.321 330.602 774.172 392.97C823.396 454.914 877.595 521.507 938.037 572.4C997.226 624.831 1068.92 651.477 1121.96 650.774C1175.01 651.412 1206.42 638.156 1206.44 639.173C1206.41 638.159 1175.07 651.535 1121.96 651.072C1068.86 651.955 996.876 625.473 937.411 573.113C876.719 522.323 822.272 455.797 772.894 393.953C723.896 331.678 677.318 275.179 639.3 236.468C620.222 217.403 588.78 184.894 540.025 153.58C492.096 122.103 421.165 96.5261 341.337 106.502C261.908 115.662 180.234 152.64 100.602 196.482C20.8612 241.143 -55.9518 297.07 -134.627 348.303C-212.987 399.761 -295.688 444.788 -380.168 469.025C-464.189 494.281 -546.855 502.153 -618.226 500.275C-761.908 496.047 -858.191 458.221 -878.197 452.278C-960.121 425.36 -1045.36 374.978 -1045.11 374.868Z" fill="url(#paint27_linear_211_5106)"/>
<path d="M-1045.11 347.915C-1045.31 348.044 -960.798 397.501 -880.47 425.746C-860.798 432.052 -766.496 471.248 -624.718 479.564C-554.266 483.468 -472.377 478.376 -388.497 456.36C-304.232 435.307 -220.808 394.027 -141.334 345.931C-61.609 298.027 16.4047 245.224 96.4603 202.599C176.404 160.709 257.329 124.229 336.374 114.411C415.675 103.407 487.01 126.903 535.839 156.519C585.412 186.083 617.843 217.159 637.496 235.399C676.66 272.409 725.247 326.506 775.312 387.025C825.72 447.155 880.665 511.992 940.544 562.374C999.487 613.938 1069.97 640.95 1122.56 641.11C1175.09 642.545 1206.44 629.995 1206.44 630.993C1206.43 629.995 1175.14 642.661 1122.54 641.399C1069.91 641.425 999.137 614.577 939.931 563.077C879.808 512.801 824.622 448.041 774.079 388.03C723.88 327.614 675.263 273.671 636.176 236.732C616.568 218.527 584.205 187.534 534.866 158.115C486.24 128.637 415.482 105.324 336.605 116.25C258.013 125.995 177.193 162.385 97.3658 204.227C17.4193 246.794 -60.5494 299.562 -140.348 347.517C-219.865 395.642 -303.523 437.051 -388.012 458.155C-472.104 480.225 -554.205 485.333 -624.83 481.42C-766.933 473.078 -861.424 433.802 -881.134 427.483C-961.694 399.145 -1045.35 348.018 -1045.11 347.915Z" fill="url(#paint28_linear_211_5106)"/>
<path d="M-1045.11 320.958C-1045.29 321.083 -962.305 371.347 -883.296 401.02C-863.903 407.701 -771.348 448.342 -631.124 460.749C-561.403 466.672 -480.128 464.341 -396.193 445.54C-311.935 427.65 -227.596 390.081 -146.992 345.382C13.0619 256.041 174.287 148.553 331.628 124.039C409.972 112.375 481.198 133.097 530.669 160.831C580.958 188.237 614.202 217.943 634.48 235.158C674.707 270.36 725.343 321.809 776.474 380.632C828.012 438.999 883.531 502.314 942.942 552.196C1001.56 603.082 1070.98 630.438 1123.1 631.468C1175.16 633.693 1206.46 621.836 1206.44 622.815C1206.45 621.836 1175.22 633.809 1123.09 631.751C1070.9 630.9 1001.22 603.708 942.335 552.896C882.693 503.124 826.943 439.892 775.276 381.653C724.027 322.955 673.381 271.677 633.228 236.529C612.998 219.352 579.821 189.72 529.767 162.449C480.495 134.843 409.834 114.275 331.878 125.866C175.283 150.229 14.0315 257.579 -146.077 346.99C-226.726 391.725 -311.303 429.403 -395.779 447.344C-479.913 466.188 -561.4 468.531 -631.281 462.588C-771.833 450.153 -864.568 409.429 -883.989 402.734C-963.226 372.968 -1045.33 321.057 -1045.11 320.958Z" fill="url(#paint29_linear_211_5106)"/>
<path d="M-1045.11 294.007C-1045.29 294.12 -963.747 345.244 -886.026 376.339C-866.906 383.409 -776.037 425.505 -637.36 441.969C-568.391 449.916 -487.732 450.333 -403.775 434.787C-319.575 420.066 -234.334 386.357 -152.66 345.07C10.0553 262.86 171.608 160.086 326.91 133.52C404.445 120.889 475.414 139.162 525.601 164.831C576.497 190.144 610.829 218.065 631.583 234.423C672.963 267.667 725.432 316.595 777.59 373.784C830.252 430.398 886.16 492.467 945.192 541.854C1003.45 592.233 1071.9 619.923 1123.59 621.826C1175.21 624.848 1206.47 613.674 1206.43 614.628C1206.46 613.674 1175.26 624.96 1123.57 622.112C1071.81 620.388 1003.1 592.856 944.585 542.557C885.328 493.276 829.202 431.313 776.427 374.824C724.16 317.779 671.701 269.028 630.392 235.839C609.689 219.516 575.428 191.666 524.766 166.465C474.779 140.921 404.352 122.777 327.183 135.334C250.039 146.437 170.966 182.352 90.6439 220.248C10.3475 258.972 -69.8365 305.511 -151.819 346.701C-233.563 388.023 -319.022 421.829 -403.441 436.588C-487.6 452.176 -568.452 451.755 -637.579 443.793C-776.567 427.28 -867.609 385.111 -886.765 378.031C-964.695 346.833 -1045.32 294.097 -1045.11 294.007Z" fill="url(#paint30_linear_211_5106)"/>
<path d="M-1045.11 267.044C-1045.28 267.163 -965.146 319.173 -888.663 351.707C-869.817 359.175 -780.565 402.715 -643.449 423.245C-575.215 433.207 -495.205 436.367 -411.277 424.105C-327.172 412.579 -241.074 382.864 -158.351 344.997C-75.4021 307.351 5.80945 263.853 86.366 226.872C167 190.803 245.366 154.923 322.211 142.857C398.979 129.221 469.717 145.021 520.633 168.472C572.184 191.567 607.495 217.769 628.753 233.203C671.243 264.453 725.54 310.793 778.641 366.473C832.36 421.44 888.631 482.386 947.274 531.404C1005.19 581.362 1072.74 609.424 1124.03 612.194C1175.24 616.009 1206.48 605.513 1206.44 606.444C1206.48 605.513 1175.29 616.121 1124.01 612.48C1072.65 609.883 1004.84 581.972 946.677 532.1C887.815 483.195 831.339 422.358 777.518 367.539C724.32 312.01 670.065 265.862 627.639 234.654C606.426 219.249 571.198 193.118 519.872 170.129C469.152 146.784 398.928 131.084 322.513 144.652C246.041 156.638 167.748 192.459 87.1525 228.512C6.6731 265.467 -74.5353 308.963 -157.58 346.647C-240.358 384.552 -326.685 414.348 -411.001 425.906C-495.144 438.194 -575.334 435.025 -643.713 425.043C-781.127 404.465 -870.536 360.838 -889.424 353.37C-966.105 320.737 -1045.32 267.137 -1045.11 267.044Z" fill="url(#paint31_linear_211_5106)"/>
<path d="M-1045.11 240.09C-1045.28 240.199 -966.494 293.156 -891.219 327.138C-872.623 334.992 -784.926 380.006 -649.36 404.584C-581.881 416.557 -502.541 422.448 -418.681 413.503C-334.702 405.223 -247.817 379.556 -164.098 345.183C-80.1316 311.098 2.07837 270.611 82.7987 235.303C163.769 201.144 241.343 165.133 317.524 152.036C393.559 137.402 464.089 150.701 515.736 171.76C567.907 192.604 604.181 217.031 625.982 231.456C669.628 260.597 725.504 304.551 779.582 358.722C834.315 412.122 890.926 472.063 949.181 520.834C1006.77 570.452 1073.49 598.937 1124.42 602.581C1175.26 607.186 1206.5 597.354 1206.44 598.263C1206.49 597.348 1175.3 607.298 1124.39 602.857C1073.4 599.396 1006.42 571.055 948.584 521.521C890.12 472.869 833.307 413.054 778.487 359.807C724.316 305.79 668.514 262.048 624.939 232.943C603.183 218.549 566.995 194.19 515.049 173.436C463.601 152.483 393.556 139.258 317.841 153.818C242.014 166.838 164.485 202.804 83.55 236.953C2.86182 272.239 -79.3386 312.735 -163.398 346.855C-247.207 381.261 -334.288 406.992 -418.482 415.301C-502.554 424.265 -582.074 418.361 -649.691 406.362C-785.552 381.733 -873.397 336.639 -892.012 328.769C-967.477 294.691 -1045.31 240.173 -1045.11 240.09Z" fill="url(#paint32_linear_211_5106)"/>
<path d="M-1045.11 213.136C-1045.27 213.239 -967.779 267.182 -893.669 302.641C-875.346 310.893 -789.138 357.393 -655.12 386.01C-588.383 400.012 -509.717 408.585 -425.982 403.011C-342.147 398.025 -254.614 376.381 -169.909 345.62C-84.9734 315.147 -1.81946 277.63 79.1223 243.901C160.295 211.21 237.314 175.395 312.82 161.04C388.181 145.355 458.525 156.089 510.875 174.669C563.643 193.198 600.865 215.788 623.202 229.171C667.988 256.131 725.321 297.783 780.375 350.522C836.078 402.446 893.023 461.51 950.902 510.117C1008.2 559.491 1074.15 588.464 1124.75 592.966C1175.25 598.376 1206.52 589.187 1206.44 590.079C1206.51 589.187 1175.29 598.485 1124.71 593.245C1074.05 588.917 1007.85 560.088 950.311 510.807C892.226 462.316 835.092 403.387 779.312 351.627C724.181 299.048 666.951 257.621 622.238 230.699C599.953 217.346 562.821 194.823 510.268 176.371C458.114 157.874 388.239 147.198 313.179 162.802C237.998 177.087 161.008 212.857 79.8352 245.552C-1.07458 279.274 -84.251 316.794 -169.286 347.308C-254.084 378.102 -341.826 399.807 -425.857 404.799C-509.798 410.386 -588.627 401.794 -655.503 387.763C-789.803 359.085 -876.123 312.504 -894.498 304.24C-968.783 268.691 -1045.29 213.22 -1045.11 213.136Z" fill="url(#paint33_linear_211_5106)"/>
<path d="M-1045.11 186.183C-1045.26 186.276 -969.024 241.262 -896.045 278.208C-877.959 286.867 -793.203 334.88 -660.729 367.539C-594.724 383.586 -516.768 394.763 -433.187 392.615C-349.564 390.955 -261.456 373.412 -175.827 346.307C-89.9885 319.472 -5.87451 284.909 75.292 252.657C156.706 221.34 233.268 185.621 308.167 170.055C382.836 153.051 453.034 161.133 506.03 177.199C559.379 193.343 597.519 214.039 620.373 226.355C666.225 251.122 724.971 290.531 780.969 341.915C837.654 392.4 894.901 450.735 952.446 499.265C1009.48 548.472 1074.71 577.991 1125.02 583.34C1175.23 589.563 1206.53 581.013 1206.44 581.892C1206.53 581.016 1175.27 589.675 1124.99 583.623C1074.6 578.434 1009.13 549.066 951.855 499.949C894.105 451.547 836.684 393.353 779.935 343.038C723.867 291.828 665.249 252.651 619.477 227.922C596.678 215.625 558.634 194.99 505.504 178.91C452.704 162.921 382.945 154.878 308.553 171.808C233.955 187.297 157.422 222.984 75.9888 254.314C-5.18103 286.562 -89.324 321.141 -175.268 348.012C-261.003 375.149 -349.307 392.74 -433.142 394.403C-516.916 396.561 -595.026 385.355 -661.169 369.27C-793.906 336.553 -878.781 288.46 -896.899 279.788C-970.042 242.746 -1045.29 186.253 -1045.11 186.183Z" fill="url(#paint34_linear_211_5106)"/>
<path d="M-1045.11 159.222C-1045.25 159.315 -970.212 215.399 -898.328 253.867C-880.486 262.94 -797.123 312.504 -666.178 349.193C-600.914 367.298 -523.668 381.065 -440.315 382.362C-356.93 384.025 -268.343 370.643 -181.844 347.231C-95.1643 324.078 -10.1031 292.437 71.3331 261.576C153.039 231.617 229.139 195.66 303.483 178.849C377.544 160.782 447.566 165.627 501.124 179.459C555.07 192.947 594.074 211.816 617.406 223.063C664.273 245.596 724.361 282.859 781.335 332.898C839.003 382.022 896.57 439.734 953.798 488.28C1010.6 537.407 1075.17 567.52 1125.23 573.73C1175.18 580.768 1206.54 572.86 1206.44 573.711C1206.53 572.85 1175.21 580.877 1125.19 574.006C1075.05 567.957 1010.25 537.985 953.204 488.961C895.774 440.543 838.046 382.982 780.324 334.041C723.292 284.176 663.367 247.16 616.587 224.662C593.31 213.447 554.409 194.632 500.678 181.196C447.313 167.422 377.698 162.596 303.894 180.586C229.836 197.323 153.745 233.254 71.9945 263.242C-9.46423 294.107 -94.5735 325.77 -181.368 348.955C-267.98 372.403 -356.769 385.814 -440.344 384.147C-523.886 382.847 -601.29 369.051 -666.666 350.904C-797.855 314.154 -881.35 264.513 -899.217 255.427C-971.259 216.854 -1045.29 159.296 -1045.11 159.222Z" fill="url(#paint35_linear_211_5106)"/>
<path d="M-1045.11 132.269C-1045.24 132.355 -971.352 189.592 -900.533 229.607C-882.935 239.105 -800.898 290.245 -671.478 330.969C-606.969 351.136 -530.439 367.478 -447.368 372.227C-364.291 377.197 -275.329 368.037 -188.014 348.365C-100.558 328.914 -14.5463 300.185 67.2207 270.64C149.251 241.908 225.001 205.774 298.786 187.486C372.292 167.988 442.061 170.136 496.174 181.376C550.618 192.27 590.485 209.097 614.244 219.352C662.045 239.66 723.53 274.67 781.454 323.492C840.12 371.292 898.006 428.514 954.967 477.14C1011.58 526.26 1075.54 557.028 1125.39 564.105C1175.12 571.974 1206.56 564.686 1206.44 565.524C1206.55 564.683 1175.14 572.083 1125.34 564.381C1075.41 557.468 1011.22 526.841 954.376 477.817C897.22 429.32 839.173 372.253 780.469 324.647C722.5 276.015 661.207 241.256 613.503 220.983C589.804 210.754 550.046 193.978 495.818 183.123C441.897 171.937 372.501 169.789 299.239 189.214C225.714 207.428 149.961 243.552 67.8436 272.319C-13.9426 301.871 -100.028 330.635 -187.603 350.108C-275.043 369.809 -364.198 378.989 -447.461 374.009C-530.718 369.247 -607.383 352.876 -672.027 332.671C-801.685 291.876 -883.821 240.652 -901.451 231.145C-972.44 191.034 -1045.28 132.333 -1045.11 132.269Z" fill="url(#paint36_linear_211_5106)"/>
<path d="M-1045.11 105.312C-1045.24 105.395 -972.456 163.856 -902.671 205.45C-885.307 215.378 -804.561 268.152 -676.66 312.912C-612.86 335.057 -537.1 354.118 -454.344 362.213C-371.633 370.57 -282.386 365.603 -194.348 349.697C-106.189 333.987 -19.214 308.157 62.9319 279.858C145.363 252.326 220.789 215.776 294.035 195.921C367.03 174.929 436.536 174.329 491.134 182.93C546.014 191.172 586.671 205.97 610.851 215.204C659.513 233.3 722.388 266.052 781.285 313.696C840.972 360.219 899.201 417.08 955.941 465.851C1012.39 515.042 1075.8 546.53 1125.47 554.476C1175.02 563.187 1206.57 556.518 1206.43 557.343C1206.56 556.512 1175.05 563.305 1125.43 554.746C1075.67 546.963 1012.03 515.617 955.35 466.522C898.411 417.886 840.041 361.195 780.331 314.871C721.389 267.43 658.745 234.931 610.186 216.867C586.071 207.653 545.536 192.903 490.857 184.693C436.449 176.13 367.287 176.721 294.526 197.635C221.521 217.416 146.067 253.967 63.5226 281.534C-18.6617 309.853 -105.73 335.715 -194.027 351.454C-282.196 367.379 -371.633 372.355 -454.531 363.982C-537.447 355.872 -613.361 336.768 -677.27 314.595C-805.393 269.754 -886.248 216.899 -903.631 206.962C-973.563 165.271 -1045.27 105.376 -1045.11 105.312Z" fill="url(#paint37_linear_211_5106)"/>
<path d="M-1045.11 78.3545C-1045.23 78.4315 -973.526 138.18 -904.73 181.399C-887.608 191.763 -808.108 246.22 -681.715 295.026C-618.647 319.144 -543.645 340.929 -461.278 352.353C-378.974 364.027 -289.557 363.378 -200.858 351.216C-112.056 339.25 -24.1149 316.325 58.4612 289.208C141.5 263.175 216.447 225.523 289.234 204.176C361.741 181.697 430.977 178.31 485.976 184.157C541.222 189.721 582.608 202.467 607.193 210.677C656.657 226.564 720.9 257.056 780.818 303.553C841.542 348.866 900.173 405.426 956.735 454.411C1013.07 503.75 1075.97 536.011 1125.51 544.831C1174.91 554.399 1206.59 548.34 1206.44 549.162C1206.58 548.34 1174.93 554.518 1125.45 545.101C1075.83 536.445 1012.7 504.325 956.142 455.085C899.389 406.225 840.617 349.848 779.893 304.748C719.946 258.456 655.954 228.22 606.608 212.36C582.101 204.175 540.844 191.474 485.796 185.929C430.98 180.114 362.062 183.476 289.77 205.884C217.195 227.158 142.206 264.822 59.0391 290.903C-23.6108 318.043 -111.658 341 -200.61 352.988C-289.447 365.167 -379.045 365.812 -461.525 354.115C-544.069 342.669 -619.187 320.846 -682.37 296.685C-808.968 247.802 -888.571 193.272 -905.726 182.895C-974.663 139.576 -1045.26 78.4123 -1045.11 78.3545Z" fill="url(#paint38_linear_211_5106)"/>
<path d="M-1045.11 51.4004C-1045.23 51.4742 -974.553 112.574 -906.74 157.45C-889.835 168.26 -811.545 224.451 -686.675 277.312C-624.304 303.412 -550.098 327.896 -468.164 342.65C-386.313 357.589 -296.851 361.307 -207.574 352.885C-118.197 344.672 -29.2675 324.67 53.8096 298.689C137.384 273.793 212.126 235.412 284.386 212.298C356.402 188.131 425.362 182.002 480.672 185.059C536.208 187.984 578.259 198.666 603.231 205.793C653.437 219.487 719.035 247.712 780.032 293.076C841.838 337.185 900.908 393.552 957.343 442.814C1013.6 492.381 1076.04 525.467 1125.49 535.173C1174.77 545.624 1206.6 540.175 1206.44 540.984C1206.6 540.175 1174.8 545.739 1125.43 535.449C1075.9 525.9 1013.23 492.949 956.749 443.491C900.125 394.358 840.926 338.187 779.13 294.29C718.126 249.144 652.798 221.179 602.724 207.508C577.828 200.406 535.916 189.762 480.583 186.844C425.455 183.807 356.775 189.9 284.967 213.997C212.897 237.04 138.106 275.443 54.3617 300.4C-28.8147 326.41 -117.86 346.435 -207.384 354.667C-296.831 363.105 -386.471 359.387 -468.485 344.412C-550.586 329.633 -624.917 305.104 -687.381 278.959C-812.451 226.018 -890.846 169.75 -907.777 158.92C-975.712 113.945 -1045.25 51.4518 -1045.11 51.4004Z" fill="url(#paint39_linear_211_5106)"/>
<path d="M-1045.11 24.4434C-1045.23 24.5172 -975.538 87.0199 -908.701 133.614C-892.002 144.858 -814.907 202.881 -691.548 259.785C-629.89 287.878 -556.5 315.057 -475.038 333.111C-393.679 351.328 -304.299 359.368 -214.486 354.67C-124.628 350.23 -34.7059 333.152 48.9425 308.266C133.169 284.546 207.693 245.173 279.465 220.271C350.989 194.334 419.647 185.367 475.189 185.691C530.933 185.974 573.587 194.585 598.929 200.627C649.826 212.128 716.753 238.083 778.902 282.292C841.854 325.209 901.413 381.467 957.77 431.059C1014 480.915 1076.02 514.888 1125.41 525.493C1174.61 536.833 1206.61 531.994 1206.43 532.794C1206.61 531.988 1174.64 536.952 1125.34 525.762C1075.87 515.315 1013.62 481.48 957.173 431.731C900.629 382.276 840.943 326.224 778.022 283.528C715.886 239.544 649.247 213.843 598.496 202.364C573.247 196.341 530.737 187.759 475.182 187.473C419.82 187.155 351.42 196.088 280.081 221.947C208.498 246.778 133.885 286.196 49.4755 309.978C-34.2949 334.902 -124.362 352.006 -214.383 356.456C-304.37 361.163 -393.919 353.107 -475.429 334.854C-557.058 316.762 -630.561 289.545 -692.312 261.406C-815.867 204.416 -893.058 146.318 -909.773 135.058C-976.745 88.3748 -1045.25 24.4979 -1045.11 24.4434Z" fill="url(#paint40_linear_211_5106)"/>
<path d="M-1045.11 -2.51074C-1045.23 -2.43369 -976.498 61.5267 -910.624 109.893C-894.121 121.557 -818.23 181.514 -696.348 242.437C-575.539 303.524 -403.205 359.766 -221.64 356.545C-131.367 355.881 -40.4501 341.763 43.8502 317.94C128.809 295.404 203.168 254.866 274.43 228.092C345.547 200.499 413.784 188.494 469.506 186.153C525.395 183.781 568.591 190.282 594.274 195.24C645.806 204.551 714.065 228.188 777.428 271.227C841.578 312.954 901.692 369.183 958.027 419.154C1014.27 469.369 1075.91 504.286 1125.27 515.799C1174.43 528.048 1206.63 523.823 1206.43 524.61C1206.63 523.82 1174.45 528.17 1125.2 516.069C1075.75 504.713 1013.87 469.928 957.42 419.831C900.899 369.992 840.673 313.978 776.571 272.486C713.24 229.687 645.282 206.291 593.921 196.999C568.328 192.058 525.289 185.579 469.593 187.948C414.054 190.282 346.035 202.239 275.101 229.758C204.003 256.471 129.534 297.064 44.3639 319.67C-40.0743 343.529 -131.172 357.675 -221.627 358.34C-403.542 361.567 -576.194 305.213 -697.177 244.042C-819.235 183.033 -895.213 122.996 -911.735 111.315C-977.731 62.8656 -1045.25 -2.45295 -1045.11 -2.51074Z" fill="url(#paint41_linear_211_5106)"/>
<path d="M-1045.11 -29.4707C-1045.24 -29.384 -977.445 36.1175 -912.547 86.3169C-896.23 98.4052 -821.569 160.442 -701.161 225.388C-581.81 290.325 -411.347 353.746 -229.047 358.581C-138.428 361.654 -46.4894 350.503 38.5237 327.72C124.33 306.42 198.506 264.437 269.264 235.695C339.983 206.362 407.725 191.182 463.569 186.301C519.538 181.331 563.204 185.784 589.204 189.663C641.307 196.832 710.915 218.055 775.563 259.91C840.99 300.41 901.727 356.684 958.098 407.095C1014.4 457.728 1075.71 493.643 1125.08 506.081C1174.23 519.267 1206.64 515.646 1206.43 516.429C1206.64 515.646 1174.25 519.389 1125.01 506.351C1075.54 494.073 1014 458.28 957.491 407.766C900.937 357.502 840.095 301.45 774.734 261.197C710.135 219.59 640.851 198.602 588.931 191.448C563.024 187.586 519.522 183.148 463.743 188.106C408.075 192.967 340.535 208.096 269.974 237.358C199.377 266.03 125.052 308.096 39.0084 329.463C-46.1715 352.292 -138.303 363.474 -229.111 360.392C-411.777 355.541 -582.529 292.001 -702.041 226.978C-822.619 161.939 -897.351 99.8307 -913.697 87.7296C-978.707 37.4275 -1045.26 -29.4033 -1045.11 -29.4707Z" fill="url(#paint42_linear_211_5106)"/>
<path d="M-1045.11 -56.4248C-1045.26 -56.3156 -978.396 10.8009 -914.387 62.7789C-898.311 75.3906 -824.706 139.306 -705.814 208.301C-587.83 276.946 -419.567 348.002 -236.618 360.53C-145.732 367.295 -52.7601 359.265 33.0524 337.58C119.812 317.644 193.761 273.834 264.014 243.118C334.325 211.929 401.542 193.686 457.446 186.288C513.418 178.756 557.498 181.17 583.794 183.976C636.427 188.985 707.329 207.803 773.354 248.39C840.133 287.621 901.557 344.001 958.017 394.891C1014.42 445.995 1075.43 482.96 1124.85 496.336C1174.01 510.479 1206.66 507.468 1206.43 508.245C1206.65 507.468 1174.02 510.598 1124.77 496.612C1075.25 483.394 1014.01 446.554 957.404 395.565C900.767 344.823 839.24 288.674 772.548 249.7C706.606 209.37 636.029 190.774 583.595 185.784C557.405 182.988 513.499 180.583 457.7 188.089C401.981 195.458 334.948 213.65 264.775 244.771C194.679 275.408 120.56 319.327 33.5178 339.336C-52.4937 361.072 -145.668 369.122 -236.759 362.347C-420.084 349.784 -588.607 278.599 -706.738 209.871C-825.797 140.776 -899.483 76.7968 -915.569 64.1659C-979.699 12.1012 -1045.28 -56.3349 -1045.11 -56.4248Z" fill="url(#paint43_linear_211_5106)"/>
</g>
</g>
<defs>
<linearGradient id="paint0_linear_211_5106" x1="-824.893" y1="272.171" x2="1198.86" y2="328.858" gradientUnits="userSpaceOnUse">
<stop stop-color="#600F25"/>
<stop offset="0.3333" stop-color="#DC1F26"/>
<stop offset="0.6848" stop-color="#F78C1E"/>
<stop offset="1" stop-color="#FDBA12"/>
</linearGradient>
<linearGradient id="paint1_linear_211_5106" x1="-824.954" y1="273.562" x2="1246.89" y2="331.596" gradientUnits="userSpaceOnUse">
<stop stop-color="#600F25"/>
<stop offset="0.3333" stop-color="#DC1F26"/>
<stop offset="0.6848" stop-color="#F78C1E"/>
<stop offset="1" stop-color="#FDBA12"/>
</linearGradient>
<linearGradient id="paint2_linear_211_5106" x1="-825.007" y1="274.949" x2="1294.67" y2="334.324" gradientUnits="userSpaceOnUse">
<stop stop-color="#600F25"/>
<stop offset="0.3333" stop-color="#DC1F26"/>
<stop offset="0.6848" stop-color="#F78C1E"/>
<stop offset="1" stop-color="#FDBA12"/>
</linearGradient>
<linearGradient id="paint3_linear_211_5106" x1="-825.063" y1="276.408" x2="1342.55" y2="337.126" gradientUnits="userSpaceOnUse">
<stop stop-color="#600F25"/>
<stop offset="0.3333" stop-color="#DC1F26"/>
<stop offset="0.6848" stop-color="#F78C1E"/>
<stop offset="1" stop-color="#FDBA12"/>
</linearGradient>
<linearGradient id="paint4_linear_211_5106" x1="-825.12" y1="277.733" x2="1390.52" y2="339.796" gradientUnits="userSpaceOnUse">
<stop stop-color="#600F25"/>
<stop offset="0.3333" stop-color="#DC1F26"/>
<stop offset="0.6848" stop-color="#F78C1E"/>
<stop offset="1" stop-color="#FDBA12"/>
</linearGradient>
<linearGradient id="paint5_linear_211_5106" x1="-825.177" y1="279.176" x2="1438.41" y2="342.582" gradientUnits="userSpaceOnUse">
<stop stop-color="#600F25"/>
<stop offset="0.3333" stop-color="#DC1F26"/>
<stop offset="0.6848" stop-color="#F78C1E"/>
<stop offset="1" stop-color="#FDBA12"/>
</linearGradient>
<linearGradient id="paint6_linear_211_5106" x1="-825.234" y1="280.511" x2="1486.35" y2="345.261" gradientUnits="userSpaceOnUse">
<stop stop-color="#600F25"/>
<stop offset="0.3333" stop-color="#DC1F26"/>
<stop offset="0.6848" stop-color="#F78C1E"/>
<stop offset="1" stop-color="#FDBA12"/>
</linearGradient>
<linearGradient id="paint7_linear_211_5106" x1="-825.289" y1="281.91" x2="1534.32" y2="348.005" gradientUnits="userSpaceOnUse">
<stop stop-color="#600F25"/>
<stop offset="0.3333" stop-color="#DC1F26"/>
<stop offset="0.6848" stop-color="#F78C1E"/>
<stop offset="1" stop-color="#FDBA12"/>
</linearGradient>
<linearGradient id="paint8_linear_211_5106" x1="-825.345" y1="283.29" x2="1582.19" y2="350.728" gradientUnits="userSpaceOnUse">
<stop stop-color="#600F25"/>
<stop offset="0.3333" stop-color="#DC1F26"/>
<stop offset="0.6848" stop-color="#F78C1E"/>
<stop offset="1" stop-color="#FDBA12"/>
</linearGradient>
<linearGradient id="paint9_linear_211_5106" x1="-825.402" y1="284.679" x2="1630.12" y2="353.461" gradientUnits="userSpaceOnUse">
<stop stop-color="#600F25"/>
<stop offset="0.3333" stop-color="#DC1F26"/>
<stop offset="0.6848" stop-color="#F78C1E"/>
<stop offset="1" stop-color="#FDBA12"/>
</linearGradient>
<linearGradient id="paint10_linear_211_5106" x1="-825.455" y1="286.071" x2="1678.04" y2="356.197" gradientUnits="userSpaceOnUse">
<stop stop-color="#600F25"/>
<stop offset="0.3333" stop-color="#DC1F26"/>
<stop offset="0.6848" stop-color="#F78C1E"/>
<stop offset="1" stop-color="#FDBA12"/>
</linearGradient>
<linearGradient id="paint11_linear_211_5106" x1="-825.51" y1="287.454" x2="1726.06" y2="358.927" gradientUnits="userSpaceOnUse">
<stop stop-color="#600F25"/>
<stop offset="0.3333" stop-color="#DC1F26"/>
<stop offset="0.6848" stop-color="#F78C1E"/>
<stop offset="1" stop-color="#FDBA12"/>
</linearGradient>
<linearGradient id="paint12_linear_211_5106" x1="-825.57" y1="288.91" x2="1773.85" y2="361.723" gradientUnits="userSpaceOnUse">
<stop stop-color="#600F25"/>
<stop offset="0.3333" stop-color="#DC1F26"/>
<stop offset="0.6848" stop-color="#F78C1E"/>
<stop offset="1" stop-color="#FDBA12"/>
</linearGradient>
<linearGradient id="paint13_linear_211_5106" x1="-825.626" y1="290.26" x2="1821.93" y2="364.422" gradientUnits="userSpaceOnUse">
<stop stop-color="#600F25"/>
<stop offset="0.3333" stop-color="#DC1F26"/>
<stop offset="0.6848" stop-color="#F78C1E"/>
<stop offset="1" stop-color="#FDBA12"/>
</linearGradient>
<linearGradient id="paint14_linear_211_5106" x1="-825.687" y1="291.707" x2="1869.67" y2="367.207" gradientUnits="userSpaceOnUse">
<stop stop-color="#600F25"/>
<stop offset="0.3333" stop-color="#DC1F26"/>
<stop offset="0.6848" stop-color="#F78C1E"/>
<stop offset="1" stop-color="#FDBA12"/>
</linearGradient>
<linearGradient id="paint15_linear_211_5106" x1="-825.74" y1="293.032" x2="1917.62" y2="369.877" gradientUnits="userSpaceOnUse">
<stop stop-color="#600F25"/>
<stop offset="0.3333" stop-color="#DC1F26"/>
<stop offset="0.6848" stop-color="#F78C1E"/>
<stop offset="1" stop-color="#FDBA12"/>
</linearGradient>
<linearGradient id="paint16_linear_211_5106" x1="-825.796" y1="294.443" x2="1965.52" y2="372.631" gradientUnits="userSpaceOnUse">
<stop stop-color="#600F25"/>
<stop offset="0.3333" stop-color="#DC1F26"/>
<stop offset="0.6848" stop-color="#F78C1E"/>
<stop offset="1" stop-color="#FDBA12"/>
</linearGradient>
<linearGradient id="paint17_linear_211_5106" x1="-825.85" y1="295.854" x2="2013.44" y2="375.386" gradientUnits="userSpaceOnUse">
<stop stop-color="#600F25"/>
<stop offset="0.3333" stop-color="#DC1F26"/>
<stop offset="0.6848" stop-color="#F78C1E"/>
<stop offset="1" stop-color="#FDBA12"/>
</linearGradient>
<linearGradient id="paint18_linear_211_5106" x1="-825.908" y1="297.267" x2="2061.34" y2="378.142" gradientUnits="userSpaceOnUse">
<stop stop-color="#600F25"/>
<stop offset="0.3333" stop-color="#DC1F26"/>
<stop offset="0.6848" stop-color="#F78C1E"/>
<stop offset="1" stop-color="#FDBA12"/>
</linearGradient>
<linearGradient id="paint19_linear_211_5106" x1="-825.96" y1="298.676" x2="2109.26" y2="380.895" gradientUnits="userSpaceOnUse">
<stop stop-color="#600F25"/>
<stop offset="0.3333" stop-color="#DC1F26"/>
<stop offset="0.6848" stop-color="#F78C1E"/>
<stop offset="1" stop-color="#FDBA12"/>
</linearGradient>
<linearGradient id="paint20_linear_211_5106" x1="-826.02" y1="300.084" x2="2157.16" y2="383.646" gradientUnits="userSpaceOnUse">
<stop stop-color="#600F25"/>
<stop offset="0.3333" stop-color="#DC1F26"/>
<stop offset="0.6848" stop-color="#F78C1E"/>
<stop offset="1" stop-color="#FDBA12"/>
</linearGradient>
<linearGradient id="paint21_linear_211_5106" x1="-826.075" y1="301.492" x2="2205.06" y2="386.398" gradientUnits="userSpaceOnUse">
<stop stop-color="#600F25"/>
<stop offset="0.3333" stop-color="#DC1F26"/>
<stop offset="0.6848" stop-color="#F78C1E"/>
<stop offset="1" stop-color="#FDBA12"/>
</linearGradient>
<linearGradient id="paint22_linear_211_5106" x1="1206.44" y1="377.076" x2="-1045.11" y2="377.076" gradientUnits="userSpaceOnUse">
<stop stop-color="#600F25"/>
<stop offset="0.3333" stop-color="#DC1F26"/>
<stop offset="0.6848" stop-color="#F78C1E"/>
<stop offset="1" stop-color="#FDBA12"/>
</linearGradient>
<linearGradient id="paint23_linear_211_5106" x1="1206.44" y1="377.035" x2="-1045.11" y2="377.035" gradientUnits="userSpaceOnUse">
<stop stop-color="#600F25"/>
<stop offset="0.3333" stop-color="#DC1F26"/>
<stop offset="0.6848" stop-color="#F78C1E"/>
<stop offset="1" stop-color="#FDBA12"/>
</linearGradient>
<linearGradient id="paint24_linear_211_5106" x1="1206.44" y1="377.027" x2="-1045.11" y2="377.027" gradientUnits="userSpaceOnUse">
<stop stop-color="#600F25"/>
<stop offset="0.3333" stop-color="#DC1F26"/>
<stop offset="0.6848" stop-color="#F78C1E"/>
<stop offset="1" stop-color="#FDBA12"/>
</linearGradient>
<linearGradient id="paint25_linear_211_5106" x1="1206.44" y1="376.983" x2="-1045.11" y2="376.983" gradientUnits="userSpaceOnUse">
<stop stop-color="#600F25"/>
<stop offset="0.3333" stop-color="#DC1F26"/>
<stop offset="0.6848" stop-color="#F78C1E"/>
<stop offset="1" stop-color="#FDBA12"/>
</linearGradient>
<linearGradient id="paint26_linear_211_5106" x1="1206.44" y1="376.98" x2="-1045.11" y2="376.98" gradientUnits="userSpaceOnUse">
<stop stop-color="#600F25"/>
<stop offset="0.3333" stop-color="#DC1F26"/>
<stop offset="0.6848" stop-color="#F78C1E"/>
<stop offset="1" stop-color="#FDBA12"/>
</linearGradient>
<linearGradient id="paint27_linear_211_5106" x1="1206.44" y1="376.764" x2="-1045.11" y2="376.764" gradientUnits="userSpaceOnUse">
<stop stop-color="#600F25"/>
<stop offset="0.3333" stop-color="#DC1F26"/>
<stop offset="0.6848" stop-color="#F78C1E"/>
<stop offset="1" stop-color="#FDBA12"/>
</linearGradient>
<linearGradient id="paint28_linear_211_5106" x1="1206.44" y1="376.569" x2="-1045.11" y2="376.569" gradientUnits="userSpaceOnUse">
<stop stop-color="#600F25"/>
<stop offset="0.3333" stop-color="#DC1F26"/>
<stop offset="0.6848" stop-color="#F78C1E"/>
<stop offset="1" stop-color="#FDBA12"/>
</linearGradient>
<linearGradient id="paint29_linear_211_5106" x1="1206.44" y1="376.355" x2="-1045.11" y2="376.355" gradientUnits="userSpaceOnUse">
<stop stop-color="#600F25"/>
<stop offset="0.3333" stop-color="#DC1F26"/>
<stop offset="0.6848" stop-color="#F78C1E"/>
<stop offset="1" stop-color="#FDBA12"/>
</linearGradient>
<linearGradient id="paint30_linear_211_5106" x1="1206.44" y1="375.997" x2="-1045.11" y2="375.997" gradientUnits="userSpaceOnUse">
<stop stop-color="#600F25"/>
<stop offset="0.3333" stop-color="#DC1F26"/>
<stop offset="0.6848" stop-color="#F78C1E"/>
<stop offset="1" stop-color="#FDBA12"/>
</linearGradient>
<linearGradient id="paint31_linear_211_5106" x1="1206.44" y1="375.527" x2="-1045.11" y2="375.527" gradientUnits="userSpaceOnUse">
<stop stop-color="#600F25"/>
<stop offset="0.3333" stop-color="#DC1F26"/>
<stop offset="0.6848" stop-color="#F78C1E"/>
<stop offset="1" stop-color="#FDBA12"/>
</linearGradient>
<linearGradient id="paint32_linear_211_5106" x1="1206.44" y1="374.933" x2="-1045.11" y2="374.933" gradientUnits="userSpaceOnUse">
<stop stop-color="#600F25"/>
<stop offset="0.3333" stop-color="#DC1F26"/>
<stop offset="0.6848" stop-color="#F78C1E"/>
<stop offset="1" stop-color="#FDBA12"/>
</linearGradient>
<linearGradient id="paint33_linear_211_5106" x1="1206.44" y1="374.165" x2="-1045.11" y2="374.165" gradientUnits="userSpaceOnUse">
<stop stop-color="#600F25"/>
<stop offset="0.3333" stop-color="#DC1F26"/>
<stop offset="0.6848" stop-color="#F78C1E"/>
<stop offset="1" stop-color="#FDBA12"/>
</linearGradient>
<linearGradient id="paint34_linear_211_5106" x1="1206.44" y1="373.195" x2="-1045.11" y2="373.195" gradientUnits="userSpaceOnUse">
<stop stop-color="#600F25"/>
<stop offset="0.3333" stop-color="#DC1F26"/>
<stop offset="0.6848" stop-color="#F78C1E"/>
<stop offset="1" stop-color="#FDBA12"/>
</linearGradient>
<linearGradient id="paint35_linear_211_5106" x1="1206.44" y1="368.016" x2="-1045.11" y2="368.016" gradientUnits="userSpaceOnUse">
<stop stop-color="#600F25"/>
<stop offset="0.3333" stop-color="#DC1F26"/>
<stop offset="0.6848" stop-color="#F78C1E"/>
<stop offset="1" stop-color="#FDBA12"/>
</linearGradient>
<linearGradient id="paint36_linear_211_5106" x1="1206.44" y1="350.096" x2="-1045.11" y2="350.096" gradientUnits="userSpaceOnUse">
<stop stop-color="#600F25"/>
<stop offset="0.3333" stop-color="#DC1F26"/>
<stop offset="0.6848" stop-color="#F78C1E"/>
<stop offset="1" stop-color="#FDBA12"/>
</linearGradient>
<linearGradient id="paint37_linear_211_5106" x1="1206.44" y1="332.215" x2="-1045.11" y2="332.215" gradientUnits="userSpaceOnUse">
<stop stop-color="#600F25"/>
<stop offset="0.3333" stop-color="#DC1F26"/>
<stop offset="0.6848" stop-color="#F78C1E"/>
<stop offset="1" stop-color="#FDBA12"/>
</linearGradient>
<linearGradient id="paint38_linear_211_5106" x1="1206.44" y1="314.375" x2="-1045.11" y2="314.375" gradientUnits="userSpaceOnUse">
<stop stop-color="#600F25"/>
<stop offset="0.3333" stop-color="#DC1F26"/>
<stop offset="0.6848" stop-color="#F78C1E"/>
<stop offset="1" stop-color="#FDBA12"/>
</linearGradient>
<linearGradient id="paint39_linear_211_5106" x1="1206.44" y1="296.582" x2="-1045.11" y2="296.582" gradientUnits="userSpaceOnUse">
<stop stop-color="#600F25"/>
<stop offset="0.3333" stop-color="#DC1F26"/>
<stop offset="0.6848" stop-color="#F78C1E"/>
<stop offset="1" stop-color="#FDBA12"/>
</linearGradient>
<linearGradient id="paint40_linear_211_5106" x1="1206.43" y1="278.828" x2="-1045.11" y2="278.828" gradientUnits="userSpaceOnUse">
<stop stop-color="#600F25"/>
<stop offset="0.3333" stop-color="#DC1F26"/>
<stop offset="0.6848" stop-color="#F78C1E"/>
<stop offset="1" stop-color="#FDBA12"/>
</linearGradient>
<linearGradient id="paint41_linear_211_5106" x1="1206.43" y1="261.12" x2="-1045.11" y2="261.12" gradientUnits="userSpaceOnUse">
<stop stop-color="#600F25"/>
<stop offset="0.3333" stop-color="#DC1F26"/>
<stop offset="0.6848" stop-color="#F78C1E"/>
<stop offset="1" stop-color="#FDBA12"/>
</linearGradient>
<linearGradient id="paint42_linear_211_5106" x1="1206.43" y1="243.477" x2="-1045.11" y2="243.477" gradientUnits="userSpaceOnUse">
<stop stop-color="#600F25"/>
<stop offset="0.3333" stop-color="#DC1F26"/>
<stop offset="0.6848" stop-color="#F78C1E"/>
<stop offset="1" stop-color="#FDBA12"/>
</linearGradient>
<linearGradient id="paint43_linear_211_5106" x1="1206.43" y1="225.909" x2="-1045.11" y2="225.909" gradientUnits="userSpaceOnUse">
<stop stop-color="#600F25"/>
<stop offset="0.3333" stop-color="#DC1F26"/>
<stop offset="0.6848" stop-color="#F78C1E"/>
<stop offset="1" stop-color="#FDBA12"/>
</linearGradient>
</defs>
</svg>
