<svg width="1920" height="729" viewBox="0 0 1920 729" fill="none" xmlns="http://www.w3.org/2000/svg">
<g opacity="0.2">
<mask id="mask0_71_645" style="mask-type:luminance" maskUnits="userSpaceOnUse" x="0" y="0" width="1920" height="729">
<path d="M1920 0H0V728.829H1920V0Z" fill="white"/>
</mask>
<g mask="url(#mask0_71_645)">
<path d="M1954.12 -1.82317C1954.23 -1.90986 1929.67 80.1718 1892.92 146.967C1883.23 162.757 1844.73 245.395 1749.43 336.036C1701.87 380.889 1639.25 426.151 1563.71 461.542C1488.37 497.075 1400.75 522.401 1309.92 534.499C1128.75 557.883 933.798 538.971 797.533 471.152C728.246 440.682 668.196 410.158 617.001 389C566.06 367.366 524.562 354.629 499.04 348.24C448.382 334.488 376.134 325.174 298.574 332.88C221.183 339.706 139.734 365.112 76.6434 404.909C12.8403 444.143 -30.6005 495.595 -54.8445 535.376C-79.3229 575.403 -87.7061 603.067 -88.1523 602.858C-87.7028 603.067 -79.4385 575.374 -55.1014 535.257C-30.9954 495.377 12.2977 443.726 76.1104 404.244C139.191 364.181 220.804 338.492 298.41 331.502C376.163 323.617 448.741 332.867 499.564 346.654C525.166 353.072 566.792 365.847 617.804 387.523C669.076 408.71 729.158 439.237 798.355 469.681C934.331 537.363 1128.73 556.187 1309.65 532.874C1400.28 520.799 1487.69 495.544 1562.85 460.094C1638.18 424.802 1700.64 379.663 1748.07 334.915C1843.14 244.512 1881.58 162.045 1891.23 146.283C1927.9 79.6645 1954.21 -1.88097 1954.12 -1.82317Z" fill="url(#paint0_linear_71_645)"/>
<path d="M2002.2 -0.715707C2002.23 -0.828081 1977.47 82.3002 1939.87 149.699C1929.99 165.621 1890.59 249.058 1793.42 340.075C1744.96 385.111 1681.1 430.427 1603.9 464.894C1526.98 499.55 1437.62 523.464 1345.27 532.518C1252.89 541.976 1158.41 537.385 1069.28 525.945C979.439 516.837 896.536 491.957 824.825 464.592C752.905 437.307 689.895 410.296 636.7 391.793C583.701 372.885 540.941 362.225 514.819 356.809C462.792 345.334 389.768 338.046 311.295 344.46C233.015 350.436 149.585 372.426 83.6855 410.029C17.0666 446.953 -28.7694 497.961 -53.8642 537.912C-79.2416 578.097 -87.7821 606.104 -88.2637 605.873C-87.7789 606.104 -79.3636 578.068 -54.1211 537.786C-29.1675 497.73 16.5369 446.506 83.1814 409.323C149.097 371.462 232.691 349.206 311.157 343.057C389.8 336.472 463.075 343.671 515.262 355.181C541.455 360.61 584.321 371.302 637.403 390.242C690.672 408.761 753.721 435.795 825.563 463.057C897.252 490.4 979.825 515.19 1069.55 524.295C1158.59 535.722 1252.88 540.291 1345.06 530.858C1437.2 521.832 1526.33 497.967 1603.05 463.395C1680.04 429.027 1743.73 383.84 1792.06 338.922C1888.99 248.143 1928.31 164.876 1938.16 148.983C1975.67 81.7865 2002.22 -0.799185 2002.2 -0.715707Z" fill="url(#paint1_linear_71_645)"/>
<path d="M2050.02 0.382938C2050.07 0.264142 2025.11 84.4937 1986.71 152.609C1976.68 168.685 1936.39 253.078 1837.16 344.538C1787.7 389.767 1722.48 435.205 1643.56 468.725C1565.01 502.543 1473.8 525.172 1379.94 531.08C1286.02 537.521 1190.81 528.521 1101.01 514.892C1010.51 503.657 926.008 481.494 851.741 457.263C777.33 433.218 711.497 409.931 656.376 394.336C601.393 378.36 557.486 369.771 530.76 365.424C477.415 356.389 403.572 350.786 324.065 356.004C244.79 361.128 159.468 379.753 90.7914 415.071C21.3921 449.624 -26.9129 500.187 -52.8683 540.365C-79.1607 580.756 -87.8521 609.139 -88.3594 608.885C-87.8489 609.139 -79.2795 580.737 -53.1251 540.234C-27.3046 499.955 20.8784 449.156 90.3162 414.348C159.035 378.764 244.51 359.872 323.949 354.581C403.607 349.203 477.614 354.71 531.114 363.774C557.904 368.124 601.913 376.722 656.97 392.737C712.165 408.348 778.036 431.657 852.392 455.673C926.646 479.895 1010.88 502.001 1101.33 513.225C1191.08 526.855 1286.1 535.825 1379.81 529.404C1473.44 523.506 1564.39 500.941 1642.74 467.209C1721.44 433.792 1786.46 388.477 1835.8 343.382C1934.78 252.147 1974.98 167.933 1985.02 151.886C2023.29 83.9736 2050.06 0.29946 2050.02 0.382938Z" fill="url(#paint2_linear_71_645)"/>
<path d="M2097.95 1.62219C2098.01 1.5034 2072.72 86.7925 2033.41 155.669C2023.18 171.934 1981.77 257.242 1880.57 349.412C1829.98 394.882 1763.12 440.111 1682.56 472.96C1602.33 506.059 1509.14 527.124 1413.83 530.081C1318.38 533.427 1222.59 519.855 1132.08 503.965C1040.94 490.073 954.74 470.545 878.094 449.422C801.32 428.636 732.797 409.532 675.9 396.901C619.087 383.969 574.092 377.554 546.785 374.346C439.467 362.165 243.187 353.168 97.9416 420.067C25.8163 452.151 -25.0316 502.277 -51.857 542.728C-79.0677 583.392 -87.9196 612.182 -88.459 611.912C-87.9164 612.182 -79.1929 583.366 -52.1203 542.597C-25.4265 502.036 25.3155 451.663 97.5049 419.315C168.959 386.091 256.242 370.506 336.75 366.095C417.548 361.696 492.335 366.197 547.051 372.654C574.413 375.865 619.495 382.299 676.375 395.248C733.346 407.895 801.917 427.021 878.662 447.788C955.311 468.914 1041.3 488.397 1132.45 502.286C1222.95 518.189 1318.55 531.712 1413.76 528.386C1508.81 525.432 1601.74 504.421 1681.75 471.419C1762.09 438.657 1828.76 393.562 1879.19 348.224C1980.14 256.292 2021.47 171.17 2031.68 154.936C2070.87 86.266 2098 1.54835 2097.95 1.62219Z" fill="url(#paint3_linear_71_645)"/>
<path d="M2145.97 2.59486C2146.04 2.46964 2120.3 89.1875 2080.07 158.918C2069.61 175.366 2027.2 261.83 1923.63 354.575C1872.05 400.488 1803.38 445.489 1721.07 477.628C1639.01 509.831 1543.8 529.465 1447.05 529.33C1350.09 529.645 1253.85 511.324 1162.6 493.1C1070.72 476.694 982.861 458.987 903.952 441.18C746.3 404.69 619.069 386.075 563.107 383.214C507.398 379.114 431.66 376.035 349.8 379.175C268.229 382.588 179.38 394.67 105.267 425.11C30.4126 454.594 -23.113 504.225 -50.8246 545.011C-78.9857 585.98 -87.9885 615.223 -88.5664 614.93C-87.9885 615.223 -79.1077 585.957 -51.0879 544.866C-23.5144 503.972 29.9246 454.081 104.859 424.33C179.042 393.62 268.046 381.3 349.72 377.704C431.705 374.414 507.465 377.377 563.293 381.49C619.333 384.351 746.778 403.011 904.427 439.501C983.375 457.317 1071.07 474.986 1163.03 491.415C1254.31 509.645 1350.35 527.92 1447.04 527.602C1543.52 527.741 1638.47 508.155 1720.27 476.045C1802.35 443.999 1870.82 399.133 1922.25 353.351C2025.55 260.848 2067.88 174.573 2078.31 158.153C2118.43 88.6545 2146.03 2.51138 2145.97 2.59486Z" fill="url(#paint4_linear_71_645)"/>
<path d="M2193.9 3.81165C2193.98 3.68964 2167.86 91.7014 2126.63 162.35C2115.93 178.984 2072.46 266.71 1966.36 360.084C1913.61 406.395 1843.17 451.352 1758.94 482.672C1674.93 513.793 1577.68 532.248 1479.46 528.816C1381 525.984 1284.5 502.87 1192.45 482.274C1099.79 463.189 1010.14 447.078 929.109 432.559C766.921 403.342 636.303 393.633 579.525 392.149C522.753 390.416 445.863 388.762 362.703 390.669C279.841 393.17 189.306 402.08 112.576 430.02C35.0828 456.89 -21.1847 506.017 -49.7664 547.213C-78.9035 588.532 -88.0476 618.273 -88.6641 617.948C-88.0444 618.273 -79.0223 588.513 -50.0265 547.063C-21.5861 505.747 34.6141 456.347 112.201 429.211C189.017 400.998 279.713 391.854 362.652 389.183C445.924 387.121 522.75 388.656 579.624 390.396C636.464 391.883 767.248 401.605 929.501 430.832C1010.6 445.37 1100.16 461.462 1192.94 480.566C1285.04 501.172 1381.38 524.238 1479.54 527.057C1577.46 530.476 1674.42 512.076 1758.19 481.057C1842.16 449.82 1912.38 405.008 1964.98 358.835C2070.8 265.705 2114.18 178.178 2124.86 161.57C2165.97 91.146 2193.97 3.72817 2193.9 3.81165Z" fill="url(#paint5_linear_71_645)"/>
<path d="M2241.88 4.80389C2241.98 4.6594 2215.4 94.3054 2173.1 165.933C2162.15 182.786 2117.54 271.848 2008.76 365.924C1954.75 412.611 1882.49 457.564 1796.23 488.024C1710.19 518.031 1610.8 535.247 1511.14 528.457C1411.24 522.315 1314.59 494.423 1221.72 471.415C1128.27 449.528 1036.6 435.15 953.597 423.842C787.163 402.048 653.775 401.31 596.114 401.152C538.344 401.743 460.198 401.483 375.664 402.135C291.418 403.679 199.236 409.503 119.954 434.881C39.9013 459.083 -19.2366 507.642 -48.6466 549.352C-78.8433 591.033 -88.0965 621.323 -88.7676 620.967C-88.0933 621.323 -78.9717 591.008 -48.9131 549.191C-19.6444 507.369 39.4422 458.521 119.613 434.049C199.001 408.389 291.331 402.347 375.638 400.632C460.275 399.813 538.276 399.964 596.13 399.364C653.826 399.531 787.327 400.269 953.898 422.08C1037 433.407 1128.64 447.772 1222.25 469.698C1315.23 492.738 1411.69 520.561 1511.3 526.678C1610.61 533.452 1709.7 516.291 1795.49 486.364C1881.49 456.004 1953.51 411.195 2007.36 364.65C2115.86 270.823 2160.38 181.964 2171.3 165.143C2213.47 93.7403 2241.96 4.70756 2241.88 4.80389Z" fill="url(#paint6_linear_71_645)"/>
<path d="M2289.9 5.93376C2290 5.79249 2262.92 97.0021 2219.48 169.683C2208.28 186.76 2162.45 277.244 2050.85 372.066C1995.49 419.161 1921.3 464.104 1832.91 493.626C1744.77 522.507 1643.12 538.409 1542.07 528.177C1440.79 518.554 1344.09 486.075 1250.46 460.325C1156.07 435.969 1062.37 422.693 977.46 414.781C807.064 400.555 671.502 409.028 612.891 410.151C554.18 413.118 474.68 414.21 388.688 413.571C302.978 414.136 209.184 416.91 127.41 439.709C44.8566 461.202 -17.2319 509.131 -47.4992 551.416C-78.7715 593.499 -88.1339 624.376 -88.8691 623.978C-88.1371 624.376 -78.9063 593.47 -47.7657 551.259C-17.6493 508.852 44.4168 460.608 127.102 438.846C208.991 415.77 302.93 412.775 388.681 412.043C474.76 412.511 554.045 411.304 612.811 408.337C671.432 407.217 807.055 398.731 977.668 412.967C1062.71 420.901 1156.46 434.174 1251.05 458.588C1344.82 484.376 1441.34 516.789 1542.31 526.379C1642.97 536.573 1744.32 520.725 1832.2 491.928C1920.3 462.492 1994.25 417.706 2049.43 370.747C2160.73 276.179 2206.47 185.91 2217.65 168.858C2260.97 96.4306 2289.99 5.83423 2289.9 5.93376Z" fill="url(#paint7_linear_71_645)"/>
<path d="M2337.82 7.01289C2337.92 6.85557 2310.43 99.7958 2265.77 173.578C2254.3 190.903 2207.16 282.87 2092.61 378.498C2035.83 426.019 1959.58 470.931 1869 499.464C1778.71 527.185 1674.7 541.662 1572.3 527.914C1469.68 514.757 1373.15 477.49 1278.63 449.236C1183.33 422.198 1087.37 410.12 1000.68 405.625C826.614 399.107 689.465 416.75 629.83 419.168C599.99 421.161 564.945 423.961 526.275 425.053C487.615 425.984 445.529 425.281 401.758 425.001C314.513 424.536 219.126 424.324 134.929 444.522C49.9416 463.254 -15.1843 510.509 -46.3217 553.41C-78.6952 595.936 -88.1732 627.443 -88.9727 627C-88.17 627.43 -78.83 595.91 -46.5946 553.243C-15.5985 510.217 49.5242 462.637 134.662 443.624C218.991 423.162 314.51 423.146 401.78 423.438C445.548 423.634 487.65 424.263 526.227 423.277C564.781 422.144 599.842 419.312 629.669 417.318C689.289 414.91 826.437 397.258 1000.78 403.782C1087.65 408.283 1183.72 420.378 1279.28 447.483C1373.96 475.785 1470.34 512.975 1572.62 526.074C1674.59 539.787 1778.31 525.352 1868.31 497.714C1958.6 469.277 2034.59 424.517 2091.19 377.152C2205.43 281.778 2252.46 190.026 2263.92 172.733C2308.43 99.2114 2337.92 6.91015 2337.82 7.01289Z" fill="url(#paint8_linear_71_645)"/>
<path d="M2385.79 8.12034C2385.89 7.95338 2357.89 102.679 2311.98 177.613C2300.22 195.205 2251.71 288.72 2134.08 385.185C2075.8 433.14 1997.38 478 1904.52 505.471C1812.01 532.001 1705.55 544.956 1601.88 527.58C1497.98 510.794 1401.76 468.731 1306.29 438.024C1210.04 408.347 1111.68 397.081 1023.27 396.442C934.622 395.861 855.603 404.555 791.351 411.69C727.076 419.109 677.245 425.13 646.959 428.212C616.679 431.281 581.082 435.176 541.706 436.698C502.336 438.094 459.46 437.244 414.899 436.422C326.046 434.903 229.089 431.756 142.532 449.319C55.1782 465.276 -13.0525 511.77 -45.1113 555.346C-78.6054 598.347 -88.2054 630.499 -89.0723 630.021C-88.2022 630.499 -78.7434 598.321 -45.3842 555.179C-13.4795 511.478 54.7704 464.618 142.297 448.404C229.006 430.565 326.094 433.484 414.947 434.826C459.499 435.564 502.375 436.332 541.632 434.893C580.86 433.336 616.454 429.406 646.718 426.35C676.985 423.258 726.793 417.247 791.091 409.821C855.366 402.69 934.464 393.976 1023.3 394.56C1111.9 395.206 1210.47 406.488 1307 436.242C1402.67 467.023 1498.74 509.016 1602.27 525.724C1705.5 543.039 1811.65 530.136 1903.86 503.686C1996.41 476.305 2074.56 431.612 2132.65 383.808C2249.96 287.606 2298.38 194.306 2310.1 176.753C2355.87 102.075 2385.89 7.99833 2385.79 8.12034Z" fill="url(#paint9_linear_71_645)"/>
<path d="M2433.76 9.22193C2433.87 9.04213 2405.36 105.633 2358.11 181.784C2346.07 199.649 2296.1 294.779 2175.25 392.124C2115.4 440.516 2034.71 485.289 1939.49 511.613C1844.71 536.923 1735.72 548.241 1630.85 527.124C1525.75 506.621 1429.98 459.77 1333.5 426.658C1236.23 394.384 1135.27 384.238 1045.29 387.337C955.007 390.326 875.224 403.782 810.314 414.159C745.39 424.963 694.956 433.047 664.236 437.215C633.535 441.363 597.396 446.34 557.284 448.327C517.183 450.189 473.476 449.184 428.095 447.81C337.573 445.2 239.052 439.167 150.2 454.103C60.5406 467.254 -10.8589 512.927 -43.865 557.218C-78.5117 600.717 -88.2369 633.565 -89.168 633.039C-88.2337 633.556 -78.6529 600.691 -44.1411 557.038C-11.2892 512.602 60.1618 466.574 149.997 453.166C239.014 437.957 337.666 443.774 428.169 446.189C473.527 447.473 517.218 448.401 557.182 446.494C597.123 444.468 633.253 439.462 663.912 435.321C694.597 431.16 744.992 423.085 809.925 412.277C874.858 401.894 954.728 388.412 1045.22 385.413C1135.43 382.325 1236.68 392.483 1334.26 424.863C1431 458.065 1526.62 504.836 1631.34 525.256C1735.73 546.289 1844.4 535.013 1938.86 509.78C2033.74 483.542 2114.14 438.933 2173.81 390.705C2294.32 293.629 2344.18 198.721 2356.2 180.898C2403.29 105.026 2433.85 9.09029 2433.76 9.22193Z" fill="url(#paint10_linear_71_645)"/>
<path d="M2481.83 10.3166C2481.98 10.1401 2452.74 108.657 2404.16 186.077C2391.83 204.23 2340.32 301.036 2216.12 399.287C2154.63 448.115 2071.55 492.763 1973.91 517.868C1876.83 541.916 1765.22 551.468 1659.23 526.501C1553.04 502.187 1457.84 450.575 1360.25 415.125C1261.9 380.296 1158.15 371.395 1066.73 378.35C974.928 385.009 894.625 403.111 829.165 416.686C763.731 430.79 712.739 440.946 681.617 446.179C650.522 451.413 613.83 457.497 572.958 459.947C532.098 462.406 487.511 461.096 441.29 459.195C349.037 455.448 248.966 446.564 157.868 458.89C112.559 465.007 70.0654 477.297 35.6884 495.666C1.11552 513.813 -24.6889 537.289 -42.672 559.006C-78.3558 603.089 -88.4631 636.561 -89.2754 636.06C-88.4567 636.564 -78.5035 603.06 -42.9482 558.827C-25.0292 537.036 0.730232 513.434 35.3256 495.142C69.7218 476.617 112.309 464.169 157.698 457.924C248.969 445.322 349.175 453.994 441.386 457.548C487.576 459.359 532.127 460.582 572.823 458.081C613.493 455.593 650.156 449.483 681.197 444.266C712.28 439.032 763.211 428.902 828.655 414.785C894.121 401.213 974.514 383.079 1066.57 376.401C1158.24 369.427 1262.36 378.35 1361.07 413.308C1458.94 448.87 1554 500.395 1659.81 524.61C1765.27 549.467 1876.55 539.964 1973.31 515.986C2070.6 490.978 2153.37 446.487 2214.67 397.829C2338.51 299.839 2389.9 203.283 2402.21 185.172C2450.64 108.028 2481.96 10.1978 2481.83 10.3166Z" fill="url(#paint11_linear_71_645)"/>
<path d="M2529.66 11.5462C2529.84 11.3567 2500.1 111.739 2450.13 190.488C2437.5 208.943 2384.38 307.467 2256.74 406.652C2193.53 455.911 2107.96 500.392 2007.86 524.186C1908.41 546.944 1794.14 554.611 1687.13 525.682C1579.95 497.463 1485.42 441.148 1386.64 403.428C1287.14 366.033 1180.43 358.707 1087.72 369.53C994.522 379.933 913.895 402.552 847.995 419.235C782.166 436.566 730.667 448.77 699.157 455.082C667.679 461.398 630.457 468.622 588.798 471.556C547.156 474.539 501.66 473.033 454.572 470.561C360.537 465.681 258.921 453.965 165.638 463.674C119.243 468.509 75.4168 479.673 39.7973 497.55C3.97227 515.187 -22.805 538.792 -41.3725 560.756C-78.2378 605.417 -88.5152 639.614 -89.3789 639.075C-88.5056 639.611 -78.3855 605.388 -41.655 560.57C-23.1453 538.525 3.59661 514.792 39.4473 497.004C75.099 478.967 119.025 467.658 165.506 462.685C258.973 452.709 360.726 464.197 454.694 468.885C501.743 471.261 547.191 472.674 588.638 469.652C630.062 466.673 667.242 459.442 698.656 453.14C730.124 446.84 781.54 434.646 847.372 417.321C913.275 400.642 993.983 377.98 1087.47 367.552C1180.45 356.684 1287.63 364.033 1387.52 401.589C1486.62 439.44 1581.01 495.672 1687.79 523.772C1794.24 552.569 1908.18 544.95 2007.28 522.26C2107.03 498.546 2192.26 454.238 2255.26 405.137C2382.55 306.237 2435.54 207.954 2448.14 189.541C2497.95 111.094 2529.82 11.4209 2529.66 11.5462Z" fill="url(#paint12_linear_71_645)"/>
<path d="M2577.79 12.5833C2578.01 12.4002 2547.42 114.892 2496.02 195.006C2483.08 213.775 2428.29 314.071 2297.07 414.2C2232.07 463.896 2143.93 508.168 2041.31 530.559C1990.12 541.861 1935.72 547.872 1880.28 547.782C1824.88 548.53 1768.14 541.126 1714.55 524.623C1606.48 492.416 1512.72 431.468 1412.67 391.533C1311.91 351.637 1202.15 345.883 1108.27 360.752C1013.79 374.966 933.042 402.003 866.795 421.755C800.674 442.259 748.725 456.527 716.836 463.915C684.999 471.319 647.257 479.702 604.789 483.15C562.347 486.679 515.898 484.98 467.92 481.937C372.055 475.891 268.892 461.388 173.47 468.493C126.012 472.041 80.873 482.036 43.9981 499.409C6.91444 516.497 -20.8678 540.23 -40.0453 562.474C-78.1114 607.729 -88.5654 642.677 -89.4805 642.09C-88.559 642.674 -78.2719 607.7 -40.331 562.291C-21.2177 539.964 6.53237 516.092 43.6577 498.841C80.5744 481.314 125.82 471.165 173.373 467.482C268.985 460.097 372.289 474.382 468.068 480.225C515.994 483.173 562.379 484.784 604.603 481.211C646.798 477.737 684.491 469.344 716.249 461.96C748.073 454.581 799.935 440.332 866.047 419.838C932.293 400.093 1013.12 373.013 1107.9 358.742C1202.08 343.825 1312.41 349.601 1413.59 389.674C1514 429.769 1607.64 490.631 1715.29 522.706C1822.61 555.558 1939.28 549.955 2040.76 528.595C2143.01 506.277 2230.81 462.181 2295.59 412.662C2426.43 312.816 2481.1 212.783 2494.01 194.049C2545.24 114.228 2577.99 12.458 2577.79 12.5833Z" fill="url(#paint13_linear_71_645)"/>
<path d="M2625.57 13.7932C2625.82 13.5974 2594.73 118.099 2541.86 199.616C2528.61 218.719 2472.07 320.826 2337.17 421.915C2270.23 471.909 2179.57 516.108 2074.34 536.958C2021.89 547.662 1966.24 552.52 1909.71 551.368C1853.18 550.953 1795.58 541.8 1741.59 523.322C1632.81 486.961 1539.81 421.601 1438.42 379.486C1336.32 337.044 1223.31 333.515 1128.44 352.4C1032.84 370.493 952.075 401.72 885.536 424.413C819.187 447.941 766.82 464.242 734.578 472.699C702.375 481.053 664.19 490.91 620.878 494.885C577.594 498.67 530.175 496.991 481.283 493.299C383.552 486.046 278.851 468.779 181.336 473.309C132.841 475.579 86.4146 484.399 48.2778 501.232C9.92922 517.764 -18.8868 541.626 -38.6776 564.149C-77.9766 610.001 -88.6104 645.73 -89.5801 645.11C-88.604 645.73 -78.1371 609.976 -38.9698 563.95C-19.2368 541.344 9.54714 517.341 47.9536 500.651C86.1384 483.66 132.681 474.68 181.281 472.272C278.989 467.485 383.838 484.518 481.463 491.546C530.291 495.148 577.626 496.734 620.666 492.91C663.673 488.923 701.794 479.046 733.914 470.724C766.085 462.277 818.346 446.018 884.685 422.49C951.224 399.803 1032.04 368.537 1127.99 350.368C1223.15 331.415 1336.83 334.947 1439.4 377.598C1541.19 419.902 1634.08 485.189 1742.44 521.386C1796.24 539.774 1853.4 548.873 1909.78 549.29C1966.13 550.436 2021.59 545.595 2073.84 534.926C2178.69 514.155 2268.98 470.13 2335.68 420.326C2470.2 319.52 2526.6 217.686 2539.82 198.627C2592.5 117.425 2625.8 13.6584 2625.57 13.7932Z" fill="url(#paint14_linear_71_645)"/>
<path d="M2673.56 14.7698C2673.85 14.5804 2642.02 121.362 2587.63 204.323C2574.05 223.761 2515.72 327.727 2377.04 429.779C2308.04 479.988 2214.87 524.186 2106.96 543.351C2000.22 561.642 1877.6 563.479 1768.29 521.756C1658.95 481.166 1566.72 411.507 1463.9 367.27C1412.38 345.373 1357.05 333.32 1303.08 330.115C1248.96 327.239 1196.5 333.564 1148.3 344.313C1051.69 366.335 971.027 401.566 904.248 427.124C837.728 453.593 784.989 471.894 752.404 481.433C719.867 490.837 681.21 501.926 637.043 506.454C592.922 510.827 544.485 508.945 494.668 504.656C395.037 496.192 288.788 476.193 189.231 478.151C139.712 479.159 92.0267 486.788 52.6249 503.063C13.0016 519.001 -16.8772 542.985 -37.3036 565.794C-77.8612 612.278 -88.6684 648.806 -89.6895 648.135C-88.662 648.8 -78.0186 612.246 -37.5894 565.585C-17.2303 542.696 12.626 518.555 52.3103 502.456C91.7762 486.021 139.584 478.238 189.205 477.104C288.974 474.876 395.364 494.638 494.877 502.874C544.623 507.07 592.954 508.855 636.803 504.444C680.619 499.91 719.212 488.808 751.659 479.426C784.158 469.916 836.791 451.66 903.291 425.194C970.064 399.653 1050.79 364.373 1147.73 342.255C1196.1 331.483 1248.83 325.113 1303.25 328.006C1357.53 331.229 1413.16 343.356 1464.92 365.35C1568.19 409.815 1660.3 479.403 1769.23 519.813C1877.95 561.331 2000.13 559.514 2106.49 541.29C2214 522.186 2306.8 478.167 2375.54 428.148C2513.82 326.391 2572.01 222.701 2585.56 203.312C2639.74 120.668 2673.83 14.6478 2673.56 14.7698Z" fill="url(#paint15_linear_71_645)"/>
<path d="M2721.51 15.9153C2721.84 15.7194 2689.28 124.684 2633.34 209.113C2619.41 228.868 2559.31 334.812 2416.62 437.705C2345.63 488.216 2249.78 532.315 2139.2 549.73C2029.99 566.246 1904.49 566.294 1794.72 519.854C1684.9 475.091 1593.49 401.139 1489.14 354.856C1436.85 332.105 1380.29 319.648 1325.12 317.606C1269.82 315.371 1216.56 324.066 1167.89 336.482C1070.43 362.52 989.907 401.53 922.938 429.884C856.293 459.198 803.208 479.47 770.301 490.075C737.446 500.532 698.333 512.881 653.306 517.995C608.337 522.959 558.847 520.898 508.089 515.992C406.519 506.292 298.732 483.57 197.165 483.008C146.645 482.739 97.7295 489.176 57.0531 504.86C16.1552 520.188 -14.812 544.285 -35.8807 567.382C-77.7193 614.509 -88.7128 651.862 -89.7852 651.146C-88.7031 651.853 -77.8831 614.483 -36.1728 567.167C-15.1652 543.98 15.7763 519.736 56.7545 504.234C97.4951 488.386 146.545 481.791 197.171 481.926C298.954 482.234 406.891 504.706 508.317 514.187C558.998 518.984 608.356 520.946 653.027 515.944C697.665 510.826 736.707 498.484 769.46 488.052C802.28 477.479 855.247 457.246 921.872 427.948C988.828 399.601 1069.4 360.549 1167.2 334.411C1216.06 321.95 1269.59 313.194 1325.24 315.445C1380.73 317.5 1437.65 330.044 1490.2 352.911C1595.05 399.44 1686.35 473.325 1795.76 517.883C1904.9 564.091 2029.91 564.059 2138.75 547.608C2248.93 530.254 2344.37 486.338 2415.11 436.016C2557.37 333.428 2617.32 227.77 2631.21 208.06C2686.97 123.968 2721.81 15.7869 2721.51 15.9153Z" fill="url(#paint16_linear_71_645)"/>
<path d="M2769.47 17.0589C2769.83 16.8598 2736.55 128.059 2679.08 214.029C2664.78 234.086 2602.98 342.207 2456.01 445.739C2383.11 496.828 2284.35 540.358 2171.13 556.145C2114.8 564.692 2055.36 565.89 1995.6 561.363C1935.62 557.677 1875.66 542.413 1820.97 517.662C1710.67 468.866 1620.22 390.528 1514.26 342.2C1461.12 318.614 1403.21 306.009 1346.87 305.194C1290.37 303.919 1236.35 314.652 1187.3 329.011C1089.1 359.011 1008.73 401.585 941.613 432.707C874.866 464.762 821.469 487.009 788.244 498.664C755.081 510.149 715.528 523.788 669.638 529.513C623.789 535.134 573.22 532.752 521.509 527.214C417.98 516.182 308.636 490.779 205.084 487.764C153.575 486.252 103.456 491.511 61.5147 506.611C19.3485 521.341 -12.72 545.55 -34.434 568.956C-77.5762 616.734 -88.7591 654.932 -89.8828 654.178C-88.7462 654.929 -77.7431 616.709 -34.7294 568.728C-13.0796 545.242 18.9761 520.863 61.2257 505.969C103.247 490.702 153.508 485.282 205.133 486.659C308.903 489.414 418.4 514.58 521.772 525.374C573.391 530.8 623.818 533.067 669.317 527.422C714.796 521.711 754.275 508.078 787.323 496.619C820.451 484.999 873.723 462.813 940.444 430.761C1007.54 399.659 1087.97 357.047 1186.51 326.92C1235.76 312.508 1290.06 301.717 1346.92 302.988C1403.64 303.81 1461.95 316.511 1515.38 340.226C1621.86 388.836 1712.21 467.113 1822.1 515.694C1931.51 566.648 2059.42 568.446 2170.74 553.981C2283.53 538.255 2381.87 494.895 2454.49 444.008C2601.03 340.791 2662.65 232.966 2676.91 212.96C2734.17 127.327 2769.81 16.9304 2769.47 17.0589Z" fill="url(#paint17_linear_71_645)"/>
<path d="M2817.41 18.2053C2817.82 18.0031 2783.77 131.473 2724.66 218.955C2709.98 239.342 2646.31 349.514 2495.17 453.869C2420.22 505.41 2318.49 548.206 2202.67 562.435C2088.44 575.16 1957.22 570.915 1846.96 515.148C1736.35 462.226 1646.83 379.65 1539.11 329.486C1485.15 305.03 1425.77 292.3 1368.26 292.871C1310.61 292.891 1255.85 305.419 1206.54 321.951C1107.73 355.913 1027.57 401.971 960.323 435.732C893.499 470.449 839.796 494.603 806.257 507.282C772.783 519.775 732.79 534.589 686.033 541.01C639.311 547.271 587.631 544.748 534.956 538.577C429.436 526.276 318.552 498.183 213.058 492.677C160.579 489.912 109.278 493.954 66.0653 508.412C22.6212 522.478 -10.5871 546.783 -32.9721 570.481C-77.4435 618.937 -88.8126 657.992 -89.9941 657.19C-88.8062 657.983 -77.6201 618.912 -33.2739 570.254C-10.9563 546.456 22.2488 521.987 65.7827 507.748C109.089 493.116 160.537 488.923 213.132 491.559C318.857 496.806 429.902 524.636 535.248 536.695C587.824 542.751 639.33 545.159 685.679 538.888C731.968 532.483 771.909 517.672 805.256 505.224C838.685 492.577 892.259 468.497 959.061 433.792C1026.28 400.048 1106.48 353.942 1205.64 319.854C1255.14 303.261 1310.2 290.65 1368.25 290.627C1426.17 290.056 1485.99 302.885 1540.25 327.483C1648.54 377.949 1737.96 460.483 1848.18 513.18C1957.79 568.651 2088.45 572.883 2202.31 560.21C2317.68 546.035 2418.97 503.426 2493.62 452.093C2644.31 348.054 2707.82 238.18 2722.44 217.853C2781.36 130.721 2817.8 18.0737 2817.41 18.2053Z" fill="url(#paint18_linear_71_645)"/>
<path d="M2865.38 19.3479C2865.83 19.1456 2830.99 134.927 2770.19 223.963C2755.14 244.675 2689.54 356.94 2534.13 462.104C2457.08 514.091 2352.32 556.052 2233.89 568.683C2117.14 579.548 1983.08 572.748 1872.81 512.287C1762.13 455.056 1673.33 368.534 1563.77 316.585C1508.88 291.375 1448.03 278.654 1389.36 280.497C1330.55 281.974 1275.19 296.576 1225.58 314.967C1126.27 352.856 1046.32 402.243 978.956 438.585C912.058 475.894 858.128 501.984 824.332 515.787C790.562 529.317 750.148 545.341 702.521 552.485C654.922 559.423 602.1 556.755 548.443 549.949C440.906 536.358 328.484 505.609 221.073 497.637C167.64 493.649 115.181 496.423 70.69 510.235C25.9778 523.608 -8.39924 548.003 -31.4649 571.997C-77.2945 621.127 -88.853 661.065 -90.0859 660.214C-88.837 661.049 -77.4743 621.098 -31.7667 571.762C-8.76526 547.669 25.6053 523.107 70.4235 509.552C115.014 495.559 167.628 492.631 221.182 496.503C328.83 504.193 441.42 534.695 548.76 548.032C602.312 554.723 654.932 557.266 702.133 550.321C749.243 543.2 789.611 527.191 823.24 513.722C856.927 499.961 910.729 473.932 977.588 436.646C1044.94 400.32 1124.91 350.895 1224.58 312.854C1274.38 294.386 1330.05 279.694 1389.3 278.214C1448.4 276.342 1509.75 289.185 1564.95 314.543C1675.14 366.833 1763.84 453.322 1874.12 510.303C1983.75 570.449 2117.19 577.22 2233.59 566.407C2351.55 553.821 2455.85 512.049 2532.58 460.274C2687.51 355.441 2752.94 243.481 2767.94 222.823C2828.52 134.156 2865.81 19.2195 2865.38 19.3479Z" fill="url(#paint19_linear_71_645)"/>
<path d="M2913.33 20.4944C2913.83 20.2889 2878.18 138.42 2815.67 229.017C2800.22 250.06 2732.67 364.47 2572.91 470.401C2493.69 522.799 2385.89 563.954 2264.82 574.79C2145.55 583.889 2008.65 574.325 1898.51 509.183C1787.68 447.919 1699.79 357.233 1588.28 303.595C1532.41 277.701 1470.04 265.025 1410.23 268.409C1350.29 271.366 1294.37 287.991 1244.54 308.321C1144.79 350.044 1065.04 402.629 997.55 441.482C930.6 481.314 876.429 509.279 842.38 524.148C808.34 538.708 767.551 556.059 719.05 563.935C670.565 571.573 616.577 568.773 561.928 561.312C452.356 546.408 338.392 513.016 229.084 502.61C174.708 497.409 121.127 498.912 75.3652 512.056C29.3751 524.742 -6.18659 549.194 -29.9426 573.493C-77.1527 623.304 -88.8975 664.138 -90.1914 663.226C-88.8879 664.125 -77.3325 623.272 -30.2508 573.255C-6.55904 548.844 29.0091 524.209 75.1084 511.356C120.976 498.029 174.727 496.378 229.225 501.451C338.774 511.584 452.912 544.725 562.275 559.363C616.799 566.693 670.562 569.37 718.62 561.729C766.572 553.888 807.315 536.567 841.195 522.064C875.138 507.247 929.178 479.349 996.092 439.533C1063.55 400.703 1143.31 348.092 1243.43 306.199C1293.45 285.795 1349.69 269.054 1410.09 266.081C1470.37 262.668 1533.28 275.453 1589.5 301.518C1701.69 355.544 1789.46 446.201 1899.92 507.205C2009.43 572.013 2145.62 581.51 2264.55 572.475C2385.14 561.671 2492.47 520.703 2571.36 468.522C2730.59 362.922 2798 248.836 2813.38 227.854C2875.67 137.631 2913.81 20.3724 2913.33 20.4944Z" fill="url(#paint20_linear_71_645)"/>
<path d="M2961.28 21.637C2961.83 21.4347 2925.36 141.948 2861.1 234.137C2845.26 255.508 2775.72 372.092 2611.53 478.761C2530.08 531.474 2419.2 571.929 2295.48 580.697C2173.67 588.319 2034.02 575.518 1924.13 505.788C1813.18 440.566 1726.22 345.703 1612.61 290.546C1555.81 263.804 1491.76 251.578 1430.86 256.458C1369.82 260.998 1313.47 279.784 1263.42 301.941C1163.31 347.481 1083.71 403.088 1016.14 444.416C949.122 486.688 894.742 516.535 860.41 532.428C826.12 548.019 785.013 566.718 735.629 575.412C686.239 583.661 631.07 580.794 575.419 572.69C463.795 556.421 348.277 520.432 237.104 507.602C181.799 501.152 127.105 501.515 80.0971 513.94C32.8965 525.932 -3.99445 550.276 -28.4632 574.915C-76.9416 625.49 -88.924 667.2 -90.2949 666.24C-88.9143 667.19 -77.1278 625.464 -28.7714 574.664C-4.36369 549.923 32.5401 525.383 79.8595 513.218C126.983 500.613 181.851 500.099 237.283 506.418C348.704 518.981 464.405 554.7 575.794 570.696C631.326 578.678 686.22 581.41 735.157 573.168C783.947 564.528 825.018 545.858 859.148 530.325C893.361 514.483 947.603 484.716 1014.58 442.467C1082.13 401.164 1161.74 345.517 1262.21 299.812C1312.44 277.572 1369.11 258.661 1430.65 254.073C1492.05 249.157 1556.69 261.502 1613.87 288.43C1728.22 344.004 1815.05 438.842 1925.63 503.801C2034.89 573.178 2173.79 585.879 2295.26 578.315C2418.49 569.575 2528.86 529.313 2609.96 476.831C2773.61 370.499 2842.99 254.236 2858.77 232.927C2922.8 141.139 2961.81 21.515 2961.28 21.637Z" fill="url(#paint21_linear_71_645)"/>
</g>
</g>
<g opacity="0.2">
<mask id="mask1_71_645" style="mask-type:luminance" maskUnits="userSpaceOnUse" x="0" y="0" width="1920" height="729">
<path d="M0 0H1920V728.829H0V0Z" fill="white"/>
</mask>
<g mask="url(#mask1_71_645)">
<path d="M-299.114 509.655C-299.368 509.815 -204.7 554.977 -115.728 574.607C-94.2679 578.746 11.531 608.958 162.447 592.426C237.298 584.075 322.253 562.416 405.269 521.997C489.12 482.768 567.041 421.582 639.387 354.308C712.216 287.426 782.858 216.004 861.279 159.341C939.203 103.109 1026.43 61.6171 1111.35 54.8971C1197.2 47.7084 1269.81 85.9767 1315.06 125.876C1361.68 165.952 1388.97 205.335 1405.73 228.375C1474.85 319.491 1543.74 507.568 1669.55 621.037C1700.43 648.941 1734.55 670.996 1768.79 683.973C1802.97 697.217 1836.65 700.919 1864.44 699.503C1920.47 696.036 1952.38 679.07 1952.44 680.101C1952.37 679.067 1920.54 696.155 1864.46 699.815C1836.63 701.327 1802.88 697.731 1768.56 684.558C1734.18 671.663 1699.9 649.644 1668.87 621.769C1542.43 508.39 1472.98 320.265 1404.06 229.505C1387.35 206.529 1360.12 167.246 1313.74 127.382C1268.68 87.6848 1196.71 49.7568 1111.5 56.8846C1027.19 63.5404 940.195 104.852 862.477 160.94C784.241 217.471 713.641 288.832 640.768 355.759C568.392 423.072 490.234 484.447 406.165 523.782C322.921 564.307 237.738 586.031 162.678 594.398C11.3545 610.978 -94.6981 580.685 -116.207 576.537C-205.487 556.813 -299.409 509.783 -299.114 509.655Z" fill="url(#paint22_linear_71_645)"/>
<path d="M-299.115 482.697C-299.353 482.848 -206.506 528.675 -119.065 549.785C-97.9102 554.283 5.85669 586.095 155.289 573.782C229.418 567.505 313.93 548.607 397.122 511.099C481.021 474.674 559.976 416.795 633.449 352.487C707.443 288.63 779.299 220.161 858.125 166.084C936.453 112.43 1022.58 72.0486 1106.39 64.9851C1191.05 57.2248 1263.4 93.0948 1309.17 131.469C1356.13 169.988 1384.25 208.035 1401.42 230.365C1472.04 318.688 1547.87 500.604 1672.65 611.479C1703.43 638.718 1737.04 660.564 1770.85 673.461C1804.58 686.519 1837.72 690.822 1865.2 689.627C1920.58 687.017 1952.35 670.784 1952.44 671.914C1952.35 670.78 1920.65 687.136 1865.21 689.929C1837.7 691.22 1804.48 687.02 1770.62 674.033C1736.69 661.219 1702.92 639.418 1671.99 612.207C1546.61 501.445 1470.23 319.526 1399.82 231.524C1382.7 209.248 1354.63 171.298 1307.9 132.981C1262.33 94.8028 1190.62 59.2508 1106.56 66.9436C1023.32 73.9429 937.4 114.163 859.277 167.695C780.631 221.645 708.818 290.058 634.782 353.964C561.257 418.307 482.078 476.369 397.954 512.888C314.55 550.495 229.8 569.444 155.462 575.737C5.63818 588.085 -98.3628 556.19 -119.57 551.692C-207.321 530.486 -299.404 482.823 -299.115 482.697Z" fill="url(#paint23_linear_71_645)"/>
<path d="M-299.114 455.736C-299.345 455.887 -208.271 502.391 -122.304 524.93C-101.467 529.778 0.322144 563.077 148.239 554.88C221.649 550.638 305.686 534.492 389.055 500.035C473.127 466.714 552.759 411.67 627.539 350.625C702.708 289.884 775.941 224.601 855.12 173.06C933.969 122.225 1018.69 82.2997 1101.55 75.0467C1185.04 66.7213 1257.14 100.247 1303.45 136.975C1350.83 173.843 1379.79 210.554 1397.4 232.134C1469.78 317.477 1551.98 493.344 1675.7 601.862C1706.16 628.777 1739.6 649.949 1772.83 663.052C1806.13 676.052 1838.76 680.701 1865.95 679.882C1920.7 678.1 1952.37 662.628 1952.45 663.735C1952.37 662.628 1920.77 678.219 1865.96 680.184C1838.74 681.096 1806.02 676.543 1772.6 663.623C1739.25 650.597 1705.65 629.471 1675.04 602.591C1550.75 494.198 1468.02 318.373 1395.85 233.325C1378.28 211.797 1349.38 175.188 1302.24 138.503C1256.12 101.952 1184.65 68.7248 1101.72 76.9827C1019.42 84.1683 934.871 123.946 856.215 174.678C777.203 226.107 704.015 291.339 628.798 352.127C553.972 413.201 474.116 468.422 389.822 501.823C306.215 536.38 221.967 552.565 148.371 556.819C0.0557861 565.035 -101.958 531.66 -122.847 526.799C-209.099 504.17 -299.39 455.862 -299.114 455.736Z" fill="url(#paint24_linear_71_645)"/>
<path d="M-299.114 428.782C-299.333 428.927 -209.972 476.134 -125.467 500.105C-104.925 505.309 -5.09094 540.117 141.314 536.065C213.988 533.865 297.527 520.48 381.06 489.063C465.219 458.754 545.785 406.982 621.76 349.086C698.078 291.461 772.56 229.279 852.006 180.11C931.236 131.789 1014.88 92.7022 1096.74 84.99C1179.06 76.167 1251.03 107.048 1297.92 142.124C1345.75 177.339 1375.54 212.686 1393.63 233.488C1467.98 315.676 1556.03 485.634 1678.6 592.137C1708.83 618.663 1741.97 639.392 1774.7 652.642C1807.6 665.604 1839.75 670.596 1866.66 670.157C1920.82 669.19 1952.39 654.469 1952.45 655.545C1952.39 654.469 1920.88 669.303 1866.66 670.455C1839.72 670.988 1807.49 666.095 1774.47 653.204C1741.63 640.031 1708.33 619.344 1677.96 592.859C1554.84 486.495 1466.29 316.636 1392.13 234.715C1374.09 213.961 1344.36 178.704 1296.77 143.669C1250.07 108.769 1178.72 78.1448 1096.92 86.9004C1015.6 94.5451 932.11 133.504 853.059 181.732C773.761 230.804 699.324 292.938 622.954 350.605C546.951 408.539 466.147 460.469 381.763 490.858C298.012 522.355 214.248 535.773 141.381 537.985C-5.39282 542.037 -105.445 507.156 -126.035 501.935C-210.817 477.874 -299.377 428.901 -299.114 428.782Z" fill="url(#paint25_linear_71_645)"/>
<path d="M-299.114 401.825C-299.326 401.967 -211.628 449.896 -128.555 475.293C-108.311 480.863 -10.3719 517.138 134.498 517.234C206.434 517.074 289.459 506.452 373.134 478.128C457.35 450.869 538.873 402.48 616.017 347.799C693.485 293.352 769.174 234.288 848.844 187.386C928.367 141.341 1011.06 103.281 1091.93 94.9079C1173.18 85.6097 1244.95 113.697 1292.43 147.197C1340.89 180.486 1371.43 214.59 1390.04 234.538C1427.22 274.945 1471.51 334.201 1519.1 398.47C1566.97 462.373 1620.49 530.713 1681.39 582.325C1740.93 635.568 1813.74 662.127 1867.33 660.457C1920.92 660.297 1952.4 646.314 1952.44 647.364C1952.4 646.314 1920.98 660.415 1867.33 660.759C1813.68 662.611 1740.58 636.219 1680.76 583.047C1619.6 531.525 1565.82 463.236 1517.79 399.427C1470.05 335.235 1425.69 276.117 1388.61 235.81C1370.04 215.9 1339.56 181.883 1291.33 148.764C1244.07 115.428 1172.89 87.5714 1092.13 96.7958C1011.76 105.095 929.208 143.046 849.846 189.01C770.31 235.826 694.673 294.858 617.137 349.34C539.955 404.066 458.204 452.59 373.763 479.922C289.87 508.324 206.633 518.968 134.505 519.128C-10.7219 519.038 -108.86 482.677 -129.152 477.097C-212.502 451.604 -299.367 401.941 -299.114 401.825Z" fill="url(#paint26_linear_71_645)"/>
<path d="M-299.115 374.868C-299.314 375.006 -213.244 423.681 -131.564 450.506C-111.603 456.439 -15.5132 494.181 127.816 498.4C199.023 500.272 281.477 492.419 365.27 467.227C449.528 443.057 532.008 398.159 610.327 346.739C688.944 295.545 765.786 239.582 845.652 194.851C925.425 150.947 1007.22 113.87 1087.13 104.636C1167.41 94.5868 1238.93 120.372 1287.07 152.001C1336.05 183.472 1367.56 216.064 1386.69 235.174C1424.78 273.959 1471.32 330.602 1520.17 392.97C1569.4 454.914 1623.6 521.507 1684.04 572.4C1743.23 624.831 1814.92 651.477 1867.96 650.774C1921.01 651.412 1952.42 638.156 1952.44 639.173C1952.41 638.159 1921.07 651.535 1867.96 651.072C1814.86 651.955 1742.88 625.473 1683.41 573.113C1622.72 522.323 1568.27 455.797 1518.89 393.953C1469.9 331.678 1423.32 275.179 1385.3 236.468C1366.22 217.403 1334.78 184.894 1286.03 153.58C1238.1 122.103 1167.17 96.5261 1087.34 106.502C1007.91 115.662 926.234 152.64 846.602 196.482C766.861 241.143 690.048 297.07 611.373 348.303C533.013 399.761 450.312 444.788 365.832 469.025C281.811 494.281 199.145 502.153 127.774 500.275C-15.9081 496.047 -112.191 458.221 -132.197 452.278C-214.121 425.36 -299.362 374.978 -299.115 374.868Z" fill="url(#paint27_linear_71_645)"/>
<path d="M-299.115 347.915C-299.307 348.044 -214.798 397.501 -134.47 425.746C-114.798 432.052 -20.4963 471.248 121.282 479.564C191.734 483.468 273.623 478.376 357.503 456.36C441.768 435.307 525.192 394.027 604.666 345.931C684.391 298.027 762.405 245.224 842.46 202.599C922.404 160.709 1003.33 124.229 1082.37 114.411C1161.67 103.407 1233.01 126.903 1281.84 156.519C1331.41 186.083 1363.84 217.159 1383.5 235.399C1422.66 272.409 1471.25 326.506 1521.31 387.025C1571.72 447.155 1626.66 511.992 1686.54 562.374C1745.49 613.938 1815.97 640.95 1868.56 641.11C1921.09 642.545 1952.44 629.995 1952.44 630.993C1952.43 629.995 1921.14 642.661 1868.54 641.399C1815.91 641.425 1745.14 614.577 1685.93 563.077C1625.81 512.801 1570.62 448.041 1520.08 388.03C1469.88 327.614 1421.26 273.671 1382.18 236.732C1362.57 218.527 1330.2 187.534 1280.87 158.115C1232.24 128.637 1161.48 105.324 1082.6 116.25C1004.01 125.995 923.193 162.385 843.366 204.227C763.419 246.794 685.451 299.562 605.652 347.517C526.135 395.642 442.477 437.051 357.988 458.155C273.896 480.225 191.795 485.333 121.17 481.42C-20.9329 473.078 -115.424 433.802 -135.134 427.483C-215.694 399.145 -299.349 348.018 -299.115 347.915Z" fill="url(#paint28_linear_71_645)"/>
<path d="M-299.115 320.958C-299.295 321.083 -216.305 371.347 -137.296 401.02C-117.903 407.701 -25.3481 448.342 114.876 460.749C184.597 466.672 265.872 464.341 349.807 445.54C434.065 427.65 518.404 390.081 599.008 345.382C759.062 256.041 920.287 148.553 1077.63 124.039C1155.97 112.375 1227.2 133.097 1276.67 160.831C1326.96 188.237 1360.2 217.943 1380.48 235.158C1420.71 270.36 1471.34 321.809 1522.47 380.632C1574.01 438.999 1629.53 502.314 1688.94 552.196C1747.56 603.082 1816.98 630.438 1869.1 631.468C1921.16 633.693 1952.46 621.836 1952.44 622.815C1952.45 621.836 1921.22 633.809 1869.09 631.751C1816.9 630.9 1747.22 603.708 1688.34 552.896C1628.69 503.124 1572.94 439.892 1521.28 381.653C1470.03 322.955 1419.38 271.677 1379.23 236.529C1359 219.352 1325.82 189.72 1275.77 162.449C1226.5 134.843 1155.83 114.275 1077.88 125.866C921.283 150.229 760.031 257.579 599.923 346.99C519.274 391.725 434.697 429.403 350.221 447.344C266.087 466.188 184.6 468.531 114.719 462.588C-25.833 450.153 -118.568 409.429 -137.989 402.734C-217.226 372.968 -299.33 321.057 -299.115 320.958Z" fill="url(#paint29_linear_71_645)"/>
<path d="M-299.113 294.007C-299.29 294.12 -217.747 345.244 -140.026 376.339C-120.906 383.409 -30.037 425.505 108.64 441.969C177.609 449.916 258.268 450.333 342.225 434.787C426.425 420.066 511.666 386.357 593.34 345.07C756.055 262.86 917.608 160.086 1072.91 133.52C1150.45 120.889 1221.41 139.162 1271.6 164.831C1322.5 190.144 1356.83 218.065 1377.58 234.423C1418.96 267.667 1471.43 316.595 1523.59 373.784C1576.25 430.398 1632.16 492.467 1691.19 541.854C1749.45 592.233 1817.9 619.923 1869.59 621.826C1921.21 624.848 1952.47 613.674 1952.43 614.628C1952.46 613.674 1921.26 624.96 1869.57 622.112C1817.81 620.388 1749.1 592.856 1690.58 542.557C1631.33 493.276 1575.2 431.313 1522.43 374.824C1470.16 317.779 1417.7 269.028 1376.39 235.839C1355.69 219.516 1321.43 191.666 1270.77 166.465C1220.78 140.921 1150.35 122.777 1073.18 135.334C996.039 146.437 916.966 182.352 836.644 220.248C756.348 258.972 676.163 305.511 594.181 346.701C512.437 388.023 426.978 421.829 342.559 436.588C258.4 452.176 177.548 451.755 108.421 443.793C-30.5668 427.28 -121.609 385.111 -140.765 378.031C-218.695 346.833 -299.325 294.097 -299.113 294.007Z" fill="url(#paint30_linear_71_645)"/>
<path d="M-299.115 267.044C-299.278 267.163 -219.146 319.173 -142.663 351.707C-123.817 359.175 -34.5654 402.715 102.551 423.245C170.785 433.207 250.795 436.367 334.723 424.105C418.828 412.579 504.926 382.864 587.649 344.997C670.598 307.351 751.809 263.853 832.366 226.872C913 190.803 991.366 154.923 1068.21 142.857C1144.98 129.221 1215.72 145.021 1266.63 168.472C1318.18 191.567 1353.49 217.769 1374.75 233.203C1417.24 264.453 1471.54 310.793 1524.64 366.473C1578.36 421.44 1634.63 482.386 1693.27 531.404C1751.19 581.362 1818.74 609.424 1870.03 612.194C1921.24 616.009 1952.48 605.513 1952.44 606.444C1952.48 605.513 1921.29 616.121 1870.01 612.48C1818.65 609.883 1750.84 581.972 1692.68 532.1C1633.82 483.195 1577.34 422.358 1523.52 367.539C1470.32 312.01 1416.07 265.862 1373.64 234.654C1352.43 219.249 1317.2 193.118 1265.87 170.129C1215.15 146.784 1144.93 131.084 1068.51 144.652C992.041 156.638 913.748 192.459 833.152 228.512C752.673 265.467 671.465 308.963 588.42 346.647C505.642 384.552 419.315 414.348 334.999 425.906C250.856 438.194 170.666 435.025 102.287 425.043C-35.1273 404.465 -124.536 360.838 -143.424 353.37C-220.105 320.737 -299.32 267.137 -299.115 267.044Z" fill="url(#paint31_linear_71_645)"/>
<path d="M-299.115 240.09C-299.279 240.199 -220.494 293.156 -145.219 327.138C-126.623 334.992 -38.9259 380.006 96.6396 404.584C164.119 416.557 243.459 422.448 327.319 413.503C411.298 405.223 498.183 379.556 581.902 345.183C665.868 311.098 748.078 270.611 828.799 235.303C909.769 201.144 987.343 165.133 1063.52 152.036C1139.56 137.402 1210.09 150.701 1261.74 171.76C1313.91 192.604 1350.18 217.031 1371.98 231.456C1415.63 260.597 1471.5 304.551 1525.58 358.722C1580.32 412.122 1636.93 472.063 1695.18 520.834C1752.77 570.452 1819.49 598.937 1870.42 602.581C1921.26 607.186 1952.5 597.354 1952.44 598.263C1952.49 597.348 1921.3 607.298 1870.39 602.857C1819.4 599.396 1752.42 571.055 1694.58 521.521C1636.12 472.869 1579.31 413.054 1524.49 359.807C1470.32 305.79 1414.51 262.048 1370.94 232.943C1349.18 218.549 1313 194.19 1261.05 173.436C1209.6 152.483 1139.56 139.258 1063.84 153.818C988.014 166.838 910.485 202.804 829.55 236.953C748.862 272.239 666.661 312.735 582.602 346.855C498.793 381.261 411.712 406.992 327.518 415.301C243.446 424.265 163.926 418.361 96.3088 406.362C-39.552 381.733 -127.397 336.639 -146.012 328.769C-221.477 294.691 -299.311 240.173 -299.115 240.09Z" fill="url(#paint32_linear_71_645)"/>
<path d="M-299.115 213.136C-299.272 213.239 -221.779 267.182 -147.669 302.641C-129.346 310.893 -43.1383 357.393 90.8796 386.01C157.617 400.012 236.283 408.585 320.018 403.011C403.853 398.025 491.386 376.381 576.091 345.62C661.027 315.147 744.181 277.63 825.122 243.901C906.295 211.21 983.314 175.395 1058.82 161.04C1134.18 145.355 1204.52 156.089 1256.88 174.669C1309.64 193.198 1346.86 215.788 1369.2 229.171C1413.99 256.131 1471.32 297.783 1526.38 350.522C1582.08 402.446 1639.02 461.51 1696.9 510.117C1754.2 559.491 1820.15 588.464 1870.75 592.966C1921.25 598.376 1952.52 589.187 1952.44 590.079C1952.51 589.187 1921.29 598.485 1870.71 593.245C1820.05 588.917 1753.85 560.088 1696.31 510.807C1638.23 462.316 1581.09 403.387 1525.31 351.627C1470.18 299.048 1412.95 257.621 1368.24 230.699C1345.95 217.346 1308.82 194.823 1256.27 176.371C1204.11 157.874 1134.24 147.198 1059.18 162.802C983.998 177.087 907.008 212.857 825.835 245.552C744.925 279.274 661.749 316.794 576.714 347.308C491.916 378.102 404.174 399.807 320.143 404.799C236.202 410.386 157.373 401.794 90.4974 387.763C-43.803 359.085 -130.123 312.504 -148.498 304.24C-222.783 268.691 -299.291 213.22 -299.115 213.136Z" fill="url(#paint33_linear_71_645)"/>
<path d="M-299.115 186.183C-299.262 186.276 -223.024 241.262 -150.045 278.208C-131.959 286.867 -47.2031 334.88 85.2705 367.539C151.276 383.586 229.232 394.763 312.813 392.615C396.436 390.955 484.544 373.412 570.173 346.307C656.011 319.472 740.125 284.909 821.292 252.657C902.706 221.34 979.268 185.621 1054.17 170.055C1128.84 153.051 1199.03 161.133 1252.03 177.199C1305.38 193.343 1343.52 214.039 1366.37 226.355C1412.22 251.122 1470.97 290.531 1526.97 341.915C1583.65 392.4 1640.9 450.735 1698.45 499.265C1755.48 548.472 1820.71 577.991 1871.02 583.34C1921.23 589.563 1952.53 581.013 1952.44 581.892C1952.53 581.016 1921.27 589.675 1870.99 583.623C1820.6 578.434 1755.13 549.066 1697.86 499.949C1640.1 451.547 1582.68 393.353 1525.94 343.038C1469.87 291.828 1411.25 252.651 1365.48 227.922C1342.68 215.625 1304.63 194.99 1251.5 178.91C1198.7 162.921 1128.94 154.878 1054.55 171.808C979.955 187.297 903.422 222.984 821.989 254.314C740.819 286.562 656.676 321.141 570.732 348.012C484.997 375.149 396.693 392.74 312.858 394.403C229.084 396.561 150.974 385.355 84.8307 369.27C-47.9061 336.553 -132.781 288.46 -150.899 279.788C-224.042 242.746 -299.291 186.253 -299.115 186.183Z" fill="url(#paint34_linear_71_645)"/>
<path d="M-299.115 159.222C-299.253 159.315 -224.212 215.399 -152.328 253.867C-134.486 262.94 -51.1233 312.504 79.822 349.193C145.086 367.298 222.332 381.065 305.685 382.362C389.07 384.025 477.657 370.643 564.156 347.231C650.836 324.078 735.897 292.437 817.333 261.576C899.039 231.617 975.139 195.66 1049.48 178.849C1123.54 160.782 1193.57 165.627 1247.12 179.459C1301.07 192.947 1340.07 211.816 1363.41 223.063C1410.27 245.596 1470.36 282.859 1527.34 332.898C1585 382.022 1642.57 439.734 1699.8 488.28C1756.6 537.407 1821.17 567.52 1871.23 573.73C1921.18 580.768 1952.54 572.86 1952.44 573.711C1952.53 572.85 1921.21 580.877 1871.19 574.006C1821.05 567.957 1756.25 537.985 1699.2 488.961C1641.77 440.543 1584.05 382.982 1526.32 334.041C1469.29 284.176 1409.37 247.16 1362.59 224.662C1339.31 213.447 1300.41 194.632 1246.68 181.196C1193.31 167.422 1123.7 162.596 1049.89 180.586C975.836 197.323 899.745 233.254 817.995 263.242C736.536 294.107 651.427 325.77 564.632 348.955C478.02 372.403 389.231 385.814 305.656 384.147C222.114 382.847 144.71 369.051 79.3339 350.904C-51.8555 314.154 -135.35 264.513 -153.217 255.427C-225.259 216.854 -299.288 159.296 -299.115 159.222Z" fill="url(#paint35_linear_71_645)"/>
<path d="M-299.114 132.269C-299.243 132.355 -225.352 189.592 -154.533 229.607C-136.935 239.105 -54.8984 290.245 74.5217 330.969C139.031 351.136 215.561 367.478 298.632 372.227C381.709 377.197 470.671 368.037 557.986 348.365C645.442 328.914 731.454 300.185 813.221 270.64C895.251 241.908 971.001 205.774 1044.79 187.486C1118.29 167.988 1188.06 170.136 1242.17 181.376C1296.62 192.27 1336.49 209.097 1360.24 219.352C1408.05 239.66 1469.53 274.67 1527.45 323.492C1586.12 371.292 1644.01 428.514 1700.97 477.14C1757.58 526.26 1821.54 557.028 1871.39 564.105C1921.12 571.974 1952.56 564.686 1952.44 565.524C1952.55 564.683 1921.14 572.083 1871.34 564.381C1821.41 557.468 1757.22 526.841 1700.38 477.817C1643.22 429.32 1585.17 372.253 1526.47 324.647C1468.5 276.015 1407.21 241.256 1359.5 220.983C1335.8 210.754 1296.05 193.978 1241.82 183.123C1187.9 171.937 1118.5 169.789 1045.24 189.214C971.714 207.428 895.961 243.552 813.844 272.319C732.057 301.871 645.972 330.635 558.397 350.108C470.957 369.809 381.802 378.989 298.539 374.009C215.282 369.247 138.617 352.876 73.9727 332.671C-55.6852 291.876 -137.821 240.652 -155.451 231.145C-226.44 191.034 -299.278 132.333 -299.114 132.269Z" fill="url(#paint36_linear_71_645)"/>
<path d="M-299.114 105.312C-299.239 105.395 -226.456 163.856 -156.671 205.45C-139.307 215.378 -58.5614 268.152 69.3402 312.912C133.14 335.057 208.9 354.118 291.656 362.213C374.367 370.57 463.614 365.603 551.652 349.697C639.811 333.987 726.786 308.157 808.932 279.858C891.363 252.326 966.789 215.776 1040.04 195.921C1113.03 174.929 1182.54 174.329 1237.13 182.93C1292.01 191.172 1332.67 205.97 1356.85 215.204C1405.51 233.3 1468.39 266.052 1527.28 313.696C1586.97 360.219 1645.2 417.08 1701.94 465.851C1758.39 515.042 1821.8 546.53 1871.47 554.476C1921.02 563.187 1952.57 556.518 1952.43 557.343C1952.56 556.512 1921.05 563.305 1871.43 554.746C1821.67 546.963 1758.03 515.617 1701.35 466.522C1644.41 417.886 1586.04 361.195 1526.33 314.871C1467.39 267.43 1404.75 234.931 1356.19 216.867C1332.07 207.653 1291.54 192.903 1236.86 184.693C1182.45 176.13 1113.29 176.721 1040.53 197.635C967.521 217.416 892.067 253.967 809.523 281.534C727.338 309.853 640.27 335.715 551.973 351.454C463.804 367.379 374.367 372.355 291.469 363.982C208.553 355.872 132.639 336.768 68.7301 314.595C-59.3929 269.754 -140.248 216.899 -157.631 206.962C-227.563 165.271 -299.268 105.376 -299.114 105.312Z" fill="url(#paint37_linear_71_645)"/>
<path d="M-299.115 78.3545C-299.23 78.4315 -227.526 138.18 -158.73 181.399C-141.608 191.763 -62.1075 246.22 64.285 295.026C127.353 319.144 202.355 340.929 284.722 352.353C367.026 364.027 456.443 363.378 545.142 351.216C633.944 339.25 721.885 316.325 804.461 289.208C887.5 263.175 962.447 225.523 1035.23 204.176C1107.74 181.697 1176.98 178.31 1231.98 184.157C1287.22 189.721 1328.61 202.467 1353.19 210.677C1402.66 226.564 1466.9 257.056 1526.82 303.553C1587.54 348.866 1646.17 405.426 1702.74 454.411C1759.07 503.75 1821.97 536.011 1871.51 544.831C1920.91 554.399 1952.59 548.34 1952.44 549.162C1952.58 548.34 1920.93 554.518 1871.45 545.101C1821.83 536.445 1758.7 504.325 1702.14 455.085C1645.39 406.225 1586.62 349.848 1525.89 304.748C1465.95 258.456 1401.95 228.22 1352.61 212.36C1328.1 204.175 1286.84 191.474 1231.8 185.929C1176.98 180.114 1108.06 183.476 1035.77 205.884C963.195 227.158 888.206 264.822 805.039 290.903C722.389 318.043 634.342 341 545.39 352.988C456.553 365.167 366.955 365.812 284.475 354.115C201.931 342.669 126.813 320.846 63.6301 296.685C-62.9679 247.802 -142.571 193.272 -159.726 182.895C-228.663 139.576 -299.263 78.4123 -299.115 78.3545Z" fill="url(#paint38_linear_71_645)"/>
<path d="M-299.114 51.4004C-299.23 51.4742 -228.553 112.574 -160.74 157.45C-143.835 168.26 -65.5454 224.451 59.3253 277.312C121.696 303.412 195.902 327.896 277.836 342.65C359.687 357.589 449.149 361.307 538.426 352.885C627.803 344.672 716.733 324.67 799.81 298.689C883.384 273.793 958.126 235.412 1030.39 212.298C1102.4 188.131 1171.36 182.002 1226.67 185.059C1282.21 187.984 1324.26 198.666 1349.23 205.793C1399.44 219.487 1465.03 247.712 1526.03 293.076C1587.84 337.185 1646.91 393.552 1703.34 442.814C1759.6 492.381 1822.04 525.467 1871.49 535.173C1920.77 545.624 1952.6 540.175 1952.44 540.984C1952.6 540.175 1920.8 545.739 1871.43 535.449C1821.9 525.9 1759.23 492.949 1702.75 443.491C1646.12 394.358 1586.93 338.187 1525.13 294.29C1464.13 249.144 1398.8 221.179 1348.72 207.508C1323.83 200.406 1281.92 189.762 1226.58 186.844C1171.45 183.807 1102.77 189.9 1030.97 213.997C958.897 237.04 884.106 275.443 800.362 300.4C717.185 326.41 628.14 346.435 538.616 354.667C449.169 363.105 359.529 359.387 277.515 344.412C195.414 329.633 121.083 305.104 58.619 278.959C-66.4507 226.018 -144.846 169.75 -161.777 158.92C-229.712 113.945 -299.249 51.4518 -299.114 51.4004Z" fill="url(#paint39_linear_71_645)"/>
<path d="M-299.114 24.4434C-299.229 24.5172 -229.538 87.0199 -162.701 133.614C-146.002 144.858 -68.9067 202.881 54.4517 259.785C116.11 287.878 189.5 315.057 270.962 333.111C352.321 351.328 441.701 359.368 531.514 354.67C621.372 350.23 711.294 333.152 794.943 308.266C879.169 284.546 953.693 245.173 1025.46 220.271C1096.99 194.334 1165.65 185.367 1221.19 185.691C1276.93 185.974 1319.59 194.585 1344.93 200.627C1395.83 212.128 1462.75 238.083 1524.9 282.292C1587.85 325.209 1647.41 381.467 1703.77 431.059C1760 480.915 1822.02 514.888 1871.41 525.493C1920.61 536.833 1952.61 531.994 1952.43 532.794C1952.61 531.988 1920.64 536.952 1871.34 525.762C1821.87 515.315 1759.62 481.48 1703.17 431.731C1646.63 382.276 1586.94 326.224 1524.02 283.528C1461.89 239.544 1395.25 213.843 1344.5 202.364C1319.25 196.341 1276.74 187.759 1221.18 187.473C1165.82 187.155 1097.42 196.088 1026.08 221.947C954.498 246.778 879.885 286.196 795.475 309.978C711.705 334.902 621.638 352.006 531.617 356.456C441.63 361.163 352.081 353.107 270.571 334.854C188.942 316.762 115.439 289.545 53.6876 261.406C-69.8667 204.416 -147.058 146.318 -163.773 135.058C-230.745 88.3748 -299.249 24.4979 -299.114 24.4434Z" fill="url(#paint40_linear_71_645)"/>
<path d="M-299.114 -2.51074C-299.229 -2.43369 -230.498 61.5267 -164.624 109.893C-148.121 121.557 -72.2297 181.514 49.6517 242.437C170.461 303.524 342.795 359.766 524.36 356.545C614.633 355.881 705.55 341.763 789.85 317.94C874.809 295.404 949.168 254.866 1020.43 228.092C1091.55 200.499 1159.78 188.494 1215.51 186.153C1271.39 183.781 1314.59 190.282 1340.27 195.24C1391.81 204.551 1460.07 228.188 1523.43 271.227C1587.58 312.954 1647.69 369.183 1704.03 419.154C1760.27 469.369 1821.91 504.286 1871.27 515.799C1920.43 528.048 1952.63 523.823 1952.43 524.61C1952.63 523.82 1920.45 528.17 1871.2 516.069C1821.75 504.713 1759.87 469.928 1703.42 419.831C1646.9 369.992 1586.67 313.978 1522.57 272.486C1459.24 229.687 1391.28 206.291 1339.92 196.999C1314.33 192.058 1271.29 185.579 1215.59 187.948C1160.05 190.282 1092.04 202.239 1021.1 229.758C950.003 256.471 875.534 297.064 790.364 319.67C705.926 343.529 614.828 357.675 524.373 358.34C342.458 361.567 169.806 305.213 48.8234 244.042C-73.2347 183.033 -149.213 122.996 -165.735 111.315C-231.731 62.8656 -299.249 -2.45295 -299.114 -2.51074Z" fill="url(#paint41_linear_71_645)"/>
<path d="M-299.114 -29.4707C-299.239 -29.384 -231.445 36.1175 -166.547 86.3169C-150.23 98.4052 -75.5688 160.442 44.8389 225.388C164.19 290.325 334.653 353.746 516.953 358.581C607.572 361.654 699.511 350.503 784.524 327.72C870.33 306.42 944.506 264.437 1015.26 235.695C1085.98 206.362 1153.73 191.182 1209.57 186.301C1265.54 181.331 1309.2 185.784 1335.2 189.663C1387.31 196.832 1456.92 218.055 1521.56 259.91C1586.99 300.41 1647.73 356.684 1704.1 407.095C1760.4 457.728 1821.71 493.643 1871.08 506.081C1920.23 519.267 1952.64 515.646 1952.43 516.429C1952.64 515.646 1920.25 519.389 1871.01 506.351C1821.54 494.073 1760 458.28 1703.49 407.766C1646.94 357.502 1586.09 301.45 1520.73 261.197C1456.14 219.59 1386.85 198.602 1334.93 191.448C1309.02 187.586 1265.52 183.148 1209.74 188.106C1154.08 192.967 1086.54 208.096 1015.97 237.358C945.377 266.03 871.052 308.096 785.008 329.463C699.828 352.292 607.697 363.474 516.889 360.392C334.223 355.541 163.471 292.001 43.959 226.978C-76.6189 161.939 -151.351 99.8307 -167.697 87.7296C-232.707 37.4275 -299.262 -29.4033 -299.114 -29.4707Z" fill="url(#paint42_linear_71_645)"/>
<path d="M-299.114 -56.4248C-299.262 -56.3156 -232.396 10.8009 -168.387 62.7789C-152.311 75.3906 -78.7061 139.306 40.1863 208.301C158.17 276.946 326.433 348.002 509.382 360.53C600.268 367.295 693.24 359.265 779.052 337.58C865.812 317.644 939.761 273.834 1010.01 243.118C1080.33 211.929 1147.54 193.686 1203.45 186.288C1259.42 178.756 1303.5 181.17 1329.79 183.976C1382.43 188.985 1453.33 207.803 1519.35 248.39C1586.13 287.621 1647.56 344.001 1704.02 394.891C1760.42 445.995 1821.43 482.96 1870.85 496.336C1920.01 510.479 1952.66 507.468 1952.43 508.245C1952.65 507.468 1920.02 510.598 1870.77 496.612C1821.25 483.394 1760.01 446.554 1703.4 395.565C1646.77 344.823 1585.24 288.674 1518.55 249.7C1452.61 209.37 1382.03 190.774 1329.59 185.784C1303.41 182.988 1259.5 180.583 1203.7 188.089C1147.98 195.458 1080.95 213.65 1010.78 244.771C940.679 275.408 866.56 319.327 779.518 339.336C693.506 361.072 600.332 369.122 509.241 362.347C325.916 349.784 157.393 278.599 39.2617 209.871C-79.7975 140.776 -153.483 76.7968 -169.569 64.1659C-233.699 12.1012 -299.278 -56.3349 -299.114 -56.4248Z" fill="url(#paint43_linear_71_645)"/>
</g>
</g>
<defs>
<linearGradient id="paint0_linear_71_645" x1="-78.8926" y1="272.171" x2="1944.86" y2="328.858" gradientUnits="userSpaceOnUse">
<stop stop-color="#600F25"/>
<stop offset="0.3333" stop-color="#DC1F26"/>
<stop offset="0.6848" stop-color="#F78C1E"/>
<stop offset="1" stop-color="#FDBA12"/>
</linearGradient>
<linearGradient id="paint1_linear_71_645" x1="-78.954" y1="273.562" x2="1992.89" y2="331.596" gradientUnits="userSpaceOnUse">
<stop stop-color="#600F25"/>
<stop offset="0.3333" stop-color="#DC1F26"/>
<stop offset="0.6848" stop-color="#F78C1E"/>
<stop offset="1" stop-color="#FDBA12"/>
</linearGradient>
<linearGradient id="paint2_linear_71_645" x1="-79.0067" y1="274.949" x2="2040.67" y2="334.324" gradientUnits="userSpaceOnUse">
<stop stop-color="#600F25"/>
<stop offset="0.3333" stop-color="#DC1F26"/>
<stop offset="0.6848" stop-color="#F78C1E"/>
<stop offset="1" stop-color="#FDBA12"/>
</linearGradient>
<linearGradient id="paint3_linear_71_645" x1="-79.0627" y1="276.408" x2="2088.55" y2="337.126" gradientUnits="userSpaceOnUse">
<stop stop-color="#600F25"/>
<stop offset="0.3333" stop-color="#DC1F26"/>
<stop offset="0.6848" stop-color="#F78C1E"/>
<stop offset="1" stop-color="#FDBA12"/>
</linearGradient>
<linearGradient id="paint4_linear_71_645" x1="-79.1196" y1="277.733" x2="2136.52" y2="339.796" gradientUnits="userSpaceOnUse">
<stop stop-color="#600F25"/>
<stop offset="0.3333" stop-color="#DC1F26"/>
<stop offset="0.6848" stop-color="#F78C1E"/>
<stop offset="1" stop-color="#FDBA12"/>
</linearGradient>
<linearGradient id="paint5_linear_71_645" x1="-79.1774" y1="279.176" x2="2184.41" y2="342.582" gradientUnits="userSpaceOnUse">
<stop stop-color="#600F25"/>
<stop offset="0.3333" stop-color="#DC1F26"/>
<stop offset="0.6848" stop-color="#F78C1E"/>
<stop offset="1" stop-color="#FDBA12"/>
</linearGradient>
<linearGradient id="paint6_linear_71_645" x1="-79.2342" y1="280.511" x2="2232.35" y2="345.261" gradientUnits="userSpaceOnUse">
<stop stop-color="#600F25"/>
<stop offset="0.3333" stop-color="#DC1F26"/>
<stop offset="0.6848" stop-color="#F78C1E"/>
<stop offset="1" stop-color="#FDBA12"/>
</linearGradient>
<linearGradient id="paint7_linear_71_645" x1="-79.2889" y1="281.91" x2="2280.32" y2="348.005" gradientUnits="userSpaceOnUse">
<stop stop-color="#600F25"/>
<stop offset="0.3333" stop-color="#DC1F26"/>
<stop offset="0.6848" stop-color="#F78C1E"/>
<stop offset="1" stop-color="#FDBA12"/>
</linearGradient>
<linearGradient id="paint8_linear_71_645" x1="-79.3447" y1="283.29" x2="2328.19" y2="350.728" gradientUnits="userSpaceOnUse">
<stop stop-color="#600F25"/>
<stop offset="0.3333" stop-color="#DC1F26"/>
<stop offset="0.6848" stop-color="#F78C1E"/>
<stop offset="1" stop-color="#FDBA12"/>
</linearGradient>
<linearGradient id="paint9_linear_71_645" x1="-79.4017" y1="284.679" x2="2376.12" y2="353.461" gradientUnits="userSpaceOnUse">
<stop stop-color="#600F25"/>
<stop offset="0.3333" stop-color="#DC1F26"/>
<stop offset="0.6848" stop-color="#F78C1E"/>
<stop offset="1" stop-color="#FDBA12"/>
</linearGradient>
<linearGradient id="paint10_linear_71_645" x1="-79.4549" y1="286.071" x2="2424.04" y2="356.197" gradientUnits="userSpaceOnUse">
<stop stop-color="#600F25"/>
<stop offset="0.3333" stop-color="#DC1F26"/>
<stop offset="0.6848" stop-color="#F78C1E"/>
<stop offset="1" stop-color="#FDBA12"/>
</linearGradient>
<linearGradient id="paint11_linear_71_645" x1="-79.5099" y1="287.454" x2="2472.06" y2="358.927" gradientUnits="userSpaceOnUse">
<stop stop-color="#600F25"/>
<stop offset="0.3333" stop-color="#DC1F26"/>
<stop offset="0.6848" stop-color="#F78C1E"/>
<stop offset="1" stop-color="#FDBA12"/>
</linearGradient>
<linearGradient id="paint12_linear_71_645" x1="-79.5697" y1="288.91" x2="2519.85" y2="361.723" gradientUnits="userSpaceOnUse">
<stop stop-color="#600F25"/>
<stop offset="0.3333" stop-color="#DC1F26"/>
<stop offset="0.6848" stop-color="#F78C1E"/>
<stop offset="1" stop-color="#FDBA12"/>
</linearGradient>
<linearGradient id="paint13_linear_71_645" x1="-79.6263" y1="290.26" x2="2567.93" y2="364.422" gradientUnits="userSpaceOnUse">
<stop stop-color="#600F25"/>
<stop offset="0.3333" stop-color="#DC1F26"/>
<stop offset="0.6848" stop-color="#F78C1E"/>
<stop offset="1" stop-color="#FDBA12"/>
</linearGradient>
<linearGradient id="paint14_linear_71_645" x1="-79.6871" y1="291.707" x2="2615.67" y2="367.207" gradientUnits="userSpaceOnUse">
<stop stop-color="#600F25"/>
<stop offset="0.3333" stop-color="#DC1F26"/>
<stop offset="0.6848" stop-color="#F78C1E"/>
<stop offset="1" stop-color="#FDBA12"/>
</linearGradient>
<linearGradient id="paint15_linear_71_645" x1="-79.7395" y1="293.032" x2="2663.62" y2="369.877" gradientUnits="userSpaceOnUse">
<stop stop-color="#600F25"/>
<stop offset="0.3333" stop-color="#DC1F26"/>
<stop offset="0.6848" stop-color="#F78C1E"/>
<stop offset="1" stop-color="#FDBA12"/>
</linearGradient>
<linearGradient id="paint16_linear_71_645" x1="-79.7958" y1="294.443" x2="2711.52" y2="372.631" gradientUnits="userSpaceOnUse">
<stop stop-color="#600F25"/>
<stop offset="0.3333" stop-color="#DC1F26"/>
<stop offset="0.6848" stop-color="#F78C1E"/>
<stop offset="1" stop-color="#FDBA12"/>
</linearGradient>
<linearGradient id="paint17_linear_71_645" x1="-79.8498" y1="295.854" x2="2759.44" y2="375.386" gradientUnits="userSpaceOnUse">
<stop stop-color="#600F25"/>
<stop offset="0.3333" stop-color="#DC1F26"/>
<stop offset="0.6848" stop-color="#F78C1E"/>
<stop offset="1" stop-color="#FDBA12"/>
</linearGradient>
<linearGradient id="paint18_linear_71_645" x1="-79.9079" y1="297.267" x2="2807.34" y2="378.142" gradientUnits="userSpaceOnUse">
<stop stop-color="#600F25"/>
<stop offset="0.3333" stop-color="#DC1F26"/>
<stop offset="0.6848" stop-color="#F78C1E"/>
<stop offset="1" stop-color="#FDBA12"/>
</linearGradient>
<linearGradient id="paint19_linear_71_645" x1="-79.9596" y1="298.676" x2="2855.26" y2="380.895" gradientUnits="userSpaceOnUse">
<stop stop-color="#600F25"/>
<stop offset="0.3333" stop-color="#DC1F26"/>
<stop offset="0.6848" stop-color="#F78C1E"/>
<stop offset="1" stop-color="#FDBA12"/>
</linearGradient>
<linearGradient id="paint20_linear_71_645" x1="-80.0204" y1="300.084" x2="2903.16" y2="383.646" gradientUnits="userSpaceOnUse">
<stop stop-color="#600F25"/>
<stop offset="0.3333" stop-color="#DC1F26"/>
<stop offset="0.6848" stop-color="#F78C1E"/>
<stop offset="1" stop-color="#FDBA12"/>
</linearGradient>
<linearGradient id="paint21_linear_71_645" x1="-80.0747" y1="301.492" x2="2951.06" y2="386.398" gradientUnits="userSpaceOnUse">
<stop stop-color="#600F25"/>
<stop offset="0.3333" stop-color="#DC1F26"/>
<stop offset="0.6848" stop-color="#F78C1E"/>
<stop offset="1" stop-color="#FDBA12"/>
</linearGradient>
<linearGradient id="paint22_linear_71_645" x1="1952.44" y1="377.076" x2="-299.114" y2="377.076" gradientUnits="userSpaceOnUse">
<stop stop-color="#600F25"/>
<stop offset="0.3333" stop-color="#DC1F26"/>
<stop offset="0.6848" stop-color="#F78C1E"/>
<stop offset="1" stop-color="#FDBA12"/>
</linearGradient>
<linearGradient id="paint23_linear_71_645" x1="1952.44" y1="377.035" x2="-299.115" y2="377.035" gradientUnits="userSpaceOnUse">
<stop stop-color="#600F25"/>
<stop offset="0.3333" stop-color="#DC1F26"/>
<stop offset="0.6848" stop-color="#F78C1E"/>
<stop offset="1" stop-color="#FDBA12"/>
</linearGradient>
<linearGradient id="paint24_linear_71_645" x1="1952.44" y1="377.027" x2="-299.114" y2="377.027" gradientUnits="userSpaceOnUse">
<stop stop-color="#600F25"/>
<stop offset="0.3333" stop-color="#DC1F26"/>
<stop offset="0.6848" stop-color="#F78C1E"/>
<stop offset="1" stop-color="#FDBA12"/>
</linearGradient>
<linearGradient id="paint25_linear_71_645" x1="1952.44" y1="376.983" x2="-299.114" y2="376.983" gradientUnits="userSpaceOnUse">
<stop stop-color="#600F25"/>
<stop offset="0.3333" stop-color="#DC1F26"/>
<stop offset="0.6848" stop-color="#F78C1E"/>
<stop offset="1" stop-color="#FDBA12"/>
</linearGradient>
<linearGradient id="paint26_linear_71_645" x1="1952.44" y1="376.98" x2="-299.113" y2="376.98" gradientUnits="userSpaceOnUse">
<stop stop-color="#600F25"/>
<stop offset="0.3333" stop-color="#DC1F26"/>
<stop offset="0.6848" stop-color="#F78C1E"/>
<stop offset="1" stop-color="#FDBA12"/>
</linearGradient>
<linearGradient id="paint27_linear_71_645" x1="1952.44" y1="376.764" x2="-299.114" y2="376.764" gradientUnits="userSpaceOnUse">
<stop stop-color="#600F25"/>
<stop offset="0.3333" stop-color="#DC1F26"/>
<stop offset="0.6848" stop-color="#F78C1E"/>
<stop offset="1" stop-color="#FDBA12"/>
</linearGradient>
<linearGradient id="paint28_linear_71_645" x1="1952.44" y1="376.569" x2="-299.114" y2="376.569" gradientUnits="userSpaceOnUse">
<stop stop-color="#600F25"/>
<stop offset="0.3333" stop-color="#DC1F26"/>
<stop offset="0.6848" stop-color="#F78C1E"/>
<stop offset="1" stop-color="#FDBA12"/>
</linearGradient>
<linearGradient id="paint29_linear_71_645" x1="1952.44" y1="376.355" x2="-299.114" y2="376.355" gradientUnits="userSpaceOnUse">
<stop stop-color="#600F25"/>
<stop offset="0.3333" stop-color="#DC1F26"/>
<stop offset="0.6848" stop-color="#F78C1E"/>
<stop offset="1" stop-color="#FDBA12"/>
</linearGradient>
<linearGradient id="paint30_linear_71_645" x1="1952.44" y1="375.997" x2="-299.113" y2="375.997" gradientUnits="userSpaceOnUse">
<stop stop-color="#600F25"/>
<stop offset="0.3333" stop-color="#DC1F26"/>
<stop offset="0.6848" stop-color="#F78C1E"/>
<stop offset="1" stop-color="#FDBA12"/>
</linearGradient>
<linearGradient id="paint31_linear_71_645" x1="1952.44" y1="375.527" x2="-299.114" y2="375.527" gradientUnits="userSpaceOnUse">
<stop stop-color="#600F25"/>
<stop offset="0.3333" stop-color="#DC1F26"/>
<stop offset="0.6848" stop-color="#F78C1E"/>
<stop offset="1" stop-color="#FDBA12"/>
</linearGradient>
<linearGradient id="paint32_linear_71_645" x1="1952.44" y1="374.933" x2="-299.114" y2="374.933" gradientUnits="userSpaceOnUse">
<stop stop-color="#600F25"/>
<stop offset="0.3333" stop-color="#DC1F26"/>
<stop offset="0.6848" stop-color="#F78C1E"/>
<stop offset="1" stop-color="#FDBA12"/>
</linearGradient>
<linearGradient id="paint33_linear_71_645" x1="1952.44" y1="374.165" x2="-299.114" y2="374.165" gradientUnits="userSpaceOnUse">
<stop stop-color="#600F25"/>
<stop offset="0.3333" stop-color="#DC1F26"/>
<stop offset="0.6848" stop-color="#F78C1E"/>
<stop offset="1" stop-color="#FDBA12"/>
</linearGradient>
<linearGradient id="paint34_linear_71_645" x1="1952.44" y1="373.195" x2="-299.114" y2="373.195" gradientUnits="userSpaceOnUse">
<stop stop-color="#600F25"/>
<stop offset="0.3333" stop-color="#DC1F26"/>
<stop offset="0.6848" stop-color="#F78C1E"/>
<stop offset="1" stop-color="#FDBA12"/>
</linearGradient>
<linearGradient id="paint35_linear_71_645" x1="1952.44" y1="368.016" x2="-299.114" y2="368.016" gradientUnits="userSpaceOnUse">
<stop stop-color="#600F25"/>
<stop offset="0.3333" stop-color="#DC1F26"/>
<stop offset="0.6848" stop-color="#F78C1E"/>
<stop offset="1" stop-color="#FDBA12"/>
</linearGradient>
<linearGradient id="paint36_linear_71_645" x1="1952.44" y1="350.096" x2="-299.113" y2="350.096" gradientUnits="userSpaceOnUse">
<stop stop-color="#600F25"/>
<stop offset="0.3333" stop-color="#DC1F26"/>
<stop offset="0.6848" stop-color="#F78C1E"/>
<stop offset="1" stop-color="#FDBA12"/>
</linearGradient>
<linearGradient id="paint37_linear_71_645" x1="1952.44" y1="332.215" x2="-299.112" y2="332.215" gradientUnits="userSpaceOnUse">
<stop stop-color="#600F25"/>
<stop offset="0.3333" stop-color="#DC1F26"/>
<stop offset="0.6848" stop-color="#F78C1E"/>
<stop offset="1" stop-color="#FDBA12"/>
</linearGradient>
<linearGradient id="paint38_linear_71_645" x1="1952.44" y1="314.375" x2="-299.114" y2="314.375" gradientUnits="userSpaceOnUse">
<stop stop-color="#600F25"/>
<stop offset="0.3333" stop-color="#DC1F26"/>
<stop offset="0.6848" stop-color="#F78C1E"/>
<stop offset="1" stop-color="#FDBA12"/>
</linearGradient>
<linearGradient id="paint39_linear_71_645" x1="1952.44" y1="296.582" x2="-299.113" y2="296.582" gradientUnits="userSpaceOnUse">
<stop stop-color="#600F25"/>
<stop offset="0.3333" stop-color="#DC1F26"/>
<stop offset="0.6848" stop-color="#F78C1E"/>
<stop offset="1" stop-color="#FDBA12"/>
</linearGradient>
<linearGradient id="paint40_linear_71_645" x1="1952.43" y1="278.828" x2="-299.113" y2="278.828" gradientUnits="userSpaceOnUse">
<stop stop-color="#600F25"/>
<stop offset="0.3333" stop-color="#DC1F26"/>
<stop offset="0.6848" stop-color="#F78C1E"/>
<stop offset="1" stop-color="#FDBA12"/>
</linearGradient>
<linearGradient id="paint41_linear_71_645" x1="1952.43" y1="261.12" x2="-299.113" y2="261.12" gradientUnits="userSpaceOnUse">
<stop stop-color="#600F25"/>
<stop offset="0.3333" stop-color="#DC1F26"/>
<stop offset="0.6848" stop-color="#F78C1E"/>
<stop offset="1" stop-color="#FDBA12"/>
</linearGradient>
<linearGradient id="paint42_linear_71_645" x1="1952.43" y1="243.477" x2="-299.113" y2="243.477" gradientUnits="userSpaceOnUse">
<stop stop-color="#600F25"/>
<stop offset="0.3333" stop-color="#DC1F26"/>
<stop offset="0.6848" stop-color="#F78C1E"/>
<stop offset="1" stop-color="#FDBA12"/>
</linearGradient>
<linearGradient id="paint43_linear_71_645" x1="1952.43" y1="225.909" x2="-299.113" y2="225.909" gradientUnits="userSpaceOnUse">
<stop stop-color="#600F25"/>
<stop offset="0.3333" stop-color="#DC1F26"/>
<stop offset="0.6848" stop-color="#F78C1E"/>
<stop offset="1" stop-color="#FDBA12"/>
</linearGradient>
</defs>
</svg>
