<svg width="80" height="80" viewBox="0 0 80 80" fill="none" xmlns="http://www.w3.org/2000/svg">
<path d="M50.3123 63.7083H14.9973C14.6701 63.7083 14.4023 63.4406 14.4023 63.1134V16.883C14.4023 16.5558 14.6701 16.2881 14.9973 16.2881H50.3123C50.6395 16.2881 50.9072 16.5558 50.9072 16.883V22.6936C50.9072 23.0209 50.6395 23.2886 50.3123 23.2886C49.9851 23.2886 49.7174 23.0209 49.7174 22.6936V17.478H15.5922V62.5185H49.7174V52.3449C49.7174 52.0177 49.9851 51.75 50.3123 51.75C50.6395 51.75 50.9072 52.0177 50.9072 52.3449V63.1134C50.9072 63.4406 50.6395 63.7083 50.3123 63.7083Z" fill="#FFBC5E"/>
<path d="M34.5146 25.1723H22.1535C21.8263 25.1723 21.5586 24.9046 21.5586 24.5774C21.5586 24.2501 21.8263 23.9824 22.1535 23.9824H34.5146C34.8418 23.9824 35.1095 24.2501 35.1095 24.5774C35.1095 24.9046 34.8418 25.1723 34.5146 25.1723Z" fill="#FFBC5E"/>
<path d="M28.8596 32.8832H22.1535C21.8263 32.8832 21.5586 32.6155 21.5586 32.2883C21.5586 31.9611 21.8263 31.6934 22.1535 31.6934H28.8596C29.1868 31.6934 29.4545 31.9611 29.4545 32.2883C29.4545 32.6155 29.1868 32.8832 28.8596 32.8832Z" fill="#FFBC5E"/>
<path d="M28.1853 40.5942H22.1535C21.8263 40.5942 21.5586 40.3265 21.5586 39.9992C21.5586 39.672 21.8263 39.4043 22.1535 39.4043H28.1853C28.5125 39.4043 28.7802 39.672 28.7802 39.9992C28.7802 40.3265 28.5125 40.5942 28.1853 40.5942Z" fill="#FFBC5E"/>
<path d="M31.6259 48.3061H22.1535C21.8263 48.3061 21.5586 48.0384 21.5586 47.7112C21.5586 47.3839 21.8263 47.1162 22.1535 47.1162H31.6259C31.9531 47.1162 32.2209 47.3839 32.2209 47.7112C32.2209 48.0384 31.9531 48.3061 31.6259 48.3061Z" fill="#FFBC5E"/>
<path d="M43.1574 56.0131H22.1535C21.8263 56.0131 21.5586 55.7454 21.5586 55.4182C21.5586 55.091 21.8263 54.8232 22.1535 54.8232H43.1574C43.4846 54.8232 43.7524 55.091 43.7524 55.4182C43.7524 55.7454 43.4846 56.0131 43.1574 56.0131Z" fill="#FFBC5E"/>
<path d="M44.0656 50.2265C40.8101 50.2265 37.5546 48.987 35.079 46.5081C30.1247 41.5535 30.1247 33.4888 35.079 28.5342C37.4785 26.1346 40.6713 24.8125 44.0656 24.8125C47.46 24.8125 50.6527 26.1346 53.0522 28.5342C58.0065 33.4888 58.0065 41.5535 53.0522 46.5081C50.5734 48.987 47.3211 50.2265 44.0656 50.2265ZM44.0656 26.0024C40.9886 26.0024 38.0966 27.2022 35.9185 29.377C31.4269 33.8689 31.4269 41.1767 35.9185 45.6686C40.4102 50.1604 47.7178 50.1604 52.2094 45.6686C56.701 41.1767 56.701 33.8689 52.2094 29.377C50.0346 27.2022 47.1394 26.0024 44.0623 26.0024H44.0656Z" fill="#FFBC5E"/>
<path d="M44.0653 45.3774C41.9666 45.3774 39.9934 44.561 38.5095 43.0769C38.2781 42.8455 38.2781 42.4687 38.5095 42.2341C38.7408 42.0027 39.1176 42.0027 39.3523 42.2341C40.6115 43.4934 42.2839 44.1875 44.0653 44.1875C45.8468 44.1875 47.5192 43.4934 48.7784 42.2341C49.0098 42.0027 49.3865 42.0027 49.6212 42.2341C49.8526 42.4654 49.8526 42.8422 49.6212 43.0769C48.1372 44.561 46.1641 45.3774 44.0686 45.3774H44.0653Z" fill="#FFBC5E"/>
<path d="M61.5955 59.0517C60.6667 59.0517 59.7942 58.6914 59.1431 58.0403L54.7209 53.6211C53.3691 52.2693 53.3691 50.0647 54.7209 48.7129L55.2563 48.1774C55.9107 47.523 56.7799 47.166 57.7087 47.166C58.6374 47.166 59.51 47.5263 60.1611 48.1807L64.5833 52.5998C65.2377 53.2543 65.5947 54.1235 65.5947 55.0523C65.5947 55.9811 65.2344 56.8537 64.5833 57.5048L64.0479 58.0403C63.3935 58.6947 62.5242 59.0517 61.5922 59.0517H61.5955ZM57.7087 48.3526C57.0972 48.3526 56.5255 48.5873 56.0958 49.017L55.5604 49.5524C54.6713 50.4415 54.6713 51.8892 55.5604 52.7783L59.9826 57.1974C60.8717 58.0865 62.3193 58.0865 63.2084 57.1974L63.7438 56.662C64.6329 55.7729 64.6329 54.3252 63.7438 53.4361L59.3216 49.017C58.8919 48.5873 58.3201 48.3526 57.7087 48.3526Z" fill="#FFBC5E"/>
</svg>
