<svg width="80" height="80" viewBox="0 0 80 80" fill="none" xmlns="http://www.w3.org/2000/svg">
<path d="M59.7992 64.475H20.2041C17.5302 64.475 15.3555 62.3002 15.3555 59.6262V31.9416C15.3555 29.2676 17.5302 27.0928 20.2041 27.0928H27.7529C28.0801 27.0928 28.3478 27.3605 28.3478 27.6877C28.3478 28.0149 28.0801 28.2827 27.7529 28.2827H20.2041C18.1879 28.2827 16.5453 29.9254 16.5453 31.9416V59.6262C16.5453 61.6424 18.1879 63.2851 20.2041 63.2851H59.7992C61.8153 63.2851 63.4579 61.6424 63.4579 59.6262V31.9416C63.4579 29.9254 61.8153 28.2827 59.7992 28.2827H52.2503C51.9231 28.2827 51.6554 28.0149 51.6554 27.6877C51.6554 27.3605 51.9231 27.0928 52.2503 27.0928H59.7992C62.473 27.0928 64.6478 29.2676 64.6478 31.9416V59.6262C64.6478 62.3002 62.473 64.475 59.7992 64.475Z" fill="white"/>
<path d="M44.14 30.8111H35.864C32.9126 30.8111 30.5098 28.4082 30.5098 25.4567V20.8789C30.5098 17.9273 32.9126 15.5244 35.864 15.5244H44.14C47.0915 15.5244 49.4943 17.9273 49.4943 20.8789V25.4567C49.4943 28.4082 47.0915 30.8111 44.14 30.8111ZM35.864 16.7143C33.567 16.7143 31.6996 18.5818 31.6996 20.8789V25.4567C31.6996 27.7538 33.567 29.6213 35.864 29.6213H44.14C46.4371 29.6213 48.3044 27.7538 48.3044 25.4567V20.8789C48.3044 18.5818 46.4371 16.7143 44.14 16.7143H35.864Z" fill="white"/>
<path d="M28.5264 56.4073C23.82 56.4073 20.1348 54.2391 20.1348 51.4693C20.1348 48.6995 23.82 46.5312 28.5264 46.5312C33.2329 46.5312 36.9181 48.6995 36.9181 51.4693C36.9181 54.2391 33.2329 56.4073 28.5264 56.4073ZM28.5264 47.7244C24.6231 47.7244 21.3246 49.4399 21.3246 51.4726C21.3246 53.5053 24.6231 55.2207 28.5264 55.2207C32.4297 55.2207 35.7282 53.5053 35.7282 51.4726C35.7282 49.4399 32.4297 47.7244 28.5264 47.7244Z" fill="white"/>
<path d="M28.5266 44.3857C25.985 44.3857 23.916 42.3166 23.916 39.7749C23.916 37.2331 25.985 35.1641 28.5266 35.1641C31.0683 35.1641 33.1373 37.2331 33.1373 39.7749C33.1373 42.3166 31.0683 44.3857 28.5266 44.3857ZM28.5266 36.3539C26.6394 36.3539 25.1059 37.8876 25.1059 39.7749C25.1059 41.6622 26.6427 43.1958 28.5266 43.1958C30.4105 43.1958 31.9474 41.6622 31.9474 39.7749C31.9474 37.8876 30.4138 36.3539 28.5266 36.3539Z" fill="white"/>
<path d="M54.0457 38.5815H46.9562C46.629 38.5815 46.3613 38.3138 46.3613 37.9865C46.3613 37.6593 46.629 37.3916 46.9562 37.3916H54.0457C54.3729 37.3916 54.6406 37.6593 54.6406 37.9865C54.6406 38.3138 54.3729 38.5815 54.0457 38.5815Z" fill="white"/>
<path d="M59.2751 47.9682H41.7316C41.4044 47.9682 41.1367 47.7005 41.1367 47.3733C41.1367 47.046 41.4044 46.7783 41.7316 46.7783H59.2751C59.6023 46.7783 59.87 47.046 59.87 47.3733C59.87 47.7005 59.6023 47.9682 59.2751 47.9682Z" fill="white"/>
<path d="M59.2751 54.1791H41.7316C41.4044 54.1791 41.1367 53.9114 41.1367 53.5842C41.1367 53.257 41.4044 52.9893 41.7316 52.9893H59.2751C59.6023 52.9893 59.87 53.257 59.87 53.5842C59.87 53.9114 59.6023 54.1791 59.2751 54.1791Z" fill="white"/>
</svg>
