<svg width="80" height="80" viewBox="0 0 80 80" fill="none" xmlns="http://www.w3.org/2000/svg">
<path d="M34.4431 51.3103C31.3296 51.3103 28.2691 50.4377 25.5821 48.7553C25.3044 48.5801 25.2185 48.2132 25.3937 47.9356C25.5689 47.658 25.9357 47.572 26.2134 47.7472C29.568 49.8493 33.5474 50.5897 37.4276 49.8328C37.7482 49.77 38.0621 49.9815 38.1249 50.3022C38.1877 50.6261 37.9762 50.9368 37.6556 50.9996C36.5881 51.2078 35.5139 51.3103 34.4431 51.3103Z" fill="white"/>
<path d="M22.3063 45.801C22.141 45.801 21.9791 45.7316 21.8601 45.5993C20.8586 44.469 20.0158 43.213 19.3581 41.8578C19.2127 41.5636 19.335 41.2067 19.6324 41.0612C19.9266 40.9158 20.2835 41.0381 20.429 41.3356C21.0437 42.5916 21.8237 43.7616 22.7525 44.8094C22.9706 45.054 22.9475 45.4308 22.7029 45.6489C22.5905 45.7481 22.4484 45.7977 22.3096 45.7977L22.3063 45.801Z" fill="white"/>
<path d="M31.7315 62.5676C31.7117 62.5676 31.6919 62.5676 31.672 62.5676C27.0614 62.1115 22.5863 60.4919 18.7359 57.8874C18.4648 57.7023 18.3921 57.3321 18.5772 57.0611C18.7623 56.79 19.1325 56.7173 19.4035 56.9024C23.092 59.3979 27.3754 60.948 31.791 61.3843C32.1182 61.4174 32.3562 61.7082 32.3231 62.0354C32.2934 62.3428 32.0356 62.5709 31.7315 62.5709V62.5676Z" fill="white"/>
<path d="M38.2095 62.4393C37.9187 62.4393 37.6642 62.2245 37.6212 61.927C37.5749 61.6031 37.803 61.3023 38.1269 61.256C39.0655 61.1238 40.0075 60.942 40.9263 60.714C41.2436 60.6347 41.5675 60.8297 41.6468 61.147C41.7261 61.4676 41.5311 61.7882 41.2138 61.8675C40.2554 62.1055 39.2704 62.2972 38.2921 62.4327C38.2657 62.436 38.2359 62.4393 38.2095 62.4393Z" fill="white"/>
<path d="M61.5234 29.6411C61.2458 29.6411 60.9979 29.4461 60.9417 29.1619C59.9006 23.9264 57.3491 19.1569 53.568 15.3757C53.3367 15.1444 53.3367 14.7676 53.568 14.5329C53.7994 14.3015 54.1762 14.3015 54.4109 14.5329C58.3604 18.4827 61.0211 23.4603 62.1117 28.9272C62.1745 29.2478 61.9663 29.5618 61.6457 29.6279C61.6061 29.6345 61.5664 29.6411 61.53 29.6411H61.5234Z" fill="white"/>
<path d="M61.4556 67.8204C60.7616 67.8204 60.0774 67.6782 59.4494 67.3907C57.8927 66.68 56.5376 65.6719 55.4238 64.3862L55.1396 64.059C53.3317 61.9767 52.0757 59.4416 51.5007 56.7081L47.8155 53.0228C47.5048 52.7121 47.3362 52.2824 47.3561 51.8428C47.3759 51.4032 47.5775 50.9901 47.9146 50.7091C48.5789 50.1505 49.0912 49.6977 49.392 49.3937C53.378 45.4075 55.5725 40.1059 55.5725 34.4705C55.5725 28.8351 53.378 23.5335 49.392 19.5473C45.2573 15.4125 39.5362 13.1616 33.6829 13.3798C27.7535 13.5979 22.343 16.209 18.4463 20.7306C11.5982 28.6764 11.6841 40.5885 18.6446 48.4417C24.8748 55.472 34.7801 57.5642 43.2908 53.6508C43.5915 53.512 43.9419 53.6442 44.0807 53.9417C44.2195 54.2391 44.0873 54.5928 43.7899 54.7316C34.7967 58.8698 24.336 56.6586 17.7556 49.2317C10.4017 40.9322 10.3125 28.3459 17.544 19.9539C21.6589 15.1811 27.3734 12.4246 33.6366 12.1932C39.8171 11.9618 45.8622 14.3383 50.2315 18.7078C54.4422 22.9187 56.7624 28.5178 56.7624 34.4738C56.7624 40.4298 54.4422 46.0289 50.2315 50.2398C49.901 50.5703 49.3788 51.0364 48.6781 51.6247C48.5657 51.7172 48.5459 51.8362 48.5426 51.899C48.5426 51.9618 48.5492 52.0808 48.655 52.1866L52.4657 55.9975C52.5484 56.0801 52.6046 56.1859 52.6277 56.3016C53.1466 58.8995 54.3232 61.3123 56.0353 63.2823L56.3195 63.6095C57.3209 64.763 58.5405 65.6719 59.9419 66.3099C60.831 66.7164 61.8853 66.7395 62.8372 66.376C64.4633 65.7546 65.7523 64.4688 66.3703 62.8427C66.7339 61.8908 66.7074 60.8364 66.3042 59.9473C65.6663 58.5492 64.7574 57.3295 63.6039 56.3247L63.2767 56.0405C61.3069 54.3284 58.8942 53.1517 56.2964 52.6328C56.1807 52.6096 56.0749 52.5535 55.9923 52.4708L54.7 51.1785C54.4686 50.9471 54.4686 50.5703 54.7 50.3356C54.9314 50.1043 55.3081 50.1043 55.5428 50.3356L56.7095 51.4991C59.4428 52.0742 61.9811 53.3302 64.0601 55.1382L64.3873 55.4224C65.6696 56.5396 66.681 57.8914 67.3916 59.4482C67.927 60.6248 67.9634 62.013 67.4874 63.2591C66.7471 65.1993 65.2069 66.7395 63.2668 67.4799C62.6851 67.7014 62.0704 67.8137 61.4589 67.8137L61.4556 67.8204Z" fill="white"/>
<path d="M54.564 62.9483C54.4119 62.9483 54.2599 62.8888 54.1442 62.7731C53.9129 62.5418 53.9129 62.165 54.1442 61.9303L58.3979 57.6765C58.6292 57.4451 59.006 57.4451 59.2407 57.6765C59.472 57.9078 59.472 58.2846 59.2407 58.5193L54.987 62.7731C54.8713 62.8888 54.7193 62.9483 54.5673 62.9483H54.564Z" fill="white"/>
</svg>
