<svg width="80" height="80" viewBox="0 0 80 80" fill="none" xmlns="http://www.w3.org/2000/svg">
<path d="M59.3962 65.4537H49.0017C48.6745 65.4537 48.4068 65.1859 48.4068 64.8587C48.4068 64.5315 48.6745 64.2638 49.0017 64.2638H59.3962C62.5394 64.2638 65.3586 62.6376 66.9285 59.9108C68.4985 57.1873 68.4985 53.9382 66.9252 51.218L47.3359 17.2831C45.7627 14.5563 42.9467 12.9301 39.8003 12.9301C36.6538 12.9301 33.8379 14.5563 32.2679 17.2831L29.1347 22.7136C28.9694 22.9979 28.6059 23.097 28.3216 22.9318C28.0374 22.7665 27.9383 22.4029 28.1035 22.1187L31.2367 16.6882C33.0248 13.5912 36.2241 11.7402 39.8003 11.7402C43.3764 11.7402 46.579 13.5912 48.3638 16.6882L67.9531 50.6231C69.7412 53.7168 69.7445 57.4087 67.9597 60.5057C66.1717 63.6027 62.9723 65.4537 59.3962 65.4537Z" fill="#FFBC5E"/>
<path d="M55.973 39.5838C55.7681 39.5838 55.5665 39.478 55.4574 39.2863L52.1953 33.6344C52.0301 33.3501 52.1292 32.9865 52.4134 32.8213C52.6977 32.656 53.0612 32.7552 53.2265 33.0394L56.4886 38.6914C56.6539 38.9756 56.5547 39.3392 56.2705 39.5045C56.178 39.5574 56.0755 39.5838 55.973 39.5838Z" fill="#FFBC5E"/>
<path d="M64.0076 58.8237C63.9052 58.8237 63.8027 58.7972 63.7102 58.7444C63.4259 58.5791 63.3268 58.2155 63.492 57.9313C63.9019 57.2206 64.7215 55.3367 63.492 53.2048L58.1113 43.8873C57.9461 43.6031 58.0452 43.2395 58.3295 43.0742C58.6137 42.909 58.9773 43.0081 59.1425 43.2924L64.5199 52.6098C66.0634 55.2772 65.0355 57.6338 64.5199 58.5262C64.4108 58.7179 64.2092 58.8237 64.0043 58.8237H64.0076Z" fill="#FFBC5E"/>
<path d="M24.3357 39.4216C20.3266 39.4216 17.0645 36.1593 17.0645 32.1501C17.0645 28.1408 20.3266 24.8818 24.3357 24.8818C28.3448 24.8818 31.6036 28.1441 31.6036 32.1501C31.6036 36.156 28.3415 39.4216 24.3357 39.4216ZM24.3357 26.0717C20.9843 26.0717 18.2543 28.7985 18.2543 32.1501C18.2543 35.5016 20.981 38.2317 24.3357 38.2317C27.6904 38.2317 30.4138 35.5049 30.4138 32.1501C30.4138 28.7952 27.6871 26.0717 24.3357 26.0717Z" fill="#FFBC5E"/>
<path d="M20.6402 63.9502H15.3124C12.7708 63.9502 10.7051 61.8811 10.7051 59.3427V50.0417C10.7051 45.6623 13.7887 42.3604 17.8805 42.3604H30.7836C33.3847 42.3604 35.7016 43.7452 36.974 46.0655C37.1327 46.3531 37.0269 46.7167 36.7394 46.872C36.4518 47.0307 36.0883 46.9249 35.9329 46.6373C34.8687 44.7038 32.9451 43.5469 30.7836 43.5469H17.8805C14.4663 43.5469 11.8949 46.3366 11.8949 50.0384V59.3394C11.8949 61.2233 13.4285 62.757 15.3124 62.757H20.6402C20.9674 62.757 21.2351 63.0247 21.2351 63.3519C21.2351 63.6791 20.9674 63.9469 20.6402 63.9469V63.9502Z" fill="#FFBC5E"/>
<path d="M22.5596 57.7132H17.3508C17.0236 57.7132 16.7559 57.4454 16.7559 57.1182V51.9026C16.7559 51.5753 17.0236 51.3076 17.3508 51.3076C17.678 51.3076 17.9457 51.5753 17.9457 51.9026V56.5233H22.5596C22.8868 56.5233 23.1545 56.791 23.1545 57.1182C23.1545 57.4454 22.8868 57.7132 22.5596 57.7132Z" fill="#FFBC5E"/>
<path d="M43.9902 68.256H23.7828C23.5944 68.256 23.416 68.1668 23.3036 68.0148C23.1912 67.8627 23.1582 67.6677 23.2144 67.4859L28.3934 50.6424C28.4695 50.3912 28.7008 50.2227 28.9619 50.2227H49.1693C49.3577 50.2227 49.5362 50.3119 49.6486 50.4639C49.7609 50.616 49.794 50.811 49.7378 50.9928L44.5587 67.8363C44.4827 68.0875 44.2513 68.256 43.9902 68.256ZM24.5893 67.0662H43.5506L48.3629 51.4125H29.4015L24.5893 67.0662Z" fill="#FFBC5E"/>
<path d="M23.7832 68.2563H16.3566C16.0294 68.2563 15.7617 67.9886 15.7617 67.6614C15.7617 67.3341 16.0294 67.0664 16.3566 67.0664H23.7832C24.1104 67.0664 24.3781 67.3341 24.3781 67.6614C24.3781 67.9886 24.1104 68.2563 23.7832 68.2563Z" fill="#FFBC5E"/>
</svg>
