<svg width="119" height="32" viewBox="0 0 119 32" fill="none" xmlns="http://www.w3.org/2000/svg">
<path d="M46.3771 8.78223H40.6403C40.248 8.78223 39.914 9.06114 39.8526 9.44135L37.5331 23.8627C37.4882 24.1475 37.7128 24.4044 38.0063 24.4044H40.7451C41.1375 24.4044 41.4729 24.124 41.5328 23.7438L42.1587 19.8537C42.2201 19.4734 42.5541 19.1931 42.9449 19.1931H44.7613C48.5409 19.1931 50.7212 17.4007 51.2918 13.8482C51.5478 12.2936 51.3022 11.0723 50.5595 10.2179C49.7449 9.27987 48.2983 8.78223 46.3786 8.78223H46.3771ZM47.039 14.0493C46.726 16.0678 45.1522 16.0678 43.6322 16.0678H42.7667L43.3747 12.2995C43.4121 12.0719 43.6113 11.9031 43.8479 11.9031H44.2447C45.2809 11.9031 46.2588 11.9031 46.7634 12.4815C47.0644 12.828 47.1573 13.3403 47.042 14.0493H47.039ZM63.5245 13.9832H60.7782C60.5431 13.9832 60.3424 14.1521 60.305 14.3796L60.1837 15.1327L59.992 14.8596C59.3975 14.0126 58.0708 13.7308 56.747 13.7308C53.7117 13.7308 51.1181 15.9856 50.6134 19.1461C50.3514 20.7227 50.7242 22.2318 51.6377 23.2828C52.4748 24.2502 53.6727 24.6539 55.0983 24.6539C57.5452 24.6539 58.9004 23.1125 58.9004 23.1125L58.7776 23.8612C58.7311 24.146 58.9543 24.4029 59.2478 24.4044H61.7231C62.1154 24.4044 62.4508 24.124 62.5107 23.7438L63.9947 14.5264C64.0411 14.2431 63.818 13.9847 63.5245 13.9847V13.9832ZM59.6955 19.2254C59.4305 20.7638 58.1846 21.7972 56.5958 21.7972C55.7976 21.7972 55.1597 21.5462 54.7509 21.0706C54.3451 20.5979 54.1908 19.9271 54.3196 19.1784C54.5667 17.6532 55.8336 16.586 57.3984 16.586C58.1786 16.586 58.8135 16.8399 59.2298 17.3199C59.6491 17.8044 59.8153 18.4811 59.6955 19.2254ZM78.1562 13.9832H75.3964C75.1314 13.9832 74.8858 14.1124 74.736 14.3267L70.928 19.8258L69.3137 14.5425C69.2119 14.2122 68.9019 13.9847 68.5485 13.9847H65.8351C65.5072 13.9847 65.2751 14.3003 65.3814 14.6057L68.4227 23.3533L65.5641 27.3095C65.3394 27.6192 65.5641 28.0493 65.9534 28.0493H68.7117C68.9738 28.0493 69.2179 27.9245 69.3676 27.7146L78.5501 14.7216C78.7702 14.4104 78.5426 13.9862 78.1577 13.9847L78.1562 13.9832Z" fill="#253B80"/>
<path d="M87.2966 8.78223H81.5583C81.166 8.78223 80.832 9.06261 80.7721 9.44135L78.4511 23.8627C78.4062 24.146 78.6293 24.4044 78.9228 24.4044H81.8668C82.1408 24.4044 82.3744 24.2077 82.4164 23.942L83.0752 19.8537C83.1366 19.4734 83.4706 19.1931 83.8614 19.1931H85.6763C89.4559 19.1931 91.6362 17.4007 92.2068 13.8482C92.4643 12.2936 92.2173 11.0723 91.4745 10.2179C90.6599 9.27987 89.2148 8.78223 87.2951 8.78223H87.2966ZM87.9585 14.0493C87.6455 16.0678 86.0732 16.0678 84.5517 16.0678H83.6877L84.2957 12.2995C84.3316 12.0719 84.5323 11.9031 84.7674 11.9031H85.1642C86.199 11.9031 87.1768 11.9031 87.6829 12.4815C87.9839 12.828 88.0753 13.3403 87.96 14.0493H87.9585ZM104.444 13.9832H101.699C101.463 13.9832 101.263 14.1521 101.227 14.3796L101.106 15.1327L100.913 14.8596C100.319 14.0126 98.9918 13.7308 97.6695 13.7308C94.6342 13.7308 92.042 15.9856 91.5374 19.1461C91.2753 20.7227 91.6482 22.2318 92.5602 23.2828C93.3988 24.2502 94.5952 24.6539 96.0193 24.6539C98.4662 24.6539 99.8229 23.1125 99.8229 23.1125L99.7001 23.8612C99.6536 24.146 99.8783 24.4044 100.173 24.4044H102.647C103.039 24.4044 103.373 24.124 103.433 23.7438L104.919 14.5264C104.964 14.2416 104.739 13.9847 104.446 13.9847L104.444 13.9832ZM100.615 19.2254C100.351 20.7638 99.1041 21.7972 97.5153 21.7972C96.7186 21.7972 96.0792 21.5462 95.6704 21.0706C95.2646 20.5979 95.1118 19.9271 95.2391 19.1784C95.4877 17.6532 96.7531 16.586 98.3179 16.586C99.0981 16.586 99.733 16.8399 100.151 17.3199C100.572 17.8044 100.738 18.4811 100.615 19.2254ZM107.683 9.17711L105.329 23.8627C105.283 24.146 105.507 24.4044 105.801 24.4044H108.168C108.561 24.4044 108.894 24.124 108.956 23.7438L111.278 9.32391C111.323 9.04059 111.1 8.78223 110.807 8.78223H108.156C107.921 8.78223 107.722 8.95104 107.685 9.17858L107.683 9.17711Z" fill="#179BD7"/>
<path d="M13.7052 27.2065L14.1439 24.4746L13.1661 24.4526H8.5L11.7435 4.29443C11.763 4.16672 11.8753 4.07277 12.0071 4.07424H19.8747C22.4878 4.07424 24.2907 4.60711 25.2311 5.65964C25.6729 6.15288 25.9529 6.66961 26.0892 7.23624C26.2314 7.83077 26.2344 8.54274 26.0952 9.41031L26.0847 9.47343V10.0298L26.5249 10.2749C26.8619 10.4423 27.1644 10.6684 27.4189 10.9429C27.7963 11.3656 28.0404 11.9015 28.1437 12.5371C28.25 13.1903 28.2156 13.9684 28.0404 14.8491C27.8397 15.862 27.5133 16.7443 27.0745 17.4665C26.6867 18.1139 26.1656 18.6732 25.5441 19.1106C24.9601 19.5173 24.2668 19.8256 23.4821 20.0223C22.7229 20.216 21.8559 20.3144 20.905 20.3144H20.2925C19.8538 20.3144 19.43 20.4685 19.0945 20.746C18.7606 21.0264 18.5405 21.4139 18.4701 21.8381L18.4237 22.0848L17.648 26.8997L17.6121 27.0759C17.6031 27.1316 17.5866 27.1595 17.5641 27.1786C17.5417 27.1962 17.5132 27.2065 17.4833 27.2065H13.7022H13.7052Z" fill="#253B80"/>
<path d="M26.9467 9.53613C26.9227 9.68293 26.8958 9.83413 26.8673 9.98827C25.8296 15.2113 22.2791 17.0154 17.7463 17.0154H15.4372C14.8831 17.0154 14.4159 17.4103 14.329 17.9461L13.1461 25.2948L12.8121 27.3778C12.7552 27.7287 13.0322 28.0472 13.3946 28.0472H17.4887C17.9739 28.0472 18.3857 27.7023 18.462 27.2325L18.5025 27.0285L19.2722 22.2326L19.3216 21.9698C19.3965 21.5001 19.8098 21.1551 20.2949 21.1551H20.9074C24.8742 21.1551 27.9799 19.5756 28.8874 15.0073C29.2662 13.0989 29.0701 11.5047 28.0668 10.3846C27.7493 10.0382 27.3689 9.75046 26.9452 9.5376L26.9467 9.53613Z" fill="#179BD7"/>
<mask id="mask0_233_3819" style="mask-type:luminance" maskUnits="userSpaceOnUse" x="7" y="3" width="105" height="26">
<path d="M111.387 3.23145H7.61328V28.1869H111.387V3.23145Z" fill="white"/>
</mask>
<g mask="url(#mask0_233_3819)">
<path d="M25.8601 9.11189C25.5291 9.01794 25.1922 8.94454 24.8508 8.8917C24.1769 8.79041 23.4971 8.74197 22.8157 8.74637H16.6492C16.164 8.74637 15.7507 9.09281 15.6773 9.56256L14.3656 17.7083L14.3281 17.9461C14.412 17.4103 14.8822 17.0154 15.4362 17.0154H17.7453C22.2796 17.0154 25.8301 15.2098 26.8664 9.98827C26.8978 9.83413 26.9233 9.68293 26.9457 9.53614C26.6717 9.39521 26.3872 9.27777 26.0937 9.18382C26.0158 9.15887 25.9394 9.13391 25.8616 9.11189H25.8601Z" fill="#222D65"/>
<path d="M15.6795 9.5628C15.7529 9.09305 16.1662 8.74661 16.6513 8.74808H22.8179C23.5486 8.74808 24.23 8.79505 24.8529 8.8934C25.2737 8.95799 25.69 9.05488 26.0958 9.18406C26.4028 9.28389 26.6858 9.40132 26.9494 9.53637C27.2579 7.60599 26.9464 6.29216 25.8817 5.10311C24.7077 3.79221 22.5903 3.23145 19.8799 3.23145H12.0107C11.4566 3.23145 10.9849 3.62633 10.8996 4.16361L7.62164 24.5287C7.55725 24.931 7.87321 25.2936 8.28801 25.295H13.1458L14.3647 17.7086L15.6765 9.5628H15.6795Z" fill="#253B80"/>
</g>
</svg>
