<svg width="178" height="32" viewBox="0 0 178 32" fill="none" xmlns="http://www.w3.org/2000/svg">
<path fill-rule="evenodd" clip-rule="evenodd" d="M19.1326 6.51222C15.5412 6.51222 12.6063 9.40893 12.6063 12.9771C12.6063 16.5452 15.5219 19.4419 19.1326 19.4419C22.7432 19.4419 25.6395 16.5452 25.6395 12.9771C25.6395 9.40893 22.7239 6.51222 19.1326 6.51222ZM12.6063 21.6096C14.4213 22.9716 16.6804 23.7582 19.1326 23.7582C25.1375 23.7582 29.9839 18.9239 29.9839 12.9771C29.9839 7.03018 25.1182 2.17676 19.1326 2.17676C13.147 2.17676 8.6288 6.66569 8.28125 12.3248C8.28125 12.4207 8.28125 12.5166 8.28125 12.6126V26.6357C8.28125 27.8251 9.24667 28.8034 10.4631 28.8034C11.6795 28.8034 12.6256 27.8442 12.6256 26.6357V21.6096H12.6063ZM76.0923 3.99919C77.0964 4.65143 77.3667 5.99427 76.6909 6.99181L68.369 19.4035V26.6549C68.369 27.8442 67.4035 28.8226 66.1871 28.8226C64.9707 28.8226 64.0053 27.8634 64.0053 26.6549V19.4035L55.6833 6.99181C55.0269 5.99427 55.2972 4.65143 56.2819 3.99919C57.2859 3.34695 58.6375 3.61552 59.294 4.59388L66.1678 14.857L73.0416 4.59388C73.6981 3.59633 75.0497 3.32777 76.0537 3.99919H76.0923ZM142.938 5.78325C142.938 4.59388 141.973 3.61552 140.775 3.61552C139.578 3.61552 138.594 4.57469 138.594 5.78325V20.2284L126.564 4.47877C126.004 3.7498 125.02 3.44287 124.151 3.73062C123.263 4.01837 122.664 4.84326 122.664 5.78325V26.6357C122.664 27.8251 123.63 28.8034 124.827 28.8034C126.024 28.8034 127.009 27.8442 127.009 26.6357V12.1905L139.038 27.9402C139.598 28.6691 140.582 28.9761 141.451 28.6883C142.339 28.4006 142.938 27.5757 142.938 26.6357V5.78325ZM151.994 3.6347C150.603 3.6347 149.464 4.76653 149.464 6.14774V26.2904C149.464 27.6716 150.603 28.8034 151.994 28.8034H157.052C164.042 28.8034 169.719 23.1635 169.719 16.2191C169.719 9.27464 164.042 3.6347 157.052 3.6347H151.994ZM153.809 24.4871V7.95098H157.072C161.667 7.95098 165.394 11.6534 165.394 16.2191C165.394 20.7847 161.667 24.4871 157.072 24.4871H153.809ZM116.157 5.78325C116.157 6.97263 115.192 7.9318 113.995 7.9318H106.04V13.6868H113.995C115.192 13.6868 116.157 14.646 116.157 15.8354C116.157 17.0248 115.192 17.9839 113.995 17.9839H106.04V24.468H113.995C115.192 24.468 116.157 25.4271 116.157 26.6165C116.157 27.8059 115.192 28.7842 113.995 28.7842H104.572C102.97 28.7842 101.676 27.4989 101.676 25.9067V6.51222C101.676 4.91999 102.97 3.6347 104.572 3.6347H113.995C115.192 3.6347 116.157 4.59388 116.157 5.80243V5.78325ZM84.5108 9.86933C84.839 8.73751 85.8817 7.95098 87.0595 7.95098H87.4263C88.4497 7.95098 89.4537 8.12363 90.3998 8.48812L91.4811 8.89097C92.601 9.31301 93.856 8.7375 94.2808 7.62486C94.7056 6.51222 94.1263 5.2653 93.0065 4.84326L91.9252 4.44041C90.4771 3.90327 88.971 3.6347 87.4263 3.6347H87.0595C83.9315 3.6347 81.1897 5.68733 80.3402 8.67996C79.2396 12.4783 81.5373 16.4109 85.4183 17.3509L89.7433 18.406C91.5004 18.828 92.4851 20.6696 91.8673 22.3578L91.8093 22.5496C91.5197 23.3553 90.8632 23.95 90.033 24.1802C88.0056 24.7365 85.8237 24.4296 84.0474 23.3169L83.2943 22.8565C82.271 22.2235 80.9387 22.5304 80.3015 23.528C79.6644 24.5447 79.9733 25.8683 80.9773 26.5014L81.7304 26.9618C84.5494 28.7267 87.9863 29.2255 91.1915 28.343C93.3733 27.7483 95.1111 26.1369 95.8834 24.0267L95.9413 23.8349C97.4474 19.7296 95.0338 15.2599 90.7667 14.224L86.4416 13.1689C84.9742 12.8044 84.1053 11.3273 84.5108 9.86933ZM51.1845 27.5565C51.6865 28.6308 52.9802 29.1104 54.0614 28.6116C55.1427 28.1128 55.6254 26.8275 55.1234 25.7532L45.3534 4.90081C45.0058 4.13347 44.2335 3.65389 43.3839 3.65389C42.5343 3.65389 41.762 4.13347 41.4144 4.90081L31.6444 25.7532C31.1424 26.8275 31.6058 28.1128 32.7064 28.6116C33.7876 29.1104 35.0813 28.65 35.5833 27.5565L43.3839 10.9052L51.1845 27.5565Z" fill="#7733FF"/>
</svg>
