<svg width="23" height="22" viewBox="0 0 23 22" fill="none" xmlns="http://www.w3.org/2000/svg">
<g clip-path="url(#clip0_123_3581)">
<path d="M11.6064 10.2104L8.66908 6H7.09766L10.7444 11.2182L11.2019 11.868L14.3249 16.337H15.8897L12.0639 10.8668L11.6064 10.2104Z" fill="#0C0653"/>
<path d="M11.5 0C5.42646 0 0.5 4.92646 0.5 11C0.5 17.0735 5.42646 22 11.5 22C17.5735 22 22.5 17.0735 22.5 11C22.5 4.92646 17.5735 0 11.5 0ZM13.8406 16.9144L10.6844 12.3195L6.73267 16.9144H5.71157L10.2336 11.6564L5.70494 5.07896H9.1528L12.1432 9.42857L15.8894 5.07896H16.9105L12.6007 10.0916L17.2884 16.9144H13.8406Z" fill="#0C0653"/>
</g>
<defs>
<clipPath id="clip0_123_3581">
<rect width="22" height="22" fill="white" transform="translate(0.5)"/>
</clipPath>
</defs>
</svg>
