<svg width="23" height="22" viewBox="0 0 23 22" fill="none" xmlns="http://www.w3.org/2000/svg">
<g clip-path="url(#clip0_123_3593)">
<path d="M14.0012 10.911L10.5401 9.02791C10.4008 8.94834 9.91016 9.0478 9.91016 9.21356V12.8869C9.91016 13.046 10.3942 13.1521 10.5334 13.0725L14.1537 11.2823C14.2995 11.2027 14.1537 10.9905 14.0012 10.911Z" fill="#0C0653"/>
<path d="M11.5 0C5.42646 0 0.5 4.92646 0.5 11C0.5 17.0735 5.42646 22 11.5 22C17.5735 22 22.5 17.0735 22.5 11C22.5 4.92646 17.5735 0 11.5 0ZM18.893 12.8764C18.893 14.6203 17.4807 16.0325 15.7369 16.0325H7.66757C5.92375 16.0325 4.51145 14.6203 4.51145 12.8764V9.12357C4.51145 7.37975 5.92375 5.96745 7.66757 5.96745H15.7369C17.4807 5.96745 18.893 7.37975 18.893 9.12357V12.8764Z" fill="#0C0653"/>
</g>
<defs>
<clipPath id="clip0_123_3593">
<rect width="22" height="22" fill="white" transform="translate(0.5)"/>
</clipPath>
</defs>
</svg>
