<svg width="23" height="22" viewBox="0 0 23 22" fill="none" xmlns="http://www.w3.org/2000/svg">
<g clip-path="url(#clip0_123_3584)">
<path d="M11.555 9C10.3947 9 9.45312 9.94153 9.45312 11.1019C9.45312 12.2622 10.3947 13.2037 11.555 13.2037C12.7153 13.2037 13.6569 12.2622 13.6569 11.1019C13.6569 9.94153 12.7153 9 11.555 9Z" fill="#0C0653"/>
<path d="M14.4504 5H8.5496C6.86681 5 5.5 6.36681 5.5 8.0496V13.9504C5.5 15.6332 6.86681 17 8.5496 17H14.4504C16.1332 17 17.5 15.6332 17.5 13.9504V8.0496C17.5 6.36681 16.1332 5 14.4504 5ZM11.5625 14.6412C9.55634 14.6412 7.92498 13.0098 7.92498 11.0037C7.92498 8.99755 9.55634 7.3662 11.5625 7.3662C13.5686 7.3662 15.1999 8.99755 15.1999 11.0037C15.1999 13.0098 13.5686 14.6412 11.5625 14.6412ZM15.413 7.98347C14.9354 7.98347 14.5459 7.594 14.5459 7.11635C14.5459 6.6387 14.9354 6.24923 15.413 6.24923C15.8907 6.24923 16.2802 6.6387 16.2802 7.11635C16.2802 7.594 15.8907 7.98347 15.413 7.98347Z" fill="#0C0653"/>
<path d="M11.5 0C5.42646 0 0.5 4.92646 0.5 11C0.5 17.0735 5.42646 22 11.5 22C17.5735 22 22.5 17.0735 22.5 11C22.5 4.92646 17.5735 0 11.5 0ZM18.1637 13.6588C18.1637 15.8668 16.3668 17.6637 14.1588 17.6637H8.83454C6.62658 17.6637 4.82972 15.8668 4.82972 13.6588V8.33454C4.82972 6.12658 6.62658 4.32972 8.83454 4.32972H14.1588C16.3668 4.32972 18.1637 6.12658 18.1637 8.33454V13.6588Z" fill="#0C0653"/>
</g>
<defs>
<clipPath id="clip0_123_3584">
<rect width="22" height="22" fill="white" transform="translate(0.5)"/>
</clipPath>
</defs>
</svg>
