<svg width="28" height="28" viewBox="0 0 28 28" fill="none" xmlns="http://www.w3.org/2000/svg">
<g clip-path="url(#clip0_279_6149)">
<path d="M14.9654 14.5001L8.39011 22.0321C8.13884 22.3193 8 22.6905 8 23.0751C8 23.4597 8.13884 23.8309 8.39011 24.1181C8.92636 24.7341 9.76098 24.7341 10.2986 24.1181L17.7841 15.5431C18.0261 15.2659 18.1746 14.8431 18.1746 14.5001C18.1746 14.0787 18.0522 13.7637 17.7841 13.4571L10.2986 4.88208C10.0236 4.56708 9.73486 4.42008 9.34436 4.42008C8.95386 4.42008 8.66373 4.56708 8.39011 4.88208C8.13884 5.16922 8 5.5405 8 5.92508C8 6.30966 8.13884 6.68094 8.39011 6.96808L14.9654 14.5001Z" fill="#0C0653"/>
</g>
<defs>
<clipPath id="clip0_279_6149">
<rect width="21" height="11" fill="white" transform="matrix(0 -1 1 0 8 25)"/>
</clipPath>
</defs>
</svg>
