<svg width="23" height="22" viewBox="0 0 23 22" fill="none" xmlns="http://www.w3.org/2000/svg">
<g clip-path="url(#clip0_123_3588)">
<path d="M15.6846 21.1742C21.3022 18.8612 23.981 12.4321 21.6679 6.81455C19.3548 1.19701 12.9257 -1.48178 7.30819 0.831307C1.69064 3.1444 -0.98815 9.57345 1.32494 15.191C3.63803 20.8085 10.0671 23.4873 15.6846 21.1742Z" fill="#0C0653"/>
<path d="M5.96182 8.78602H8.33553V16.4111H5.96182V8.78602ZM7.14868 5C7.91118 5 8.52119 5.61664 8.52119 6.37251C8.52119 7.12839 7.90455 7.74503 7.14868 7.74503C6.3928 7.74503 5.76953 7.12839 5.76953 6.37251C5.76953 5.61664 6.38617 5 7.14868 5Z" fill="white"/>
<path d="M9.82812 8.78603H12.1024V9.82702H12.1355C12.4538 9.22365 13.2229 8.59375 14.3833 8.59375C16.7835 8.59375 17.2278 10.1718 17.2278 12.2273V16.4111H14.8607V12.7047C14.8607 11.8162 14.8408 10.6824 13.6274 10.6824C12.414 10.6824 12.2018 11.6438 12.2018 12.6384V16.4111H9.83476V8.78603H9.82812Z" fill="white"/>
</g>
<defs>
<clipPath id="clip0_123_3588">
<rect width="22" height="22" fill="white" transform="translate(0.5)"/>
</clipPath>
</defs>
</svg>
