<svg width="28" height="28" viewBox="0 0 28 28" fill="none" xmlns="http://www.w3.org/2000/svg">
<g clip-path="url(#clip0_279_6146)">
<path d="M13.0346 14.5001L19.6099 22.0321C19.8612 22.3193 20 22.6905 20 23.0751C20 23.4597 19.8612 23.8309 19.6099 24.1181C19.0736 24.7341 18.239 24.7341 17.7014 24.1181L10.2159 15.5431C9.97389 15.2659 9.82539 14.8431 9.82539 14.5001C9.82539 14.0787 9.94777 13.7637 10.2159 13.4571L17.7014 4.88208C17.9764 4.56708 18.2651 4.42008 18.6556 4.42008C19.0461 4.42008 19.3363 4.56708 19.6099 4.88208C19.8612 5.16922 20 5.5405 20 5.92508C20 6.30966 19.8612 6.68094 19.6099 6.96808L13.0346 14.5001Z" fill="#0C0653"/>
</g>
<defs>
<clipPath id="clip0_279_6146">
<rect width="21" height="11" fill="white" transform="matrix(0 -1 -1 0 20 25)"/>
</clipPath>
</defs>
</svg>
