<svg width="23" height="22" viewBox="0 0 23 22" fill="none" xmlns="http://www.w3.org/2000/svg">
<g clip-path="url(#clip0_123_3579)">
<path d="M11.5 0C5.42646 0 0.5 4.92646 0.5 11C0.5 17.0735 5.42646 22 11.5 22C17.5735 22 22.5 17.0735 22.5 11C22.5 4.92646 17.5735 0 11.5 0ZM15.8297 5.54973H14.5434C13.277 5.54973 12.8791 6.33876 12.8791 7.14768V9.06389H15.7104L15.2595 12.0145H12.8791V19.1555H9.68324V12.0145H7.09072V9.06389H9.68324V6.81615C9.68324 4.25678 11.2083 2.84448 13.5422 2.84448C14.6627 2.84448 15.8297 3.0434 15.8297 3.0434V5.55636V5.54973Z" fill="#0C0653"/>
</g>
<defs>
<clipPath id="clip0_123_3579">
<rect width="22" height="22" fill="white" transform="translate(0.5)"/>
</clipPath>
</defs>
</svg>
