<svg width="131" height="34" viewBox="0 0 131 34" fill="none" xmlns="http://www.w3.org/2000/svg">
<path d="M16.0879 1.29297C21.0677 1.34662 25.4849 3.7427 28.292 7.43066L31.5801 4.11523L31.6289 17.0039L29.0645 17.0029H23.2568V17L18.8076 16.999L22.3975 13.376C21.1861 11.1111 18.8213 9.55595 16.0879 9.49316V1.29297Z" fill="url(#paint0_linear_216_5164)"/>
<path d="M0.373047 17.0029C0.426738 11.967 2.82397 7.49994 6.51367 4.66211L3.19824 1.33789L16.0869 1.28906L16.0859 3.88184V9.75586H16.083L16.082 14.252L12.459 10.6221C10.1919 11.8461 8.63476 14.2377 8.57227 17.0029H0.373047Z" fill="url(#paint1_linear_216_5164)"/>
<path d="M8.74414 17.002L13.1924 17.0029L9.60254 20.625C10.8389 22.9388 13.2773 24.5137 16.084 24.5137C18.7373 24.5135 21.0612 23.1059 22.3516 20.9971L28.1709 26.9385C25.3373 30.4401 21.0147 32.6863 16.165 32.7109H16.0049C10.9872 32.6856 6.53305 30.2818 3.70898 26.5703L0.419922 29.8867L0.371094 16.998L0.543945 16.999V16.998H8.74414C8.74411 16.9993 8.74416 17.0007 8.74414 17.002ZM23.4082 17.6758C23.4196 17.5087 23.4277 17.3399 23.4277 17.1699C23.4277 17.1125 23.4242 17.0551 23.4229 16.998H24.1006L23.4082 17.6758Z" fill="url(#paint2_linear_216_5164)"/>
<path d="M45.1284 7.406C45.3618 7.014 45.6698 6.71067 46.0524 6.496C46.4444 6.272 46.9064 6.16 47.4384 6.16V7.812H47.0324C46.4071 7.812 45.9311 7.97067 45.6044 8.288C45.2871 8.60533 45.1284 9.156 45.1284 9.94V14H43.5324V6.286H45.1284V7.406ZM55.9755 9.954C55.9755 10.2433 55.9568 10.5047 55.9195 10.738H50.0255C50.0721 11.354 50.3008 11.8487 50.7115 12.222C51.1221 12.5953 51.6261 12.782 52.2235 12.782C53.0821 12.782 53.6888 12.4227 54.0435 11.704H55.7655C55.5321 12.4133 55.1075 12.9967 54.4915 13.454C53.8848 13.902 53.1288 14.126 52.2235 14.126C51.4861 14.126 50.8235 13.9627 50.2355 13.636C49.6568 13.3 49.1995 12.8333 48.8635 12.236C48.5368 11.6293 48.3735 10.9293 48.3735 10.136C48.3735 9.34267 48.5321 8.64733 48.8495 8.05C49.1761 7.44333 49.6288 6.97667 50.2075 6.65C50.7955 6.32333 51.4675 6.16 52.2235 6.16C52.9515 6.16 53.6001 6.31867 54.1695 6.636C54.7388 6.95333 55.1821 7.40133 55.4995 7.98C55.8168 8.54933 55.9755 9.20733 55.9755 9.954ZM54.3095 9.45C54.3001 8.862 54.0901 8.39067 53.6795 8.036C53.2688 7.68133 52.7601 7.504 52.1535 7.504C51.6028 7.504 51.1315 7.68133 50.7395 8.036C50.3475 8.38133 50.1141 8.85267 50.0395 9.45H54.3095ZM57.0141 9.114C57.0141 8.162 57.2334 7.308 57.6721 6.552C58.1201 5.796 58.7221 5.208 59.4781 4.788C60.2434 4.35867 61.0788 4.144 61.9841 4.144C63.0201 4.144 63.9394 4.40067 64.7421 4.914C65.5541 5.418 66.1421 6.13667 66.5061 7.07H64.5881C64.3361 6.55667 63.9861 6.174 63.5381 5.922C63.0901 5.67 62.5721 5.544 61.9841 5.544C61.3401 5.544 60.7661 5.68867 60.2621 5.978C59.7581 6.26733 59.3614 6.68267 59.0721 7.224C58.7921 7.76533 58.6521 8.39533 58.6521 9.114C58.6521 9.83267 58.7921 10.4627 59.0721 11.004C59.3614 11.5453 59.7581 11.9653 60.2621 12.264C60.7661 12.5533 61.3401 12.698 61.9841 12.698C62.5721 12.698 63.0901 12.572 63.5381 12.32C63.9861 12.068 64.3361 11.6853 64.5881 11.172H66.5061C66.1421 12.1053 65.5541 12.824 64.7421 13.328C63.9394 13.832 63.0201 14.084 61.9841 14.084C61.0694 14.084 60.2341 13.874 59.4781 13.454C58.7221 13.0247 58.1201 12.432 57.6721 11.676C57.2334 10.92 57.0141 10.066 57.0141 9.114ZM74.2402 12.012H70.1662L69.4662 14H67.8002L71.2862 4.256H73.1342L76.6202 14H74.9402L74.2402 12.012ZM73.7922 10.71L72.2102 6.188L70.6142 10.71H73.7922ZM84.9399 7.168C84.9399 7.66267 84.8233 8.12933 84.5899 8.568C84.3566 9.00667 83.9833 9.366 83.4699 9.646C82.9566 9.91667 82.2986 10.052 81.4959 10.052H79.7319V14H78.1359V4.27H81.4959C82.2426 4.27 82.8726 4.40067 83.3859 4.662C83.9086 4.914 84.2959 5.25933 84.5479 5.698C84.8093 6.13667 84.9399 6.62667 84.9399 7.168ZM81.4959 8.75C82.1026 8.75 82.5553 8.61467 82.8539 8.344C83.1526 8.064 83.3019 7.672 83.3019 7.168C83.3019 6.104 82.6999 5.572 81.4959 5.572H79.7319V8.75H81.4959ZM92.7481 4.27V5.572H90.1581V14H88.5621V5.572H85.9581V4.27H92.7481ZM93.8325 9.114C93.8325 8.162 94.0518 7.308 94.4905 6.552C94.9385 5.796 95.5405 5.208 96.2965 4.788C97.0618 4.35867 97.8971 4.144 98.8025 4.144C99.8385 4.144 100.758 4.40067 101.56 4.914C102.372 5.418 102.96 6.13667 103.324 7.07H101.406C101.154 6.55667 100.804 6.174 100.356 5.922C99.9085 5.67 99.3905 5.544 98.8025 5.544C98.1585 5.544 97.5845 5.68867 97.0805 5.978C96.5765 6.26733 96.1798 6.68267 95.8905 7.224C95.6105 7.76533 95.4705 8.39533 95.4705 9.114C95.4705 9.83267 95.6105 10.4627 95.8905 11.004C96.1798 11.5453 96.5765 11.9653 97.0805 12.264C97.5845 12.5533 98.1585 12.698 98.8025 12.698C99.3905 12.698 99.9085 12.572 100.356 12.32C100.804 12.068 101.154 11.6853 101.406 11.172H103.324C102.96 12.1053 102.372 12.824 101.56 13.328C100.758 13.832 99.8385 14.084 98.8025 14.084C97.8878 14.084 97.0525 13.874 96.2965 13.454C95.5405 13.0247 94.9385 12.432 94.4905 11.676C94.0518 10.92 93.8325 10.066 93.8325 9.114ZM112.963 4.27V14H111.367V9.744H106.789V14H105.193V4.27H106.789V8.442H111.367V4.27H112.963ZM120.93 12.012H116.856L116.156 14H114.49L117.976 4.256H119.824L123.31 14H121.63L120.93 12.012ZM120.482 10.71L118.9 6.188L117.304 10.71H120.482Z" fill="#D7D7D7"/>
<path d="M42.9867 24.084C42.9867 24.78 42.7467 25.36 42.2667 25.824C41.7947 26.28 41.0707 26.508 40.0947 26.508H38.4867V30H37.3947V21.636H40.0947C41.0387 21.636 41.7547 21.864 42.2427 22.32C42.7387 22.776 42.9867 23.364 42.9867 24.084ZM40.0947 25.608C40.7027 25.608 41.1507 25.476 41.4387 25.212C41.7267 24.948 41.8707 24.572 41.8707 24.084C41.8707 23.052 41.2787 22.536 40.0947 22.536H38.4867V25.608H40.0947ZM45.4359 24.492C45.6279 24.116 45.8999 23.824 46.2519 23.616C46.6119 23.408 47.0479 23.304 47.5599 23.304V24.432H47.2719C46.0479 24.432 45.4359 25.096 45.4359 26.424V30H44.3439V23.424H45.4359V24.492ZM49.3845 22.356C49.1765 22.356 49.0005 22.284 48.8565 22.14C48.7125 21.996 48.6405 21.82 48.6405 21.612C48.6405 21.404 48.7125 21.228 48.8565 21.084C49.0005 20.94 49.1765 20.868 49.3845 20.868C49.5845 20.868 49.7525 20.94 49.8885 21.084C50.0325 21.228 50.1045 21.404 50.1045 21.612C50.1045 21.82 50.0325 21.996 49.8885 22.14C49.7525 22.284 49.5845 22.356 49.3845 22.356ZM49.9125 23.424V30H48.8205V23.424H49.9125ZM54.2216 28.992L56.2616 23.424H57.4256L54.8456 30H53.5736L50.9936 23.424H52.1696L54.2216 28.992ZM58.0922 26.688C58.0922 26.016 58.2282 25.428 58.5002 24.924C58.7722 24.412 59.1442 24.016 59.6162 23.736C60.0962 23.456 60.6282 23.316 61.2122 23.316C61.7882 23.316 62.2882 23.44 62.7122 23.688C63.1362 23.936 63.4522 24.248 63.6602 24.624V23.424H64.7642V30H63.6602V28.776C63.4442 29.16 63.1202 29.48 62.6882 29.736C62.2642 29.984 61.7682 30.108 61.2002 30.108C60.6162 30.108 60.0882 29.964 59.6162 29.676C59.1442 29.388 58.7722 28.984 58.5002 28.464C58.2282 27.944 58.0922 27.352 58.0922 26.688ZM63.6602 26.7C63.6602 26.204 63.5602 25.772 63.3602 25.404C63.1602 25.036 62.8882 24.756 62.5442 24.564C62.2082 24.364 61.8362 24.264 61.4282 24.264C61.0202 24.264 60.6482 24.36 60.3122 24.552C59.9762 24.744 59.7082 25.024 59.5082 25.392C59.3082 25.76 59.2082 26.192 59.2082 26.688C59.2082 27.192 59.3082 27.632 59.5082 28.008C59.7082 28.376 59.9762 28.66 60.3122 28.86C60.6482 29.052 61.0202 29.148 61.4282 29.148C61.8362 29.148 62.2082 29.052 62.5442 28.86C62.8882 28.66 63.1602 28.376 63.3602 28.008C63.5602 27.632 63.6602 27.196 63.6602 26.7ZM66.2015 26.7C66.2015 26.02 66.3375 25.428 66.6095 24.924C66.8815 24.412 67.2575 24.016 67.7375 23.736C68.2255 23.456 68.7815 23.316 69.4055 23.316C70.2135 23.316 70.8775 23.512 71.3975 23.904C71.9255 24.296 72.2735 24.84 72.4415 25.536H71.2655C71.1535 25.136 70.9335 24.82 70.6055 24.588C70.2855 24.356 69.8855 24.24 69.4055 24.24C68.7815 24.24 68.2775 24.456 67.8935 24.888C67.5095 25.312 67.3175 25.916 67.3175 26.7C67.3175 27.492 67.5095 28.104 67.8935 28.536C68.2775 28.968 68.7815 29.184 69.4055 29.184C69.8855 29.184 70.2855 29.072 70.6055 28.848C70.9255 28.624 71.1455 28.304 71.2655 27.888H72.4415C72.2655 28.56 71.9135 29.1 71.3855 29.508C70.8575 29.908 70.1975 30.108 69.4055 30.108C68.7815 30.108 68.2255 29.968 67.7375 29.688C67.2575 29.408 66.8815 29.012 66.6095 28.5C66.3375 27.988 66.2015 27.388 66.2015 26.7ZM79.5626 23.424L75.6026 33.096H74.4746L75.7706 29.928L73.1186 23.424H74.3306L76.3946 28.752L78.4346 23.424H79.5626ZM88.4195 25.14V26.064H83.6315V25.14H88.4195ZM98.8161 21.636V22.524H96.5361V30H95.4441V22.524H93.1521V21.636H98.8161ZM106.16 26.46C106.16 26.668 106.148 26.888 106.124 27.12H100.868C100.908 27.768 101.128 28.276 101.528 28.644C101.936 29.004 102.428 29.184 103.004 29.184C103.476 29.184 103.868 29.076 104.18 28.86C104.5 28.636 104.724 28.34 104.852 27.972H106.028C105.852 28.604 105.5 29.12 104.972 29.52C104.444 29.912 103.788 30.108 103.004 30.108C102.38 30.108 101.82 29.968 101.324 29.688C100.836 29.408 100.452 29.012 100.172 28.5C99.8923 27.98 99.7523 27.38 99.7523 26.7C99.7523 26.02 99.8883 25.424 100.16 24.912C100.432 24.4 100.812 24.008 101.3 23.736C101.796 23.456 102.364 23.316 103.004 23.316C103.628 23.316 104.18 23.452 104.66 23.724C105.14 23.996 105.508 24.372 105.764 24.852C106.028 25.324 106.16 25.86 106.16 26.46ZM105.032 26.232C105.032 25.816 104.94 25.46 104.756 25.164C104.572 24.86 104.32 24.632 104 24.48C103.688 24.32 103.34 24.24 102.956 24.24C102.404 24.24 101.932 24.416 101.54 24.768C101.156 25.12 100.936 25.608 100.88 26.232H105.032ZM108.694 24.492C108.886 24.116 109.158 23.824 109.51 23.616C109.87 23.408 110.306 23.304 110.818 23.304V24.432H110.53C109.306 24.432 108.694 25.096 108.694 26.424V30H107.602V23.424H108.694V24.492ZM119.986 23.304C120.498 23.304 120.954 23.412 121.354 23.628C121.754 23.836 122.07 24.152 122.302 24.576C122.534 25 122.65 25.516 122.65 26.124V30H121.57V26.28C121.57 25.624 121.406 25.124 121.078 24.78C120.758 24.428 120.322 24.252 119.77 24.252C119.202 24.252 118.75 24.436 118.414 24.804C118.078 25.164 117.91 25.688 117.91 26.376V30H116.83V26.28C116.83 25.624 116.666 25.124 116.338 24.78C116.018 24.428 115.582 24.252 115.03 24.252C114.462 24.252 114.01 24.436 113.674 24.804C113.338 25.164 113.17 25.688 113.17 26.376V30H112.078V23.424H113.17V24.372C113.386 24.028 113.674 23.764 114.034 23.58C114.402 23.396 114.806 23.304 115.246 23.304C115.798 23.304 116.286 23.428 116.71 23.676C117.134 23.924 117.45 24.288 117.658 24.768C117.842 24.304 118.146 23.944 118.57 23.688C118.994 23.432 119.466 23.304 119.986 23.304ZM126.77 30.108C126.266 30.108 125.814 30.024 125.414 29.856C125.014 29.68 124.698 29.44 124.466 29.136C124.234 28.824 124.106 28.468 124.082 28.068H125.21C125.242 28.396 125.394 28.664 125.666 28.872C125.946 29.08 126.31 29.184 126.758 29.184C127.174 29.184 127.502 29.092 127.742 28.908C127.982 28.724 128.102 28.492 128.102 28.212C128.102 27.924 127.974 27.712 127.718 27.576C127.462 27.432 127.066 27.292 126.53 27.156C126.042 27.028 125.642 26.9 125.33 26.772C125.026 26.636 124.762 26.44 124.538 26.184C124.322 25.92 124.214 25.576 124.214 25.152C124.214 24.816 124.314 24.508 124.514 24.228C124.714 23.948 124.998 23.728 125.366 23.568C125.734 23.4 126.154 23.316 126.626 23.316C127.354 23.316 127.942 23.5 128.39 23.868C128.838 24.236 129.078 24.74 129.11 25.38H128.018C127.994 25.036 127.854 24.76 127.598 24.552C127.35 24.344 127.014 24.24 126.59 24.24C126.198 24.24 125.886 24.324 125.654 24.492C125.422 24.66 125.306 24.88 125.306 25.152C125.306 25.368 125.374 25.548 125.51 25.692C125.654 25.828 125.83 25.94 126.038 26.028C126.254 26.108 126.55 26.2 126.926 26.304C127.398 26.432 127.782 26.56 128.078 26.688C128.374 26.808 128.626 26.992 128.834 27.24C129.05 27.488 129.162 27.812 129.17 28.212C129.17 28.572 129.07 28.896 128.87 29.184C128.67 29.472 128.386 29.7 128.018 29.868C127.658 30.028 127.242 30.108 126.77 30.108Z" fill="#D7D7D7"/>
<defs>
<linearGradient id="paint0_linear_216_5164" x1="30.9459" y1="15.9794" x2="16.0885" y2="4.8784" gradientUnits="userSpaceOnUse">
<stop stop-color="#5070E4"/>
<stop offset="1" stop-color="#254198"/>
</linearGradient>
<linearGradient id="paint1_linear_216_5164" x1="15.0622" y1="1.97968" x2="3.80371" y2="16.8849" gradientUnits="userSpaceOnUse">
<stop stop-color="#709EF3"/>
<stop offset="1" stop-color="#4680DD"/>
</linearGradient>
<linearGradient id="paint2_linear_216_5164" x1="1.05407" y1="18.0228" x2="15.9129" y2="29.1238" gradientUnits="userSpaceOnUse">
<stop stop-color="white"/>
<stop offset="1" stop-color="#DADADA"/>
</linearGradient>
</defs>
</svg>
