<svg width="94" height="70" viewBox="0 0 94 70" fill="none" xmlns="http://www.w3.org/2000/svg">
<path d="M47.0879 0.00390625C52.0677 0.0575597 56.4849 2.45364 59.292 6.1416L62.5801 2.82617L62.6289 15.7148L60.0645 15.7139H54.2568V15.7109L49.8076 15.71L53.3975 12.0869C52.1861 9.82205 49.8213 8.26689 47.0879 8.2041V0.00390625Z" fill="url(#paint0_linear_71_939)"/>
<path d="M31.373 15.7139C31.4267 10.6779 33.824 6.21088 37.5137 3.37305L34.1982 0.0488281L47.0869 0L47.0859 2.59277V8.4668H47.083L47.082 12.9629L43.459 9.33301C41.1919 10.5571 39.6348 12.9486 39.5723 15.7139H31.373Z" fill="url(#paint1_linear_71_939)"/>
<path d="M39.7441 15.7129L44.1924 15.7139L40.6025 19.3359C41.8389 21.6498 44.2773 23.2246 47.084 23.2246C49.7373 23.2244 52.0612 21.8169 53.3516 19.708L59.1709 25.6494C56.3373 29.1511 52.0147 31.3972 47.165 31.4219H47.0049C41.9872 31.3966 37.5331 28.9927 34.709 25.2812L31.4199 28.5977L31.3711 15.709L31.5439 15.71V15.709H39.7441C39.7441 15.7102 39.7442 15.7117 39.7441 15.7129ZM54.4082 16.3867C54.4196 16.2196 54.4277 16.0509 54.4277 15.8809C54.4277 15.8235 54.4242 15.7661 54.4229 15.709H55.1006L54.4082 16.3867Z" fill="url(#paint2_linear_71_939)"/>
<path d="M8.99952 42.8279C9.23285 42.4359 9.54085 42.1325 9.92352 41.9179C10.3155 41.6939 10.7775 41.5819 11.3095 41.5819V43.2339H10.9035C10.2782 43.2339 9.80218 43.3925 9.47552 43.7099C9.15818 44.0272 8.99952 44.5779 8.99952 45.3619V49.4219H7.40352V41.7079H8.99952V42.8279ZM19.8466 45.3759C19.8466 45.6652 19.8279 45.9265 19.7906 46.1599H13.8966C13.9432 46.7759 14.1719 47.2705 14.5826 47.6439C14.9932 48.0172 15.4972 48.2039 16.0946 48.2039C16.9532 48.2039 17.5599 47.8445 17.9146 47.1259H19.6366C19.4032 47.8352 18.9786 48.4185 18.3626 48.8759C17.7559 49.3239 16.9999 49.5479 16.0946 49.5479C15.3572 49.5479 14.6946 49.3845 14.1066 49.0579C13.5279 48.7219 13.0706 48.2552 12.7346 47.6579C12.4079 47.0512 12.2446 46.3512 12.2446 45.5579C12.2446 44.7645 12.4032 44.0692 12.7206 43.4719C13.0472 42.8652 13.4999 42.3985 14.0786 42.0719C14.6666 41.7452 15.3386 41.5819 16.0946 41.5819C16.8226 41.5819 17.4712 41.7405 18.0406 42.0579C18.6099 42.3752 19.0532 42.8232 19.3706 43.4019C19.6879 43.9712 19.8466 44.6292 19.8466 45.3759ZM18.1806 44.8719C18.1712 44.2839 17.9612 43.8125 17.5506 43.4579C17.1399 43.1032 16.6312 42.9259 16.0246 42.9259C15.4739 42.9259 15.0026 43.1032 14.6106 43.4579C14.2186 43.8032 13.9852 44.2745 13.9106 44.8719H18.1806ZM20.8852 44.5359C20.8852 43.5839 21.1045 42.7299 21.5432 41.9739C21.9912 41.2179 22.5932 40.6299 23.3492 40.2099C24.1145 39.7805 24.9499 39.5659 25.8552 39.5659C26.8912 39.5659 27.8105 39.8225 28.6132 40.3359C29.4252 40.8399 30.0132 41.5585 30.3772 42.4919H28.4592C28.2072 41.9785 27.8572 41.5959 27.4092 41.3439C26.9612 41.0919 26.4432 40.9659 25.8552 40.9659C25.2112 40.9659 24.6372 41.1105 24.1332 41.3999C23.6292 41.6892 23.2325 42.1045 22.9432 42.6459C22.6632 43.1872 22.5232 43.8172 22.5232 44.5359C22.5232 45.2545 22.6632 45.8845 22.9432 46.4259C23.2325 46.9672 23.6292 47.3872 24.1332 47.6859C24.6372 47.9752 25.2112 48.1199 25.8552 48.1199C26.4432 48.1199 26.9612 47.9939 27.4092 47.7419C27.8572 47.4899 28.2072 47.1072 28.4592 46.5939H30.3772C30.0132 47.5272 29.4252 48.2459 28.6132 48.7499C27.8105 49.2539 26.8912 49.5059 25.8552 49.5059C24.9405 49.5059 24.1052 49.2959 23.3492 48.8759C22.5932 48.4465 21.9912 47.8539 21.5432 47.0979C21.1045 46.3419 20.8852 45.4879 20.8852 44.5359ZM38.1113 47.4339H34.0373L33.3373 49.4219H31.6713L35.1573 39.6779H37.0053L40.4913 49.4219H38.8113L38.1113 47.4339ZM37.6633 46.1319L36.0813 41.6099L34.4853 46.1319H37.6633ZM48.811 42.5899C48.811 43.0845 48.6944 43.5512 48.461 43.9899C48.2277 44.4285 47.8544 44.7879 47.341 45.0679C46.8277 45.3385 46.1697 45.4739 45.367 45.4739H43.603V49.4219H42.007V39.6919H45.367C46.1137 39.6919 46.7437 39.8225 47.257 40.0839C47.7797 40.3359 48.167 40.6812 48.419 41.1199C48.6804 41.5585 48.811 42.0485 48.811 42.5899ZM45.367 44.1719C45.9737 44.1719 46.4264 44.0365 46.725 43.7659C47.0237 43.4859 47.173 43.0939 47.173 42.5899C47.173 41.5259 46.571 40.9939 45.367 40.9939H43.603V44.1719H45.367ZM56.6192 39.6919V40.9939H54.0292V49.4219H52.4332V40.9939H49.8292V39.6919H56.6192ZM57.7035 44.5359C57.7035 43.5839 57.9229 42.7299 58.3615 41.9739C58.8095 41.2179 59.4115 40.6299 60.1675 40.2099C60.9329 39.7805 61.7682 39.5659 62.6735 39.5659C63.7095 39.5659 64.6289 39.8225 65.4315 40.3359C66.2435 40.8399 66.8315 41.5585 67.1955 42.4919H65.2775C65.0255 41.9785 64.6755 41.5959 64.2275 41.3439C63.7795 41.0919 63.2615 40.9659 62.6735 40.9659C62.0295 40.9659 61.4555 41.1105 60.9515 41.3999C60.4475 41.6892 60.0509 42.1045 59.7615 42.6459C59.4815 43.1872 59.3415 43.8172 59.3415 44.5359C59.3415 45.2545 59.4815 45.8845 59.7615 46.4259C60.0509 46.9672 60.4475 47.3872 60.9515 47.6859C61.4555 47.9752 62.0295 48.1199 62.6735 48.1199C63.2615 48.1199 63.7795 47.9939 64.2275 47.7419C64.6755 47.4899 65.0255 47.1072 65.2775 46.5939H67.1955C66.8315 47.5272 66.2435 48.2459 65.4315 48.7499C64.6289 49.2539 63.7095 49.5059 62.6735 49.5059C61.7589 49.5059 60.9235 49.2959 60.1675 48.8759C59.4115 48.4465 58.8095 47.8539 58.3615 47.0979C57.9229 46.3419 57.7035 45.4879 57.7035 44.5359ZM76.8337 39.6919V49.4219H75.2377V45.1659H70.6597V49.4219H69.0637V39.6919H70.6597V43.8639H75.2377V39.6919H76.8337ZM84.8008 47.4339H80.7268L80.0268 49.4219H78.3608L81.8468 39.6779H83.6948L87.1808 49.4219H85.5008L84.8008 47.4339ZM84.3528 46.1319L82.7708 41.6099L81.1748 46.1319H84.3528Z" fill="#D7D7D7"/>
<path d="M6.516 59.5059C6.516 60.2019 6.276 60.7819 5.796 61.2459C5.324 61.7019 4.6 61.9299 3.624 61.9299H2.016V65.4219H0.924V57.0579H3.624C4.568 57.0579 5.284 57.2859 5.772 57.7419C6.268 58.1979 6.516 58.7859 6.516 59.5059ZM3.624 61.0299C4.232 61.0299 4.68 60.8979 4.968 60.6339C5.256 60.3699 5.4 59.9939 5.4 59.5059C5.4 58.4739 4.808 57.9579 3.624 57.9579H2.016V61.0299H3.624ZM8.96522 59.9139C9.15722 59.5379 9.42922 59.2459 9.78122 59.0379C10.1412 58.8299 10.5772 58.7259 11.0892 58.7259V59.8539H10.8012C9.57722 59.8539 8.96522 60.5179 8.96522 61.8459V65.4219H7.87322V58.8459H8.96522V59.9139ZM12.9138 57.7779C12.7058 57.7779 12.5298 57.7059 12.3858 57.5619C12.2418 57.4179 12.1698 57.2419 12.1698 57.0339C12.1698 56.8259 12.2418 56.6499 12.3858 56.5059C12.5298 56.3619 12.7058 56.2899 12.9138 56.2899C13.1138 56.2899 13.2818 56.3619 13.4178 56.5059C13.5618 56.6499 13.6338 56.8259 13.6338 57.0339C13.6338 57.2419 13.5618 57.4179 13.4178 57.5619C13.2818 57.7059 13.1138 57.7779 12.9138 57.7779ZM13.4418 58.8459V65.4219H12.3498V58.8459H13.4418ZM17.7509 64.4139L19.7909 58.8459H20.9549L18.3749 65.4219H17.1029L14.5229 58.8459H15.6989L17.7509 64.4139ZM21.6215 62.1099C21.6215 61.4379 21.7575 60.8499 22.0295 60.3459C22.3015 59.8339 22.6735 59.4379 23.1455 59.1579C23.6255 58.8779 24.1575 58.7379 24.7415 58.7379C25.3175 58.7379 25.8175 58.8619 26.2415 59.1099C26.6655 59.3579 26.9815 59.6699 27.1895 60.0459V58.8459H28.2935V65.4219H27.1895V64.1979C26.9735 64.5819 26.6495 64.9019 26.2175 65.1579C25.7935 65.4059 25.2975 65.5299 24.7295 65.5299C24.1455 65.5299 23.6175 65.3859 23.1455 65.0979C22.6735 64.8099 22.3015 64.4059 22.0295 63.8859C21.7575 63.3659 21.6215 62.7739 21.6215 62.1099ZM27.1895 62.1219C27.1895 61.6259 27.0895 61.1939 26.8895 60.8259C26.6895 60.4579 26.4175 60.1779 26.0735 59.9859C25.7375 59.7859 25.3655 59.6859 24.9575 59.6859C24.5495 59.6859 24.1775 59.7819 23.8415 59.9739C23.5055 60.1659 23.2375 60.4459 23.0375 60.8139C22.8375 61.1819 22.7375 61.6139 22.7375 62.1099C22.7375 62.6139 22.8375 63.0539 23.0375 63.4299C23.2375 63.7979 23.5055 64.0819 23.8415 64.2819C24.1775 64.4739 24.5495 64.5699 24.9575 64.5699C25.3655 64.5699 25.7375 64.4739 26.0735 64.2819C26.4175 64.0819 26.6895 63.7979 26.8895 63.4299C27.0895 63.0539 27.1895 62.6179 27.1895 62.1219ZM29.7308 62.1219C29.7308 61.4419 29.8668 60.8499 30.1388 60.3459C30.4108 59.8339 30.7868 59.4379 31.2668 59.1579C31.7548 58.8779 32.3108 58.7379 32.9348 58.7379C33.7428 58.7379 34.4068 58.9339 34.9268 59.3259C35.4548 59.7179 35.8028 60.2619 35.9708 60.9579H34.7948C34.6828 60.5579 34.4628 60.2419 34.1348 60.0099C33.8148 59.7779 33.4148 59.6619 32.9348 59.6619C32.3108 59.6619 31.8068 59.8779 31.4228 60.3099C31.0388 60.7339 30.8468 61.3379 30.8468 62.1219C30.8468 62.9139 31.0388 63.5259 31.4228 63.9579C31.8068 64.3899 32.3108 64.6059 32.9348 64.6059C33.4148 64.6059 33.8148 64.4939 34.1348 64.2699C34.4548 64.0459 34.6748 63.7259 34.7948 63.3099H35.9708C35.7948 63.9819 35.4428 64.5219 34.9148 64.9299C34.3868 65.3299 33.7268 65.5299 32.9348 65.5299C32.3108 65.5299 31.7548 65.3899 31.2668 65.1099C30.7868 64.8299 30.4108 64.4339 30.1388 63.9219C29.8668 63.4099 29.7308 62.8099 29.7308 62.1219ZM43.0919 58.8459L39.1319 68.5179H38.0039L39.2999 65.3499L36.6479 58.8459H37.8599L39.9239 64.1739L41.9639 58.8459H43.0919ZM51.9488 60.5619V61.4859H47.1608V60.5619H51.9488ZM62.3454 57.0579V57.9459H60.0654V65.4219H58.9734V57.9459H56.6814V57.0579H62.3454ZM69.6896 61.8819C69.6896 62.0899 69.6776 62.3099 69.6536 62.5419H64.3976C64.4376 63.1899 64.6576 63.6979 65.0576 64.0659C65.4656 64.4259 65.9576 64.6059 66.5336 64.6059C67.0056 64.6059 67.3976 64.4979 67.7096 64.2819C68.0296 64.0579 68.2536 63.7619 68.3816 63.3939H69.5576C69.3816 64.0259 69.0296 64.5419 68.5016 64.9419C67.9736 65.3339 67.3176 65.5299 66.5336 65.5299C65.9096 65.5299 65.3496 65.3899 64.8536 65.1099C64.3656 64.8299 63.9816 64.4339 63.7016 63.9219C63.4216 63.4019 63.2816 62.8019 63.2816 62.1219C63.2816 61.4419 63.4176 60.8459 63.6896 60.3339C63.9616 59.8219 64.3416 59.4299 64.8296 59.1579C65.3256 58.8779 65.8936 58.7379 66.5336 58.7379C67.1576 58.7379 67.7096 58.8739 68.1896 59.1459C68.6696 59.4179 69.0376 59.7939 69.2936 60.2739C69.5576 60.7459 69.6896 61.2819 69.6896 61.8819ZM68.5616 61.6539C68.5616 61.2379 68.4696 60.8819 68.2856 60.5859C68.1016 60.2819 67.8496 60.0539 67.5296 59.9019C67.2176 59.7419 66.8696 59.6619 66.4856 59.6619C65.9336 59.6619 65.4616 59.8379 65.0696 60.1899C64.6856 60.5419 64.4656 61.0299 64.4096 61.6539H68.5616ZM72.223 59.9139C72.415 59.5379 72.687 59.2459 73.039 59.0379C73.399 58.8299 73.835 58.7259 74.347 58.7259V59.8539H74.059C72.835 59.8539 72.223 60.5179 72.223 61.8459V65.4219H71.131V58.8459H72.223V59.9139ZM83.5156 58.7259C84.0276 58.7259 84.4836 58.8339 84.8836 59.0499C85.2836 59.2579 85.5996 59.5739 85.8316 59.9979C86.0636 60.4219 86.1796 60.9379 86.1796 61.5459V65.4219H85.0996V61.7019C85.0996 61.0459 84.9356 60.5459 84.6076 60.2019C84.2876 59.8499 83.8516 59.6739 83.2996 59.6739C82.7316 59.6739 82.2796 59.8579 81.9436 60.2259C81.6076 60.5859 81.4396 61.1099 81.4396 61.7979V65.4219H80.3596V61.7019C80.3596 61.0459 80.1956 60.5459 79.8676 60.2019C79.5476 59.8499 79.1116 59.6739 78.5596 59.6739C77.9916 59.6739 77.5396 59.8579 77.2036 60.2259C76.8676 60.5859 76.6996 61.1099 76.6996 61.7979V65.4219H75.6076V58.8459H76.6996V59.7939C76.9156 59.4499 77.2036 59.1859 77.5636 59.0019C77.9316 58.8179 78.3356 58.7259 78.7756 58.7259C79.3276 58.7259 79.8156 58.8499 80.2396 59.0979C80.6636 59.3459 80.9796 59.7099 81.1876 60.1899C81.3716 59.7259 81.6756 59.3659 82.0996 59.1099C82.5236 58.8539 82.9956 58.7259 83.5156 58.7259ZM90.2989 65.5299C89.7949 65.5299 89.3429 65.4459 88.9429 65.2779C88.5429 65.1019 88.2269 64.8619 87.9949 64.5579C87.7629 64.2459 87.6349 63.8899 87.6109 63.4899H88.7389C88.7709 63.8179 88.9229 64.0859 89.1949 64.2939C89.4749 64.5019 89.8389 64.6059 90.2869 64.6059C90.7029 64.6059 91.0309 64.5139 91.2709 64.3299C91.5109 64.1459 91.6309 63.9139 91.6309 63.6339C91.6309 63.3459 91.5029 63.1339 91.2469 62.9979C90.9909 62.8539 90.5949 62.7139 90.0589 62.5779C89.5709 62.4499 89.1709 62.3219 88.8589 62.1939C88.5549 62.0579 88.2909 61.8619 88.0669 61.6059C87.8509 61.3419 87.7429 60.9979 87.7429 60.5739C87.7429 60.2379 87.8429 59.9299 88.0429 59.6499C88.2429 59.3699 88.5269 59.1499 88.8949 58.9899C89.2629 58.8219 89.6829 58.7379 90.1549 58.7379C90.8829 58.7379 91.4709 58.9219 91.9189 59.2899C92.3669 59.6579 92.6069 60.1619 92.6389 60.8019H91.5469C91.5229 60.4579 91.3829 60.1819 91.1269 59.9739C90.8789 59.7659 90.5429 59.6619 90.1189 59.6619C89.7269 59.6619 89.4149 59.7459 89.1829 59.9139C88.9509 60.0819 88.8349 60.3019 88.8349 60.5739C88.8349 60.7899 88.9029 60.9699 89.0389 61.1139C89.1829 61.2499 89.3589 61.3619 89.5669 61.4499C89.7829 61.5299 90.0789 61.6219 90.4549 61.7259C90.9269 61.8539 91.3109 61.9819 91.6069 62.1099C91.9029 62.2299 92.1549 62.4139 92.3629 62.6619C92.5789 62.9099 92.6909 63.2339 92.6989 63.6339C92.6989 63.9939 92.5989 64.3179 92.3989 64.6059C92.1989 64.8939 91.9149 65.1219 91.5469 65.2899C91.1869 65.4499 90.7709 65.5299 90.2989 65.5299Z" fill="#D7D7D7"/>
<defs>
<linearGradient id="paint0_linear_71_939" x1="61.9459" y1="14.6903" x2="47.0885" y2="3.58934" gradientUnits="userSpaceOnUse">
<stop stop-color="#5070E4"/>
<stop offset="1" stop-color="#254198"/>
</linearGradient>
<linearGradient id="paint1_linear_71_939" x1="46.0622" y1="0.690614" x2="34.8037" y2="15.5959" gradientUnits="userSpaceOnUse">
<stop stop-color="#709EF3"/>
<stop offset="1" stop-color="#4680DD"/>
</linearGradient>
<linearGradient id="paint2_linear_71_939" x1="32.0541" y1="16.7337" x2="46.9129" y2="27.8347" gradientUnits="userSpaceOnUse">
<stop stop-color="white"/>
<stop offset="1" stop-color="#DADADA"/>
</linearGradient>
</defs>
</svg>
