<svg width="1920" height="622" viewBox="0 0 1920 622" fill="none" xmlns="http://www.w3.org/2000/svg">
<g opacity="0.2">
<mask id="mask0_123_1044" style="mask-type:luminance" maskUnits="userSpaceOnUse" x="0" y="0" width="1920" height="749">
<path d="M1920 0H0V748.136H1920V0Z" fill="white"/>
</mask>
<g mask="url(#mask0_123_1044)">
<path d="M1954.12 -1.872C1954.23 -1.96099 1929.67 82.295 1892.92 150.86C1883.23 167.068 1844.73 251.895 1749.43 344.937C1701.87 390.979 1639.25 437.439 1563.71 473.768C1488.37 510.242 1400.75 536.239 1309.92 548.657C1128.75 572.66 933.798 553.248 797.533 483.632C728.246 452.355 668.196 421.023 617.001 399.304C566.06 377.097 524.562 364.023 499.04 357.464C448.382 343.348 376.134 333.787 298.574 341.697C221.183 348.704 139.734 374.783 76.6434 415.634C12.8403 455.908 -30.6005 508.723 -54.8445 549.557C-79.3229 590.645 -87.7061 619.042 -88.1523 618.827C-87.7028 619.042 -79.4385 590.616 -55.1014 549.435C-30.9954 508.499 12.2977 455.48 76.1104 414.952C139.191 373.827 220.804 347.458 298.41 340.283C376.163 332.189 448.741 341.684 499.564 355.836C525.166 362.424 566.792 375.538 617.804 397.788C669.076 419.536 729.158 450.872 798.355 482.123C934.331 551.597 1128.73 570.92 1309.65 546.99C1400.28 534.594 1487.69 508.67 1562.85 472.282C1638.18 436.055 1700.64 389.72 1748.07 343.787C1843.14 250.988 1881.58 166.337 1891.23 150.158C1927.9 81.7742 1954.21 -1.93132 1954.12 -1.872Z" fill="url(#paint0_linear_123_1044)"/>
<path d="M2002.2 -0.735235C2002.23 -0.850586 1977.47 84.4798 1939.87 153.664C1929.99 170.008 1890.59 255.655 1793.42 349.083C1744.96 395.312 1681.1 441.829 1603.9 477.208C1526.98 512.783 1437.62 537.33 1345.27 546.624C1252.89 556.333 1158.41 551.62 1069.28 539.877C979.439 530.527 896.536 504.988 824.825 476.899C752.905 448.891 689.895 421.164 636.7 402.171C583.701 382.762 540.941 371.82 514.819 366.26C462.792 354.481 389.768 347 311.295 353.585C233.015 359.718 149.585 382.291 83.6855 420.891C17.0666 458.792 -28.7694 511.151 -53.8642 552.161C-79.2416 593.41 -87.7821 622.159 -88.2637 621.922C-87.7789 622.159 -79.3636 593.38 -54.1211 552.032C-29.1675 510.914 16.5369 458.334 83.1814 420.166C149.097 381.302 232.691 358.456 311.157 352.144C389.8 345.385 463.075 352.774 515.262 364.589C541.455 370.162 584.321 381.137 637.403 400.579C690.672 419.589 753.721 447.339 825.563 475.323C897.252 503.39 979.825 528.836 1069.55 538.183C1158.59 549.913 1252.88 554.603 1345.06 544.92C1437.2 535.655 1526.33 511.158 1603.05 475.669C1680.04 440.392 1743.73 394.007 1792.06 347.9C1888.99 254.715 1928.31 169.243 1938.16 152.929C1975.67 83.9525 2002.22 -0.820924 2002.2 -0.735235Z" fill="url(#paint1_linear_123_1044)"/>
<path d="M2050.02 0.392707C2050.07 0.270764 2025.11 86.7316 1986.71 156.651C1976.68 173.153 1936.39 259.782 1837.16 353.665C1787.7 400.092 1722.48 446.733 1643.56 481.141C1565.01 515.855 1473.8 539.084 1379.94 545.148C1286.02 551.759 1190.81 542.521 1101.01 528.531C1010.51 516.999 926.008 494.248 851.741 469.375C777.33 444.693 711.497 420.789 656.376 404.782C601.393 388.382 557.486 379.566 530.76 375.103C477.415 365.829 403.572 360.078 324.065 365.434C244.79 370.694 159.468 389.812 90.7914 426.066C21.3921 461.535 -26.9129 513.436 -52.8683 554.679C-79.1607 596.14 -87.8521 625.274 -88.3594 625.014C-87.8489 625.274 -79.2795 596.12 -53.1251 554.544C-27.3046 513.199 20.8784 461.053 90.3162 425.324C159.035 388.797 244.51 369.405 323.949 363.974C403.607 358.453 477.614 364.106 531.114 373.41C557.904 377.875 601.913 386.701 656.97 403.141C712.165 419.164 778.036 443.092 852.392 467.744C926.646 492.607 1010.88 515.298 1101.33 526.82C1191.08 540.811 1286.1 550.019 1379.81 543.428C1473.44 537.373 1564.39 514.211 1642.74 479.585C1721.44 445.283 1786.46 398.767 1835.8 352.478C1934.78 258.826 1974.98 172.382 1985.02 155.909C2023.29 86.1977 2050.06 0.307017 2050.02 0.392707Z" fill="url(#paint2_linear_123_1044)"/>
<path d="M2097.95 1.66419C2098.01 1.54225 2072.72 89.0907 2033.41 159.791C2023.18 176.487 1981.77 264.056 1880.57 358.667C1829.98 405.341 1763.12 451.769 1682.56 485.487C1602.33 519.463 1509.14 541.087 1413.83 544.122C1318.38 547.556 1222.59 533.625 1132.08 517.315C1040.94 503.054 954.74 483.009 878.094 461.326C801.32 439.99 732.797 420.38 675.9 407.414C619.087 394.139 574.092 387.554 546.785 384.262C439.467 371.758 243.187 362.523 97.9416 431.193C25.8163 464.128 -25.0316 515.581 -51.857 557.104C-79.0677 598.845 -87.9196 628.398 -88.459 628.121C-87.9164 628.398 -79.1929 598.819 -52.1203 556.969C-25.4265 515.334 25.3155 463.627 97.5049 430.422C168.959 396.318 256.242 380.32 336.75 375.792C417.548 371.276 492.335 375.897 547.051 382.525C574.413 385.821 619.495 392.425 676.375 405.717C733.346 418.699 801.917 438.332 878.662 459.649C955.311 481.335 1041.3 501.333 1132.45 515.591C1222.95 531.915 1318.55 545.797 1413.76 542.382C1508.81 539.35 1601.74 517.783 1681.75 483.905C1762.09 450.276 1828.76 403.987 1879.19 357.447C1980.14 263.08 2021.47 175.703 2031.68 159.04C2070.87 88.5502 2098 1.58839 2097.95 1.66419Z" fill="url(#paint3_linear_123_1044)"/>
<path d="M2145.97 2.66322C2146.04 2.53469 2120.3 91.5497 2080.07 163.127C2069.61 180.011 2027.2 268.766 1923.63 363.967C1872.05 411.096 1803.38 457.289 1721.07 490.28C1639.01 523.336 1543.8 543.49 1447.05 543.352C1350.09 543.674 1253.85 524.869 1162.6 506.162C1070.72 489.321 982.861 471.145 903.952 452.867C746.3 415.41 619.069 396.302 563.107 393.365C507.398 389.156 431.66 385.996 349.8 389.219C268.229 392.722 179.38 405.124 105.267 436.371C30.4126 466.636 -23.113 517.582 -50.8246 559.448C-78.9857 601.502 -87.9885 631.519 -88.5664 631.22C-87.9885 631.519 -79.1077 601.479 -51.0879 559.3C-23.5144 517.322 29.9246 466.109 104.859 435.57C179.042 404.047 268.046 391.401 349.72 387.71C431.705 384.331 507.465 387.373 563.293 391.595C619.333 394.532 746.778 413.687 904.427 451.143C983.375 469.431 1071.07 487.568 1163.03 504.432C1254.31 523.145 1350.35 541.905 1447.04 541.578C1543.52 541.72 1638.47 521.616 1720.27 488.655C1802.35 455.76 1870.82 409.705 1922.25 362.711C2025.55 267.757 2067.88 179.197 2078.31 162.342C2118.43 91.0026 2146.03 2.57754 2145.97 2.66322Z" fill="url(#paint4_linear_123_1044)"/>
<path d="M2193.9 3.91224C2193.98 3.787 2167.86 94.1302 2126.63 166.65C2115.93 183.725 2072.46 273.775 1966.36 369.622C1913.61 417.16 1843.17 463.307 1758.94 495.458C1674.93 527.403 1577.68 546.347 1479.46 542.824C1381 539.917 1284.5 516.191 1192.45 495.049C1099.79 475.459 1010.14 458.921 929.109 444.017C766.921 414.026 636.303 404.06 579.525 402.537C522.753 400.757 445.863 399.06 362.703 401.018C279.841 403.585 189.306 412.731 112.576 441.41C35.0828 468.993 -21.1847 519.421 -49.7664 561.709C-78.9035 604.122 -88.0476 634.65 -88.6641 634.318C-88.0444 634.65 -79.0223 604.102 -50.0265 561.554C-21.5861 519.144 34.6141 468.436 112.201 440.58C189.017 411.62 279.713 402.234 362.652 399.492C445.924 397.376 522.75 398.951 579.624 400.738C636.464 402.263 767.248 412.243 929.501 442.244C1010.6 457.167 1100.16 473.686 1192.94 493.296C1285.04 514.448 1381.38 538.124 1479.54 541.018C1577.46 544.528 1674.42 525.64 1758.19 493.8C1842.16 461.735 1912.38 415.736 1964.98 368.34C2070.8 272.744 2114.18 182.898 2124.86 165.849C2165.97 93.56 2193.97 3.82655 2193.9 3.91224Z" fill="url(#paint5_linear_123_1044)"/>
<path d="M2241.88 4.93084C2241.98 4.78253 2215.4 96.8033 2173.1 170.328C2162.15 187.628 2117.54 279.049 2008.76 375.617C1954.75 423.541 1882.49 469.685 1796.23 500.952C1710.19 531.754 1610.8 549.426 1511.14 542.455C1411.24 536.15 1314.59 507.52 1221.72 483.903C1128.27 461.436 1036.6 446.677 953.597 435.07C787.163 412.698 653.775 411.94 596.114 411.779C538.344 412.385 460.198 412.118 375.664 412.787C291.418 414.372 199.236 420.351 119.954 446.4C39.9013 471.244 -19.2366 521.089 -48.6466 563.904C-78.8433 606.689 -88.0965 637.781 -88.7676 637.416C-88.0933 637.781 -78.9717 606.663 -48.9131 563.739C-19.6444 520.809 39.4422 470.667 119.613 445.547C199.001 419.207 291.331 413.004 375.638 411.245C460.275 410.404 538.276 410.559 596.13 409.943C653.826 410.114 787.327 410.872 953.898 433.26C1037 444.888 1128.64 459.633 1222.25 482.14C1315.23 505.79 1411.69 534.351 1511.3 540.629C1610.61 547.583 1709.7 529.967 1795.49 499.248C1881.49 468.083 1953.51 422.088 2007.36 374.309C2115.86 277.997 2160.38 186.784 2171.3 169.517C2213.47 96.2232 2241.96 4.83197 2241.88 4.93084Z" fill="url(#paint6_linear_123_1044)"/>
<path d="M2289.9 6.09099C2290 5.94598 2262.92 99.5717 2219.48 174.178C2208.28 191.708 2162.45 284.589 2050.85 381.922C1995.49 430.264 1921.3 476.398 1832.91 506.703C1744.77 536.348 1643.12 552.672 1542.07 542.168C1440.79 532.291 1344.09 498.951 1250.46 472.519C1156.07 447.518 1062.37 433.89 977.46 425.769C807.064 411.166 671.502 419.863 612.891 421.016C554.18 424.062 474.68 425.182 388.688 424.526C302.978 425.107 209.184 427.954 127.41 451.357C44.8566 473.419 -17.2319 522.618 -47.4992 566.023C-78.7715 609.221 -88.1339 640.916 -88.8691 640.507C-88.1371 640.916 -78.9063 609.191 -47.7657 565.862C-17.6493 522.331 44.4168 472.809 127.102 450.471C208.991 426.784 302.93 423.709 388.681 422.958C474.76 423.439 554.045 422.2 612.811 419.154C671.432 418.004 807.055 409.294 977.668 423.907C1062.71 432.051 1156.46 445.675 1251.05 470.736C1344.82 497.208 1441.34 530.478 1542.31 540.323C1642.97 550.787 1744.32 534.519 1832.2 504.959C1920.3 474.744 1994.25 428.771 2049.43 380.568C2160.73 283.495 2206.47 190.834 2217.65 173.331C2260.97 98.9851 2289.99 5.98882 2289.9 6.09099Z" fill="url(#paint7_linear_123_1044)"/>
<path d="M2337.82 7.19845C2337.92 7.03695 2310.43 102.439 2265.77 178.176C2254.3 195.959 2207.16 290.363 2092.61 388.524C2035.83 437.304 1959.58 483.405 1869 512.695C1778.71 541.15 1674.7 556.011 1572.3 541.898C1469.68 528.392 1373.15 490.138 1278.63 461.136C1183.33 433.382 1087.37 420.984 1000.68 416.37C826.614 409.679 689.465 427.789 629.83 430.271C599.99 432.318 564.945 435.192 526.275 436.312C487.615 437.268 445.529 436.546 401.758 436.259C314.513 435.782 219.126 435.564 134.929 456.298C49.9416 475.525 -15.1843 524.032 -46.3217 568.07C-78.6952 611.722 -88.1732 644.063 -88.9727 643.609C-88.17 644.05 -78.83 611.696 -46.5946 567.898C-15.5985 523.732 49.5242 474.892 134.662 455.375C218.991 434.371 314.51 434.354 401.78 434.654C445.548 434.855 487.65 435.501 526.227 434.49C564.781 433.326 599.842 430.419 629.669 428.373C689.289 425.901 826.437 407.781 1000.78 414.478C1087.65 419.099 1183.72 431.514 1279.28 459.336C1373.96 488.388 1470.34 526.563 1572.62 540.01C1674.59 554.086 1778.31 539.268 1868.31 510.898C1958.6 481.708 2034.59 435.762 2091.19 387.143C2205.43 289.242 2252.46 195.06 2263.92 177.309C2308.43 101.839 2337.92 7.09298 2337.82 7.19845Z" fill="url(#paint8_linear_123_1044)"/>
<path d="M2385.79 8.33519C2385.89 8.16381 2357.89 105.398 2311.98 182.318C2300.22 200.375 2251.71 296.368 2134.08 395.389C2075.8 444.614 1997.38 490.662 1904.52 518.861C1812.01 546.094 1705.55 559.392 1601.88 541.555C1497.98 524.325 1401.76 481.147 1306.29 449.627C1210.04 419.164 1111.68 407.599 1023.27 406.944C934.622 406.347 855.603 415.272 791.351 422.595C727.076 430.212 677.245 436.391 646.959 439.555C616.679 442.706 581.082 446.703 541.706 448.266C502.336 449.699 459.46 448.826 414.899 447.982C326.046 446.423 229.089 443.193 142.532 461.221C55.1782 477.601 -13.0525 525.327 -45.1113 570.057C-78.6054 614.197 -88.2054 647.201 -89.0723 646.71C-88.2022 647.201 -78.7434 614.171 -45.3842 569.886C-13.4795 525.027 54.7704 476.926 142.297 460.282C229.006 441.971 326.094 444.967 414.947 446.344C459.499 447.102 502.375 447.89 541.632 446.413C580.86 444.815 616.454 440.781 646.718 437.643C676.985 434.47 726.793 428.3 791.091 420.677C855.366 413.357 934.464 404.412 1023.3 405.012C1111.9 405.675 1210.47 417.256 1307 447.798C1402.67 479.394 1498.74 522.499 1602.27 539.65C1705.5 557.424 1811.65 544.179 1903.86 517.028C1996.41 488.922 2074.56 443.045 2132.65 393.975C2249.96 295.224 2298.38 199.453 2310.1 181.435C2355.87 104.779 2385.89 8.20995 2385.79 8.33519Z" fill="url(#paint9_linear_123_1044)"/>
<path d="M2433.76 9.46608C2433.87 9.28152 2405.36 108.431 2358.11 186.6C2346.07 204.937 2296.1 302.587 2175.25 402.511C2115.4 452.185 2034.71 498.144 1939.49 525.166C1844.71 551.146 1735.72 562.764 1630.85 541.088C1525.75 520.041 1429.98 471.949 1333.5 437.96C1236.23 404.831 1135.27 394.417 1045.29 397.597C955.007 400.665 875.224 414.478 810.314 425.13C745.39 436.22 694.956 444.519 664.236 448.797C633.535 453.055 597.396 458.163 557.284 460.203C517.183 462.115 473.476 461.083 428.095 459.673C337.573 456.993 239.052 450.8 150.2 466.132C60.5406 479.632 -10.8589 526.514 -43.865 571.979C-78.5117 616.63 -88.2369 650.349 -89.168 649.808C-88.2337 650.339 -78.6529 616.603 -44.1411 571.794C-11.2892 526.181 60.1618 478.933 149.997 465.17C239.014 449.558 337.666 455.53 428.169 458.008C473.527 459.327 517.218 460.279 557.182 458.321C597.123 456.242 633.253 451.104 663.912 446.852C694.597 442.581 744.992 434.292 809.925 423.199C874.858 412.54 954.728 398.701 1045.22 395.623C1135.43 392.452 1236.68 402.88 1334.26 436.118C1431 470.199 1526.62 518.209 1631.34 539.17C1735.73 560.76 1844.4 549.185 1938.86 523.284C2033.74 496.351 2114.14 450.56 2173.81 401.054C2294.32 301.407 2344.18 203.985 2356.2 185.69C2403.29 107.808 2433.85 9.33095 2433.76 9.46608Z" fill="url(#paint10_linear_123_1044)"/>
<path d="M2481.83 10.5891C2481.98 10.4078 2452.74 111.535 2404.16 191.005C2391.83 209.64 2340.32 309.01 2216.12 409.863C2154.63 459.985 2071.55 505.816 1973.91 531.585C1876.83 556.27 1765.22 566.075 1659.23 540.448C1553.04 515.489 1457.84 462.51 1360.25 426.121C1261.9 390.369 1158.15 381.233 1066.73 388.371C974.928 395.207 894.625 413.788 829.165 427.723C763.731 442.201 712.739 452.626 681.617 457.998C650.522 463.37 613.83 469.615 572.958 472.13C532.098 474.654 487.511 473.31 441.29 471.359C349.037 467.512 248.966 458.393 157.868 471.046C112.559 477.324 70.0654 489.94 35.6884 508.795C1.11552 527.423 -24.6889 551.521 -42.672 573.814C-78.3558 619.064 -88.4631 653.423 -89.2754 652.909C-88.4567 653.426 -78.5035 619.035 -42.9482 573.629C-25.0292 551.261 0.730232 527.034 35.3256 508.258C69.7218 489.241 112.309 476.464 157.698 470.053C248.969 457.118 349.175 466.019 441.386 469.668C487.576 471.527 532.127 472.782 572.823 470.215C613.493 467.661 650.156 461.389 681.197 456.033C712.28 450.661 763.211 440.263 828.655 425.772C894.121 411.841 974.514 393.226 1066.57 386.371C1158.24 379.213 1262.36 388.372 1361.07 424.256C1458.94 460.759 1554 513.65 1659.81 538.506C1765.27 564.022 1876.55 554.267 1973.31 529.654C2070.6 503.983 2153.37 458.314 2214.67 408.367C2338.51 307.78 2389.9 208.667 2402.21 190.076C2450.64 110.889 2481.96 10.4672 2481.83 10.5891Z" fill="url(#paint11_linear_123_1044)"/>
<path d="M2529.66 11.8518C2529.84 11.6574 2500.1 114.699 2450.13 195.534C2437.5 214.478 2384.38 315.612 2256.74 417.424C2193.53 467.987 2107.96 513.647 2007.86 538.072C1908.41 561.432 1794.14 569.302 1687.13 539.607C1579.95 510.641 1485.42 452.834 1386.64 414.115C1287.14 375.729 1180.43 368.209 1087.72 379.319C994.522 389.997 913.895 413.215 847.995 430.34C782.166 448.131 730.667 460.658 699.157 467.137C667.679 473.62 630.457 481.035 588.798 484.048C547.156 487.109 501.66 485.564 454.572 483.026C360.537 478.016 258.921 465.99 165.638 475.957C119.243 480.92 75.4168 492.379 39.7973 510.73C3.97227 528.834 -22.805 553.064 -41.3725 575.61C-78.2378 621.454 -88.5152 656.557 -89.3789 656.004C-88.5056 656.554 -78.3855 621.425 -41.655 575.419C-23.1453 552.79 3.59661 528.428 39.4473 510.17C75.099 491.654 119.025 480.047 165.506 474.941C258.973 464.702 360.726 476.494 454.694 481.306C501.743 483.744 547.191 485.195 588.638 482.093C630.062 479.035 667.242 471.613 698.656 465.143C730.124 458.677 781.54 446.16 847.372 428.376C913.275 411.254 993.983 387.993 1087.47 377.288C1180.45 366.132 1287.63 373.676 1387.52 412.227C1486.62 451.08 1581.01 508.802 1687.79 537.646C1794.24 567.206 1908.18 559.385 2007.28 536.094C2107.03 511.752 2192.26 466.27 2255.26 415.868C2382.55 314.349 2435.54 213.463 2448.14 194.562C2497.95 114.037 2529.82 11.7233 2529.66 11.8518Z" fill="url(#paint12_linear_123_1044)"/>
<path d="M2577.79 12.9163C2578.01 12.7284 2547.42 117.935 2496.02 200.171C2483.08 219.438 2428.29 322.391 2297.07 425.172C2232.07 476.184 2143.93 521.629 2041.31 544.614C1990.12 556.215 1935.72 562.384 1880.28 562.292C1824.88 563.06 1768.14 555.46 1714.55 538.52C1606.48 505.46 1512.72 442.897 1412.67 401.904C1311.91 360.951 1202.15 355.045 1108.27 370.308C1013.79 384.898 933.042 412.652 866.795 432.927C800.674 453.974 748.725 468.62 716.836 476.204C684.999 483.804 647.257 492.409 604.789 495.949C562.347 499.571 515.898 497.827 467.92 494.703C372.055 488.497 268.892 473.61 173.47 480.904C126.012 484.545 80.873 494.805 43.9981 512.638C6.91444 530.178 -20.8678 554.541 -40.0453 577.374C-78.1114 623.827 -88.5654 659.701 -89.4805 659.098C-88.559 659.698 -78.2719 623.797 -40.331 577.186C-21.2177 554.267 6.53237 529.763 43.6577 512.055C80.5744 494.063 125.82 483.646 173.373 479.865C268.985 472.285 372.289 486.948 468.068 492.946C515.994 495.972 562.379 497.626 604.603 493.958C646.798 490.392 684.491 481.777 716.249 474.197C748.073 466.623 799.935 451.996 866.047 430.96C932.293 410.691 1013.12 382.894 1107.9 368.245C1202.08 352.933 1312.41 358.862 1413.59 399.996C1514 441.153 1607.64 503.628 1715.29 536.552C1822.61 570.274 1939.28 564.523 2040.76 542.597C2143.01 519.688 2230.81 474.424 2295.59 423.594C2426.43 321.102 2481.1 218.42 2494.01 199.189C2545.24 117.253 2577.99 12.7877 2577.79 12.9163Z" fill="url(#paint13_linear_123_1044)"/>
<path d="M2625.57 14.1585C2625.82 13.9574 2594.73 121.228 2541.86 204.904C2528.61 224.513 2472.07 329.325 2337.17 433.092C2270.23 484.41 2179.57 529.779 2074.34 551.182C2021.89 562.17 1966.24 567.156 1909.71 565.973C1853.18 565.548 1795.58 556.152 1741.59 537.185C1632.81 499.86 1539.81 432.769 1438.42 389.538C1336.32 345.972 1223.31 342.35 1128.44 361.735C1032.84 380.307 952.075 412.361 885.536 435.656C819.187 459.807 766.82 476.54 734.578 485.221C702.375 493.796 664.19 503.914 620.878 507.994C577.594 511.88 530.175 510.156 481.283 506.366C383.552 498.921 278.851 481.197 181.336 485.847C132.841 488.177 86.4146 497.23 48.2778 514.51C9.92922 531.48 -18.8868 555.974 -38.6776 579.094C-77.9766 626.16 -88.6104 662.835 -89.5801 662.199C-88.604 662.835 -78.1371 626.134 -38.9698 578.889C-19.2368 555.684 9.54714 531.045 47.9536 513.913C86.1384 496.472 132.681 487.254 181.281 484.782C278.989 479.868 383.838 497.352 481.463 504.567C530.291 508.265 577.626 509.893 620.666 505.967C663.673 501.874 701.794 491.736 733.914 483.194C766.085 474.523 818.346 457.833 884.685 433.682C951.224 410.394 1032.04 378.3 1127.99 359.649C1223.15 340.194 1336.83 343.82 1439.4 387.6C1541.19 431.025 1634.08 498.041 1742.44 535.197C1796.24 554.072 1853.4 563.412 1909.78 563.841C1966.13 565.017 2021.59 560.047 2073.84 549.096C2178.69 527.775 2268.98 482.584 2335.68 431.46C2470.2 327.983 2526.6 223.452 2539.82 203.888C2592.5 120.536 2625.8 14.0201 2625.57 14.1585Z" fill="url(#paint14_linear_123_1044)"/>
<path d="M2673.56 15.1604C2673.85 14.966 2642.02 124.576 2587.63 209.735C2574.05 229.688 2515.72 336.407 2377.04 441.163C2308.04 492.702 2214.87 538.071 2106.96 557.744C2000.22 576.52 1877.6 578.405 1768.29 535.576C1658.95 493.912 1566.72 422.407 1463.9 376.998C1412.38 354.521 1357.05 342.149 1303.08 338.86C1248.96 335.907 1196.5 342.399 1148.3 353.433C1051.69 376.039 971.027 412.203 904.248 438.437C837.728 465.608 784.989 484.393 752.404 494.185C719.867 503.838 681.21 515.222 637.043 519.869C592.922 524.358 544.485 522.426 494.668 518.023C395.037 509.336 288.788 488.806 189.231 490.817C139.712 491.852 92.0267 499.682 52.6249 516.389C13.0016 532.749 -16.8772 557.368 -37.3036 580.781C-77.8612 628.497 -88.6684 665.993 -89.6895 665.304C-88.662 665.986 -78.0186 628.464 -37.5894 580.567C-17.2303 557.071 12.626 532.291 52.3103 515.766C91.7762 498.895 139.584 490.906 189.205 489.742C288.974 487.455 395.364 507.741 494.877 516.194C544.623 520.502 592.954 522.334 636.803 517.806C680.619 513.152 719.212 501.755 751.659 492.125C784.158 482.363 836.791 463.624 903.291 436.457C970.064 410.239 1050.79 374.025 1147.73 351.321C1196.1 340.263 1248.83 333.725 1303.25 336.694C1357.53 340.003 1413.16 352.451 1464.92 375.027C1568.19 420.67 1660.3 492.102 1769.23 533.583C1877.95 576.2 2000.13 574.335 2106.49 555.628C2214 536.018 2306.8 490.833 2375.54 439.489C2513.82 335.036 2572.01 228.6 2585.56 208.697C2639.74 123.864 2673.83 15.0352 2673.56 15.1604Z" fill="url(#paint15_linear_123_1044)"/>
<path d="M2721.51 16.3362C2721.84 16.1352 2689.28 127.986 2633.34 214.652C2619.41 234.93 2559.31 343.68 2416.62 449.299C2345.63 501.148 2249.78 546.415 2139.2 564.292C2029.99 581.245 1904.49 581.294 1794.72 533.625C1684.9 487.675 1593.49 411.764 1489.14 364.256C1436.85 340.902 1380.29 328.115 1325.12 326.018C1269.82 323.725 1216.56 332.65 1167.89 345.394C1070.43 372.123 989.907 412.166 922.938 441.271C856.293 471.361 803.208 492.171 770.301 503.056C737.446 513.791 698.333 526.466 653.306 531.716C608.337 536.812 558.847 534.696 508.089 529.66C406.519 519.703 298.732 496.379 197.165 495.803C146.645 495.526 97.7295 502.134 57.0531 518.233C16.1552 533.967 -14.812 558.702 -35.8807 582.412C-77.7193 630.787 -88.7128 669.13 -89.7852 668.395C-88.7031 669.12 -77.8831 630.76 -36.1728 582.191C-15.1652 558.389 15.7763 533.503 56.7545 517.591C97.4951 501.323 146.545 494.553 197.171 494.692C298.954 495.008 406.891 518.075 508.317 527.808C558.998 532.731 608.356 534.745 653.027 529.61C697.665 524.357 736.707 511.688 769.46 500.98C802.28 490.127 855.247 469.357 921.872 439.284C988.828 410.185 1069.4 370.099 1167.2 343.268C1216.06 330.478 1269.59 321.49 1325.24 323.8C1380.73 325.91 1437.65 338.786 1490.2 362.259C1595.05 410.021 1686.35 485.863 1795.76 531.601C1904.9 579.034 2029.91 579.001 2138.75 562.113C2248.93 544.3 2344.37 499.22 2415.11 447.566C2557.37 342.26 2617.32 233.803 2631.21 213.571C2686.97 127.252 2721.81 16.2044 2721.51 16.3362Z" fill="url(#paint16_linear_123_1044)"/>
<path d="M2769.47 17.51C2769.83 17.3057 2736.55 131.451 2679.08 219.698C2664.78 240.287 2602.98 351.271 2456.01 457.546C2383.11 509.988 2284.35 554.672 2171.13 570.877C2114.8 579.65 2055.36 580.88 1995.6 576.232C1935.62 572.449 1875.66 556.781 1820.97 531.374C1710.67 481.285 1620.22 400.872 1514.26 351.264C1461.12 327.054 1403.21 314.115 1346.87 313.278C1290.37 311.969 1236.35 322.987 1187.3 337.725C1089.1 368.521 1008.73 412.223 941.613 444.168C874.866 477.073 821.469 499.909 788.244 511.873C755.081 523.662 715.528 537.662 669.638 543.539C623.789 549.309 573.22 546.864 521.509 541.179C417.98 529.855 308.636 503.779 205.084 500.684C153.575 499.132 103.456 504.53 61.5147 520.03C19.3485 535.151 -12.72 560.001 -34.434 584.027C-77.5762 633.071 -88.7591 672.281 -89.8828 671.506C-88.7462 672.277 -77.7431 633.045 -34.7294 583.793C-13.0796 559.685 18.9761 534.66 61.2257 519.371C103.247 503.7 153.508 498.136 205.133 499.55C308.903 502.378 418.4 528.21 521.772 539.29C573.391 544.86 623.818 547.187 669.317 541.393C714.796 535.53 754.275 521.536 787.323 509.774C820.451 497.846 873.723 475.073 940.444 442.171C1007.54 410.245 1087.97 366.504 1186.51 335.58C1235.76 320.785 1290.06 309.708 1346.92 311.013C1403.64 311.857 1461.95 324.895 1515.38 349.238C1621.86 399.135 1712.21 479.486 1822.1 529.354C1931.51 581.657 2059.42 583.503 2170.74 568.656C2283.53 552.513 2381.87 508.004 2454.49 455.769C2601.03 349.818 2662.65 239.136 2676.91 218.6C2734.17 130.699 2769.81 17.3782 2769.47 17.51Z" fill="url(#paint17_linear_123_1044)"/>
<path d="M2817.41 18.6868C2817.82 18.4792 2783.77 134.954 2724.66 224.754C2709.98 245.682 2646.31 358.772 2495.17 465.891C2420.22 518.798 2318.49 562.727 2202.67 577.334C2088.44 590.395 1957.22 586.038 1846.96 528.794C1736.35 474.47 1646.83 389.706 1539.11 338.213C1485.15 313.11 1425.77 300.042 1368.26 300.629C1310.61 300.648 1255.85 313.509 1206.54 330.478C1107.73 365.341 1027.57 412.618 960.323 447.273C893.499 482.91 839.796 507.704 806.257 520.719C772.783 533.543 732.79 548.75 686.033 555.341C639.311 561.768 587.631 559.177 534.956 552.843C429.436 540.217 318.552 511.379 213.058 505.727C160.579 502.889 109.278 507.039 66.0653 521.879C22.6212 536.318 -10.5871 561.267 -32.9721 585.593C-77.4435 635.332 -88.8126 675.422 -89.9941 674.598C-88.8062 675.412 -77.6201 635.306 -33.2739 585.359C-10.9563 560.931 22.2488 535.814 65.7827 521.197C109.089 506.178 160.537 501.874 213.132 504.58C318.857 509.965 429.902 538.533 535.248 550.912C587.824 557.127 639.33 559.599 685.679 553.163C731.968 546.588 771.909 531.384 805.256 518.607C838.685 505.625 892.259 480.906 959.061 445.283C1026.28 410.644 1106.48 363.317 1205.64 328.326C1255.14 311.294 1310.2 298.348 1368.25 298.325C1426.17 297.738 1485.99 310.908 1540.25 336.157C1648.54 387.96 1737.96 472.68 1848.18 526.774C1957.79 583.714 2088.45 588.058 2202.31 575.05C2317.68 560.499 2418.97 516.761 2493.62 464.069C2644.31 357.273 2707.82 244.489 2722.44 223.623C2781.36 134.183 2817.8 18.5517 2817.41 18.6868Z" fill="url(#paint18_linear_123_1044)"/>
<path d="M2865.38 19.8596C2865.83 19.652 2830.99 138.5 2770.19 229.895C2755.14 251.156 2689.54 366.395 2534.13 474.344C2457.08 527.709 2352.32 570.781 2233.89 583.747C2117.14 594.9 1983.08 587.919 1872.81 525.857C1762.13 467.11 1673.33 378.296 1563.77 324.971C1508.88 299.092 1448.03 286.035 1389.36 287.926C1330.55 289.442 1275.19 304.432 1225.58 323.31C1126.27 362.203 1046.32 412.898 978.956 450.203C912.058 488.499 858.128 515.281 824.332 529.449C790.562 543.337 750.148 559.786 702.521 567.12C654.922 574.242 602.1 571.503 548.443 564.516C440.906 550.565 328.484 519.002 221.073 510.818C167.64 506.725 115.181 509.572 70.69 523.751C25.9778 537.478 -8.39924 562.519 -31.4649 587.148C-77.2945 637.58 -88.853 678.575 -90.0859 677.702C-88.837 678.559 -77.4743 637.55 -31.7667 586.907C-8.76526 562.176 25.6053 536.964 70.4235 523.049C115.014 508.686 167.628 505.68 221.182 509.655C328.83 517.548 441.42 548.858 548.76 562.548C602.312 569.417 654.932 572.027 702.133 564.898C749.243 557.588 789.611 541.156 823.24 527.33C856.927 513.204 910.729 486.486 977.588 448.212C1044.94 410.924 1124.91 360.189 1224.58 321.141C1274.38 302.184 1330.05 287.103 1389.3 285.583C1448.4 283.662 1509.75 296.845 1564.95 322.875C1675.14 376.549 1763.84 465.33 1874.12 523.82C1983.75 585.559 2117.19 592.51 2233.59 581.41C2351.55 568.491 2455.85 525.613 2532.58 472.466C2687.51 364.856 2752.94 249.93 2767.94 228.725C2828.52 137.709 2865.81 19.7278 2865.38 19.8596Z" fill="url(#paint19_linear_123_1044)"/>
<path d="M2913.33 21.0364C2913.83 20.8255 2878.18 142.086 2815.67 235.083C2800.22 256.683 2732.67 374.124 2572.91 482.861C2493.69 536.647 2385.89 578.892 2264.82 590.015C2145.55 599.356 2008.65 589.537 1898.51 522.67C1787.68 459.784 1699.79 366.695 1588.28 311.636C1532.41 285.056 1470.04 272.044 1410.23 275.518C1350.29 278.553 1294.37 295.619 1244.54 316.488C1144.79 359.316 1065.04 413.294 997.55 453.176C930.6 494.063 876.429 522.769 842.38 538.031C808.34 552.978 767.551 570.788 719.05 578.872C670.565 586.713 616.577 583.839 561.928 576.18C452.356 560.881 338.392 526.605 229.084 515.924C174.708 510.584 121.127 512.127 75.3652 525.62C29.3751 538.641 -6.18659 563.742 -29.9426 588.684C-77.1527 639.814 -88.8975 681.73 -90.1914 680.794C-88.8879 681.717 -77.3325 639.781 -30.2508 588.44C-6.55904 563.382 29.0091 538.094 75.1084 524.901C120.976 511.22 174.727 509.526 229.225 514.734C338.774 525.135 452.912 559.154 562.275 574.179C616.799 581.704 670.562 584.452 718.62 576.608C766.572 568.56 807.315 550.779 841.195 535.893C875.138 520.683 929.178 492.046 996.092 451.175C1063.55 411.316 1143.31 357.312 1243.43 314.309C1293.45 293.365 1349.69 276.181 1410.09 273.129C1470.37 269.625 1533.28 282.749 1589.5 309.504C1701.69 364.962 1789.46 458.02 1899.92 520.64C2009.43 587.165 2145.62 596.913 2264.55 587.639C2385.14 576.549 2492.47 534.495 2571.36 480.933C2730.59 372.535 2798 255.427 2813.38 233.889C2875.67 141.275 2913.81 20.9112 2913.33 21.0364Z" fill="url(#paint20_linear_123_1044)"/>
<path d="M2961.28 22.2092C2961.83 22.0016 2925.36 145.708 2861.1 240.339C2845.26 262.275 2775.72 381.947 2611.53 491.442C2530.08 545.552 2419.2 587.078 2295.48 596.079C2173.67 603.903 2034.02 590.763 1924.13 519.186C1813.18 452.236 1726.22 354.86 1612.61 298.242C1555.81 270.792 1491.76 258.241 1430.86 263.251C1369.82 267.911 1313.47 287.194 1263.42 309.938C1163.31 356.685 1083.71 413.765 1016.14 456.188C949.122 499.579 894.742 530.217 860.41 546.531C826.12 562.535 785.013 581.729 735.629 590.654C686.239 599.121 631.07 596.178 575.419 587.859C463.795 571.16 348.277 534.218 237.104 521.048C181.799 514.427 127.105 514.799 80.0971 527.554C32.8965 539.863 -3.99445 564.852 -28.4632 590.143C-76.9416 642.058 -88.924 684.873 -90.2949 683.888C-88.9143 684.863 -77.1278 642.032 -28.7714 589.886C-4.36369 564.489 32.5401 539.3 79.8595 526.812C126.983 513.873 181.851 513.346 237.283 519.832C348.704 532.728 464.405 569.393 575.794 585.813C631.326 594.006 686.22 596.811 735.157 588.351C783.947 579.482 825.018 560.317 859.148 544.372C893.361 528.111 947.603 497.556 1014.58 454.187C1082.13 411.79 1161.74 354.668 1262.21 307.753C1312.44 284.924 1369.11 265.512 1430.65 260.802C1492.05 255.756 1556.69 268.428 1613.87 296.07C1728.22 353.116 1815.05 450.466 1925.63 517.146C2034.89 588.36 2173.79 601.398 2295.26 593.634C2418.49 584.663 2528.86 543.334 2609.96 489.461C2773.61 380.313 2842.99 260.97 2858.77 239.096C2922.8 144.877 2961.81 22.084 2961.28 22.2092Z" fill="url(#paint21_linear_123_1044)"/>
</g>
</g>
<g opacity="0.2">
<mask id="mask1_123_1044" style="mask-type:luminance" maskUnits="userSpaceOnUse" x="0" y="0" width="1920" height="749">
<path d="M0 0H1920V748.136H0V0Z" fill="white"/>
</mask>
<g mask="url(#mask1_123_1044)">
<path d="M-299.114 523.155C-299.368 523.32 -204.7 569.678 -115.728 589.828C-94.2679 594.076 11.531 625.089 162.447 608.119C237.298 599.547 322.253 577.314 405.269 535.824C489.12 495.556 567.041 432.749 639.387 363.693C712.216 295.039 782.858 221.725 861.279 163.562C939.203 105.84 1026.43 63.249 1111.35 56.351C1197.2 48.9718 1269.81 88.2539 1315.06 129.21C1361.68 170.348 1388.97 210.773 1405.73 234.424C1474.85 327.954 1543.74 521.013 1669.55 637.488C1700.43 666.131 1734.55 688.77 1768.79 702.091C1802.97 715.686 1836.65 719.486 1864.44 718.033C1920.47 714.473 1952.38 697.059 1952.44 698.117C1952.37 697.055 1920.54 714.595 1864.46 718.353C1836.63 719.905 1802.88 716.214 1768.56 702.691C1734.18 689.455 1699.9 666.853 1668.87 638.239C1542.43 521.856 1472.98 328.748 1404.06 235.584C1387.35 212 1360.12 171.676 1313.74 130.756C1268.68 90.0072 1196.71 51.0745 1111.5 58.3911C1027.19 65.2232 940.195 107.63 862.477 165.203C784.241 223.231 713.641 296.483 640.768 365.183C568.392 434.278 490.234 497.28 406.165 537.656C322.921 579.255 237.738 601.554 162.678 610.143C11.3545 627.162 -94.6981 596.067 -116.207 591.809C-205.487 571.563 -299.409 523.287 -299.114 523.155Z" fill="url(#paint22_linear_123_1044)"/>
<path d="M-299.115 495.483C-299.353 495.638 -206.506 542.679 -119.065 564.348C-97.9102 568.965 5.85669 601.62 155.289 588.981C229.418 582.537 313.93 563.139 397.122 524.638C481.021 487.247 559.976 427.835 633.449 361.824C707.443 296.275 779.299 225.993 858.125 170.482C936.453 115.407 1022.58 73.9564 1106.39 66.7057C1191.05 58.7399 1263.4 95.56 1309.17 134.951C1356.13 174.49 1384.25 213.545 1401.42 236.467C1472.04 327.13 1547.87 513.864 1672.65 627.676C1703.43 655.637 1737.04 678.061 1770.85 691.301C1804.58 704.704 1837.72 709.121 1865.2 707.895C1920.58 705.215 1952.35 688.552 1952.44 689.712C1952.35 688.549 1920.65 705.337 1865.21 708.204C1837.7 709.529 1804.48 705.219 1770.62 691.887C1736.69 678.734 1702.92 656.356 1671.99 628.424C1546.61 514.727 1470.23 327.99 1399.82 237.656C1382.7 214.791 1354.63 175.835 1307.9 136.503C1262.33 97.3133 1190.62 60.8195 1106.56 68.7161C1023.32 75.9008 937.4 117.187 859.277 172.137C780.631 227.515 708.818 297.741 634.782 363.34C561.257 429.387 482.078 488.987 397.954 526.473C314.55 565.076 229.8 584.528 155.462 590.988C5.63818 603.663 -98.3628 570.923 -119.57 566.306C-207.321 544.537 -299.404 495.612 -299.115 495.483Z" fill="url(#paint23_linear_123_1044)"/>
<path d="M-299.114 467.808C-299.345 467.963 -208.271 515.699 -122.304 538.835C-101.467 543.811 0.322144 577.992 148.239 569.578C221.649 565.224 305.686 548.65 389.055 513.28C473.127 479.076 552.759 422.574 627.539 359.912C702.708 297.563 775.941 230.55 855.12 177.643C933.969 125.462 1018.69 84.4789 1101.55 77.0338C1185.04 68.4879 1257.14 102.902 1303.45 140.602C1350.83 178.447 1379.79 216.131 1397.4 238.282C1469.78 325.886 1551.98 506.411 1675.7 617.805C1706.16 645.433 1739.6 667.165 1772.83 680.615C1806.13 693.959 1838.76 698.732 1865.95 697.891C1920.7 696.062 1952.37 680.18 1952.45 681.317C1952.37 680.18 1920.77 696.184 1865.96 698.201C1838.74 699.137 1806.02 694.464 1772.6 681.202C1739.25 667.831 1705.65 646.145 1675.04 618.553C1550.75 507.288 1468.02 326.806 1395.85 239.505C1378.28 217.407 1349.38 179.828 1302.24 142.171C1256.12 104.652 1184.65 70.5445 1101.72 79.0211C1019.42 86.397 934.871 127.228 856.215 179.304C777.203 232.096 704.015 299.056 628.798 361.454C553.972 424.146 474.116 480.83 389.822 515.115C306.215 550.588 221.967 567.201 148.371 571.568C0.0557861 580.002 -101.958 545.743 -122.847 540.753C-209.099 517.525 -299.39 467.937 -299.114 467.808Z" fill="url(#paint24_linear_123_1044)"/>
<path d="M-299.114 440.141C-299.333 440.289 -209.972 488.747 -125.467 513.353C-104.925 518.695 -5.09094 554.424 141.314 550.265C213.988 548.008 297.527 534.268 381.06 502.019C465.219 470.907 545.785 417.763 621.76 358.334C698.078 299.181 772.56 235.353 852.006 184.881C931.236 135.28 1014.88 95.1577 1096.74 87.2413C1179.06 78.1846 1251.03 109.883 1297.92 145.889C1345.75 182.037 1375.54 218.32 1393.63 239.673C1467.98 324.038 1556.03 498.499 1678.6 607.822C1708.83 635.052 1741.97 656.329 1774.7 669.931C1807.6 683.236 1839.75 688.361 1866.66 687.909C1920.82 686.917 1952.39 671.806 1952.45 672.91C1952.39 671.806 1920.88 687.032 1866.66 688.216C1839.72 688.763 1807.49 683.74 1774.47 670.508C1741.63 656.985 1708.33 635.75 1677.96 608.564C1554.84 499.382 1466.29 325.023 1392.13 240.932C1374.09 219.628 1344.36 183.438 1296.77 147.475C1250.07 111.65 1178.72 80.2148 1096.92 89.2023C1015.6 97.0495 932.11 137.04 853.059 186.546C773.761 236.918 699.324 300.697 622.954 359.892C546.951 419.361 466.147 472.667 381.763 503.861C298.012 536.192 214.248 549.965 141.381 552.236C-5.39282 556.395 -105.445 520.59 -126.035 515.231C-210.817 490.533 -299.377 440.263 -299.114 440.141Z" fill="url(#paint25_linear_123_1044)"/>
<path d="M-299.114 412.469C-299.326 412.614 -211.628 461.813 -128.555 487.883C-108.311 493.601 -10.3719 530.836 134.498 530.935C206.434 530.77 289.459 519.868 373.134 490.793C457.35 462.812 538.873 413.141 616.017 357.012C693.485 301.122 769.174 240.493 848.844 192.349C928.367 145.085 1011.06 106.017 1091.93 97.4214C1173.18 87.8769 1244.95 116.708 1292.43 151.096C1340.89 185.266 1371.43 220.274 1390.04 240.75C1427.22 282.228 1471.51 343.054 1519.1 409.025C1566.97 474.62 1620.49 544.771 1681.39 597.75C1740.93 652.403 1813.74 679.666 1867.33 677.952C1920.92 677.787 1952.4 663.434 1952.44 664.512C1952.4 663.434 1920.98 677.909 1867.33 678.262C1813.68 680.163 1740.58 653.072 1680.76 598.491C1619.6 545.604 1565.82 475.507 1517.79 410.007C1470.05 344.115 1425.69 283.43 1388.61 242.056C1370.04 221.619 1339.56 186.7 1291.33 152.704C1244.07 118.485 1172.89 89.8906 1092.13 99.3593C1011.76 107.879 929.208 146.835 849.846 194.017C770.31 242.072 694.673 302.668 617.137 358.593C539.955 414.77 458.204 464.578 373.763 492.635C289.87 521.789 206.633 532.715 134.505 532.88C-10.7219 532.787 -108.86 495.463 -129.152 489.735C-212.502 463.567 -299.367 412.588 -299.114 412.469Z" fill="url(#paint26_linear_123_1044)"/>
<path d="M-299.115 384.798C-299.314 384.94 -213.244 434.903 -131.564 462.439C-111.603 468.53 -15.5132 507.272 127.816 511.602C199.023 513.524 281.477 505.462 365.27 479.604C449.528 454.793 532.008 408.705 610.327 355.924C688.944 303.373 765.786 245.928 845.652 200.012C925.425 154.946 1007.22 116.886 1087.13 107.408C1167.41 97.0919 1238.93 123.56 1287.07 156.027C1336.05 188.332 1367.56 221.787 1386.69 241.403C1424.78 281.216 1471.32 339.36 1520.17 403.38C1569.4 466.965 1623.6 535.322 1684.04 587.563C1743.23 641.382 1814.92 668.734 1867.96 668.012C1921.01 668.668 1952.42 655.06 1952.44 656.104C1952.41 655.063 1921.07 668.793 1867.96 668.319C1814.86 669.225 1742.88 642.042 1683.41 588.294C1622.72 536.159 1568.27 467.871 1518.89 404.388C1469.9 340.464 1423.32 282.468 1385.3 242.731C1366.22 223.161 1334.78 189.792 1286.03 157.648C1238.1 125.337 1167.17 99.0826 1087.34 109.322C1007.91 118.725 926.234 156.682 846.602 201.686C766.861 247.53 690.048 304.939 611.373 357.529C533.013 410.35 450.312 456.57 365.832 481.449C281.811 507.374 199.145 515.455 127.774 513.527C-15.9081 509.186 -112.191 470.359 -132.197 464.259C-214.121 436.627 -299.362 384.91 -299.115 384.798Z" fill="url(#paint27_linear_123_1044)"/>
<path d="M-299.115 357.131C-299.307 357.263 -214.798 408.031 -134.47 437.023C-114.798 443.496 -20.4963 483.731 121.282 492.267C191.734 496.274 273.623 491.047 357.503 468.448C441.768 446.838 525.192 404.465 604.666 355.094C684.391 305.922 762.405 251.72 842.46 207.965C922.404 164.965 1003.33 127.519 1082.37 117.441C1161.67 106.146 1233.01 130.264 1281.84 160.664C1331.41 191.012 1363.84 222.911 1383.5 241.635C1422.66 279.625 1471.25 335.155 1521.31 397.277C1571.72 458.999 1626.66 525.554 1686.54 577.271C1745.49 630.201 1815.97 657.928 1868.56 658.093C1921.09 659.566 1952.44 646.683 1952.44 647.708C1952.43 646.683 1921.14 659.685 1868.54 658.389C1815.91 658.416 1745.14 630.857 1685.93 577.993C1625.81 526.384 1570.62 459.909 1520.08 398.308C1469.88 336.292 1421.26 280.92 1382.18 243.002C1362.57 224.315 1330.2 192.501 1280.87 162.302C1232.24 132.044 1161.48 108.114 1082.6 119.329C1004.01 129.332 923.193 166.686 843.366 209.636C763.419 253.331 685.451 307.497 605.652 356.722C526.135 406.122 442.477 448.628 357.988 470.291C273.896 492.946 191.795 498.189 121.17 494.172C-20.9329 485.609 -115.424 445.292 -135.134 438.806C-215.694 409.718 -299.349 357.236 -299.115 357.131Z" fill="url(#paint28_linear_123_1044)"/>
<path d="M-299.115 329.459C-299.295 329.588 -216.305 381.183 -137.296 411.642C-117.903 418.501 -25.3481 460.218 114.876 472.953C184.597 479.034 265.872 476.641 349.807 457.341C434.065 438.977 518.404 400.414 599.008 354.53C759.062 262.823 920.287 152.487 1077.63 127.324C1155.97 115.351 1227.2 136.622 1276.67 165.09C1326.96 193.223 1360.2 223.715 1380.48 241.387C1420.71 277.522 1471.34 330.333 1522.47 390.714C1574.01 450.628 1629.53 515.62 1688.94 566.823C1747.56 619.057 1816.98 647.137 1869.1 648.195C1921.16 650.479 1952.46 638.308 1952.44 639.313C1952.45 638.308 1921.22 650.598 1869.09 648.485C1816.9 647.612 1747.22 619.7 1688.34 567.541C1628.69 516.451 1572.94 451.544 1521.28 391.762C1470.03 331.509 1419.38 278.873 1379.23 242.794C1359 225.162 1325.82 194.745 1275.77 166.751C1226.5 138.414 1155.83 117.302 1077.88 129.199C921.283 154.208 760.031 264.401 599.923 356.181C519.274 402.101 434.697 440.777 350.221 459.193C266.087 478.536 184.6 480.942 114.719 474.842C-25.833 462.077 -118.568 420.274 -137.989 413.402C-217.226 382.847 -299.33 329.562 -299.115 329.459Z" fill="url(#paint29_linear_123_1044)"/>
<path d="M-299.113 301.795C-299.29 301.91 -217.747 354.389 -140.026 386.308C-120.906 393.565 -30.037 436.776 108.64 453.677C177.609 461.834 258.268 462.262 342.225 446.304C426.425 431.193 511.666 396.591 593.34 354.211C756.055 269.823 917.608 164.326 1072.91 137.057C1150.45 124.091 1221.41 142.847 1271.6 169.197C1322.5 195.181 1356.83 223.84 1377.58 240.632C1418.96 274.757 1471.43 324.981 1523.59 383.685C1576.25 441.799 1632.16 505.512 1691.19 556.208C1749.45 607.921 1817.9 636.344 1869.59 638.298C1921.21 641.399 1952.47 629.93 1952.43 630.909C1952.46 629.93 1921.26 641.515 1869.57 638.591C1817.81 636.822 1749.1 608.561 1690.58 556.929C1631.33 506.343 1575.2 442.738 1522.43 384.752C1470.16 326.197 1417.7 276.154 1376.39 242.086C1355.69 225.33 1321.43 196.743 1270.77 170.874C1220.78 144.653 1150.35 126.029 1073.18 138.919C996.039 150.316 916.966 187.182 836.644 226.082C756.348 265.832 676.163 313.604 594.181 355.885C512.437 398.301 426.978 433.002 342.559 448.153C258.4 464.154 177.548 463.722 108.421 455.548C-30.5668 438.598 -121.609 395.312 -140.765 388.045C-218.695 356.02 -299.325 301.887 -299.113 301.795Z" fill="url(#paint30_linear_123_1044)"/>
<path d="M-299.115 274.118C-299.278 274.24 -219.146 327.628 -142.663 361.024C-123.817 368.689 -34.5654 413.383 102.551 434.456C170.785 444.683 250.795 447.926 334.723 435.34C418.828 423.508 504.926 393.006 587.649 354.135C670.598 315.493 751.809 270.842 832.366 232.881C913 195.857 991.366 159.027 1068.21 146.641C1144.98 132.644 1215.72 148.863 1266.63 172.935C1318.18 196.641 1353.49 223.538 1374.75 239.381C1417.24 271.458 1471.54 319.026 1524.64 376.181C1578.36 432.604 1634.63 495.164 1693.27 545.48C1751.19 596.762 1818.74 625.567 1870.03 628.411C1921.24 632.327 1952.48 621.553 1952.44 622.509C1952.48 621.553 1921.29 632.442 1870.01 628.705C1818.65 626.038 1750.84 597.388 1692.68 546.195C1633.82 495.995 1577.34 433.547 1523.52 377.275C1470.32 320.275 1416.07 272.905 1373.64 240.87C1352.43 225.057 1317.2 198.233 1265.87 174.636C1215.15 150.672 1144.93 134.556 1068.51 148.484C992.041 160.787 913.748 197.557 833.152 234.565C752.673 272.5 671.465 317.147 588.42 355.829C505.642 394.739 419.315 425.324 334.999 437.188C250.856 449.801 170.666 446.548 102.287 436.302C-35.1273 415.179 -124.536 370.397 -143.424 362.731C-220.105 329.233 -299.32 274.213 -299.115 274.118Z" fill="url(#paint31_linear_123_1044)"/>
<path d="M-299.115 246.449C-299.279 246.561 -220.494 300.922 -145.219 335.804C-126.623 343.865 -38.9259 390.072 96.6396 415.301C164.119 427.591 243.459 433.638 327.319 424.456C411.298 415.957 498.183 389.61 581.902 354.326C665.868 319.338 748.078 277.779 828.799 241.535C909.769 206.472 987.343 169.507 1063.52 156.063C1139.56 141.041 1210.09 154.692 1261.74 176.309C1313.91 197.705 1350.18 222.779 1371.98 237.587C1415.63 267.499 1471.5 312.618 1525.58 368.224C1580.32 423.039 1636.93 484.568 1695.18 534.63C1752.77 585.563 1819.49 614.803 1870.42 618.543C1921.26 623.269 1952.5 613.178 1952.44 614.11C1952.49 613.171 1921.3 623.385 1870.39 618.827C1819.4 615.274 1752.42 586.182 1694.58 535.335C1636.12 485.395 1579.31 423.995 1524.49 369.338C1470.32 313.89 1414.51 268.989 1370.94 239.113C1349.18 224.338 1313 199.333 1261.05 178.029C1209.6 156.521 1139.56 142.946 1063.84 157.892C988.014 171.257 910.485 208.176 829.55 243.229C748.862 279.45 666.661 321.019 582.602 356.043C498.793 391.36 411.712 417.772 327.518 426.302C243.446 435.504 163.926 429.443 96.3088 417.127C-39.552 391.845 -127.397 345.556 -146.012 337.478C-221.477 302.497 -299.311 246.535 -299.115 246.449Z" fill="url(#paint32_linear_123_1044)"/>
<path d="M-299.115 218.782C-299.272 218.888 -221.779 274.26 -147.669 310.658C-129.346 319.128 -43.1383 366.861 90.8796 396.236C157.617 410.608 236.283 419.408 320.018 413.687C403.853 408.568 491.386 386.352 576.091 354.775C661.027 323.495 744.181 284.984 825.122 250.362C906.295 216.805 983.314 180.041 1058.82 165.305C1134.18 149.206 1204.52 160.223 1256.88 179.296C1309.64 198.316 1346.86 221.505 1369.2 235.241C1413.99 262.916 1471.32 305.672 1526.38 359.808C1582.08 413.107 1639.02 473.735 1696.9 523.63C1754.2 574.312 1820.15 604.053 1870.75 608.673C1921.25 614.227 1952.52 604.794 1952.44 605.71C1952.51 604.794 1921.29 614.339 1870.71 608.96C1820.05 604.517 1753.85 574.925 1696.31 524.338C1638.23 474.562 1581.09 414.072 1525.31 360.941C1470.18 306.97 1412.95 264.445 1368.24 236.81C1345.95 223.103 1308.82 199.983 1256.27 181.043C1204.11 162.056 1134.24 151.097 1059.18 167.115C983.998 181.778 907.008 218.496 825.835 252.056C744.925 286.672 661.749 325.186 576.714 356.509C491.916 388.118 404.174 410.397 320.143 415.522C236.202 421.257 157.373 412.437 90.4974 398.035C-43.803 368.597 -130.123 320.783 -148.498 312.299C-222.783 275.809 -299.291 218.868 -299.115 218.782Z" fill="url(#paint33_linear_123_1044)"/>
<path d="M-299.115 191.115C-299.262 191.21 -223.024 247.653 -150.045 285.577C-131.959 294.466 -47.2031 343.751 85.2705 377.275C151.276 393.747 229.232 405.22 312.813 403.015C396.436 401.311 484.544 383.303 570.173 355.48C656.011 327.934 740.125 292.456 821.292 259.35C902.706 227.203 979.268 190.538 1054.17 174.56C1128.84 157.106 1199.03 165.401 1252.03 181.893C1305.38 198.464 1343.52 219.708 1366.37 232.351C1412.22 257.774 1470.97 298.227 1526.97 350.972C1583.65 402.794 1640.9 462.675 1698.45 512.49C1755.48 563.001 1820.71 593.302 1871.02 598.793C1921.23 605.18 1952.53 596.403 1952.44 597.306C1952.53 596.407 1921.27 605.295 1870.99 599.083C1820.6 593.757 1755.13 563.611 1697.86 513.192C1640.1 463.509 1582.68 403.773 1525.94 352.125C1469.87 299.558 1411.25 259.343 1365.48 233.959C1342.68 221.337 1304.63 200.155 1251.5 183.65C1198.7 167.237 1128.94 158.981 1054.55 176.359C979.955 192.258 903.422 228.89 821.989 261.05C740.819 294.153 656.676 329.648 570.732 357.23C484.997 385.086 396.693 403.144 312.858 404.851C229.084 407.065 150.974 395.563 84.8307 379.052C-47.9061 345.468 -132.781 296.101 -150.899 287.199C-224.042 249.176 -299.291 191.187 -299.115 191.115Z" fill="url(#paint34_linear_123_1044)"/>
<path d="M-299.115 163.439C-299.253 163.535 -224.212 221.105 -152.328 260.592C-134.486 269.905 -51.1233 320.782 79.822 358.443C145.086 377.027 222.332 391.16 305.685 392.491C389.07 394.198 477.657 380.462 564.156 356.429C650.836 332.663 735.897 300.184 817.333 268.505C899.039 237.752 975.139 200.843 1049.48 183.586C1123.54 165.041 1193.57 170.015 1247.12 184.213C1301.07 198.058 1340.07 217.427 1363.41 228.972C1410.27 252.102 1470.36 290.352 1527.34 341.717C1585 392.142 1642.57 451.383 1699.8 501.215C1756.6 551.643 1821.17 582.554 1871.23 588.928C1921.18 596.152 1952.54 588.035 1952.44 588.908C1952.53 588.025 1921.21 596.264 1871.19 589.211C1821.05 583.002 1756.25 552.236 1699.2 501.913C1641.77 452.213 1584.05 393.127 1526.32 342.89C1469.29 291.704 1409.37 253.707 1362.59 230.613C1339.31 219.101 1300.41 199.788 1246.68 185.996C1193.31 171.857 1123.7 166.903 1049.89 185.369C975.836 202.55 899.745 239.433 817.995 270.215C736.536 301.897 651.427 334.4 564.632 358.199C478.02 382.268 389.231 396.034 305.656 394.323C222.114 392.989 144.71 378.827 79.3339 360.199C-51.8555 322.476 -135.35 271.52 -153.217 262.193C-225.259 222.598 -299.288 163.515 -299.115 163.439Z" fill="url(#paint35_linear_123_1044)"/>
<path d="M-299.114 135.771C-299.243 135.86 -225.352 194.614 -154.533 235.689C-136.935 245.438 -54.8984 297.932 74.5217 339.736C139.031 360.436 215.561 377.212 298.632 382.086C381.709 387.188 470.671 377.785 557.986 357.592C645.442 337.627 731.454 308.136 813.221 277.809C895.251 248.315 971.001 211.225 1044.79 192.452C1118.29 172.437 1188.06 174.642 1242.17 186.18C1296.62 197.363 1336.49 214.636 1360.24 225.162C1408.05 246.008 1469.53 281.945 1527.45 332.06C1586.12 381.127 1644.01 439.864 1700.97 489.778C1757.58 540.2 1821.54 571.783 1871.39 579.047C1921.12 587.125 1952.56 579.644 1952.44 580.504C1952.55 579.64 1921.14 587.237 1871.34 579.331C1821.41 572.235 1757.22 540.797 1700.38 490.474C1643.22 440.691 1585.17 382.113 1526.47 333.247C1468.5 283.326 1407.21 247.646 1359.5 226.836C1335.8 216.336 1296.05 199.116 1241.82 187.973C1187.9 176.491 1118.5 174.286 1045.24 194.225C971.714 212.922 895.961 250.002 813.844 279.532C732.057 309.866 645.972 339.393 558.397 359.382C470.957 379.605 381.802 389.027 298.539 383.915C215.282 379.028 138.617 362.223 73.9727 341.483C-55.6852 299.607 -137.821 247.026 -155.451 237.268C-226.44 196.094 -299.278 135.837 -299.114 135.771Z" fill="url(#paint36_linear_123_1044)"/>
<path d="M-299.114 108.101C-299.239 108.186 -226.456 168.195 -156.671 210.892C-139.307 221.082 -58.5614 275.255 69.3402 321.201C133.14 343.932 208.9 363.498 291.656 371.807C374.367 380.386 463.614 375.287 551.652 358.96C639.811 342.834 726.786 316.32 808.932 287.271C891.363 259.01 966.789 221.491 1040.04 201.11C1113.03 179.562 1182.54 178.946 1237.13 187.775C1292.01 196.236 1332.67 211.426 1356.85 220.904C1405.51 239.479 1468.39 273.099 1527.28 322.005C1586.97 369.76 1645.2 428.128 1701.94 478.191C1758.39 528.685 1821.8 561.006 1871.47 569.163C1921.02 578.105 1952.57 571.259 1952.43 572.106C1952.56 571.253 1921.05 578.227 1871.43 569.44C1821.67 561.451 1758.03 529.275 1701.35 478.88C1644.41 428.955 1586.04 370.762 1526.33 323.211C1467.39 274.513 1404.75 241.154 1356.19 222.612C1332.07 213.153 1291.54 198.012 1236.86 189.585C1182.45 180.795 1113.29 181.401 1040.53 202.87C967.521 223.175 892.067 260.694 809.523 288.991C727.338 318.06 640.27 344.607 551.973 360.763C463.804 377.11 374.367 382.218 291.469 373.623C208.553 365.298 132.639 345.688 68.7301 322.928C-59.3929 276.899 -140.248 222.644 -157.631 212.444C-227.563 169.649 -299.268 108.167 -299.114 108.101Z" fill="url(#paint37_linear_123_1044)"/>
<path d="M-299.115 80.4297C-299.23 80.5088 -227.526 141.84 -158.73 186.204C-141.608 196.842 -62.1075 252.742 64.285 302.84C127.353 327.598 202.355 349.96 284.722 361.686C367.026 373.669 456.443 373.004 545.142 360.519C633.944 348.236 721.885 324.704 804.461 296.868C887.5 270.146 962.447 231.497 1035.23 209.584C1107.74 186.51 1176.98 183.033 1231.98 189.035C1287.22 194.746 1328.61 207.83 1353.19 216.258C1402.66 232.565 1466.9 263.865 1526.82 311.594C1587.54 358.107 1646.17 416.165 1702.74 466.448C1759.07 517.094 1821.97 550.21 1871.51 559.263C1920.91 569.085 1952.59 562.866 1952.44 563.709C1952.58 562.866 1920.93 569.206 1871.45 559.54C1821.83 550.655 1758.7 517.684 1702.14 467.14C1645.39 416.985 1586.62 359.115 1525.89 312.82C1465.95 265.302 1401.95 234.266 1352.61 217.985C1328.1 209.584 1286.84 196.546 1231.8 190.854C1176.98 184.885 1108.06 188.336 1035.77 211.337C963.195 233.175 888.206 271.837 805.039 298.609C722.389 326.468 634.342 350.032 545.39 362.339C456.553 374.839 366.955 375.502 284.475 363.495C201.931 351.746 126.813 329.345 63.6301 304.544C-62.9679 254.366 -142.571 198.391 -159.726 187.739C-228.663 143.273 -299.263 80.489 -299.115 80.4297Z" fill="url(#paint38_linear_123_1044)"/>
<path d="M-299.114 52.7617C-299.23 52.8375 -228.553 115.556 -160.74 161.62C-143.835 172.717 -65.5454 230.396 59.3253 284.658C121.696 311.449 195.902 336.582 277.836 351.726C359.687 367.061 449.149 370.878 538.426 362.233C627.803 353.802 716.733 333.27 799.81 306.601C883.384 281.045 958.126 241.648 1030.39 217.922C1102.4 193.115 1171.36 186.823 1226.67 189.961C1282.21 192.963 1324.26 203.928 1349.23 211.245C1399.44 225.301 1465.03 254.274 1526.03 300.84C1587.84 346.117 1646.91 403.977 1703.34 454.544C1759.6 505.424 1822.04 539.386 1871.49 549.349C1920.77 560.077 1952.6 554.484 1952.44 555.315C1952.6 554.484 1920.8 560.196 1871.43 549.633C1821.9 539.831 1759.23 506.007 1702.75 455.239C1646.12 404.804 1586.93 347.145 1525.13 302.086C1464.13 255.744 1398.8 227.038 1348.72 213.005C1323.83 205.714 1281.92 194.789 1226.58 191.793C1171.45 188.675 1102.77 194.931 1030.97 219.665C958.897 243.319 884.106 282.739 800.362 308.357C717.185 335.056 628.14 355.612 538.616 364.062C449.169 372.723 359.529 368.907 277.515 353.535C195.414 338.365 121.083 313.186 58.619 286.348C-66.4507 232.005 -144.846 174.247 -161.777 163.13C-229.712 116.963 -299.249 52.8145 -299.114 52.7617Z" fill="url(#paint39_linear_123_1044)"/>
<path d="M-299.114 25.0908C-299.229 25.1666 -229.538 89.3251 -162.701 137.153C-146.002 148.695 -68.9067 208.256 54.4517 266.666C116.11 295.504 189.5 323.403 270.962 341.935C352.321 360.635 441.701 368.887 531.514 364.066C621.372 359.508 711.294 341.978 794.943 316.432C879.169 292.083 953.693 251.667 1025.46 226.105C1096.99 199.482 1165.65 190.277 1221.19 190.61C1276.93 190.9 1319.59 199.739 1344.93 205.942C1395.83 217.747 1462.75 244.39 1524.9 289.77C1587.85 333.824 1647.41 391.572 1703.77 442.478C1760 493.655 1822.02 528.527 1871.41 539.413C1920.61 551.054 1952.61 546.087 1952.43 546.908C1952.61 546.08 1920.64 551.176 1871.34 539.69C1821.87 528.965 1759.62 494.235 1703.17 443.167C1646.63 392.403 1586.94 334.865 1524.02 291.038C1461.89 245.89 1395.25 219.507 1344.5 207.725C1319.25 201.542 1276.74 192.733 1221.18 192.439C1165.82 192.113 1097.42 201.282 1026.08 227.826C954.498 253.315 879.885 293.777 795.475 318.189C711.705 343.774 621.638 361.33 531.617 365.898C441.63 370.73 352.081 362.461 270.571 343.724C188.942 325.153 115.439 297.215 53.6876 268.331C-69.8667 209.831 -147.058 150.194 -163.773 138.636C-230.745 90.7159 -299.249 25.1468 -299.114 25.0908Z" fill="url(#paint40_linear_123_1044)"/>
<path d="M-299.114 -2.57812C-299.229 -2.49903 -230.498 63.1557 -164.624 112.803C-148.121 124.776 -72.2297 186.321 49.6517 248.858C170.461 311.563 342.795 369.295 524.36 365.989C614.633 365.307 705.55 350.816 789.85 326.361C874.809 303.228 949.168 261.616 1020.43 234.133C1091.55 205.809 1159.78 193.486 1215.51 191.084C1271.39 188.648 1314.59 195.322 1340.27 200.411C1391.81 209.968 1460.07 234.232 1523.43 278.411C1587.58 321.243 1647.69 378.961 1704.03 430.257C1760.27 481.802 1821.91 517.643 1871.27 529.462C1920.43 542.035 1952.63 537.698 1952.43 538.506C1952.63 537.695 1920.45 542.161 1871.2 529.739C1821.75 518.082 1759.87 482.376 1703.42 430.952C1646.9 379.792 1586.67 322.294 1522.57 279.703C1459.24 235.771 1391.28 211.755 1339.92 202.217C1314.33 197.145 1271.29 190.494 1215.59 192.926C1160.05 195.322 1092.04 207.595 1021.1 235.843C950.003 263.264 875.534 304.932 790.364 328.138C705.926 352.628 614.828 367.149 524.373 367.832C342.458 371.144 169.806 313.297 48.8234 250.506C-73.2347 187.88 -149.213 126.253 -165.735 114.263C-231.731 64.53 -299.249 -2.5188 -299.114 -2.57812Z" fill="url(#paint41_linear_123_1044)"/>
<path d="M-299.114 -30.252C-299.239 -30.163 -231.445 37.0737 -166.547 88.6028C-150.23 101.011 -75.5688 164.692 44.8389 231.358C164.19 298.015 334.653 363.116 516.953 368.08C607.572 371.234 699.511 359.787 784.524 336.401C870.33 314.537 944.506 271.441 1015.26 241.938C1085.98 211.828 1153.73 196.245 1209.57 191.236C1265.54 186.134 1309.2 190.705 1335.2 194.687C1387.31 202.046 1456.92 223.831 1521.56 266.794C1586.99 308.367 1647.73 366.132 1704.1 417.878C1760.4 469.852 1821.71 506.719 1871.08 519.487C1920.23 533.022 1952.64 529.305 1952.43 530.109C1952.64 529.305 1920.25 533.147 1871.01 519.763C1821.54 507.16 1760 470.419 1703.49 418.567C1646.94 366.972 1586.09 309.435 1520.73 268.116C1456.14 225.406 1386.85 203.862 1334.93 196.519C1309.02 192.554 1265.52 187.999 1209.74 193.088C1154.08 198.078 1086.54 213.607 1015.97 243.645C945.377 273.076 871.052 316.257 785.008 338.19C699.828 361.623 607.697 373.102 516.889 369.938C334.223 364.958 163.471 299.735 43.959 232.99C-76.6189 166.228 -151.351 102.475 -167.697 90.053C-232.707 38.4184 -299.262 -30.1827 -299.114 -30.252Z" fill="url(#paint42_linear_123_1044)"/>
<path d="M-299.114 -57.9199C-299.262 -57.8079 -232.396 11.0866 -168.387 64.4415C-152.311 77.3873 -78.7061 142.996 40.1863 213.818C158.17 284.282 326.433 357.22 509.382 370.08C600.268 377.024 693.24 368.781 779.052 346.522C865.812 326.058 939.761 281.088 1010.01 249.557C1080.33 217.542 1147.54 198.816 1203.45 191.223C1259.42 183.491 1303.5 185.969 1329.79 188.85C1382.43 193.991 1453.33 213.307 1519.35 254.969C1586.13 295.24 1647.56 353.113 1704.02 405.351C1760.42 457.81 1821.43 495.754 1870.85 509.484C1920.01 524.001 1952.66 520.91 1952.43 521.708C1952.65 520.91 1920.02 524.123 1870.77 509.767C1821.25 496.198 1760.01 458.383 1703.4 406.043C1646.77 353.957 1585.24 296.321 1518.55 256.314C1452.61 214.916 1382.03 195.827 1329.59 190.705C1303.41 187.835 1259.5 185.366 1203.7 193.071C1147.98 200.635 1080.95 219.309 1010.78 251.255C940.679 282.703 866.56 327.785 779.518 348.325C693.506 370.637 600.332 378.899 509.241 371.945C325.916 359.049 157.393 285.979 39.2617 215.43C-79.7975 144.505 -153.483 78.8308 -169.569 65.8653C-233.699 12.4213 -299.278 -57.8276 -299.114 -57.9199Z" fill="url(#paint43_linear_123_1044)"/>
</g>
</g>
<defs>
<linearGradient id="paint0_linear_123_1044" x1="-78.8926" y1="279.38" x2="1944.94" y2="334.607" gradientUnits="userSpaceOnUse">
<stop stop-color="#600F25"/>
<stop offset="0.3333" stop-color="#DC1F26"/>
<stop offset="0.6848" stop-color="#F78C1E"/>
<stop offset="1" stop-color="#FDBA12"/>
</linearGradient>
<linearGradient id="paint1_linear_123_1044" x1="-78.954" y1="280.808" x2="1992.97" y2="337.347" gradientUnits="userSpaceOnUse">
<stop stop-color="#600F25"/>
<stop offset="0.3333" stop-color="#DC1F26"/>
<stop offset="0.6848" stop-color="#F78C1E"/>
<stop offset="1" stop-color="#FDBA12"/>
</linearGradient>
<linearGradient id="paint2_linear_123_1044" x1="-79.0067" y1="282.232" x2="2040.75" y2="340.077" gradientUnits="userSpaceOnUse">
<stop stop-color="#600F25"/>
<stop offset="0.3333" stop-color="#DC1F26"/>
<stop offset="0.6848" stop-color="#F78C1E"/>
<stop offset="1" stop-color="#FDBA12"/>
</linearGradient>
<linearGradient id="paint3_linear_123_1044" x1="-79.0627" y1="283.729" x2="2088.64" y2="342.882" gradientUnits="userSpaceOnUse">
<stop stop-color="#600F25"/>
<stop offset="0.3333" stop-color="#DC1F26"/>
<stop offset="0.6848" stop-color="#F78C1E"/>
<stop offset="1" stop-color="#FDBA12"/>
</linearGradient>
<linearGradient id="paint4_linear_123_1044" x1="-79.1196" y1="285.09" x2="2136.61" y2="345.553" gradientUnits="userSpaceOnUse">
<stop stop-color="#600F25"/>
<stop offset="0.3333" stop-color="#DC1F26"/>
<stop offset="0.6848" stop-color="#F78C1E"/>
<stop offset="1" stop-color="#FDBA12"/>
</linearGradient>
<linearGradient id="paint5_linear_123_1044" x1="-79.1774" y1="286.571" x2="2184.5" y2="348.343" gradientUnits="userSpaceOnUse">
<stop stop-color="#600F25"/>
<stop offset="0.3333" stop-color="#DC1F26"/>
<stop offset="0.6848" stop-color="#F78C1E"/>
<stop offset="1" stop-color="#FDBA12"/>
</linearGradient>
<linearGradient id="paint6_linear_123_1044" x1="-79.2342" y1="287.942" x2="2232.44" y2="351.023" gradientUnits="userSpaceOnUse">
<stop stop-color="#600F25"/>
<stop offset="0.3333" stop-color="#DC1F26"/>
<stop offset="0.6848" stop-color="#F78C1E"/>
<stop offset="1" stop-color="#FDBA12"/>
</linearGradient>
<linearGradient id="paint7_linear_123_1044" x1="-79.2889" y1="289.378" x2="2280.41" y2="353.77" gradientUnits="userSpaceOnUse">
<stop stop-color="#600F25"/>
<stop offset="0.3333" stop-color="#DC1F26"/>
<stop offset="0.6848" stop-color="#F78C1E"/>
<stop offset="1" stop-color="#FDBA12"/>
</linearGradient>
<linearGradient id="paint8_linear_123_1044" x1="-79.3447" y1="290.794" x2="2328.29" y2="356.494" gradientUnits="userSpaceOnUse">
<stop stop-color="#600F25"/>
<stop offset="0.3333" stop-color="#DC1F26"/>
<stop offset="0.6848" stop-color="#F78C1E"/>
<stop offset="1" stop-color="#FDBA12"/>
</linearGradient>
<linearGradient id="paint9_linear_123_1044" x1="-79.4017" y1="292.22" x2="2376.21" y2="359.23" gradientUnits="userSpaceOnUse">
<stop stop-color="#600F25"/>
<stop offset="0.3333" stop-color="#DC1F26"/>
<stop offset="0.6848" stop-color="#F78C1E"/>
<stop offset="1" stop-color="#FDBA12"/>
</linearGradient>
<linearGradient id="paint10_linear_123_1044" x1="-79.4549" y1="293.649" x2="2424.14" y2="361.968" gradientUnits="userSpaceOnUse">
<stop stop-color="#600F25"/>
<stop offset="0.3333" stop-color="#DC1F26"/>
<stop offset="0.6848" stop-color="#F78C1E"/>
<stop offset="1" stop-color="#FDBA12"/>
</linearGradient>
<linearGradient id="paint11_linear_123_1044" x1="-79.5099" y1="295.068" x2="2472.16" y2="364.699" gradientUnits="userSpaceOnUse">
<stop stop-color="#600F25"/>
<stop offset="0.3333" stop-color="#DC1F26"/>
<stop offset="0.6848" stop-color="#F78C1E"/>
<stop offset="1" stop-color="#FDBA12"/>
</linearGradient>
<linearGradient id="paint12_linear_123_1044" x1="-79.5697" y1="296.563" x2="2519.95" y2="367.5" gradientUnits="userSpaceOnUse">
<stop stop-color="#600F25"/>
<stop offset="0.3333" stop-color="#DC1F26"/>
<stop offset="0.6848" stop-color="#F78C1E"/>
<stop offset="1" stop-color="#FDBA12"/>
</linearGradient>
<linearGradient id="paint13_linear_123_1044" x1="-79.6263" y1="297.949" x2="2568.04" y2="370.2" gradientUnits="userSpaceOnUse">
<stop stop-color="#600F25"/>
<stop offset="0.3333" stop-color="#DC1F26"/>
<stop offset="0.6848" stop-color="#F78C1E"/>
<stop offset="1" stop-color="#FDBA12"/>
</linearGradient>
<linearGradient id="paint14_linear_123_1044" x1="-79.6871" y1="299.434" x2="2615.78" y2="372.989" gradientUnits="userSpaceOnUse">
<stop stop-color="#600F25"/>
<stop offset="0.3333" stop-color="#DC1F26"/>
<stop offset="0.6848" stop-color="#F78C1E"/>
<stop offset="1" stop-color="#FDBA12"/>
</linearGradient>
<linearGradient id="paint15_linear_123_1044" x1="-79.7395" y1="300.794" x2="2663.73" y2="375.658" gradientUnits="userSpaceOnUse">
<stop stop-color="#600F25"/>
<stop offset="0.3333" stop-color="#DC1F26"/>
<stop offset="0.6848" stop-color="#F78C1E"/>
<stop offset="1" stop-color="#FDBA12"/>
</linearGradient>
<linearGradient id="paint16_linear_123_1044" x1="-79.7958" y1="302.243" x2="2711.63" y2="378.416" gradientUnits="userSpaceOnUse">
<stop stop-color="#600F25"/>
<stop offset="0.3333" stop-color="#DC1F26"/>
<stop offset="0.6848" stop-color="#F78C1E"/>
<stop offset="1" stop-color="#FDBA12"/>
</linearGradient>
<linearGradient id="paint17_linear_123_1044" x1="-79.8498" y1="303.691" x2="2759.55" y2="381.173" gradientUnits="userSpaceOnUse">
<stop stop-color="#600F25"/>
<stop offset="0.3333" stop-color="#DC1F26"/>
<stop offset="0.6848" stop-color="#F78C1E"/>
<stop offset="1" stop-color="#FDBA12"/>
</linearGradient>
<linearGradient id="paint18_linear_123_1044" x1="-79.9079" y1="305.141" x2="2807.45" y2="383.932" gradientUnits="userSpaceOnUse">
<stop stop-color="#600F25"/>
<stop offset="0.3333" stop-color="#DC1F26"/>
<stop offset="0.6848" stop-color="#F78C1E"/>
<stop offset="1" stop-color="#FDBA12"/>
</linearGradient>
<linearGradient id="paint19_linear_123_1044" x1="-79.9596" y1="306.587" x2="2855.37" y2="386.687" gradientUnits="userSpaceOnUse">
<stop stop-color="#600F25"/>
<stop offset="0.3333" stop-color="#DC1F26"/>
<stop offset="0.6848" stop-color="#F78C1E"/>
<stop offset="1" stop-color="#FDBA12"/>
</linearGradient>
<linearGradient id="paint20_linear_123_1044" x1="-80.0204" y1="308.032" x2="2903.28" y2="389.441" gradientUnits="userSpaceOnUse">
<stop stop-color="#600F25"/>
<stop offset="0.3333" stop-color="#DC1F26"/>
<stop offset="0.6848" stop-color="#F78C1E"/>
<stop offset="1" stop-color="#FDBA12"/>
</linearGradient>
<linearGradient id="paint21_linear_123_1044" x1="-80.0747" y1="309.478" x2="2951.19" y2="392.196" gradientUnits="userSpaceOnUse">
<stop stop-color="#600F25"/>
<stop offset="0.3333" stop-color="#DC1F26"/>
<stop offset="0.6848" stop-color="#F78C1E"/>
<stop offset="1" stop-color="#FDBA12"/>
</linearGradient>
<linearGradient id="paint22_linear_123_1044" x1="1952.44" y1="387.064" x2="-299.114" y2="387.064" gradientUnits="userSpaceOnUse">
<stop stop-color="#600F25"/>
<stop offset="0.3333" stop-color="#DC1F26"/>
<stop offset="0.6848" stop-color="#F78C1E"/>
<stop offset="1" stop-color="#FDBA12"/>
</linearGradient>
<linearGradient id="paint23_linear_123_1044" x1="1952.44" y1="387.021" x2="-299.115" y2="387.021" gradientUnits="userSpaceOnUse">
<stop stop-color="#600F25"/>
<stop offset="0.3333" stop-color="#DC1F26"/>
<stop offset="0.6848" stop-color="#F78C1E"/>
<stop offset="1" stop-color="#FDBA12"/>
</linearGradient>
<linearGradient id="paint24_linear_123_1044" x1="1952.44" y1="387.014" x2="-299.114" y2="387.014" gradientUnits="userSpaceOnUse">
<stop stop-color="#600F25"/>
<stop offset="0.3333" stop-color="#DC1F26"/>
<stop offset="0.6848" stop-color="#F78C1E"/>
<stop offset="1" stop-color="#FDBA12"/>
</linearGradient>
<linearGradient id="paint25_linear_123_1044" x1="1952.44" y1="386.969" x2="-299.114" y2="386.969" gradientUnits="userSpaceOnUse">
<stop stop-color="#600F25"/>
<stop offset="0.3333" stop-color="#DC1F26"/>
<stop offset="0.6848" stop-color="#F78C1E"/>
<stop offset="1" stop-color="#FDBA12"/>
</linearGradient>
<linearGradient id="paint26_linear_123_1044" x1="1952.44" y1="386.966" x2="-299.113" y2="386.966" gradientUnits="userSpaceOnUse">
<stop stop-color="#600F25"/>
<stop offset="0.3333" stop-color="#DC1F26"/>
<stop offset="0.6848" stop-color="#F78C1E"/>
<stop offset="1" stop-color="#FDBA12"/>
</linearGradient>
<linearGradient id="paint27_linear_123_1044" x1="1952.44" y1="386.744" x2="-299.114" y2="386.744" gradientUnits="userSpaceOnUse">
<stop stop-color="#600F25"/>
<stop offset="0.3333" stop-color="#DC1F26"/>
<stop offset="0.6848" stop-color="#F78C1E"/>
<stop offset="1" stop-color="#FDBA12"/>
</linearGradient>
<linearGradient id="paint28_linear_123_1044" x1="1952.44" y1="386.544" x2="-299.114" y2="386.544" gradientUnits="userSpaceOnUse">
<stop stop-color="#600F25"/>
<stop offset="0.3333" stop-color="#DC1F26"/>
<stop offset="0.6848" stop-color="#F78C1E"/>
<stop offset="1" stop-color="#FDBA12"/>
</linearGradient>
<linearGradient id="paint29_linear_123_1044" x1="1952.44" y1="386.324" x2="-299.114" y2="386.324" gradientUnits="userSpaceOnUse">
<stop stop-color="#600F25"/>
<stop offset="0.3333" stop-color="#DC1F26"/>
<stop offset="0.6848" stop-color="#F78C1E"/>
<stop offset="1" stop-color="#FDBA12"/>
</linearGradient>
<linearGradient id="paint30_linear_123_1044" x1="1952.44" y1="385.957" x2="-299.113" y2="385.957" gradientUnits="userSpaceOnUse">
<stop stop-color="#600F25"/>
<stop offset="0.3333" stop-color="#DC1F26"/>
<stop offset="0.6848" stop-color="#F78C1E"/>
<stop offset="1" stop-color="#FDBA12"/>
</linearGradient>
<linearGradient id="paint31_linear_123_1044" x1="1952.44" y1="385.475" x2="-299.114" y2="385.475" gradientUnits="userSpaceOnUse">
<stop stop-color="#600F25"/>
<stop offset="0.3333" stop-color="#DC1F26"/>
<stop offset="0.6848" stop-color="#F78C1E"/>
<stop offset="1" stop-color="#FDBA12"/>
</linearGradient>
<linearGradient id="paint32_linear_123_1044" x1="1952.44" y1="384.864" x2="-299.114" y2="384.864" gradientUnits="userSpaceOnUse">
<stop stop-color="#600F25"/>
<stop offset="0.3333" stop-color="#DC1F26"/>
<stop offset="0.6848" stop-color="#F78C1E"/>
<stop offset="1" stop-color="#FDBA12"/>
</linearGradient>
<linearGradient id="paint33_linear_123_1044" x1="1952.44" y1="384.076" x2="-299.114" y2="384.076" gradientUnits="userSpaceOnUse">
<stop stop-color="#600F25"/>
<stop offset="0.3333" stop-color="#DC1F26"/>
<stop offset="0.6848" stop-color="#F78C1E"/>
<stop offset="1" stop-color="#FDBA12"/>
</linearGradient>
<linearGradient id="paint34_linear_123_1044" x1="1952.44" y1="383.081" x2="-299.114" y2="383.081" gradientUnits="userSpaceOnUse">
<stop stop-color="#600F25"/>
<stop offset="0.3333" stop-color="#DC1F26"/>
<stop offset="0.6848" stop-color="#F78C1E"/>
<stop offset="1" stop-color="#FDBA12"/>
</linearGradient>
<linearGradient id="paint35_linear_123_1044" x1="1952.44" y1="377.765" x2="-299.114" y2="377.765" gradientUnits="userSpaceOnUse">
<stop stop-color="#600F25"/>
<stop offset="0.3333" stop-color="#DC1F26"/>
<stop offset="0.6848" stop-color="#F78C1E"/>
<stop offset="1" stop-color="#FDBA12"/>
</linearGradient>
<linearGradient id="paint36_linear_123_1044" x1="1952.44" y1="359.369" x2="-299.113" y2="359.369" gradientUnits="userSpaceOnUse">
<stop stop-color="#600F25"/>
<stop offset="0.3333" stop-color="#DC1F26"/>
<stop offset="0.6848" stop-color="#F78C1E"/>
<stop offset="1" stop-color="#FDBA12"/>
</linearGradient>
<linearGradient id="paint37_linear_123_1044" x1="1952.44" y1="341.015" x2="-299.112" y2="341.015" gradientUnits="userSpaceOnUse">
<stop stop-color="#600F25"/>
<stop offset="0.3333" stop-color="#DC1F26"/>
<stop offset="0.6848" stop-color="#F78C1E"/>
<stop offset="1" stop-color="#FDBA12"/>
</linearGradient>
<linearGradient id="paint38_linear_123_1044" x1="1952.44" y1="322.703" x2="-299.114" y2="322.703" gradientUnits="userSpaceOnUse">
<stop stop-color="#600F25"/>
<stop offset="0.3333" stop-color="#DC1F26"/>
<stop offset="0.6848" stop-color="#F78C1E"/>
<stop offset="1" stop-color="#FDBA12"/>
</linearGradient>
<linearGradient id="paint39_linear_123_1044" x1="1952.44" y1="304.439" x2="-299.113" y2="304.439" gradientUnits="userSpaceOnUse">
<stop stop-color="#600F25"/>
<stop offset="0.3333" stop-color="#DC1F26"/>
<stop offset="0.6848" stop-color="#F78C1E"/>
<stop offset="1" stop-color="#FDBA12"/>
</linearGradient>
<linearGradient id="paint40_linear_123_1044" x1="1952.43" y1="286.215" x2="-299.113" y2="286.215" gradientUnits="userSpaceOnUse">
<stop stop-color="#600F25"/>
<stop offset="0.3333" stop-color="#DC1F26"/>
<stop offset="0.6848" stop-color="#F78C1E"/>
<stop offset="1" stop-color="#FDBA12"/>
</linearGradient>
<linearGradient id="paint41_linear_123_1044" x1="1952.43" y1="268.036" x2="-299.113" y2="268.036" gradientUnits="userSpaceOnUse">
<stop stop-color="#600F25"/>
<stop offset="0.3333" stop-color="#DC1F26"/>
<stop offset="0.6848" stop-color="#F78C1E"/>
<stop offset="1" stop-color="#FDBA12"/>
</linearGradient>
<linearGradient id="paint42_linear_123_1044" x1="1952.43" y1="249.926" x2="-299.113" y2="249.926" gradientUnits="userSpaceOnUse">
<stop stop-color="#600F25"/>
<stop offset="0.3333" stop-color="#DC1F26"/>
<stop offset="0.6848" stop-color="#F78C1E"/>
<stop offset="1" stop-color="#FDBA12"/>
</linearGradient>
<linearGradient id="paint43_linear_123_1044" x1="1952.43" y1="231.892" x2="-299.113" y2="231.892" gradientUnits="userSpaceOnUse">
<stop stop-color="#600F25"/>
<stop offset="0.3333" stop-color="#DC1F26"/>
<stop offset="0.6848" stop-color="#F78C1E"/>
<stop offset="1" stop-color="#FDBA12"/>
</linearGradient>
</defs>
</svg>
