<svg width="394" height="469" viewBox="0 0 394 469" fill="none" xmlns="http://www.w3.org/2000/svg">
<g opacity="0.2">
<mask id="mask0_275_4407" style="mask-type:luminance" maskUnits="userSpaceOnUse" x="-764" y="-223" width="1919" height="960">
<path d="M-763.003 -223H1154V736.367H-763.003V-223Z" fill="white"/>
</mask>
<g mask="url(#mask0_275_4407)">
<path d="M-797.07 -225.4C-797.179 -225.514 -772.659 -117.469 -735.96 -29.5456C-726.292 -8.76076 -687.846 100.015 -592.694 219.328C-545.211 278.369 -482.688 337.947 -407.267 384.533C-332.042 431.306 -244.559 464.642 -153.869 480.567C27.0184 511.347 221.662 486.454 357.715 397.182C426.894 357.075 486.85 316.896 537.965 289.045C588.827 260.568 630.26 243.802 655.742 235.392C706.322 217.291 778.456 205.03 855.896 215.173C933.167 224.158 1014.49 257.601 1077.48 309.986C1141.18 361.631 1184.56 429.357 1208.76 481.721C1233.2 534.41 1241.57 570.824 1242.02 570.549C1241.57 570.824 1233.32 534.372 1209.02 481.565C1184.95 429.07 1141.73 361.082 1078.01 309.111C1015.03 256.375 933.545 222.561 856.06 213.36C778.428 202.98 705.963 215.156 655.22 233.304C629.658 241.752 588.096 258.569 537.164 287.1C485.972 314.99 425.984 355.173 356.894 395.247C221.13 484.337 27.0345 509.116 -153.6 478.429C-244.097 462.534 -331.366 429.29 -406.405 382.627C-481.62 336.172 -543.984 276.755 -591.345 217.853C-686.259 98.8532 -724.641 -9.69905 -734.28 -30.4459C-770.886 -118.137 -797.163 -225.476 -797.07 -225.4Z" fill="url(#paint0_linear_275_4407)"/>
<path d="M-845.073 -223.942C-845.108 -224.09 -820.383 -114.667 -782.838 -25.9492C-772.974 -4.991 -733.64 104.838 -636.623 224.644C-588.239 283.927 -524.471 343.576 -447.4 388.945C-370.598 434.564 -281.371 466.041 -189.165 477.959C-96.9275 490.41 -2.59985 484.367 86.3904 469.308C176.092 457.318 258.867 424.569 330.466 388.548C402.273 352.633 465.185 317.078 518.297 292.721C571.214 267.833 613.907 253.802 639.989 246.672C691.934 231.567 764.844 221.973 843.195 230.417C921.353 238.283 1004.65 267.228 1070.45 316.727C1136.96 365.329 1182.73 432.472 1207.79 485.06C1233.12 537.956 1241.65 574.822 1242.13 574.518C1241.65 574.822 1233.24 537.918 1208.04 484.895C1183.13 432.168 1137.49 364.742 1070.95 315.797C1005.14 265.961 921.676 236.664 843.332 228.571C764.812 219.902 691.652 229.378 639.546 244.529C613.394 251.676 570.595 265.749 517.595 290.68C464.409 315.057 401.459 350.643 329.728 386.528C258.152 422.519 175.707 455.15 86.121 467.136C-2.77942 482.177 -96.9211 488.191 -188.963 475.775C-280.951 463.894 -369.951 432.48 -446.551 386.972C-523.414 341.734 -587.011 282.253 -635.267 223.127C-732.04 103.633 -771.301 -5.97147 -781.139 -26.8916C-818.588 -115.344 -845.099 -224.052 -845.073 -223.942Z" fill="url(#paint1_linear_275_4407)"/>
<path d="M-892.823 -222.497C-892.868 -222.653 -867.953 -111.781 -829.613 -22.1202C-819.592 -0.959167 -779.367 110.129 -680.288 230.519C-630.904 290.054 -565.793 349.865 -486.991 393.987C-408.567 438.503 -317.502 468.29 -223.781 476.066C-130.008 484.544 -34.9491 472.698 54.7111 454.757C145.07 439.969 229.441 410.795 303.592 378.899C377.887 347.249 443.617 316.596 498.652 296.068C553.55 275.038 597.388 263.733 624.072 258.011C677.335 246.118 751.062 238.743 830.445 245.611C909.597 252.356 994.785 276.873 1063.36 323.362C1132.65 368.845 1180.88 435.401 1206.79 488.288C1233.04 541.455 1241.72 578.816 1242.23 578.482C1241.72 578.816 1233.16 541.43 1207.05 488.115C1181.27 435.096 1133.16 368.228 1063.83 322.411C995.218 275.571 909.876 250.704 830.56 243.739C751.027 236.66 677.136 243.908 623.719 255.839C596.971 261.565 553.03 272.883 498.059 293.964C442.95 314.512 377.182 345.195 302.941 376.807C228.803 408.691 144.701 437.789 54.3905 452.564C-35.2216 470.504 -130.094 482.312 -223.649 473.86C-317.134 466.096 -407.951 436.394 -486.17 391.992C-564.755 348.005 -629.67 288.356 -678.935 228.997C-777.754 108.903 -817.899 -1.94814 -827.92 -23.0711C-866.135 -112.466 -892.858 -222.607 -892.823 -222.497Z" fill="url(#paint2_linear_275_4407)"/>
<path d="M-940.677 -220.865C-940.735 -221.021 -915.48 -108.754 -876.239 -18.092C-866.02 3.31833 -824.676 115.611 -723.635 236.935C-673.126 296.787 -606.371 356.323 -525.93 399.562C-445.826 443.131 -352.781 470.86 -257.62 474.752C-162.318 479.156 -66.6755 461.291 23.6866 440.375C114.69 422.088 200.753 396.384 277.28 368.579C353.934 341.218 422.35 316.072 479.159 299.446C535.883 282.422 580.808 273.978 608.073 269.756C715.223 253.722 911.197 241.88 1056.22 329.938C1128.23 372.172 1179 438.153 1205.78 491.4C1232.95 544.926 1241.79 582.823 1242.33 582.468C1241.78 582.823 1233.07 544.892 1206.04 491.226C1179.39 437.836 1128.73 371.529 1056.65 328.95C985.309 285.216 898.163 264.702 817.78 258.895C737.108 253.105 662.438 259.03 607.806 267.529C580.487 271.755 535.476 280.225 478.684 297.269C421.802 313.917 353.338 339.093 276.712 366.428C200.183 394.237 114.328 419.882 23.3243 438.165C-67.041 459.098 -162.487 476.899 -257.556 472.521C-352.457 468.633 -445.243 440.976 -525.122 397.534C-605.342 354.409 -671.902 295.05 -722.257 235.371C-823.05 114.36 -864.314 2.31248 -874.511 -19.0556C-913.64 -109.447 -940.725 -220.962 -940.677 -220.865Z" fill="url(#paint3_linear_275_4407)"/>
<path d="M-988.616 -219.585C-988.693 -219.75 -962.99 -105.602 -922.823 -13.8153C-912.378 7.83598 -870.034 121.65 -766.628 243.73C-715.129 304.166 -646.565 363.402 -564.378 405.707C-482.453 448.097 -387.391 473.941 -290.784 473.763C-193.975 474.177 -97.894 450.062 -6.78491 426.074C84.9557 404.477 172.676 381.169 251.463 357.73C408.869 309.699 535.901 285.195 591.776 281.429C647.398 276.032 723.018 271.979 804.75 276.112C886.194 280.605 974.905 296.508 1048.9 336.578C1123.64 375.388 1177.08 440.718 1204.75 494.404C1232.87 548.332 1241.86 586.825 1242.43 586.44C1241.86 586.825 1232.99 548.302 1205.01 494.214C1177.48 440.384 1124.13 374.712 1049.31 335.551C975.242 295.126 886.377 278.91 804.83 274.177C722.973 269.845 647.331 273.746 591.59 279.159C535.638 282.925 408.391 307.488 250.988 355.52C172.163 378.972 84.603 402.229 -7.20813 423.855C-98.3492 447.852 -194.245 471.908 -290.781 471.489C-387.109 471.671 -481.911 445.891 -563.586 403.624C-645.54 361.441 -713.898 302.383 -765.253 242.12C-868.387 120.357 -910.654 6.79205 -921.063 -14.8212C-961.121 -106.303 -988.681 -219.695 -988.616 -219.585Z" fill="url(#paint4_linear_275_4407)"/>
<path d="M-1036.47 -217.983C-1036.56 -218.144 -1010.48 -102.293 -969.312 -9.29759C-958.628 12.5988 -915.229 128.074 -809.287 250.983C-756.627 311.943 -686.294 371.119 -602.193 412.346C-518.312 453.312 -421.221 477.605 -323.146 473.087C-224.847 469.359 -128.493 438.934 -36.5857 411.822C55.9308 386.701 145.437 365.494 226.342 346.383C388.278 307.923 518.692 295.143 575.382 293.19C632.065 290.908 708.835 288.732 791.866 291.242C874.599 294.534 964.993 306.262 1041.6 343.04C1118.98 378.409 1175.16 443.076 1203.69 497.303C1232.78 551.691 1241.91 590.839 1242.53 590.413C1241.91 590.839 1232.9 551.666 1203.95 497.105C1175.56 442.721 1119.44 377.695 1041.98 341.975C965.281 304.838 874.727 292.802 791.917 289.285C708.774 286.572 632.068 288.592 575.283 290.883C518.532 292.84 387.951 305.637 225.951 344.109C144.979 363.245 55.5621 384.428 -37.0793 409.574C-129.038 436.698 -225.219 467.06 -323.233 470.771C-420.994 475.272 -517.802 451.051 -601.442 410.221C-685.287 369.103 -755.393 310.117 -807.908 249.338C-913.565 126.751 -956.881 11.5379 -967.543 -10.3246C-1008.59 -103.024 -1036.55 -218.093 -1036.47 -217.983Z" fill="url(#paint5_linear_275_4407)"/>
<path d="M-1084.39 -216.678C-1084.48 -216.868 -1057.94 -98.8656 -1015.71 -4.58133C-1004.78 17.6024 -960.239 134.835 -851.63 258.67C-797.703 320.124 -725.553 379.297 -639.429 419.391C-553.516 458.89 -454.284 481.552 -354.776 472.613C-255.034 464.528 -158.539 427.814 -65.8077 397.529C27.4908 368.718 119.017 349.793 201.894 334.908C368.067 306.22 501.248 305.248 558.819 305.041C616.499 305.818 694.523 305.476 778.926 306.334C863.04 308.367 955.079 316.033 1034.24 349.438C1114.16 381.296 1173.21 445.214 1202.57 500.118C1232.72 554.983 1241.96 594.854 1242.63 594.385C1241.96 594.854 1232.85 554.95 1202.84 499.906C1173.62 444.855 1114.62 380.556 1034.58 348.343C955.313 314.567 863.126 306.613 778.951 304.356C694.446 303.278 616.567 303.477 558.803 302.687C501.197 302.906 367.904 303.878 201.592 332.588C118.619 347.498 27.1222 366.406 -66.343 395.268C-159.177 425.596 -255.486 462.22 -354.939 470.272C-454.095 479.189 -553.035 456.599 -638.691 417.206C-724.553 377.242 -796.463 318.26 -850.226 256.992C-958.562 133.487 -1003.01 16.5205 -1013.91 -5.62102C-1056.02 -99.6094 -1084.47 -216.804 -1084.39 -216.678Z" fill="url(#paint6_linear_275_4407)"/>
<path d="M-1132.33 -215.189C-1132.43 -215.375 -1105.38 -95.3149 -1062.02 0.355576C-1050.83 22.8352 -1005.07 141.94 -893.648 266.755C-838.375 328.747 -764.298 387.906 -676.049 426.767C-588.049 464.782 -486.56 485.715 -385.667 472.246C-284.537 459.58 -187.991 416.827 -94.5094 382.932C-0.265137 350.871 93.2899 333.396 178.068 322.982C348.197 304.255 483.548 315.408 542.068 316.888C600.688 320.793 680.064 322.23 765.922 321.389C851.498 322.132 945.146 325.784 1026.79 355.795C1109.22 384.085 1171.21 447.176 1201.43 502.836C1232.65 558.23 1242 598.874 1242.73 598.35C1242 598.874 1232.79 558.192 1201.7 502.629C1171.63 446.808 1109.66 383.304 1027.1 354.658C945.339 324.284 851.546 320.341 765.929 319.377C679.984 319.994 600.822 318.405 542.148 314.5C483.619 313.025 348.207 301.855 177.859 320.594C92.9469 331.037 -0.64978 348.509 -95.0959 380.645C-188.715 414.591 -285.091 457.255 -385.898 469.879C-486.409 483.298 -587.6 462.437 -675.337 424.531C-763.301 385.784 -837.135 326.832 -892.234 265.018C-1003.36 140.537 -1049.02 21.7153 -1060.19 -0.73053C-1103.44 -96.0671 -1132.41 -215.32 -1132.33 -215.189Z" fill="url(#paint7_linear_275_4407)"/>
<path d="M-1180.17 -213.769C-1180.27 -213.976 -1152.82 -91.638 -1108.24 5.48206C-1096.78 28.2871 -1049.72 149.345 -935.344 275.221C-878.657 337.774 -802.525 396.891 -712.079 434.45C-621.932 470.94 -518.087 489.996 -415.844 471.899C-313.384 454.58 -217.001 405.525 -122.629 368.334C-27.4805 332.745 68.3314 316.845 154.888 310.928C328.679 302.349 465.613 325.573 525.156 328.755C554.95 331.38 589.94 335.065 628.549 336.502C667.149 337.727 709.169 336.802 752.873 336.434C839.981 335.821 935.219 335.542 1019.29 362.13C1104.14 386.786 1169.16 448.989 1200.25 505.46C1232.58 561.437 1242.04 602.91 1242.84 602.327C1242.04 602.893 1232.71 561.404 1200.53 505.24C1169.58 448.604 1104.56 385.975 1019.55 360.947C935.354 334.012 839.984 333.991 752.85 334.376C709.15 334.634 667.114 335.462 628.597 334.165C590.104 332.673 555.097 328.945 525.316 326.321C465.79 323.151 328.855 299.915 154.783 308.503C68.0461 314.428 -27.8748 330.348 -123.279 366.027C-217.819 403.281 -314.044 452.234 -416.165 469.478C-517.978 487.528 -621.531 468.527 -711.39 432.147C-801.538 394.715 -877.41 335.796 -933.923 273.45C-1047.99 147.908 -1094.95 27.1333 -1106.39 4.37054C-1150.82 -92.4072 -1180.27 -213.905 -1180.17 -213.769Z" fill="url(#paint8_linear_275_4407)"/>
<path d="M-1228.07 -212.311C-1228.17 -212.531 -1200.21 -87.8429 -1154.37 10.7944C-1142.63 33.9503 -1094.2 157.045 -976.752 284.024C-918.562 347.148 -840.26 406.197 -747.548 442.358C-655.179 477.279 -548.891 494.332 -445.379 471.46C-341.645 449.365 -245.567 393.996 -150.246 353.576C-54.1488 314.512 44.0579 299.682 132.33 298.841C220.839 298.076 299.735 309.521 363.887 318.912C428.062 328.679 477.814 336.603 508.054 340.66C538.287 344.701 573.828 349.827 613.143 351.83C652.451 353.669 695.26 352.549 739.752 351.467C828.466 349.468 925.272 345.326 1011.69 368.444C1098.91 389.449 1167.04 450.65 1199.05 508.009C1232.49 564.611 1242.07 606.933 1242.94 606.304C1242.07 606.933 1232.62 564.578 1199.32 507.789C1167.46 450.265 1099.32 388.582 1011.93 367.24C925.355 343.758 828.418 347.6 739.704 349.367C695.222 350.339 652.413 351.349 613.217 349.455C574.049 347.405 538.511 342.233 508.294 338.209C478.074 334.139 428.344 326.228 364.147 316.452C299.972 307.066 220.996 295.596 132.295 296.365C43.8334 297.214 -54.5784 312.065 -150.954 351.23C-246.484 391.748 -342.399 447.023 -445.773 469.017C-548.839 491.809 -654.823 474.824 -746.89 440.008C-839.295 403.966 -917.318 345.136 -975.322 282.211C-1092.45 155.579 -1140.79 32.7669 -1152.5 9.66177C-1198.19 -88.6374 -1228.16 -212.472 -1228.07 -212.311Z" fill="url(#paint9_linear_275_4407)"/>
<path d="M-1275.96 -210.862C-1276.07 -211.099 -1247.61 -83.955 -1200.43 16.284C-1188.4 39.7991 -1138.52 165.02 -1017.85 293.157C-958.093 356.855 -877.531 415.791 -782.462 450.442C-687.833 483.758 -579.01 498.655 -474.299 470.859C-369.37 443.87 -273.747 382.2 -177.413 338.615C-80.2993 296.132 20.5071 282.777 110.344 286.855C200.488 290.79 280.146 308.502 344.956 322.162C409.778 336.383 460.133 347.025 490.805 352.51C521.458 357.971 557.542 364.522 597.59 367.138C637.63 369.589 681.269 368.266 726.578 366.457C816.959 363.021 915.326 355.08 1004.04 374.741C1093.56 392.052 1164.85 452.171 1197.8 510.472C1232.4 567.73 1242.11 610.969 1243.04 610.276C1242.1 610.956 1232.54 567.696 1198.08 510.235C1165.28 451.744 1093.94 391.156 1004.24 373.507C915.365 353.487 816.867 361.145 726.504 364.323C681.217 366.013 637.594 367.235 597.693 364.724C557.814 362.058 521.74 355.469 491.129 350.017C460.492 344.54 410.176 333.911 345.344 319.685C280.512 306.017 200.767 288.271 110.414 284.324C20.3501 280.258 -80.7448 293.63 -178.176 336.252C-274.76 379.956 -370.235 441.52 -474.789 468.399C-579.016 496.086 -687.519 481.243 -781.828 448.029C-876.565 413.492 -956.843 354.771 -1016.41 291.288C-1136.74 163.507 -1186.52 38.5777 -1198.52 15.1176C-1245.54 -84.7538 -1276.05 -211.035 -1275.96 -210.862Z" fill="url(#paint10_linear_275_4407)"/>
<path d="M-1323.95 -209.421C-1324.1 -209.653 -1294.92 -79.9736 -1246.41 21.9349C-1234.1 45.8303 -1182.67 173.257 -1058.66 302.586C-997.267 366.859 -914.32 425.63 -816.832 458.675C-719.898 490.33 -608.461 502.903 -502.641 470.04C-396.616 438.034 -301.56 370.096 -204.123 323.434C-105.926 277.587 -2.34033 265.872 88.9354 275.026C180.596 283.791 260.774 307.619 326.131 325.488C391.464 344.054 442.377 357.422 473.449 364.311C504.497 371.199 541.131 379.208 581.94 382.433C622.735 385.67 667.253 383.946 713.402 381.444C805.512 376.512 905.427 364.818 996.382 381.042C1041.62 389.094 1084.05 405.272 1118.37 429.45C1152.89 453.337 1178.65 484.24 1196.61 512.826C1232.24 570.853 1242.33 614.913 1243.14 614.253C1242.32 614.917 1232.39 570.815 1196.89 512.59C1178.99 483.906 1153.28 452.839 1118.73 428.761C1084.39 404.376 1041.87 387.99 996.552 379.77C905.424 363.182 805.374 374.597 713.306 379.276C667.189 381.659 622.707 383.27 582.074 379.977C541.468 376.702 504.862 368.659 473.869 361.792C442.835 354.903 391.983 341.569 326.641 322.986C261.277 305.121 181.01 281.251 89.0989 272.461C-2.43018 263.281 -106.388 275.026 -204.947 321.042C-302.663 367.852 -397.574 435.676 -503.215 467.55C-608.512 500.27 -719.618 487.76 -816.225 456.199C-913.368 423.28 -996.008 364.716 -1057.21 300.667C-1180.86 171.681 -1232.17 44.5835 -1244.47 20.743C-1292.82 -80.802 -1324.08 -209.577 -1323.95 -209.421Z" fill="url(#paint11_linear_275_4407)"/>
<path d="M-1371.71 -207.802C-1371.89 -208.052 -1342.2 -75.9169 -1292.31 27.7413C-1279.69 52.034 -1226.66 181.722 -1099.22 312.28C-1036.11 377.12 -950.674 435.671 -850.727 466.992C-751.434 496.948 -637.337 507.04 -530.497 468.961C-423.484 431.816 -329.102 357.687 -230.476 308.037C-131.131 258.813 -24.59 249.169 67.981 263.416C161.033 277.109 241.534 306.883 307.331 328.843C373.058 351.657 424.477 367.721 455.938 376.03C487.366 384.343 524.53 393.852 566.124 397.715C607.702 401.641 653.127 399.659 700.141 396.404C794.03 389.98 895.487 374.559 988.625 387.339C1034.95 393.704 1078.71 408.399 1114.27 431.931C1150.04 455.146 1176.77 486.217 1195.31 515.129C1232.12 573.917 1242.38 618.931 1243.24 618.221C1242.37 618.927 1232.27 573.879 1195.59 514.884C1177.11 485.866 1150.41 454.626 1114.62 431.212C1079.02 407.469 1035.17 392.584 988.757 386.037C895.436 372.906 793.841 388.028 700.02 394.198C653.043 397.326 607.667 399.185 566.284 395.208C524.924 391.286 487.802 381.769 456.438 373.473C425.019 365.181 373.683 349.129 307.953 326.324C242.153 304.369 161.571 274.539 68.2341 260.812C-24.606 246.506 -131.615 256.181 -231.354 305.615C-330.301 355.439 -424.542 429.458 -531.157 466.447C-637.439 504.352 -751.203 494.323 -850.15 464.456C-949.741 433.241 -1034.84 374.918 -1097.74 310.285C-1224.83 180.103 -1277.74 50.7322 -1290.32 26.4945C-1340.05 -76.7664 -1371.87 -207.967 -1371.71 -207.802Z" fill="url(#paint12_linear_275_4407)"/>
<path d="M-1419.77 -206.437C-1419.99 -206.678 -1389.45 -71.7666 -1338.13 33.6877C-1325.21 58.3946 -1270.5 190.415 -1139.49 322.216C-1074.59 387.631 -986.584 445.907 -884.12 475.381C-833.019 490.258 -778.704 498.169 -723.342 498.051C-668.037 499.036 -611.377 489.29 -557.87 467.567C-449.97 425.173 -356.36 344.945 -256.461 292.379C-155.86 239.863 -46.2729 232.289 47.4617 251.861C141.789 270.571 222.416 306.161 288.559 332.161C354.577 359.15 406.445 377.931 438.284 387.656C470.072 397.402 507.755 408.437 550.157 412.976C592.533 417.621 638.909 415.385 686.812 411.378C782.528 403.42 885.53 384.33 980.804 393.683C1028.19 398.353 1073.26 411.509 1110.07 434.378C1147.1 456.87 1174.84 488.111 1193.99 517.391C1231.99 576.96 1242.43 622.963 1243.34 622.19C1242.42 622.959 1232.15 576.922 1194.27 517.15C1175.19 487.76 1147.48 456.338 1110.41 433.63C1073.55 410.558 1028.38 397.199 980.9 392.352C885.437 382.631 782.294 401.434 686.665 409.126C638.813 413.005 592.501 415.127 550.342 410.423C508.213 405.85 470.578 394.803 438.871 385.082C407.096 375.37 355.314 356.614 289.306 329.638C223.163 303.646 142.463 268.002 47.8335 249.216C-46.1992 229.58 -156.36 237.183 -257.387 289.932C-357.639 342.71 -451.127 422.823 -558.614 465.044C-665.771 508.287 -782.256 500.912 -883.573 472.795C-985.671 443.418 -1073.33 385.374 -1138.01 320.192C-1268.65 188.763 -1323.23 57.0887 -1336.12 32.4283C-1387.27 -72.6415 -1419.97 -206.602 -1419.77 -206.437Z" fill="url(#paint13_linear_275_4407)"/>
<path d="M-1467.47 -204.843C-1467.72 -205.101 -1436.68 -67.5441 -1383.89 39.7572C-1370.66 64.9036 -1314.21 199.308 -1179.52 332.373C-1112.68 398.18 -1022.17 456.359 -917.098 483.805C-864.737 497.895 -809.166 504.289 -752.723 502.772C-696.29 502.227 -638.776 490.178 -584.87 465.856C-476.264 417.993 -383.407 331.958 -282.168 276.522C-180.23 220.655 -67.4026 216.01 27.3193 240.869C122.772 264.684 203.415 305.789 269.849 335.661C336.095 366.631 388.38 388.088 420.572 399.22C452.725 410.217 490.85 423.191 534.095 428.424C577.311 433.406 624.656 431.196 673.472 426.336C771.051 416.788 875.588 394.06 972.952 400.023C1021.37 403.011 1067.73 414.62 1105.8 436.779C1144.09 458.54 1172.86 489.95 1192.62 519.597C1231.86 579.953 1242.48 626.983 1243.45 626.167C1242.47 626.983 1232.02 579.919 1192.91 519.335C1173.21 489.578 1144.47 457.982 1106.13 436.014C1068 413.648 1021.53 401.828 973.006 398.658C875.451 392.356 770.765 414.777 673.293 424.028C624.541 428.77 577.279 430.858 534.307 425.824C491.366 420.575 453.305 407.575 421.235 396.621C389.114 385.501 336.935 364.099 270.699 333.129C204.264 303.266 123.57 262.111 27.7776 238.194C-67.2424 213.246 -180.743 217.895 -283.149 274.037C-384.779 329.723 -477.53 415.66 -585.716 463.307C-639.437 487.511 -696.502 499.488 -752.8 500.038C-809.057 501.547 -864.435 495.173 -916.598 481.129C-1021.28 453.79 -1111.44 395.839 -1178.04 330.281C-1312.34 197.588 -1368.66 63.5428 -1381.85 38.4555C-1434.45 -68.4315 -1467.7 -205.021 -1467.47 -204.843Z" fill="url(#paint14_linear_275_4407)"/>
<path d="M-1515.39 -203.558C-1515.68 -203.808 -1483.9 -63.2498 -1429.59 45.9533C-1416.03 71.5392 -1357.79 208.391 -1219.33 342.723C-1150.44 408.814 -1057.41 466.993 -949.671 492.22C-843.098 516.297 -720.672 518.714 -611.528 463.794C-502.361 410.365 -410.271 318.671 -307.609 260.442C-256.17 231.618 -200.933 215.753 -147.048 211.535C-93.0095 207.748 -40.6254 216.074 7.49536 230.224C103.955 259.212 184.492 305.587 251.167 339.228C317.583 374.07 370.239 398.159 402.774 410.716C435.26 423.095 473.857 437.692 517.955 443.651C562.007 449.407 610.369 446.931 660.108 441.284C759.584 430.144 865.667 403.818 965.069 406.396C1014.51 407.724 1062.12 417.765 1101.46 439.188C1141.02 460.168 1170.86 491.738 1191.25 521.761C1231.74 582.95 1242.54 631.032 1243.55 630.149C1242.53 631.024 1231.9 582.907 1191.54 521.487C1171.21 491.357 1141.4 459.58 1101.78 438.389C1062.37 416.755 1014.64 406.51 965.095 405.019C865.481 402.086 759.257 428.098 659.9 438.939C610.231 444.463 561.975 446.812 518.195 441.005C474.447 435.038 435.914 420.424 403.518 408.074C371.07 395.556 318.519 371.525 252.122 336.688C185.453 303.068 104.856 256.629 8.05957 227.515C-40.2278 213.335 -92.8749 204.95 -147.215 208.758C-201.407 213.001 -256.955 228.964 -308.634 257.914C-411.739 316.444 -503.711 408.045 -612.464 461.237C-721.019 515.887 -843.005 513.495 -949.203 489.506C-1056.54 464.36 -1149.2 406.418 -1217.83 340.576C-1355.89 206.633 -1413.99 70.1445 -1427.52 44.622C-1481.62 -64.1627 -1515.66 -203.719 -1515.39 -203.558Z" fill="url(#paint15_linear_275_4407)"/>
<path d="M-1563.26 -202.05C-1563.59 -202.308 -1531.08 -58.8765 -1475.23 52.2579C-1461.32 78.2623 -1401.31 217.717 -1258.85 353.157C-1187.97 419.645 -1092.27 477.693 -981.86 500.616C-872.821 522.356 -747.514 522.42 -637.917 461.291C-528.273 402.368 -437.004 305.024 -332.812 244.102C-280.604 214.154 -224.129 197.756 -169.052 195.068C-113.834 192.127 -60.6611 203.572 -12.0596 219.915C85.2397 254.19 165.642 305.539 232.506 342.862C299.047 381.448 352.05 408.132 384.905 422.092C417.709 435.857 456.761 452.111 501.717 458.844C546.616 465.378 596.029 462.664 646.708 456.206C748.12 443.439 855.739 413.529 957.148 412.79C1007.59 412.435 1056.43 420.909 1097.04 441.554C1137.88 461.73 1168.79 493.448 1189.83 523.852C1231.6 585.886 1242.58 635.054 1243.65 634.112C1242.57 635.042 1231.77 585.852 1190.12 523.569C1169.15 493.047 1138.25 461.134 1097.34 440.73C1056.66 419.869 1007.69 411.188 957.141 411.366C855.517 411.771 747.748 441.351 646.48 453.831C595.878 460.145 546.597 462.728 501.996 456.143C457.427 449.406 418.446 433.16 385.745 419.429C352.976 405.512 300.092 378.878 233.571 340.313C166.719 302.999 86.272 251.595 -11.38 217.189C-60.1578 200.787 -113.61 189.262 -169.164 192.224C-224.572 194.929 -281.399 211.441 -333.873 241.541C-438.558 302.788 -529.712 400.043 -638.953 458.696C-747.924 519.52 -872.744 519.478 -981.414 497.823C-1091.42 474.98 -1186.71 417.172 -1257.34 350.934C-1399.38 215.895 -1459.24 76.8169 -1473.11 50.8717C-1528.77 -59.819 -1563.57 -202.219 -1563.26 -202.05Z" fill="url(#paint16_linear_275_4407)"/>
<path d="M-1611.15 -200.546C-1611.5 -200.808 -1578.28 -54.4343 -1520.9 58.7287C-1506.62 85.1303 -1444.92 227.451 -1298.17 363.731C-1225.39 430.98 -1126.78 488.28 -1013.74 509.061C-957.502 520.311 -898.155 521.887 -838.484 515.928C-778.598 511.077 -718.732 490.985 -664.123 458.404C-553.994 394.173 -463.687 291.056 -357.899 227.442C-304.841 196.396 -247.014 179.803 -190.763 178.73C-134.349 177.052 -80.4166 191.18 -31.4464 210.08C66.6063 249.571 146.848 305.611 213.86 346.577C280.503 388.772 333.817 418.056 366.99 433.397C400.101 448.515 439.592 466.468 485.411 474.004C531.189 481.404 581.679 478.268 633.31 470.978C736.677 456.456 845.85 423.018 949.241 419.049C1000.67 417.059 1050.71 423.981 1092.59 443.857C1134.69 463.248 1166.71 495.114 1188.39 525.924C1231.46 588.815 1242.63 639.095 1243.75 638.102C1242.61 639.091 1231.63 588.781 1188.68 525.624C1167.06 494.708 1135.06 462.618 1092.88 443.012C1050.92 422.916 1000.74 415.782 949.193 417.595C845.584 421.222 736.257 454.347 633.047 468.556C581.509 475.698 531.16 478.682 485.732 471.252C440.323 463.734 400.906 445.789 367.91 430.705C334.833 415.41 281.645 386.207 215.027 344.016C148.034 303.076 67.7347 246.984 -30.6578 207.329C-79.8236 188.357 -134.042 174.153 -190.818 175.826C-247.443 176.908 -305.668 193.628 -359.014 224.843C-465.331 288.829 -555.539 391.866 -665.254 455.814C-774.498 522.885 -902.2 525.252 -1013.35 506.212C-1125.96 485.512 -1224.15 428.436 -1296.66 361.453C-1442.97 225.587 -1504.5 83.6553 -1518.73 57.3214C-1575.91 -55.3979 -1611.48 -200.715 -1611.15 -200.546Z" fill="url(#paint17_linear_275_4407)"/>
<path d="M-1659.02 -199.037C-1659.43 -199.303 -1625.43 -49.9418 -1566.4 65.2119C-1551.75 92.0488 -1488.18 237.07 -1337.28 374.432C-1262.44 442.277 -1160.87 498.609 -1045.23 517.34C-931.186 534.089 -800.166 528.502 -690.079 455.095C-579.643 385.433 -490.255 276.738 -382.704 210.706C-328.829 178.514 -269.543 161.757 -212.125 162.509C-154.561 162.535 -99.8844 179.026 -50.6514 200.787C48.0009 245.493 128.034 306.119 195.178 350.558C261.898 396.257 315.516 428.051 349.003 444.741C382.426 461.185 422.356 480.686 469.04 489.138C515.69 497.379 567.289 494.057 619.881 485.934C725.237 469.744 835.948 432.764 941.278 425.516C993.675 421.877 1044.9 427.198 1088.04 446.229C1131.42 464.744 1164.57 496.737 1186.92 527.931C1231.33 591.714 1242.68 643.123 1243.86 642.066C1242.67 643.11 1231.5 591.68 1187.23 527.631C1164.94 496.306 1131.79 464.097 1088.32 445.354C1045.08 426.094 993.717 420.575 941.204 424.045C835.644 430.951 724.772 467.584 619.589 483.458C567.096 491.429 515.67 494.598 469.393 486.344C423.176 477.913 383.297 458.417 350.003 442.032C316.625 425.385 263.135 393.687 196.437 348.005C129.323 303.587 49.2479 242.898 -49.7601 198.027C-99.1824 176.186 -154.154 159.585 -212.116 159.555C-269.943 158.803 -329.669 175.691 -383.848 208.069C-491.967 274.498 -581.249 383.139 -691.297 452.505C-800.736 525.522 -931.192 531.092 -1044.88 514.411C-1160.06 495.752 -1261.2 439.665 -1335.73 372.095C-1486.19 235.147 -1549.59 90.5188 -1564.2 63.7622C-1623.02 -50.9308 -1659.41 -199.21 -1659.02 -199.037Z" fill="url(#paint18_linear_275_4407)"/>
<path d="M-1706.91 -197.532C-1707.36 -197.798 -1672.57 -45.394 -1611.86 71.8052C-1596.84 99.069 -1531.34 246.845 -1376.18 385.273C-1299.24 453.705 -1194.65 508.939 -1076.4 525.565C-959.831 539.867 -825.984 530.915 -715.884 451.33C-605.381 375.996 -516.717 262.106 -407.323 193.725C-352.521 160.54 -291.77 143.796 -233.189 146.222C-174.471 148.166 -119.195 167.387 -69.6667 191.595C29.4951 241.469 109.317 306.478 176.576 354.316C243.37 403.425 297.216 437.768 330.959 455.937C364.677 473.746 405.027 494.84 452.58 504.243C500.104 513.376 552.844 509.864 606.418 500.904C713.786 483.015 826.034 442.539 933.277 432.045C986.627 426.796 1039 430.448 1083.43 448.629C1128.07 466.232 1162.39 498.343 1185.42 529.926C1231.18 594.597 1242.72 647.168 1243.95 646.048C1242.7 647.147 1231.36 594.559 1185.72 529.618C1162.76 497.904 1128.44 465.573 1083.69 447.729C1039.17 429.311 986.639 425.457 933.168 430.554C825.688 440.676 713.274 480.825 606.101 498.381C552.633 507.189 500.095 510.536 452.968 501.395C405.93 492.021 365.625 470.948 332.049 453.219C298.415 435.105 244.697 400.843 177.941 351.763C110.695 303.947 30.8512 238.887 -68.6665 188.814C-118.387 164.505 -173.967 145.165 -233.128 143.217C-292.136 140.753 -353.39 157.658 -408.509 191.037C-518.525 259.867 -607.089 373.714 -717.192 448.718C-826.654 527.889 -959.879 536.802 -1076.1 522.568C-1193.88 506.001 -1298.01 451.017 -1374.63 382.864C-1529.31 244.872 -1594.64 97.4968 -1609.62 70.3048C-1670.1 -46.4083 -1707.34 -197.701 -1706.91 -197.532Z" fill="url(#paint19_linear_275_4407)"/>
<path d="M-1754.78 -196.023C-1755.29 -196.294 -1719.69 -40.7957 -1657.27 78.4574C-1641.85 106.157 -1574.4 256.756 -1414.9 396.194C-1335.8 465.167 -1228.17 519.339 -1107.29 533.603C-988.2 545.581 -851.519 532.99 -741.551 447.243C-630.887 366.601 -543.137 247.23 -431.803 176.626C-376.021 142.541 -313.744 125.855 -254.025 130.31C-194.184 134.202 -138.348 156.086 -88.592 182.847C11.0026 237.767 90.6256 306.985 158.009 358.128C224.855 410.559 278.941 447.37 312.938 466.942C346.924 486.108 387.65 508.947 436.075 519.314C484.484 529.368 538.388 525.683 592.952 515.861C702.353 496.243 816.139 452.289 925.277 438.592C979.569 431.745 1033.07 433.723 1078.76 451.026C1124.67 467.724 1160.18 499.911 1183.9 531.896C1231.04 597.462 1242.76 651.212 1244.05 650.012C1242.75 651.195 1231.22 597.42 1184.21 531.583C1160.55 499.451 1125.04 467.022 1079.01 450.104C1033.22 432.561 979.549 430.389 925.136 437.066C815.758 450.404 701.798 494.028 592.606 513.296C538.167 522.945 484.487 526.469 436.504 516.411C388.627 506.09 347.947 483.289 314.12 464.199C280.23 444.695 226.275 407.973 159.465 355.562C92.113 304.45 12.4739 235.198 -87.4894 180.053C-137.428 153.195 -193.582 131.159 -253.887 127.246C-314.071 122.753 -376.884 139.582 -433.022 173.891C-545.029 245.007 -632.669 364.34 -742.955 444.64C-852.295 529.947 -988.274 542.449 -1107.02 530.556C-1227.42 516.335 -1334.58 462.407 -1413.35 393.722C-1572.33 254.719 -1639.63 104.546 -1654.99 76.9275C-1717.18 -41.8354 -1755.26 -196.184 -1754.78 -196.023Z" fill="url(#paint20_linear_275_4407)"/>
<path d="M-1802.66 -194.519C-1803.21 -194.785 -1766.8 -36.1517 -1702.64 85.1976C-1686.82 113.328 -1617.39 266.789 -1453.45 407.198C-1372.13 476.586 -1261.42 529.837 -1137.9 541.379C-1016.28 551.412 -876.844 534.562 -767.125 442.775C-656.349 356.923 -569.529 232.053 -456.096 159.449C-399.377 124.249 -335.433 108.155 -274.627 114.579C-213.681 120.555 -157.421 145.283 -107.444 174.448C-7.49353 234.394 71.9821 307.589 139.452 361.99C206.362 417.633 260.657 456.921 294.935 477.841C329.172 498.364 370.215 522.978 419.521 534.422C468.835 545.28 523.918 541.505 579.482 530.838C690.932 509.424 806.27 462.051 917.27 445.163C972.488 436.673 1027.1 437.15 1074.03 453.506C1121.16 469.291 1157.99 501.335 1182.42 533.767C1230.83 600.34 1242.79 655.243 1244.16 653.98C1242.78 655.231 1231.01 600.306 1182.73 533.438C1158.36 500.87 1121.51 468.568 1074.27 452.555C1027.22 435.963 972.437 435.286 917.09 443.604C805.843 460.141 690.323 507.159 579.107 528.214C523.662 538.721 468.854 542.317 419.993 531.468C371.279 520.095 330.272 495.519 296.195 475.073C262.035 454.22 207.878 415.038 141.004 359.424C73.5562 305.057 -5.9292 231.807 -106.242 171.646C-156.395 142.371 -212.972 117.478 -274.413 111.439C-335.722 104.968 -400.256 121.218 -457.349 156.664C-571.526 229.817 -658.221 354.653 -768.629 440.159C-877.719 531.481 -1016.4 548.2 -1137.68 538.243C-1260.72 526.739 -1370.91 473.741 -1451.88 404.658C-1615.29 264.692 -1684.55 111.654 -1700.31 83.6043C-1764.24 -37.2168 -1803.19 -194.68 -1802.66 -194.519Z" fill="url(#paint21_linear_275_4407)"/>
</g>
</g>
<g opacity="0.2">
<mask id="mask1_275_4407" style="mask-type:luminance" maskUnits="userSpaceOnUse" x="-760" y="-222" width="1918" height="960">
<path d="M1157.01 -221.502H-759.996V737.865H1157.01V-221.502Z" fill="white"/>
</mask>
<g mask="url(#mask1_275_4407)">
<path d="M1455.66 449.362C1455.91 449.573 1361.39 509.02 1272.56 534.86C1251.13 540.307 1145.5 580.077 994.817 558.316C920.083 547.323 835.26 518.813 752.374 465.608C668.654 413.971 590.854 333.431 518.62 244.877C445.906 156.839 375.374 62.8256 297.075 -11.7599C219.272 -85.7791 132.177 -140.395 47.3894 -149.241C-38.3245 -158.704 -110.815 -108.33 -156.003 -55.8104C-202.546 -3.05791 -229.791 48.7817 -246.528 79.1095C-315.544 199.047 -384.322 446.615 -509.937 595.976C-540.763 632.707 -574.833 661.737 -609.022 678.82C-643.15 696.253 -676.774 701.126 -704.523 699.262C-760.462 694.698 -792.327 672.366 -792.385 673.723C-792.317 672.362 -760.539 694.854 -704.539 699.672C-676.758 701.663 -643.054 696.929 -608.788 679.589C-574.468 662.616 -540.237 633.632 -509.258 596.94C-383.014 447.697 -313.672 200.066 -244.865 80.5973C-228.179 50.354 -200.985 -1.35474 -154.682 -53.8283C-109.687 -106.082 -37.8373 -156.007 47.2419 -146.625C131.427 -137.864 218.282 -83.4841 295.879 -9.65512C373.992 64.7571 444.482 158.691 517.242 246.788C589.505 335.392 667.541 416.181 751.479 467.958C834.593 521.302 919.644 549.897 994.587 560.911C1145.67 582.735 1251.56 542.86 1273.04 537.4C1362.18 511.438 1455.95 449.531 1455.66 449.362Z" fill="url(#paint22_linear_275_4407)"/>
<path d="M1455.66 413.878C1455.9 414.077 1363.2 474.398 1275.89 502.186C1254.77 508.107 1151.16 549.981 1001.96 533.774C927.951 525.511 843.571 500.635 760.508 451.264C676.74 403.317 597.908 327.129 524.549 242.481C450.671 158.424 378.927 68.2988 300.224 -2.8846C222.018 -73.5101 136.025 -126.664 52.3435 -135.962C-32.1779 -146.177 -104.418 -98.9607 -150.116 -48.4482C-197.008 2.25461 -225.084 52.336 -242.228 81.7299C-312.734 197.991 -388.45 437.448 -513.036 583.394C-543.762 619.25 -577.32 648.006 -611.076 664.983C-644.755 682.171 -677.841 687.834 -705.281 686.262C-760.573 682.826 -792.294 661.458 -792.387 662.946C-792.291 661.454 -760.641 682.983 -705.294 686.659C-677.821 688.358 -644.652 682.831 -610.848 665.735C-576.967 648.868 -543.249 620.172 -512.369 584.354C-387.186 438.555 -310.923 199.094 -240.622 83.2556C-223.529 53.9337 -195.508 3.9789 -148.852 -46.4576C-103.351 -96.7124 -31.7515 -143.51 52.1801 -133.384C135.285 -124.171 221.072 -71.2278 299.073 -0.762955C377.597 70.2513 449.299 160.305 523.219 244.425C596.629 329.12 675.685 405.548 759.677 453.618C842.952 503.12 927.57 528.064 1001.79 536.347C1151.38 552.602 1255.22 510.618 1276.39 504.697C1364.01 476.782 1455.95 414.043 1455.66 413.878Z" fill="url(#paint23_linear_275_4407)"/>
<path d="M1455.66 378.39C1455.89 378.589 1364.96 439.802 1279.12 469.471C1258.32 475.853 1156.69 519.683 1009 508.894C935.708 503.311 851.802 482.057 768.563 436.7C684.622 392.84 605.114 320.384 530.45 240.03C455.398 160.077 382.28 74.144 303.224 6.29942C224.498 -60.6154 139.906 -113.169 57.1737 -122.716C-26.1776 -133.675 -98.168 -89.5443 -144.407 -41.1998C-191.713 7.33064 -220.629 55.6541 -238.215 84.0589C-310.475 196.398 -392.547 427.893 -516.076 570.737C-546.485 606.166 -579.875 634.034 -613.051 651.282C-646.304 668.394 -678.886 674.514 -706.032 673.436C-760.699 671.09 -792.32 650.724 -792.391 652.182C-792.314 650.724 -760.766 671.247 -706.039 673.833C-678.858 675.033 -646.198 669.041 -612.823 652.034C-579.523 634.888 -545.975 607.079 -515.422 571.696C-391.319 429.017 -308.718 197.577 -236.661 85.6268C-219.119 57.2895 -190.264 9.10146 -143.198 -39.1881C-97.1486 -87.3002 -25.7961 -131.038 57.007 -120.168C139.182 -110.71 223.598 -58.3501 302.131 8.42946C381.02 76.1261 454.094 161.992 529.193 242.008C603.902 322.4 683.634 395.088 767.797 439.054C851.273 484.542 935.391 505.847 1008.87 511.446C1156.96 522.261 1258.81 478.329 1279.67 471.931C1365.78 442.144 1455.93 378.555 1455.66 378.39Z" fill="url(#paint24_linear_275_4407)"/>
<path d="M1455.66 342.91C1455.88 343.101 1366.66 405.24 1282.28 436.793C1261.77 443.644 1162.09 489.461 1015.92 484.128C943.357 481.233 859.948 463.613 776.545 422.259C692.517 382.363 612.077 314.214 536.22 238.006C460.021 162.152 385.655 80.3016 306.333 15.5803C227.226 -48.0253 143.715 -99.4762 61.9822 -109.628C-20.2087 -121.242 -92.0644 -80.5932 -138.887 -34.421C-186.639 11.9329 -216.388 58.4602 -234.445 85.8423C-308.683 194.027 -396.596 417.745 -518.974 557.935C-549.152 592.853 -582.248 620.138 -614.923 637.58C-647.769 654.641 -679.871 661.213 -706.738 660.634C-760.811 659.362 -792.336 639.985 -792.391 641.4C-792.333 639.985 -760.875 659.51 -706.744 661.027C-679.845 661.729 -647.66 655.288 -614.696 638.319C-581.905 620.979 -548.655 593.749 -518.336 558.886C-395.403 418.878 -306.997 195.29 -232.948 87.4567C-214.936 60.138 -185.251 13.7291 -137.736 -32.3881C-91.1123 -78.3279 -19.8752 -118.638 61.7963 -107.113C142.99 -97.0503 226.354 -45.7686 305.282 17.7144C384.456 82.309 458.777 164.096 535.028 240.005C610.913 316.264 691.591 384.62 775.843 424.621C859.464 466.081 943.097 483.743 1015.85 486.655C1162.4 491.988 1262.29 446.074 1282.85 439.202C1367.5 407.53 1455.92 343.067 1455.66 342.91Z" fill="url(#paint25_linear_275_4407)"/>
<path d="M1455.66 307.426C1455.87 307.612 1368.31 370.702 1285.37 404.132C1265.15 411.465 1167.37 459.213 1022.72 459.34C950.899 459.129 868.003 445.148 784.459 407.864C700.374 371.983 618.978 308.288 541.955 236.31C464.608 164.641 389.036 86.8943 309.49 25.1567C230.092 -35.4525 147.532 -85.551 66.7838 -96.5731C-14.3364 -108.812 -86.003 -71.8408 -133.402 -27.7438C-181.792 16.0744 -212.285 60.966 -230.865 87.2239C-267.981 140.412 -312.21 218.412 -359.718 303.01C-407.512 387.125 -460.954 477.082 -521.753 545.019C-581.206 615.104 -653.899 650.064 -707.411 647.866C-760.911 647.655 -792.35 629.249 -792.385 630.631C-792.346 629.249 -760.975 647.811 -707.411 648.264C-653.844 650.702 -580.854 615.962 -521.128 545.97C-460.063 478.151 -406.364 388.262 -358.41 304.269C-310.745 219.773 -266.461 141.954 -229.432 88.8975C-210.891 62.6903 -180.465 17.9128 -132.309 -25.6813C-85.1182 -69.5628 -14.0479 -106.23 66.585 -94.088C146.824 -83.1631 229.252 -33.2084 308.49 27.2951C387.902 88.9186 463.422 166.623 540.836 238.339C617.898 310.376 699.521 374.248 783.831 410.226C867.593 447.612 950.7 461.622 1022.72 461.834C1167.72 461.715 1265.7 413.852 1285.96 406.507C1369.18 372.951 1455.91 307.578 1455.66 307.426Z" fill="url(#paint26_linear_275_4407)"/>
<path d="M1455.66 271.943C1455.86 272.125 1369.92 336.195 1288.37 371.506C1268.44 379.316 1172.5 428.996 1029.39 434.549C958.299 437.013 875.973 426.676 792.311 393.516C708.184 361.701 625.833 302.6 547.636 234.916C469.141 167.528 392.419 93.8639 312.678 34.9833C233.029 -22.807 151.364 -71.6121 71.5771 -83.7669C-8.57819 -96.9952 -79.9883 -63.0538 -128.048 -21.4207C-176.961 20.0054 -208.421 62.9064 -227.518 88.0613C-265.55 139.115 -312.017 213.675 -360.791 295.771C-409.938 377.308 -464.053 464.966 -524.401 531.957C-583.498 600.972 -655.081 636.046 -708.039 635.12C-761.003 635.961 -792.365 618.511 -792.381 619.851C-792.358 618.515 -761.061 636.122 -708.036 635.513C-655.02 636.676 -583.148 601.817 -523.775 532.895C-463.178 466.039 -408.816 378.471 -359.516 297.064C-310.593 215.091 -264.088 140.721 -226.13 89.7644C-207.081 64.6687 -175.688 21.8777 -127.009 -19.3413C-79.1548 -60.7758 -8.33453 -94.4425 71.3687 -81.3114C150.674 -69.2538 232.221 -20.5796 311.729 37.1303C391.345 95.918 468.039 169.536 546.591 236.974C624.829 304.709 707.402 363.979 791.75 395.883C875.64 429.127 958.177 439.49 1029.44 437.017C1172.89 431.451 1269.03 381.661 1289 373.839C1370.8 338.405 1455.91 272.087 1455.66 271.943Z" fill="url(#paint27_linear_275_4407)"/>
<path d="M1455.66 236.463C1455.85 236.632 1371.47 301.734 1291.27 338.913C1271.63 347.213 1177.48 398.808 1035.92 409.754C965.576 414.893 883.814 408.19 800.066 379.21C715.932 351.498 632.638 297.161 553.288 233.851C473.687 170.795 395.795 101.29 315.864 45.1815C236.045 -9.95883 155.246 -57.9779 76.3247 -70.9019C-2.85284 -85.3854 -74.0769 -54.4575 -122.829 -15.4742C-172.325 23.4414 -204.706 64.3477 -224.328 88.3573C-263.431 137.074 -311.943 208.282 -361.929 287.944C-412.259 367.093 -467.118 452.439 -526.904 518.758C-585.754 586.632 -656.132 622.188 -708.632 622.399C-761.087 624.288 -792.384 607.768 -792.381 609.082C-792.378 607.768 -761.135 624.441 -708.616 622.78C-656.065 622.813 -585.405 587.473 -526.292 519.684C-466.262 453.504 -411.163 368.26 -360.698 289.266C-310.577 209.74 -262.037 138.735 -223.01 90.1111C-203.433 66.148 -171.12 25.3517 -121.858 -13.3737C-73.3076 -52.1753 -2.66046 -82.8623 76.0939 -68.4803C154.563 -55.6535 235.257 -7.75275 314.96 47.3242C394.782 103.356 472.629 172.815 552.303 235.939C631.696 299.287 715.224 353.793 799.582 381.573C883.542 410.624 965.515 417.348 1036.03 412.196C1177.91 401.217 1272.26 349.516 1291.93 341.199C1372.37 303.898 1455.89 236.598 1455.66 236.463Z" fill="url(#paint28_linear_275_4407)"/>
<path d="M1455.66 200.979C1455.84 201.143 1372.98 267.306 1294.09 306.365C1274.73 315.16 1182.32 368.657 1042.31 384.987C972.702 392.784 891.553 389.716 807.75 364.967C723.623 341.418 639.416 291.966 558.937 233.128C399.133 115.527 238.159 -25.9603 81.0634 -58.228C2.84113 -73.5821 -68.2741 -46.3056 -117.667 -9.79892C-167.878 26.2767 -201.07 65.3783 -221.317 88.0396C-261.482 134.377 -312.039 202.099 -363.089 279.528C-414.547 356.358 -469.98 439.701 -529.298 505.36C-587.825 572.343 -657.132 608.351 -709.176 609.707C-761.154 612.636 -792.406 597.028 -792.387 598.317C-792.4 597.028 -761.211 612.788 -709.16 610.079C-657.058 608.959 -587.485 573.167 -528.692 506.281C-469.143 440.766 -413.48 357.533 -361.894 280.872C-310.724 203.607 -260.158 136.109 -220.067 89.8443C-199.868 67.2336 -166.744 28.2292 -116.767 -7.66888C-67.5721 -44.0065 2.97894 -71.0801 80.8133 -55.8232C237.165 -23.7542 398.164 117.552 558.023 235.245C638.547 294.13 722.991 343.726 807.336 367.342C891.339 392.146 972.699 395.231 1042.47 387.409C1182.8 371.04 1275.39 317.434 1294.79 308.622C1373.9 269.44 1455.87 201.11 1455.66 200.979Z" fill="url(#paint29_linear_275_4407)"/>
<path d="M1455.66 165.504C1455.84 165.652 1374.42 232.947 1296.82 273.879C1277.73 283.185 1187 338.596 1048.54 360.268C979.681 370.728 899.148 371.278 815.322 350.814C731.253 331.436 646.145 287.065 564.598 232.719C402.136 124.505 240.835 -10.7788 85.7758 -45.7471C8.36145 -62.3733 -62.4974 -38.3215 -112.606 -4.53229C-163.422 28.7878 -197.701 65.5395 -218.422 87.0724C-259.737 130.831 -312.125 195.236 -364.202 270.514C-416.781 345.037 -472.602 426.739 -531.542 491.748C-589.706 558.063 -658.055 594.51 -709.66 597.016C-761.202 600.993 -792.412 586.286 -792.377 587.541C-792.403 586.286 -761.25 601.141 -709.641 597.392C-657.965 595.123 -589.357 558.883 -530.936 492.674C-471.772 427.804 -415.733 346.241 -363.041 271.884C-310.856 196.795 -258.478 132.623 -217.233 88.9363C-196.563 67.4498 -162.355 30.791 -111.772 -2.3811C-61.8626 -36.0054 8.45435 -59.8883 85.5033 -43.3592C162.527 -28.7447 241.476 18.5305 321.673 68.4133C401.845 119.387 481.904 180.647 563.758 234.866C645.375 289.258 730.701 333.757 814.989 353.185C899.016 373.703 979.742 373.15 1048.76 362.669C1187.53 340.933 1278.43 285.425 1297.56 276.106C1375.37 235.039 1455.87 165.622 1455.66 165.504Z" fill="url(#paint30_linear_275_4407)"/>
<path d="M1455.66 130.011C1455.82 130.168 1375.82 198.629 1299.45 241.454C1280.63 251.284 1191.52 308.597 1054.62 335.62C986.493 348.734 906.607 352.893 822.81 336.753C738.837 321.58 652.873 282.466 570.278 232.621C487.459 183.068 406.374 125.81 325.943 77.1319C245.435 29.6538 167.19 -17.575 90.4651 -33.4574C13.8169 -51.4065 -56.8111 -30.6088 -107.647 0.260014C-159.118 30.6597 -194.374 65.1503 -215.599 85.4661C-258.023 126.601 -312.235 187.599 -365.254 260.891C-418.888 333.245 -475.071 413.468 -533.623 477.991C-591.444 543.752 -658.892 580.69 -710.103 584.337C-761.237 589.358 -792.429 575.542 -792.381 576.768C-792.426 575.542 -761.282 589.506 -710.081 584.713C-658.806 581.294 -591.095 544.555 -533.027 478.908C-474.257 414.533 -417.869 334.454 -364.132 262.294C-311.016 189.2 -256.847 128.456 -214.486 87.3764C-193.306 67.0986 -158.134 32.701 -106.887 2.44074C-56.2469 -28.2886 13.8682 -48.9551 90.1638 -31.0948C166.517 -15.3181 244.688 31.8345 325.157 79.2915C405.511 127.936 486.593 185.19 569.509 234.794C652.158 284.689 738.349 323.909 822.534 339.124C906.546 355.298 986.611 351.126 1054.88 337.987C1192.08 310.9 1281.35 253.474 1300.21 243.643C1376.77 200.687 1455.86 130.134 1455.66 130.011Z" fill="url(#paint31_linear_275_4407)"/>
<path d="M1455.66 94.5319C1455.82 94.6756 1377.16 164.384 1302 209.115C1283.44 219.452 1195.88 278.705 1060.52 311.057C993.148 326.817 913.932 334.572 830.202 322.798C746.354 311.898 659.605 278.113 576.016 232.867C492.181 188 410.099 134.707 329.505 88.2305C248.66 43.2671 171.207 -4.13506 95.1454 -21.3741C19.2281 -40.6375 -51.1913 -23.1322 -102.758 4.58802C-154.848 32.0251 -191.066 64.1786 -212.832 83.1673C-256.411 121.525 -312.199 179.383 -366.193 250.689C-420.84 320.98 -477.363 399.881 -535.527 464.078C-593.028 529.391 -659.642 566.887 -710.491 571.684C-761.25 577.744 -792.445 564.804 -792.381 566C-792.438 564.795 -761.295 577.892 -710.462 572.047C-659.549 567.491 -592.679 530.186 -534.931 464.983C-476.559 400.942 -419.834 322.206 -365.1 252.117C-311.013 181.014 -255.298 123.435 -211.79 85.1241C-190.069 66.1777 -153.937 34.1129 -102.072 6.79416C-50.7041 -20.7866 19.2313 -38.1947 94.8281 -19.0285C170.537 -1.89093 247.945 45.452 328.754 90.4027C409.317 136.85 491.389 190.156 575.317 235.069C658.996 280.357 745.941 314.227 830.004 325.165C913.945 336.964 993.341 329.192 1060.85 313.399C1196.5 280.979 1284.21 221.621 1302.8 211.262C1378.14 166.404 1455.86 94.6418 1455.66 94.5319Z" fill="url(#paint32_linear_275_4407)"/>
<path d="M1455.66 59.0527C1455.82 59.1879 1378.44 130.194 1304.45 176.869C1286.16 187.73 1200.08 248.94 1066.27 286.609C999.64 305.04 921.097 316.324 837.492 308.987C753.788 302.423 666.391 273.934 581.819 233.442C497.015 193.33 413.991 143.946 333.175 99.5489C252.129 56.5169 175.23 9.37272 99.8419 -9.52301C24.5977 -30.1684 -45.6359 -16.04 -97.9048 8.41756C-150.59 32.8075 -187.754 62.5436 -210.056 80.1588C-254.772 115.647 -312.017 170.475 -366.985 239.896C-422.6 308.243 -479.457 385.99 -537.246 449.972C-594.458 514.963 -660.3 553.101 -710.821 559.027C-761.244 566.148 -792.461 554.052 -792.381 555.227C-792.454 554.052 -761.285 566.292 -710.786 559.394C-660.197 553.697 -594.105 515.749 -536.656 450.88C-478.661 387.051 -421.616 309.481 -365.924 241.349C-310.878 172.14 -253.737 117.608 -209.094 82.1704C-186.844 64.5933 -149.77 34.946 -97.2988 10.6575C-45.2255 -13.6902 24.54 -27.7426 99.4828 -7.20286C174.547 11.5999 251.417 58.685 332.463 101.721C413.247 146.11 496.294 195.498 581.197 235.665C665.862 276.199 753.468 304.769 837.367 311.341C921.177 318.695 999.883 307.385 1066.65 288.916C1200.75 251.167 1286.93 189.852 1305.28 178.974C1379.45 132.18 1455.84 59.1625 1455.66 59.0527Z" fill="url(#paint33_linear_275_4407)"/>
<path d="M1455.66 23.5721C1455.81 23.6946 1379.69 96.074 1306.82 144.706C1288.76 156.104 1204.14 219.304 1071.87 262.294C1005.97 283.417 928.136 298.129 844.686 295.301C761.193 293.116 673.223 270.024 587.727 234.345C502.022 199.022 418.039 153.526 336.999 111.073C255.713 69.85 179.269 22.8324 104.487 2.3434C29.9352 -20.039 -40.1541 -9.40143 -93.0673 11.7469C-146.333 32.9967 -184.414 60.2393 -207.232 76.4514C-253.012 109.053 -311.667 160.926 -367.578 228.564C-424.174 295.018 -481.332 371.805 -538.788 435.686C-595.737 500.458 -660.86 539.314 -711.094 546.355C-761.221 554.546 -792.474 543.291 -792.381 544.449C-792.47 543.296 -761.26 554.694 -711.059 546.727C-660.751 539.898 -595.381 501.24 -538.198 436.586C-480.537 372.875 -423.206 296.273 -366.545 230.043C-310.564 162.634 -252.038 111.065 -206.337 78.5138C-183.574 62.3271 -145.589 35.1647 -92.5416 13.9995C-39.8239 -7.04743 29.8263 -17.6342 104.102 4.65104C178.583 25.0386 254.998 72.0138 336.304 113.254C417.347 155.703 501.359 201.22 587.169 236.59C672.771 272.31 760.937 295.466 844.641 297.655C928.284 300.495 1006.27 285.746 1072.31 264.572C1204.84 221.506 1289.59 158.2 1307.68 146.785C1380.7 98.0265 1455.84 23.6651 1455.66 23.5721Z" fill="url(#paint34_linear_275_4407)"/>
<path d="M1455.66 -11.916C1455.8 -11.7935 1380.87 62.0313 1309.1 112.666C1291.29 124.61 1208.05 189.851 1077.31 238.145C1012.15 261.977 935.026 280.099 851.802 281.807C768.547 283.996 680.099 266.381 593.734 235.563C507.19 205.087 422.261 163.437 340.952 122.814C259.374 83.3783 183.392 36.0481 109.164 13.9193C35.2184 -9.86201 -34.6947 -3.48454 -88.1689 14.7223C-142.031 32.4769 -180.974 57.3148 -204.27 72.1195C-251.063 101.78 -311.058 150.83 -367.943 216.696C-425.521 281.359 -482.999 357.326 -540.137 421.228C-596.855 485.894 -661.319 525.532 -711.305 533.706C-761.173 542.97 -792.483 532.561 -792.381 533.681C-792.48 532.548 -761.208 543.114 -711.26 534.069C-661.203 526.107 -596.496 486.655 -539.544 422.124C-482.204 358.391 -424.565 282.622 -366.933 218.201C-309.99 152.563 -250.159 103.838 -203.452 74.2241C-180.211 59.4617 -141.371 34.6957 -87.7233 17.0087C-34.4414 -1.1221 35.0645 -7.47422 108.754 16.2057C182.697 38.2373 258.668 85.5338 340.292 125.007C421.624 165.635 506.6 207.314 593.26 237.832C679.737 268.697 768.387 286.35 851.831 284.156C935.244 282.445 1012.53 264.284 1077.8 240.397C1208.79 192.023 1292.15 126.681 1309.99 114.72C1381.92 63.9458 1455.83 -11.8188 1455.66 -11.916Z" fill="url(#paint35_linear_275_4407)"/>
<path d="M1455.66 -47.3955C1455.79 -47.2814 1382.01 28.0606 1311.3 80.7328C1293.73 93.2342 1211.82 160.551 1082.61 214.157C1018.2 240.702 941.786 262.214 858.845 268.465C775.897 275.007 687.074 262.949 599.895 237.055C512.575 211.452 426.698 173.635 345.058 134.745C263.156 96.9237 187.524 49.3612 113.853 25.2882C40.4622 -0.37801 -29.1976 2.44931 -83.2264 17.2455C-137.585 31.5853 -177.391 53.7353 -201.113 67.2341C-248.839 93.9653 -310.228 140.049 -368.062 204.314C-426.637 267.235 -484.432 342.556 -541.305 406.563C-597.827 471.221 -661.691 511.721 -711.46 521.036C-761.113 531.395 -792.506 521.801 -792.384 522.904C-792.5 521.797 -761.138 531.538 -711.415 521.399C-661.563 512.3 -597.465 471.986 -540.715 407.454C-483.647 343.616 -425.691 268.498 -367.078 205.835C-309.199 141.82 -248.003 96.0658 -200.372 69.381C-176.711 55.9161 -137.015 33.8337 -82.8706 19.5447C-29.0341 4.82029 40.2538 1.99291 113.401 27.562C186.812 51.5377 262.447 99.0876 344.436 136.955C426.095 175.854 512.046 213.717 599.485 239.35C686.789 265.282 775.804 277.365 858.938 270.81C942.065 264.543 1018.61 242.993 1083.15 216.397C1212.61 162.697 1294.62 95.2713 1312.22 82.7572C1383.1 29.9582 1455.82 -47.311 1455.66 -47.3955Z" fill="url(#paint36_linear_275_4407)"/>
<path d="M1455.66 -82.8789C1455.79 -82.769 1383.12 -5.81673 1313.44 48.9348C1296.1 62.0025 1215.48 131.47 1087.78 190.389C1024.08 219.537 948.439 244.629 865.812 255.283C783.23 266.284 694.121 259.746 606.221 238.809C518.199 218.13 431.36 184.129 349.342 146.879C267.039 110.639 191.731 62.5265 118.599 36.3911C45.7178 8.75967 -23.6791 7.96939 -78.192 19.2916C-132.987 30.1405 -173.581 49.6195 -197.723 61.7743C-246.308 85.5936 -309.086 128.706 -367.891 191.42C-427.485 252.659 -485.623 327.506 -542.274 391.704C-598.64 456.455 -661.943 497.902 -711.542 508.362C-761.015 519.828 -792.511 511.05 -792.377 512.136C-792.508 511.041 -761.041 519.984 -711.497 508.717C-661.818 498.472 -598.272 457.211 -541.685 392.587C-484.835 328.567 -426.555 253.944 -366.939 192.967C-308.089 130.519 -245.542 87.7406 -197.059 63.9635C-172.981 51.8341 -132.509 32.4185 -77.9163 21.6119C-23.5926 10.3404 45.4614 11.1179 118.109 38.648C191 64.6861 266.337 112.798 348.752 149.085C430.809 186.361 517.741 220.404 605.901 241.121C693.932 262.083 783.23 268.634 865.998 257.612C948.785 246.936 1024.58 221.79 1088.39 192.603C1216.31 133.579 1297.04 64.0057 1314.4 50.9253C1384.22 -3.95303 1455.81 -82.7944 1455.66 -82.8789Z" fill="url(#paint37_linear_275_4407)"/>
<path d="M1455.66 -118.363C1455.78 -118.262 1384.18 -39.6148 1315.49 17.2752C1298.4 30.9177 1219.02 102.6 1092.83 166.843C1029.86 198.591 954.972 227.267 872.733 242.304C790.558 257.671 701.279 256.817 612.719 240.808C524.055 225.056 436.251 194.881 353.804 159.185C270.895 124.919 196.064 75.357 123.391 47.2565C50.997 17.6682 -18.1306 13.2094 -73.0442 20.9055C-128.205 28.2297 -169.526 45.0081 -194.072 55.8147C-243.459 76.7263 -307.602 116.863 -367.427 178.068C-428.056 237.714 -486.595 312.164 -543.07 376.645C-599.32 441.59 -662.12 484.056 -711.581 495.666C-760.904 508.26 -792.531 500.285 -792.38 501.367C-792.525 500.285 -760.929 508.416 -711.526 496.02C-661.982 484.626 -598.945 442.347 -542.477 377.532C-485.813 313.217 -427.133 239.007 -366.503 179.641C-306.65 118.706 -242.757 78.907 -193.489 58.0292C-169.02 47.2564 -127.826 30.5372 -72.8647 23.2384C-18.1339 15.5846 50.6765 20.0095 122.856 49.5048C195.318 77.5081 270.19 127.087 353.227 161.417C435.748 197.142 523.658 227.36 612.472 243.141C701.17 259.171 790.628 260.02 872.98 244.624C955.395 229.557 1030.4 200.831 1093.48 169.028C1219.88 104.683 1299.36 32.9039 1316.49 19.2446C1385.32 -37.7765 1455.81 -118.287 1455.66 -118.363Z" fill="url(#paint38_linear_275_4407)"/>
<path d="M1455.66 -153.843C1455.77 -153.746 1385.21 -73.3193 1317.5 -14.2485C1300.62 -0.0186157 1222.45 73.9456 1097.78 143.527C1035.5 177.883 961.414 210.112 879.608 229.532C797.885 249.197 708.562 254.091 619.424 243.006C530.187 232.195 441.396 205.865 358.448 171.666C275.004 138.895 200.379 88.3742 128.231 57.9492C56.3275 26.1379 -12.5245 18.0699 -67.7491 22.0933C-123.198 25.9435 -165.183 40.0043 -190.117 49.3867C-240.244 67.4118 -305.74 104.565 -366.642 164.278C-428.352 222.339 -487.33 296.536 -543.677 361.38C-599.85 426.625 -662.191 470.177 -711.562 482.953C-760.766 496.71 -792.548 489.537 -792.384 490.603C-792.541 489.537 -760.798 496.862 -711.504 483.316C-662.05 470.747 -599.472 427.373 -543.083 362.271C-486.548 297.596 -427.441 223.658 -365.741 165.876C-304.833 106.45 -239.607 69.6391 -189.61 51.6435C-164.753 42.295 -122.906 28.2848 -67.6594 24.4431C-12.6176 20.4451 55.9556 28.4666 127.651 60.1848C199.609 90.5169 274.283 141.068 357.897 173.918C440.944 208.156 529.851 234.515 619.235 245.351C708.543 256.458 798.042 251.564 879.929 231.852C961.902 212.399 1036.12 180.11 1098.48 145.695C1223.36 76.0081 1301.63 1.94241 1318.54 -12.3129C1386.36 -71.5147 1455.79 -153.775 1455.66 -153.843Z" fill="url(#paint39_linear_275_4407)"/>
<path d="M1455.66 -189.327C1455.78 -189.23 1386.19 -106.957 1319.46 -45.6249C1302.79 -30.8245 1225.81 45.553 1102.65 120.456C1041.08 157.436 967.808 193.211 886.473 216.975C805.241 240.955 716.001 251.538 626.328 245.355C536.61 239.51 446.828 217.03 363.31 184.272C279.215 153.049 204.807 101.222 133.147 68.4426C61.7338 34.3026 -6.81677 22.4985 -62.2722 22.9254C-117.929 23.2973 -160.517 34.6322 -185.82 42.5861C-236.636 57.7247 -303.459 91.89 -365.512 150.082C-428.366 206.574 -487.832 280.627 -544.101 345.907C-600.243 411.532 -662.17 456.251 -711.48 470.21C-760.608 485.138 -792.556 478.768 -792.376 479.821C-792.553 478.76 -760.633 485.294 -711.413 470.565C-662.02 456.813 -599.861 412.276 -543.505 346.79C-487.05 281.693 -427.456 207.91 -364.634 151.709C-302.594 93.8129 -236.059 59.9816 -185.387 44.8726C-160.177 36.9441 -117.734 25.6472 -62.2657 25.2711C-6.98987 24.8526 61.3043 36.6102 132.532 70.6487C204.003 103.335 278.5 155.221 362.778 186.525C446.417 219.334 536.344 241.847 626.225 247.705C716.071 253.9 805.481 243.297 886.864 219.27C968.366 195.455 1041.75 159.629 1103.41 122.59C1226.77 47.5731 1303.84 -28.9015 1320.53 -43.7231C1387.4 -105.173 1455.8 -189.255 1455.66 -189.327Z" fill="url(#paint40_linear_275_4407)"/>
<path d="M1455.66 -224.807C1455.78 -224.705 1387.15 -140.513 1321.38 -76.8486C1304.9 -61.4944 1229.13 17.4272 1107.44 97.621C986.818 178.03 814.752 252.062 633.47 247.823C543.339 246.948 452.563 228.365 368.394 197.006C283.568 167.342 209.324 113.981 138.174 78.738C67.1676 42.4173 -0.963074 26.6152 -56.598 23.5342C-112.4 20.411 -155.529 28.9692 -181.171 35.4945C-232.623 47.7508 -300.776 78.8648 -364.04 135.518C-428.09 190.443 -488.11 264.458 -544.358 330.236C-600.512 396.335 -662.058 442.296 -711.342 457.451C-760.428 473.575 -792.572 468.013 -792.376 469.048C-792.568 468.009 -760.447 473.735 -711.272 457.806C-661.898 442.858 -600.118 397.07 -543.752 331.128C-487.319 265.523 -427.186 191.791 -363.184 137.175C-299.952 80.8385 -232.1 50.0414 -180.819 37.8106C-155.266 31.3063 -112.294 22.7777 -56.6845 25.8967C-1.23236 28.9692 66.6804 44.7079 137.504 80.9314C208.491 116.094 282.844 169.527 367.881 199.284C452.188 230.69 543.143 249.311 633.457 250.186C815.089 254.433 987.472 180.253 1108.27 99.7342C1230.13 19.4263 1305.99 -59.6011 1322.49 -74.9763C1388.38 -138.751 1455.8 -224.731 1455.66 -224.807Z" fill="url(#paint41_linear_275_4407)"/>
<path d="M1455.66 -260.295C1455.79 -260.181 1388.1 -173.96 1323.3 -107.882C1307.01 -91.9703 1232.46 -10.31 1112.24 75.1794C993.079 160.656 822.882 244.138 640.866 250.503C550.388 254.547 458.593 239.869 373.712 209.88C288.04 181.842 213.979 126.579 143.332 88.7457C72.7231 50.1343 5.08618 30.1524 -50.6705 23.7285C-106.552 17.1862 -150.15 23.048 -176.109 28.1534C-228.132 37.5907 -297.631 65.5264 -362.178 120.62C-427.503 173.931 -488.146 248.005 -544.428 314.362C-600.64 381.01 -661.856 428.286 -711.153 444.658C-760.226 462.016 -792.587 457.248 -792.376 458.28C-792.584 457.248 -760.242 462.176 -711.079 445.013C-661.689 428.852 -600.239 381.737 -543.822 315.245C-487.357 249.083 -426.609 175.3 -361.351 122.315C-296.852 67.5466 -227.676 39.9194 -175.837 30.5032C-149.97 25.419 -106.536 19.5783 -50.8436 26.1037C4.73676 32.5023 72.1718 52.4165 142.623 90.9349C213.11 128.676 287.319 184.049 373.228 212.174C458.276 242.223 550.263 256.944 640.93 252.886C823.312 246.5 993.797 162.862 1113.12 77.2713C1233.51 -8.34058 1308.13 -90.0939 1324.45 -106.023C1389.36 -172.236 1455.81 -260.206 1455.66 -260.295Z" fill="url(#paint42_linear_275_4407)"/>
<path d="M1455.66 -295.774C1455.81 -295.631 1389.05 -207.284 1325.14 -138.865C1309.09 -122.264 1235.6 -38.1315 1116.89 52.6871C999.09 143.045 831.089 236.577 648.425 253.068C557.681 261.973 464.854 251.403 379.175 222.859C292.551 196.617 218.717 138.95 148.573 98.517C78.3718 57.4628 11.2605 33.449 -44.5571 23.7116C-100.442 13.7968 -144.453 16.9749 -170.708 20.6687C-223.259 27.2617 -294.05 52.032 -359.972 105.457C-426.647 157.098 -487.976 231.311 -544.348 298.298C-600.662 365.568 -661.577 414.225 -710.919 431.832C-760.005 450.448 -792.603 446.484 -792.376 447.507C-792.594 446.484 -760.017 450.605 -710.839 432.195C-661.401 414.795 -600.252 366.303 -543.735 299.185C-487.187 232.393 -425.756 158.484 -359.167 107.181C-293.329 54.0944 -222.861 29.6158 -170.509 23.0482C-144.36 19.3671 -100.522 16.2016 -44.8104 26.0826C10.8213 35.782 77.7499 59.7281 147.814 100.693C217.8 141.021 291.804 198.832 378.71 225.17C464.588 253.782 557.617 264.378 648.566 255.46C831.605 238.923 999.865 145.222 1117.81 54.7537C1236.69 -36.196 1310.26 -120.413 1326.32 -137.039C1390.35 -205.573 1455.82 -295.656 1455.66 -295.774Z" fill="url(#paint43_linear_275_4407)"/>
</g>
</g>
<defs>
<linearGradient id="paint0_linear_275_4407" x1="1232.77" y1="135.261" x2="-788.495" y2="178.207" gradientUnits="userSpaceOnUse">
<stop stop-color="#600F25"/>
<stop offset="0.3333" stop-color="#DC1F26"/>
<stop offset="0.6848" stop-color="#F78C1E"/>
<stop offset="1" stop-color="#FDBA12"/>
</linearGradient>
<linearGradient id="paint1_linear_275_4407" x1="1232.84" y1="137.092" x2="-836.469" y2="181.059" gradientUnits="userSpaceOnUse">
<stop stop-color="#600F25"/>
<stop offset="0.3333" stop-color="#DC1F26"/>
<stop offset="0.6848" stop-color="#F78C1E"/>
<stop offset="1" stop-color="#FDBA12"/>
</linearGradient>
<linearGradient id="paint2_linear_275_4407" x1="1232.89" y1="138.918" x2="-884.188" y2="183.899" gradientUnits="userSpaceOnUse">
<stop stop-color="#600F25"/>
<stop offset="0.3333" stop-color="#DC1F26"/>
<stop offset="0.6848" stop-color="#F78C1E"/>
<stop offset="1" stop-color="#FDBA12"/>
</linearGradient>
<linearGradient id="paint3_linear_275_4407" x1="1232.94" y1="140.839" x2="-932.014" y2="186.838" gradientUnits="userSpaceOnUse">
<stop stop-color="#600F25"/>
<stop offset="0.3333" stop-color="#DC1F26"/>
<stop offset="0.6848" stop-color="#F78C1E"/>
<stop offset="1" stop-color="#FDBA12"/>
</linearGradient>
<linearGradient id="paint4_linear_275_4407" x1="1233" y1="142.583" x2="-979.922" y2="189.601" gradientUnits="userSpaceOnUse">
<stop stop-color="#600F25"/>
<stop offset="0.3333" stop-color="#DC1F26"/>
<stop offset="0.6848" stop-color="#F78C1E"/>
<stop offset="1" stop-color="#FDBA12"/>
</linearGradient>
<linearGradient id="paint5_linear_275_4407" x1="1233.06" y1="144.483" x2="-1027.75" y2="192.518" gradientUnits="userSpaceOnUse">
<stop stop-color="#600F25"/>
<stop offset="0.3333" stop-color="#DC1F26"/>
<stop offset="0.6848" stop-color="#F78C1E"/>
<stop offset="1" stop-color="#FDBA12"/>
</linearGradient>
<linearGradient id="paint6_linear_275_4407" x1="1233.11" y1="146.239" x2="-1075.63" y2="195.293" gradientUnits="userSpaceOnUse">
<stop stop-color="#600F25"/>
<stop offset="0.3333" stop-color="#DC1F26"/>
<stop offset="0.6848" stop-color="#F78C1E"/>
<stop offset="1" stop-color="#FDBA12"/>
</linearGradient>
<linearGradient id="paint7_linear_275_4407" x1="1233.17" y1="148.081" x2="-1123.54" y2="198.154" gradientUnits="userSpaceOnUse">
<stop stop-color="#600F25"/>
<stop offset="0.3333" stop-color="#DC1F26"/>
<stop offset="0.6848" stop-color="#F78C1E"/>
<stop offset="1" stop-color="#FDBA12"/>
</linearGradient>
<linearGradient id="paint8_linear_275_4407" x1="1233.22" y1="149.897" x2="-1171.36" y2="200.987" gradientUnits="userSpaceOnUse">
<stop stop-color="#600F25"/>
<stop offset="0.3333" stop-color="#DC1F26"/>
<stop offset="0.6848" stop-color="#F78C1E"/>
<stop offset="1" stop-color="#FDBA12"/>
</linearGradient>
<linearGradient id="paint9_linear_275_4407" x1="1233.28" y1="151.727" x2="-1219.22" y2="203.835" gradientUnits="userSpaceOnUse">
<stop stop-color="#600F25"/>
<stop offset="0.3333" stop-color="#DC1F26"/>
<stop offset="0.6848" stop-color="#F78C1E"/>
<stop offset="1" stop-color="#FDBA12"/>
</linearGradient>
<linearGradient id="paint10_linear_275_4407" x1="1233.34" y1="153.558" x2="-1267.09" y2="206.684" gradientUnits="userSpaceOnUse">
<stop stop-color="#600F25"/>
<stop offset="0.3333" stop-color="#DC1F26"/>
<stop offset="0.6848" stop-color="#F78C1E"/>
<stop offset="1" stop-color="#FDBA12"/>
</linearGradient>
<linearGradient id="paint11_linear_275_4407" x1="1233.39" y1="155.379" x2="-1315.05" y2="209.526" gradientUnits="userSpaceOnUse">
<stop stop-color="#600F25"/>
<stop offset="0.3333" stop-color="#DC1F26"/>
<stop offset="0.6848" stop-color="#F78C1E"/>
<stop offset="1" stop-color="#FDBA12"/>
</linearGradient>
<linearGradient id="paint12_linear_275_4407" x1="1233.45" y1="157.295" x2="-1362.78" y2="212.457" gradientUnits="userSpaceOnUse">
<stop stop-color="#600F25"/>
<stop offset="0.3333" stop-color="#DC1F26"/>
<stop offset="0.6848" stop-color="#F78C1E"/>
<stop offset="1" stop-color="#FDBA12"/>
</linearGradient>
<linearGradient id="paint13_linear_275_4407" x1="1233.5" y1="159.073" x2="-1410.81" y2="215.256" gradientUnits="userSpaceOnUse">
<stop stop-color="#600F25"/>
<stop offset="0.3333" stop-color="#DC1F26"/>
<stop offset="0.6848" stop-color="#F78C1E"/>
<stop offset="1" stop-color="#FDBA12"/>
</linearGradient>
<linearGradient id="paint14_linear_275_4407" x1="1233.57" y1="160.978" x2="-1458.48" y2="218.175" gradientUnits="userSpaceOnUse">
<stop stop-color="#600F25"/>
<stop offset="0.3333" stop-color="#DC1F26"/>
<stop offset="0.6848" stop-color="#F78C1E"/>
<stop offset="1" stop-color="#FDBA12"/>
</linearGradient>
<linearGradient id="paint15_linear_275_4407" x1="1233.62" y1="162.721" x2="-1506.37" y2="220.938" gradientUnits="userSpaceOnUse">
<stop stop-color="#600F25"/>
<stop offset="0.3333" stop-color="#DC1F26"/>
<stop offset="0.6848" stop-color="#F78C1E"/>
<stop offset="1" stop-color="#FDBA12"/>
</linearGradient>
<linearGradient id="paint16_linear_275_4407" x1="1233.68" y1="164.58" x2="-1554.21" y2="223.813" gradientUnits="userSpaceOnUse">
<stop stop-color="#600F25"/>
<stop offset="0.3333" stop-color="#DC1F26"/>
<stop offset="0.6848" stop-color="#F78C1E"/>
<stop offset="1" stop-color="#FDBA12"/>
</linearGradient>
<linearGradient id="paint17_linear_275_4407" x1="1233.73" y1="166.436" x2="-1602.07" y2="226.688" gradientUnits="userSpaceOnUse">
<stop stop-color="#600F25"/>
<stop offset="0.3333" stop-color="#DC1F26"/>
<stop offset="0.6848" stop-color="#F78C1E"/>
<stop offset="1" stop-color="#FDBA12"/>
</linearGradient>
<linearGradient id="paint18_linear_275_4407" x1="1233.79" y1="168.295" x2="-1649.92" y2="229.565" gradientUnits="userSpaceOnUse">
<stop stop-color="#600F25"/>
<stop offset="0.3333" stop-color="#DC1F26"/>
<stop offset="0.6848" stop-color="#F78C1E"/>
<stop offset="1" stop-color="#FDBA12"/>
</linearGradient>
<linearGradient id="paint19_linear_275_4407" x1="1233.84" y1="170.151" x2="-1697.78" y2="232.438" gradientUnits="userSpaceOnUse">
<stop stop-color="#600F25"/>
<stop offset="0.3333" stop-color="#DC1F26"/>
<stop offset="0.6848" stop-color="#F78C1E"/>
<stop offset="1" stop-color="#FDBA12"/>
</linearGradient>
<linearGradient id="paint20_linear_275_4407" x1="1233.9" y1="172.004" x2="-1745.62" y2="235.309" gradientUnits="userSpaceOnUse">
<stop stop-color="#600F25"/>
<stop offset="0.3333" stop-color="#DC1F26"/>
<stop offset="0.6848" stop-color="#F78C1E"/>
<stop offset="1" stop-color="#FDBA12"/>
</linearGradient>
<linearGradient id="paint21_linear_275_4407" x1="1233.95" y1="173.858" x2="-1793.47" y2="238.181" gradientUnits="userSpaceOnUse">
<stop stop-color="#600F25"/>
<stop offset="0.3333" stop-color="#DC1F26"/>
<stop offset="0.6848" stop-color="#F78C1E"/>
<stop offset="1" stop-color="#FDBA12"/>
</linearGradient>
<linearGradient id="paint22_linear_275_4407" x1="-792.387" y1="274.847" x2="1455.66" y2="274.847" gradientUnits="userSpaceOnUse">
<stop stop-color="#600F25"/>
<stop offset="0.3333" stop-color="#DC1F26"/>
<stop offset="0.6848" stop-color="#F78C1E"/>
<stop offset="1" stop-color="#FDBA12"/>
</linearGradient>
<linearGradient id="paint23_linear_275_4407" x1="-792.386" y1="274.793" x2="1455.66" y2="274.793" gradientUnits="userSpaceOnUse">
<stop stop-color="#600F25"/>
<stop offset="0.3333" stop-color="#DC1F26"/>
<stop offset="0.6848" stop-color="#F78C1E"/>
<stop offset="1" stop-color="#FDBA12"/>
</linearGradient>
<linearGradient id="paint24_linear_275_4407" x1="-792.387" y1="274.784" x2="1455.66" y2="274.784" gradientUnits="userSpaceOnUse">
<stop stop-color="#600F25"/>
<stop offset="0.3333" stop-color="#DC1F26"/>
<stop offset="0.6848" stop-color="#F78C1E"/>
<stop offset="1" stop-color="#FDBA12"/>
</linearGradient>
<linearGradient id="paint25_linear_275_4407" x1="-792.387" y1="274.726" x2="1455.66" y2="274.726" gradientUnits="userSpaceOnUse">
<stop stop-color="#600F25"/>
<stop offset="0.3333" stop-color="#DC1F26"/>
<stop offset="0.6848" stop-color="#F78C1E"/>
<stop offset="1" stop-color="#FDBA12"/>
</linearGradient>
<linearGradient id="paint26_linear_275_4407" x1="-792.385" y1="274.722" x2="1455.66" y2="274.722" gradientUnits="userSpaceOnUse">
<stop stop-color="#600F25"/>
<stop offset="0.3333" stop-color="#DC1F26"/>
<stop offset="0.6848" stop-color="#F78C1E"/>
<stop offset="1" stop-color="#FDBA12"/>
</linearGradient>
<linearGradient id="paint27_linear_275_4407" x1="-792.385" y1="274.438" x2="1455.66" y2="274.438" gradientUnits="userSpaceOnUse">
<stop stop-color="#600F25"/>
<stop offset="0.3333" stop-color="#DC1F26"/>
<stop offset="0.6848" stop-color="#F78C1E"/>
<stop offset="1" stop-color="#FDBA12"/>
</linearGradient>
<linearGradient id="paint28_linear_275_4407" x1="-792.385" y1="274.18" x2="1455.66" y2="274.18" gradientUnits="userSpaceOnUse">
<stop stop-color="#600F25"/>
<stop offset="0.3333" stop-color="#DC1F26"/>
<stop offset="0.6848" stop-color="#F78C1E"/>
<stop offset="1" stop-color="#FDBA12"/>
</linearGradient>
<linearGradient id="paint29_linear_275_4407" x1="-792.384" y1="273.899" x2="1455.66" y2="273.899" gradientUnits="userSpaceOnUse">
<stop stop-color="#600F25"/>
<stop offset="0.3333" stop-color="#DC1F26"/>
<stop offset="0.6848" stop-color="#F78C1E"/>
<stop offset="1" stop-color="#FDBA12"/>
</linearGradient>
<linearGradient id="paint30_linear_275_4407" x1="-792.384" y1="273.429" x2="1455.66" y2="273.429" gradientUnits="userSpaceOnUse">
<stop stop-color="#600F25"/>
<stop offset="0.3333" stop-color="#DC1F26"/>
<stop offset="0.6848" stop-color="#F78C1E"/>
<stop offset="1" stop-color="#FDBA12"/>
</linearGradient>
<linearGradient id="paint31_linear_275_4407" x1="-792.383" y1="272.809" x2="1455.66" y2="272.809" gradientUnits="userSpaceOnUse">
<stop stop-color="#600F25"/>
<stop offset="0.3333" stop-color="#DC1F26"/>
<stop offset="0.6848" stop-color="#F78C1E"/>
<stop offset="1" stop-color="#FDBA12"/>
</linearGradient>
<linearGradient id="paint32_linear_275_4407" x1="-792.383" y1="272.027" x2="1455.66" y2="272.027" gradientUnits="userSpaceOnUse">
<stop stop-color="#600F25"/>
<stop offset="0.3333" stop-color="#DC1F26"/>
<stop offset="0.6848" stop-color="#F78C1E"/>
<stop offset="1" stop-color="#FDBA12"/>
</linearGradient>
<linearGradient id="paint33_linear_275_4407" x1="-792.383" y1="271.016" x2="1455.66" y2="271.016" gradientUnits="userSpaceOnUse">
<stop stop-color="#600F25"/>
<stop offset="0.3333" stop-color="#DC1F26"/>
<stop offset="0.6848" stop-color="#F78C1E"/>
<stop offset="1" stop-color="#FDBA12"/>
</linearGradient>
<linearGradient id="paint34_linear_275_4407" x1="-792.383" y1="269.739" x2="1455.66" y2="269.739" gradientUnits="userSpaceOnUse">
<stop stop-color="#600F25"/>
<stop offset="0.3333" stop-color="#DC1F26"/>
<stop offset="0.6848" stop-color="#F78C1E"/>
<stop offset="1" stop-color="#FDBA12"/>
</linearGradient>
<linearGradient id="paint35_linear_275_4407" x1="-792.383" y1="262.923" x2="1455.66" y2="262.923" gradientUnits="userSpaceOnUse">
<stop stop-color="#600F25"/>
<stop offset="0.3333" stop-color="#DC1F26"/>
<stop offset="0.6848" stop-color="#F78C1E"/>
<stop offset="1" stop-color="#FDBA12"/>
</linearGradient>
<linearGradient id="paint36_linear_275_4407" x1="-792.383" y1="239.333" x2="1455.66" y2="239.333" gradientUnits="userSpaceOnUse">
<stop stop-color="#600F25"/>
<stop offset="0.3333" stop-color="#DC1F26"/>
<stop offset="0.6848" stop-color="#F78C1E"/>
<stop offset="1" stop-color="#FDBA12"/>
</linearGradient>
<linearGradient id="paint37_linear_275_4407" x1="-792.382" y1="215.797" x2="1455.66" y2="215.797" gradientUnits="userSpaceOnUse">
<stop stop-color="#600F25"/>
<stop offset="0.3333" stop-color="#DC1F26"/>
<stop offset="0.6848" stop-color="#F78C1E"/>
<stop offset="1" stop-color="#FDBA12"/>
</linearGradient>
<linearGradient id="paint38_linear_275_4407" x1="-792.383" y1="192.314" x2="1455.66" y2="192.314" gradientUnits="userSpaceOnUse">
<stop stop-color="#600F25"/>
<stop offset="0.3333" stop-color="#DC1F26"/>
<stop offset="0.6848" stop-color="#F78C1E"/>
<stop offset="1" stop-color="#FDBA12"/>
</linearGradient>
<linearGradient id="paint39_linear_275_4407" x1="-792.383" y1="168.893" x2="1455.66" y2="168.893" gradientUnits="userSpaceOnUse">
<stop stop-color="#600F25"/>
<stop offset="0.3333" stop-color="#DC1F26"/>
<stop offset="0.6848" stop-color="#F78C1E"/>
<stop offset="1" stop-color="#FDBA12"/>
</linearGradient>
<linearGradient id="paint40_linear_275_4407" x1="-792.376" y1="145.523" x2="1455.66" y2="145.523" gradientUnits="userSpaceOnUse">
<stop stop-color="#600F25"/>
<stop offset="0.3333" stop-color="#DC1F26"/>
<stop offset="0.6848" stop-color="#F78C1E"/>
<stop offset="1" stop-color="#FDBA12"/>
</linearGradient>
<linearGradient id="paint41_linear_275_4407" x1="-792.376" y1="122.214" x2="1455.66" y2="122.214" gradientUnits="userSpaceOnUse">
<stop stop-color="#600F25"/>
<stop offset="0.3333" stop-color="#DC1F26"/>
<stop offset="0.6848" stop-color="#F78C1E"/>
<stop offset="1" stop-color="#FDBA12"/>
</linearGradient>
<linearGradient id="paint42_linear_275_4407" x1="-792.376" y1="98.9894" x2="1455.66" y2="98.9894" gradientUnits="userSpaceOnUse">
<stop stop-color="#600F25"/>
<stop offset="0.3333" stop-color="#DC1F26"/>
<stop offset="0.6848" stop-color="#F78C1E"/>
<stop offset="1" stop-color="#FDBA12"/>
</linearGradient>
<linearGradient id="paint43_linear_275_4407" x1="-792.376" y1="75.8644" x2="1455.66" y2="75.8644" gradientUnits="userSpaceOnUse">
<stop stop-color="#600F25"/>
<stop offset="0.3333" stop-color="#DC1F26"/>
<stop offset="0.6848" stop-color="#F78C1E"/>
<stop offset="1" stop-color="#FDBA12"/>
</linearGradient>
</defs>
</svg>
