<svg width="26" height="26" viewBox="0 0 26 26" fill="none" xmlns="http://www.w3.org/2000/svg">
<path fill-rule="evenodd" clip-rule="evenodd" d="M13.0013 2.16699C11.7474 2.16673 10.5202 2.52915 9.46763 3.21056C8.41505 3.89197 7.58202 4.86328 7.06897 6.00741C6.99599 6.17143 6.92123 6.33467 6.84472 6.49708L6.82305 6.49816C6.75372 6.50033 6.65947 6.50033 6.5013 6.50033C5.35203 6.50033 4.24983 6.95687 3.43717 7.76953C2.62452 8.58219 2.16797 9.68439 2.16797 10.8337C2.16797 11.9829 2.62452 13.0851 3.43717 13.8978C4.24983 14.7104 5.35203 15.167 6.5013 15.167H6.68764L8.8543 13.0003H6.5013C5.92667 13.0003 5.37557 12.7721 4.96924 12.3657C4.56291 11.9594 4.33464 11.4083 4.33464 10.8337C4.33464 10.259 4.56291 9.70792 4.96924 9.30159C5.37557 8.89527 5.92667 8.66699 6.5013 8.66699H6.57064C6.79597 8.66699 7.05814 8.66808 7.2748 8.62366C7.54451 8.57753 7.80231 8.47809 8.03314 8.33116C8.29422 8.16216 8.47405 7.95199 8.61055 7.76024C8.69419 7.63673 8.76704 7.50625 8.8283 7.37024C8.88608 7.24963 8.95686 7.09508 9.04064 6.90658L9.04497 6.89574C9.38667 6.13217 9.94204 5.48378 10.6441 5.02883C11.3461 4.57388 12.1648 4.3318 13.0013 4.3318C13.8378 4.3318 14.6565 4.57388 15.3585 5.02883C16.0606 5.48378 16.6159 6.13217 16.9576 6.89574L16.9631 6.90658C17.0461 7.09435 17.1165 7.24891 17.1743 7.37024C17.2241 7.47533 17.2978 7.62808 17.3921 7.76024C17.5286 7.95091 17.7073 8.16216 17.9695 8.33224C18.2316 8.50124 18.4971 8.57816 18.7278 8.62474C18.9445 8.66808 19.2066 8.66808 19.432 8.66808L19.5013 8.66699C20.0759 8.66699 20.627 8.89527 21.0334 9.30159C21.4397 9.70792 21.668 10.259 21.668 10.8337C21.668 11.4083 21.4397 11.9594 21.0334 12.3657C20.627 12.7721 20.0759 13.0003 19.5013 13.0003H17.1483L19.315 15.167H19.5013C20.6506 15.167 21.7528 14.7104 22.5654 13.8978C23.3781 13.0851 23.8346 11.9829 23.8346 10.8337C23.8346 9.68439 23.3781 8.58219 22.5654 7.76953C21.7528 6.95687 20.6506 6.50033 19.5013 6.50033C19.3431 6.50033 19.2489 6.50033 19.1796 6.49816H19.1579L19.1308 6.44074C19.0638 6.2969 18.998 6.15245 18.9336 6.00741C18.4206 4.86328 17.5876 3.89197 16.535 3.21056C15.4824 2.52915 14.2552 2.16673 13.0013 2.16699Z" fill="#2E2937" fill-opacity="0.5"/>
<path d="M12.9996 13.0006L12.2337 12.2347L12.9996 11.4688L13.7656 12.2347L12.9996 13.0006ZM14.083 22.7506C14.083 23.0379 13.9688 23.3135 13.7657 23.5166C13.5625 23.7198 13.287 23.8339 12.9996 23.8339C12.7123 23.8339 12.4368 23.7198 12.2336 23.5166C12.0304 23.3135 11.9163 23.0379 11.9163 22.7506H14.083ZM7.90039 16.568L12.2337 12.2347L13.7656 13.7665L9.43222 18.0998L7.90039 16.568ZM13.7656 12.2347L18.0989 16.568L16.5671 18.0998L12.2337 13.7665L13.7656 12.2347ZM14.083 13.0006V22.7506H11.9163V13.0006H14.083Z" fill="#2E2937" fill-opacity="0.5"/>
</svg>
