<svg width="104" height="32" viewBox="0 0 104 32" fill="none" xmlns="http://www.w3.org/2000/svg">
<g clip-path="url(#clip0_235_4064)">
<path d="M32.4942 8.86333C32.4923 8.54151 32.4888 8.21984 32.4799 7.89764C32.4611 7.19677 32.4197 6.48954 32.2952 5.79615C32.1688 5.09199 31.9622 4.43724 31.6365 3.79758C31.3169 3.16939 30.8991 2.59454 30.4006 2.09604C29.9023 1.59755 29.3275 1.17971 28.6991 0.859873C28.06 0.534599 27.4052 0.328022 26.7018 0.201619C26.0081 0.0766714 25.301 0.035507 24.5996 0.0165412C24.2776 0.00781262 23.9559 0.00414877 23.634 0.00215521C23.252 0 22.8696 0 22.4877 0H14.0177H10.5089C10.1265 0 9.74459 0 9.36262 0.00220909C9.04061 0.00420265 8.71855 0.0078665 8.39703 0.0165951C8.22172 0.0213365 8.04604 0.0274789 7.87025 0.035938C7.34293 0.0613695 6.81479 0.107976 6.2948 0.201673C5.76721 0.296502 5.26693 0.436375 4.78023 0.637617C4.61801 0.704644 4.45725 0.778568 4.29746 0.859873C3.82617 1.09975 3.38494 1.39474 2.98363 1.73753C2.84986 1.85181 2.72051 1.97137 2.59595 2.09599C2.09739 2.59449 1.67955 3.16934 1.35991 3.79753C1.03429 4.43719 0.827954 5.09194 0.701457 5.7961C0.577007 6.48948 0.535631 7.19671 0.516775 7.89759C0.50794 8.21979 0.504223 8.54146 0.502122 8.86328C0.499697 9.24551 0.500021 9.62779 0.500021 10.0099V15.2265V21.9898C0.500021 22.3723 0.499643 22.7542 0.502122 23.1367C0.504223 23.4585 0.50794 23.7802 0.516775 24.1019C0.535631 24.8031 0.576953 25.5105 0.701457 26.2036C0.827954 26.9075 1.03429 27.5629 1.35991 28.2024C1.67955 28.8307 2.09739 29.4054 2.59595 29.9037C3.09412 30.4024 3.66907 30.8202 4.29752 31.1402C4.93663 31.4656 5.59136 31.6719 6.29496 31.7983C6.98822 31.9231 7.69591 31.9645 8.39708 31.9833C8.71861 31.9919 9.04067 31.9957 9.36267 31.9975C9.74464 32.0003 10.1266 31.9999 10.5089 31.9999H22.4877C22.8696 31.9999 23.252 32.0003 23.634 31.9975C23.9559 31.9957 24.2776 31.9919 24.5996 31.9833C25.3009 31.9645 26.0081 31.923 26.7018 31.7983C27.4052 31.6719 28.06 31.4655 28.699 31.1402C29.3274 30.8202 29.9022 30.4024 30.4006 29.9037C30.899 29.4053 31.3169 28.8307 31.6365 28.2024C31.9621 27.5629 32.1687 26.9076 32.2951 26.2036C32.4197 25.5105 32.4611 24.8031 32.4798 24.1019C32.4887 23.7802 32.4922 23.4586 32.4942 23.1367C32.4966 22.7542 32.4964 22.3723 32.4964 21.9898V10.0099C32.4965 9.62779 32.4966 9.24551 32.4942 8.86333Z" fill="#F05138"/>
<path d="M25.8528 19.7527C25.8521 19.7517 25.8514 19.751 25.8506 19.7501C25.8859 19.6296 25.9225 19.5099 25.9534 19.3864C27.2815 14.0949 24.0403 7.83888 18.5556 4.54492C20.9591 7.80354 22.0219 11.7505 21.0777 15.2021C20.9935 15.51 20.8922 15.8055 20.7803 16.0927C20.6589 16.0129 20.5059 15.9223 20.3004 15.809C20.3004 15.809 14.8446 12.44 8.93142 6.48116C8.77626 6.32474 12.0846 11.2102 15.8391 15.1774C14.0702 14.1845 9.1405 10.5973 6.01967 7.74066C6.40309 8.38016 6.85914 8.99596 7.36044 9.5888C9.96661 12.8943 13.3654 16.9728 17.4373 20.1045C14.5763 21.8555 10.5337 21.9917 6.50874 20.1064C5.5132 19.6398 4.57729 19.0768 3.71094 18.4371C5.41471 21.1626 8.03877 23.5142 11.2325 24.887C15.0411 26.5239 18.8286 26.4129 21.6494 24.9138L21.6472 24.9171C21.6601 24.9089 21.6765 24.9 21.6898 24.8918C21.8057 24.8295 21.9206 24.7661 22.0331 24.6991C23.3884 23.9955 26.0654 23.2817 27.5023 26.0778C27.8542 26.7621 28.602 23.1357 25.8528 19.7527Z" fill="white"/>
<path d="M44.6385 20.7671C44.8885 22.9871 47.0057 24.4426 49.9459 24.4426C52.7395 24.4426 54.7536 22.9871 54.7536 20.9731C54.7536 19.238 53.5335 18.1789 50.7251 17.4735L48.0053 16.7825C44.0946 15.8119 42.3302 14.0473 42.3302 11.1363C42.3302 7.54864 45.4617 5.06348 49.9167 5.06348C54.2388 5.06348 57.3117 7.56308 57.4147 11.1658H54.5479C54.3271 8.96019 52.5335 7.60705 49.8432 7.60705C47.1818 7.60705 45.3295 8.97463 45.3295 10.9742C45.3295 12.5327 46.4765 13.4593 49.2993 14.1799L51.5633 14.7679C55.9445 15.8415 57.7381 17.547 57.7381 20.6202C57.7381 24.5313 54.6358 26.987 49.6959 26.987C45.109 26.987 41.9774 24.5458 41.7422 20.7672L44.6385 20.7671Z" fill="black"/>
<path d="M75.9491 26.6333H73.0673L69.7005 14.8998H69.6418L66.2898 26.6333H63.4083L59.1445 11.2676H61.9378L64.9076 23.6041H64.9666L68.3186 11.2676H71.0237L74.4052 23.6041H74.4642L77.4341 11.2676H80.1978L75.9491 26.6333Z" fill="black"/>
<path d="M82.0586 7.13693C82.0586 6.211 82.8233 5.46094 83.7495 5.46094C84.6905 5.46094 85.4549 6.211 85.4549 7.13693C85.4549 8.06351 84.6905 8.82807 83.7495 8.82807C82.8233 8.82807 82.0586 8.06356 82.0586 7.13693ZM82.3529 11.2686H85.1609V26.6343H82.3529V11.2686Z" fill="black"/>
<path d="M103.502 13.5323V11.2676H100.532V7.59203H97.7381V11.2676H95.4593H92.3704V9.91507C92.3848 8.54748 92.9143 7.97393 94.1788 7.97393C94.5902 7.97393 95.0019 8.01854 95.3402 8.07695V5.87136C94.8402 5.79787 94.3845 5.75391 93.8553 5.75391C90.856 5.75391 89.5916 7.00403 89.5916 9.8711V11.2676H87.4453V13.5323H89.5916V26.6333H92.3849V13.5323H95.4593H97.7382V22.6046C97.7382 25.5748 98.8704 26.7212 101.811 26.7212C102.443 26.7212 103.163 26.6772 103.487 26.6037V24.3102C103.296 24.3397 102.737 24.3837 102.428 24.3837C101.12 24.3837 100.532 23.7662 100.532 22.3842V13.5323H103.502Z" fill="black"/>
</g>
<defs>
<clipPath id="clip0_235_4064">
<rect width="103" height="32" fill="white" transform="translate(0.5)"/>
</clipPath>
</defs>
</svg>
