<svg width="25" height="25" viewBox="0 0 25 25" fill="none" xmlns="http://www.w3.org/2000/svg">
<g clip-path="url(#clip0_71_1083)">
<path d="M13.9654 12.5001L7.39011 20.0321C7.13884 20.3193 7 20.6905 7 21.0751C7 21.4597 7.13884 21.8309 7.39011 22.1181C7.92636 22.7341 8.76098 22.7341 9.29861 22.1181L16.7841 13.5431C17.0261 13.2659 17.1746 12.8431 17.1746 12.5001C17.1746 12.0787 17.0522 11.7637 16.7841 11.4571L9.29861 2.88208C9.02361 2.56708 8.73486 2.42008 8.34436 2.42008C7.95386 2.42008 7.66373 2.56708 7.39011 2.88208C7.13884 3.16922 7 3.5405 7 3.92508C7 4.30966 7.13884 4.68094 7.39011 4.96808L13.9654 12.5001Z" fill="#E56102"/>
</g>
<defs>
<clipPath id="clip0_71_1083">
<rect width="21" height="11" fill="white" transform="matrix(0 -1 1 0 7 23)"/>
</clipPath>
</defs>
</svg>
