<svg width="25" height="25" viewBox="0 0 25 25" fill="none" xmlns="http://www.w3.org/2000/svg">
<g clip-path="url(#clip0_71_1073)">
<path d="M11.0346 12.5001L17.6099 20.0321C17.8612 20.3193 18 20.6905 18 21.0751C18 21.4597 17.8612 21.8309 17.6099 22.1181C17.0736 22.7341 16.239 22.7341 15.7014 22.1181L8.21589 13.5431C7.97389 13.2659 7.82539 12.8431 7.82539 12.5001C7.82539 12.0787 7.94777 11.7637 8.21589 11.4571L15.7014 2.88208C15.9764 2.56708 16.2651 2.42008 16.6556 2.42008C17.0461 2.42008 17.3363 2.56708 17.6099 2.88208C17.8612 3.16922 18 3.5405 18 3.92508C18 4.30966 17.8612 4.68094 17.6099 4.96808L11.0346 12.5001Z" fill="#E56102"/>
</g>
<defs>
<clipPath id="clip0_71_1073">
<rect width="21" height="11" fill="white" transform="matrix(0 -1 -1 0 18 23)"/>
</clipPath>
</defs>
</svg>
