<svg width="35" height="35" viewBox="0 0 35 35" fill="none" xmlns="http://www.w3.org/2000/svg">
<g clip-path="url(#clip0_433_1944)">
<path d="M17.5002 34.0902C26.6602 34.0902 34.0902 26.6602 34.0902 17.5002C34.0902 8.34016 26.6602 0.910156 17.5002 0.910156C8.34016 0.910156 0.910156 8.34016 0.910156 17.5002C0.910156 26.6602 8.34016 34.0902 17.5002 34.0902Z" fill="#2CB5E5"/>
<path d="M7.81952 17.3597C7.81952 17.3597 16.1095 13.9597 18.9895 12.7597C20.0895 12.2797 23.8295 10.7497 23.8295 10.7497C23.8295 10.7497 25.5595 10.0797 25.4095 11.7097C25.3595 12.3797 24.9795 14.7297 24.5995 17.2697C24.0195 20.8697 23.3995 24.7997 23.3995 24.7997C23.3995 24.7997 23.2995 25.8997 22.4895 26.0897C21.6795 26.2797 20.3295 25.4197 20.0895 25.2297C19.8995 25.0897 16.4895 22.9297 15.2495 21.8697C14.9095 21.5797 14.5295 21.0097 15.2995 20.3397C17.0295 18.7597 19.0895 16.7897 20.3295 15.5497C20.9095 14.9697 21.4795 13.6297 19.0795 15.2597C15.6795 17.6097 12.3195 19.8097 12.3195 19.8097C12.3195 19.8097 11.5495 20.2897 10.1095 19.8597C8.66952 19.4297 6.98952 18.8497 6.98952 18.8497C6.98952 18.8497 5.83952 18.1297 7.79952 17.3597H7.81952Z" fill="white"/>
</g>
<defs>
<clipPath id="clip0_433_1944">
<rect width="35" height="35" fill="white"/>
</clipPath>
</defs>
</svg>
