<svg width="1920" height="582" viewBox="0 0 1920 582" fill="none" xmlns="http://www.w3.org/2000/svg">
<g opacity="0.2">
<mask id="mask0_71_1016" style="mask-type:luminance" maskUnits="userSpaceOnUse" x="3" y="-17" width="1918" height="960">
<path d="M1920.01 -17H3.00391V942.367H1920.01V-17Z" fill="white"/>
</mask>
<g mask="url(#mask0_71_1016)">
<path d="M1954.08 -19.4003C1954.19 -19.5144 1929.67 88.5307 1892.97 176.454C1883.3 197.239 1844.85 306.015 1749.7 425.328C1702.22 484.369 1639.7 543.947 1564.27 590.533C1489.05 637.306 1401.57 670.642 1310.88 686.567C1129.99 717.347 935.346 692.454 799.293 603.182C730.114 563.075 670.158 522.896 619.043 495.045C568.181 466.568 526.747 449.802 501.265 441.392C450.686 423.291 378.551 411.03 301.111 421.173C223.841 430.158 142.519 463.601 79.5271 515.986C15.8235 567.631 -27.5496 635.357 -51.7558 687.721C-76.1961 740.41 -84.5661 776.824 -85.0117 776.549C-84.5629 776.824 -76.3115 740.372 -52.0123 687.565C-27.9439 635.07 15.2817 567.082 78.995 515.111C141.977 462.375 223.463 428.561 300.948 419.36C378.58 408.98 451.045 421.156 501.788 439.304C527.35 447.752 568.912 464.569 619.844 493.1C671.036 520.99 731.024 561.173 800.113 601.247C935.878 690.337 1129.97 715.116 1310.61 684.429C1401.1 668.534 1488.37 635.29 1563.41 588.627C1638.63 542.172 1700.99 482.755 1748.35 423.853C1843.27 304.853 1881.65 196.301 1891.29 175.554C1927.89 87.8629 1954.17 -19.4764 1954.08 -19.4003Z" fill="url(#paint0_linear_71_1016)"/>
<path d="M2002.08 -17.9422C2002.12 -18.0902 1977.39 91.3326 1939.85 180.051C1929.98 201.009 1890.65 310.838 1793.63 430.644C1745.25 489.927 1681.48 549.576 1604.41 594.945C1527.61 640.564 1438.38 672.041 1346.17 683.959C1253.94 696.41 1159.61 690.367 1070.62 675.308C980.916 663.318 898.141 630.569 826.542 594.548C754.734 558.633 691.823 523.078 638.711 498.721C585.794 473.833 543.101 459.802 517.019 452.672C465.074 437.567 392.164 427.973 313.813 436.417C235.655 444.283 152.355 473.228 86.5581 522.727C20.0431 571.329 -25.7215 638.472 -50.7772 691.06C-76.115 743.956 -84.6422 780.822 -85.123 780.518C-84.639 780.822 -76.2369 743.918 -51.0337 690.895C-26.119 638.168 19.5141 570.742 86.0548 521.797C151.868 471.961 235.331 442.664 313.675 434.571C392.196 425.902 465.356 435.378 517.462 450.529C543.614 457.676 586.413 471.749 639.413 496.68C692.598 521.057 755.549 556.643 827.279 592.528C898.856 628.519 981.3 661.15 1070.89 673.136C1159.79 688.177 1253.93 694.191 1345.97 681.775C1437.96 669.894 1526.96 638.48 1603.56 592.972C1680.42 547.734 1744.02 488.253 1792.27 429.127C1889.05 309.633 1928.31 200.029 1938.15 179.108C1975.6 90.6564 2002.11 -18.0521 2002.08 -17.9422Z" fill="url(#paint1_linear_71_1016)"/>
<path d="M2049.83 -16.4969C2049.88 -16.6533 2024.96 94.2191 1986.62 183.88C1976.6 205.041 1936.37 316.129 1837.3 436.519C1787.91 496.054 1722.8 555.865 1644 599.987C1565.57 644.503 1474.51 674.29 1380.79 682.066C1287.02 690.544 1191.96 678.698 1102.3 660.757C1011.94 645.969 927.567 616.795 853.416 584.899C779.121 553.249 713.391 522.596 658.356 502.068C603.458 481.038 559.62 469.733 532.936 464.011C479.673 452.118 405.945 444.743 326.563 451.611C247.411 458.356 162.223 482.873 93.6528 529.362C24.3616 574.845 -23.8681 641.401 -49.783 694.288C-76.0344 747.455 -84.7122 784.816 -85.2188 784.482C-84.709 784.816 -76.153 747.43 -50.0394 694.115C-24.2592 641.096 23.8487 574.228 93.1783 528.411C161.79 481.571 247.132 456.704 326.447 449.739C405.981 442.66 479.872 449.908 533.289 461.839C560.037 467.565 603.977 478.883 658.949 499.964C714.058 520.512 779.826 551.195 854.067 582.807C928.205 614.691 1012.31 643.789 1102.62 658.564C1192.23 676.504 1287.1 688.312 1380.66 679.86C1474.14 672.096 1564.96 642.394 1643.18 597.992C1721.76 554.005 1786.68 494.356 1835.94 434.997C1934.76 314.903 1974.91 204.052 1984.93 182.929C2023.14 93.5345 2049.87 -16.6068 2049.83 -16.4969Z" fill="url(#paint2_linear_71_1016)"/>
<path d="M2097.68 -14.8651C2097.74 -15.0214 2072.49 97.2457 2033.25 187.908C2023.03 209.318 1981.68 321.611 1880.64 442.935C1830.13 502.787 1763.38 562.323 1682.94 605.562C1602.83 649.131 1509.79 676.86 1414.63 680.752C1319.32 685.156 1223.68 667.291 1133.32 646.375C1042.32 628.088 956.253 602.384 879.726 574.579C803.071 547.218 734.655 522.072 677.847 505.446C621.122 488.422 576.198 479.978 548.933 475.756C441.783 459.722 245.809 447.88 100.79 535.938C28.7769 578.172 -21.9918 644.153 -48.7754 697.4C-75.9436 750.926 -84.7818 788.823 -85.3203 788.468C-84.7785 788.823 -76.0687 750.892 -49.0382 697.226C-22.3861 643.836 28.2768 577.529 100.354 534.95C171.696 491.216 258.843 470.702 339.226 464.895C419.898 459.105 494.568 465.03 549.199 473.529C576.518 477.755 621.53 486.225 678.322 503.269C735.204 519.917 803.668 545.093 880.293 572.428C956.823 600.237 1042.68 625.882 1133.68 644.165C1224.05 665.098 1319.49 682.899 1414.56 678.521C1509.46 674.633 1602.25 646.976 1682.13 603.534C1762.35 560.409 1828.91 501.05 1879.26 441.371C1980.06 320.36 2021.32 208.312 2031.52 186.944C2070.65 96.5526 2097.73 -14.9623 2097.68 -14.8651Z" fill="url(#paint3_linear_71_1016)"/>
<path d="M2145.62 -13.5848C2145.7 -13.7496 2120 100.398 2079.83 192.185C2069.39 213.836 2027.04 327.65 1923.64 449.73C1872.14 510.166 1803.57 569.402 1721.39 611.707C1639.46 654.097 1544.4 679.941 1447.79 679.763C1350.98 680.177 1254.9 656.062 1163.79 632.074C1072.05 610.477 984.331 587.169 905.545 563.73C748.139 515.699 621.107 491.195 565.231 487.429C509.609 482.032 433.99 477.979 352.258 482.112C270.814 486.605 182.102 502.508 108.105 542.578C33.3677 581.388 -20.0744 646.718 -47.7428 700.404C-75.86 754.332 -84.8488 792.825 -85.4258 792.44C-84.8488 792.825 -75.9818 754.302 -48.0057 700.214C-20.4752 646.384 32.8805 580.712 107.698 541.551C181.766 501.126 270.631 484.91 352.178 480.177C434.035 475.845 509.677 479.746 565.417 485.159C621.37 488.925 748.617 513.488 906.019 561.52C984.844 584.972 1072.4 608.229 1164.22 629.855C1255.36 653.852 1351.25 677.908 1447.79 677.489C1544.12 677.671 1638.92 651.891 1720.59 609.624C1802.55 567.441 1870.91 508.383 1922.26 448.12C2025.39 326.357 2067.66 212.792 2078.07 191.179C2118.13 99.6966 2145.69 -13.6947 2145.62 -13.5848Z" fill="url(#paint4_linear_71_1016)"/>
<path d="M2193.48 -11.9832C2193.57 -12.1438 2167.49 103.707 2126.32 196.702C2115.64 218.599 2072.24 334.074 1966.29 456.983C1913.63 517.943 1843.3 577.119 1759.2 618.346C1675.32 659.312 1578.23 683.605 1480.15 679.087C1381.85 675.359 1285.5 644.934 1193.59 617.822C1101.08 592.701 1011.57 571.494 930.665 552.383C768.73 513.923 638.315 501.143 581.626 499.19C524.943 496.908 448.173 494.732 365.142 497.242C282.409 500.534 192.015 512.262 115.405 549.04C38.0325 584.409 -18.1473 649.076 -46.6845 703.303C-75.7762 757.691 -84.906 796.839 -85.5215 796.413C-84.9028 796.839 -75.8948 757.666 -46.9441 703.105C-18.5481 648.721 37.5645 583.695 115.03 547.975C191.726 510.838 282.281 498.802 365.091 495.285C448.234 492.572 524.94 494.592 581.725 496.883C638.476 498.84 769.057 511.637 931.056 550.109C1012.03 569.245 1101.45 590.428 1194.09 615.574C1286.05 642.698 1382.23 673.06 1480.24 676.771C1578 681.272 1674.81 657.051 1758.45 616.221C1842.3 575.103 1912.4 516.117 1964.92 455.338C2070.57 332.751 2113.89 217.538 2124.55 195.675C2165.59 102.976 2193.56 -12.0931 2193.48 -11.9832Z" fill="url(#paint5_linear_71_1016)"/>
<path d="M2241.39 -10.6775C2241.49 -10.8677 2214.95 107.134 2172.71 201.419C2161.78 223.602 2117.25 340.835 2008.64 464.67C1954.71 526.124 1882.56 585.297 1796.44 625.391C1710.52 664.89 1611.29 687.552 1511.78 678.613C1412.04 670.528 1315.55 633.814 1222.82 603.529C1129.52 574.718 1037.99 555.793 955.114 540.908C788.94 512.22 655.76 511.248 598.189 511.041C540.509 511.818 462.485 511.476 378.082 512.334C293.968 514.367 201.929 522.033 122.771 555.438C42.8433 587.296 -16.2024 651.214 -45.5666 706.118C-75.7162 760.983 -84.955 800.854 -85.625 800.385C-84.9518 800.854 -75.8444 760.95 -45.8327 705.906C-16.6096 650.855 42.3849 586.556 122.431 554.343C201.695 520.567 293.881 512.613 378.057 510.356C462.562 509.278 540.441 509.477 598.205 508.687C655.811 508.906 789.104 509.878 955.416 538.588C1038.39 553.498 1129.89 572.406 1223.35 601.268C1316.18 631.596 1412.49 668.22 1511.95 676.272C1611.1 685.189 1710.04 662.599 1795.7 623.206C1881.56 583.242 1953.47 524.26 2007.23 462.992C2115.57 339.487 2160.01 222.521 2170.92 200.379C2213.02 106.391 2241.47 -10.8043 2241.39 -10.6775Z" fill="url(#paint6_linear_71_1016)"/>
<path d="M2289.33 -9.18924C2289.44 -9.37519 2262.39 110.685 2219.03 206.356C2207.84 228.835 2162.08 347.94 2050.66 472.755C1995.38 534.747 1921.31 593.906 1833.06 632.767C1745.06 670.782 1643.57 691.715 1542.67 678.246C1441.54 665.58 1345 622.827 1251.52 588.932C1157.27 556.871 1063.72 539.396 978.94 528.982C808.81 510.255 673.459 521.408 614.94 522.888C556.32 526.793 476.944 528.23 391.086 527.389C305.51 528.132 211.862 531.784 130.216 561.795C47.7907 590.085 -14.201 653.176 -44.4212 708.836C-75.6446 764.23 -84.9925 804.874 -85.7266 804.35C-84.9957 804.874 -75.7793 764.192 -44.6872 708.629C-14.6178 652.808 47.3516 589.304 129.908 560.658C211.669 530.284 305.461 526.341 391.079 525.377C477.024 525.994 556.185 524.405 614.859 520.5C673.389 519.025 808.801 507.855 979.148 526.594C1064.06 537.037 1157.66 554.509 1252.1 586.645C1345.72 620.591 1442.1 663.255 1542.91 675.879C1643.42 689.298 1744.61 668.437 1832.34 630.531C1920.31 591.784 1994.14 532.832 2049.24 471.018C2160.36 346.537 2206.03 227.715 2217.2 205.269C2260.45 109.933 2289.42 -9.32025 2289.33 -9.18924Z" fill="url(#paint7_linear_71_1016)"/>
<path d="M2337.18 -7.76927C2337.28 -7.97636 2309.83 114.362 2265.24 211.482C2253.79 234.287 2206.72 355.345 2092.35 481.221C2035.67 543.774 1959.53 602.891 1869.09 640.45C1778.94 676.94 1675.09 695.996 1572.85 677.899C1470.39 660.58 1374.01 611.525 1279.64 574.334C1184.49 538.745 1088.68 522.845 1002.12 516.928C828.329 508.349 691.394 531.573 631.852 534.755C602.058 537.38 567.068 541.065 528.458 542.502C489.859 543.727 447.838 542.802 404.135 542.434C317.027 541.821 221.789 541.542 137.722 568.13C52.8676 592.786 -12.1567 654.989 -43.2456 711.46C-75.5686 767.437 -85.0319 808.91 -85.8301 808.327C-85.0287 808.893 -75.7033 767.404 -43.5181 711.24C-12.5703 654.604 52.4509 591.975 137.456 566.947C221.654 540.012 317.023 539.991 404.158 540.376C447.858 540.634 489.894 541.462 528.41 540.165C566.904 538.673 601.911 534.945 631.691 532.321C691.218 529.151 828.153 505.915 1002.23 514.503C1088.96 520.428 1184.88 536.348 1280.29 572.027C1374.83 609.281 1471.05 658.234 1573.17 675.478C1674.99 693.528 1778.54 674.527 1868.4 638.147C1958.55 600.715 2034.42 541.796 2090.93 479.45C2205 353.908 2251.96 233.133 2263.39 210.371C2307.83 113.593 2337.28 -7.90451 2337.18 -7.76927Z" fill="url(#paint8_linear_71_1016)"/>
<path d="M2385.07 -6.31123C2385.18 -6.531 2357.22 118.157 2311.38 216.794C2299.64 239.95 2251.2 363.045 2133.76 490.024C2075.57 553.148 1997.27 612.197 1904.56 648.358C1812.19 683.279 1705.9 700.332 1602.39 677.46C1498.65 655.365 1402.58 599.996 1307.25 559.576C1211.16 520.512 1112.95 505.682 1024.68 504.841C936.169 504.076 857.273 515.521 793.121 524.912C728.946 534.679 679.193 542.603 648.954 546.66C618.721 550.701 583.18 555.827 543.865 557.83C504.557 559.669 461.748 558.549 417.256 557.467C328.541 555.468 231.736 551.326 145.313 574.444C58.0959 595.449 -10.0284 656.65 -42.0373 714.009C-75.4791 770.611 -85.0641 812.933 -85.9297 812.304C-85.0609 812.933 -75.617 770.578 -42.3098 713.789C-10.4547 656.265 57.6888 594.582 145.079 573.24C231.652 549.758 328.589 553.6 417.304 555.367C461.786 556.339 504.595 557.349 543.791 555.455C582.958 553.405 618.497 548.233 648.714 544.209C678.934 540.139 728.664 532.228 792.861 522.452C857.036 513.066 936.012 501.596 1024.71 502.365C1113.17 503.214 1211.59 518.065 1307.96 557.23C1403.49 597.748 1499.41 653.023 1602.78 675.017C1705.85 697.809 1811.83 680.824 1903.9 646.008C1996.3 609.966 2074.33 551.136 2132.33 488.211C2249.45 361.579 2297.8 238.767 2309.51 215.662C2355.2 117.363 2385.17 -6.47183 2385.07 -6.31123Z" fill="url(#paint9_linear_71_1016)"/>
<path d="M2432.96 -4.86197C2433.07 -5.09865 2404.62 122.045 2357.44 222.284C2345.41 245.799 2295.52 371.02 2174.86 499.157C2115.1 562.855 2034.54 621.791 1939.47 656.442C1844.84 689.758 1736.02 704.655 1631.31 676.859C1526.38 649.87 1430.75 588.2 1334.42 544.615C1237.31 502.132 1136.5 488.777 1046.66 492.855C956.52 496.79 876.862 514.502 812.052 528.162C747.23 542.383 696.875 553.025 666.202 558.51C635.55 563.971 599.466 570.522 559.417 573.138C519.378 575.589 475.739 574.266 430.43 572.457C340.048 569.021 241.681 561.08 152.967 580.741C63.4479 598.052 -7.84039 658.171 -40.795 716.472C-75.3876 773.73 -85.0977 816.969 -86.0273 816.276C-85.0945 816.956 -75.5287 773.696 -41.0706 716.235C-8.26994 657.744 63.0696 597.156 152.765 579.507C241.643 559.487 340.141 567.145 430.503 570.323C475.79 572.013 519.414 573.235 559.315 570.724C599.194 568.058 635.267 561.469 665.879 556.017C696.516 550.54 746.832 539.911 811.664 525.685C876.496 512.017 956.241 494.271 1046.59 490.324C1136.66 486.258 1237.75 499.63 1335.18 542.252C1431.77 585.956 1527.24 647.52 1631.8 674.399C1736.02 702.086 1844.53 687.243 1938.84 654.029C2033.57 619.492 2113.85 560.771 2173.42 497.288C2293.75 369.507 2343.53 244.578 2355.53 221.118C2402.55 121.246 2433.06 -5.03525 2432.96 -4.86197Z" fill="url(#paint10_linear_71_1016)"/>
<path d="M2480.96 -3.42059C2481.11 -3.65303 2451.92 126.026 2403.42 227.935C2391.11 251.83 2339.68 379.257 2215.67 508.586C2154.28 572.859 2071.33 631.63 1973.84 664.675C1876.91 696.33 1765.47 708.903 1659.65 676.04C1553.62 644.034 1458.57 576.096 1361.13 529.434C1262.93 483.587 1159.35 471.872 1068.07 481.026C976.412 489.791 896.234 513.619 830.876 531.488C765.544 550.054 714.631 563.422 683.558 570.311C652.511 577.199 615.877 585.208 575.068 588.433C534.272 591.67 489.755 589.946 443.606 587.444C351.496 582.512 251.581 570.818 160.626 587.042C115.387 595.094 72.9596 611.272 38.6362 635.45C4.1172 659.337 -21.647 690.24 -39.6021 718.826C-75.2302 776.853 -85.3218 820.913 -86.1328 820.253C-85.3154 820.917 -75.3777 776.815 -39.8778 718.59C-21.9868 689.906 3.73251 658.839 38.2739 634.761C72.6166 610.376 115.137 593.99 160.456 585.77C251.584 569.182 351.634 580.597 443.702 585.276C489.819 587.659 534.301 589.27 574.933 585.977C615.54 582.702 652.146 574.659 683.139 567.792C714.173 560.903 765.025 547.569 830.367 528.986C895.731 511.121 975.998 487.251 1067.91 478.461C1159.44 469.281 1263.4 481.026 1361.95 527.042C1459.67 573.852 1554.58 641.676 1660.22 673.55C1765.52 706.27 1876.63 693.76 1973.23 662.199C2070.38 629.28 2153.02 570.716 2214.22 506.667C2337.87 377.681 2389.18 250.583 2401.47 226.743C2449.83 125.198 2481.09 -3.57696 2480.96 -3.42059Z" fill="url(#paint11_linear_71_1016)"/>
<path d="M2528.72 -1.80238C2528.9 -2.05173 2499.21 130.083 2449.32 233.741C2436.7 258.034 2383.66 387.722 2256.22 518.28C2193.11 583.12 2107.68 641.671 2007.73 672.992C1908.44 702.948 1794.34 713.04 1687.5 674.961C1580.49 637.816 1486.11 563.687 1387.48 514.037C1288.14 464.813 1181.6 455.169 1089.03 469.416C995.975 483.109 915.474 512.883 849.677 534.843C783.95 557.657 732.531 573.721 701.07 582.03C669.641 590.343 632.478 599.852 590.884 603.715C549.306 607.641 503.881 605.659 456.867 602.404C362.978 595.98 261.521 580.559 168.383 593.339C122.06 599.704 78.3025 614.399 42.7385 637.931C6.96933 661.146 -19.7662 692.217 -38.3047 721.129C-75.1126 779.917 -85.374 824.931 -86.2363 824.221C-85.3644 824.927 -75.26 779.879 -38.5868 720.884C-20.106 691.866 6.59425 660.626 42.3891 637.212C77.9851 613.469 121.842 598.584 168.251 592.037C261.572 578.906 363.167 594.028 456.988 600.198C503.965 603.326 549.341 605.185 590.724 601.208C632.083 597.286 669.206 587.769 700.57 579.473C731.989 571.181 783.325 555.129 849.055 532.324C914.855 510.369 995.437 480.539 1088.77 466.812C1181.61 452.506 1288.62 462.181 1388.36 511.615C1487.31 561.439 1581.55 635.458 1688.17 672.447C1794.45 710.352 1908.21 700.323 2007.16 670.456C2106.75 639.241 2191.85 580.918 2254.74 516.285C2381.84 386.103 2434.75 256.732 2447.33 232.494C2497.06 129.234 2528.88 -1.96721 2528.72 -1.80238Z" fill="url(#paint12_linear_71_1016)"/>
<path d="M2576.77 -0.437178C2577 -0.678076 2546.46 134.233 2495.14 239.688C2482.22 264.395 2427.51 396.415 2296.49 528.216C2231.6 593.631 2143.59 651.907 2041.13 681.381C1990.03 696.258 1935.71 704.169 1880.35 704.051C1825.05 705.036 1768.38 695.29 1714.88 673.567C1606.98 631.173 1513.37 550.945 1413.47 498.379C1312.87 445.863 1203.28 438.289 1109.55 457.861C1015.22 476.571 934.592 512.161 868.449 538.161C802.431 565.15 750.563 583.931 718.724 593.656C686.936 603.402 649.253 614.437 606.851 618.976C564.475 623.621 518.098 621.385 470.196 617.378C374.48 609.42 271.478 590.33 176.204 599.683C128.821 604.353 83.7519 617.509 46.9345 640.378C9.90871 662.87 -17.8302 694.111 -36.9778 723.391C-74.9846 782.96 -85.4223 828.963 -86.3359 828.19C-85.4159 828.959 -75.1449 782.922 -37.2631 723.15C-18.1796 693.76 9.52723 662.338 46.5947 639.63C83.4538 616.558 128.628 603.199 176.108 598.352C271.571 588.631 374.714 607.434 470.343 615.126C518.194 619.005 564.507 621.127 606.665 616.423C648.795 611.85 686.429 600.803 718.137 591.082C749.912 581.37 801.693 562.614 867.702 535.638C933.845 509.646 1014.55 474.002 1109.17 455.216C1203.21 435.58 1313.37 443.183 1414.4 495.932C1514.65 548.71 1608.13 628.823 1715.62 671.044C1822.78 714.287 1939.26 706.912 2040.58 678.795C2142.68 649.418 2230.34 591.374 2295.01 526.192C2425.65 394.763 2480.24 263.089 2493.13 238.428C2544.28 133.359 2576.98 -0.602003 2576.77 -0.437178Z" fill="url(#paint13_linear_71_1016)"/>
<path d="M2624.48 1.15661C2624.73 0.898808 2593.69 138.456 2540.9 245.757C2527.67 270.904 2471.22 405.308 2336.53 538.373C2269.69 604.18 2179.18 662.359 2074.11 689.805C2021.74 703.895 1966.17 710.289 1909.73 708.772C1853.3 708.227 1795.78 696.178 1741.88 671.856C1633.27 623.993 1540.42 537.958 1439.18 482.522C1337.24 426.655 1224.41 422.01 1129.69 446.869C1034.24 470.684 953.593 511.789 887.158 541.661C820.913 572.631 768.628 594.088 736.436 605.22C704.283 616.217 666.158 629.191 622.913 634.424C579.697 639.406 532.352 637.196 483.535 632.336C385.957 622.788 281.419 600.06 184.056 606.023C135.637 609.011 89.2828 620.62 51.2055 642.779C12.9167 664.54 -15.8545 695.95 -35.6144 725.597C-74.8521 785.953 -85.4694 832.983 -86.4375 832.167C-85.463 832.983 -75.0124 785.919 -35.9061 725.335C-16.2039 695.578 12.5352 663.982 50.8817 642.014C89.0071 619.648 135.477 607.828 184.002 604.658C281.557 598.356 386.242 620.777 483.715 630.028C532.467 634.77 579.729 636.858 622.701 631.824C665.641 626.575 703.703 613.575 735.773 602.621C767.894 591.501 820.073 570.099 886.309 539.129C952.744 509.266 1033.44 468.111 1129.23 444.194C1224.25 419.246 1337.75 423.895 1440.16 480.037C1541.79 535.723 1634.54 621.66 1742.72 669.307C1796.44 693.511 1853.51 705.488 1909.81 706.038C1966.06 707.547 2021.44 701.173 2073.61 687.129C2178.29 659.79 2268.45 601.839 2335.04 536.281C2469.35 403.588 2525.66 269.543 2538.86 244.456C2591.46 137.568 2624.71 0.979108 2624.48 1.15661Z" fill="url(#paint14_linear_71_1016)"/>
<path d="M2672.4 2.44174C2672.68 2.19239 2640.91 142.75 2586.6 251.953C2573.04 277.539 2514.8 414.391 2376.34 548.723C2307.45 614.814 2214.42 672.993 2106.68 698.22C2000.11 722.297 1877.68 724.714 1768.54 669.794C1659.37 616.365 1567.28 524.671 1464.62 466.442C1413.18 437.618 1357.94 421.753 1304.06 417.535C1250.02 413.748 1197.63 422.074 1149.51 436.224C1053.05 465.212 972.516 511.587 905.841 545.228C839.425 580.07 786.768 604.159 754.234 616.716C721.747 629.095 683.151 643.692 639.053 649.651C595 655.407 546.639 652.931 496.9 647.284C397.424 636.144 291.341 609.818 191.938 612.396C142.497 613.724 94.886 623.765 55.5457 645.188C15.9841 666.168 -13.8481 697.738 -34.2427 727.761C-74.7371 788.95 -85.5275 837.032 -86.5469 836.149C-85.5211 837.024 -74.8942 788.907 -34.528 727.487C-14.2007 697.357 15.6091 665.58 55.2315 644.389C94.6359 622.755 142.369 612.51 191.913 611.019C291.527 608.086 397.751 634.098 497.108 644.939C546.777 650.463 595.033 652.812 638.813 647.005C682.561 641.038 721.093 626.424 753.49 614.074C785.938 601.556 838.489 577.525 904.886 542.688C971.555 509.068 1052.15 462.629 1148.95 433.515C1197.24 419.335 1249.88 410.95 1304.22 414.758C1358.41 419.001 1413.96 434.964 1465.64 463.914C1568.75 522.444 1660.72 614.045 1769.47 667.237C1878.03 721.887 2000.01 719.495 2106.21 695.506C2213.55 670.36 2306.21 612.418 2374.84 546.576C2512.9 412.633 2571 276.145 2584.53 250.622C2638.63 141.837 2672.67 2.28114 2672.4 2.44174Z" fill="url(#paint15_linear_71_1016)"/>
<path d="M2720.27 3.94957C2720.6 3.69176 2688.09 147.124 2632.24 258.258C2618.33 284.262 2558.32 423.717 2415.86 559.157C2344.98 625.645 2249.28 683.693 2138.87 706.616C2029.83 728.356 1904.52 728.42 1794.93 667.291C1685.28 608.368 1594.01 511.024 1489.82 450.102C1437.61 420.154 1381.14 403.756 1326.06 401.068C1270.84 398.127 1217.67 409.572 1169.07 425.915C1071.77 460.19 991.368 511.539 924.504 548.862C857.963 587.448 804.96 614.132 772.105 628.092C739.301 641.857 700.249 658.111 655.292 664.844C610.393 671.378 560.981 668.664 510.302 662.206C408.89 649.439 301.271 619.529 199.862 618.79C149.421 618.435 100.582 626.909 59.9687 647.554C19.1346 667.73 -11.7844 699.448 -32.8202 729.852C-74.5936 791.886 -85.5699 841.054 -86.6406 840.112C-85.5603 841.042 -74.7571 791.852 -33.1119 729.569C-12.137 699.047 18.7563 667.134 59.6706 646.73C100.348 625.869 149.321 617.188 199.869 617.366C301.492 617.771 409.262 647.351 510.529 659.831C561.131 666.145 610.413 668.728 655.013 662.143C699.582 655.406 738.563 639.16 771.265 625.429C804.033 611.512 856.918 584.878 923.439 546.313C990.291 508.999 1070.74 457.595 1168.39 423.189C1217.17 406.787 1270.62 395.262 1326.17 398.224C1381.58 400.929 1438.41 417.441 1490.88 447.541C1595.57 508.788 1686.72 606.043 1795.96 664.696C1904.93 725.52 2029.75 725.478 2138.42 703.823C2248.43 680.98 2343.72 623.172 2414.34 556.934C2556.39 421.895 2616.25 282.817 2630.12 256.872C2685.78 146.181 2720.58 3.78051 2720.27 3.94957Z" fill="url(#paint16_linear_71_1016)"/>
<path d="M2768.16 5.45445C2768.51 5.19242 2735.29 151.566 2677.91 264.729C2663.63 291.13 2601.93 433.451 2455.18 569.731C2382.4 636.98 2283.79 694.28 2170.75 715.061C2114.51 726.311 2055.16 727.887 1995.49 721.928C1935.61 717.077 1875.74 696.985 1821.13 664.404C1711 600.173 1620.7 497.056 1514.91 433.442C1461.85 402.396 1404.02 385.803 1347.77 384.73C1291.36 383.052 1237.43 397.18 1188.46 416.08C1090.4 455.571 1010.16 511.611 943.15 552.577C876.507 594.772 823.193 624.056 790.02 639.397C756.908 654.515 717.417 672.468 671.598 680.004C625.821 687.404 575.331 684.268 523.7 676.978C420.333 662.456 311.159 629.018 207.769 625.049C156.34 623.059 106.299 629.981 64.4232 649.857C22.3228 669.248 -9.69575 701.114 -31.3759 731.924C-74.4508 794.815 -85.6163 845.095 -86.7383 844.102C-85.6035 845.091 -74.6175 794.781 -31.6708 731.624C-10.0548 700.708 21.9509 668.618 64.1347 649.012C106.091 628.916 156.273 621.782 207.817 623.595C311.425 627.222 420.752 660.347 523.963 674.556C575.501 681.698 625.85 684.682 671.278 677.252C716.686 669.734 756.104 651.789 789.1 636.705C822.176 621.41 875.365 592.207 941.983 550.016C1008.98 509.076 1089.28 452.984 1187.67 413.329C1236.83 394.357 1291.05 380.153 1347.83 381.826C1404.45 382.908 1462.68 399.628 1516.02 430.843C1622.34 494.829 1712.55 597.866 1822.26 661.814C1931.51 728.885 2059.21 731.252 2170.36 712.212C2282.97 691.512 2381.16 634.436 2453.66 567.453C2599.98 431.587 2661.51 289.655 2675.74 263.321C2732.92 150.602 2768.49 5.2854 2768.16 5.45445Z" fill="url(#paint17_linear_71_1016)"/>
<path d="M2816.02 6.96325C2816.44 6.69699 2782.44 156.058 2723.41 271.212C2708.76 298.049 2645.19 443.07 2494.29 580.432C2419.45 648.277 2317.88 704.609 2202.24 723.34C2088.19 740.089 1957.17 734.502 1847.09 661.095C1736.65 591.433 1647.26 482.738 1539.71 416.706C1485.84 384.514 1426.55 367.757 1369.13 368.509C1311.57 368.535 1256.89 385.026 1207.66 406.787C1109.01 451.493 1028.97 512.119 961.83 556.558C895.11 602.257 841.492 634.051 808.005 650.741C774.582 667.185 734.652 686.686 687.968 695.138C641.318 703.379 589.719 700.057 537.127 691.934C431.771 675.744 321.059 638.764 215.73 631.516C163.333 627.877 112.112 633.198 68.9665 652.229C25.5902 670.744 -7.5663 702.737 -29.9164 733.931C-74.3185 797.714 -85.6699 849.123 -86.8496 848.066C-85.6635 849.11 -74.4949 797.68 -30.2178 733.631C-7.93495 702.306 25.2184 670.097 68.6844 651.354C111.923 632.094 163.291 626.575 215.803 630.045C321.364 636.951 432.236 673.584 537.418 689.458C589.912 697.429 641.337 700.598 687.615 692.344C733.831 683.913 773.71 664.417 807.005 648.032C840.382 631.385 893.873 599.687 960.57 554.005C1027.68 509.587 1107.76 448.898 1206.77 404.027C1256.19 382.186 1311.16 365.585 1369.12 365.555C1426.95 364.803 1486.68 381.691 1540.86 414.069C1648.97 480.498 1738.26 589.139 1848.31 658.505C1957.74 731.522 2088.2 737.092 2201.88 720.411C2317.07 701.752 2418.2 645.665 2492.73 578.095C2643.19 441.147 2706.6 296.519 2721.2 269.762C2780.03 155.069 2816.41 6.78997 2816.02 6.96325Z" fill="url(#paint18_linear_71_1016)"/>
<path d="M2863.92 8.46812C2864.37 8.20187 2829.58 160.606 2768.87 277.805C2753.85 305.069 2688.35 452.845 2533.19 591.273C2456.25 659.705 2351.66 714.939 2233.41 731.565C2116.84 745.867 1982.99 736.915 1872.89 657.33C1762.39 581.996 1673.73 468.106 1564.33 399.725C1509.53 366.54 1448.78 349.796 1390.2 352.222C1331.48 354.166 1276.2 373.387 1226.68 397.595C1127.51 447.469 1047.69 512.478 980.434 560.316C913.64 609.425 859.794 643.768 826.051 661.937C792.333 679.746 751.983 700.84 704.43 710.243C656.905 719.376 604.165 715.864 550.592 706.904C443.223 689.015 330.976 648.539 223.732 638.045C170.383 632.796 118.005 636.448 73.5839 654.629C28.9414 672.232 -5.38205 704.343 -28.4118 735.926C-74.1699 800.597 -85.7104 853.168 -86.9414 852.048C-85.6944 853.147 -74.3494 800.559 -28.7131 735.618C-5.7475 703.904 28.5695 671.573 73.3178 653.729C117.839 635.311 170.37 631.457 223.841 636.554C331.322 646.676 443.736 686.825 550.909 704.381C604.377 713.189 656.915 716.536 704.042 707.395C751.079 698.021 791.384 676.948 824.961 659.219C858.595 641.105 912.313 606.843 979.068 557.763C1046.31 509.947 1126.16 444.887 1225.68 394.814C1275.4 370.505 1330.98 351.165 1390.14 349.217C1449.15 346.753 1510.4 363.658 1565.52 397.037C1675.54 465.867 1764.1 579.714 1874.2 654.718C1983.66 733.889 2116.89 742.802 2233.11 728.568C2350.89 712.001 2455.02 657.017 2531.64 588.864C2686.32 450.872 2751.65 303.497 2766.63 276.305C2827.11 159.592 2864.35 8.29907 2863.92 8.46812Z" fill="url(#paint19_linear_71_1016)"/>
<path d="M2911.79 9.97691C2912.29 9.70643 2876.7 165.204 2814.28 284.457C2798.86 312.157 2731.41 462.756 2571.91 602.194C2492.81 671.167 2385.18 725.339 2264.3 739.603C2145.21 751.581 2008.53 738.99 1898.56 653.243C1787.89 572.601 1700.15 453.23 1588.81 382.626C1533.03 348.541 1470.75 331.855 1411.03 336.31C1351.19 340.202 1295.36 362.086 1245.6 388.847C1146.01 443.767 1066.38 512.985 998.998 564.128C932.153 616.559 878.067 653.37 844.07 672.942C810.083 692.108 769.358 714.947 720.933 725.314C672.524 735.368 618.62 731.683 564.056 721.861C454.655 702.243 340.869 658.289 231.731 644.592C177.439 637.745 123.942 639.723 78.2517 657.026C32.3333 673.724 -3.17302 705.911 -26.892 737.896C-74.0285 803.462 -85.755 857.212 -87.0469 856.012C-85.7454 857.195 -74.2081 803.42 -27.1997 737.583C-3.54488 705.451 31.9678 673.022 77.9952 656.104C123.792 638.561 177.458 636.389 231.872 643.066C341.25 656.404 455.21 700.028 564.402 719.296C618.841 728.945 672.521 732.469 720.504 722.411C768.381 712.09 809.061 689.289 842.887 670.199C876.778 650.695 930.733 613.973 997.543 561.562C1064.89 510.45 1144.53 441.198 1244.5 386.053C1294.44 359.195 1350.59 337.159 1410.9 333.246C1471.08 328.753 1533.89 345.582 1590.03 379.891C1702.04 451.007 1789.68 570.34 1899.96 650.64C2009.3 735.947 2145.28 748.449 2264.02 736.556C2384.43 722.335 2491.58 668.407 2570.35 599.722C2729.34 460.719 2796.64 310.546 2812 282.928C2874.19 164.165 2912.27 9.81632 2911.79 9.97691Z" fill="url(#paint20_linear_71_1016)"/>
<path d="M2959.66 11.4808C2960.22 11.2145 2923.8 169.848 2859.65 291.198C2843.83 319.328 2774.4 472.789 2610.46 613.198C2529.14 682.586 2418.43 735.837 2294.9 747.379C2173.28 757.412 2033.85 740.562 1924.13 648.775C1813.36 562.923 1726.54 438.053 1613.1 365.449C1556.39 330.249 1492.44 314.155 1431.64 320.579C1370.69 326.555 1314.43 351.283 1264.45 380.448C1164.5 440.394 1085.03 513.589 1017.56 567.99C950.646 623.633 896.351 662.921 862.073 683.841C827.836 704.364 786.793 728.978 737.486 740.422C688.173 751.28 633.09 747.505 577.525 736.838C466.076 715.424 350.738 668.051 239.738 651.163C184.52 642.673 129.911 643.15 82.976 659.506C35.849 675.291 -0.984451 707.335 -25.4151 739.767C-73.8179 806.34 -85.7816 861.243 -87.1504 859.98C-85.7719 861.231 -74.0038 806.306 -25.7228 739.438C-1.3531 706.87 35.4932 674.568 82.7388 658.555C129.789 641.963 184.571 641.286 239.917 649.604C351.165 666.141 466.685 713.159 577.9 734.214C633.346 744.721 688.154 748.317 737.015 737.468C785.729 726.095 826.736 701.519 860.813 681.073C894.973 660.22 949.13 621.038 1016 565.424C1083.45 511.057 1162.94 437.807 1263.25 377.646C1313.4 348.371 1369.98 323.478 1431.42 317.439C1492.73 310.968 1557.26 327.218 1614.36 362.664C1728.53 435.817 1815.23 560.653 1925.64 646.159C2034.73 737.481 2173.4 754.2 2294.69 744.243C2417.73 732.739 2527.92 679.741 2608.89 610.658C2772.29 470.692 2841.56 317.654 2857.32 289.604C2921.25 168.783 2960.2 11.3202 2959.66 11.4808Z" fill="url(#paint21_linear_71_1016)"/>
</g>
</g>
<g opacity="0.2">
<mask id="mask1_71_1016" style="mask-type:luminance" maskUnits="userSpaceOnUse" x="-1" y="-16" width="1919" height="960">
<path d="M-0.00317383 -15.502H1917V943.865H-0.00317383V-15.502Z" fill="white"/>
</mask>
<g mask="url(#mask1_71_1016)">
<path d="M-298.651 655.363C-298.904 655.574 -204.384 715.021 -115.551 740.861C-94.1243 746.308 11.5098 786.078 162.19 764.317C236.925 753.324 321.748 724.814 404.634 671.609C488.354 619.972 566.153 539.432 638.387 450.878C711.102 362.84 781.634 268.827 859.933 194.241C937.735 120.222 1024.83 65.6057 1109.62 56.7601C1195.33 47.2974 1267.82 97.6705 1313.01 150.191C1359.55 202.943 1386.8 254.783 1403.54 285.111C1472.55 405.048 1541.33 652.616 1666.95 801.977C1697.77 838.708 1731.84 867.738 1766.03 884.821C1800.16 902.254 1833.78 907.127 1861.53 905.263C1917.47 900.699 1949.33 878.367 1949.39 879.724C1949.33 878.363 1917.55 900.855 1861.55 905.673C1833.77 907.664 1800.06 902.93 1765.8 885.59C1731.48 868.617 1697.25 839.633 1666.27 802.941C1540.02 653.698 1470.68 406.067 1401.87 286.598C1385.19 256.355 1357.99 204.646 1311.69 152.173C1266.69 99.9188 1194.85 49.9938 1109.77 59.3761C1025.58 68.1372 938.726 122.517 861.129 196.346C783.016 270.758 712.526 364.692 639.766 452.789C567.503 541.393 489.467 622.182 405.529 673.959C322.415 727.303 237.364 755.898 162.421 766.911C11.3335 788.736 -94.5537 748.861 -116.029 743.401C-205.169 717.439 -298.946 655.532 -298.651 655.363Z" fill="url(#paint22_linear_71_1016)"/>
<path d="M-298.652 619.878C-298.889 620.077 -206.187 680.398 -118.883 708.186C-97.7609 714.107 5.84412 755.981 155.044 739.774C229.057 731.511 313.437 706.635 396.5 657.264C480.268 609.317 559.099 533.129 632.459 448.481C706.337 364.424 778.081 274.299 856.784 203.115C934.99 132.49 1020.98 79.3359 1104.66 70.0381C1189.19 59.8232 1261.43 107.039 1307.12 157.552C1354.02 208.255 1382.09 258.336 1399.24 287.73C1469.74 403.991 1545.46 643.448 1670.04 789.394C1700.77 825.25 1734.33 854.006 1768.08 870.983C1801.76 888.171 1834.85 893.834 1862.29 892.262C1917.58 888.826 1949.3 867.458 1949.39 868.946C1949.3 867.454 1917.65 888.983 1862.3 892.659C1834.83 894.358 1801.66 888.831 1767.86 871.735C1733.97 854.868 1700.26 826.172 1669.38 790.354C1544.19 644.555 1467.93 405.094 1397.63 289.256C1380.54 259.934 1352.52 209.979 1305.86 159.542C1260.36 109.288 1188.76 62.49 1104.83 72.6162C1021.72 81.8295 935.936 134.772 857.935 205.237C779.411 276.251 707.709 366.305 633.789 450.425C560.379 535.12 481.323 611.548 397.33 659.618C314.056 709.12 229.438 734.064 155.217 742.347C5.62598 758.602 -98.213 716.618 -119.387 710.697C-207.001 682.782 -298.941 620.043 -298.652 619.878Z" fill="url(#paint23_linear_71_1016)"/>
<path d="M-298.651 584.389C-298.882 584.588 -207.949 645.801 -122.117 675.47C-101.312 681.852 0.318283 725.682 148.005 714.893C221.3 709.31 305.206 688.056 388.445 642.699C472.386 598.839 551.894 526.384 626.558 446.029C701.61 366.076 774.728 280.143 853.784 212.298C932.51 145.384 1017.1 92.8298 1099.83 83.2826C1183.19 72.3238 1255.18 116.455 1301.41 164.799C1348.72 213.33 1377.64 261.653 1395.22 290.058C1467.48 402.397 1549.56 633.892 1673.08 776.736C1703.49 812.165 1736.88 840.033 1770.06 857.281C1803.31 874.393 1835.89 880.513 1863.04 879.435C1917.71 877.089 1949.33 856.723 1949.4 858.181C1949.32 856.723 1917.77 877.246 1863.05 879.832C1835.87 881.032 1803.21 875.04 1769.83 858.033C1736.53 840.887 1702.98 813.078 1672.43 777.695C1548.33 635.016 1465.73 403.576 1393.67 291.626C1376.13 263.289 1347.27 215.1 1300.21 166.811C1254.16 118.699 1182.8 74.961 1100 85.831C1017.83 95.2895 933.41 147.649 854.877 214.428C775.988 282.125 702.914 367.991 627.814 448.007C553.106 528.399 473.373 601.087 389.211 645.053C305.735 690.541 221.617 711.846 148.136 717.445C0.0522308 728.261 -101.802 684.328 -122.659 677.93C-208.777 648.143 -298.927 584.554 -298.651 584.389Z" fill="url(#paint24_linear_71_1016)"/>
<path d="M-298.651 548.91C-298.869 549.101 -209.648 611.24 -125.274 642.793C-104.764 649.644 -5.0863 695.461 141.09 690.128C213.651 687.233 297.06 669.613 380.463 628.259C464.49 588.363 544.931 520.214 620.788 444.006C696.987 368.152 771.353 286.302 850.675 221.58C929.782 157.975 1013.29 106.524 1095.03 96.3723C1177.22 84.7584 1249.07 125.407 1295.89 171.579C1343.65 217.933 1373.4 264.46 1391.45 291.842C1465.69 400.027 1553.6 623.745 1675.98 763.935C1706.16 798.853 1739.26 826.138 1771.93 843.58C1804.78 860.641 1836.88 867.213 1863.75 866.634C1917.82 865.362 1949.34 845.985 1949.4 847.4C1949.34 845.985 1917.88 865.51 1863.75 867.027C1836.85 867.729 1804.67 861.288 1771.7 844.319C1738.91 826.979 1705.66 799.749 1675.34 764.886C1552.41 624.878 1464 401.29 1389.96 293.457C1371.94 266.138 1342.26 219.729 1294.74 173.612C1248.12 127.672 1176.88 87.3618 1095.21 98.8869C1014.02 108.95 930.653 160.231 851.726 223.714C772.552 288.309 698.231 370.096 621.98 446.005C546.095 522.264 465.417 590.62 381.165 630.621C297.544 672.081 213.911 689.743 141.158 692.655C-5.3877 697.988 -105.284 652.074 -125.842 645.202C-210.491 613.53 -298.914 549.067 -298.651 548.91Z" fill="url(#paint25_linear_71_1016)"/>
<path d="M-298.651 513.427C-298.862 513.613 -211.302 576.703 -128.358 610.133C-108.146 617.466 -10.3593 665.214 134.285 665.341C206.109 665.13 289.005 651.149 372.549 613.865C456.634 577.984 538.03 514.289 615.053 442.311C692.4 370.642 767.971 292.895 847.517 231.158C926.916 170.548 1009.48 120.45 1090.22 109.428C1171.34 97.1885 1243.01 134.16 1290.41 178.257C1338.8 222.075 1369.29 266.967 1387.87 293.225C1424.99 346.413 1469.22 424.413 1516.73 509.011C1564.52 593.126 1617.96 683.083 1678.76 751.02C1738.21 821.105 1810.91 856.065 1864.42 853.867C1917.92 853.656 1949.36 835.25 1949.39 836.632C1949.35 835.25 1917.98 853.812 1864.42 854.265C1810.85 856.703 1737.86 821.963 1678.14 751.971C1617.07 684.152 1563.37 594.263 1515.42 510.27C1467.75 425.774 1423.47 347.955 1386.44 294.899C1367.9 268.691 1337.47 223.914 1289.32 180.32C1242.13 136.438 1171.06 99.7709 1090.42 111.913C1010.18 122.838 927.756 172.793 848.518 233.296C769.106 294.92 693.586 372.624 616.172 444.34C539.11 516.377 457.487 580.249 373.177 616.227C289.415 653.613 206.307 667.623 134.292 667.835C-10.7086 667.716 -108.694 619.853 -128.954 612.508C-212.174 578.951 -298.904 513.579 -298.651 513.427Z" fill="url(#paint26_linear_71_1016)"/>
<path d="M-298.652 477.942C-298.85 478.124 -212.915 542.194 -131.362 577.505C-111.433 585.315 -15.4924 634.995 127.613 640.548C198.709 643.012 281.035 632.675 364.697 599.515C448.824 567.7 531.175 508.599 609.372 440.915C687.866 373.527 764.589 299.863 844.33 240.982C923.979 183.192 1005.64 134.387 1085.43 122.232C1165.59 109.004 1237 142.945 1285.06 184.578C1333.97 226.004 1365.43 268.905 1384.53 294.06C1422.56 345.114 1469.02 419.674 1517.8 501.77C1566.95 583.307 1621.06 670.965 1681.41 737.956C1740.51 806.971 1812.09 842.045 1865.05 841.119C1918.01 841.96 1949.37 824.51 1949.39 825.85C1949.37 824.514 1918.07 842.121 1865.04 841.512C1812.03 842.675 1740.16 807.816 1680.78 738.894C1620.19 672.038 1565.82 584.47 1516.52 503.063C1467.6 421.09 1421.1 346.72 1383.14 295.763C1364.09 270.668 1332.7 227.877 1284.02 186.658C1236.16 145.223 1165.34 111.557 1085.64 124.688C1006.33 136.745 924.787 185.419 845.279 243.129C765.662 301.917 688.969 375.535 610.417 442.973C532.179 510.708 449.606 569.978 365.258 601.882C281.368 635.126 198.831 645.489 127.572 643.016C-15.8867 637.45 -112.019 587.66 -131.994 579.838C-213.791 544.404 -298.898 478.086 -298.652 477.942Z" fill="url(#paint27_linear_71_1016)"/>
<path d="M-298.652 442.463C-298.844 442.632 -214.467 507.734 -134.264 544.913C-114.622 553.213 -20.4678 604.808 121.089 615.754C191.432 620.893 273.193 614.19 356.942 585.21C441.076 557.498 524.37 503.161 603.72 439.851C683.321 376.795 761.213 307.29 841.144 251.182C920.962 196.041 1001.76 148.022 1080.68 135.098C1159.86 120.615 1231.08 151.543 1279.84 190.526C1329.33 229.441 1361.71 270.348 1381.34 294.357C1420.44 343.074 1468.95 414.282 1518.94 493.944C1569.27 573.093 1624.13 658.439 1683.91 724.758C1742.76 792.632 1813.14 828.188 1865.64 828.399C1918.09 830.288 1949.39 813.768 1949.39 815.082C1949.39 813.768 1918.14 830.441 1865.62 828.78C1813.07 828.813 1742.41 793.473 1683.3 725.684C1623.27 659.504 1568.17 574.26 1517.71 495.266C1467.59 415.74 1419.04 344.735 1380.02 296.111C1360.44 272.148 1328.13 231.352 1278.87 192.626C1230.32 153.825 1159.67 123.138 1080.91 137.52C1002.44 150.347 921.751 198.247 842.048 253.324C762.226 309.356 684.379 378.815 604.704 441.939C525.312 505.287 441.784 559.793 357.426 587.573C273.466 616.624 191.493 623.348 120.977 618.196C-20.9037 607.217 -115.247 555.516 -134.927 547.199C-215.361 509.898 -298.886 442.598 -298.652 442.463Z" fill="url(#paint28_linear_71_1016)"/>
<path d="M-298.652 406.98C-298.832 407.144 -215.971 473.307 -137.085 512.366C-117.723 521.161 -25.312 574.658 114.694 590.988C184.305 598.785 265.454 595.717 349.258 570.968C433.385 547.419 517.592 497.967 598.071 439.129C757.875 321.528 918.849 180.041 1075.94 147.773C1154.17 132.419 1225.28 159.695 1274.68 196.202C1324.89 232.278 1358.08 271.379 1378.33 294.041C1418.49 340.378 1469.05 408.1 1520.1 485.529C1571.55 562.359 1626.99 645.701 1686.31 711.361C1744.83 778.344 1814.14 814.352 1866.18 815.708C1918.16 818.637 1949.41 803.029 1949.39 804.318C1949.41 803.029 1918.22 818.789 1866.17 816.08C1814.07 814.96 1744.49 779.168 1685.7 712.282C1626.15 646.767 1570.49 563.534 1518.9 486.873C1467.73 409.608 1417.17 342.11 1377.07 295.845C1356.88 273.235 1323.75 234.23 1273.77 198.332C1224.58 161.994 1154.03 134.921 1076.19 150.178C919.843 182.247 758.843 323.553 598.985 441.246C518.461 500.131 434.016 549.727 349.671 573.343C265.669 598.147 184.309 601.232 114.536 593.41C-25.7961 577.041 -118.386 523.435 -137.778 514.623C-216.891 475.441 -298.867 407.111 -298.652 406.98Z" fill="url(#paint29_linear_71_1016)"/>
<path d="M-298.652 371.504C-298.828 371.652 -217.413 438.947 -139.813 479.879C-120.723 489.185 -29.9955 544.596 108.465 566.268C177.327 576.728 257.86 577.278 341.686 556.814C425.755 537.436 510.863 493.065 592.41 438.719C754.871 330.505 916.172 195.221 1071.23 160.253C1148.65 143.627 1219.51 167.679 1269.61 201.468C1320.43 234.788 1354.71 271.539 1375.43 293.072C1416.75 336.831 1469.13 401.236 1521.21 476.514C1573.79 551.037 1629.61 632.739 1688.55 697.748C1746.71 764.063 1815.06 800.51 1866.67 803.016C1918.21 806.993 1949.42 792.286 1949.38 793.541C1949.41 792.286 1918.26 807.141 1866.65 803.392C1814.97 801.123 1746.36 764.883 1687.94 698.674C1628.78 633.804 1572.74 552.241 1520.05 477.884C1467.86 402.795 1415.49 338.623 1374.24 294.936C1353.57 273.45 1319.36 236.791 1268.78 203.619C1218.87 169.995 1148.55 146.112 1071.5 162.641C994.481 177.255 915.531 224.53 835.334 274.413C755.163 325.387 675.104 386.647 593.25 440.866C511.633 495.258 426.307 539.757 342.019 559.185C257.991 579.703 177.266 579.15 108.247 568.669C-30.5244 546.933 -121.425 491.425 -140.551 482.106C-218.359 441.039 -298.864 371.622 -298.652 371.504Z" fill="url(#paint30_linear_71_1016)"/>
<path d="M-298.652 336.011C-298.815 336.168 -218.807 404.629 -142.444 447.454C-123.627 457.284 -34.5149 514.597 102.388 541.62C170.515 554.734 250.401 558.893 334.198 542.753C418.171 527.58 504.135 488.466 586.73 438.621C669.549 389.068 750.634 331.81 831.065 283.132C911.573 235.654 989.818 188.425 1066.54 172.543C1143.19 154.594 1213.82 175.391 1264.65 206.26C1316.13 236.66 1351.38 271.15 1372.61 291.466C1415.03 332.601 1469.24 393.599 1522.26 466.891C1575.9 539.245 1632.08 619.468 1690.63 683.991C1748.45 749.752 1815.9 786.69 1867.11 790.337C1918.25 795.358 1949.44 781.542 1949.39 782.768C1949.43 781.542 1918.29 795.506 1867.09 790.713C1815.81 787.294 1748.1 750.555 1690.03 684.908C1631.26 620.533 1574.88 540.454 1521.14 468.294C1468.02 395.2 1413.85 334.456 1371.49 293.376C1350.31 273.099 1315.14 238.701 1263.9 208.441C1213.25 177.711 1143.14 157.045 1066.84 174.905C990.491 190.682 912.32 237.835 831.85 285.291C751.496 333.936 670.415 391.19 587.499 440.794C504.85 490.689 418.658 529.909 334.474 545.124C250.462 561.298 170.396 557.126 102.125 543.987C-35.076 516.9 -124.345 459.474 -143.204 449.643C-219.766 406.687 -298.857 336.134 -298.652 336.011Z" fill="url(#paint31_linear_71_1016)"/>
<path d="M-298.652 300.531C-298.815 300.675 -220.154 370.383 -144.996 415.114C-126.429 425.452 -38.8687 484.704 96.4856 517.056C163.86 532.816 243.076 540.571 326.806 528.797C410.654 517.897 497.403 484.112 580.992 438.866C664.827 393.999 746.909 340.706 827.503 294.23C908.348 249.266 985.801 201.864 1061.86 184.625C1137.78 165.362 1208.2 182.867 1259.77 210.587C1311.86 238.024 1348.07 270.178 1369.84 289.166C1413.42 327.524 1469.21 385.382 1523.2 456.688C1577.85 526.98 1634.37 605.88 1692.54 670.077C1750.04 735.391 1816.65 772.886 1867.5 777.683C1918.26 783.743 1949.45 770.803 1949.39 771.999C1949.45 770.794 1918.3 783.891 1867.47 778.046C1816.56 773.49 1749.69 736.185 1691.94 670.982C1633.57 606.941 1576.84 528.205 1522.11 458.116C1468.02 387.013 1412.31 329.434 1368.8 291.123C1347.08 272.177 1310.95 240.112 1259.08 212.793C1207.71 185.212 1137.78 167.804 1062.18 186.97C986.471 204.108 909.063 251.451 828.254 296.402C747.691 342.849 665.619 396.155 581.69 441.068C498.012 486.357 411.067 520.226 327.004 531.164C243.063 542.963 163.667 535.191 96.1553 519.398C-39.4938 486.978 -127.202 427.62 -145.788 417.261C-221.135 372.403 -298.847 300.641 -298.652 300.531Z" fill="url(#paint32_linear_71_1016)"/>
<path d="M-298.652 265.052C-298.809 265.187 -221.436 336.193 -147.442 382.868C-129.147 393.729 -43.0745 454.939 90.7345 492.608C157.368 511.039 235.911 522.323 319.516 514.986C403.22 508.422 490.617 479.933 575.189 439.441C659.993 399.329 743.017 349.945 823.833 305.548C904.879 262.516 981.778 215.372 1057.17 196.476C1132.41 175.831 1202.64 189.959 1254.91 214.417C1307.6 238.806 1344.76 268.543 1367.06 286.158C1411.78 321.646 1469.02 376.474 1523.99 445.895C1579.61 514.242 1636.46 591.989 1694.25 655.971C1751.47 720.962 1817.31 759.1 1867.83 765.026C1918.25 772.147 1949.47 760.051 1949.39 761.226C1949.46 760.051 1918.29 772.291 1867.79 765.393C1817.2 759.696 1751.11 721.748 1693.66 656.879C1635.67 593.05 1578.62 515.48 1522.93 447.348C1467.89 378.139 1410.74 323.607 1366.1 288.169C1343.85 270.592 1306.78 240.945 1254.31 216.657C1202.23 192.309 1132.47 178.256 1057.52 198.796C982.46 217.599 905.591 264.684 824.544 307.72C743.761 352.109 660.714 401.497 575.811 441.664C491.146 482.198 403.54 510.768 319.641 517.34C235.831 524.694 157.125 513.384 90.353 494.915C-43.7382 457.166 -129.923 395.851 -148.269 384.973C-222.44 338.179 -298.828 265.162 -298.652 265.052Z" fill="url(#paint33_linear_71_1016)"/>
<path d="M-298.652 229.573C-298.799 229.696 -222.68 302.075 -149.814 350.707C-131.757 362.105 -47.1329 425.305 85.1342 468.295C151.037 489.418 228.871 504.129 312.322 501.302C395.814 499.117 483.785 476.025 569.281 440.346C654.985 405.023 738.968 359.527 820.008 317.074C901.295 275.851 977.738 228.833 1052.52 208.344C1127.07 185.962 1197.16 196.6 1250.08 217.748C1303.34 238.998 1341.42 266.24 1364.24 282.452C1410.02 315.054 1468.67 366.927 1524.59 434.565C1581.18 501.019 1638.34 577.806 1695.8 641.687C1752.74 706.459 1817.87 745.315 1868.1 752.356C1918.23 760.547 1949.48 749.292 1949.39 750.45C1949.48 749.297 1918.27 760.695 1868.07 752.728C1817.76 745.899 1752.39 707.241 1695.21 642.587C1637.54 578.876 1580.21 502.274 1523.55 436.044C1467.57 368.635 1409.05 317.066 1363.35 284.515C1340.58 268.328 1302.6 241.166 1249.55 220C1196.83 198.954 1127.18 188.367 1052.91 210.652C978.424 231.04 902.01 278.015 820.704 319.255C739.661 361.704 655.649 407.221 569.839 442.591C484.237 478.311 396.071 501.467 312.367 503.656C228.724 506.496 150.736 491.746 84.6951 470.573C-47.8348 427.507 -132.578 364.201 -150.667 352.786C-223.696 304.028 -298.828 229.666 -298.652 229.573Z" fill="url(#paint34_linear_71_1016)"/>
<path d="M-298.652 194.084C-298.79 194.207 -223.866 268.031 -152.094 318.666C-134.28 330.61 -51.047 395.851 79.6942 444.145C144.856 467.977 221.982 486.099 305.205 487.807C388.461 489.996 476.909 472.381 563.274 441.563C649.818 411.087 734.746 369.437 816.056 328.814C897.634 289.378 973.616 242.048 1047.84 219.919C1121.79 196.138 1191.7 202.515 1245.18 220.722C1299.04 238.477 1337.98 263.315 1361.28 278.119C1408.07 307.78 1468.07 356.83 1524.95 422.696C1582.53 487.359 1640.01 563.326 1697.14 627.228C1753.86 691.894 1818.33 731.532 1868.31 739.706C1918.18 748.97 1949.49 738.561 1949.39 739.681C1949.49 738.548 1918.22 749.114 1868.27 740.069C1818.21 732.107 1753.5 692.655 1696.55 628.124C1639.21 564.391 1581.57 488.622 1523.94 424.201C1467 358.563 1407.17 309.838 1360.46 280.224C1337.22 265.462 1298.38 240.696 1244.73 223.009C1191.45 204.878 1121.94 198.526 1048.25 222.206C974.311 244.237 898.339 291.534 816.716 331.007C735.384 371.635 650.408 413.314 563.748 443.832C477.271 474.697 388.621 492.35 305.176 490.156C221.764 488.445 144.481 470.284 79.2068 446.397C-51.778 398.023 -135.142 332.681 -152.982 320.72C-224.911 269.946 -298.825 194.181 -298.652 194.084Z" fill="url(#paint35_linear_71_1016)"/>
<path d="M-298.651 158.605C-298.779 158.72 -225.003 234.062 -154.295 286.734C-136.725 299.235 -54.8162 366.551 74.4023 420.158C138.811 446.703 215.222 468.215 298.163 474.466C381.11 481.008 469.934 468.95 557.113 443.056C644.433 417.453 730.31 379.636 811.95 340.746C893.852 302.925 969.484 255.362 1043.15 231.289C1116.55 205.623 1186.21 208.45 1240.23 223.247C1294.59 237.586 1334.4 259.736 1358.12 273.235C1405.85 299.966 1467.24 346.05 1525.07 410.315C1583.64 473.236 1641.44 548.557 1698.31 612.564C1754.84 677.222 1818.7 717.722 1868.47 727.037C1918.12 737.396 1949.51 727.802 1949.39 728.905C1949.51 727.798 1918.15 737.539 1868.42 727.4C1818.57 718.301 1754.47 677.987 1697.72 613.455C1640.65 549.617 1582.7 474.499 1524.09 411.836C1466.21 347.821 1405.01 302.067 1357.38 275.382C1333.72 261.917 1294.02 239.835 1239.88 225.546C1186.04 210.821 1116.75 207.994 1043.61 233.563C970.196 257.539 894.561 305.089 812.572 342.956C730.913 381.855 644.962 419.718 557.523 445.351C470.219 471.283 381.203 483.366 298.07 476.811C214.943 470.544 138.398 448.994 73.8541 422.398C-55.6016 368.698 -137.61 301.272 -155.212 288.758C-226.09 235.959 -298.815 158.69 -298.651 158.605Z" fill="url(#paint36_linear_71_1016)"/>
<path d="M-298.653 123.121C-298.778 123.231 -226.108 200.183 -156.432 254.935C-139.095 268.003 -58.4755 337.47 69.2267 396.389C132.927 425.537 208.569 450.629 291.196 461.283C373.778 472.284 462.886 465.746 550.787 444.809C638.809 424.13 725.648 390.129 807.666 352.879C889.969 316.639 965.277 268.527 1038.41 242.391C1111.29 214.76 1180.69 213.969 1235.2 225.292C1289.99 236.14 1330.59 255.619 1354.73 267.774C1403.32 291.594 1466.09 334.706 1524.9 397.42C1584.49 458.659 1642.63 533.506 1699.28 597.704C1755.65 662.455 1818.95 703.902 1868.55 714.362C1918.02 725.828 1949.52 717.05 1949.38 718.136C1949.52 717.041 1918.05 725.984 1868.5 714.717C1818.83 704.472 1755.28 663.211 1698.69 598.587C1641.84 534.567 1583.56 459.944 1523.95 398.967C1465.1 336.519 1402.55 293.741 1354.07 269.964C1329.99 257.834 1289.52 238.419 1234.92 227.612C1180.6 216.34 1111.55 217.118 1038.9 244.648C966.008 270.686 890.671 318.798 808.255 355.085C726.199 392.361 639.267 426.404 551.107 447.121C463.075 468.083 373.778 474.634 291.01 463.612C208.223 452.936 132.427 427.79 68.6177 398.603C-59.3057 339.579 -140.035 270.006 -157.39 256.925C-227.214 202.047 -298.807 123.206 -298.653 123.121Z" fill="url(#paint37_linear_71_1016)"/>
<path d="M-298.652 87.6367C-298.768 87.7381 -227.175 166.385 -158.486 223.275C-141.39 236.918 -62.014 308.6 64.1814 372.843C127.151 404.591 202.036 433.267 284.275 448.304C366.45 463.671 455.729 462.817 544.289 446.808C632.952 431.056 720.756 400.881 803.204 365.185C886.113 330.919 960.943 281.357 1033.62 253.256C1106.01 223.668 1175.14 219.209 1230.05 226.906C1285.21 234.23 1326.53 251.008 1351.08 261.815C1400.47 282.726 1464.61 322.863 1524.43 384.068C1585.06 443.714 1643.6 518.164 1700.08 582.645C1756.33 647.59 1819.13 690.056 1868.59 701.666C1917.91 714.26 1949.54 706.285 1949.39 707.367C1949.53 706.285 1917.94 714.416 1868.53 702.02C1818.99 690.626 1755.95 648.347 1699.48 583.532C1642.82 519.217 1584.14 445.007 1523.51 385.641C1463.66 324.706 1399.76 284.907 1350.5 264.029C1326.03 253.256 1284.83 236.537 1229.87 229.238C1175.14 221.585 1106.33 226.01 1034.15 255.505C961.69 283.508 886.818 333.087 803.781 367.417C721.26 403.142 633.35 433.36 544.536 449.141C455.838 465.171 366.379 466.02 284.028 450.624C201.613 435.557 126.612 406.831 63.5275 375.028C-62.8732 310.683 -142.352 238.904 -159.48 225.245C-228.31 168.223 -298.8 87.7128 -298.652 87.6367Z" fill="url(#paint38_linear_71_1016)"/>
<path d="M-298.651 52.1562C-298.767 52.2535 -228.2 132.68 -160.492 191.751C-143.614 205.98 -65.4465 279.945 59.2294 349.526C121.503 383.882 195.593 416.111 277.4 435.531C359.122 455.196 448.446 460.09 537.583 449.005C626.821 438.194 715.612 411.864 798.559 377.665C882.004 344.894 956.629 294.373 1028.78 263.948C1100.68 232.137 1169.53 224.069 1224.76 228.092C1280.21 231.942 1322.19 246.003 1347.12 255.386C1397.25 273.411 1462.75 310.564 1523.65 370.277C1585.36 428.338 1644.34 502.535 1700.68 567.379C1756.86 632.624 1819.2 676.176 1868.57 688.952C1917.77 702.709 1949.56 695.536 1949.39 696.602C1949.55 695.536 1917.81 702.861 1868.51 689.315C1819.06 676.746 1756.48 633.372 1700.09 568.27C1643.56 503.596 1584.45 429.657 1522.75 371.875C1461.84 312.449 1396.61 275.638 1346.62 257.643C1321.76 248.294 1279.91 234.284 1224.67 230.442C1169.63 226.444 1101.05 234.466 1029.36 266.184C957.398 296.516 882.725 347.067 799.111 379.918C716.064 414.155 627.157 440.514 537.773 451.35C448.465 462.457 358.965 457.563 277.079 437.851C195.106 418.398 120.891 386.109 58.5243 351.694C-66.3505 282.007 -144.624 207.941 -161.528 193.686C-229.357 134.484 -298.786 52.2239 -298.651 52.1562Z" fill="url(#paint39_linear_71_1016)"/>
<path d="M-298.653 16.6729C-298.769 16.7701 -229.186 99.0432 -162.453 160.375C-145.78 175.176 -68.8047 251.553 54.3615 326.456C115.924 363.436 189.2 399.211 270.535 422.975C351.767 446.955 441.007 457.538 530.68 451.355C620.398 445.51 710.18 423.03 793.698 390.272C877.793 359.049 952.201 307.222 1023.86 274.443C1095.27 240.303 1163.82 228.499 1219.28 228.925C1274.94 229.297 1317.53 240.632 1342.83 248.586C1393.64 263.725 1460.47 297.89 1522.52 356.082C1585.37 412.574 1644.84 486.627 1701.11 551.907C1757.25 617.532 1819.18 662.251 1868.49 676.21C1917.62 691.138 1949.56 684.768 1949.38 685.821C1949.56 684.76 1917.64 691.294 1868.42 676.565C1819.03 662.813 1756.87 618.276 1700.51 552.79C1644.06 487.693 1584.46 413.91 1521.64 357.709C1459.6 299.813 1393.07 265.982 1342.39 250.873C1317.19 242.944 1274.74 231.647 1219.27 231.271C1164 230.853 1095.7 242.61 1024.48 276.649C953.005 309.335 878.508 361.221 794.23 392.525C710.59 425.334 620.664 447.847 530.783 453.705C440.937 459.9 351.526 449.297 270.143 425.27C188.642 401.455 115.254 365.629 53.5985 328.59C-69.7631 253.573 -146.834 177.098 -163.523 162.277C-230.391 100.827 -298.788 16.7447 -298.653 16.6729Z" fill="url(#paint40_linear_71_1016)"/>
<path d="M-298.653 -18.8066C-298.769 -18.7052 -230.144 65.4867 -164.373 129.151C-147.896 144.506 -72.1226 223.427 49.569 303.621C170.19 384.03 342.255 458.062 523.538 453.823C613.669 452.948 704.445 434.365 788.614 403.006C873.44 373.342 947.684 319.981 1018.83 284.738C1089.84 248.417 1157.97 232.615 1213.61 229.534C1269.41 226.411 1312.54 234.969 1338.18 241.495C1389.63 253.751 1457.78 284.865 1521.05 341.518C1585.1 396.443 1645.12 470.458 1701.37 536.236C1757.52 602.335 1819.07 648.296 1868.35 663.451C1917.44 679.575 1949.58 674.013 1949.38 675.048C1949.58 674.009 1917.46 679.735 1868.28 663.806C1818.91 648.858 1757.13 603.07 1700.76 537.128C1644.33 471.523 1584.19 397.791 1520.19 343.175C1456.96 286.838 1389.11 256.041 1337.83 243.811C1312.27 237.306 1269.3 228.778 1213.69 231.897C1158.24 234.969 1090.33 250.708 1019.5 286.931C948.517 322.094 874.164 375.527 789.127 405.284C704.82 436.69 613.865 455.311 523.551 456.186C341.919 460.433 169.536 386.253 48.7418 305.734C-73.1259 225.426 -148.986 146.399 -165.482 131.024C-231.375 67.249 -298.788 -18.7306 -298.653 -18.8066Z" fill="url(#paint41_linear_71_1016)"/>
<path d="M-298.653 -54.2949C-298.778 -54.1808 -231.09 32.0397 -166.293 98.1177C-150.002 114.03 -75.4564 195.69 44.7637 281.179C163.929 366.656 334.126 450.138 516.142 456.503C606.62 460.547 698.415 445.869 783.295 415.88C868.968 387.842 943.029 332.579 1013.68 294.746C1084.28 256.134 1151.92 236.152 1207.68 229.728C1263.56 223.186 1307.16 229.048 1333.12 234.153C1385.14 243.591 1454.64 271.526 1519.19 326.62C1584.51 379.931 1645.15 454.005 1701.44 520.362C1757.65 587.01 1818.86 634.286 1868.16 650.658C1917.23 668.016 1949.6 663.248 1949.38 664.28C1949.59 663.248 1917.25 668.176 1868.09 651.013C1818.7 634.852 1757.25 587.737 1700.83 521.245C1644.36 455.083 1583.62 381.3 1518.36 328.315C1453.86 273.547 1384.68 245.919 1332.84 236.503C1306.98 231.419 1263.54 225.578 1207.85 232.104C1152.27 238.502 1084.84 258.417 1014.38 296.935C943.898 334.676 869.689 390.049 783.779 418.174C698.732 448.223 606.745 462.944 516.078 458.886C333.696 452.5 163.211 368.862 43.8851 283.271C-76.5048 197.659 -151.121 115.906 -167.441 99.9773C-232.35 33.764 -298.801 -54.2062 -298.653 -54.2949Z" fill="url(#paint42_linear_71_1016)"/>
<path d="M-298.653 -89.7744C-298.801 -89.6307 -232.039 -1.28443 -168.13 67.1349C-152.079 83.7358 -78.5886 167.868 40.1183 258.687C157.918 349.045 325.919 442.577 508.583 459.068C599.327 467.973 692.154 457.403 777.833 428.859C864.457 402.617 938.291 344.95 1008.43 304.517C1078.64 263.463 1145.75 239.449 1201.56 229.712C1257.45 219.797 1301.46 222.975 1327.72 226.669C1380.27 233.262 1451.06 258.032 1516.98 311.457C1583.66 363.098 1644.98 437.311 1701.36 504.298C1757.67 571.568 1818.58 620.225 1867.93 637.832C1917.01 656.448 1949.61 652.484 1949.38 653.507C1949.6 652.484 1917.03 656.605 1867.85 638.195C1818.41 620.795 1757.26 572.303 1700.74 505.185C1644.19 438.393 1582.76 364.484 1516.18 313.181C1450.34 260.094 1379.87 235.616 1327.52 229.048C1301.37 225.367 1257.53 222.202 1201.82 232.083C1146.19 241.782 1079.26 265.728 1009.19 306.693C939.207 347.021 865.204 404.832 778.297 431.17C692.42 459.782 599.391 470.378 508.442 461.46C325.403 444.923 157.142 351.222 39.1952 260.754C-79.6785 169.804 -153.25 85.5869 -169.31 68.9606C-233.341 0.427177 -298.817 -89.6561 -298.653 -89.7744Z" fill="url(#paint43_linear_71_1016)"/>
</g>
</g>
<defs>
<linearGradient id="paint0_linear_71_1016" x1="-75.7664" y1="341.261" x2="1945.5" y2="384.207" gradientUnits="userSpaceOnUse">
<stop stop-color="#600F25"/>
<stop offset="0.3333" stop-color="#DC1F26"/>
<stop offset="0.6848" stop-color="#F78C1E"/>
<stop offset="1" stop-color="#FDBA12"/>
</linearGradient>
<linearGradient id="paint1_linear_71_1016" x1="-75.8279" y1="343.092" x2="1993.48" y2="387.059" gradientUnits="userSpaceOnUse">
<stop stop-color="#600F25"/>
<stop offset="0.3333" stop-color="#DC1F26"/>
<stop offset="0.6848" stop-color="#F78C1E"/>
<stop offset="1" stop-color="#FDBA12"/>
</linearGradient>
<linearGradient id="paint2_linear_71_1016" x1="-75.8806" y1="344.918" x2="2041.2" y2="389.899" gradientUnits="userSpaceOnUse">
<stop stop-color="#600F25"/>
<stop offset="0.3333" stop-color="#DC1F26"/>
<stop offset="0.6848" stop-color="#F78C1E"/>
<stop offset="1" stop-color="#FDBA12"/>
</linearGradient>
<linearGradient id="paint3_linear_71_1016" x1="-75.9387" y1="346.839" x2="2089.02" y2="392.838" gradientUnits="userSpaceOnUse">
<stop stop-color="#600F25"/>
<stop offset="0.3333" stop-color="#DC1F26"/>
<stop offset="0.6848" stop-color="#F78C1E"/>
<stop offset="1" stop-color="#FDBA12"/>
</linearGradient>
<linearGradient id="paint4_linear_71_1016" x1="-75.9937" y1="348.583" x2="2136.93" y2="395.601" gradientUnits="userSpaceOnUse">
<stop stop-color="#600F25"/>
<stop offset="0.3333" stop-color="#DC1F26"/>
<stop offset="0.6848" stop-color="#F78C1E"/>
<stop offset="1" stop-color="#FDBA12"/>
</linearGradient>
<linearGradient id="paint5_linear_71_1016" x1="-76.0497" y1="350.483" x2="2184.76" y2="398.518" gradientUnits="userSpaceOnUse">
<stop stop-color="#600F25"/>
<stop offset="0.3333" stop-color="#DC1F26"/>
<stop offset="0.6848" stop-color="#F78C1E"/>
<stop offset="1" stop-color="#FDBA12"/>
</linearGradient>
<linearGradient id="paint6_linear_71_1016" x1="-76.1065" y1="352.239" x2="2232.64" y2="401.293" gradientUnits="userSpaceOnUse">
<stop stop-color="#600F25"/>
<stop offset="0.3333" stop-color="#DC1F26"/>
<stop offset="0.6848" stop-color="#F78C1E"/>
<stop offset="1" stop-color="#FDBA12"/>
</linearGradient>
<linearGradient id="paint7_linear_71_1016" x1="-76.1613" y1="354.081" x2="2280.55" y2="404.154" gradientUnits="userSpaceOnUse">
<stop stop-color="#600F25"/>
<stop offset="0.3333" stop-color="#DC1F26"/>
<stop offset="0.6848" stop-color="#F78C1E"/>
<stop offset="1" stop-color="#FDBA12"/>
</linearGradient>
<linearGradient id="paint8_linear_71_1016" x1="-76.2172" y1="355.897" x2="2328.37" y2="406.987" gradientUnits="userSpaceOnUse">
<stop stop-color="#600F25"/>
<stop offset="0.3333" stop-color="#DC1F26"/>
<stop offset="0.6848" stop-color="#F78C1E"/>
<stop offset="1" stop-color="#FDBA12"/>
</linearGradient>
<linearGradient id="paint9_linear_71_1016" x1="-76.2742" y1="357.727" x2="2376.23" y2="409.835" gradientUnits="userSpaceOnUse">
<stop stop-color="#600F25"/>
<stop offset="0.3333" stop-color="#DC1F26"/>
<stop offset="0.6848" stop-color="#F78C1E"/>
<stop offset="1" stop-color="#FDBA12"/>
</linearGradient>
<linearGradient id="paint10_linear_71_1016" x1="-76.3294" y1="359.558" x2="2424.09" y2="412.684" gradientUnits="userSpaceOnUse">
<stop stop-color="#600F25"/>
<stop offset="0.3333" stop-color="#DC1F26"/>
<stop offset="0.6848" stop-color="#F78C1E"/>
<stop offset="1" stop-color="#FDBA12"/>
</linearGradient>
<linearGradient id="paint11_linear_71_1016" x1="-76.3825" y1="361.379" x2="2472.06" y2="415.526" gradientUnits="userSpaceOnUse">
<stop stop-color="#600F25"/>
<stop offset="0.3333" stop-color="#DC1F26"/>
<stop offset="0.6848" stop-color="#F78C1E"/>
<stop offset="1" stop-color="#FDBA12"/>
</linearGradient>
<linearGradient id="paint12_linear_71_1016" x1="-76.4424" y1="363.295" x2="2519.79" y2="418.457" gradientUnits="userSpaceOnUse">
<stop stop-color="#600F25"/>
<stop offset="0.3333" stop-color="#DC1F26"/>
<stop offset="0.6848" stop-color="#F78C1E"/>
<stop offset="1" stop-color="#FDBA12"/>
</linearGradient>
<linearGradient id="paint13_linear_71_1016" x1="-76.4971" y1="365.073" x2="2567.82" y2="421.256" gradientUnits="userSpaceOnUse">
<stop stop-color="#600F25"/>
<stop offset="0.3333" stop-color="#DC1F26"/>
<stop offset="0.6848" stop-color="#F78C1E"/>
<stop offset="1" stop-color="#FDBA12"/>
</linearGradient>
<linearGradient id="paint14_linear_71_1016" x1="-76.56" y1="366.978" x2="2615.49" y2="424.175" gradientUnits="userSpaceOnUse">
<stop stop-color="#600F25"/>
<stop offset="0.3333" stop-color="#DC1F26"/>
<stop offset="0.6848" stop-color="#F78C1E"/>
<stop offset="1" stop-color="#FDBA12"/>
</linearGradient>
<linearGradient id="paint15_linear_71_1016" x1="-76.6125" y1="368.721" x2="2663.38" y2="426.938" gradientUnits="userSpaceOnUse">
<stop stop-color="#600F25"/>
<stop offset="0.3333" stop-color="#DC1F26"/>
<stop offset="0.6848" stop-color="#F78C1E"/>
<stop offset="1" stop-color="#FDBA12"/>
</linearGradient>
<linearGradient id="paint16_linear_71_1016" x1="-76.6669" y1="370.58" x2="2711.22" y2="429.813" gradientUnits="userSpaceOnUse">
<stop stop-color="#600F25"/>
<stop offset="0.3333" stop-color="#DC1F26"/>
<stop offset="0.6848" stop-color="#F78C1E"/>
<stop offset="1" stop-color="#FDBA12"/>
</linearGradient>
<linearGradient id="paint17_linear_71_1016" x1="-76.7209" y1="372.436" x2="2759.08" y2="432.688" gradientUnits="userSpaceOnUse">
<stop stop-color="#600F25"/>
<stop offset="0.3333" stop-color="#DC1F26"/>
<stop offset="0.6848" stop-color="#F78C1E"/>
<stop offset="1" stop-color="#FDBA12"/>
</linearGradient>
<linearGradient id="paint18_linear_71_1016" x1="-76.7791" y1="374.295" x2="2806.92" y2="435.565" gradientUnits="userSpaceOnUse">
<stop stop-color="#600F25"/>
<stop offset="0.3333" stop-color="#DC1F26"/>
<stop offset="0.6848" stop-color="#F78C1E"/>
<stop offset="1" stop-color="#FDBA12"/>
</linearGradient>
<linearGradient id="paint19_linear_71_1016" x1="-76.8308" y1="376.151" x2="2854.78" y2="438.438" gradientUnits="userSpaceOnUse">
<stop stop-color="#600F25"/>
<stop offset="0.3333" stop-color="#DC1F26"/>
<stop offset="0.6848" stop-color="#F78C1E"/>
<stop offset="1" stop-color="#FDBA12"/>
</linearGradient>
<linearGradient id="paint20_linear_71_1016" x1="-76.8917" y1="378.004" x2="2902.63" y2="441.309" gradientUnits="userSpaceOnUse">
<stop stop-color="#600F25"/>
<stop offset="0.3333" stop-color="#DC1F26"/>
<stop offset="0.6848" stop-color="#F78C1E"/>
<stop offset="1" stop-color="#FDBA12"/>
</linearGradient>
<linearGradient id="paint21_linear_71_1016" x1="-76.9462" y1="379.858" x2="2950.48" y2="444.181" gradientUnits="userSpaceOnUse">
<stop stop-color="#600F25"/>
<stop offset="0.3333" stop-color="#DC1F26"/>
<stop offset="0.6848" stop-color="#F78C1E"/>
<stop offset="1" stop-color="#FDBA12"/>
</linearGradient>
<linearGradient id="paint22_linear_71_1016" x1="1949.4" y1="480.848" x2="-298.651" y2="480.848" gradientUnits="userSpaceOnUse">
<stop stop-color="#600F25"/>
<stop offset="0.3333" stop-color="#DC1F26"/>
<stop offset="0.6848" stop-color="#F78C1E"/>
<stop offset="1" stop-color="#FDBA12"/>
</linearGradient>
<linearGradient id="paint23_linear_71_1016" x1="1949.39" y1="480.793" x2="-298.652" y2="480.793" gradientUnits="userSpaceOnUse">
<stop stop-color="#600F25"/>
<stop offset="0.3333" stop-color="#DC1F26"/>
<stop offset="0.6848" stop-color="#F78C1E"/>
<stop offset="1" stop-color="#FDBA12"/>
</linearGradient>
<linearGradient id="paint24_linear_71_1016" x1="1949.39" y1="480.783" x2="-298.651" y2="480.783" gradientUnits="userSpaceOnUse">
<stop stop-color="#600F25"/>
<stop offset="0.3333" stop-color="#DC1F26"/>
<stop offset="0.6848" stop-color="#F78C1E"/>
<stop offset="1" stop-color="#FDBA12"/>
</linearGradient>
<linearGradient id="paint25_linear_71_1016" x1="1949.39" y1="480.726" x2="-298.651" y2="480.726" gradientUnits="userSpaceOnUse">
<stop stop-color="#600F25"/>
<stop offset="0.3333" stop-color="#DC1F26"/>
<stop offset="0.6848" stop-color="#F78C1E"/>
<stop offset="1" stop-color="#FDBA12"/>
</linearGradient>
<linearGradient id="paint26_linear_71_1016" x1="1949.39" y1="480.723" x2="-298.65" y2="480.723" gradientUnits="userSpaceOnUse">
<stop stop-color="#600F25"/>
<stop offset="0.3333" stop-color="#DC1F26"/>
<stop offset="0.6848" stop-color="#F78C1E"/>
<stop offset="1" stop-color="#FDBA12"/>
</linearGradient>
<linearGradient id="paint27_linear_71_1016" x1="1949.39" y1="480.437" x2="-298.651" y2="480.437" gradientUnits="userSpaceOnUse">
<stop stop-color="#600F25"/>
<stop offset="0.3333" stop-color="#DC1F26"/>
<stop offset="0.6848" stop-color="#F78C1E"/>
<stop offset="1" stop-color="#FDBA12"/>
</linearGradient>
<linearGradient id="paint28_linear_71_1016" x1="1949.39" y1="480.18" x2="-298.652" y2="480.18" gradientUnits="userSpaceOnUse">
<stop stop-color="#600F25"/>
<stop offset="0.3333" stop-color="#DC1F26"/>
<stop offset="0.6848" stop-color="#F78C1E"/>
<stop offset="1" stop-color="#FDBA12"/>
</linearGradient>
<linearGradient id="paint29_linear_71_1016" x1="1949.39" y1="479.9" x2="-298.651" y2="479.9" gradientUnits="userSpaceOnUse">
<stop stop-color="#600F25"/>
<stop offset="0.3333" stop-color="#DC1F26"/>
<stop offset="0.6848" stop-color="#F78C1E"/>
<stop offset="1" stop-color="#FDBA12"/>
</linearGradient>
<linearGradient id="paint30_linear_71_1016" x1="1949.39" y1="479.429" x2="-298.652" y2="479.429" gradientUnits="userSpaceOnUse">
<stop stop-color="#600F25"/>
<stop offset="0.3333" stop-color="#DC1F26"/>
<stop offset="0.6848" stop-color="#F78C1E"/>
<stop offset="1" stop-color="#FDBA12"/>
</linearGradient>
<linearGradient id="paint31_linear_71_1016" x1="1949.39" y1="478.809" x2="-298.651" y2="478.809" gradientUnits="userSpaceOnUse">
<stop stop-color="#600F25"/>
<stop offset="0.3333" stop-color="#DC1F26"/>
<stop offset="0.6848" stop-color="#F78C1E"/>
<stop offset="1" stop-color="#FDBA12"/>
</linearGradient>
<linearGradient id="paint32_linear_71_1016" x1="1949.39" y1="478.026" x2="-298.651" y2="478.026" gradientUnits="userSpaceOnUse">
<stop stop-color="#600F25"/>
<stop offset="0.3333" stop-color="#DC1F26"/>
<stop offset="0.6848" stop-color="#F78C1E"/>
<stop offset="1" stop-color="#FDBA12"/>
</linearGradient>
<linearGradient id="paint33_linear_71_1016" x1="1949.39" y1="477.015" x2="-298.651" y2="477.015" gradientUnits="userSpaceOnUse">
<stop stop-color="#600F25"/>
<stop offset="0.3333" stop-color="#DC1F26"/>
<stop offset="0.6848" stop-color="#F78C1E"/>
<stop offset="1" stop-color="#FDBA12"/>
</linearGradient>
<linearGradient id="paint34_linear_71_1016" x1="1949.39" y1="475.74" x2="-298.651" y2="475.74" gradientUnits="userSpaceOnUse">
<stop stop-color="#600F25"/>
<stop offset="0.3333" stop-color="#DC1F26"/>
<stop offset="0.6848" stop-color="#F78C1E"/>
<stop offset="1" stop-color="#FDBA12"/>
</linearGradient>
<linearGradient id="paint35_linear_71_1016" x1="1949.39" y1="468.923" x2="-298.651" y2="468.923" gradientUnits="userSpaceOnUse">
<stop stop-color="#600F25"/>
<stop offset="0.3333" stop-color="#DC1F26"/>
<stop offset="0.6848" stop-color="#F78C1E"/>
<stop offset="1" stop-color="#FDBA12"/>
</linearGradient>
<linearGradient id="paint36_linear_71_1016" x1="1949.39" y1="445.334" x2="-298.65" y2="445.334" gradientUnits="userSpaceOnUse">
<stop stop-color="#600F25"/>
<stop offset="0.3333" stop-color="#DC1F26"/>
<stop offset="0.6848" stop-color="#F78C1E"/>
<stop offset="1" stop-color="#FDBA12"/>
</linearGradient>
<linearGradient id="paint37_linear_71_1016" x1="1949.39" y1="421.797" x2="-298.652" y2="421.797" gradientUnits="userSpaceOnUse">
<stop stop-color="#600F25"/>
<stop offset="0.3333" stop-color="#DC1F26"/>
<stop offset="0.6848" stop-color="#F78C1E"/>
<stop offset="1" stop-color="#FDBA12"/>
</linearGradient>
<linearGradient id="paint38_linear_71_1016" x1="1949.39" y1="398.314" x2="-298.651" y2="398.314" gradientUnits="userSpaceOnUse">
<stop stop-color="#600F25"/>
<stop offset="0.3333" stop-color="#DC1F26"/>
<stop offset="0.6848" stop-color="#F78C1E"/>
<stop offset="1" stop-color="#FDBA12"/>
</linearGradient>
<linearGradient id="paint39_linear_71_1016" x1="1949.39" y1="374.892" x2="-298.65" y2="374.892" gradientUnits="userSpaceOnUse">
<stop stop-color="#600F25"/>
<stop offset="0.3333" stop-color="#DC1F26"/>
<stop offset="0.6848" stop-color="#F78C1E"/>
<stop offset="1" stop-color="#FDBA12"/>
</linearGradient>
<linearGradient id="paint40_linear_71_1016" x1="1949.38" y1="351.523" x2="-298.652" y2="351.523" gradientUnits="userSpaceOnUse">
<stop stop-color="#600F25"/>
<stop offset="0.3333" stop-color="#DC1F26"/>
<stop offset="0.6848" stop-color="#F78C1E"/>
<stop offset="1" stop-color="#FDBA12"/>
</linearGradient>
<linearGradient id="paint41_linear_71_1016" x1="1949.38" y1="328.214" x2="-298.652" y2="328.214" gradientUnits="userSpaceOnUse">
<stop stop-color="#600F25"/>
<stop offset="0.3333" stop-color="#DC1F26"/>
<stop offset="0.6848" stop-color="#F78C1E"/>
<stop offset="1" stop-color="#FDBA12"/>
</linearGradient>
<linearGradient id="paint42_linear_71_1016" x1="1949.38" y1="304.989" x2="-298.652" y2="304.989" gradientUnits="userSpaceOnUse">
<stop stop-color="#600F25"/>
<stop offset="0.3333" stop-color="#DC1F26"/>
<stop offset="0.6848" stop-color="#F78C1E"/>
<stop offset="1" stop-color="#FDBA12"/>
</linearGradient>
<linearGradient id="paint43_linear_71_1016" x1="1949.38" y1="281.864" x2="-298.652" y2="281.864" gradientUnits="userSpaceOnUse">
<stop stop-color="#600F25"/>
<stop offset="0.3333" stop-color="#DC1F26"/>
<stop offset="0.6848" stop-color="#F78C1E"/>
<stop offset="1" stop-color="#FDBA12"/>
</linearGradient>
</defs>
</svg>
