<svg width="394" height="424" viewBox="0 0 394 424" fill="none" xmlns="http://www.w3.org/2000/svg">
<g opacity="0.2">
<mask id="mask0_219_5407" style="mask-type:luminance" maskUnits="userSpaceOnUse" x="-740" y="-17" width="1918" height="960">
<path d="M1177.01 -17H-739.994V942.367H1177.01V-17Z" fill="white"/>
</mask>
<g mask="url(#mask0_219_5407)">
<path d="M1211.08 -19.4003C1211.19 -19.5144 1186.67 88.5307 1149.97 176.454C1140.3 197.239 1101.86 306.015 1006.7 425.328C959.221 484.369 896.697 543.947 821.277 590.533C746.052 637.306 658.568 670.642 567.879 686.567C386.991 717.347 192.348 692.454 56.2947 603.182C-12.8842 563.075 -72.8404 522.896 -123.955 495.045C-174.817 466.568 -216.251 449.802 -241.733 441.392C-292.312 423.291 -364.447 411.03 -441.887 421.173C-519.157 430.158 -600.479 463.601 -663.471 515.986C-727.175 567.631 -770.548 635.357 -794.754 687.721C-819.194 740.41 -827.564 776.824 -828.01 776.549C-827.561 776.824 -819.31 740.372 -795.01 687.565C-770.942 635.07 -727.716 567.082 -664.003 515.111C-601.021 462.375 -519.535 428.561 -442.05 419.36C-364.418 408.98 -291.953 421.156 -241.21 439.304C-215.648 447.752 -174.086 464.569 -123.154 493.1C-71.962 520.99 -11.9738 561.173 57.1154 601.247C192.88 690.337 386.975 715.116 567.61 684.429C658.107 668.534 745.375 635.29 820.414 588.627C895.63 542.172 957.993 482.755 1005.35 423.853C1100.27 304.853 1138.65 196.301 1148.29 175.554C1184.9 87.8629 1211.17 -19.4764 1211.08 -19.4003Z" fill="url(#paint0_linear_219_5407)"/>
<path d="M1259.08 -17.9432C1259.12 -18.0911 1234.39 91.3316 1196.85 180.05C1186.98 201.008 1147.65 310.837 1050.63 430.643C1002.25 489.926 938.481 549.575 861.41 594.945C784.608 640.563 695.38 672.04 603.175 683.958C510.937 696.409 416.61 690.366 327.619 675.307C237.918 663.317 155.143 630.568 83.544 594.547C11.7364 558.632 -51.1754 523.077 -104.287 498.72C-157.204 473.832 -199.897 459.801 -225.979 452.671C-277.924 437.566 -350.834 427.972 -429.185 436.416C-507.343 444.282 -590.643 473.227 -656.44 522.726C-722.955 571.328 -768.72 638.471 -793.775 691.059C-819.113 743.955 -827.64 780.821 -828.121 780.517C-827.637 780.821 -819.235 743.917 -794.032 690.894C-769.117 638.167 -723.484 570.741 -656.943 521.796C-591.13 471.96 -507.667 442.663 -429.323 434.57C-350.802 425.901 -277.642 435.377 -225.536 450.528C-199.384 457.675 -156.585 471.748 -103.585 496.679C-50.3996 521.056 12.5507 556.642 84.2814 592.527C155.858 628.518 238.302 661.149 327.889 673.135C416.789 688.176 510.931 694.19 602.973 681.774C694.96 669.893 783.96 638.479 860.56 592.971C937.423 547.733 1001.02 488.252 1049.28 429.126C1146.05 309.632 1185.31 200.028 1195.15 179.107C1232.6 90.6555 1259.11 -18.0531 1259.08 -17.9432Z" fill="url(#paint1_linear_219_5407)"/>
<path d="M1306.83 -16.4959C1306.88 -16.6523 1281.96 94.2201 1243.62 183.881C1233.6 205.042 1193.38 316.13 1094.3 436.52C1044.91 496.055 979.803 555.866 901.001 599.988C822.576 644.504 731.512 674.291 637.79 682.067C544.017 690.545 448.959 678.699 359.299 660.758C268.94 645.97 184.569 616.796 110.418 584.9C36.1227 553.25 -29.6069 522.597 -84.6423 502.069C-139.54 481.039 -183.378 469.734 -210.062 464.012C-263.325 452.119 -337.053 444.744 -416.435 451.612C-495.587 458.357 -580.775 482.874 -649.345 529.363C-718.636 574.846 -766.866 641.402 -792.781 694.289C-819.032 747.456 -827.71 784.817 -828.217 784.483C-827.707 784.817 -819.151 747.431 -793.037 694.116C-767.257 641.097 -719.149 574.229 -649.82 528.412C-581.208 481.572 -495.866 456.705 -416.551 449.74C-337.017 442.661 -263.126 449.909 -209.709 461.84C-182.961 467.566 -139.021 478.884 -84.0493 499.965C-28.9401 520.513 36.8278 551.196 111.069 582.808C185.207 614.692 269.308 643.79 359.619 658.565C449.231 676.505 544.104 688.313 637.659 679.861C731.144 672.097 821.961 642.395 900.18 597.993C978.765 554.006 1043.68 494.357 1092.95 434.998C1191.76 314.904 1231.91 204.053 1241.93 182.93C1280.15 93.5354 1306.87 -16.6058 1306.83 -16.4959Z" fill="url(#paint2_linear_219_5407)"/>
<path d="M1354.69 -14.8651C1354.74 -15.0214 1329.49 97.2457 1290.25 187.908C1280.03 209.318 1238.69 321.611 1137.64 442.935C1087.14 502.787 1020.38 562.323 939.94 605.562C859.836 649.131 766.791 676.86 671.629 680.752C576.327 685.156 480.685 667.291 390.323 646.375C299.32 628.088 213.256 602.384 136.73 574.579C60.0754 547.218 -8.34064 522.072 -65.1488 505.446C-121.874 488.422 -166.798 479.978 -194.063 475.756C-301.213 459.722 -497.187 447.88 -642.206 535.938C-714.219 578.172 -764.988 644.153 -791.771 697.4C-818.94 750.926 -827.778 788.823 -828.316 788.468C-827.775 788.823 -819.065 750.892 -792.034 697.226C-765.382 643.836 -714.719 577.529 -642.642 534.95C-571.3 491.216 -484.153 470.702 -403.77 464.895C-323.098 459.105 -248.428 465.03 -193.797 473.529C-166.478 477.755 -121.466 486.225 -64.6744 503.269C-7.79248 519.917 60.6716 545.093 137.297 572.428C213.827 600.237 299.682 625.882 390.685 644.165C481.051 665.098 576.497 682.899 671.565 678.521C766.467 674.633 859.253 646.976 939.132 603.534C1019.35 560.409 1085.91 501.05 1136.27 441.371C1237.06 320.36 1278.32 208.312 1288.52 186.944C1327.65 96.5526 1354.73 -14.9623 1354.69 -14.8651Z" fill="url(#paint3_linear_219_5407)"/>
<path d="M1402.63 -13.5858C1402.7 -13.7506 1377 100.397 1336.83 192.184C1326.39 213.835 1284.04 327.649 1180.64 449.729C1129.14 510.165 1060.57 569.401 978.387 611.706C896.463 654.096 801.401 679.94 704.794 679.762C607.985 680.176 511.904 656.061 420.795 632.073C329.054 610.476 241.333 587.168 162.547 563.729C5.14081 515.698 -121.891 491.194 -177.767 487.428C-233.389 482.031 -309.008 477.978 -390.74 482.111C-472.184 486.604 -560.896 502.507 -634.893 542.577C-709.63 581.387 -763.072 646.717 -790.741 700.403C-818.858 754.331 -827.847 792.824 -828.424 792.439C-827.847 792.824 -818.98 754.301 -791.004 700.213C-763.473 646.383 -710.118 580.711 -635.3 541.55C-561.232 501.125 -472.367 484.909 -390.821 480.176C-308.963 475.844 -233.321 479.745 -177.581 485.158C-121.628 488.924 5.61847 513.487 163.021 561.519C241.846 584.971 329.407 608.228 421.218 629.854C512.359 653.851 608.254 677.907 704.791 677.488C801.119 677.67 895.921 651.89 977.596 609.623C1059.55 567.44 1127.91 508.382 1179.26 448.119C1282.4 326.356 1324.66 212.791 1335.07 191.178C1375.13 99.6956 1402.69 -13.6956 1402.63 -13.5858Z" fill="url(#paint4_linear_219_5407)"/>
<path d="M1450.48 -11.9842C1450.57 -12.1448 1424.49 103.706 1383.32 196.701C1372.64 218.598 1329.24 334.073 1223.3 456.982C1170.64 517.942 1100.3 577.118 1016.2 618.345C932.322 659.311 835.231 683.604 737.156 679.086C638.856 675.358 542.503 644.933 450.595 617.821C358.079 592.7 268.573 571.493 187.667 552.382C25.7315 513.922 -104.683 501.142 -161.372 499.189C-218.055 496.907 -294.825 494.731 -377.856 497.241C-460.589 500.533 -550.983 512.261 -627.593 549.039C-704.966 584.408 -761.145 649.075 -789.683 703.302C-818.774 757.69 -827.904 796.838 -828.52 796.412C-827.901 796.838 -818.893 757.665 -789.942 703.104C-761.546 648.72 -705.434 583.694 -627.968 547.974C-551.272 510.837 -460.717 498.801 -377.907 495.284C-294.764 492.571 -218.059 494.591 -161.273 496.882C-104.522 498.839 26.0585 511.636 188.058 550.108C269.031 569.244 358.448 590.427 451.089 615.573C543.048 642.697 639.228 673.059 737.243 676.77C835.003 681.271 931.812 657.05 1015.45 616.22C1099.3 575.102 1169.4 516.116 1221.92 455.337C1327.57 332.75 1370.89 217.537 1381.55 195.674C1422.59 102.975 1450.56 -12.0941 1450.48 -11.9842Z" fill="url(#paint5_linear_219_5407)"/>
<path d="M1498.4 -10.6775C1498.49 -10.8677 1471.95 107.134 1429.72 201.419C1418.79 223.602 1374.25 340.835 1265.64 464.67C1211.71 526.124 1139.56 585.297 1053.44 625.391C967.526 664.89 868.293 687.552 768.785 678.613C669.043 670.528 572.549 633.814 479.818 603.529C386.519 574.718 294.993 555.793 212.116 540.908C45.9424 512.22 -87.2383 511.248 -144.809 511.041C-202.49 511.818 -280.513 511.476 -364.916 512.334C-449.03 514.367 -541.069 522.033 -620.227 555.438C-700.155 587.296 -759.2 651.214 -788.565 706.118C-818.714 760.983 -827.953 800.854 -828.623 800.385C-827.95 800.854 -818.842 760.95 -788.831 705.906C-759.608 650.855 -700.613 586.556 -620.567 554.343C-541.303 520.567 -449.117 512.613 -364.941 510.356C-280.436 509.278 -202.557 509.477 -144.793 508.687C-87.187 508.906 46.1059 509.878 212.417 538.588C295.391 553.498 386.888 572.406 480.353 601.268C573.187 631.596 669.495 668.22 768.949 676.272C868.104 685.189 967.045 662.599 1052.7 623.206C1138.56 583.242 1210.47 524.26 1264.24 462.992C1372.57 339.487 1417.02 222.521 1427.92 200.379C1470.03 106.391 1498.48 -10.8043 1498.4 -10.6775Z" fill="url(#paint6_linear_219_5407)"/>
<path d="M1546.33 -9.18924C1546.44 -9.37519 1519.39 110.685 1476.03 206.356C1464.84 228.835 1419.08 347.94 1307.66 472.755C1252.39 534.747 1178.31 593.906 1090.06 632.767C1002.06 670.782 900.57 691.715 799.677 678.246C698.547 665.58 602 622.827 508.519 588.932C414.275 556.871 320.72 539.396 235.942 528.982C65.8124 510.255 -69.5386 521.408 -128.059 522.888C-186.678 526.793 -266.054 528.23 -351.912 527.389C-437.488 528.132 -531.137 531.784 -612.782 561.795C-695.207 590.085 -757.199 653.176 -787.419 708.836C-818.643 764.23 -827.991 804.874 -828.725 804.35C-827.994 804.874 -818.777 764.192 -787.685 708.629C-757.616 652.808 -695.646 589.304 -613.09 560.658C-531.329 530.284 -437.537 526.341 -351.919 525.377C-265.974 525.994 -186.813 524.405 -128.139 520.5C-69.6091 519.025 65.8028 507.855 236.15 526.594C321.063 537.037 414.66 554.509 509.106 586.645C602.725 620.591 699.101 663.255 799.908 675.879C900.419 689.298 1001.61 668.437 1089.35 630.531C1177.31 591.784 1251.14 532.832 1306.24 471.018C1417.37 346.537 1463.03 227.715 1474.2 205.269C1517.45 109.933 1546.42 -9.32025 1546.33 -9.18924Z" fill="url(#paint7_linear_219_5407)"/>
<path d="M1594.18 -7.76927C1594.28 -7.97636 1566.83 114.362 1522.25 211.482C1510.79 234.287 1463.73 355.345 1349.35 481.221C1292.67 543.774 1216.53 602.891 1126.09 640.45C1035.94 676.94 932.097 695.996 829.854 677.899C727.394 660.58 631.011 611.525 536.639 574.334C441.49 538.745 345.678 522.845 259.121 516.928C85.3309 508.349 -51.6037 531.573 -111.146 534.755C-140.94 537.38 -175.93 541.065 -214.54 542.502C-253.139 543.727 -295.16 542.802 -338.863 542.434C-425.971 541.821 -521.209 541.542 -605.276 568.13C-690.13 592.786 -755.155 654.989 -786.244 711.46C-818.567 767.437 -828.03 808.91 -828.828 808.327C-828.027 808.893 -818.701 767.404 -786.516 711.24C-755.568 654.604 -690.547 591.975 -605.542 566.947C-521.344 540.012 -425.975 539.991 -338.841 540.376C-295.141 540.634 -253.104 541.462 -214.588 540.165C-176.094 538.673 -141.088 534.945 -111.307 532.321C-51.78 529.151 85.1545 505.915 259.227 514.503C345.964 520.428 441.885 536.348 537.289 572.027C631.828 609.281 728.054 658.234 830.175 675.478C931.988 693.528 1035.54 674.527 1125.4 638.147C1215.55 600.715 1291.42 541.796 1347.93 479.45C1462 353.908 1508.96 233.133 1520.4 210.371C1564.83 113.593 1594.28 -7.90451 1594.18 -7.76927Z" fill="url(#paint8_linear_219_5407)"/>
<path d="M1642.08 -6.31221C1642.18 -6.53198 1614.22 118.156 1568.38 216.793C1556.64 239.949 1508.21 363.044 1390.76 490.023C1332.57 553.147 1254.27 612.196 1161.56 648.357C1069.19 683.278 962.9 700.331 859.388 677.459C755.655 655.364 659.577 599.995 564.256 559.575C468.159 520.511 369.952 505.681 281.68 504.84C193.171 504.075 114.275 515.52 50.1227 524.911C-14.0522 534.678 -63.8046 542.602 -94.0439 546.659C-124.277 550.7 -159.818 555.826 -199.133 557.829C-238.441 559.668 -281.25 558.548 -325.742 557.466C-414.457 555.467 -511.262 551.325 -597.685 574.443C-684.902 595.448 -753.026 656.649 -785.035 714.008C-818.477 770.61 -828.062 812.932 -828.928 812.303C-828.059 812.932 -818.615 770.577 -785.308 713.788C-753.453 656.264 -685.309 594.581 -597.919 573.239C-511.346 549.757 -414.409 553.599 -325.694 555.366C-281.212 556.338 -238.403 557.348 -199.207 555.454C-160.04 553.404 -124.501 548.232 -94.2844 544.208C-64.0643 540.138 -14.3343 532.227 49.863 522.451C114.038 513.065 193.013 501.595 281.715 502.364C370.176 503.213 468.588 518.064 564.964 557.229C660.494 597.747 756.408 653.022 859.783 675.016C962.849 697.808 1068.83 680.823 1160.9 646.007C1253.3 609.965 1331.33 551.135 1389.33 488.21C1506.46 361.578 1554.8 238.766 1566.51 215.661C1612.2 117.362 1642.17 -6.47281 1642.08 -6.31221Z" fill="url(#paint9_linear_219_5407)"/>
<path d="M1689.97 -4.86295C1690.08 -5.09962 1661.62 122.044 1614.44 222.283C1602.41 245.798 1552.53 371.019 1431.86 499.156C1372.1 562.854 1291.54 621.79 1196.47 656.441C1101.84 689.757 993.019 704.654 888.308 676.858C783.38 649.869 687.757 588.199 591.422 544.614C494.309 502.131 393.503 488.776 303.666 492.854C213.522 496.789 133.864 514.501 69.054 528.161C4.23157 542.382 -46.1235 553.024 -76.7956 558.51C-107.448 563.97 -143.532 570.521 -183.581 573.137C-223.62 575.588 -267.259 574.265 -312.568 572.456C-402.95 569.02 -501.317 561.079 -590.031 580.74C-679.55 598.051 -750.838 658.17 -783.793 716.471C-818.386 773.729 -828.096 816.968 -829.025 816.275C-828.093 816.955 -818.527 773.695 -784.069 716.234C-751.268 657.743 -679.928 597.155 -590.233 579.506C-501.355 559.486 -402.857 567.144 -312.495 570.322C-267.208 572.012 -223.585 573.234 -183.683 570.723C-143.804 568.057 -107.731 561.468 -77.1194 556.016C-46.4825 550.539 3.83405 539.91 68.6661 525.684C133.498 512.016 213.243 494.27 303.596 490.323C393.66 486.257 494.755 499.629 592.185 542.251C688.77 585.955 784.245 647.519 888.799 674.398C993.026 702.085 1101.53 687.242 1195.84 654.028C1290.58 619.491 1370.85 560.771 1430.42 497.287C1550.75 369.506 1600.53 244.577 1612.53 221.117C1659.55 121.245 1690.06 -5.03623 1689.97 -4.86295Z" fill="url(#paint10_linear_219_5407)"/>
<path d="M1737.96 -3.42156C1738.11 -3.65401 1708.93 126.025 1660.42 227.934C1648.11 251.829 1596.68 379.256 1472.67 508.585C1411.28 572.858 1328.33 631.629 1230.84 664.674C1133.91 696.329 1022.47 708.902 916.651 676.039C810.625 644.033 715.57 576.095 618.133 529.433C519.936 483.586 416.35 471.871 325.074 481.025C233.414 489.79 153.236 513.618 87.8783 531.487C22.5461 550.053 -28.3668 563.421 -59.4396 570.31C-90.4868 577.198 -127.121 585.207 -167.93 588.432C-208.726 591.669 -253.243 589.945 -299.393 587.443C-391.502 582.511 -491.417 570.817 -582.372 587.042C-627.611 595.093 -670.038 611.271 -704.362 635.449C-738.881 659.336 -764.645 690.239 -782.6 718.826C-818.228 776.852 -828.32 820.912 -829.131 820.252C-828.313 820.916 -818.376 776.814 -782.876 718.589C-764.985 689.905 -739.266 658.838 -704.724 634.76C-670.381 610.375 -627.861 593.989 -582.542 585.769C-491.414 569.181 -391.364 580.596 -299.296 585.275C-253.179 587.658 -208.697 589.269 -168.065 585.976C-127.458 582.701 -90.8522 574.658 -59.8595 567.791C-28.8251 560.902 22.0269 547.568 87.3686 528.985C152.733 511.12 233 487.25 324.911 478.46C416.44 469.28 520.397 481.025 618.957 527.041C716.673 573.851 811.584 641.675 917.224 673.549C1022.52 706.269 1133.63 693.759 1230.24 662.198C1327.38 629.279 1410.02 570.715 1471.22 506.666C1594.87 377.68 1646.18 250.583 1658.47 226.742C1706.83 125.197 1738.09 -3.57794 1737.96 -3.42156Z" fill="url(#paint11_linear_219_5407)"/>
<path d="M1785.72 -1.80238C1785.9 -2.05173 1756.21 130.083 1706.32 233.741C1693.7 258.034 1640.67 387.722 1513.23 518.28C1450.12 583.12 1364.68 641.671 1264.74 672.992C1165.44 702.948 1051.35 713.04 944.507 674.961C837.494 637.816 743.112 563.687 644.486 514.037C545.141 464.813 438.6 455.169 346.029 469.416C252.977 483.109 172.476 512.883 106.679 534.843C40.9521 557.657 -10.4672 573.721 -41.928 582.03C-73.3566 590.343 -110.52 599.852 -152.114 603.715C-193.692 607.641 -239.117 605.659 -286.132 602.404C-380.02 595.98 -481.477 580.559 -574.615 593.339C-620.938 599.704 -664.696 614.399 -700.26 637.931C-736.029 661.146 -762.764 692.217 -781.303 721.129C-818.111 779.917 -828.372 824.931 -829.234 824.221C-828.362 824.927 -818.258 779.879 -781.585 720.884C-763.104 691.866 -736.404 660.626 -700.609 637.212C-665.013 613.469 -621.156 598.584 -574.747 592.037C-481.426 578.906 -379.831 594.028 -286.01 600.198C-239.033 603.326 -193.657 605.185 -152.274 601.208C-110.915 597.286 -73.7925 587.769 -42.428 579.473C-11.009 571.181 40.327 555.129 106.057 532.324C171.857 510.369 252.438 480.539 345.776 466.812C438.616 452.506 545.625 462.181 645.364 511.615C744.311 561.439 838.552 635.458 945.167 672.447C1051.45 710.352 1165.21 700.323 1264.16 670.456C1363.75 639.241 1448.85 580.918 1511.75 516.285C1638.84 386.103 1691.75 256.732 1704.33 232.494C1754.06 129.234 1785.88 -1.96721 1785.72 -1.80238Z" fill="url(#paint12_linear_219_5407)"/>
<path d="M1833.78 -0.437178C1834 -0.678076 1803.46 134.233 1752.14 239.688C1739.22 264.395 1684.51 396.415 1553.5 528.216C1488.6 593.631 1400.59 651.907 1298.13 681.381C1247.03 696.258 1192.71 704.169 1137.35 704.051C1082.05 705.036 1025.39 695.29 971.88 673.567C863.979 631.173 770.37 550.945 670.471 498.379C569.87 445.863 460.283 438.289 366.548 457.861C272.22 476.571 191.594 512.161 125.451 538.161C59.4327 565.15 7.56458 583.931 -24.2744 593.656C-56.0621 603.402 -93.7451 614.437 -136.147 618.976C-178.523 623.621 -224.9 621.385 -272.802 617.378C-368.518 609.42 -471.52 590.33 -566.794 599.683C-614.177 604.353 -659.246 617.509 -696.064 640.378C-733.089 662.87 -760.828 694.111 -779.976 723.391C-817.983 782.96 -828.42 828.963 -829.334 828.19C-828.414 828.959 -818.143 782.922 -780.261 723.15C-761.178 693.76 -733.471 662.338 -696.403 639.63C-659.544 616.558 -614.37 603.199 -566.89 598.352C-471.428 588.631 -368.284 607.434 -272.655 615.126C-224.804 619.005 -178.491 621.127 -136.333 616.423C-94.2034 611.85 -56.5686 600.803 -24.861 591.082C6.91382 581.37 58.6954 562.614 124.704 535.638C190.847 509.646 271.547 474.002 366.176 455.216C460.209 435.58 570.37 443.183 671.397 495.932C771.649 548.71 865.137 628.823 972.624 671.044C1079.78 714.287 1196.27 706.912 1297.58 678.795C1399.68 649.418 1487.34 591.374 1552.02 526.192C1682.66 394.763 1737.24 263.089 1750.13 238.428C1801.28 133.359 1833.98 -0.602003 1833.78 -0.437178Z" fill="url(#paint13_linear_219_5407)"/>
<path d="M1881.48 1.15661C1881.73 0.898808 1850.69 138.456 1797.9 245.757C1784.67 270.904 1728.22 405.308 1593.53 538.373C1526.69 604.18 1436.18 662.359 1331.11 689.805C1278.75 703.895 1223.18 710.289 1166.73 708.772C1110.3 708.227 1052.79 696.178 998.879 671.856C890.273 623.993 797.417 537.958 696.178 482.522C594.24 426.655 481.412 422.01 386.69 446.869C291.238 470.684 210.595 511.789 144.16 541.661C77.9146 572.631 25.6297 594.088 -6.56195 605.22C-38.7151 616.217 -76.8405 629.191 -120.085 634.424C-163.301 639.406 -210.646 637.196 -259.463 632.336C-357.041 622.788 -461.579 600.06 -558.942 606.023C-607.361 609.011 -653.715 620.62 -691.793 642.779C-730.081 664.54 -758.853 695.95 -778.612 725.597C-817.85 785.953 -828.467 832.983 -829.436 832.167C-828.461 832.983 -818.01 785.919 -778.904 725.335C-759.202 695.578 -730.463 663.982 -692.116 642.014C-653.991 619.648 -607.521 607.828 -558.997 604.658C-461.441 598.356 -356.756 620.777 -259.283 630.028C-210.531 634.77 -163.269 636.858 -120.297 631.824C-77.3566 626.575 -39.2953 613.575 -7.22552 602.621C24.8956 591.501 77.0746 570.099 143.311 539.129C209.746 509.266 290.439 468.111 386.232 444.194C481.252 419.246 594.753 423.895 697.159 480.037C798.789 535.723 891.54 621.66 999.726 669.307C1053.45 693.511 1110.51 705.488 1166.81 706.038C1223.07 707.547 1278.45 701.173 1330.61 687.129C1435.29 659.79 1525.45 601.839 1592.05 536.281C1726.35 403.588 1782.67 269.543 1795.86 244.456C1848.46 137.568 1881.71 0.979108 1881.48 1.15661Z" fill="url(#paint14_linear_219_5407)"/>
<path d="M1929.4 2.44174C1929.69 2.19239 1897.91 142.75 1843.6 251.953C1830.04 277.539 1771.8 414.391 1633.34 548.723C1564.45 614.814 1471.42 672.993 1363.68 698.22C1257.11 722.297 1134.68 724.714 1025.54 669.794C916.371 616.365 824.281 524.671 721.618 466.442C670.18 437.618 614.942 421.753 561.058 417.535C507.019 413.748 454.635 422.074 406.514 436.224C310.055 465.212 229.518 511.587 162.843 545.228C96.4272 580.07 43.7704 604.159 11.2358 616.716C-21.2507 629.095 -59.8474 643.692 -103.945 649.651C-147.998 655.407 -196.359 652.931 -246.098 647.284C-345.574 636.144 -451.657 609.818 -551.06 612.396C-600.501 613.724 -648.112 623.765 -687.452 645.188C-727.014 666.168 -756.846 697.738 -777.241 727.761C-817.735 788.95 -828.526 837.032 -829.545 836.149C-828.519 837.024 -817.892 788.907 -777.526 727.487C-757.199 697.357 -727.389 665.58 -687.767 644.389C-648.362 622.755 -600.629 612.51 -551.085 611.019C-451.471 608.086 -345.247 634.098 -245.89 644.939C-196.221 650.463 -147.966 652.812 -104.185 647.005C-60.4371 641.038 -21.9047 626.424 10.4921 614.074C42.9402 601.556 95.4911 577.525 161.888 542.688C228.557 509.068 309.154 462.629 405.95 433.515C454.238 419.335 506.885 410.95 561.224 414.758C615.417 419.001 670.965 434.964 722.644 463.914C825.749 522.444 917.72 614.045 1026.47 667.237C1135.03 721.887 1257.01 719.495 1363.21 695.506C1470.55 670.36 1563.21 612.418 1631.84 546.576C1769.9 412.633 1828 276.145 1841.53 250.622C1895.63 141.837 1929.67 2.28114 1929.4 2.44174Z" fill="url(#paint15_linear_219_5407)"/>
<path d="M1977.27 3.94957C1977.6 3.69176 1945.09 147.124 1889.24 258.258C1875.33 284.262 1815.32 423.717 1672.86 559.157C1601.98 625.645 1506.28 683.693 1395.87 706.616C1286.83 728.356 1161.52 728.42 1051.93 667.291C942.283 608.368 851.013 511.024 746.822 450.102C694.614 420.154 638.139 403.756 583.062 401.068C527.844 398.127 474.671 409.572 426.069 425.915C328.77 460.19 248.368 511.539 181.504 548.862C114.963 587.448 61.96 614.132 29.1047 628.092C-3.69916 641.857 -42.751 658.111 -87.7077 664.844C-132.607 671.378 -182.019 668.664 -232.698 662.206C-334.11 649.439 -441.729 619.529 -543.138 618.79C-593.579 618.435 -642.418 626.909 -683.031 647.554C-723.865 667.73 -754.784 699.448 -775.82 729.852C-817.594 791.886 -828.57 841.054 -829.641 840.112C-828.56 841.042 -817.757 791.852 -776.112 729.569C-755.137 699.047 -724.244 667.134 -683.329 646.73C-642.652 625.869 -593.679 617.188 -543.131 617.366C-441.508 617.771 -333.738 647.351 -232.471 659.831C-181.869 666.145 -132.587 668.728 -87.9866 662.143C-43.4177 655.406 -4.43652 639.16 28.2648 625.429C61.0334 611.512 113.918 584.878 180.439 546.313C247.291 508.999 327.738 457.595 425.39 423.189C474.168 406.787 527.62 395.262 583.174 398.224C638.581 400.929 695.409 417.441 747.883 447.541C852.568 508.788 943.722 606.043 1052.96 664.696C1161.93 725.52 1286.75 725.478 1395.42 703.823C1505.43 680.98 1600.72 623.172 1671.34 556.934C1813.39 421.895 1873.25 282.817 1887.12 256.872C1942.78 146.181 1977.58 3.78051 1977.27 3.94957Z" fill="url(#paint16_linear_219_5407)"/>
<path d="M2025.16 5.45348C2025.51 5.19145 1992.29 151.565 1934.91 264.728C1920.63 291.129 1858.93 433.45 1712.18 569.73C1639.4 636.979 1540.79 694.279 1427.75 715.06C1371.51 726.31 1312.16 727.886 1252.49 721.927C1192.61 717.076 1132.74 696.984 1078.13 664.403C968.004 600.172 877.696 497.055 771.908 433.441C718.851 402.395 661.023 385.802 604.773 384.729C548.359 383.051 494.426 397.18 445.456 416.079C347.403 455.57 267.162 511.61 200.15 552.576C133.507 594.771 80.1926 624.055 47.02 639.396C13.9083 654.514 -25.5827 672.467 -71.4017 680.003C-117.179 687.403 -167.669 684.267 -219.3 676.977C-322.667 662.455 -431.841 629.017 -535.231 625.048C-586.66 623.058 -636.701 629.98 -678.577 649.857C-720.677 669.247 -752.696 701.113 -774.376 731.923C-817.451 794.814 -828.616 845.094 -829.738 844.101C-828.603 845.09 -817.618 794.78 -774.671 731.623C-753.055 700.707 -721.049 668.617 -678.865 649.011C-636.909 628.915 -586.727 621.781 -535.183 623.594C-431.575 627.221 -322.248 660.346 -219.037 674.555C-167.499 681.697 -117.15 684.681 -71.7222 677.251C-26.3135 669.733 13.1038 651.788 46.1 636.704C79.1764 621.409 132.365 592.206 198.983 550.015C265.975 509.075 346.275 452.983 444.668 413.328C493.833 394.356 548.051 380.152 604.827 381.826C661.453 382.907 719.678 399.627 773.024 430.842C879.341 494.828 969.549 597.865 1079.26 661.813C1188.51 728.884 1316.21 731.251 1427.36 712.211C1539.97 691.511 1638.16 634.435 1710.66 567.452C1856.98 431.586 1918.51 289.654 1932.74 263.32C1989.92 150.601 2025.49 5.28442 2025.16 5.45348Z" fill="url(#paint17_linear_219_5407)"/>
<path d="M2073.03 6.96325C2073.44 6.69699 2039.44 156.058 1980.41 271.212C1965.76 298.049 1902.19 443.07 1751.29 580.432C1676.45 648.277 1574.88 704.609 1459.24 723.34C1345.2 740.089 1214.18 734.502 1104.09 661.095C993.652 591.433 904.265 482.738 796.714 416.706C742.839 384.514 683.552 367.757 626.135 368.509C568.571 368.535 513.894 385.026 464.661 406.787C366.009 451.493 285.976 512.119 218.832 556.558C152.112 602.257 98.4935 634.051 65.0068 650.741C31.5842 667.185 -8.34595 686.686 -55.0305 695.138C-101.68 703.379 -153.279 700.057 -205.871 691.934C-311.227 675.744 -421.939 638.764 -527.268 631.516C-579.665 627.877 -630.886 633.198 -674.032 652.229C-717.408 670.744 -750.564 702.737 -772.914 733.931C-817.317 797.714 -828.668 849.123 -829.848 848.066C-828.662 849.11 -817.493 797.68 -773.216 733.631C-750.933 702.306 -717.78 670.097 -674.314 651.354C-631.075 632.094 -579.707 626.575 -527.195 630.045C-421.634 636.951 -310.762 673.584 -205.58 689.458C-153.086 697.429 -101.661 700.598 -55.3832 692.344C-9.16669 683.913 30.7123 664.417 64.0067 648.032C97.3843 631.385 150.875 599.687 217.572 554.005C284.687 509.587 364.762 448.898 463.77 404.027C513.192 382.186 568.163 365.585 626.126 365.555C683.953 364.803 743.679 381.691 797.858 414.069C905.977 480.498 995.259 589.139 1105.31 658.505C1214.75 731.522 1345.2 737.092 1458.89 720.411C1574.07 701.752 1675.21 645.665 1749.74 578.095C1900.19 441.147 1963.6 296.519 1978.21 269.762C2037.03 155.069 2073.41 6.78997 2073.03 6.96325Z" fill="url(#paint18_linear_219_5407)"/>
<path d="M2120.92 8.4691C2121.37 8.20284 2086.58 160.607 2025.87 277.806C2010.85 305.07 1945.35 452.846 1790.19 591.274C1713.25 659.706 1608.66 714.94 1490.41 731.566C1373.84 745.867 1239.99 736.916 1129.89 657.331C1019.39 581.997 930.727 468.107 821.333 399.726C766.531 366.541 705.78 349.797 647.199 352.223C588.48 354.167 533.205 373.388 483.677 397.596C384.515 447.47 304.693 512.479 237.434 560.317C170.64 609.426 116.794 643.769 83.0508 661.938C49.3333 679.747 8.98322 700.841 -38.5701 710.244C-86.0945 719.377 -138.835 715.865 -192.408 706.905C-299.777 689.016 -412.024 648.54 -519.268 638.046C-572.617 632.797 -624.995 636.449 -669.416 654.63C-714.059 672.233 -748.382 704.344 -771.412 735.927C-817.17 800.598 -828.71 853.169 -829.941 852.049C-828.694 853.148 -817.349 800.56 -771.713 735.619C-748.747 703.905 -714.431 671.574 -669.682 653.73C-625.161 635.312 -572.63 631.458 -519.159 636.555C-411.678 646.677 -299.264 686.826 -192.091 704.382C-138.623 713.19 -86.0849 716.537 -38.9579 707.396C8.07928 698.022 48.3844 676.949 81.9609 659.22C115.595 641.106 169.313 606.844 236.068 557.764C303.314 509.948 383.159 444.888 482.676 394.815C532.397 370.506 587.977 351.166 647.138 349.218C706.146 346.754 767.4 363.659 822.519 397.038C932.535 465.868 1021.1 579.715 1131.2 654.719C1240.66 733.89 1373.89 742.803 1490.11 728.569C1607.89 712.002 1712.02 657.018 1788.64 588.865C1943.32 450.873 2008.65 303.498 2023.63 276.306C2084.11 159.593 2121.35 8.30005 2120.92 8.4691Z" fill="url(#paint19_linear_219_5407)"/>
<path d="M2168.79 9.97691C2169.29 9.70643 2133.7 165.204 2071.28 284.457C2055.86 312.157 1988.41 462.756 1828.91 602.194C1749.81 671.167 1642.18 725.339 1521.3 739.603C1402.21 751.581 1265.53 738.99 1155.56 653.243C1044.9 572.601 957.147 453.23 845.813 382.626C790.031 348.541 727.754 331.855 668.035 336.31C608.194 340.202 552.357 362.086 502.602 388.847C403.007 443.767 323.384 512.985 256 564.128C189.155 616.559 135.069 653.37 101.072 672.942C67.0854 692.108 26.3602 714.947 -22.065 725.314C-70.4742 735.368 -124.378 731.683 -178.942 721.861C-288.343 702.243 -402.129 658.289 -511.267 644.592C-565.559 637.745 -619.056 639.723 -664.746 657.026C-710.665 673.724 -746.171 705.911 -769.89 737.896C-817.027 803.462 -828.753 857.212 -830.045 856.012C-828.743 857.195 -817.206 803.42 -770.198 737.583C-746.543 705.451 -711.03 673.022 -665.003 656.104C-619.206 638.561 -565.54 636.389 -511.126 643.066C-401.748 656.404 -287.788 700.028 -178.596 719.296C-124.157 728.945 -70.4774 732.469 -22.4945 722.411C25.3826 712.09 66.0629 689.289 99.8893 670.199C133.78 650.695 187.735 613.973 254.545 561.562C321.897 510.45 401.536 441.198 501.499 386.053C551.438 359.195 607.592 337.159 667.897 333.246C728.081 328.753 790.893 345.582 847.031 379.891C959.038 451.007 1046.68 570.34 1156.96 650.64C1266.3 735.947 1402.28 748.449 1521.03 736.556C1641.43 722.335 1748.59 668.407 1827.36 599.722C1986.34 460.719 2053.64 310.546 2069 282.928C2131.19 164.165 2169.27 9.81632 2168.79 9.97691Z" fill="url(#paint20_linear_219_5407)"/>
<path d="M2216.67 11.4808C2217.22 11.2145 2180.81 169.848 2116.65 291.198C2100.83 319.328 2031.4 472.789 1867.46 613.198C1786.14 682.586 1675.43 735.837 1551.91 747.379C1430.28 757.412 1290.85 740.562 1181.14 648.775C1070.36 562.923 983.539 438.053 870.105 365.449C813.387 330.249 749.443 314.155 688.637 320.579C627.691 326.555 571.431 351.283 521.454 380.448C421.503 440.394 342.028 513.589 274.557 567.99C207.648 623.633 153.353 662.921 119.075 683.841C84.8377 704.364 43.7952 728.978 -5.5116 740.422C-54.8248 751.28 -109.908 747.505 -165.473 736.838C-276.922 715.424 -392.26 668.051 -503.26 651.163C-558.478 642.673 -613.087 643.15 -660.022 659.506C-707.149 675.291 -743.982 707.335 -768.413 739.767C-816.816 806.34 -828.78 861.243 -830.148 859.98C-828.77 861.231 -817.002 806.306 -768.721 739.438C-744.351 706.87 -707.505 674.568 -660.259 658.555C-613.209 641.963 -558.427 641.286 -503.081 649.604C-391.833 666.141 -276.313 713.159 -165.098 734.214C-109.652 744.721 -54.8441 748.317 -5.98285 737.468C42.7309 726.095 83.7382 701.519 117.815 681.073C151.975 660.22 206.132 621.038 273.006 565.424C340.454 511.057 419.939 437.807 520.252 377.646C570.405 348.371 626.982 323.478 688.422 317.439C749.731 310.968 814.265 327.218 871.359 362.664C985.536 435.817 1072.23 560.653 1182.64 646.159C1291.73 737.481 1430.41 754.2 1551.69 744.243C1674.73 732.739 1784.92 679.741 1865.89 610.658C2029.3 470.692 2098.56 317.654 2114.32 289.604C2178.25 168.783 2217.2 11.3202 2216.67 11.4808Z" fill="url(#paint21_linear_219_5407)"/>
</g>
</g>
<g opacity="0.2">
<mask id="mask1_219_5407" style="mask-type:luminance" maskUnits="userSpaceOnUse" x="-744" y="-16" width="1919" height="960">
<path d="M-743.001 -15.502H1174.01V943.865H-743.001V-15.502Z" fill="white"/>
</mask>
<g mask="url(#mask1_219_5407)">
<path d="M-1041.65 655.361C-1041.9 655.572 -947.382 715.019 -858.549 740.859C-837.122 746.306 -731.488 786.076 -580.808 764.315C-506.073 753.322 -421.25 724.812 -338.364 671.607C-254.644 619.97 -176.845 539.43 -104.611 450.876C-31.8959 362.838 38.6359 268.825 116.935 194.239C194.737 120.22 281.833 65.6037 366.62 56.7581C452.334 47.2954 524.825 97.6685 570.012 150.189C616.556 202.941 643.801 254.781 660.538 285.109C729.553 405.046 798.332 652.614 923.947 801.975C954.773 838.706 988.843 867.736 1023.03 884.819C1057.16 902.252 1090.78 907.125 1118.53 905.261C1174.47 900.697 1206.34 878.365 1206.39 879.722C1206.33 878.361 1174.55 900.853 1118.55 905.671C1090.77 907.662 1057.06 902.928 1022.8 885.588C988.478 868.615 954.247 839.631 923.267 802.939C797.024 653.696 727.681 406.065 658.874 286.596C642.189 256.353 614.995 204.644 568.692 152.171C523.696 99.9169 451.847 49.9918 366.768 59.3742C282.583 68.1353 195.728 122.515 118.131 196.344C40.0176 270.756 -30.4725 364.69 -103.232 452.787C-175.495 541.391 -253.531 622.18 -337.469 673.957C-420.583 727.301 -505.634 755.896 -580.577 766.91C-731.665 788.734 -837.552 748.859 -859.027 743.399C-948.167 717.437 -1041.94 655.53 -1041.65 655.361Z" fill="url(#paint22_linear_219_5407)"/>
<path d="M-1041.65 619.876C-1041.89 620.075 -949.185 680.397 -861.881 708.184C-840.759 714.105 -737.154 755.979 -587.954 739.772C-513.941 731.509 -429.561 706.633 -346.498 657.262C-262.73 609.315 -183.899 533.127 -110.539 448.479C-36.6609 364.422 35.0825 274.297 113.786 203.113C191.992 132.488 277.985 79.334 361.666 70.0362C446.188 59.8212 518.428 107.037 564.125 157.55C611.018 208.253 639.094 258.334 656.238 287.728C726.744 403.989 802.459 643.446 927.046 789.392C957.772 825.248 991.329 854.004 1025.09 870.981C1058.76 888.169 1091.85 893.832 1119.29 892.26C1174.58 888.824 1206.3 867.456 1206.4 868.944C1206.3 867.452 1174.65 888.981 1119.3 892.658C1091.83 894.357 1058.66 888.829 1024.86 871.733C990.977 854.866 957.259 826.17 926.379 790.352C801.196 644.553 724.933 405.092 654.632 289.254C637.539 259.932 609.518 209.977 562.862 159.54C517.361 109.286 445.761 62.488 361.83 72.6142C278.725 81.8275 192.938 134.77 114.937 205.235C36.413 276.249 -35.2888 366.303 -109.209 450.423C-182.62 535.118 -261.675 611.546 -345.668 659.616C-428.942 709.118 -513.56 734.062 -587.781 742.345C-737.372 758.6 -841.211 716.616 -862.385 710.695C-950 682.78 -1041.94 620.041 -1041.65 619.876Z" fill="url(#paint23_linear_219_5407)"/>
<path d="M-1041.65 584.389C-1041.88 584.588 -950.948 645.801 -865.115 675.47C-844.31 681.852 -742.68 725.682 -594.993 714.893C-521.698 709.31 -437.792 688.056 -354.553 642.699C-270.612 598.839 -191.104 526.384 -116.44 446.029C-41.3885 366.076 31.7302 280.143 110.786 212.298C189.511 145.384 274.103 92.8298 356.836 83.2826C440.187 72.3238 512.178 116.455 558.417 164.799C605.723 213.33 634.639 261.653 652.225 290.058C724.485 402.397 806.557 633.892 930.085 776.736C960.495 812.165 993.885 840.033 1027.06 857.281C1060.31 874.393 1092.9 880.513 1120.04 879.435C1174.71 877.089 1206.33 856.723 1206.4 858.181C1206.32 856.723 1174.78 877.246 1120.05 879.832C1092.87 881.032 1060.21 875.04 1026.83 858.033C993.532 840.887 959.985 813.078 929.431 777.695C805.329 635.016 722.728 403.576 650.67 291.626C633.129 263.289 604.274 215.1 557.208 166.811C511.158 118.699 439.806 74.961 357.003 85.831C274.828 95.2895 190.412 147.649 111.879 214.428C32.99 282.125 -40.0839 367.991 -115.184 448.007C-189.893 528.399 -269.625 601.087 -353.787 645.053C-437.263 690.541 -521.381 711.846 -594.862 717.445C-742.946 728.26 -844.801 684.328 -865.657 677.93C-951.775 648.143 -1041.93 584.554 -1041.65 584.389Z" fill="url(#paint24_linear_219_5407)"/>
<path d="M-1041.65 548.91C-1041.87 549.101 -952.646 611.24 -868.272 642.793C-847.762 649.644 -748.084 695.461 -601.908 690.128C-529.347 687.233 -445.938 669.613 -362.535 628.259C-278.508 588.363 -198.067 520.214 -122.21 444.006C-46.0111 368.152 28.3547 286.302 107.677 221.58C186.784 157.975 270.295 106.524 352.028 96.3723C434.218 84.7584 506.074 125.407 552.897 171.579C600.649 217.933 630.398 264.46 648.455 291.842C722.693 400.027 810.606 623.745 932.983 763.935C963.162 798.853 996.257 826.138 1028.93 843.58C1061.78 860.641 1093.88 867.213 1120.75 866.634C1174.82 865.362 1206.35 845.985 1206.4 847.4C1206.34 845.985 1174.89 865.51 1120.75 867.027C1093.85 867.729 1061.67 861.288 1028.71 844.319C995.914 826.979 962.665 799.749 932.345 764.886C809.413 624.878 721.007 401.29 646.958 293.457C628.945 266.138 599.261 219.729 551.746 173.612C505.122 127.672 433.885 87.3618 352.213 98.8869C271.02 108.95 187.655 160.231 108.728 223.714C29.5536 288.309 -44.7673 370.096 -121.018 446.005C-196.903 522.264 -277.581 590.62 -361.833 630.621C-445.454 672.081 -529.087 689.743 -601.84 692.655C-748.386 697.988 -848.282 652.074 -868.84 645.202C-953.49 613.53 -1041.91 549.067 -1041.65 548.91Z" fill="url(#paint25_linear_219_5407)"/>
<path d="M-1041.65 513.425C-1041.86 513.611 -954.3 576.701 -871.356 610.131C-851.144 617.464 -753.357 665.212 -608.713 665.339C-536.889 665.128 -453.993 651.147 -370.449 613.863C-286.364 577.982 -204.968 514.287 -127.945 442.309C-50.5978 370.64 24.9733 292.893 104.519 231.156C183.918 170.547 266.478 120.448 347.226 109.426C428.346 97.1866 500.013 134.158 547.412 178.255C595.802 222.073 626.295 266.965 644.875 293.223C681.991 346.411 726.22 424.411 773.728 509.009C821.522 593.124 874.964 683.081 935.763 751.018C995.216 821.103 1067.91 856.063 1121.42 853.865C1174.92 853.654 1206.36 835.248 1206.39 836.63C1206.36 835.248 1174.99 853.81 1121.42 854.263C1067.85 856.701 994.863 821.961 935.138 751.969C874.073 684.15 820.374 594.261 772.42 510.268C724.755 425.772 680.471 347.953 643.442 294.897C624.9 268.689 594.475 223.912 546.319 180.318C499.128 136.436 428.058 99.7689 347.425 111.911C267.186 122.836 184.758 172.791 105.52 233.294C26.1082 294.918 -49.4117 372.622 -126.826 444.338C-203.888 516.375 -285.511 580.247 -369.821 616.225C-453.583 653.611 -536.691 667.621 -608.707 667.833C-753.707 667.714 -851.692 619.852 -871.952 612.506C-955.172 578.95 -1041.9 513.577 -1041.65 513.425Z" fill="url(#paint26_linear_219_5407)"/>
<path d="M-1041.65 477.942C-1041.85 478.124 -955.913 542.194 -874.36 577.505C-854.431 585.315 -758.49 634.995 -615.385 640.548C-544.289 643.012 -461.964 632.675 -378.301 599.515C-294.174 567.7 -211.823 508.599 -133.626 440.915C-55.1316 373.527 21.5905 299.863 101.332 240.982C180.981 183.192 262.646 134.387 342.433 122.232C422.588 109.004 493.998 142.945 542.058 184.578C590.97 226.004 622.431 268.905 641.527 294.06C679.56 345.114 726.026 419.674 774.801 501.77C823.948 583.307 878.063 670.965 938.41 737.956C997.507 806.971 1069.09 842.045 1122.05 841.119C1175.01 841.96 1206.37 824.51 1206.39 825.85C1206.37 824.514 1175.07 842.121 1122.05 841.512C1069.03 842.675 997.158 807.816 937.785 738.894C877.188 672.038 822.826 584.47 773.525 503.063C724.603 421.09 678.098 346.72 640.139 295.763C621.091 270.668 589.698 227.877 541.019 186.658C493.165 145.223 422.344 111.557 342.641 124.688C263.335 136.745 181.789 185.419 102.281 243.129C22.6643 301.917 -54.0288 375.535 -132.581 442.973C-210.819 510.708 -293.392 569.978 -377.74 601.882C-461.63 635.126 -544.167 645.489 -615.427 643.016C-758.885 637.45 -855.017 587.66 -874.992 579.838C-956.789 544.404 -1041.9 478.086 -1041.65 477.942Z" fill="url(#paint27_linear_219_5407)"/>
<path d="M-1041.65 442.463C-1041.84 442.632 -957.465 507.734 -877.262 544.913C-857.62 553.213 -763.466 604.808 -621.909 615.754C-551.566 620.893 -469.805 614.19 -386.056 585.21C-301.922 557.498 -218.629 503.161 -139.278 439.851C-59.6772 376.795 18.2147 307.29 98.1456 251.182C177.964 196.041 258.764 148.022 337.685 135.098C416.863 120.615 488.087 151.543 536.839 190.526C586.335 229.441 618.716 270.348 638.338 294.357C677.441 343.074 725.953 414.282 775.939 493.944C826.269 573.093 881.128 658.439 940.914 724.758C999.764 792.632 1070.14 828.188 1122.64 828.399C1175.1 830.288 1206.39 813.768 1206.39 815.082C1206.39 813.768 1175.14 830.441 1122.63 828.78C1070.07 828.813 999.415 793.473 940.302 725.684C880.272 659.504 825.172 574.26 774.708 495.266C724.587 415.74 676.046 344.735 637.02 296.111C617.443 272.148 585.13 231.352 535.868 192.626C487.317 153.825 416.67 123.138 337.916 137.52C259.447 150.347 178.753 198.247 99.0497 253.324C19.2278 309.356 -58.6194 378.815 -138.294 441.939C-217.686 505.287 -301.214 559.793 -385.572 587.573C-469.532 616.624 -551.505 623.348 -622.021 618.196C-763.902 607.217 -858.245 555.516 -877.925 547.199C-958.359 509.898 -1041.88 442.598 -1041.65 442.463Z" fill="url(#paint28_linear_219_5407)"/>
<path d="M-1041.65 406.978C-1041.83 407.142 -958.969 473.305 -880.083 512.364C-860.721 521.159 -768.31 574.656 -628.304 590.986C-558.693 598.783 -477.544 595.715 -393.74 570.966C-309.613 547.417 -225.406 497.965 -144.927 439.127C14.8771 321.526 175.851 180.039 332.946 147.771C411.169 132.417 482.284 159.693 531.677 196.2C581.888 232.276 615.08 271.377 635.327 294.039C675.491 340.376 726.048 408.098 777.099 485.527C828.557 562.357 883.99 645.699 943.308 711.359C1001.83 778.341 1071.14 814.349 1123.19 815.706C1175.16 818.635 1206.42 803.027 1206.4 804.316C1206.41 803.027 1175.22 818.787 1123.17 816.078C1071.07 814.958 1001.49 779.166 942.702 712.28C883.153 646.765 827.489 563.532 775.903 486.871C724.734 409.606 674.167 342.108 634.077 295.843C613.878 273.233 580.753 234.228 530.776 198.33C481.582 161.993 411.031 134.919 333.196 150.176C176.845 182.245 15.8453 323.551 -144.013 441.244C-224.537 500.129 -308.982 549.725 -393.327 573.341C-477.329 598.145 -558.69 601.23 -628.462 593.408C-768.794 577.039 -861.384 523.433 -880.776 514.621C-959.889 475.439 -1041.86 407.109 -1041.65 406.978Z" fill="url(#paint29_linear_219_5407)"/>
<path d="M-1041.65 371.504C-1041.83 371.652 -960.411 438.947 -882.811 479.879C-863.721 489.185 -772.994 544.596 -634.533 566.268C-565.672 576.728 -485.138 577.278 -401.312 556.814C-317.243 537.436 -232.135 493.065 -150.588 438.719C11.8733 330.505 173.174 195.221 328.234 160.253C405.648 143.627 476.507 167.679 526.615 201.468C577.432 234.788 611.711 271.539 632.432 293.072C673.747 336.831 726.135 401.236 778.211 476.514C830.791 551.037 886.612 632.739 945.552 697.748C1003.72 764.063 1072.06 800.51 1123.67 803.016C1175.21 806.993 1206.42 792.286 1206.39 793.541C1206.41 792.286 1175.26 807.141 1123.65 803.392C1071.98 801.123 1003.37 764.883 944.946 698.674C885.782 633.804 829.743 552.241 777.051 477.884C724.865 402.795 672.487 338.623 631.243 294.936C610.573 273.45 576.365 236.791 525.782 203.619C475.872 169.995 405.555 146.112 328.506 162.641C251.483 177.255 172.533 224.53 92.3364 274.413C12.165 325.387 -67.894 386.647 -149.748 440.866C-231.365 495.258 -316.691 539.757 -400.979 559.185C-485.007 579.703 -565.732 579.15 -634.751 568.669C-773.522 546.933 -864.423 491.425 -883.549 482.106C-961.357 441.039 -1041.86 371.622 -1041.65 371.504Z" fill="url(#paint30_linear_219_5407)"/>
<path d="M-1041.65 336.011C-1041.81 336.168 -961.805 404.629 -885.442 447.454C-866.625 457.284 -777.513 514.597 -640.61 541.62C-572.483 554.734 -492.597 558.893 -408.8 542.753C-324.827 527.58 -238.863 488.466 -156.268 438.621C-73.4489 389.068 7.63599 331.81 88.067 283.132C168.575 235.654 246.82 188.425 323.545 172.543C400.193 154.594 470.821 175.391 521.657 206.26C573.127 236.66 608.384 271.15 629.609 291.466C672.033 332.601 726.244 393.599 779.263 466.891C832.898 539.245 889.081 619.468 947.633 683.991C1005.45 749.752 1072.9 786.69 1124.11 790.337C1175.25 795.358 1206.44 781.542 1206.39 782.768C1206.44 781.542 1175.29 795.506 1124.09 790.713C1072.82 787.294 1005.1 750.555 947.037 684.908C888.267 620.533 831.879 540.454 778.141 468.294C725.026 395.2 670.856 334.456 628.496 293.376C607.316 273.099 572.143 238.701 520.897 208.441C470.257 177.711 400.142 157.045 323.846 174.905C247.493 190.682 169.322 237.835 88.8523 285.291C8.49829 333.936 -72.5834 391.19 -155.499 440.794C-238.148 490.689 -324.34 529.909 -408.524 545.124C-492.536 561.298 -572.602 557.126 -640.873 543.987C-778.074 516.9 -867.343 459.474 -886.202 449.643C-962.764 406.687 -1041.85 336.134 -1041.65 336.011Z" fill="url(#paint31_linear_219_5407)"/>
<path d="M-1041.65 300.531C-1041.81 300.675 -963.152 370.383 -887.994 415.114C-869.427 425.452 -781.867 484.704 -646.512 517.056C-579.138 532.816 -499.922 540.571 -416.193 528.797C-332.344 517.897 -245.595 484.112 -162.006 438.866C-78.171 393.999 3.91089 340.706 84.5052 294.23C165.35 249.266 242.803 201.864 318.864 184.625C394.782 165.362 465.201 182.867 516.768 210.587C568.857 238.024 605.075 270.178 626.842 289.166C670.42 327.524 726.209 385.382 780.203 456.688C834.85 526.98 891.373 605.88 949.537 670.077C1007.04 735.391 1073.65 772.886 1124.5 777.683C1175.26 783.743 1206.45 770.803 1206.39 771.999C1206.45 770.794 1175.3 783.891 1124.47 778.046C1073.56 773.49 1006.69 736.185 948.941 670.982C890.568 606.941 833.844 528.205 779.109 458.116C725.023 387.013 669.308 329.434 625.8 291.123C604.078 272.177 567.947 240.112 516.082 212.793C464.714 185.212 394.778 167.804 319.182 186.97C243.473 204.108 166.065 251.451 85.2555 296.402C4.69312 342.849 -77.3793 396.155 -161.308 441.068C-244.986 486.357 -331.931 520.226 -415.994 531.164C-499.935 542.963 -579.331 535.191 -646.843 519.398C-782.492 486.978 -870.2 427.62 -888.786 417.261C-964.133 372.403 -1041.85 300.641 -1041.65 300.531Z" fill="url(#paint32_linear_219_5407)"/>
<path d="M-1041.65 265.052C-1041.81 265.187 -964.434 336.193 -890.44 382.868C-872.146 393.729 -786.073 454.939 -652.264 492.608C-585.63 511.039 -507.087 522.323 -423.482 514.986C-339.778 508.422 -252.381 479.933 -167.809 439.441C-83.0052 399.329 0.019043 349.945 80.8347 305.548C161.881 262.516 238.779 215.372 314.168 196.476C389.412 175.831 459.646 189.959 511.915 214.417C564.6 238.806 601.764 268.543 624.066 286.158C668.782 321.646 726.026 376.474 780.994 445.895C836.61 514.242 893.466 591.989 951.255 655.971C1008.47 720.962 1074.31 759.1 1124.83 765.026C1175.25 772.147 1206.47 760.051 1206.39 761.226C1206.46 760.051 1175.3 772.291 1124.8 765.393C1074.21 759.696 1008.11 721.748 950.666 656.879C892.671 593.05 835.626 515.48 779.933 447.348C724.888 378.139 667.747 323.607 623.104 288.169C600.853 270.592 563.779 240.945 511.309 216.657C459.235 192.309 389.47 178.256 314.527 198.796C239.462 217.599 162.593 264.684 81.5464 307.72C0.762817 352.109 -82.2839 401.497 -167.187 441.664C-251.853 482.198 -339.458 510.768 -423.357 517.34C-507.167 524.694 -585.874 513.384 -652.645 494.915C-786.736 457.166 -872.921 395.851 -891.267 384.973C-965.438 338.179 -1041.83 265.162 -1041.65 265.052Z" fill="url(#paint33_linear_219_5407)"/>
<path d="M-1041.65 229.571C-1041.8 229.694 -965.678 302.073 -892.812 350.705C-874.755 362.103 -790.131 425.303 -657.864 468.293C-591.961 489.416 -514.127 504.128 -430.676 501.3C-347.184 499.115 -259.213 476.023 -173.717 440.345C-88.0126 405.021 -4.02966 359.525 77.0104 317.072C158.297 275.849 234.74 228.831 309.523 208.342C384.075 185.96 454.164 196.598 507.077 217.746C560.343 238.996 598.423 266.238 621.242 282.45C667.022 315.052 725.677 366.925 781.587 434.563C838.184 501.017 895.342 577.804 952.797 641.685C1009.75 706.457 1074.87 745.313 1125.1 752.354C1175.23 760.545 1206.48 749.29 1206.39 750.448C1206.48 749.295 1175.27 760.693 1125.07 752.726C1074.76 745.897 1009.39 707.239 952.207 642.585C894.547 578.874 837.216 502.272 780.555 436.042C724.574 368.633 666.048 317.064 620.347 284.513C597.584 268.326 559.599 241.164 506.551 219.999C453.834 198.952 384.183 188.365 309.907 210.65C235.426 231.038 159.012 278.013 77.7061 319.253C-3.33728 361.702 -87.349 407.219 -173.159 442.589C-258.761 478.309 -346.927 501.465 -430.631 503.654C-514.274 506.494 -592.262 491.745 -658.303 470.571C-790.833 427.505 -875.576 364.199 -893.666 352.784C-966.694 304.026 -1041.83 229.664 -1041.65 229.571Z" fill="url(#paint34_linear_219_5407)"/>
<path d="M-1041.65 194.082C-1041.79 194.205 -966.864 268.029 -895.092 318.665C-877.278 330.608 -794.045 395.849 -663.304 444.143C-598.142 467.975 -521.016 486.097 -437.793 487.805C-354.537 489.994 -266.089 472.379 -179.724 441.561C-93.1803 411.085 -8.25171 369.435 73.0576 328.812C154.636 289.376 230.618 242.046 304.846 219.917C378.791 196.136 448.704 202.514 502.179 220.72C556.041 238.475 594.984 263.313 618.279 278.118C665.073 307.778 725.068 356.828 781.953 422.695C839.53 487.357 897.008 563.324 954.147 627.226C1010.87 691.892 1075.33 731.53 1125.32 739.704C1175.18 748.968 1206.49 738.559 1206.39 739.679C1206.49 738.546 1175.22 749.112 1125.27 740.068C1075.21 732.105 1010.51 692.653 953.554 628.122C896.213 564.389 838.575 488.62 780.943 424.199C724 358.561 664.169 309.836 617.462 280.222C594.221 265.46 555.38 240.694 501.733 223.007C448.451 204.876 378.945 198.524 305.256 222.204C231.313 244.235 155.341 291.532 73.7179 331.005C-7.61377 371.633 -92.5905 413.312 -179.25 443.83C-265.727 474.695 -354.377 492.348 -437.822 490.155C-521.234 488.443 -598.517 470.283 -663.791 446.396C-794.776 398.021 -878.14 332.679 -895.98 320.718C-967.909 269.944 -1041.82 194.179 -1041.65 194.082Z" fill="url(#paint35_linear_219_5407)"/>
<path d="M-1041.65 158.604C-1041.78 158.718 -968.001 234.06 -897.293 286.732C-879.723 299.233 -797.814 366.55 -668.596 420.156C-604.187 446.701 -527.776 468.213 -444.835 474.464C-361.888 481.006 -273.064 468.948 -185.885 443.054C-98.5652 417.451 -12.6877 379.634 68.9518 340.744C150.854 302.923 226.486 255.36 300.156 231.287C373.548 205.621 443.207 208.448 497.236 223.245C551.595 237.584 591.4 259.734 615.122 273.233C662.849 299.964 724.238 346.048 782.072 410.313C840.647 473.234 898.442 548.555 955.314 612.562C1011.84 677.22 1075.7 717.72 1125.47 727.035C1175.12 737.394 1206.52 727.8 1206.39 728.903C1206.51 727.796 1175.15 737.537 1125.42 727.398C1075.57 718.299 1011.47 677.985 954.724 613.453C897.657 549.615 839.701 474.497 781.088 411.834C723.209 347.819 662.012 302.065 614.382 275.38C590.721 261.915 551.025 239.833 496.88 225.544C443.044 210.819 373.756 207.992 300.608 233.561C227.198 257.537 151.563 305.087 69.5736 342.954C-12.0851 381.853 -98.0363 419.716 -185.475 445.349C-272.779 471.281 -361.795 483.364 -444.928 476.809C-528.055 470.542 -604.6 448.992 -669.144 422.396C-798.6 368.696 -880.608 301.27 -898.21 288.756C-969.088 235.957 -1041.81 158.688 -1041.65 158.604Z" fill="url(#paint36_linear_219_5407)"/>
<path d="M-1041.65 123.121C-1041.78 123.231 -969.106 200.183 -899.43 254.935C-882.094 268.003 -801.474 337.47 -673.771 396.389C-610.071 425.537 -534.429 450.629 -451.802 461.283C-369.22 472.284 -280.112 465.746 -192.211 444.809C-104.189 424.13 -17.3503 390.129 64.6675 352.879C146.971 316.639 222.279 268.527 295.41 242.391C368.292 214.76 437.689 213.969 492.202 225.292C546.997 236.14 587.591 255.619 611.733 267.774C660.318 291.594 723.095 334.706 781.901 397.42C841.495 458.659 899.633 533.506 956.284 597.704C1012.65 662.455 1075.95 703.902 1125.55 714.362C1175.02 725.828 1206.52 717.05 1206.39 718.136C1206.52 717.041 1175.05 725.984 1125.51 714.717C1075.83 704.472 1012.28 663.211 955.694 598.587C898.844 534.567 840.565 459.944 780.949 398.967C722.098 336.519 659.552 293.741 611.069 269.964C586.991 257.834 546.519 238.419 491.926 227.612C437.602 216.34 368.548 217.118 295.901 244.648C223.01 270.686 147.673 318.798 65.2573 355.085C-16.799 392.361 -103.731 426.404 -191.891 447.121C-279.923 468.083 -369.22 474.634 -451.988 463.612C-534.775 452.936 -610.571 427.79 -674.38 398.603C-802.304 339.579 -883.033 270.006 -900.388 256.925C-970.212 202.047 -1041.8 123.206 -1041.65 123.121Z" fill="url(#paint37_linear_219_5407)"/>
<path d="M-1041.65 87.6367C-1041.77 87.7381 -970.173 166.385 -901.484 223.275C-884.388 236.918 -805.012 308.6 -678.817 372.843C-615.847 404.591 -540.962 433.267 -458.723 448.304C-376.548 463.671 -287.269 462.817 -198.709 446.808C-110.046 431.056 -22.2416 400.881 60.2057 365.185C143.115 330.919 217.945 281.357 290.618 253.256C363.013 223.668 432.14 219.209 487.054 226.906C542.214 234.23 583.536 251.008 608.082 261.815C657.469 282.726 721.612 322.863 781.436 384.068C842.066 443.714 900.605 518.164 957.08 582.645C1013.33 647.59 1076.13 690.056 1125.59 701.666C1174.91 714.26 1206.54 706.285 1206.39 707.367C1206.53 706.285 1174.94 714.416 1125.54 702.02C1075.99 690.626 1012.96 648.347 956.487 583.532C899.823 519.217 841.143 445.007 780.513 385.641C720.66 324.706 656.767 284.907 607.498 264.029C583.029 253.256 541.836 236.537 486.874 229.238C432.144 221.585 363.333 226.01 291.154 255.505C218.692 283.508 143.82 333.087 60.7827 367.417C-21.7383 403.142 -109.648 433.36 -198.462 449.141C-287.16 465.171 -376.619 466.02 -458.97 450.624C-541.385 435.557 -616.386 406.831 -679.471 375.028C-805.871 310.683 -885.35 238.904 -902.478 225.245C-971.308 168.223 -1041.8 87.7128 -1041.65 87.6367Z" fill="url(#paint38_linear_219_5407)"/>
<path d="M-1041.65 52.1562C-1041.76 52.2535 -971.198 132.68 -903.49 191.751C-886.612 205.98 -808.445 279.945 -683.769 349.526C-621.495 383.882 -547.405 416.111 -465.599 435.531C-383.876 455.196 -294.552 460.09 -205.415 449.005C-116.177 438.194 -27.3861 411.864 55.5613 377.665C139.006 344.894 213.631 294.373 285.779 263.948C357.682 232.137 426.534 224.069 481.759 228.092C537.208 231.942 579.193 246.003 604.127 255.386C654.254 273.411 719.75 310.564 780.652 370.277C842.361 428.338 901.34 502.535 957.686 567.379C1013.86 632.624 1076.2 676.176 1125.57 688.952C1174.78 702.709 1206.56 695.536 1206.39 696.602C1206.55 695.536 1174.81 702.861 1125.51 689.315C1076.06 676.746 1013.48 633.372 957.093 568.27C900.558 503.596 841.451 429.657 779.751 371.875C718.843 312.449 653.616 275.638 603.62 257.643C578.763 248.294 536.916 234.284 481.669 230.442C426.627 226.444 358.054 234.466 286.359 266.184C214.4 296.516 139.727 347.067 56.1127 379.918C-26.9341 414.155 -115.841 440.514 -205.225 451.35C-294.533 462.457 -384.033 457.563 -465.919 437.851C-547.892 418.398 -622.107 386.109 -684.474 351.694C-809.349 282.007 -887.622 207.941 -904.526 193.686C-972.355 134.484 -1041.78 52.2239 -1041.65 52.1562Z" fill="url(#paint39_linear_219_5407)"/>
<path d="M-1041.65 16.6719C-1041.77 16.7691 -972.184 99.0422 -905.451 160.374C-888.778 175.175 -811.803 251.552 -688.637 326.455C-627.074 363.435 -553.798 399.21 -472.464 422.974C-391.231 446.954 -301.991 457.537 -212.318 451.354C-122.6 445.509 -32.818 423.029 50.7 390.271C134.795 359.048 209.203 307.221 280.863 274.442C352.276 240.302 420.827 228.498 476.282 228.924C531.939 229.296 574.527 240.631 599.83 248.585C650.646 263.724 717.469 297.889 779.522 356.081C842.376 412.573 901.841 486.626 958.111 551.906C1014.25 617.531 1076.18 662.25 1125.49 676.209C1174.62 691.137 1206.57 684.767 1206.39 685.82C1206.56 684.759 1174.64 691.293 1125.42 676.564C1076.03 662.812 1013.87 618.275 957.515 552.789C901.059 487.692 841.465 413.909 778.643 357.708C716.603 299.812 650.069 265.981 599.397 250.872C574.187 242.943 531.744 231.646 476.276 231.27C421 230.852 352.706 242.609 281.478 276.648C210.007 309.334 135.51 361.22 51.2321 392.524C-32.4077 425.333 -122.334 447.846 -212.215 453.704C-302.061 459.899 -391.472 449.296 -472.855 425.269C-554.356 401.454 -627.744 365.628 -689.4 328.589C-812.761 253.572 -889.833 177.097 -906.521 162.276C-973.389 100.826 -1041.79 16.7437 -1041.65 16.6719Z" fill="url(#paint40_linear_219_5407)"/>
<path d="M-1041.65 -18.8086C-1041.77 -18.7072 -973.142 65.4847 -907.371 129.149C-890.894 144.504 -815.121 223.425 -693.429 303.619C-572.808 384.028 -400.743 458.06 -219.46 453.821C-129.329 452.947 -38.5532 434.363 45.6156 403.004C130.442 373.34 204.685 319.979 275.836 284.736C346.842 248.415 414.973 232.613 470.608 229.532C526.409 226.409 569.539 234.967 595.181 241.493C646.633 253.749 714.786 284.863 778.05 341.516C842.1 396.441 902.12 470.456 958.367 536.234C1014.52 602.333 1076.07 648.294 1125.35 663.449C1174.44 679.573 1206.58 674.011 1206.39 675.046C1206.58 674.007 1174.46 679.733 1125.28 663.804C1075.91 648.856 1014.13 603.068 957.762 537.126C901.328 471.521 841.196 397.789 777.194 343.173C713.962 286.837 646.11 256.039 594.828 243.809C569.276 237.304 526.304 228.776 470.694 231.895C415.242 234.967 347.329 250.706 276.506 286.929C205.519 322.092 131.166 375.525 46.1285 405.282C-38.1781 436.688 -129.133 455.309 -219.448 456.184C-401.079 460.431 -573.462 386.251 -694.256 305.732C-816.124 225.424 -891.984 146.397 -908.48 131.022C-974.373 67.247 -1041.79 -18.7325 -1041.65 -18.8086Z" fill="url(#paint41_linear_219_5407)"/>
<path d="M-1041.65 -54.2969C-1041.78 -54.1828 -974.088 32.0377 -909.291 98.1157C-893 114.028 -818.454 195.688 -698.234 281.177C-579.069 366.654 -408.872 450.136 -226.856 456.501C-136.378 460.545 -44.5831 445.867 40.2974 415.878C125.97 387.84 200.031 332.577 270.678 294.744C341.287 256.132 408.924 236.15 464.68 229.727C520.562 223.184 564.159 229.046 590.119 234.151C642.141 243.589 711.641 271.524 776.188 326.618C841.513 379.929 902.155 454.003 958.438 520.36C1014.65 587.008 1075.87 634.284 1125.16 650.656C1174.24 668.014 1206.6 663.246 1206.39 664.278C1206.59 663.246 1174.25 668.174 1125.09 651.011C1075.7 634.85 1014.25 587.735 957.832 521.243C901.367 455.081 840.619 381.298 775.36 328.313C710.862 273.545 641.686 245.917 589.847 236.501C563.98 231.417 520.546 225.576 464.853 232.102C409.273 238.5 341.838 258.415 271.386 296.933C200.9 334.674 126.691 390.047 40.7814 418.173C-44.2657 448.221 -136.253 462.942 -226.92 458.884C-409.302 452.498 -579.787 368.86 -699.113 283.269C-819.503 197.657 -894.119 115.904 -910.439 99.9753C-975.348 33.7621 -1041.8 -54.2081 -1041.65 -54.2969Z" fill="url(#paint42_linear_219_5407)"/>
<path d="M-1041.65 -89.7754C-1041.8 -89.6317 -975.037 -1.28541 -911.128 67.1339C-895.077 83.7348 -821.587 167.867 -702.88 258.686C-585.08 349.044 -417.079 442.576 -234.415 459.067C-143.672 467.972 -50.8441 457.402 34.8346 428.858C121.459 402.617 195.293 344.949 265.436 304.516C335.638 263.462 402.749 239.448 458.567 229.711C514.452 219.796 558.463 222.974 584.718 226.668C637.268 233.261 708.06 258.031 773.982 311.456C840.657 363.097 901.985 437.31 958.358 504.297C1014.67 571.567 1075.59 620.224 1124.93 637.831C1174.01 656.447 1206.61 652.483 1206.39 653.506C1206.6 652.483 1174.03 656.604 1124.85 638.194C1075.41 620.794 1014.26 572.302 957.745 505.184C901.197 438.392 839.766 364.483 773.177 313.18C707.339 260.093 636.871 235.615 584.519 229.047C558.37 225.366 514.532 222.201 458.82 232.082C403.188 241.781 336.26 265.727 266.196 306.692C196.209 347.02 122.206 404.831 35.2993 431.169C-50.5781 459.781 -143.607 470.377 -234.556 461.459C-417.595 444.922 -585.856 351.221 -703.803 260.753C-822.677 169.803 -896.248 85.5859 -912.308 68.9597C-976.339 0.426201 -1041.81 -89.6571 -1041.65 -89.7754Z" fill="url(#paint43_linear_219_5407)"/>
</g>
</g>
<defs>
<linearGradient id="paint0_linear_219_5407" x1="-818.764" y1="341.261" x2="1202.5" y2="384.207" gradientUnits="userSpaceOnUse">
<stop stop-color="#600F25"/>
<stop offset="0.3333" stop-color="#DC1F26"/>
<stop offset="0.6848" stop-color="#F78C1E"/>
<stop offset="1" stop-color="#FDBA12"/>
</linearGradient>
<linearGradient id="paint1_linear_219_5407" x1="-818.826" y1="343.091" x2="1250.48" y2="387.058" gradientUnits="userSpaceOnUse">
<stop stop-color="#600F25"/>
<stop offset="0.3333" stop-color="#DC1F26"/>
<stop offset="0.6848" stop-color="#F78C1E"/>
<stop offset="1" stop-color="#FDBA12"/>
</linearGradient>
<linearGradient id="paint2_linear_219_5407" x1="-818.879" y1="344.919" x2="1298.2" y2="389.9" gradientUnits="userSpaceOnUse">
<stop stop-color="#600F25"/>
<stop offset="0.3333" stop-color="#DC1F26"/>
<stop offset="0.6848" stop-color="#F78C1E"/>
<stop offset="1" stop-color="#FDBA12"/>
</linearGradient>
<linearGradient id="paint3_linear_219_5407" x1="-818.935" y1="346.839" x2="1346.02" y2="392.838" gradientUnits="userSpaceOnUse">
<stop stop-color="#600F25"/>
<stop offset="0.3333" stop-color="#DC1F26"/>
<stop offset="0.6848" stop-color="#F78C1E"/>
<stop offset="1" stop-color="#FDBA12"/>
</linearGradient>
<linearGradient id="paint4_linear_219_5407" x1="-818.992" y1="348.582" x2="1393.93" y2="395.6" gradientUnits="userSpaceOnUse">
<stop stop-color="#600F25"/>
<stop offset="0.3333" stop-color="#DC1F26"/>
<stop offset="0.6848" stop-color="#F78C1E"/>
<stop offset="1" stop-color="#FDBA12"/>
</linearGradient>
<linearGradient id="paint5_linear_219_5407" x1="-819.048" y1="350.482" x2="1441.76" y2="398.517" gradientUnits="userSpaceOnUse">
<stop stop-color="#600F25"/>
<stop offset="0.3333" stop-color="#DC1F26"/>
<stop offset="0.6848" stop-color="#F78C1E"/>
<stop offset="1" stop-color="#FDBA12"/>
</linearGradient>
<linearGradient id="paint6_linear_219_5407" x1="-819.105" y1="352.239" x2="1489.64" y2="401.293" gradientUnits="userSpaceOnUse">
<stop stop-color="#600F25"/>
<stop offset="0.3333" stop-color="#DC1F26"/>
<stop offset="0.6848" stop-color="#F78C1E"/>
<stop offset="1" stop-color="#FDBA12"/>
</linearGradient>
<linearGradient id="paint7_linear_219_5407" x1="-819.159" y1="354.081" x2="1537.55" y2="404.154" gradientUnits="userSpaceOnUse">
<stop stop-color="#600F25"/>
<stop offset="0.3333" stop-color="#DC1F26"/>
<stop offset="0.6848" stop-color="#F78C1E"/>
<stop offset="1" stop-color="#FDBA12"/>
</linearGradient>
<linearGradient id="paint8_linear_219_5407" x1="-819.215" y1="355.897" x2="1585.37" y2="406.987" gradientUnits="userSpaceOnUse">
<stop stop-color="#600F25"/>
<stop offset="0.3333" stop-color="#DC1F26"/>
<stop offset="0.6848" stop-color="#F78C1E"/>
<stop offset="1" stop-color="#FDBA12"/>
</linearGradient>
<linearGradient id="paint9_linear_219_5407" x1="-819.272" y1="357.726" x2="1633.23" y2="409.834" gradientUnits="userSpaceOnUse">
<stop stop-color="#600F25"/>
<stop offset="0.3333" stop-color="#DC1F26"/>
<stop offset="0.6848" stop-color="#F78C1E"/>
<stop offset="1" stop-color="#FDBA12"/>
</linearGradient>
<linearGradient id="paint10_linear_219_5407" x1="-819.327" y1="359.557" x2="1681.1" y2="412.683" gradientUnits="userSpaceOnUse">
<stop stop-color="#600F25"/>
<stop offset="0.3333" stop-color="#DC1F26"/>
<stop offset="0.6848" stop-color="#F78C1E"/>
<stop offset="1" stop-color="#FDBA12"/>
</linearGradient>
<linearGradient id="paint11_linear_219_5407" x1="-819.381" y1="361.378" x2="1729.06" y2="415.525" gradientUnits="userSpaceOnUse">
<stop stop-color="#600F25"/>
<stop offset="0.3333" stop-color="#DC1F26"/>
<stop offset="0.6848" stop-color="#F78C1E"/>
<stop offset="1" stop-color="#FDBA12"/>
</linearGradient>
<linearGradient id="paint12_linear_219_5407" x1="-819.44" y1="363.295" x2="1776.79" y2="418.457" gradientUnits="userSpaceOnUse">
<stop stop-color="#600F25"/>
<stop offset="0.3333" stop-color="#DC1F26"/>
<stop offset="0.6848" stop-color="#F78C1E"/>
<stop offset="1" stop-color="#FDBA12"/>
</linearGradient>
<linearGradient id="paint13_linear_219_5407" x1="-819.495" y1="365.073" x2="1824.82" y2="421.256" gradientUnits="userSpaceOnUse">
<stop stop-color="#600F25"/>
<stop offset="0.3333" stop-color="#DC1F26"/>
<stop offset="0.6848" stop-color="#F78C1E"/>
<stop offset="1" stop-color="#FDBA12"/>
</linearGradient>
<linearGradient id="paint14_linear_219_5407" x1="-819.558" y1="366.978" x2="1872.49" y2="424.175" gradientUnits="userSpaceOnUse">
<stop stop-color="#600F25"/>
<stop offset="0.3333" stop-color="#DC1F26"/>
<stop offset="0.6848" stop-color="#F78C1E"/>
<stop offset="1" stop-color="#FDBA12"/>
</linearGradient>
<linearGradient id="paint15_linear_219_5407" x1="-819.611" y1="368.721" x2="1920.38" y2="426.938" gradientUnits="userSpaceOnUse">
<stop stop-color="#600F25"/>
<stop offset="0.3333" stop-color="#DC1F26"/>
<stop offset="0.6848" stop-color="#F78C1E"/>
<stop offset="1" stop-color="#FDBA12"/>
</linearGradient>
<linearGradient id="paint16_linear_219_5407" x1="-819.667" y1="370.58" x2="1968.22" y2="429.813" gradientUnits="userSpaceOnUse">
<stop stop-color="#600F25"/>
<stop offset="0.3333" stop-color="#DC1F26"/>
<stop offset="0.6848" stop-color="#F78C1E"/>
<stop offset="1" stop-color="#FDBA12"/>
</linearGradient>
<linearGradient id="paint17_linear_219_5407" x1="-819.721" y1="372.435" x2="2016.08" y2="432.687" gradientUnits="userSpaceOnUse">
<stop stop-color="#600F25"/>
<stop offset="0.3333" stop-color="#DC1F26"/>
<stop offset="0.6848" stop-color="#F78C1E"/>
<stop offset="1" stop-color="#FDBA12"/>
</linearGradient>
<linearGradient id="paint18_linear_219_5407" x1="-819.777" y1="374.295" x2="2063.93" y2="435.565" gradientUnits="userSpaceOnUse">
<stop stop-color="#600F25"/>
<stop offset="0.3333" stop-color="#DC1F26"/>
<stop offset="0.6848" stop-color="#F78C1E"/>
<stop offset="1" stop-color="#FDBA12"/>
</linearGradient>
<linearGradient id="paint19_linear_219_5407" x1="-819.831" y1="376.152" x2="2111.78" y2="438.439" gradientUnits="userSpaceOnUse">
<stop stop-color="#600F25"/>
<stop offset="0.3333" stop-color="#DC1F26"/>
<stop offset="0.6848" stop-color="#F78C1E"/>
<stop offset="1" stop-color="#FDBA12"/>
</linearGradient>
<linearGradient id="paint20_linear_219_5407" x1="-819.89" y1="378.004" x2="2159.63" y2="441.309" gradientUnits="userSpaceOnUse">
<stop stop-color="#600F25"/>
<stop offset="0.3333" stop-color="#DC1F26"/>
<stop offset="0.6848" stop-color="#F78C1E"/>
<stop offset="1" stop-color="#FDBA12"/>
</linearGradient>
<linearGradient id="paint21_linear_219_5407" x1="-819.944" y1="379.858" x2="2207.48" y2="444.181" gradientUnits="userSpaceOnUse">
<stop stop-color="#600F25"/>
<stop offset="0.3333" stop-color="#DC1F26"/>
<stop offset="0.6848" stop-color="#F78C1E"/>
<stop offset="1" stop-color="#FDBA12"/>
</linearGradient>
<linearGradient id="paint22_linear_219_5407" x1="1206.4" y1="480.846" x2="-1041.65" y2="480.846" gradientUnits="userSpaceOnUse">
<stop stop-color="#600F25"/>
<stop offset="0.3333" stop-color="#DC1F26"/>
<stop offset="0.6848" stop-color="#F78C1E"/>
<stop offset="1" stop-color="#FDBA12"/>
</linearGradient>
<linearGradient id="paint23_linear_219_5407" x1="1206.4" y1="480.791" x2="-1041.65" y2="480.791" gradientUnits="userSpaceOnUse">
<stop stop-color="#600F25"/>
<stop offset="0.3333" stop-color="#DC1F26"/>
<stop offset="0.6848" stop-color="#F78C1E"/>
<stop offset="1" stop-color="#FDBA12"/>
</linearGradient>
<linearGradient id="paint24_linear_219_5407" x1="1206.4" y1="480.783" x2="-1041.65" y2="480.783" gradientUnits="userSpaceOnUse">
<stop stop-color="#600F25"/>
<stop offset="0.3333" stop-color="#DC1F26"/>
<stop offset="0.6848" stop-color="#F78C1E"/>
<stop offset="1" stop-color="#FDBA12"/>
</linearGradient>
<linearGradient id="paint25_linear_219_5407" x1="1206.4" y1="480.726" x2="-1041.65" y2="480.726" gradientUnits="userSpaceOnUse">
<stop stop-color="#600F25"/>
<stop offset="0.3333" stop-color="#DC1F26"/>
<stop offset="0.6848" stop-color="#F78C1E"/>
<stop offset="1" stop-color="#FDBA12"/>
</linearGradient>
<linearGradient id="paint26_linear_219_5407" x1="1206.4" y1="480.721" x2="-1041.65" y2="480.721" gradientUnits="userSpaceOnUse">
<stop stop-color="#600F25"/>
<stop offset="0.3333" stop-color="#DC1F26"/>
<stop offset="0.6848" stop-color="#F78C1E"/>
<stop offset="1" stop-color="#FDBA12"/>
</linearGradient>
<linearGradient id="paint27_linear_219_5407" x1="1206.39" y1="480.437" x2="-1041.65" y2="480.437" gradientUnits="userSpaceOnUse">
<stop stop-color="#600F25"/>
<stop offset="0.3333" stop-color="#DC1F26"/>
<stop offset="0.6848" stop-color="#F78C1E"/>
<stop offset="1" stop-color="#FDBA12"/>
</linearGradient>
<linearGradient id="paint28_linear_219_5407" x1="1206.39" y1="480.18" x2="-1041.65" y2="480.18" gradientUnits="userSpaceOnUse">
<stop stop-color="#600F25"/>
<stop offset="0.3333" stop-color="#DC1F26"/>
<stop offset="0.6848" stop-color="#F78C1E"/>
<stop offset="1" stop-color="#FDBA12"/>
</linearGradient>
<linearGradient id="paint29_linear_219_5407" x1="1206.39" y1="479.898" x2="-1041.65" y2="479.898" gradientUnits="userSpaceOnUse">
<stop stop-color="#600F25"/>
<stop offset="0.3333" stop-color="#DC1F26"/>
<stop offset="0.6848" stop-color="#F78C1E"/>
<stop offset="1" stop-color="#FDBA12"/>
</linearGradient>
<linearGradient id="paint30_linear_219_5407" x1="1206.39" y1="479.429" x2="-1041.65" y2="479.429" gradientUnits="userSpaceOnUse">
<stop stop-color="#600F25"/>
<stop offset="0.3333" stop-color="#DC1F26"/>
<stop offset="0.6848" stop-color="#F78C1E"/>
<stop offset="1" stop-color="#FDBA12"/>
</linearGradient>
<linearGradient id="paint31_linear_219_5407" x1="1206.39" y1="478.809" x2="-1041.65" y2="478.809" gradientUnits="userSpaceOnUse">
<stop stop-color="#600F25"/>
<stop offset="0.3333" stop-color="#DC1F26"/>
<stop offset="0.6848" stop-color="#F78C1E"/>
<stop offset="1" stop-color="#FDBA12"/>
</linearGradient>
<linearGradient id="paint32_linear_219_5407" x1="1206.39" y1="478.026" x2="-1041.65" y2="478.026" gradientUnits="userSpaceOnUse">
<stop stop-color="#600F25"/>
<stop offset="0.3333" stop-color="#DC1F26"/>
<stop offset="0.6848" stop-color="#F78C1E"/>
<stop offset="1" stop-color="#FDBA12"/>
</linearGradient>
<linearGradient id="paint33_linear_219_5407" x1="1206.39" y1="477.015" x2="-1041.65" y2="477.015" gradientUnits="userSpaceOnUse">
<stop stop-color="#600F25"/>
<stop offset="0.3333" stop-color="#DC1F26"/>
<stop offset="0.6848" stop-color="#F78C1E"/>
<stop offset="1" stop-color="#FDBA12"/>
</linearGradient>
<linearGradient id="paint34_linear_219_5407" x1="1206.39" y1="475.738" x2="-1041.65" y2="475.738" gradientUnits="userSpaceOnUse">
<stop stop-color="#600F25"/>
<stop offset="0.3333" stop-color="#DC1F26"/>
<stop offset="0.6848" stop-color="#F78C1E"/>
<stop offset="1" stop-color="#FDBA12"/>
</linearGradient>
<linearGradient id="paint35_linear_219_5407" x1="1206.39" y1="468.921" x2="-1041.65" y2="468.921" gradientUnits="userSpaceOnUse">
<stop stop-color="#600F25"/>
<stop offset="0.3333" stop-color="#DC1F26"/>
<stop offset="0.6848" stop-color="#F78C1E"/>
<stop offset="1" stop-color="#FDBA12"/>
</linearGradient>
<linearGradient id="paint36_linear_219_5407" x1="1206.39" y1="445.332" x2="-1041.65" y2="445.332" gradientUnits="userSpaceOnUse">
<stop stop-color="#600F25"/>
<stop offset="0.3333" stop-color="#DC1F26"/>
<stop offset="0.6848" stop-color="#F78C1E"/>
<stop offset="1" stop-color="#FDBA12"/>
</linearGradient>
<linearGradient id="paint37_linear_219_5407" x1="1206.39" y1="421.797" x2="-1041.65" y2="421.797" gradientUnits="userSpaceOnUse">
<stop stop-color="#600F25"/>
<stop offset="0.3333" stop-color="#DC1F26"/>
<stop offset="0.6848" stop-color="#F78C1E"/>
<stop offset="1" stop-color="#FDBA12"/>
</linearGradient>
<linearGradient id="paint38_linear_219_5407" x1="1206.39" y1="398.314" x2="-1041.65" y2="398.314" gradientUnits="userSpaceOnUse">
<stop stop-color="#600F25"/>
<stop offset="0.3333" stop-color="#DC1F26"/>
<stop offset="0.6848" stop-color="#F78C1E"/>
<stop offset="1" stop-color="#FDBA12"/>
</linearGradient>
<linearGradient id="paint39_linear_219_5407" x1="1206.39" y1="374.892" x2="-1041.65" y2="374.892" gradientUnits="userSpaceOnUse">
<stop stop-color="#600F25"/>
<stop offset="0.3333" stop-color="#DC1F26"/>
<stop offset="0.6848" stop-color="#F78C1E"/>
<stop offset="1" stop-color="#FDBA12"/>
</linearGradient>
<linearGradient id="paint40_linear_219_5407" x1="1206.39" y1="351.522" x2="-1041.65" y2="351.522" gradientUnits="userSpaceOnUse">
<stop stop-color="#600F25"/>
<stop offset="0.3333" stop-color="#DC1F26"/>
<stop offset="0.6848" stop-color="#F78C1E"/>
<stop offset="1" stop-color="#FDBA12"/>
</linearGradient>
<linearGradient id="paint41_linear_219_5407" x1="1206.39" y1="328.212" x2="-1041.65" y2="328.212" gradientUnits="userSpaceOnUse">
<stop stop-color="#600F25"/>
<stop offset="0.3333" stop-color="#DC1F26"/>
<stop offset="0.6848" stop-color="#F78C1E"/>
<stop offset="1" stop-color="#FDBA12"/>
</linearGradient>
<linearGradient id="paint42_linear_219_5407" x1="1206.39" y1="304.987" x2="-1041.65" y2="304.987" gradientUnits="userSpaceOnUse">
<stop stop-color="#600F25"/>
<stop offset="0.3333" stop-color="#DC1F26"/>
<stop offset="0.6848" stop-color="#F78C1E"/>
<stop offset="1" stop-color="#FDBA12"/>
</linearGradient>
<linearGradient id="paint43_linear_219_5407" x1="1206.39" y1="281.863" x2="-1041.65" y2="281.863" gradientUnits="userSpaceOnUse">
<stop stop-color="#600F25"/>
<stop offset="0.3333" stop-color="#DC1F26"/>
<stop offset="0.6848" stop-color="#F78C1E"/>
<stop offset="1" stop-color="#FDBA12"/>
</linearGradient>
</defs>
</svg>
