<svg width="150" height="32" viewBox="0 0 150 32" fill="none" xmlns="http://www.w3.org/2000/svg">
<g clip-path="url(#clip0_235_4098)">
<path fill-rule="evenodd" clip-rule="evenodd" d="M9.9139 0.547852H32.3627C32.8984 0.547852 33.3932 0.826694 33.6603 1.27907L40.2006 12.3546C40.5398 12.929 40.439 13.654 39.9552 14.1197L21.953 31.4515C21.3699 32.013 20.4318 32.013 19.8485 31.4515L1.87065 14.1431C1.37563 13.6665 1.28294 12.9205 1.64695 12.3426L8.63798 1.24354C8.91024 0.811283 9.3934 0.547852 9.9139 0.547852ZM29.4642 5.4927V8.60033H23.0694V10.755C27.5607 10.9852 30.9303 11.9308 30.9554 13.0643L30.9551 15.4274C30.9301 16.5609 27.5607 17.5065 23.0694 17.7368V23.0244H18.8232V17.7368C14.332 17.5065 10.9623 16.5609 10.9373 15.4274L10.9375 13.0643C10.9625 11.9308 14.332 10.9852 18.8232 10.755V8.60033H12.4284V5.4927H29.4642ZM20.9463 16.1133C25.7393 16.1133 29.7455 15.3137 30.7259 14.2458C29.8945 13.3402 26.8872 12.6276 23.0694 12.4319V14.6878C22.3851 14.7229 21.6748 14.7414 20.9463 14.7414C20.2179 14.7414 19.5075 14.7229 18.8232 14.6878V12.4319C15.0054 12.6276 11.9982 13.3402 11.1668 14.2458C12.1473 15.3137 16.1534 16.1133 20.9463 16.1133Z" fill="#009393"/>
<path d="M48.9643 6.55699L54.1536 5.98828V10.8934H58.6582V15.1587H54.1175V21.7699C54.1175 23.3339 54.7902 24.1159 56.1356 24.1159C57.0004 24.1159 57.7211 23.9736 58.2978 23.6893L59.487 27.9546C58.3098 28.4048 57.0605 28.6656 55.7392 28.7365C53.649 28.8314 51.9914 28.3456 50.7661 27.2792C49.5648 26.1892 48.9643 24.3528 48.9643 21.7699V15.1587H45.793V10.8934H48.9643V6.55699Z" fill="#009393"/>
<path d="M78.0771 21.2373H64.9958C65.1398 22.1377 65.6324 22.8842 66.4733 23.4765C67.3141 24.0453 68.4313 24.3296 69.8247 24.3296C71.8188 24.3296 73.3562 23.8675 74.4374 22.9434L77.3564 26.1423C75.5786 27.8722 73.0319 28.7371 69.7165 28.7371C66.5454 28.7371 64.0828 27.8959 62.329 26.2135C60.5992 24.5311 59.7344 22.2562 59.7344 19.3889C59.7344 16.6876 60.5872 14.5076 62.293 12.8488C63.9987 11.1664 66.293 10.3252 69.176 10.3252C72.3232 10.3252 74.7257 11.273 76.3833 13.1687C78.0651 15.0644 78.6297 17.754 78.0771 21.2373ZM64.9958 17.5052H73.4283C73.3803 16.6047 72.9479 15.9175 72.1311 15.4436C71.3142 14.9459 70.3292 14.6971 69.176 14.6971C68.1429 14.6971 67.2541 14.9459 66.5093 15.4436C65.7645 15.9412 65.26 16.6284 64.9958 17.5052Z" fill="#009393"/>
<path d="M82.4056 6.55699L87.5949 5.98828V10.8934H92.0996V15.1587H87.5589V21.7699C87.5589 23.3339 88.2316 24.1159 89.5769 24.1159C90.4418 24.1159 91.1625 23.9736 91.7392 23.6893L92.9284 27.9546C91.7512 28.4048 90.5019 28.6656 89.1806 28.7365C87.0904 28.8314 85.4326 28.3456 84.2075 27.2792C83.0062 26.1892 82.4056 24.3528 82.4056 21.7699V15.1587H79.2344V10.8934H82.4056V6.55699Z" fill="#009393"/>
<path d="M94.8711 3.46484H100.096V12.9552C101.37 11.3201 103.172 10.5026 105.502 10.5026C110.235 10.5026 112.601 13.3106 112.601 18.9266V28.3458H107.412V18.9622C107.412 17.7536 107.1 16.8176 106.475 16.1541C105.874 15.4906 105.058 15.1589 104.025 15.1589C102.895 15.1589 101.946 15.5381 101.178 16.2963C100.433 17.0546 100.06 18.1091 100.06 19.4597V28.3458H94.8711V3.46484Z" fill="#009393"/>
<path d="M132.956 21.2373H119.875C120.019 22.1377 120.511 22.8842 121.352 23.4765C122.193 24.0453 123.31 24.3296 124.704 24.3296C126.698 24.3296 128.236 23.8675 129.316 22.9434L132.236 26.1423C130.458 27.8722 127.911 28.7371 124.596 28.7371C121.424 28.7371 118.962 27.8959 117.208 26.2135C115.478 24.5311 114.613 22.2562 114.613 19.3889C114.613 16.6876 115.466 14.5076 117.172 12.8488C118.878 11.1664 121.171 10.3252 124.055 10.3252C127.202 10.3252 129.604 11.273 131.263 13.1687C132.944 15.0644 133.508 17.754 132.956 21.2373ZM119.875 17.5052H128.308C128.26 16.6047 127.827 15.9175 127.01 15.4436C126.193 14.9459 125.208 14.6971 124.055 14.6971C123.022 14.6971 122.133 14.9459 121.388 15.4436C120.643 15.9412 120.139 16.6284 119.875 17.5052Z" fill="#009393"/>
<path d="M135.109 10.823H139.939L140.335 12.7424C141.465 11.1785 143.05 10.3965 145.092 10.3965C146.773 10.3965 148.227 10.9296 149.453 11.9959L147.29 16.048C146.449 15.4556 145.501 15.1594 144.444 15.1594C143.266 15.1594 142.282 15.5267 141.489 16.2613C140.696 16.9722 140.299 17.9555 140.299 19.2115V28.3463H135.109V10.823Z" fill="#009393"/>
</g>
<defs>
<clipPath id="clip0_235_4098">
<rect width="149" height="32" fill="white" transform="translate(0.5)"/>
</clipPath>
</defs>
</svg>
