<svg width="206" height="32" viewBox="0 0 206 32" fill="none" xmlns="http://www.w3.org/2000/svg">
<g clip-path="url(#clip0_234_3972)">
<path d="M12.041 25.3564C14.1544 29.0293 17.6118 29.0293 19.7159 25.3564L20.8931 23.3055L10.3262 4.89453H0.296875L12.041 25.3564Z" fill="#FFDD00"/>
<path d="M34.3052 17.4882C33.5358 18.8212 31.7191 18.8212 30.9497 17.4882L23.7105 4.89409H13.6719L25.4345 25.356C27.5479 29.0288 30.9961 29.0288 33.1094 25.356L40.979 11.6432L37.1045 4.88477H27.0752L34.3052 17.4882Z" fill="#FFDD00"/>
<path d="M51.715 25.4399H55.1353L55.1631 25.328C57.2765 17.4509 58.1386 14.0856 58.4908 11.9975C58.8338 14.0763 59.6587 17.4882 61.6794 25.328L61.7072 25.4399H65.2017L70.0681 7.42969H66.8795L66.8516 7.54155C64.7383 15.717 63.9318 19.0263 63.5611 21.1424C63.1347 18.8771 62.217 15.139 60.2427 7.54155L60.2149 7.42969H56.8872L56.8594 7.54155C54.8016 15.6424 53.9396 19.1102 53.5688 21.3568C53.161 19.1661 52.2619 15.5305 50.2041 7.54155L50.1763 7.42969H46.8672L51.6779 25.3373L51.715 25.4399Z" fill="black"/>
<path d="M75.4813 25.692C78.0674 25.692 80.5145 24.2751 81.4971 22.159L79.1334 20.9471H79.087L79.0407 21.031C78.7534 21.6276 77.7059 23.0166 75.5091 23.0166C73.5162 23.0166 71.9961 21.7395 71.7644 19.8844H81.9327V19.7446C81.9976 17.2183 81.3117 15.1488 79.9584 13.7598C78.7904 12.548 77.1683 11.9141 75.2867 11.9141C73.405 11.9141 71.7273 12.6225 70.513 13.8997C69.308 15.1675 68.6406 16.92 68.6406 18.8217C68.6406 22.8675 71.4585 25.692 75.4813 25.692ZM75.2867 14.5336C77.1683 14.5336 78.605 15.7454 78.7534 17.4327H71.7644C71.9776 15.7454 73.4328 14.5336 75.2867 14.5336Z" fill="black"/>
<path d="M88.3657 25.6919C91.6933 25.6919 93.7604 24.1352 93.7604 21.6275C93.7604 18.6538 91.0723 17.9547 88.9126 17.386C87.4202 16.9945 86.1318 16.6589 86.1318 15.708C86.1318 14.9436 86.9382 14.403 88.0876 14.403C89.3482 14.403 90.2195 15.0741 90.3678 16.1462L90.4605 16.6869H90.5162L93.1672 16.1835C93.1672 13.6852 90.9703 11.9326 88.1154 11.9326C85.2605 11.9326 83.1286 13.564 83.1286 15.8945C83.1286 18.7191 85.7332 19.4182 87.8281 19.9775C89.3482 20.3877 90.6552 20.7419 90.6552 21.7301C90.6552 22.597 89.8117 23.1284 88.4584 23.1284C86.827 23.1284 85.7332 22.364 85.5942 21.1335L85.5664 20.9284L82.7578 21.4597C82.7764 24.2284 85.8167 25.6919 88.3657 25.6919Z" fill="black"/>
<path d="M96.1334 22.9878C96.1334 24.4793 97.0696 25.6912 98.6269 25.6912C100.555 25.6912 101.12 25.4395 101.12 25.4395V22.9318C101.12 22.9318 100.546 23.0251 99.8411 23.0251C99.3869 23.0251 99.0625 22.7454 99.0625 22.3352V14.7285H101.102L101.074 12.1929H99.0718V8.42676L96.1427 9.1632V12.1929H94.6133V14.7285H96.1427V22.9878H96.1334Z" fill="black"/>
<path d="M119.104 13.8715V12.1935H116.527V25.4402H119.623L119.595 17.3393C119.633 16.5283 119.911 15.9037 120.402 15.4842C121.051 14.9342 122.07 14.7478 123.414 14.9342L123.572 14.9529L123.6 12.1935L123.47 12.1749C121.625 11.9139 119.948 12.4825 119.104 13.8715Z" fill="black"/>
<path d="M132.023 11.9229C130.16 11.9229 128.417 12.6686 127.546 14.0856V12.1932H124.867V25.4398H127.991V18.3271C127.991 16.0432 129.177 14.6822 131.17 14.6822C132.533 14.6822 134.155 15.2788 134.155 18.1313V25.4398H137.279V17.7025C137.279 13.4423 134.554 11.9229 132.023 11.9229Z" fill="black"/>
<path d="M154.068 17.9822C154.068 21.0399 152.622 22.7271 150.008 22.7271C147.394 22.7271 145.976 21.0399 145.976 17.9822V7.42969H142.824V17.9077C142.824 22.7831 145.512 25.6916 150.008 25.6916C154.503 25.6916 157.192 22.7831 157.192 17.9077V7.42969H154.068V17.9822Z" fill="black"/>
<path d="M166.208 11.9229C164.345 11.9229 162.593 12.6686 161.731 14.0856V12.1932H159.043V25.4398H162.167V18.3271C162.167 16.0432 163.353 14.6822 165.346 14.6822C166.709 14.6822 168.331 15.2788 168.331 18.1313V25.4398H171.454V17.7025C171.464 13.4423 168.748 11.9229 166.208 11.9229Z" fill="black"/>
<path d="M176.498 12.1934H173.402V25.44H176.498V12.1934Z" fill="black"/>
<path d="M174.96 7.30859C173.95 7.30859 173.152 8.09164 173.152 9.09842C173.152 10.1052 173.959 10.8603 174.96 10.8603C175.961 10.8603 176.74 10.0679 176.74 9.09842C176.74 8.11029 175.942 7.30859 174.96 7.30859Z" fill="black"/>
<path d="M184.888 11.9229C182.96 11.9229 181.199 12.622 179.92 13.8805C178.65 15.1483 177.945 16.8915 177.945 18.8025C177.945 22.7923 180.865 25.6915 184.888 25.6915C188.911 25.6915 191.849 22.7923 191.849 18.8025C191.849 16.8915 191.145 15.139 189.875 13.8805C188.596 12.6127 186.825 11.9229 184.888 11.9229ZM184.888 22.8296C182.654 22.8296 180.976 21.0957 180.976 18.8025C180.976 16.5093 182.654 14.7754 184.888 14.7754C187.122 14.7754 188.846 16.5093 188.846 18.8025C188.846 21.0957 187.14 22.8296 184.888 22.8296Z" fill="black"/>
<path d="M200.45 11.9229C198.587 11.9229 196.845 12.6686 195.973 14.0856V12.1932H193.285V25.4398H196.409V18.3271C196.409 16.0432 197.595 14.6822 199.588 14.6822C200.951 14.6822 202.573 15.2788 202.573 18.1313V25.4398H205.697V17.7025C205.706 13.4423 202.99 11.9229 200.45 11.9229Z" fill="black"/>
<path d="M108.544 11.9229C106.681 11.9229 104.985 12.6313 103.771 13.9084C102.566 15.1762 101.898 16.9288 101.898 18.8305C101.898 22.8669 104.707 25.6915 108.739 25.6915C111.325 25.6915 113.772 24.2745 114.755 22.1584L112.391 20.9466H112.345L112.299 21.0305C112.011 21.6271 110.964 23.0161 108.767 23.0161C106.774 23.0161 105.254 21.739 105.022 19.8839H115.191V19.744C115.255 17.2178 114.569 15.1483 113.216 13.7593C112.048 12.5567 110.426 11.9229 108.544 11.9229ZM105.013 17.4322C105.226 15.7449 106.681 14.533 108.544 14.533C110.408 14.533 111.863 15.7449 112.011 17.4322H105.013Z" fill="black"/>
</g>
<defs>
<clipPath id="clip0_234_3972">
<rect width="205" height="32" fill="white" transform="translate(0.5)"/>
</clipPath>
</defs>
</svg>
