<svg width="35" height="35" viewBox="0 0 35 35" fill="none" xmlns="http://www.w3.org/2000/svg">
<g clip-path="url(#clip0_433_1930)">
<path d="M17.5002 0.910156C8.34016 0.910156 0.910156 8.34016 0.910156 17.5002C0.910156 26.6602 8.34016 34.0902 17.5002 34.0902C26.6602 34.0902 34.0902 26.6602 34.0902 17.5002C34.0902 8.34016 26.6602 0.910156 17.5002 0.910156ZM17.8402 26.7302C16.2102 26.7302 14.6002 26.3202 13.1602 25.5402L7.80016 26.9802L9.23016 21.6402C8.42016 20.1802 7.99016 18.5402 7.99016 16.8802C7.99016 11.4502 12.4102 7.03016 17.8402 7.03016C23.2702 7.03016 27.6902 11.4502 27.6902 16.8802C27.6902 22.3102 23.2702 26.7302 17.8402 26.7302ZM17.8402 8.89016C13.4402 8.89016 9.85016 12.4702 9.85016 16.8802C9.85016 18.3302 10.2502 19.7702 11.0202 21.0202L11.2302 21.3602L10.4302 24.3402L13.4302 23.5402L13.7702 23.7402C15.0102 24.4802 16.4202 24.8702 17.8502 24.8702C22.2602 24.8702 25.8402 21.2902 25.8402 16.8802C25.8402 12.4702 22.2602 8.89016 17.8502 8.89016H17.8402ZM22.5402 19.9002C22.2402 20.6202 21.5002 21.0902 20.7602 21.2302C20.0402 21.3702 19.4502 21.1402 18.7902 20.9202C18.2002 20.7202 17.6302 20.4402 17.1002 20.1202C16.0402 19.4702 15.1202 18.6002 14.3902 17.6002C14.1702 17.2902 13.9602 16.9802 13.7602 16.6502C13.5102 16.2202 13.2802 15.7602 13.1602 15.2702C13.1102 15.0702 13.0902 14.8602 13.0802 14.6502C13.0802 13.9102 13.3502 13.1602 13.9402 12.6802C14.2802 12.4002 14.7802 12.2802 15.1602 12.5002C15.5702 12.7302 15.7902 13.3202 15.9802 13.7402C16.1302 14.0602 16.3002 14.4902 16.2402 14.8502C16.1802 15.2102 15.8902 15.5202 15.6602 15.7902C15.5102 15.9702 15.4802 16.1302 15.6102 16.3202C16.3702 17.5902 17.4202 18.5002 18.8002 19.0502C18.9902 19.1302 19.1302 19.1002 19.2502 18.9502C19.4902 18.6602 19.7202 18.0802 20.0902 17.9302C20.5702 17.7302 21.1002 18.0102 21.5002 18.2502C21.8802 18.4802 22.5102 18.7502 22.6102 19.2202C22.6602 19.4502 22.6102 19.6802 22.5302 19.9002H22.5402Z" fill="url(#paint0_linear_433_1930)"/>
</g>
<defs>
<linearGradient id="paint0_linear_433_1930" x1="29.2302" y1="29.2302" x2="5.77015" y2="5.77015" gradientUnits="userSpaceOnUse">
<stop stop-color="#00FB73"/>
<stop offset="1" stop-color="#00B25B"/>
</linearGradient>
<clipPath id="clip0_433_1930">
<rect width="35" height="35" fill="white"/>
</clipPath>
</defs>
</svg>
