<svg width="35" height="35" viewBox="0 0 35 35" fill="none" xmlns="http://www.w3.org/2000/svg">
<g clip-path="url(#clip0_433_1928)">
<path d="M21.5002 17.9202L16.0402 20.6202C15.8302 20.7402 15.1002 20.5802 15.1002 20.3402V14.8002C15.1002 14.5502 15.8302 14.4002 16.0502 14.5202L21.2702 17.3602C21.4902 17.4802 21.7202 17.8002 21.5002 17.9202ZM34.0902 17.5002C34.0902 26.6602 26.6602 34.0902 17.5002 34.0902C8.34016 34.0902 0.910156 26.6602 0.910156 17.5002C0.910156 8.34016 8.34016 0.910156 17.5002 0.910156C26.6602 0.910156 34.0902 8.34016 34.0902 17.5002ZM28.6602 14.6702C28.6602 12.0402 26.5302 9.91016 23.9002 9.91016H11.7302C9.10016 9.91016 6.97016 12.0402 6.97016 14.6702V20.3302C6.97016 22.9602 9.10016 25.0902 11.7302 25.0902H23.9002C26.5302 25.0902 28.6602 22.9602 28.6602 20.3302V14.6702Z" fill="url(#paint0_linear_433_1928)"/>
</g>
<defs>
<linearGradient id="paint0_linear_433_1928" x1="29.2302" y1="29.2302" x2="5.77015" y2="5.77015" gradientUnits="userSpaceOnUse">
<stop stop-color="#FF0000"/>
<stop offset="1" stop-color="#9B0000"/>
</linearGradient>
<clipPath id="clip0_433_1928">
<rect width="35" height="35" fill="white"/>
</clipPath>
</defs>
</svg>
